<?xml version="1.0" standalone="no"?>
<!DOCTYPE svg PUBLIC "-//W3C//DTD SVG 1.1//EN" "http://www.w3.org/Graphics/SVG/1.1/DTD/svg11.dtd">
<svg width="98.0mm" height="172.0mm"
 viewBox="0 0 98.0 172.0"
 xmlns="http://www.w3.org/2000/svg" version="1.1"
 xmlns:xlink="http://www.w3.org/1999/xlink">
<desc>Output from Flights of Ideas SVG Sketchup Plugin</desc>

<g id="text_annotations" font-size="10" stroke="rgb(255,0,0)" stroke-width="0">
</g>
  <path id="face0-cut"
 style="fill:none;stroke:rgb(0,0,255);stroke-width:0;stroke-miterlimit:4;stroke-dasharray:none;stroke-linejoin:round;stroke-linecap:round"
        d="M 84.0,162.0 L 84.5221047688802,161.965779445495 L 85.0352761804101,161.863703305156 L 85.5307337294604,161.695518130045 L 86.0,161.464101615138 L 86.4350457160349,161.173413361165 L 86.8284271247462,160.828427124746 L 87.1734133611649,160.435045716035 L 87.4641016151378,160.0 L 87.6955181300451,159.53073372946 L 87.8637033051563,159.03527618041 L 87.9657794454952,158.52210476888 L 88.0,158.0 L 88.0,14.0 L 87.9657794454952,13.4778952311198 L 87.8637033051563,12.9647238195899 L 87.6955181300452,12.4692662705396 L 87.4641016151378,12.0 L 87.1734133611649,11.5649542839651 L 86.8284271247462,11.1715728752538 L 86.4350457160349,10.8265866388351 L 86.0,10.5358983848623 L 85.5307337294604,10.3044818699548 L 85.0352761804101,10.1362966948437 L 84.5221047688802,10.0342205545048 L 84.0,10.0 L 14.0,10.0 L 13.4778952311198,10.0342205545048 L 12.9647238195899,10.1362966948438 L 12.4692662705396,10.3044818699549 L 12.0,10.5358983848623 L 11.5649542839651,10.826586638835 L 11.1715728752538,11.1715728752538 L 10.826586638835,11.5649542839651 L 10.5358983848622,12.0 L 10.3044818699549,12.4692662705396 L 10.1362966948437,12.9647238195899 L 10.0342205545048,13.4778952311198 L 10.0,14.0 L 10.0,158.0 L 10.0342205545048,158.52210476888 L 10.1362966948437,159.03527618041 L 10.3044818699549,159.53073372946 L 10.5358983848622,160.0 L 10.8265866388351,160.435045716035 L 11.1715728752538,160.828427124747 L 11.5649542839651,161.173413361165 L 12.0,161.464101615138 L 12.4692662705396,161.695518130044 L 12.9647238195899,161.863703305155 L 13.4778869284303,162.0 L 14.0,162.0 L 84.0,162.0 M 15.9723023451445,157.59976024451 L 15.8052335958405,157.588101397207 L 15.640298748018,157.559042978664 L 15.4793048623845,157.512903358997 L 15.3240158216412,157.450188053533 L 15.1761330050148,157.371584184283 L 15.0372766475907,157.277952951687 L 14.9089680886784,157.170320199124 L 14.7926131036996,157.049865173554 L 14.6894865022186,156.917907605445 L 14.600718160862,156.775893249525 L 14.5272806441535,156.625378044798 L 14.4699785488939,156.468011067343 L 14.4294396888303,156.305516462696 L 14.4061082161967,156.139674555751 L 14.4002397554898,155.972302345144 L 14.411898602793,155.805233595841 L 14.4409570213357,155.640298748018 L 14.4870966410033,155.479304862385 L 14.5498119464674,155.324015821641 L 14.6284158157174,155.176133005015 L 14.7220470483129,155.037276647591 L 14.8296798008759,154.908968088678 L 14.9501348264458,154.7926131037 L 15.0820923945555,154.689486502219 L 15.224106750475,154.600718160862 L 15.3746219552023,154.527280644153 L 15.5319889326573,154.469978548894 L 15.6944835373037,154.42943968883 L 15.8603254442488,154.406108216197 L 16.0276976548555,154.40023975549 L 16.1947664041595,154.411898602793 L 16.359701251982,154.440957021336 L 16.5206951376155,154.487096641003 L 16.6759841783588,154.549811946467 L 16.8238669949852,154.628415815717 L 16.9627233524093,154.722047048313 L 17.0910319113216,154.829679800876 L 17.2073868963004,154.950134826446 L 17.3105134977813,155.082092394556 L 17.399281839138,155.224106750475 L 17.4727193558466,155.374621955202 L 17.5300214511061,155.531988932657 L 17.5705603111697,155.694483537304 L 17.5938917838033,155.860325444249 L 17.5997602445103,156.027697654856 L 17.588101397207,156.19476640416 L 17.5590429786643,156.359701251982 L 17.5129033589967,156.520695137615 L 17.4501880535326,156.675984178359 L 17.3715841842826,156.823866994985 L 17.2779529516871,156.962723352409 L 17.1703201991241,157.091031911322 L 17.0498651735542,157.2073868963 L 16.9179076054445,157.310513497781 L 16.775893249525,157.399281839138 L 16.6253780447977,157.472719355847 L 16.4680110673427,157.530021451106 L 16.3055164626963,157.57056031117 L 16.1396745557512,157.593891783803 L 15.9723023451445,157.59976024451 M 16.2058363789451,15.1150559363462 L 16.3676048646366,15.1584016714481 L 16.5239563025579,15.2184193652921 L 16.6731776736367,15.2944514514652 L 16.8136340773047,15.3856649065204 L 16.9437866438108,15.4910603767565 L 17.0622093944005,15.6094831273461 L 17.1676048646366,15.7396356938524 L 17.2588183196918,15.8800920975203 L 17.3348504058648,16.029313468599 L 17.3948680997089,16.1856649065204 L 17.4382138348107,16.3474333922119 L 17.4644127062259,16.512846556292 L 17.4731776736366,16.6800920975203 L 17.4644127062259,16.8473376387485 L 17.4382138348108,17.0127508028287 L 17.3948680997089,17.1745192885202 L 17.3348504058648,17.3308707264416 L 17.2588183196918,17.4800920975203 L 17.1676048646366,17.6205485011882 L 17.0622093944005,17.7507010676944 L 16.9437866438109,17.8691238182841 L 16.8136340773046,17.9745192885202 L 16.6731776736367,18.0657327435754 L 16.5239563025579,18.1417648297485 L 16.3676048646366,18.2017825235926 L 16.2058363789451,18.2451282586944 L 16.0404232148649,18.2713271301096 L 15.8731776736366,18.2800920975203 L 15.7059321324085,18.2713271301096 L 15.5405189683282,18.2451282586944 L 15.3787504826368,18.2017825235926 L 15.2223990447154,18.1417648297485 L 15.0731776736367,18.0657327435754 L 14.9327212699687,17.9745192885202 L 14.8025687034625,17.8691238182841 L 14.6841459528728,17.7507010676945 L 14.5787504826368,17.6205485011883 L 14.4875370275815,17.4800920975203 L 14.4115049414085,17.3308707264416 L 14.3514872475645,17.1745192885202 L 14.3081415124626,17.0127508028287 L 14.2819426410474,16.8473376387485 L 14.2731776736367,16.6800920975203 L 14.2819426410474,16.5128465562921 L 14.3081415124626,16.3474333922119 L 14.3514872475644,16.1856649065204 L 14.4115049414085,16.029313468599 L 14.4875370275816,15.8800920975203 L 14.5787504826368,15.7396356938524 L 14.6841459528729,15.6094831273461 L 14.8025687034625,15.4910603767565 L 14.9327212699687,15.3856649065204 L 15.0731776736367,15.2944514514652 L 15.2223990447154,15.2184193652921 L 15.3787504826368,15.1584016714481 L 15.5405189683283,15.1150559363462 L 15.7059321324084,15.0888570649311 L 15.8731776736367,15.0800920975203 L 16.0404232148649,15.0888570649311 L 16.2058363789451,15.1150559363462 M 82.3229131609427,18.2155848495245 L 82.159946765161,18.2541834189329 L 81.9938384672023,18.275535914424 L 81.8264081843393,18.279408393589 L 81.6594903177883,18.2657584287358 L 81.4949136546249,18.2347355717359 L 81.3344813312106,18.1866797155024 L 81.1799510776535,18.1221173700525 L 81.0330159597488,18.0417558939536 L 80.8952858293967,17.9464757443545 L 80.7682696867271,17.8373208305128 L 80.6533591471789,17.7154870765068 L 80.5518131946701,17.5823093184407 L 80.4647443879061,17.4392466797011 L 80.3931066709542,17.2878665844959 L 80.3376849216324,17.1298275848263 L 80.2990863522241,16.9668611890446 L 80.277733856733,16.8007528910859 L 80.273861377568,16.633322608223 L 80.2875113424211,16.466404741672 L 80.3185341994211,16.3018280785085 L 80.3665900556546,16.1413957550943 L 80.4311524011045,15.9868655015371 L 80.5115138772034,15.8399303836324 L 80.6067940268025,15.7022002532803 L 80.7159489406442,15.5751841106107 L 80.8377826946502,15.4602735710626 L 80.9709604527163,15.3587276185537 L 81.1140230914559,15.2716588117897 L 81.2654031866611,15.2000210948378 L 81.4234421863307,15.1445993455161 L 81.5864085821124,15.1060007761077 L 81.7525168800711,15.0846482806166 L 81.919947162934,15.0807758014516 L 82.0868650294851,15.0944257663048 L 82.2514416926484,15.1254486233047 L 82.4118740160627,15.1735044795383 L 82.5664042696199,15.2380668249882 L 82.7133393875245,15.3184283010871 L 82.8510695178767,15.4137084506862 L 82.9780856605463,15.5228633645278 L 83.0929962000944,15.6446971185338 L 83.1945421526033,15.7778748765999 L 83.2816109593673,15.9209375153395 L 83.3532486763192,16.0723176105447 L 83.4086704256409,16.2303566102143 L 83.4472689950492,16.393323005996 L 83.4686214905404,16.5594313039547 L 83.4724939697054,16.7268615868176 L 83.4588440048522,16.8937794533687 L 83.4278211478523,17.0583561165321 L 83.3797652916187,17.2187884399464 L 83.3152029461689,17.3733186935036 L 83.2348414700699,17.5202538114082 L 83.1395613204708,17.6579839417603 L 83.0304064066292,17.7850000844299 L 82.9085726526232,17.899910623978 L 82.7753948945571,18.0014565764869 L 82.6323322558175,18.0885253832509 L 82.4809521606123,18.1601631002028 L 82.3229131609427,18.2155848495245 M 80.6304631256256,155.172734172271 L 80.7244384176068,155.034110436166 L 80.8323890292132,154.906069188249 L 80.9531322309538,154.790013275225 L 81.0853451350432,154.687214229963 L 81.2275791892369,154.598798340316 L 81.3782760474728,154.525734309273 L 81.5357846434367,154.468822641648 L 81.6983792799904,154.42868687358 L 81.8642785362707,154.405766740943 L 82.0316647853092,154.400313361508 L 82.1987041083336,154.412386483639 L 82.3635663875655,154.441853831686 L 82.5244453573741,154.488392555215 L 82.6795783941001,154.551492766234 L 82.8272658277294,154.630463125626 L 82.9658895638336,154.724438417607 L 83.093930811751,154.832389029213 L 83.2099867247752,154.953132230954 L 83.3127857700367,155.085345135043 L 83.4012016596836,155.227579189237 L 83.4742656907267,155.378276047473 L 83.5311773583523,155.535784643437 L 83.5713131264204,155.69837927999 L 83.5942332590569,155.864278536271 L 83.5996866384925,156.031664785309 L 83.5876135163608,156.198704108334 L 83.5581461683143,156.363566387566 L 83.5116074447848,156.524445357374 L 83.448507233766,156.6795783941 L 83.3695368743744,156.827265827729 L 83.2755615823932,156.965889563834 L 83.1676109707868,157.093930811751 L 83.0468677690462,157.209986724775 L 82.9146548649568,157.312785770037 L 82.7724208107631,157.401201659684 L 82.6217239525272,157.474265690727 L 82.4642153565633,157.531177358352 L 82.3016207200096,157.57131312642 L 82.1357214637293,157.594233259057 L 81.9683352146908,157.599686638492 L 81.8012958916665,157.587613516361 L 81.6364336124345,157.558146168314 L 81.4755546426259,157.511607444785 L 81.3204216058999,157.448507233766 L 81.1727341722706,157.369536874374 L 81.0341104361664,157.275561582393 L 80.906069188249,157.167610970787 L 80.7900132752248,157.046867769046 L 80.6872142299633,156.914654864957 L 80.5987983403164,156.772420810763 L 80.5257343092733,156.621723952527 L 80.4688226416477,156.464215356563 L 80.4286868735797,156.30162072001 L 80.4057667409431,156.135721463729 L 80.4003133615075,155.968335214691 L 80.4123864836392,155.801295891666 L 80.4418538316857,155.636433612435 L 80.4883925552152,155.475554642626 L 80.551492766234,155.3204216059 L 80.6304631256256,155.172734172271 "
  />
</svg>
