<?xml version="1.0" standalone="no"?>
<!DOCTYPE svg PUBLIC "-//W3C//DTD SVG 1.1//EN" "http://www.w3.org/Graphics/SVG/1.1/DTD/svg11.dtd">
<svg width="98.0mm" height="172.0mm"
 viewBox="0 0 98.0 172.0"
 xmlns="http://www.w3.org/2000/svg" version="1.1"
 xmlns:xlink="http://www.w3.org/1999/xlink">
<desc>Output from Flights of Ideas SVG Sketchup Plugin</desc>

<g id="text_annotations" font-size="10" stroke="rgb(255,0,0)" stroke-width="0">
</g>
  <path id="face0-cut"
 style="fill:none;stroke:rgb(0,0,255);stroke-width:0;stroke-miterlimit:4;stroke-dasharray:none;stroke-linejoin:round;stroke-linecap:round"
        d="M 84.0,162.0 L 84.5221047688802,161.965779445495 L 85.0352761804101,161.863703305156 L 85.5307337294604,161.695518130045 L 86.0,161.464101615138 L 86.4350457160349,161.173413361165 L 86.8284271247462,160.828427124746 L 87.1734133611649,160.435045716035 L 87.4641016151378,160.0 L 87.6955181300451,159.53073372946 L 87.8637033051563,159.03527618041 L 87.9657794454952,158.52210476888 L 88.0,158.0 L 88.0,14.0 L 87.9657794454952,13.4778952311198 L 87.8637033051563,12.9647238195899 L 87.6955181300452,12.4692662705396 L 87.4641016151378,12.0 L 87.1734133611649,11.5649542839651 L 86.8284271247462,11.1715728752538 L 86.4350457160349,10.8265866388351 L 86.0,10.5358983848623 L 85.5307337294604,10.3044818699548 L 85.0352761804101,10.1362966948437 L 84.5221047688802,10.0342205545048 L 84.0,10.0 L 14.0,10.0 L 13.4778952311198,10.0342205545048 L 12.9647238195899,10.1362966948438 L 12.4692662705396,10.3044818699549 L 12.0,10.5358983848623 L 11.5649542839651,10.826586638835 L 11.1715728752538,11.1715728752538 L 10.826586638835,11.5649542839651 L 10.5358983848622,12.0 L 10.3044818699549,12.4692662705396 L 10.1362966948437,12.9647238195899 L 10.0342205545048,13.4778952311198 L 10.0,14.0 L 10.0,158.0 L 10.0342205545048,158.52210476888 L 10.1362966948437,159.03527618041 L 10.3044818699549,159.53073372946 L 10.5358983848622,160.0 L 10.8265866388351,160.435045716035 L 11.1715728752538,160.828427124747 L 11.5649542839651,161.173413361165 L 12.0,161.464101615138 L 12.4692662705396,161.695518130044 L 12.9647238195899,161.863703305155 L 13.4778869284303,162.0 L 14.0,162.0 L 84.0,162.0 M 15.9723023451445,157.59976024451 L 15.8052335958405,157.588101397207 L 15.640298748018,157.559042978664 L 15.4793048623845,157.512903358997 L 15.3240158216412,157.450188053533 L 15.1761330050148,157.371584184283 L 15.0372766475907,157.277952951687 L 14.9089680886784,157.170320199124 L 14.7926131036996,157.049865173554 L 14.6894865022186,156.917907605445 L 14.600718160862,156.775893249525 L 14.5272806441535,156.625378044798 L 14.4699785488939,156.468011067343 L 14.4294396888303,156.305516462696 L 14.4061082161967,156.139674555751 L 14.4002397554898,155.972302345144 L 14.411898602793,155.805233595841 L 14.4409570213357,155.640298748018 L 14.4870966410033,155.479304862385 L 14.5498119464674,155.324015821641 L 14.6284158157174,155.176133005015 L 14.7220470483129,155.037276647591 L 14.8296798008759,154.908968088678 L 14.9501348264458,154.7926131037 L 15.0820923945555,154.689486502219 L 15.224106750475,154.600718160862 L 15.3746219552023,154.527280644153 L 15.5319889326573,154.469978548894 L 15.6944835373037,154.42943968883 L 15.8603254442488,154.406108216197 L 16.0276976548555,154.40023975549 L 16.1947664041595,154.411898602793 L 16.359701251982,154.440957021336 L 16.5206951376155,154.487096641003 L 16.6759841783588,154.549811946467 L 16.8238669949852,154.628415815717 L 16.9627233524093,154.722047048313 L 17.0910319113216,154.829679800876 L 17.2073868963004,154.950134826446 L 17.3105134977813,155.082092394556 L 17.399281839138,155.224106750475 L 17.4727193558466,155.374621955202 L 17.5300214511061,155.531988932657 L 17.5705603111697,155.694483537304 L 17.5938917838033,155.860325444249 L 17.5997602445103,156.027697654856 L 17.588101397207,156.19476640416 L 17.5590429786643,156.359701251982 L 17.5129033589967,156.520695137615 L 17.4501880535326,156.675984178359 L 17.3715841842826,156.823866994985 L 17.2779529516871,156.962723352409 L 17.1703201991241,157.091031911322 L 17.0498651735542,157.2073868963 L 16.9179076054445,157.310513497781 L 16.775893249525,157.399281839138 L 16.6253780447977,157.472719355847 L 16.4680110673427,157.530021451106 L 16.3055164626963,157.57056031117 L 16.1396745557512,157.593891783803 L 15.9723023451445,157.59976024451 M 16.2058363789451,15.1150559363462 L 16.3676048646366,15.1584016714481 L 16.5239563025579,15.2184193652921 L 16.6731776736367,15.2944514514652 L 16.8136340773047,15.3856649065204 L 16.9437866438108,15.4910603767565 L 17.0622093944005,15.6094831273461 L 17.1676048646366,15.7396356938524 L 17.2588183196918,15.8800920975203 L 17.3348504058648,16.029313468599 L 17.3948680997089,16.1856649065204 L 17.4382138348107,16.3474333922119 L 17.4644127062259,16.512846556292 L 17.4731776736366,16.6800920975203 L 17.4644127062259,16.8473376387485 L 17.4382138348108,17.0127508028287 L 17.3948680997089,17.1745192885202 L 17.3348504058648,17.3308707264416 L 17.2588183196918,17.4800920975203 L 17.1676048646366,17.6205485011882 L 17.0622093944005,17.7507010676944 L 16.9437866438109,17.8691238182841 L 16.8136340773046,17.9745192885202 L 16.6731776736367,18.0657327435754 L 16.5239563025579,18.1417648297485 L 16.3676048646366,18.2017825235926 L 16.2058363789451,18.2451282586944 L 16.0404232148649,18.2713271301096 L 15.8731776736366,18.2800920975203 L 15.7059321324085,18.2713271301096 L 15.5405189683282,18.2451282586944 L 15.3787504826368,18.2017825235926 L 15.2223990447154,18.1417648297485 L 15.0731776736367,18.0657327435754 L 14.9327212699687,17.9745192885202 L 14.8025687034625,17.8691238182841 L 14.6841459528728,17.7507010676945 L 14.5787504826368,17.6205485011883 L 14.4875370275815,17.4800920975203 L 14.4115049414085,17.3308707264416 L 14.3514872475645,17.1745192885202 L 14.3081415124626,17.0127508028287 L 14.2819426410474,16.8473376387485 L 14.2731776736367,16.6800920975203 L 14.2819426410474,16.5128465562921 L 14.3081415124626,16.3474333922119 L 14.3514872475644,16.1856649065204 L 14.4115049414085,16.029313468599 L 14.4875370275816,15.8800920975203 L 14.5787504826368,15.7396356938524 L 14.6841459528729,15.6094831273461 L 14.8025687034625,15.4910603767565 L 14.9327212699687,15.3856649065204 L 15.0731776736367,15.2944514514652 L 15.2223990447154,15.2184193652921 L 15.3787504826368,15.1584016714481 L 15.5405189683283,15.1150559363462 L 15.7059321324084,15.0888570649311 L 15.8731776736367,15.0800920975203 L 16.0404232148649,15.0888570649311 L 16.2058363789451,15.1150559363462 M 82.3229131609427,18.2155848495245 L 82.159946765161,18.2541834189329 L 81.9938384672023,18.275535914424 L 81.8264081843393,18.279408393589 L 81.6594903177883,18.2657584287358 L 81.4949136546249,18.2347355717359 L 81.3344813312106,18.1866797155024 L 81.1799510776535,18.1221173700525 L 81.0330159597488,18.0417558939536 L 80.8952858293967,17.9464757443545 L 80.7682696867271,17.8373208305128 L 80.6533591471789,17.7154870765068 L 80.5518131946701,17.5823093184407 L 80.4647443879061,17.4392466797011 L 80.3931066709542,17.2878665844959 L 80.3376849216324,17.1298275848263 L 80.2990863522241,16.9668611890446 L 80.277733856733,16.8007528910859 L 80.273861377568,16.633322608223 L 80.2875113424211,16.466404741672 L 80.3185341994211,16.3018280785085 L 80.3665900556546,16.1413957550943 L 80.4311524011045,15.9868655015371 L 80.5115138772034,15.8399303836324 L 80.6067940268025,15.7022002532803 L 80.7159489406442,15.5751841106107 L 80.8377826946502,15.4602735710626 L 80.9709604527163,15.3587276185537 L 81.1140230914559,15.2716588117897 L 81.2654031866611,15.2000210948378 L 81.4234421863307,15.1445993455161 L 81.5864085821124,15.1060007761077 L 81.7525168800711,15.0846482806166 L 81.919947162934,15.0807758014516 L 82.0868650294851,15.0944257663048 L 82.2514416926484,15.1254486233047 L 82.4118740160627,15.1735044795383 L 82.5664042696199,15.2380668249882 L 82.7133393875245,15.3184283010871 L 82.8510695178767,15.4137084506862 L 82.9780856605463,15.5228633645278 L 83.0929962000944,15.6446971185338 L 83.1945421526033,15.7778748765999 L 83.2816109593673,15.9209375153395 L 83.3532486763192,16.0723176105447 L 83.4086704256409,16.2303566102143 L 83.4472689950492,16.393323005996 L 83.4686214905404,16.5594313039547 L 83.4724939697054,16.7268615868176 L 83.4588440048522,16.8937794533687 L 83.4278211478523,17.0583561165321 L 83.3797652916187,17.2187884399464 L 83.3152029461689,17.3733186935036 L 83.2348414700699,17.5202538114082 L 83.1395613204708,17.6579839417603 L 83.0304064066292,17.7850000844299 L 82.9085726526232,17.899910623978 L 82.7753948945571,18.0014565764869 L 82.6323322558175,18.0885253832509 L 82.4809521606123,18.1601631002028 L 82.3229131609427,18.2155848495245 M 80.6304631256256,155.172734172271 L 80.7244384176068,155.034110436166 L 80.8323890292132,154.906069188249 L 80.9531322309538,154.790013275225 L 81.0853451350432,154.687214229963 L 81.2275791892369,154.598798340316 L 81.3782760474728,154.525734309273 L 81.5357846434367,154.468822641648 L 81.6983792799904,154.42868687358 L 81.8642785362707,154.405766740943 L 82.0316647853092,154.400313361508 L 82.1987041083336,154.412386483639 L 82.3635663875655,154.441853831686 L 82.5244453573741,154.488392555215 L 82.6795783941001,154.551492766234 L 82.8272658277294,154.630463125626 L 82.9658895638336,154.724438417607 L 83.093930811751,154.832389029213 L 83.2099867247752,154.953132230954 L 83.3127857700367,155.085345135043 L 83.4012016596836,155.227579189237 L 83.4742656907267,155.378276047473 L 83.5311773583523,155.535784643437 L 83.5713131264204,155.69837927999 L 83.5942332590569,155.864278536271 L 83.5996866384925,156.031664785309 L 83.5876135163608,156.198704108334 L 83.5581461683143,156.363566387566 L 83.5116074447848,156.524445357374 L 83.448507233766,156.6795783941 L 83.3695368743744,156.827265827729 L 83.2755615823932,156.965889563834 L 83.1676109707868,157.093930811751 L 83.0468677690462,157.209986724775 L 82.9146548649568,157.312785770037 L 82.7724208107631,157.401201659684 L 82.6217239525272,157.474265690727 L 82.4642153565633,157.531177358352 L 82.3016207200096,157.57131312642 L 82.1357214637293,157.594233259057 L 81.9683352146908,157.599686638492 L 81.8012958916665,157.587613516361 L 81.6364336124345,157.558146168314 L 81.4755546426259,157.511607444785 L 81.3204216058999,157.448507233766 L 81.1727341722706,157.369536874374 L 81.0341104361664,157.275561582393 L 80.906069188249,157.167610970787 L 80.7900132752248,157.046867769046 L 80.6872142299633,156.914654864957 L 80.5987983403164,156.772420810763 L 80.5257343092733,156.621723952527 L 80.4688226416477,156.464215356563 L 80.4286868735797,156.30162072001 L 80.4057667409431,156.135721463729 L 80.4003133615075,155.968335214691 L 80.4123864836392,155.801295891666 L 80.4418538316857,155.636433612435 L 80.4883925552152,155.475554642626 L 80.551492766234,155.3204216059 L 80.6304631256256,155.172734172271 M 82.5601402703971,81.9527832878976 L 82.8921569199689,81.9896216539358 L 83.0515921848935,82.0406285622932 L 83.2028730929763,82.1122902344155 L 83.3433374361806,82.2033455840107 L 83.4705133539916,82.3121922391301 L 83.582162832672,82.4369147403563 L 83.676321089334,82.575318248636 L 83.7513311477551,82.7249671695723 L 83.8058729974801,82.8832280144781 L 83.8500898947394,83.2143427782716 L 83.8500898947394,84.4598626083963 L 83.803274682841,84.8154594467114 L 83.7455064103233,84.9856392898252 L 83.666019426471,85.1468229481469 L 83.5661737756156,85.2962525245941 L 83.4476778445259,85.4313712376841 L 83.3125591314359,85.5498671687738 L 83.1631295549888,85.6497128196292 L 83.001945896667,85.7291998034815 L 82.8317660535532,85.7869680759992 L 82.4761692152381,85.8337832878976 L 78.5533000010018,85.8337832878976 L 78.172360408122,85.783631639065 L 77.9900521500979,85.7217463244528 L 77.8173812189645,85.6365944445558 L 77.6573020622271,85.5296329716477 L 77.5125536786396,85.4026920461853 L 77.3856127531772,85.2579436625978 L 77.278651280269,85.0978645058603 L 77.1934994003721,84.925193574727 L 77.1316140857598,84.7428853167028 L 77.0814624369273,84.3619457238231 L 77.0814624369273,83.2697592950451 L 77.0749744532576,83.1037576131315 L 77.1931077962851,82.6229216682443 L 77.2757816188623,82.4788255496612 L 77.3777525883039,82.3476745919011 L 77.4970256816355,82.2320347132375 L 77.6312673664537,82.1341683636201 L 77.7778512555933,82.0559902607079 L 77.9339094913876,81.9990299291516 L 78.2621104975224,81.9527832878976 L 82.5601402703971,81.9527832878976 M 19.9887497427809,83.3781781034937 L 20.0555924523561,83.8858988896551 L 20.0555924523561,94.5303167545332 L 19.9840741808916,95.0735519591443 L 19.895823229365,95.3335308789026 L 19.774393218509,95.5797665822998 L 19.6218618494762,95.8080459081815 L 19.4408389762805,96.0144629339909 L 19.2344219504711,96.1954858071866 L 19.0061426245894,96.3480171762194 L 18.7599069211921,96.4694471870754 L 18.4999280014339,96.557698138602 L 17.9566927968227,96.6292164100665 L 13.3282090506441,96.6292164100665 L 12.9844432524599,96.5839587841504 L 12.8199254522453,96.5281125162087 L 12.6641045253221,96.4512701388166 L 12.5196466109517,96.3547464463559 L 12.3890234241003,96.2401929859661 L 12.2744699637105,96.1095697991148 L 12.1779462712499,95.9651118847444 L 12.1011038938578,95.8092909578212 L 12.0452576259161,95.6447731576066 L 12.0,95.3010073594224 L 12.0,83.2848456189428 L 12.0463623160194,82.9326888663629 L 12.1035717314585,82.7641553631138 L 12.1822897488583,82.6045310145047 L 12.2811694811165,82.4565470373963 L 12.3985190685994,82.3227354786659 L 12.5323306273298,82.205385891183 L 12.6803146044382,82.1065061589248 L 12.8399389530473,82.027788141525 L 13.0084724562964,81.9705787260859 L 13.3606292088763,81.9242164100665 L 18.0939099727674,81.9242164100665 L 18.6016307589289,81.9910591196417 L 18.8446133572669,82.0735405974772 L 19.0747512125618,82.1870320281726 L 19.2881066023032,82.3295915418827 L 19.4810289566194,82.4987799058032 L 19.6502173205399,82.6917022601194 L 19.79277683425,82.9050576498608 L 19.9062682649453,83.1351955051557 L 19.9887497427809,83.3781781034937 M 13.3881983061922,98.8223036152267 L 28.3030872128538,98.8223036152267 L 28.5521274438771,98.8190658811406 L 29.0445877685975,98.8894090108346 L 29.2827622440223,98.9622405894683 L 29.5121614436287,99.0592329954085 L 29.7303418393341,99.1793530791581 L 29.9349794041805,99.3213213384413 L 30.1238943675438,99.4836255472826 L 30.2950744337446,99.6645368640254 L 30.4466962167394,99.8621282467111 L 30.5771446625727,100.074294979659 L 30.6850302527053,100.298777092603 L 30.9100015223608,100.751004912038 L 31.191904374547,101.170114509601 L 31.5259454149522,101.548979467292 L 31.9064447066392,101.881157675286 L 32.3269323500444,102.161000871709 L 32.7802584952732,102.383750684038 L 33.2587149160734,102.54561953909 L 33.7541660782778,102.643855065815 L 34.2581874740671,102.676786895818 L 51.5485059872873,102.676786895818 L 52.0953306311984,102.748777725931 L 52.3570273677399,102.837611797681 L 52.6048900792974,102.959844160169 L 52.8346777661556,103.113383383785 L 53.0424586972832,103.295602369842 L 53.2246776833408,103.50338330097 L 53.3782169069563,103.733170987828 L 53.5004492694447,103.981033699385 L 53.5892833411943,104.242730435927 L 53.6612741713075,104.789555079838 L 53.6612741713076,107.461428051469 L 53.7338303144628,108.012546674244 L 53.8233619619906,108.276298402761 L 53.9465541626772,108.526107473643 L 54.1012990638136,108.757699584427 L 54.2849489372378,108.967112129888 L 54.4943614826983,109.150762003312 L 54.7259535934821,109.305506904448 L 54.9757626643641,109.428699105135 L 55.2395143928815,109.518230752663 L 55.7906330156566,109.590786895818 L 58.478533849683,109.590786895818 L 59.0360152694123,109.664164595648 L 59.3028172634528,109.754710524426 L 59.5555216557763,109.879299285327 L 59.7898064791859,110.035800054533 L 60.0016647937464,110.2215362217 L 60.187473216906,110.433331167638 L 60.3440538936919,110.667562593582 L 60.468728847111,110.920224472844 L 60.5593657792084,111.186995565322 L 60.6329336367539,111.744451922818 L 60.6352172045892,118.438989598675 L 60.5621223404382,118.995544924783 L 60.4717830374661,119.261912227302 L 60.3474415183457,119.514205540996 L 60.1912262237329,119.748106184948 L 60.0058111999677,119.959610318417 L 59.7943703255551,120.145097477379 L 59.5605229816689,120.301392548541 L 59.3082720966754,120.425820119972 L 59.041935625212,120.516250277999 L 58.4854052648063,120.589534983982 L 30.0549986333006,120.589534983982 L 29.3612808982179,120.633485291994 L 28.6672470120179,120.594847352751 L 27.9826945418989,120.474166611966 L 27.3172872073995,120.273146700671 L 26.6804184591904,119.994625385334 L 26.0810788732089,119.64253450755 L 25.5277292321126,119.221844478858 L 25.0281810857415,118.738494114215 L 24.5894864766975,118.199306794689 L 24.2178383877688,117.611894142852 L 23.9184833165653,116.984548570709 L 23.695647211538,116.326126217019 L 23.6956472115381,107.874806622521 L 23.6672740685565,107.441916113492 L 23.5826401119547,107.016432481093 L 23.4431934521951,106.60563586824 L 23.2513200602882,106.216555118874 L 23.0103029431667,105.855847512489 L 22.7242659705272,105.529684856237 L 22.3981033142761,105.243647883598 L 22.0373957078911,105.002630766477 L 21.6483149585245,104.81075737457 L 21.2375183456716,104.67131071481 L 20.8120347132725,104.586676758208 L 20.3791442042441,104.558303615227 L 13.3881983061922,104.558303615227 L 13.2052534854396,104.540590629069 L 13.0260744810544,104.499634045883 L 12.8536020151621,104.436106053408 L 12.6906667408196,104.35104928593 L 12.5399427847635,104.245859712352 L 12.4039038591005,104.122263725268 L 12.2847826622432,103.982289807061 L 12.1845342354106,103.82823523804 L 12.1048038760967,103.662628393005 L 12.0469001351134,103.488187245052 L 12.0117733403903,103.307774757648 L 12.0,103.124351897092 L 12.0,100.210501921419 L 12.0473017102305,99.8512097613973 L 12.1056703040344,99.6792614288018 L 12.1859833075392,99.5164027683228 L 12.286866542988,99.3654203367938 L 12.406593870252,99.2288974854787 L 12.5431167215672,99.1091701582147 L 12.6940991530961,99.0082869227659 L 12.8569578135752,98.9279739192611 L 13.0289061461706,98.8696053254571 L 13.3881983061922,98.8223036152267 M 70.293795158986,28.1290507177421 L 70.0614892497043,28.2092380685599 L 69.8415780827054,28.3189427874538 L 69.637793491294,28.4563032148764 L 69.4535936451283,28.6189883813513 L 69.2921043660117,28.8042375633975 L 69.1560660835383,29.0089071322643 L 69.047787330741,29.2295239004645 L 68.9691055689061,29.4623440608308 L 68.9053489402991,29.948650933626 L 68.9053489402991,37.2057820268324 L 68.8595179408032,37.5539030297435 L 68.8029641506723,37.7205051231162 L 68.725148249192,37.8783001616033 L 68.6274016880112,38.0245882283472 L 68.5113969378922,38.1568662939672 L 68.3791188722722,38.2728710440862 L 68.2328308055283,38.370617605267 L 68.0750357670412,38.4484335067473 L 67.9084336736684,38.5049872968783 L 67.5603126707574,38.5508182963742 L 62.5706738909252,38.5508182963742 L 62.2354191241067,38.5066811689944 L 62.0749744927915,38.4522175555827 L 61.9230114156122,38.3772776591461 L 61.7821300229514,38.2831437220898 L 61.6547408344974,38.1714264021759 L 61.5430235145834,38.0440372137218 L 61.4488895775272,37.9031558210611 L 61.3739496810906,37.7511927438818 L 61.3194860676788,37.5907481125665 L 61.2753489402991,37.255493345748 L 61.2753489402991,29.7361679235471 L 61.2350154995927,29.4298050254209 L 61.1852454974967,29.2831873271701 L 61.1167638348033,29.1443202525132 L 61.030742251748,29.015579855599 L 60.9286526014664,28.8991689203121 L 60.8122416661794,28.7970792700305 L 60.6835012692652,28.7110576869751 L 60.5446341946084,28.6425760242817 L 60.3980164963576,28.5928060221858 L 60.0916535982313,28.5524725814793 L 48.6857519260288,28.5524725814793 L 48.284219286693,28.4996098066479 L 48.0920557064683,28.4343790609422 L 47.9100504331639,28.3446239928986 L 47.7413176274676,28.2318803366161 L 47.5887443544663,28.0980771673122 L 47.4549411851623,27.9455038943108 L 47.3421975288799,27.7767710886145 L 47.2524424608362,27.5947658153102 L 47.1872117151305,27.4026022350854 L 47.1343489402991,27.0010695957497 L 47.1343489402991,21.8922888559832 L 47.1822491808021,21.5277851006768 L 47.241359104256,21.3533144600249 L 47.3226972834347,21.188032615565 L 47.4248770106271,21.0347574027903 L 47.5461562574637,20.8961019601026 L 47.6844673741825,20.7744301782788 L 47.837452340306,20.6718163992801 L 48.0025029657518,20.5900100514814 L 48.176805357003,20.5304058242462 L 48.541171873611,20.4814725814793 L 61.191496995652,20.4814725814793 L 61.6767599932643,20.516703364983 L 61.8297015471096,20.5738991953118 L 61.972954580686,20.6522640488543 L 62.1036070461296,20.7502049247597 L 62.2190030399426,20.8657308807675 L 62.3167967922037,20.9964935050846 L 62.395000351382,21.1398346549037 L 62.4520239954187,21.2928404911334 L 62.4983489402991,21.6152717739077 L 62.5265181359863,23.9387903464555 L 62.5863547763633,24.1564860558892 L 62.6753849437584,24.363960089761 L 62.7919375364587,24.557318147706 L 62.9338248551371,24.732930887095 L 63.0983836661032,24.8875020460183 L 63.282525190363,25.0181303143245 L 63.482793080191,25.1223637913907 L 63.6954282949886,25.1982460084471 L 64.1416787744709,25.2598182963741 L 66.6080917363112,25.2598182963742 L 66.8815642873863,25.2940987120145 L 67.4254408235312,25.2184635361569 L 67.6791827331392,25.1108650863702 L 67.9102770739809,24.9606725808349 L 68.1116440934102,24.7724872823279 L 68.2771147581075,24.5520743920229 L 68.4016197471542,24.3061864281237 L 68.4355208246173,24.1584520085016 L 68.6362799188298,23.7527567308289 L 68.7331680078233,23.6361915559034 L 68.8429982668343,23.5317307690031 L 68.9642695492517,23.4408021274479 L 69.0953243339494,23.3646484328423 L 69.2343713800827,23.3043105446142 L 69.3795102095508,23.2606131536752 L 69.6800721108368,23.2252932627058 L 81.9994234976903,23.2252932627055 L 82.7271861313166,23.2264824526124 L 82.9209781690009,23.2542145464234 L 83.1092174557495,23.3079769293815 L 83.2884244765676,23.386775829034 L 83.455286673663,23.4891546846509 L 83.6067196775245,23.6132210710674 L 83.7399243200466,23.7566816792757 L 83.8524383758404,23.9168847071678 L 83.9421820753155,24.0908688768542 L 84.0074965482468,24.2754181724982 L 84.0604824641063,24.6624346777177 L 84.0604824641064,26.922139871471 L 84.0171057698963,27.2342125787337 L 83.96365910135,27.3828056660153 L 83.8902642590874,27.5226257257201 L 83.7983189917209,27.6510099917946 L 83.6895743265153,27.7655134841253 L 83.5661012224132,27.8639555713134 L 83.430251130206,27.9444614991318 L 83.2846112109539,28.0054980937847 L 83.1319550654819,28.0459029600292 L 82.9751899132753,28.0649066181036 L 82.8173012267082,28.0621471578806 L 70.7796790915225,28.0621471578805 L 70.293795158986,28.1290507177421 M 80.1196748690725,53.2164435329956 L 80.2906833298183,53.2975148468446 L 80.4705435213236,53.3563940714278 L 80.8452572718045,53.4041912422704 L 83.087418368599,53.4053883711805 L 83.4217349009696,53.4484520744027 L 83.5820734687675,53.5014890639572 L 83.7343619598923,53.5744931327166 L 83.8761256031508,53.6662779246734 L 84.0050606618788,53.775351886806 L 84.1190718709204,53.8999425076302 L 84.2163064858315,54.0380251214799 L 84.2951843909896,54.1873558104302 L 84.354423777336,54.3455078691894 L 84.410471084619,54.6778942794078 L 84.4133699057561,62.7739868520056 L 84.3733789568006,63.0777482670066 L 84.3240315770958,63.2231209598399 L 84.256131427017,63.3608088435646 L 84.1708402969575,63.4884560403161 L 84.0696175417996,63.6038784711672 L 83.9541951109485,63.705101226325 L 83.8265479141971,63.7903923563846 L 83.6888600304723,63.8582925064634 L 83.543487337639,63.9076398861681 L 83.2397259226381,63.9476308351237 L 72.6446255533687,63.9476308351236 L 72.3220708567,63.9051657036987 L 72.1677041645359,63.8527652726169 L 72.0214977295624,63.7806642379534 L 71.8859531844178,63.6900962684013 L 71.7633897338498,63.58261100703 L 71.6559044724784,63.4600475564619 L 71.5653365029264,63.3245030113174 L 71.4932354682628,63.1782965763439 L 71.4408350371811,63.0239298841798 L 71.3983699057561,62.7013751875111 L 71.3985071988641,52.7067023925548 L 71.3985071988641,49.7645242081936 L 71.4416497936141,49.4368236666875 L 71.4948861898532,49.2799943005827 L 71.5681374813285,49.1314553755342 L 71.6601503181337,48.9937484337323 L 71.7693503351203,48.869229679131 L 71.8938690897217,48.7600296621443 L 72.0315760315235,48.6680168253392 L 72.180114956572,48.5947655338639 L 72.3369443226768,48.5415291376248 L 72.664644864183,48.4983865428748 L 77.9905012794282,48.4983865428748 L 78.3421581903719,48.5446830534944 L 78.5104524817887,48.6018112674582 L 78.6698502639753,48.6804175546631 L 78.8176241966852,48.7791569397412 L 78.9512458269591,48.8963399644381 L 79.068428851656,49.0299615947119 L 79.1671682367341,49.1777355274219 L 79.245774523939,49.3371333096085 L 79.3029027379028,49.5054276010253 L 79.3491992485224,49.857084511969 L 79.3713783162925,52.1744176551098 L 79.4170609816546,52.3580737077224 L 79.4855191551067,52.5345104671108 L 79.5756617515071,52.7009158873652 L 79.6860520797696,52.8546378018796 L 79.8149307408204,52.9932261935349 L 79.9602436688692,53.1144722430283 L 80.1196748690725,53.2164435329956 M 60.5115897205566,65.7061746679916 L 60.6962860363489,65.5442003462403 L 60.8582603581002,65.3595040304481 L 60.9947412602576,65.1552459257855 L 61.1033935167455,64.9349209450545 L 61.1823580573313,64.702298909761 L 61.246350652901,64.2162268887786 L 61.246350652901,56.4375800001241 L 61.308886160843,55.9625756584824 L 61.3860527081752,55.7352503405128 L 61.4922309931475,55.5199420777418 L 61.6256042758658,55.32033485424 L 61.7838905024847,55.1398440049432 L 61.9643813517815,54.9815577783243 L 62.1639885752833,54.848184495606 L 62.3792968380544,54.7420062106337 L 62.6066221560239,54.6648396633015 L 63.0816264976656,54.6023041553595 L 67.1792068913878,54.6023041553595 L 67.5659197529885,54.6532158694384 L 67.7509909544906,54.7160390769812 L 67.9262787721444,54.8024814624962 L 68.088783982791,54.9110639728009 L 68.2357260772214,55.0399287310391 L 68.3645908354596,55.1868708254695 L 68.4731733457643,55.3493760361161 L 68.5596157312793,55.52466385377 L 68.6224389388221,55.709735055272 L 68.673350652901,56.0964479168727 L 68.684455898411,71.8521675919615 L 68.6260835210136,72.2955498176476 L 68.5540541256897,72.5077415738067 L 68.454944369876,72.708716277377 L 68.3304500489729,72.8950351954596 L 68.1827012953275,73.0635103597089 L 68.0142261310782,73.2112591133544 L 67.8279072129956,73.3357534342574 L 67.6269325094253,73.4348631900711 L 67.4147407532662,73.506892585395 L 66.9713585275801,73.5652649627924 L 48.4065453929322,73.5652649627924 L 47.9375421203199,73.5035195105764 L 47.7130887654161,73.4273278633381 L 47.5005006456716,73.3224910044575 L 47.3034152027558,73.1908027216563 L 47.1252046232394,73.0345162379641 L 46.9689181395472,72.8563056584476 L 46.8372298567459,72.6592202155318 L 46.7323929978653,72.4466320957873 L 46.6562013506271,72.2221787408835 L 46.594455898411,71.7531754682712 L 46.594455898411,67.692679731235 L 46.648920560893,67.278979547189 L 46.7161279778257,67.0809928813044 L 46.8086028715981,66.8934723470138 L 46.9247629711388,66.7196264726493 L 47.0626207449391,66.5624298093205 L 47.2198174082678,66.4245720355202 L 47.3936632826323,66.3084119359795 L 47.5811838169229,66.2159370422072 L 47.7791704828075,66.1487296252745 L 48.1928706668536,66.0942649627924 L 59.3683125788872,66.0942649627925 L 59.8543845998696,66.0302723672228 L 60.0870066351631,65.9513078266369 L 60.3073316158941,65.842655570149 L 60.5115897205566,65.7061746679916 M 31.9034451063205,124.92394049537 L 32.4593457398488,125.034516006413 L 32.9960575659858,125.216705121578 L 33.5043972965814,125.467390534591 L 33.9756670979069,125.782282948533 L 34.4018034130008,126.155994466897 L 34.7755149313647,126.582130781991 L 35.0904073453069,127.053400583316 L 35.3410927583201,127.561740313912 L 35.5232818734846,128.098452140049 L 35.6338573845276,128.654352773577 L 35.6709273137977,129.219930600533 L 35.6709273137977,136.88062586146 L 35.6311694911197,137.487213017071 L 35.5125762904546,138.083421298272 L 35.317176874346,138.659049416072 L 35.0483145809786,139.20424821378 L 34.7105897187345,139.70968918881 L 34.3097808536418,140.166724105944 L 33.8527459365074,140.567532971037 L 33.3473049614775,140.905257833281 L 32.8021061637696,141.174120126648 L 32.2264780459701,141.369519542757 L 31.6302697647688,141.488112743422 L 31.0236826091573,141.5278705661 L 23.3478692410154,141.5278705661 L 22.7748668371886,141.490314004352 L 22.2116686633574,141.378286922291 L 21.6679111964244,141.193706134352 L 21.1528982774066,140.939729868991 L 20.6754419201371,140.620703730525 L 20.2437115352647,140.242086344633 L 19.8650941493727,139.810355959761 L 19.5460680109065,139.332899602491 L 19.2920917455459,138.817886683473 L 19.1075109576067,138.27412921654 L 18.995483875546,137.710931042709 L 18.9579273137978,137.137928638882 L 18.9579273137978,129.139741900947 L 18.9943112176267,128.584630799607 L 19.1028403904316,128.039017803118 L 19.2816578679756,127.51223850112 L 19.5277040336406,127.013306233523 L 19.836768969315,126.550757869755 L 20.2035644882605,126.132507740563 L 20.621814617453,125.765712221617 L 21.0843629812211,125.456647285943 L 21.5832952488182,125.210601120278 L 22.1100745508156,125.031783642734 L 22.6556875473051,124.923254469929 L 23.2107986486445,124.8868705661 L 31.3378672793651,124.8868705661 L 31.9034451063205,124.92394049537 M 27.9167547258624,28.473435971698 L 27.7744572852636,28.4032626397307 L 27.6425366768123,28.3151161072623 L 27.5232500986946,28.210504585902 L 27.4186385773343,28.0912180077842 L 27.3304920448658,27.9592973993329 L 27.2603187128986,27.8169999587341 L 27.2093192665982,27.6667604346487 L 27.167989488483,27.3528296025523 L 27.167989488483,21.4705854225311 L 27.2092471872106,21.1572020877389 L 27.2601576901627,21.0072245823086 L 27.3302086394069,20.8651753093223 L 27.41820144378,20.7334847712245 L 27.5226305220029,20.6144062296335 L 27.6417090635939,20.5099771514106 L 27.7733996016918,20.4219843470375 L 27.915448874678,20.3519333977933 L 28.0654263801083,20.3010228948412 L 28.3788097149005,20.2597651961136 L 43.4196823546744,20.2597651961135 L 43.7836614241676,20.3076839496819 L 43.9578527955998,20.3668139525718 L 44.1228359215787,20.4481746265206 L 44.2757878950769,20.5503738678397 L 44.4140916654215,20.6716630191751 L 44.5353808167568,20.8099667895196 L 44.6375800580759,20.9629187630178 L 44.7189407320247,21.1279018889968 L 44.7780707349147,21.3020932604289 L 44.8259894884829,21.6660723299221 L 44.8259894884829,27.1792472685161 L 44.7787450357647,27.5381045145544 L 44.7204470956527,27.7098447080848 L 44.6402313089875,27.8725062323148 L 44.5394701901186,28.0233059034665 L 44.4198877897264,28.159663497357 L 44.2835301958359,28.2792458977492 L 44.1327305246842,28.380007016618 L 43.9700690004542,28.4602228032834 L 43.7983288069238,28.5185207433953 L 43.4394715608855,28.5657651961136 L 28.3809250820443,28.5657651961136 L 28.0669942499479,28.5244354179984 L 27.9167547258624,28.473435971698 M 25.00401332201,21.0332486903719 L 25.0469995844975,21.3597617704514 L 25.0469995844975,29.4429394622433 L 24.9965605173705,29.826062213815 L 24.9343205390136,30.0094152775394 L 24.8486806550598,30.1830757830074 L 24.7411061876674,30.3440723508225 L 24.6134377657988,30.4896502850727 L 24.4678598315485,30.6173187069413 L 24.3068632637334,30.7248931743337 L 24.1332027582655,30.8105330582875 L 23.9498496945411,30.8727730366445 L 23.5667269429694,30.9232121037714 L 18.9513179624615,30.9232121037714 L 18.580347868549,30.8743729643776 L 18.4028107659102,30.8141072387807 L 18.2346587734795,30.7311838528354 L 18.0787690184677,30.6270216486659 L 17.9378088178039,30.503402870465 L 17.814190039603,30.3624426698012 L 17.7100278354336,30.2065529147894 L 17.6271044494883,30.0384009223586 L 17.5668387238913,29.8608638197199 L 17.5179995844975,29.4898937258074 L 17.5179995844975,21.6558267556351 L 17.5710740167198,21.252686418802 L 17.6365659399646,21.0597534343577 L 17.7266803785404,20.8770194297033 L 17.8398754494185,20.7076110343217 L 17.9742143535528,20.5544268728268 L 18.1273985150477,20.4200879686925 L 18.2968069104293,20.3068928978143 L 18.4795409150838,20.2167784592386 L 18.6724738995281,20.1512865359938 L 19.0756142363612,20.0982121037714 L 23.7854499178175,20.0982121037715 L 24.111962997897,20.1411983662588 L 24.2682240743616,20.1942418541593 L 24.4162247511575,20.2672277109708 L 24.5534326956711,20.3589071284476 L 24.6775002419305,20.4677114463384 L 24.7863045598213,20.5917789925979 L 24.8779839772982,20.7289869371114 L 24.9509698341096,20.8769876139073 L 25.00401332201,21.0332486903719 M 17.389895168983,32.0164213811348 L 17.4386502199336,32.3917271352513 L 17.4386502199336,49.2821550449823 L 17.4841690368116,49.7505924808567 L 17.5406675112739,49.9793159553424 L 17.6190223559166,50.2015028670145 L 17.7184989177263,50.4150699970882 L 17.8381645070109,50.6180149456297 L 17.9768971422746,50.8084349060071 L 18.1333960698878,50.9845445055561 L 18.3061939599191,51.1446925451885 L 18.9055082586351,51.5151830768098 L 19.1421294986726,51.7241691535532 L 19.3495768740945,51.9621405340594 L 19.5243301055577,52.2250589617184 L 19.6634237171692,52.5084628408703 L 19.7644973591453,52.807542947877 L 19.8258358617797,53.1172240412684 L 19.8463983410249,53.4322509860791 L 19.8463983410249,66.4322509860791 L 19.8463983410249,67.2322509860791 L 19.8323521419871,67.4390309464205 L 19.7904716045917,67.6420119019154 L 19.7215261668648,67.8374646438324 L 19.6267825088639,68.0217982733599 L 19.5079812809659,68.1916261743543 L 19.367305124273,68.3438282329616 L 19.207338570672,68.4756081610053 L 19.0310205592718,68.5845448699792 L 18.841590441597,68.6686369517939 L 18.642528467542,68.7263394490666 L 18.4374918454885,68.7565922394023 L 18.2302475513059,68.7588395121852 L 13.5453918756674,68.7588395121851 L 13.145415026098,68.7061815609622 L 12.9539960083379,68.6412035601561 L 12.7726959378337,68.5517962596478 L 12.6046169090577,68.4394894431374 L 12.4526348007924,68.3062047113927 L 12.3193500690478,68.1542226031275 L 12.2070432525374,67.9861435743514 L 12.1176359520291,67.8048435038472 L 12.0526579512229,67.6134244860871 L 12.0,67.2134476365177 L 12.0,32.2714825385715 L 12.0459433191551,31.9225083831466 L 12.1026357076694,31.7554979921027 L 12.1806423153451,31.5973162397069 L 12.2786284274972,31.4506696595988 L 12.39491747458,31.3180674154223 L 12.5275197187565,31.2017783683394 L 12.6741662988646,31.1037922561873 L 12.8323480512605,31.0257856485117 L 12.9993584423044,30.9690932599974 L 13.3483325977293,30.9231499408423 L 16.0,30.9231499408422 L 16.3742225612362,30.9796206299475 L 16.5527670486198,31.0434919357793 L 16.7215955586728,31.1298320300408 L 16.8778945080715,31.2372020263184 L 17.019059122792,31.3638125678804 L 17.142736847536,31.5075536479026 L 17.2468665518479,31.6660297734347 L 17.3297128795405,31.8365998870879 L 17.389895168983,32.0164213811348 "
  />
</svg>
