<?xml version="1.0" standalone="no"?>
<!DOCTYPE svg PUBLIC "-//W3C//DTD SVG 1.1//EN" "http://www.w3.org/Graphics/SVG/1.1/DTD/svg11.dtd">
<svg width="98.0mm" height="172.0mm"
 viewBox="0 0 98.0 172.0"
 xmlns="http://www.w3.org/2000/svg" version="1.1"
 xmlns:xlink="http://www.w3.org/1999/xlink">
<desc>Output from Flights of Ideas SVG Sketchup Plugin</desc>

<g id="text_annotations" font-size="10" stroke="rgb(255,0,0)" stroke-width="0">
</g>
  <path id="face0-cut"
 style="fill:none;stroke:rgb(0,0,255);stroke-width:0;stroke-miterlimit:4;stroke-dasharray:none;stroke-linejoin:round;stroke-linecap:round"
        d="M 84.0,162.0 L 84.5221047688802,161.965779445495 L 85.0352761804101,161.863703305156 L 85.5307337294604,161.695518130045 L 86.0,161.464101615138 L 86.4350457160349,161.173413361165 L 86.8284271247462,160.828427124746 L 87.1734133611649,160.435045716035 L 87.4641016151378,160.0 L 87.6955181300451,159.53073372946 L 87.8637033051563,159.03527618041 L 87.9657794454953,158.52210476888 L 88.0,158.0 L 88.0,14.0 L 87.9657794454952,13.4778952311198 L 87.8637033051563,12.9647238195899 L 87.6955181300452,12.4692662705396 L 87.4641016151378,12.0000000000001 L 87.173413361165,11.5649542839651 L 86.8284271247462,11.1715728752539 L 86.4350457160349,10.826586638835 L 86.0,10.5358983848622 L 85.5307337294604,10.3044818699548 L 85.0352761804101,10.1362966948437 L 84.5221047688802,10.0342205545048 L 84.0,10.0 L 14.0,10.0 L 13.4778952311198,10.0342205545048 L 12.9647238195899,10.1362966948437 L 12.4692662705397,10.3044818699548 L 12.0,10.5358983848622 L 11.5649542839651,10.826586638835 L 11.1715728752538,11.1715728752539 L 10.8265866388351,11.5649542839652 L 10.5358983848622,12.0 L 10.3044818699549,12.4692662705396 L 10.1362966948438,12.9647238195899 L 10.0342205545048,13.4778952311198 L 10.0,14.0 L 10.0,158.0 L 10.0342205545048,158.52210476888 L 10.1362966948437,159.03527618041 L 10.3044818699549,159.53073372946 L 10.5358983848622,160.0 L 10.8265866388351,160.435045716035 L 11.1715728752538,160.828427124746 L 11.5649542839651,161.173413361165 L 12.0,161.464101615138 L 12.4692662705396,161.695518130046 L 12.9647238195899,161.863703305155 L 13.4778869284303,162.0 L 14.0,162.0 L 84.0,162.0 M 15.9723023451445,157.59976024451 L 15.8052335958405,157.588101397207 L 15.640298748018,157.559042978664 L 15.4793048623845,157.512903358997 L 15.3240158216412,157.450188053533 L 15.1761330050148,157.371584184283 L 15.0372766475907,157.277952951687 L 14.9089680886784,157.170320199124 L 14.7926131036996,157.049865173554 L 14.6894865022187,156.917907605445 L 14.600718160862,156.775893249525 L 14.5272806441535,156.625378044798 L 14.4699785488939,156.468011067343 L 14.4294396888303,156.305516462696 L 14.4061082161967,156.139674555751 L 14.4002397554898,155.972302345144 L 14.411898602793,155.805233595841 L 14.4409570213357,155.640298748018 L 14.4870966410033,155.479304862385 L 14.5498119464674,155.324015821641 L 14.6284158157175,155.176133005015 L 14.7220470483129,155.037276647591 L 14.8296798008759,154.908968088678 L 14.9501348264457,154.7926131037 L 15.0820923945555,154.689486502219 L 15.224106750475,154.600718160862 L 15.3746219552023,154.527280644153 L 15.5319889326573,154.469978548894 L 15.6944835373037,154.42943968883 L 15.8603254442488,154.406108216197 L 16.0276976548555,154.40023975549 L 16.1947664041595,154.411898602793 L 16.359701251982,154.440957021336 L 16.5206951376155,154.487096641003 L 16.6759841783588,154.549811946467 L 16.8238669949852,154.628415815717 L 16.9627233524093,154.722047048313 L 17.0910319113217,154.829679800876 L 17.2073868963004,154.950134826446 L 17.3105134977814,155.082092394555 L 17.399281839138,155.224106750475 L 17.4727193558465,155.374621955202 L 17.5300214511061,155.531988932657 L 17.5705603111697,155.694483537304 L 17.5938917838033,155.860325444249 L 17.5997602445103,156.027697654856 L 17.588101397207,156.19476640416 L 17.5590429786644,156.359701251982 L 17.5129033589967,156.520695137615 L 17.4501880535326,156.675984178359 L 17.3715841842826,156.823866994985 L 17.2779529516871,156.962723352409 L 17.1703201991241,157.091031911322 L 17.0498651735543,157.2073868963 L 16.9179076054445,157.310513497782 L 16.775893249525,157.399281839138 L 16.6253780447977,157.472719355847 L 16.4680110673427,157.530021451106 L 16.3055164626963,157.57056031117 L 16.1396745557512,157.593891783803 L 15.9723023451445,157.59976024451 M 16.2058363789451,15.1150559363462 L 16.3676048646366,15.158401671448 L 16.523956302558,15.2184193652922 L 16.6731776736367,15.2944514514652 L 16.8136340773046,15.3856649065204 L 16.9437866438109,15.4910603767565 L 17.0622093944005,15.6094831273461 L 17.1676048646366,15.7396356938524 L 17.2588183196918,15.8800920975202 L 17.3348504058648,16.029313468599 L 17.3948680997089,16.1856649065204 L 17.4382138348108,16.3474333922119 L 17.4644127062259,16.512846556292 L 17.4731776736367,16.6800920975202 L 17.4644127062259,16.8473376387486 L 17.4382138348108,17.0127508028287 L 17.3948680997089,17.1745192885202 L 17.3348504058648,17.3308707264416 L 17.2588183196918,17.4800920975203 L 17.1676048646366,17.6205485011882 L 17.0622093944005,17.7507010676945 L 16.9437866438109,17.8691238182842 L 16.8136340773046,17.9745192885202 L 16.6731776736367,18.0657327435754 L 16.5239563025579,18.1417648297485 L 16.3676048646366,18.2017825235925 L 16.2058363789451,18.2451282586944 L 16.0404232148649,18.2713271301096 L 15.8731776736367,18.2800920975203 L 15.7059321324084,18.2713271301096 L 15.5405189683282,18.2451282586944 L 15.3787504826368,18.2017825235925 L 15.2223990447154,18.1417648297485 L 15.0731776736367,18.0657327435754 L 14.9327212699688,17.9745192885202 L 14.8025687034625,17.8691238182842 L 14.6841459528728,17.7507010676945 L 14.5787504826368,17.6205485011882 L 14.4875370275816,17.4800920975202 L 14.4115049414086,17.3308707264415 L 14.3514872475645,17.1745192885202 L 14.3081415124626,17.0127508028287 L 14.2819426410474,16.8473376387486 L 14.2731776736367,16.6800920975203 L 14.2819426410474,16.5128465562921 L 14.3081415124626,16.3474333922119 L 14.3514872475644,16.1856649065204 L 14.4115049414085,16.0293134685991 L 14.4875370275816,15.8800920975203 L 14.5787504826367,15.7396356938524 L 14.6841459528729,15.6094831273462 L 14.8025687034625,15.4910603767565 L 14.9327212699688,15.3856649065203 L 15.0731776736367,15.2944514514653 L 15.2223990447154,15.2184193652921 L 15.3787504826368,15.158401671448 L 15.5405189683283,15.1150559363462 L 15.7059321324084,15.0888570649311 L 15.8731776736367,15.0800920975203 L 16.0404232148649,15.0888570649311 L 16.2058363789451,15.1150559363462 M 82.3229131609427,18.2155848495245 L 82.159946765161,18.2541834189329 L 81.9938384672023,18.275535914424 L 81.8264081843393,18.279408393589 L 81.6594903177883,18.2657584287358 L 81.4949136546249,18.2347355717359 L 81.3344813312107,18.1866797155024 L 81.1799510776535,18.1221173700525 L 81.0330159597488,18.0417558939536 L 80.8952858293967,17.9464757443545 L 80.7682696867271,17.8373208305128 L 80.6533591471789,17.7154870765068 L 80.5518131946701,17.5823093184407 L 80.4647443879061,17.4392466797011 L 80.3931066709542,17.2878665844959 L 80.3376849216324,17.1298275848263 L 80.2990863522241,16.9668611890446 L 80.2777338567331,16.8007528910858 L 80.273861377568,16.633322608223 L 80.2875113424212,16.4664047416719 L 80.3185341994211,16.3018280785085 L 80.3665900556546,16.1413957550943 L 80.4311524011045,15.9868655015371 L 80.5115138772034,15.8399303836324 L 80.6067940268025,15.7022002532803 L 80.7159489406442,15.5751841106107 L 80.8377826946502,15.4602735710626 L 80.9709604527163,15.3587276185537 L 81.1140230914559,15.2716588117897 L 81.2654031866611,15.2000210948378 L 81.4234421863307,15.1445993455161 L 81.5864085821124,15.1060007761077 L 81.7525168800711,15.0846482806166 L 81.919947162934,15.0807758014516 L 82.0868650294851,15.0944257663047 L 82.2514416926485,15.1254486233048 L 82.4118740160627,15.1735044795383 L 82.56640426962,15.2380668249882 L 82.7133393875246,15.3184283010871 L 82.8510695178767,15.4137084506862 L 82.9780856605463,15.5228633645278 L 83.0929962000944,15.6446971185338 L 83.1945421526033,15.7778748765999 L 83.2816109593673,15.9209375153395 L 83.3532486763192,16.0723176105447 L 83.4086704256409,16.2303566102143 L 83.4472689950492,16.393323005996 L 83.4686214905404,16.5594313039547 L 83.4724939697054,16.7268615868176 L 83.4588440048522,16.8937794533687 L 83.4278211478523,17.0583561165321 L 83.3797652916187,17.2187884399464 L 83.3152029461689,17.3733186935036 L 83.2348414700699,17.5202538114082 L 83.1395613204708,17.6579839417603 L 83.0304064066292,17.7850000844299 L 82.9085726526232,17.899910623978 L 82.7753948945571,18.0014565764869 L 82.6323322558175,18.0885253832509 L 82.4809521606123,18.1601631002028 L 82.3229131609427,18.2155848495245 M 80.6304631256256,155.172734172271 L 80.7244384176068,155.034110436166 L 80.8323890292132,154.906069188249 L 80.9531322309538,154.790013275225 L 81.0853451350432,154.687214229963 L 81.2275791892369,154.598798340316 L 81.3782760474728,154.525734309273 L 81.5357846434367,154.468822641648 L 81.6983792799904,154.42868687358 L 81.8642785362707,154.405766740943 L 82.0316647853092,154.400313361508 L 82.1987041083336,154.412386483639 L 82.3635663875655,154.441853831686 L 82.5244453573741,154.488392555215 L 82.6795783941001,154.551492766234 L 82.8272658277294,154.630463125626 L 82.9658895638336,154.724438417607 L 83.093930811751,154.832389029213 L 83.2099867247752,154.953132230954 L 83.3127857700367,155.085345135043 L 83.4012016596836,155.227579189237 L 83.4742656907268,155.378276047473 L 83.5311773583523,155.535784643437 L 83.5713131264204,155.69837927999 L 83.5942332590569,155.864278536271 L 83.5996866384925,156.031664785309 L 83.5876135163608,156.198704108334 L 83.5581461683143,156.363566387566 L 83.5116074447848,156.524445357374 L 83.448507233766,156.6795783941 L 83.3695368743744,156.827265827729 L 83.2755615823932,156.965889563834 L 83.1676109707868,157.093930811751 L 83.0468677690463,157.209986724775 L 82.9146548649568,157.312785770037 L 82.7724208107631,157.401201659684 L 82.6217239525272,157.474265690727 L 82.4642153565633,157.531177358352 L 82.3016207200096,157.57131312642 L 82.1357214637293,157.594233259057 L 81.9683352146908,157.599686638493 L 81.8012958916665,157.587613516361 L 81.6364336124345,157.558146168314 L 81.4755546426259,157.511607444785 L 81.3204216058999,157.448507233766 L 81.1727341722706,157.369536874374 L 81.0341104361664,157.275561582393 L 80.906069188249,157.167610970787 L 80.7900132752248,157.046867769046 L 80.6872142299633,156.914654864957 L 80.5987983403164,156.772420810763 L 80.5257343092733,156.621723952527 L 80.4688226416477,156.464215356563 L 80.4286868735797,156.30162072001 L 80.4057667409431,156.135721463729 L 80.4003133615075,155.968335214691 L 80.4123864836393,155.801295891666 L 80.4418538316857,155.636433612435 L 80.4883925552152,155.475554642626 L 80.551492766234,155.3204216059 L 80.6304631256256,155.172734172271 M 43.4394715608855,28.4778709167058 L 28.3809250820442,28.4778709167058 L 28.0669942499479,28.4365411385906 L 27.9167547258624,28.3855416922902 L 27.7744572852636,28.315368360323 L 27.6425366768124,28.2272218278545 L 27.5232500986946,28.1226103064942 L 27.4186385773343,28.0033237283764 L 27.3304920448658,27.8714031199252 L 27.2603187128986,27.7291056793264 L 27.2093192665982,27.578866155241 L 27.167989488483,27.2649353231446 L 27.167989488483,21.3826911431234 L 27.2092471872107,21.0693078083312 L 27.2601576901627,20.9193303029009 L 27.3302086394069,20.7772810299146 L 27.41820144378,20.6455904918168 L 27.5226305220028,20.5265119502258 L 27.6417090635939,20.4220828720028 L 27.7733996016918,20.3340900676297 L 27.915448874678,20.2640391183856 L 28.0654263801083,20.2131286154335 L 28.3788097149005,20.1718709167058 L 43.4196823546744,20.1718709167058 L 43.7836614241676,20.2197896702741 L 43.9578527955998,20.2789196731641 L 44.1228359215787,20.3602803471129 L 44.2757878950769,20.462479588432 L 44.4140916654215,20.5837687397673 L 44.5353808167568,20.7220725101119 L 44.6375800580759,20.8750244836101 L 44.7189407320248,21.040007609589 L 44.7780707349147,21.2141989810212 L 44.825989488483,21.5781780505144 L 44.825989488483,27.0913529891083 L 44.7787450357647,27.4502102351466 L 44.7204470956528,27.6219504286771 L 44.6402313089875,27.7846119529071 L 44.5394701901186,27.9354116240588 L 44.4198877897264,28.0717692179493 L 44.2835301958359,28.1913516183415 L 44.1327305246842,28.2921127372103 L 43.9700690004542,28.3723285238756 L 43.7983288069238,28.4306264639876 L 43.4394715608855,28.4778709167058 M 19.0756142363612,20.0103178243637 L 23.7854499178175,20.0103178243637 L 24.111962997897,20.0533040868511 L 24.2682240743616,20.1063475747516 L 24.4162247511575,20.179333431563 L 24.5534326956711,20.2710128490398 L 24.6775002419306,20.3798171669306 L 24.7863045598214,20.5038847131901 L 24.8779839772982,20.6410926577037 L 24.9509698341096,20.7890933344995 L 25.0040133220101,20.9453544109642 L 25.0469995844975,21.2718674910437 L 25.0469995844975,29.3550451828355 L 24.9965605173705,29.7381679344073 L 24.9343205390136,29.9215209981317 L 24.8486806550598,30.0951815035996 L 24.7411061876674,30.2561780714147 L 24.6134377657988,30.401756005665 L 24.4678598315485,30.5294244275336 L 24.3068632637334,30.636998894926 L 24.1332027582655,30.7226387788798 L 23.9498496945411,30.7848787572367 L 23.5667269429694,30.8353178243637 L 18.9513179624616,30.8353178243637 L 18.580347868549,30.7864786849699 L 18.4028107659103,30.7262129593729 L 18.2346587734795,30.6432895734276 L 18.0787690184677,30.5391273692582 L 17.9378088178039,30.4155085910573 L 17.814190039603,30.2745483903935 L 17.7100278354336,30.1186586353817 L 17.6271044494882,29.9505066429509 L 17.5668387238913,29.7729695403122 L 17.5179995844975,29.4019994463997 L 17.5179995844974,21.5679324762274 L 17.5710740167198,21.1647921393944 L 17.6365659399646,20.97185915495 L 17.7266803785404,20.7891251502956 L 17.8398754494185,20.6197167549139 L 17.9742143535529,20.4665325934191 L 18.1273985150477,20.3321936892847 L 18.2968069104293,20.2189986184066 L 18.4795409150838,20.1288841798309 L 18.6724738995281,20.063392256586 L 19.0756142363612,20.0103178243637 M 13.3483325977293,30.8352556614345 L 16.0,30.8352556614345 L 16.3742225612362,30.8917263505397 L 16.5527670486199,30.9555976563716 L 16.7215955586728,31.0419377506331 L 16.8778945080715,31.1493077469107 L 17.019059122792,31.2759182884726 L 17.142736847536,31.4196593684948 L 17.2468665518479,31.578135494027 L 17.3297128795405,31.7487056076801 L 17.3898951689829,31.9285271017271 L 17.4386502199336,32.3038328558435 L 17.4386502199336,47.5506054415009 L 17.3896294024303,47.9229555176606 L 17.3291394926395,48.1011530456378 L 17.2459076376226,48.2699305514677 L 17.1413579574951,48.4264002052313 L 17.0172793262706,48.5678847677715 L 16.8757947637305,48.6919633989959 L 16.7193251099668,48.7965130791234 L 16.550547604137,48.8797449341404 L 16.3723500761597,48.9402348439312 L 16.0,48.9892556614345 L 13.2864091840422,48.9892556614345 L 12.9534619874173,48.9454223314341 L 12.794121702067,48.8913335929634 L 12.6432045920211,48.8169095104344 L 12.5032928908747,48.7234235005335 L 12.3767805266253,48.6124751348092 L 12.265832160901,48.4859627705597 L 12.172346151,48.3460510694134 L 12.0979220684711,48.1951339593675 L 12.0438333300004,48.0357936740172 L 12.0,47.7028464773923 L 12.0,32.1835882591638 L 12.0459433191551,31.8346141037389 L 12.1026357076694,31.667603712695 L 12.1806423153451,31.5094219602992 L 12.2786284274972,31.3627753801911 L 12.3949174745801,31.2301731360145 L 12.5275197187566,31.1138840889317 L 12.6741662988647,31.0158979767795 L 12.8323480512605,30.9378913691039 L 12.9993584423044,30.8811989805896 L 13.3483325977293,30.8352556614345 M 18.2302475513059,68.6709452327774 L 13.5453918756675,68.6709452327774 L 13.145415026098,68.6182872815544 L 12.9539960083379,68.5533092807483 L 12.7726959378337,68.46390198024 L 12.6046169090577,68.3515951637296 L 12.4526348007924,68.218310431985 L 12.3193500690478,68.0663283237197 L 12.2070432525374,67.8982492949437 L 12.1176359520291,67.7169492244394 L 12.052657951223,67.5255302066794 L 12.0,67.1255533571099 L 12.0,52.5007711477867 L 12.053831262661,52.0918821130358 L 12.1202570872013,51.8961979440916 L 12.2116565390543,51.710858190282 L 12.326465748258,51.5390340661806 L 12.462720297412,51.3836655301893 L 12.6180888334033,51.2474109810354 L 12.7899129575047,51.1326017718316 L 12.9752527113143,51.0412023199786 L 13.1709368802584,50.9747764954384 L 13.5798259150094,50.9209452327773 L 18.3229868671309,50.9209452327774 L 18.7172747701024,50.9728542199721 L 18.905971198865,51.0369080263478 L 19.0846926040779,51.1250436698624 L 19.2503810129469,51.2357531252195 L 19.4002014508587,51.3671421229435 L 19.5315904485826,51.5169625608554 L 19.6422999039397,51.6826509697244 L 19.7304355474543,51.8613723749372 L 19.7944893538302,52.0500688036999 L 19.8463983410249,52.4443567066713 L 19.8463983410249,67.0547944430584 L 19.7913293382729,67.4730850471952 L 19.7233761873792,67.6732685744876 L 19.6298751915488,67.8628698379179 L 19.5124261787437,68.0386447073013 L 19.3730387341362,68.1975856258887 L 19.2140978155488,68.3369730704963 L 19.0383229461654,68.4544220833013 L 18.8487216827351,68.5479230791317 L 18.6485381554427,68.6158762300255 L 18.2302475513059,68.6709452327774 M 17.9566927968228,96.5413221306587 L 13.3282090506441,96.5413221306587 L 12.9844432524599,96.4960645047426 L 12.8199254522453,96.440218236801 L 12.6641045253221,96.3633758594088 L 12.5196466109517,96.2668521669482 L 12.3890234241003,96.1522987065584 L 12.2744699637106,96.021675519707 L 12.1779462712499,95.8772176053367 L 12.1011038938578,95.7213966784135 L 12.0452576259161,95.5568788781989 L 12.0,95.2131130800147 L 12.0,83.1969513395351 L 12.0463623160194,82.8447945869551 L 12.1035717314585,82.6762610837061 L 12.1822897488583,82.5166367350969 L 12.2811694811165,82.3686527579885 L 12.3985190685994,82.2348411992581 L 12.5323306273297,82.1174916117753 L 12.6803146044382,82.0186118795171 L 12.8399389530473,81.9398938621172 L 13.0084724562964,81.8826844466782 L 13.3606292088763,81.8363221306588 L 18.0939099727675,81.8363221306588 L 18.6016307589289,81.903164840234 L 18.8446133572669,81.9856463180695 L 19.0747512125618,82.0991377487648 L 19.2881066023032,82.2416972624749 L 19.4810289566194,82.4108856263954 L 19.6502173205399,82.6038079807116 L 19.79277683425,82.8171633704531 L 19.9062682649454,83.0473012257479 L 19.9887497427809,83.2902838240859 L 20.0555924523561,83.7980046102474 L 20.0555924523561,94.4424224751254 L 19.9840741808916,94.9856576797365 L 19.895823229365,95.2456365994948 L 19.774393218509,95.4918723028921 L 19.6218618494763,95.7201516287738 L 19.4408389762805,95.9265686545831 L 19.2344219504711,96.1075915277789 L 19.0061426245894,96.2601228968117 L 18.7599069211921,96.3815529076676 L 18.4999280014339,96.4698038591943 L 17.9566927968228,96.5413221306587 M 28.4564513591598,104.470409335819 L 13.4749253156479,104.470409335819 L 13.0931865538544,104.420152474403 L 12.9104958333736,104.358137331281 L 12.737462657824,104.272806812207 L 12.577047672813,104.16562094602 L 12.4319956232096,104.038413712609 L 12.3047883897986,103.893361663006 L 12.1976025236121,103.732946677995 L 12.1122720045381,103.559913502445 L 12.0502568614161,103.377222781965 L 12.0,102.995484020171 L 12.0,100.122607642011 L 12.0473017102304,99.7633154819895 L 12.1056703040344,99.5913671493941 L 12.1859833075393,99.428508488915 L 12.286866542988,99.2775260573861 L 12.406593870252,99.1410032060709 L 12.5431167215672,99.0212758788069 L 12.6940991530961,98.9203926433581 L 12.8569578135752,98.8400796398533 L 13.0289061461706,98.7817110460494 L 13.3881983061922,98.7344093358189 L 28.3030872128538,98.7344093358189 L 28.6814162580259,98.7842172995257 L 28.8624751725479,98.8456785191653 L 29.0339628039878,98.9302468602309 L 29.1929449514265,99.0364753349599 L 29.336701386243,99.1625463446978 L 29.4627723959808,99.3063027795143 L 29.5690008707099,99.4652849269529 L 29.6535692117754,99.6367725583929 L 29.7150304314151,99.8178314729148 L 29.7648383951218,100.196160518087 L 29.7648383951218,103.162022299857 L 29.7202561879774,103.500657783129 L 29.6652433622882,103.662720341641 L 29.5895477702851,103.816215817838 L 29.494464584534,103.958517861566 L 29.3816207047051,104.087191645402 L 29.2529469208685,104.200035525231 L 29.1106448771408,104.295118710982 L 28.9571494009437,104.370814302985 L 28.795086842432,104.425827128674 L 28.4564513591598,104.470409335819 M 37.8316472115381,107.632475235706 L 37.8316472115381,115.935692091274 L 37.7782888064661,116.340989416048 L 37.7124464710304,116.534954681519 L 37.6218498783769,116.718666397924 L 37.508049161324,116.888981206861 L 37.3729914816921,117.042984974728 L 37.2189877138248,117.17804265436 L 37.048672904888,117.291843371413 L 36.864961188483,117.382439964067 L 36.6709959230119,117.448282299502 L 36.265698598238,117.501640704574 L 28.273380010535,117.501640704574 L 27.8650327140717,117.447880763112 L 27.6696078076599,117.381542946342 L 27.4845136110365,117.290264589893 L 27.3129171372237,117.175607491749 L 27.1577544494638,117.039533466648 L 27.0216804243638,116.884370778889 L 26.9070233262197,116.712774305076 L 26.81574496977,116.527680108452 L 26.7494071530005,116.332255202041 L 26.6956472115381,115.923907905577 L 26.6956472115381,107.356085303785 L 26.747863995014,106.959459455945 L 26.8122976108306,106.76964414465 L 26.9009558579401,106.58986300418 L 27.0123217691538,106.423192139693 L 27.1444898428543,106.272483335891 L 27.2951986466567,106.14031526219 L 27.4618695111436,106.028949350976 L 27.6416506516137,105.940291103867 L 27.8314659629089,105.87585748805 L 28.2280918107492,105.823640704574 L 36.0228126804061,105.823640704574 L 36.4909735065021,105.885275246602 L 36.7150236873602,105.961330034694 L 36.9272299459721,106.065978580503 L 37.1239613744183,106.197430318399 L 37.3018518434139,106.353436072698 L 37.4578575977138,106.531326541694 L 37.5893093356089,106.72805797014 L 37.6939578814186,106.940264228752 L 37.7700126695099,107.16431440961 L 37.8316472115381,107.632475235706 M 56.3061580568038,117.21789261641 L 43.4258670795856,117.21789261641 L 43.0505106824802,117.168476009246 L 42.8708744037275,117.107497709377 L 42.7007342035318,117.023593847866 L 42.5430012278902,116.918200043047 L 42.4003743317477,116.79311961214 L 42.275293900841,116.650492715998 L 42.1699000960218,116.492759740356 L 42.0859962345112,116.322619540161 L 42.0250179346423,116.142983261408 L 41.975601327478,115.767626864302 L 41.975601327478,107.136604661016 L 42.0283383365403,106.736027307537 L 42.0934138918513,106.544320903473 L 42.182955423712,106.362748638713 L 42.2954308516867,106.194417265048 L 42.4289156900189,106.042206978951 L 42.5811259761155,105.908722140619 L 42.7494573497808,105.796246712644 L 42.9310296145412,105.706705180783 L 43.1227360186051,105.641629625472 L 43.5233133720836,105.58889261641 L 50.5847464563119,105.58889261641 L 51.0664593505691,105.652311322059 L 51.2969952157332,105.73056770331 L 51.5153443071508,105.83824555902 L 51.7177706113302,105.973502491226 L 51.9008105580835,106.134024216316 L 52.0613322831737,106.31706416307 L 52.1965892153793,106.519490467249 L 52.30426707109,106.737839558667 L 52.3825234523407,106.968375423831 L 52.4459421579897,107.450088318088 L 52.4459421579897,108.287560603092 L 52.487353592128,108.602111674262 L 52.5384537989975,108.752648029412 L 52.6087657737418,108.895226609751 L 52.697086458979,109.02740785624 L 52.8019046632974,109.146930111102 L 52.9214269181602,109.251748315421 L 53.0536081646486,109.340069000658 L 53.1961867449879,109.410380975402 L 53.3467231001381,109.461481182272 L 53.6612741713076,109.50289261641 L 56.3321990019783,109.50289261641 L 56.6815382367508,109.548883999173 L 56.848723345732,109.605635696435 L 57.007070579984,109.683723910731 L 57.1538705744265,109.781812531065 L 57.2866115404541,109.898223233946 L 57.4030222433352,110.030964199973 L 57.5011108636684,110.177764194416 L 57.5791990779644,110.336111428668 L 57.6359507752266,110.503296537649 L 57.6819421579897,110.852635772421 L 57.6819421579897,115.842108515224 L 57.6350634515372,116.19818764256 L 57.5772168290439,116.368598297259 L 57.4976220385535,116.530000565817 L 57.3976409689992,116.67963281067 L 57.278984324201,116.814934782621 L 57.1436823522492,116.93359142742 L 56.9940501073967,117.033572496974 L 56.8326478388389,117.113167287464 L 56.66223718414,117.171013909958 L 56.3061580568038,117.21789261641 M 31.0236826091573,138.439976286692 L 23.3478692410154,138.439976286692 L 22.988125798665,138.392615164016 L 22.8159614935196,138.33417325741 L 22.6528982774066,138.25375937823 L 22.5017262071633,138.152749430243 L 22.3650318788244,138.032871721666 L 22.2451541702465,137.896177393327 L 22.1441442222598,137.745005323083 L 22.0637303430797,137.58194210697 L 22.0052884364739,137.409777801825 L 21.9579273137978,137.050034359474 L 21.9579273137978,129.051847621539 L 22.0006178692988,128.727580659018 L 22.0532964655095,128.572394518808 L 22.1257802449939,128.425411954116 L 22.2168289901887,128.289147877374 L 22.3248848318201,128.165933804715 L 22.4480989044791,128.057877963083 L 22.5843629812211,127.966829217888 L 22.7313455459135,127.894345438404 L 22.8865316861231,127.841666842193 L 23.2107986486445,127.798976286692 L 31.3378672793651,127.798976286692 L 31.6828886045413,127.844399205873 L 31.8480072688905,127.900449439704 L 32.0043972965814,127.977572466536 L 32.1493828108807,128.074448689999 L 32.2804830694412,128.189420531049 L 32.395454910491,128.320520789609 L 32.4923311339535,128.465506303909 L 32.5694541607862,128.621896331599 L 32.6255043946174,128.787014995949 L 32.6709273137977,129.132036321125 L 32.6709273137977,136.792731582052 L 32.6147988115874,137.219069883557 L 32.5455382768122,137.423104839569 L 32.4502383696253,137.616353934372 L 32.3305296978609,137.795510622376 L 32.1884605100822,137.957509482977 L 32.0264616494813,138.099578670755 L 31.8473049614775,138.21928734252 L 31.6540558666743,138.314587249707 L 31.4500209106625,138.383847784482 L 31.0236826091573,138.439976286692 M 68.684455898411,67.693345740547 L 68.684455898411,71.7642733125538 L 68.6260835210136,72.2076555382399 L 68.5540541256897,72.4198472943989 L 68.454944369876,72.6208219979692 L 68.3304500489729,72.8071409160519 L 68.1827012953275,72.9756160803012 L 68.0142261310782,73.1233648339466 L 67.8279072129956,73.2478591548497 L 67.6269325094253,73.3469689106634 L 67.4147407532662,73.4189983059873 L 66.9713585275801,73.4773706833847 L 48.4065453929322,73.4773706833847 L 47.9375421203199,73.4156252311686 L 47.7130887654161,73.3394335839303 L 47.5005006456716,73.2345967250497 L 47.3034152027558,73.1029084422485 L 47.1252046232394,72.9466219585563 L 46.9689181395472,72.7684113790399 L 46.837229856746,72.5713259361241 L 46.7323929978653,72.3587378163796 L 46.6562013506271,72.1342844614757 L 46.594455898411,71.6652811888635 L 46.594455898411,67.6047854518273 L 46.648920560893,67.1910852677812 L 46.7161279778257,66.9930986018966 L 46.8086028715981,66.805578067606 L 46.9247629711388,66.6317321932415 L 47.0626207449391,66.4745355299128 L 47.2198174082679,66.3366777561125 L 47.3936632826323,66.2205176565718 L 47.5811838169229,66.1280427627994 L 47.7791704828075,66.0608353458667 L 48.1928706668536,66.0063706833847 L 66.9974808412487,66.0063706833847 L 67.4341021146552,66.0638529645285 L 67.6430582464379,66.1347840133777 L 67.8409683698299,66.2323824854937 L 68.0244461877489,66.3549784439593 L 68.1903523438607,66.500474237935 L 68.3358481378364,66.6663803940468 L 68.4584440963019,66.8498582119658 L 68.556042568418,67.0477683353578 L 68.6269736172673,67.2567244671404 L 68.684455898411,67.693345740547 M 63.0816264976656,54.5144098759518 L 67.1792068913878,54.5144098759518 L 67.5659197529886,54.5653215900307 L 67.7509909544906,54.6281447975735 L 67.9262787721444,54.7145871830885 L 68.0887839827911,54.8231696933931 L 68.2357260772214,54.9520344516314 L 68.3645908354596,55.0989765460617 L 68.4731733457643,55.2614817567083 L 68.5596157312793,55.4367695743622 L 68.6224389388221,55.6218407758643 L 68.673350652901,56.008553637465 L 68.673350652901,63.9441902924326 L 68.6229815420293,64.3267816734909 L 68.5608278871526,64.509880436443 L 68.4753067810811,64.6833000841922 L 68.3678815136507,64.8440733584844 L 68.240390160971,64.9894493840218 L 68.0950141354337,65.1169407367015 L 67.9342408611415,65.2243660041319 L 67.7608212133923,65.3098871102033 L 67.5777224504402,65.3720407650801 L 67.1951310693819,65.4224098759518 L 62.927755815909,65.4224098759518 L 62.4925761371888,65.365117384349 L 62.2843099169327,65.2944205289057 L 62.087053234405,65.197144298163 L 61.9041812061337,65.0749531153991 L 61.738822823224,64.9299377056288 L 61.5938074134537,64.7645793227192 L 61.4716162306898,64.5817072944478 L 61.3743399999472,64.3844506119201 L 61.3036431445038,64.176184391664 L 61.246350652901,63.7410047129438 L 61.246350652901,56.3496857207163 L 61.308886160843,55.8746813790746 L 61.3860527081753,55.6473560611051 L 61.4922309931475,55.432047798334 L 61.6256042758658,55.2324405748322 L 61.7838905024847,55.0519497255354 L 61.9643813517815,54.8936634989165 L 62.1639885752833,54.7602902161983 L 62.3792968380544,54.654111931226 L 62.6066221560239,54.5769453838937 L 63.0816264976656,54.5144098759518 M 82.5601402703971,81.8648890084898 L 82.8921569199689,81.901727374528 L 83.0515921848935,81.9527342828854 L 83.2028730929763,82.0243959550078 L 83.3433374361806,82.115451304603 L 83.4705133539916,82.2242979597223 L 83.582162832672,82.3490204609486 L 83.676321089334,82.4874239692282 L 83.7513311477551,82.6370728901645 L 83.8058729974801,82.7953337350704 L 83.8500898947394,83.1264484988639 L 83.8500898947394,84.3719683289885 L 83.803274682841,84.7275651673037 L 83.7455064103233,84.8977450104175 L 83.666019426471,85.0589286687392 L 83.5661737756157,85.2083582451864 L 83.4476778445259,85.3434769582763 L 83.3125591314359,85.4619728893661 L 83.1631295549888,85.5618185402214 L 83.0019458966671,85.6413055240738 L 82.8317660535533,85.6990737965915 L 82.4761692152381,85.7458890084898 L 78.5533000010018,85.7458890084898 L 78.172360408122,85.6957373596573 L 77.9900521500979,85.633852045045 L 77.8173812189646,85.548700165148 L 77.6573020622271,85.44173869224 L 77.5125536786396,85.3147977667775 L 77.3856127531772,85.17004938319 L 77.2786512802691,85.0099702264526 L 77.1934994003721,84.8372992953192 L 77.1316140857598,84.6549910372951 L 77.0814624369273,84.2740514444153 L 77.0814624369273,83.1818650156374 L 77.0749744532577,83.0158633337238 L 77.1931077962851,82.5350273888366 L 77.2757816188623,82.3909312702534 L 77.3777525883039,82.2597803124934 L 77.4970256816356,82.1441404338297 L 77.6312673664537,82.0462740842123 L 77.7778512555933,81.9680959813002 L 77.9339094913877,81.9111356497439 L 78.2621104975224,81.8648890084898 L 82.5601402703971,81.8648890084898 M 82.8173012267083,27.9742528784729 L 70.7796790915226,27.9742528784728 L 70.2937951589861,28.0411564383343 L 70.0614892497043,28.1213437891521 L 69.8415780827054,28.2310485080461 L 69.637793491294,28.3684089354687 L 69.4535936451283,28.5310941019435 L 69.2921043660116,28.7163432839898 L 69.1560660835384,28.9210128528566 L 69.047787330741,29.1416296210567 L 68.9691055689061,29.374449781423 L 68.9053489402991,29.8607566542183 L 68.9053489402991,37.1178877474247 L 68.8595179408032,37.4660087503357 L 68.8029641506723,37.6326108437084 L 68.725148249192,37.7904058821956 L 68.6274016880112,37.9366939489395 L 68.5113969378922,38.0689720145595 L 68.3791188722722,38.1849767646785 L 68.2328308055283,38.2827233258593 L 68.0750357670412,38.3605392273396 L 67.9084336736684,38.4170930174706 L 67.5603126707574,38.4629240169664 L 62.5706738909252,38.4629240169664 L 62.2354191241067,38.4187868895867 L 62.0749744927915,38.364323276175 L 61.9230114156122,38.2893833797383 L 61.7821300229514,38.1952494426821 L 61.6547408344974,38.0835321227681 L 61.5430235145834,37.9561429343141 L 61.4488895775272,37.8152615416533 L 61.3739496810906,37.663298464474 L 61.3194860676789,37.5028538331588 L 61.2753489402991,37.1675990663403 L 61.2753489402991,29.6482736441394 L 61.2350154995927,29.3419107460132 L 61.1852454974967,29.1952930477623 L 61.1167638348033,29.0564259731055 L 61.030742251748,28.9276855761912 L 60.9286526014664,28.8112746409043 L 60.8122416661795,28.7091849906228 L 60.6835012692652,28.6231634075674 L 60.5446341946084,28.554681744874 L 60.3980164963576,28.5049117427781 L 60.0916535982313,28.4645783020716 L 48.6857519260288,28.4645783020716 L 48.284219286693,28.4117155272402 L 48.0920557064683,28.3464847815345 L 47.9100504331639,28.2567297134908 L 47.7413176274676,28.1439860572084 L 47.5887443544663,28.0101828879044 L 47.4549411851623,27.8576096149031 L 47.3421975288799,27.6888768092068 L 47.2524424608363,27.5068715359024 L 47.1872117151305,27.3147079556777 L 47.1343489402991,26.9131753163419 L 47.1343489402991,21.8043945765755 L 47.1822491808022,21.439890821269 L 47.241359104256,21.2654201806172 L 47.3226972834347,21.1001383361572 L 47.4248770106271,20.9468631233826 L 47.5461562574637,20.8082076806949 L 47.6844673741825,20.6865358988711 L 47.837452340306,20.5839221198723 L 48.0025029657518,20.5021157720737 L 48.176805357003,20.4425115448385 L 48.541171873611,20.3935783020716 L 61.191496995652,20.3935783020716 L 61.6767599932643,20.4288090855753 L 61.8297015471096,20.4860049159041 L 61.9729545806861,20.5643697694466 L 62.1036070461297,20.662310645352 L 62.2190030399426,20.7778366013598 L 62.3167967922037,20.9085992256769 L 62.395000351382,21.0519403754959 L 62.4520239954188,21.2049462117257 L 62.4983489402991,21.5273774944999 L 62.5265181359863,23.8508960670478 L 62.5863547763633,24.0685917764814 L 62.6753849437584,24.2760658103533 L 62.7919375364587,24.4694238682983 L 62.9338248551371,24.6450366076873 L 63.0983836661032,24.7996077666106 L 63.282525190363,24.9302360349168 L 63.482793080191,25.034469511983 L 63.6954282949887,25.1103517290394 L 64.1416787744709,25.1719240169664 L 66.6080917363112,25.1719240169664 L 66.8815642873863,25.2062044326068 L 67.4254408235312,25.1305692567492 L 67.6791827331392,25.0229708069625 L 67.9102770739809,24.8727783014272 L 68.1116440934102,24.6845930029202 L 68.2771147581076,24.4641801126152 L 68.4016197471542,24.2182921487159 L 68.4355208246173,24.0705577290938 L 68.6362799188299,23.6648624514212 L 68.7331680078233,23.5482972764956 L 68.8429982668343,23.4438364895954 L 68.9642695492517,23.3529078480402 L 69.0953243339494,23.2767541534345 L 69.2343713800827,23.2164162652064 L 69.3795102095508,23.1727188742675 L 69.6800721108368,23.1373989832981 L 81.9994234976903,23.1373989832978 L 82.7271861313166,23.1385881732047 L 82.9209781690009,23.1663202670157 L 83.1092174557495,23.2200826499737 L 83.2884244765676,23.2988815496262 L 83.4552866736631,23.4012604052432 L 83.6067196775245,23.5253267916597 L 83.7399243200466,23.668787399868 L 83.8524383758404,23.8289904277601 L 83.9421820753155,24.0029745974465 L 84.0074965482468,24.1875238930905 L 84.0604824641063,24.5745403983099 L 84.0604824641064,26.8342455920633 L 84.0171057698963,27.146318299326 L 83.9636591013501,27.2949113866076 L 83.8902642590874,27.4347314463123 L 83.7983189917209,27.5631157123869 L 83.6895743265154,27.6776192047175 L 83.5661012224132,27.7760612919056 L 83.4302511302061,27.8565672197241 L 83.2846112109539,27.9176038143769 L 83.131955065482,27.9580086806214 L 82.9751899132753,27.9770123386959 L 82.8173012267083,27.9742528784729 M 84.354423777336,54.2576135897817 L 84.410471084619,54.5900000000001 L 84.4133699057561,62.6860925725979 L 84.3733789568006,62.9898539875988 L 84.3240315770959,63.1352266804321 L 84.2561314270171,63.2729145641569 L 84.1708402969575,63.4005617609083 L 84.0696175417996,63.5159841917594 L 83.9541951109485,63.6172069469173 L 83.8265479141971,63.7024980769769 L 83.6888600304723,63.7703982270557 L 83.543487337639,63.8197456067604 L 83.2397259226381,63.8597365557159 L 72.6446255533687,63.8597365557159 L 72.3220708567,63.8172714242909 L 72.1677041645359,63.7648709932092 L 72.0214977295624,63.6927699585456 L 71.8859531844179,63.6022019889936 L 71.7633897338498,63.4947167276222 L 71.6559044724784,63.3721532770542 L 71.5653365029264,63.2366087319096 L 71.4932354682628,63.0904022969361 L 71.4408350371811,62.9360356047721 L 71.3983699057561,62.6134809081033 L 71.3985071988641,52.6188081131471 L 71.3985071988641,49.6766299287859 L 71.4416497936141,49.3489293872797 L 71.4948861898532,49.1921000211749 L 71.5681374813285,49.0435610961264 L 71.6601503181337,48.9058541543246 L 71.7693503351203,48.7813353997232 L 71.8938690897217,48.6721353827366 L 72.0315760315236,48.5801225459314 L 72.180114956572,48.5068712544562 L 72.3369443226768,48.453634858217 L 72.664644864183,48.410492263467 L 77.9905012794282,48.410492263467 L 78.3421581903719,48.4567887740866 L 78.5104524817887,48.5139169880504 L 78.6698502639753,48.5925232752553 L 78.8176241966853,48.6912626603334 L 78.9512458269591,48.8084456850303 L 79.068428851656,48.9420673153042 L 79.1671682367341,49.0898412480141 L 79.245774523939,49.2492390302007 L 79.3029027379028,49.4175333216175 L 79.3491992485224,49.7691902325612 L 79.3713783162925,52.086523375702 L 79.4170609816546,52.2701794283147 L 79.4855191551067,52.4466161877031 L 79.5756617515071,52.6130216079575 L 79.6860520797696,52.7667435224719 L 79.8149307408204,52.9053319141272 L 79.9602436688692,53.0265779636205 L 80.1196748690725,53.1285492535879 L 80.2906833298183,53.2096205674369 L 80.4705435213236,53.2684997920201 L 80.8452572718045,53.3162969628627 L 83.087418368599,53.3174940917728 L 83.4217349009696,53.3605577949949 L 83.5820734687675,53.4135947845495 L 83.7343619598923,53.4865988533089 L 83.8761256031508,53.5783836452657 L 84.0050606618789,53.6874576073982 L 84.1190718709204,53.8120482282224 L 84.2163064858315,53.9501308420722 L 84.2951843909896,54.0994615310224 L 84.354423777336,54.2576135897817 "
  />
</svg>
