999
dxfrw 0.5.10
0
SECTION
2
HEADER
9
$ACADVER
1
AC1021
9
$HANDSEED
5
20000
9
$DWGCODEPAGE
3
ANSI_936
9
$INSBASE
10
0
20
0
30
0
9
$EXTMIN
10
59
20
-176.000000035
30
0
9
$EXTMAX
10
322.444819852
20
-88.845969419
30
0
9
$LIMMIN
10
0
20
0
9
$LIMMAX
10
12
20
9
9
$ORTHOMODE
70
0
9
$LTSCALE
40
1
9
$TEXTSTYLE
7
Standard
9
$CLAYER
8
0
9
$DIMASZ
40
2
9
$DIMLFAC
40
1
9
$DIMSCALE
40
1
9
$DIMEXO
40
0.0625
9
$DIMEXE
40
0.18
9
$DIMTXT
40
1
9
$DIMTSZ
40
0
9
$DIMAUNIT
70
0
9
$DIMADEC
70
0
9
$DIMLUNIT
70
2
9
$DIMSTYLE
2
Standard
9
$DIMGAP
40
0.09
9
$DIMTIH
70
1
9
$LUNITS
70
2
9
$LUPREC
70
4
9
$AUNITS
70
0
9
$AUPREC
70
0
9
$SPLINESEGS
70
8
9
$GRIDMODE
70
0
9
$SNAPSTYLE
70
0
9
$PINSBASE
10
0
20
0
30
0
9
$PLIMMIN
10
0
20
0
9
$PLIMMAX
10
12
20
9
9
$INSUNITS
70
0
9
$PSVPSCALE
40
0
0
ENDSEC
0
SECTION
2
CLASSES
0
ENDSEC
0
SECTION
2
TABLES
0
TABLE
2
VPORT
5
8
330
0
100
AcDbSymbolTable
70
1
0
VPORT
5
31
330
2
100
AcDbSymbolTableRecord
100
AcDbViewportTableRecord
2
*ACTIVE
70
0
10
0
20
0
11
1
21
1
12
224.537053771
22
49.141986157
13
0
23
0
14
10
24
10
15
10
25
10
16
0
26
0
36
1
17
0
27
0
37
0
40
302.170936157
41
2.15570934256
42
50
43
0
44
0
50
0
51
0
71
0
72
100
73
1
74
3
75
0
76
0
77
0
78
2
281
0
65
1
110
0
120
0
130
0
111
1
121
0
131
0
112
0
122
1
132
0
79
0
146
0
348
10020
60
7
61
5
292
1
282
1
141
0
142
0
63
250
421
3358443
0
ENDTAB
0
TABLE
2
LTYPE
5
5
330
0
100
AcDbSymbolTable
70
4
0
LTYPE
5
14
330
5
100
AcDbSymbolTableRecord
100
AcDbLinetypeTableRecord
2
ByBlock
70
0
3

72
65
73
0
40
0
0
LTYPE
5
15
330
5
100
AcDbSymbolTableRecord
100
AcDbLinetypeTableRecord
2
ByLayer
70
0
3

72
65
73
0
40
0
0
LTYPE
5
16
330
5
100
AcDbSymbolTableRecord
100
AcDbLinetypeTableRecord
2
Continuous
70
0
3
Solid line
72
65
73
0
40
0
0
LTYPE
5
32
330
5
100
AcDbSymbolTableRecord
100
AcDbLinetypeTableRecord
2
DOT
70
0
3
Dot . . . . . . . . . . . . . . . . . . . . . .
72
65
73
2
40
6.35
49
0
74
0
49
-6.35
74
0
0
LTYPE
5
33
330
5
100
AcDbSymbolTableRecord
100
AcDbLinetypeTableRecord
2
DOT2
70
0
3
Dot (.5x) .....................................
72
65
73
2
40
3.175
49
0
74
0
49
-3.175
74
0
0
LTYPE
5
34
330
5
100
AcDbSymbolTableRecord
100
AcDbLinetypeTableRecord
2
DOTX2
70
0
3
Dot (2x) .  .  .  .  .  .  .  .  .  .  .  .  .
72
65
73
2
40
12.7
49
0
74
0
49
-12.7
74
0
0
LTYPE
5
35
330
5
100
AcDbSymbolTableRecord
100
AcDbLinetypeTableRecord
2
DASHED
70
0
3
Dot . . . . . . . . . . . . . . . . . . . . . .
72
65
73
2
40
19.05
49
12.7
74
0
49
-6.35
74
0
0
LTYPE
5
36
330
5
100
AcDbSymbolTableRecord
100
AcDbLinetypeTableRecord
2
DASHED2
70
0
3
Dashed (.5x) _ _ _ _ _ _ _ _ _ _ _ _ _ _ _ _ _
72
65
73
2
40
9.525
49
6.35
74
0
49
-3.175
74
0
0
LTYPE
5
37
330
5
100
AcDbSymbolTableRecord
100
AcDbLinetypeTableRecord
2
DASHEDX2
70
0
3
Dashed (2x) ____  ____  ____  ____  ____  ___
72
65
73
2
40
38.1
49
25.4
74
0
49
-12.7
74
0
0
LTYPE
5
38
330
5
100
AcDbSymbolTableRecord
100
AcDbLinetypeTableRecord
2
DASHDOT
70
0
3
Dash dot __ . __ . __ . __ . __ . __ . __ . __
72
65
73
4
40
25.4
49
12.7
74
0
49
-6.35
74
0
49
0
74
0
49
-6.35
74
0
0
LTYPE
5
39
330
5
100
AcDbSymbolTableRecord
100
AcDbLinetypeTableRecord
2
DASHDOT2
70
0
3
Dash dot (.5x) _._._._._._._._._._._._._._._.
72
65
73
4
40
12.7
49
6.35
74
0
49
-3.175
74
0
49
0
74
0
49
-3.175
74
0
0
LTYPE
5
3A
330
5
100
AcDbSymbolTableRecord
100
AcDbLinetypeTableRecord
2
DASHDOTX2
70
0
3
Dash dot (2x) ____  .  ____  .  ____  .  ___
72
65
73
4
40
50.8
49
25.4
74
0
49
-12.7
74
0
49
0
74
0
49
-12.7
74
0
0
LTYPE
5
3B
330
5
100
AcDbSymbolTableRecord
100
AcDbLinetypeTableRecord
2
DIVIDE
70
0
3
Divide ____ . . ____ . . ____ . . ____ . . ____
72
65
73
6
40
31.75
49
12.7
74
0
49
-6.35
74
0
49
0
74
0
49
-6.35
74
0
49
0
74
0
49
-6.35
74
0
0
LTYPE
5
3C
330
5
100
AcDbSymbolTableRecord
100
AcDbLinetypeTableRecord
2
DIVIDE2
70
0
3
Divide (.5x) __..__..__..__..__..__..__..__.._
72
65
73
6
40
15.875
49
6.35
74
0
49
-3.175
74
0
49
0
74
0
49
-3.175
74
0
49
0
74
0
49
-3.175
74
0
0
LTYPE
5
3D
330
5
100
AcDbSymbolTableRecord
100
AcDbLinetypeTableRecord
2
DIVIDEX2
70
0
3
Divide (2x) ________  .  .  ________  .  .  _
72
65
73
6
40
63.5
49
25.4
74
0
49
-12.7
74
0
49
0
74
0
49
-12.7
74
0
49
0
74
0
49
-12.7
74
0
0
LTYPE
5
3E
330
5
100
AcDbSymbolTableRecord
100
AcDbLinetypeTableRecord
2
BORDER
70
0
3
Border __ __ . __ __ . __ __ . __ __ . __ __ .
72
65
73
6
40
44.45
49
12.7
74
0
49
-6.35
74
0
49
12.7
74
0
49
-6.35
74
0
49
0
74
0
49
-6.35
74
0
0
LTYPE
5
3F
330
5
100
AcDbSymbolTableRecord
100
AcDbLinetypeTableRecord
2
BORDER2
70
0
3
Border (.5x) __.__.__.__.__.__.__.__.__.__.__.
72
65
73
6
40
22.225
49
6.35
74
0
49
-3.175
74
0
49
6.35
74
0
49
-3.175
74
0
49
0
74
0
49
-3.175
74
0
0
LTYPE
5
40
330
5
100
AcDbSymbolTableRecord
100
AcDbLinetypeTableRecord
2
BORDERX2
70
0
3
Border (2x) ____  ____  .  ____  ____  .  ___
72
65
73
6
40
88.9
49
25.4
74
0
49
-12.7
74
0
49
25.4
74
0
49
-12.7
74
0
49
0
74
0
49
-12.7
74
0
0
LTYPE
5
41
330
5
100
AcDbSymbolTableRecord
100
AcDbLinetypeTableRecord
2
CENTER
70
0
3
Center ____ _ ____ _ ____ _ ____ _ ____ _ ____
72
65
73
4
40
50.8
49
31.75
74
0
49
-6.35
74
0
49
6.35
74
0
49
-6.35
74
0
0
LTYPE
5
42
330
5
100
AcDbSymbolTableRecord
100
AcDbLinetypeTableRecord
2
CENTER2
70
0
3
Center (.5x) ___ _ ___ _ ___ _ ___ _ ___ _ ___
72
65
73
4
40
28.575
49
19.05
74
0
49
-3.175
74
0
49
3.175
74
0
49
-3.175
74
0
0
LTYPE
5
43
330
5
100
AcDbSymbolTableRecord
100
AcDbLinetypeTableRecord
2
CENTERX2
70
0
3
Center (2x) ________  __  ________  __  _____
72
65
73
4
40
101.6
49
63.5
74
0
49
-12.7
74
0
49
12.7
74
0
49
-12.7
74
0
0
ENDTAB
0
TABLE
2
LAYER
5
2
330
0
100
AcDbSymbolTable
70
1
0
LAYER
5
10
330
2
100
AcDbSymbolTableRecord
100
AcDbLayerTableRecord
2
0
70
0
62
7
6
CONTINUOUS
370
-3
390
F
0
LAYER
5
44
330
2
100
AcDbSymbolTableRecord
100
AcDbLayerTableRecord
2
BLACK
70
0
62
7
6
CONTINUOUS
370
-3
390
F
0
LAYER
5
45
330
2
100
AcDbSymbolTableRecord
100
AcDbLayerTableRecord
2
GRAY1
70
0
62
251
6
CONTINUOUS
370
-3
390
F
0
LAYER
5
46
330
2
100
AcDbSymbolTableRecord
100
AcDbLayerTableRecord
2
GRAY2
70
0
62
8
6
CONTINUOUS
370
-3
390
F
0
LAYER
5
47
330
2
100
AcDbSymbolTableRecord
100
AcDbLayerTableRecord
2
GRAY3
70
0
62
9
6
CONTINUOUS
370
-3
390
F
0
LAYER
5
48
330
2
100
AcDbSymbolTableRecord
100
AcDbLayerTableRecord
2
WHITE
70
0
62
7
6
CONTINUOUS
370
-3
390
F
0
LAYER
5
49
330
2
100
AcDbSymbolTableRecord
100
AcDbLayerTableRecord
2
LYELLOW
70
0
62
51
6
CONTINUOUS
370
-3
390
F
0
LAYER
5
4A
330
2
100
AcDbSymbolTableRecord
100
AcDbLayerTableRecord
2
BLUE1
70
0
62
178
6
CONTINUOUS
370
-3
390
F
0
LAYER
5
4B
330
2
100
AcDbSymbolTableRecord
100
AcDbLayerTableRecord
2
GREEN1
70
0
62
98
6
CONTINUOUS
370
-3
390
F
0
LAYER
5
4C
330
2
100
AcDbSymbolTableRecord
100
AcDbLayerTableRecord
2
CYAN1
70
0
62
138
6
CONTINUOUS
370
-3
390
F
0
LAYER
5
4D
330
2
100
AcDbSymbolTableRecord
100
AcDbLayerTableRecord
2
RED1
70
0
62
18
6
CONTINUOUS
370
-3
390
F
0
LAYER
5
4E
330
2
100
AcDbSymbolTableRecord
100
AcDbLayerTableRecord
2
MAGENTA1
70
0
62
228
6
CONTINUOUS
370
-3
390
F
0
LAYER
5
4F
330
2
100
AcDbSymbolTableRecord
100
AcDbLayerTableRecord
2
BROWN1
70
0
62
58
6
CONTINUOUS
370
-3
390
F
0
LAYER
5
50
330
2
100
AcDbSymbolTableRecord
100
AcDbLayerTableRecord
2
BLUE2
70
0
62
5
6
CONTINUOUS
370
-3
390
F
0
LAYER
5
51
330
2
100
AcDbSymbolTableRecord
100
AcDbLayerTableRecord
2
GREEN2
70
0
62
3
6
CONTINUOUS
370
-3
390
F
0
LAYER
5
52
330
2
100
AcDbSymbolTableRecord
100
AcDbLayerTableRecord
2
CYAN2
70
0
62
4
6
CONTINUOUS
370
-3
390
F
0
LAYER
5
53
330
2
100
AcDbSymbolTableRecord
100
AcDbLayerTableRecord
2
RED2
70
0
62
1
6
CONTINUOUS
370
-3
390
F
0
LAYER
5
54
330
2
100
AcDbSymbolTableRecord
100
AcDbLayerTableRecord
2
MAGENTA2
70
0
62
6
6
CONTINUOUS
370
-3
390
F
0
LAYER
5
55
330
2
100
AcDbSymbolTableRecord
100
AcDbLayerTableRecord
2
BROWN2
70
0
62
54
6
CONTINUOUS
370
-3
390
F
0
LAYER
5
56
330
2
100
AcDbSymbolTableRecord
100
AcDbLayerTableRecord
2
BLUE3
70
0
62
171
6
CONTINUOUS
370
-3
390
F
0
LAYER
5
57
330
2
100
AcDbSymbolTableRecord
100
AcDbLayerTableRecord
2
GREEN3
70
0
62
91
6
CONTINUOUS
370
-3
390
F
0
LAYER
5
58
330
2
100
AcDbSymbolTableRecord
100
AcDbLayerTableRecord
2
CYAN3
70
0
62
131
6
CONTINUOUS
370
-3
390
F
0
LAYER
5
59
330
2
100
AcDbSymbolTableRecord
100
AcDbLayerTableRecord
2
RED3
70
0
62
11
6
CONTINUOUS
370
-3
390
F
0
LAYER
5
5A
330
2
100
AcDbSymbolTableRecord
100
AcDbLayerTableRecord
2
MAGENTA3
70
0
62
221
6
CONTINUOUS
370
-3
390
F
0
LAYER
5
5B
330
2
100
AcDbSymbolTableRecord
100
AcDbLayerTableRecord
2
YELLOW3
70
0
62
2
6
CONTINUOUS
370
-3
390
F
0
LAYER
5
5C
330
2
100
AcDbSymbolTableRecord
100
AcDbLayerTableRecord
2
BLUE4
70
0
62
5
6
CONTINUOUS
370
-3
390
F
0
LAYER
5
5D
330
2
100
AcDbSymbolTableRecord
100
AcDbLayerTableRecord
2
GREEN4
70
0
62
3
6
CONTINUOUS
370
-3
390
F
0
LAYER
5
5E
330
2
100
AcDbSymbolTableRecord
100
AcDbLayerTableRecord
2
CYAN4
70
0
62
4
6
CONTINUOUS
370
-3
390
F
0
LAYER
5
5F
330
2
100
AcDbSymbolTableRecord
100
AcDbLayerTableRecord
2
RED4
70
0
62
1
6
CONTINUOUS
370
-3
390
F
0
LAYER
5
60
330
2
100
AcDbSymbolTableRecord
100
AcDbLayerTableRecord
2
MAGENTA4
70
0
62
6
6
CONTINUOUS
370
-3
390
F
0
LAYER
5
61
330
2
100
AcDbSymbolTableRecord
100
AcDbLayerTableRecord
2
YELLOW4
70
0
62
2
6
CONTINUOUS
370
-3
390
F
0
LAYER
5
62
330
2
100
AcDbSymbolTableRecord
100
AcDbLayerTableRecord
2
Defpoints
70
0
62
7
6
CONTINUOUS
290
0
370
-3
390
F
0
ENDTAB
0
TABLE
2
STYLE
5
3
330
0
100
AcDbSymbolTable
70
3
0
STYLE
5
63
330
2
100
AcDbSymbolTableRecord
100
AcDbTextStyleTableRecord
2
Standard
70
0
40
0
41
1
50
0
71
0
42
1
3
txt
4

0
ENDTAB
0
TABLE
2
VIEW
5
6
330
0
100
AcDbSymbolTable
70
0
0
ENDTAB
0
TABLE
2
UCS
5
7
330
0
100
AcDbSymbolTable
70
0
0
ENDTAB
0
TABLE
2
APPID
5
9
330
0
100
AcDbSymbolTable
70
1
0
APPID
5
12
330
9
100
AcDbSymbolTableRecord
100
AcDbRegAppTableRecord
2
ACAD
70
0
0
ENDTAB
0
TABLE
2
DIMSTYLE
5
A
330
0
100
AcDbSymbolTable
70
1
100
AcDbDimStyleTable
71
1
0
DIMSTYLE
105
64
330
A
100
AcDbSymbolTableRecord
100
AcDbDimStyleTableRecord
2
Standard
70
0
40
1
41
2
42
0.0625
43
0.38
44
0.18
45
0
46
0
47
0
48
0
140
1
141
0.09
142
0
143
25.4
144
1
145
0
146
1
147
0.09
148
0
71
0
72
0
73
0
74
1
75
0
76
0
77
0
78
0
79
0
170
0
171
2
172
0
173
0
174
0
175
0
176
0
177
0
178
0
179
0
271
4
272
4
273
2
274
2
275
0
276
0
277
2
278
46
279
0
280
0
281
0
282
0
283
1
284
0
285
0
286
0
288
0
289
3
340
Standard
341

371
-2
372
-2
0
ENDTAB
0
TABLE
2
BLOCK_RECORD
5
1
330
0
100
AcDbSymbolTable
70
2
0
BLOCK_RECORD
5
1F
330
1
100
AcDbSymbolTableRecord
100
AcDbBlockTableRecord
2
*Model_Space
70
0
280
1
281
0
0
BLOCK_RECORD
5
1E
330
1
100
AcDbSymbolTableRecord
100
AcDbBlockTableRecord
2
*Paper_Space
70
0
280
1
281
0
0
BLOCK_RECORD
5
65
330
1
100
AcDbSymbolTableRecord
100
AcDbBlockTableRecord
2
*D3
70
0
280
1
281
0
0
BLOCK_RECORD
5
68
330
1
100
AcDbSymbolTableRecord
100
AcDbBlockTableRecord
2
*D6
70
0
280
1
281
0
0
BLOCK_RECORD
5
6B
330
1
100
AcDbSymbolTableRecord
100
AcDbBlockTableRecord
2
*D1
70
0
280
1
281
0
0
BLOCK_RECORD
5
6E
330
1
100
AcDbSymbolTableRecord
100
AcDbBlockTableRecord
2
*D2
70
0
280
1
281
0
0
BLOCK_RECORD
5
71
330
1
100
AcDbSymbolTableRecord
100
AcDbBlockTableRecord
2
*D4
70
0
280
1
281
0
0
BLOCK_RECORD
5
74
330
1
100
AcDbSymbolTableRecord
100
AcDbBlockTableRecord
2
*D5
70
0
280
1
281
0
0
ENDTAB
0
ENDSEC
0
SECTION
2
BLOCKS
0
BLOCK
5
20
330
1F
100
AcDbEntity
8
0
100
AcDbBlockBegin
2
*Model_Space
70
0
10
0
20
0
30
0
3
*Model_Space
1

0
ENDBLK
5
21
330
1F
100
AcDbEntity
8
0
100
AcDbBlockEnd
0
BLOCK
5
1C
330
1B
100
AcDbEntity
8
0
100
AcDbBlockBegin
2
*Paper_Space
70
0
10
0
20
0
30
0
3
*Paper_Space
1

0
ENDBLK
5
1D
330
1F
100
AcDbEntity
8
0
100
AcDbBlockEnd
0
BLOCK
5
66
330
65
100
AcDbEntity
8
0
100
AcDbBlockBegin
2
*D3
70
1
10
0
20
0
3
*D3
1

0
LINE
5
77
100
AcDbEntity
8
0
6
CONTINUOUS
62
7
370
0
100
AcDbLine
10
205.444819852
20
-104.000000035
11
260.577042075
21
-104.000000035
0
SOLID
5
78
100
AcDbEntity
8
0
6
CONTINUOUS
62
7
370
0
100
AcDbTrace
10
205.444819852
20
-104.000000035
30
0
11
207.444819852
21
-103.666972308
31
0
12
207.444819852
22
-104.333027761
32
0
13
207.444819852
23
-104.333027761
33
0
0
SOLID
5
79
100
AcDbEntity
8
0
6
CONTINUOUS
62
7
370
0
100
AcDbTrace
10
317.444819852
20
-104.000000035
30
0
11
315.444819852
21
-104.333027761
31
0
12
315.444819852
22
-103.666972308
32
0
13
315.444819852
23
-103.666972308
33
0
0
LINE
5
7A
100
AcDbEntity
8
0
6
CONTINUOUS
62
7
370
0
100
AcDbLine
10
262.31259763
20
-104.000000035
11
317.444819852
21
-104.000000035
0
MTEXT
5
7B
100
AcDbEntity
8
0
6
CONTINUOUS
62
7
370
0
100
AcDbMText
10
261.444819852
20
-104.000000035
30
0
40
1
41
1.55555555556
71
5
72
1
1
112
7
standard
210
0
220
0
230
1
50
0
73
2
44
1
0
LINE
5
7C
100
AcDbEntity
8
0
6
CONTINUOUS
62
7
370
0
100
AcDbLine
10
205.444819852
20
-103.937500035
11
205.444819852
21
-103.820000035
0
LINE
5
7D
100
AcDbEntity
8
0
6
CONTINUOUS
62
7
370
0
100
AcDbLine
10
317.444819852
20
-103.937500035
11
317.444819852
21
-103.820000035
0
ENDBLK
5
67
330
65
100
AcDbEntity
8
0
100
AcDbBlockEnd
0
BLOCK
5
69
330
68
100
AcDbEntity
8
0
100
AcDbBlockBegin
2
*D6
70
1
10
0
20
0
3
*D6
1

0
SOLID
5
7E
100
AcDbEntity
8
0
6
CONTINUOUS
62
7
370
0
100
AcDbTrace
10
201.296325049
20
-101.208944524
30
0
11
203.141622744
21
-102.04905397
31
0
12
202.769823196
22
-102.601679487
32
0
13
202.769823196
23
-102.601679487
33
0
0
LINE
5
7F
100
AcDbEntity
8
0
6
CONTINUOUS
62
7
370
0
100
AcDbLine
10
205.444819852
20
-104.000000035
11
201.296325049
21
-101.208944524
0
MTEXT
5
80
100
AcDbEntity
8
0
6
CONTINUOUS
62
7
370
0
100
AcDbMText
10
190.283248402
20
-96.9997100005
30
0
40
1
41
0.444444444445
71
5
72
1
1
5
7
standard
210
0
220
0
230
1
50
326.067826405
73
2
44
1
0
ENDBLK
5
6A
330
68
100
AcDbEntity
8
0
100
AcDbBlockEnd
0
BLOCK
5
6C
330
6B
100
AcDbEntity
8
0
100
AcDbBlockBegin
2
*D1
70
1
10
0
20
0
3
*D1
1

0
LINE
5
81
100
AcDbEntity
8
0
6
CONTINUOUS
62
7
370
0
100
AcDbLine
10
313.894896538
20
-108.000000035
11
313.894896538
21
-95.0000000346
0
SOLID
5
82
100
AcDbEntity
8
0
6
CONTINUOUS
62
7
370
0
100
AcDbTrace
10
313.894896538
20
-104.000000035
30
0
11
314.227924264
21
-106.000000035
31
0
12
313.561868812
22
-106.000000035
32
0
13
313.561868812
23
-106.000000035
33
0
0
SOLID
5
83
100
AcDbEntity
8
0
6
CONTINUOUS
62
7
370
0
100
AcDbTrace
10
313.894896538
20
-99.0000000346
30
0
11
313.561868812
21
-97.0000000346
31
0
12
314.227924264
22
-97.0000000346
32
0
13
314.227924264
23
-97.0000000346
33
0
0
MTEXT
5
84
100
AcDbEntity
8
0
6
CONTINUOUS
62
7
370
0
100
AcDbMText
10
318.151563205
20
-97.0000000346
30
0
40
1
41
0.444444444445
71
5
72
1
1
5
7
standard
210
0
220
0
230
1
50
0
73
2
44
1
0
LINE
5
85
100
AcDbEntity
8
0
6
CONTINUOUS
62
7
370
0
100
AcDbLine
10
317.382319852
20
-104.000000035
11
313.714896538
21
-104.000000035
0
LINE
5
86
100
AcDbEntity
8
0
6
CONTINUOUS
62
7
370
0
100
AcDbLine
10
317.382319852
20
-99.0000000346
11
313.714896538
21
-99.0000000346
0
ENDBLK
5
6D
330
6B
100
AcDbEntity
8
0
100
AcDbBlockEnd
0
BLOCK
5
6F
330
6E
100
AcDbEntity
8
0
100
AcDbBlockBegin
2
*D2
70
1
10
0
20
0
3
*D2
1

0
LINE
5
87
100
AcDbEntity
8
0
6
CONTINUOUS
62
7
370
0
100
AcDbLine
10
200.089136491
20
-105.251661225
11
210.800503214
21
-102.748338845
0
SOLID
5
88
100
AcDbEntity
8
0
6
CONTINUOUS
62
7
370
0
100
AcDbTrace
10
203.984178936
20
-104.341362177
30
0
11
202.112446419
21
-105.120800983
31
0
12
201.960869008
22
-104.472222419
32
0
13
201.960869008
23
-104.472222419
33
0
0
SOLID
5
89
100
AcDbEntity
8
0
6
CONTINUOUS
62
7
370
0
100
AcDbTrace
10
206.905460769
20
-103.658637892
30
0
11
208.777193286
21
-102.879199086
31
0
12
208.928770697
22
-103.52777765
32
0
13
208.928770697
23
-103.52777765
33
0
0
MTEXT
5
8A
100
AcDbEntity
8
0
6
CONTINUOUS
62
7
370
0
100
AcDbMText
10
213.393008941
20
-102.142451867
30
0
40
1
41
1.44444444444
71
5
72
1
1
M3
7
standard
210
0
220
0
230
1
50
0
73
2
44
1
0
ENDBLK
5
70
330
6E
100
AcDbEntity
8
0
100
AcDbBlockEnd
0
BLOCK
5
72
330
71
100
AcDbEntity
8
0
100
AcDbBlockBegin
2
*D4
70
1
10
0
20
0
3
*D4
1

0
LINE
5
8B
100
AcDbEntity
8
0
6
CONTINUOUS
62
7
370
0
100
AcDbLine
10
200.444819852
20
-89.345969419
11
260.465930963
21
-89.345969419
0
SOLID
5
8C
100
AcDbEntity
8
0
6
CONTINUOUS
62
7
370
0
100
AcDbTrace
10
200.444819852
20
-89.345969419
30
0
11
202.444819852
21
-89.0129416928
31
0
12
202.444819852
22
-89.6789971452
32
0
13
202.444819852
23
-89.6789971452
33
0
0
SOLID
5
8D
100
AcDbEntity
8
0
6
CONTINUOUS
62
7
370
0
100
AcDbTrace
10
322.444819852
20
-89.345969419
30
0
11
320.444819852
21
-89.6789971452
31
0
12
320.444819852
22
-89.0129416928
32
0
13
320.444819852
23
-89.0129416928
33
0
0
LINE
5
8E
100
AcDbEntity
8
0
6
CONTINUOUS
62
7
370
0
100
AcDbLine
10
262.423708741
20
-89.345969419
11
322.444819852
21
-89.345969419
0
MTEXT
5
8F
100
AcDbEntity
8
0
6
CONTINUOUS
62
7
370
0
100
AcDbMText
10
261.444819852
20
-89.345969419
30
0
40
1
41
1.77777777778
71
5
72
1
1
122
7
standard
210
0
220
0
230
1
50
0
73
2
44
1
0
LINE
5
90
100
AcDbEntity
8
0
6
CONTINUOUS
62
7
370
0
100
AcDbLine
10
200.444819852
20
-103.937500035
11
200.444819852
21
-89.165969419
0
LINE
5
91
100
AcDbEntity
8
0
6
CONTINUOUS
62
7
370
0
100
AcDbLine
10
322.444819852
20
-103.937500035
11
322.444819852
21
-89.165969419
0
ENDBLK
5
73
330
71
100
AcDbEntity
8
0
100
AcDbBlockEnd
0
BLOCK
5
75
330
74
100
AcDbEntity
8
0
100
AcDbBlockBegin
2
*D5
70
1
10
0
20
0
3
*D5
1

0
LINE
5
92
100
AcDbEntity
8
0
6
CONTINUOUS
62
7
370
0
100
AcDbLine
10
299.428253304
20
-99.0000000346
11
299.428253304
21
-136.910000035
0
SOLID
5
93
100
AcDbEntity
8
0
6
CONTINUOUS
62
7
370
0
100
AcDbTrace
10
299.428253304
20
-99.0000000346
30
0
11
299.76128103
21
-101.000000035
31
0
12
299.095225577
22
-101.000000035
32
0
13
299.095225577
23
-101.000000035
33
0
0
SOLID
5
94
100
AcDbEntity
8
0
6
CONTINUOUS
62
7
370
0
100
AcDbTrace
10
299.428253304
20
-176.000000035
30
0
11
299.095225577
21
-174.000000035
31
0
12
299.76128103
22
-174.000000035
32
0
13
299.76128103
23
-174.000000035
33
0
0
LINE
5
95
100
AcDbEntity
8
0
6
CONTINUOUS
62
7
370
0
100
AcDbLine
10
299.428253304
20
-138.090000035
11
299.428253304
21
-176.000000035
0
MTEXT
5
96
100
AcDbEntity
8
0
6
CONTINUOUS
62
7
370
0
100
AcDbMText
10
299.428253304
20
-137.500000035
30
0
40
1
41
1.22222222222
71
5
72
1
1
77
7
standard
210
0
220
0
230
1
50
0
73
2
44
1
0
LINE
5
97
100
AcDbEntity
8
0
6
CONTINUOUS
62
7
370
0
100
AcDbLine
10
317.319819852
20
-99.0000000346
11
299.248253304
21
-99.0000000346
0
LINE
5
98
100
AcDbEntity
8
0
6
CONTINUOUS
62
7
370
0
100
AcDbLine
10
317.319819852
20
-176.000000035
11
299.248253304
21
-176.000000035
0
ENDBLK
5
76
330
74
100
AcDbEntity
8
0
100
AcDbBlockEnd
0
ENDSEC
0
SECTION
2
ENTITIES
0
LINE
5
99
100
AcDbEntity
8
0
6
CONTINUOUS
62
256
370
-1
100
AcDbLine
10
181
20
-104
11
181
21
-171
0
LINE
5
9A
100
AcDbEntity
8
0
6
CONTINUOUS
62
256
370
-1
100
AcDbLine
10
176
20
-176
11
64
21
-176
0
LINE
5
9B
100
AcDbEntity
8
0
6
CONTINUOUS
62
256
370
-1
100
AcDbLine
10
176
20
-99
11
176
21
-99
0
LINE
5
9C
100
AcDbEntity
8
0
6
CONTINUOUS
62
256
370
-1
100
AcDbLine
10
181
20
-104
11
181
21
-104
0
LINE
5
9D
100
AcDbEntity
8
0
6
CONTINUOUS
62
256
370
-1
100
AcDbLine
10
59
20
-171
11
59
21
-171
0
LINE
5
9E
100
AcDbEntity
8
0
6
CONTINUOUS
62
256
370
-1
100
AcDbLine
10
64
20
-176
11
64
21
-176
0
LINE
5
9F
100
AcDbEntity
8
0
6
CONTINUOUS
62
256
370
-1
100
AcDbLine
10
176
20
-176
11
176
21
-176
0
LINE
5
A0
100
AcDbEntity
8
0
6
CONTINUOUS
62
256
370
-1
100
AcDbLine
10
181
20
-171
11
181
21
-171
0
ARC
5
A1
100
AcDbEntity
8
0
6
CONTINUOUS
62
256
370
-1
100
AcDbCircle
10
64
20
-171
40
5
100
AcDbArc
50
180
51
270
0
ARC
5
A2
100
AcDbEntity
8
0
6
CONTINUOUS
62
256
370
-1
100
AcDbCircle
10
176
20
-104
40
5
100
AcDbArc
50
0
51
90
0
ARC
5
A3
100
AcDbEntity
8
0
6
CONTINUOUS
62
256
370
-1
100
AcDbCircle
10
176
20
-171
40
5
100
AcDbArc
50
270
51
3.181e-13
0
LINE
5
A4
100
AcDbEntity
8
0
6
CONTINUOUS
62
256
370
-1
100
AcDbLine
10
64
20
-99
11
176
21
-99
0
LINE
5
A5
100
AcDbEntity
8
0
6
CONTINUOUS
62
256
370
-1
100
AcDbLine
10
59
20
-104
11
59
21
-104
0
LINE
5
A6
100
AcDbEntity
8
0
6
CONTINUOUS
62
256
370
-1
100
AcDbLine
10
64
20
-99
11
64
21
-99
0
ARC
5
A7
100
AcDbEntity
8
0
6
CONTINUOUS
62
256
370
-1
100
AcDbCircle
10
64
20
-104
40
5
100
AcDbArc
50
90
51
180
0
LINE
5
A8
100
AcDbEntity
8
0
6
CONTINUOUS
62
256
370
-1
100
AcDbLine
10
135.47
20
-110.69
11
141.09
21
-110.69
0
LINE
5
A9
100
AcDbEntity
8
0
6
CONTINUOUS
62
256
370
-1
100
AcDbLine
10
86.21
20
-131.55
11
86.21
21
-131.55
0
LINE
5
AA
100
AcDbEntity
8
0
6
CONTINUOUS
62
256
370
-1
100
AcDbLine
10
85.21
20
-130.55
11
82.13
21
-130.55
0
LINE
5
AB
100
AcDbEntity
8
0
6
CONTINUOUS
62
256
370
-1
100
AcDbLine
10
134.39
20
-136.09
11
128.77
21
-136.09
0
LINE
5
AC
100
AcDbEntity
8
0
6
CONTINUOUS
62
256
370
-1
100
AcDbLine
10
322.444819852
20
-104.000000035
11
322.444819852
21
-171.000000035
0
LINE
5
AD
100
AcDbEntity
8
0
6
CONTINUOUS
62
256
370
-1
100
AcDbLine
10
317.444819852
20
-176.000000035
11
205.444819852
21
-176.000000035
0
LINE
5
AE
100
AcDbEntity
8
0
6
CONTINUOUS
62
256
370
-1
100
AcDbLine
10
317.444819852
20
-99.0000000346
11
317.444819852
21
-99.0000000346
0
LINE
5
AF
100
AcDbEntity
8
0
6
CONTINUOUS
62
256
370
-1
100
AcDbLine
10
322.444819852
20
-104.000000035
11
322.444819852
21
-104.000000035
0
ARC
5
B0
100
AcDbEntity
8
0
6
CONTINUOUS
62
256
370
-1
100
AcDbCircle
10
317.444819852
20
-104.000000035
40
5
100
AcDbArc
50
0
51
90
0
LINE
5
B1
100
AcDbEntity
8
0
6
CONTINUOUS
62
256
370
-1
100
AcDbLine
10
200.444819852
20
-171.000000035
11
200.444819852
21
-171.000000035
0
LINE
5
B2
100
AcDbEntity
8
0
6
CONTINUOUS
62
256
370
-1
100
AcDbLine
10
205.444819852
20
-176.000000035
11
205.444819852
21
-176.000000035
0
ARC
5
B3
100
AcDbEntity
8
0
6
CONTINUOUS
62
256
370
-1
100
AcDbCircle
10
205.444819852
20
-171.000000035
40
5
100
AcDbArc
50
180
51
270
0
LINE
5
B4
100
AcDbEntity
8
0
6
CONTINUOUS
62
256
370
-1
100
AcDbLine
10
317.444819852
20
-176.000000035
11
317.444819852
21
-176.000000035
0
ARC
5
B5
100
AcDbEntity
8
0
6
CONTINUOUS
62
256
370
-1
100
AcDbCircle
10
317.444819852
20
-171.000000035
40
5
100
AcDbArc
50
270
51
0
0
LINE
5
B6
100
AcDbEntity
8
0
6
CONTINUOUS
62
256
370
-1
100
AcDbLine
10
322.444819852
20
-171.000000035
11
322.444819852
21
-171.000000035
0
DIMENSION
5
B7
100
AcDbEntity
8
0
6
CONTINUOUS
62
256
370
-1
100
AcDbDimension
2
*D1
10
313.894896538
20
-99.0000000346
30
0
11
318.151563205
21
-97.0000000346
31
0
70
32
71
5
72
0
3
Standard
53
0
210
0
220
0
230
1
100
AcDbAlignedDimension
13
317.444819852
23
-104.000000035
33
0
14
317.444819852
24
-99.0000000346
34
0
50
90
100
AcDbRotatedDimension
0
LINE
5
B8
100
AcDbEntity
8
0
6
CONTINUOUS
62
256
370
-1
100
AcDbLine
10
205.444819852
20
-99.0000000346
11
317.444819852
21
-99.0000000346
0
LINE
5
B9
100
AcDbEntity
8
0
6
CONTINUOUS
62
256
370
-1
100
AcDbLine
10
200.444819852
20
-171.000000035
11
200.444819852
21
-104.000000035
0
LINE
5
BA
100
AcDbEntity
8
0
6
CONTINUOUS
62
256
370
-1
100
AcDbLine
10
200.444819852
20
-104.000000035
11
200.444819852
21
-104.000000035
0
ARC
5
BB
100
AcDbEntity
8
0
6
CONTINUOUS
62
256
370
-1
100
AcDbCircle
10
205.444819852
20
-104.000000035
40
5
100
AcDbArc
50
90
51
180
0
LINE
5
BC
100
AcDbEntity
8
0
6
CONTINUOUS
62
256
370
-1
100
AcDbLine
10
205.444819852
20
-99.0000000346
11
205.444819852
21
-99.0000000346
0
LINE
5
BD
100
AcDbEntity
8
0
6
CONTINUOUS
62
256
370
-1
100
AcDbLine
10
127.77
20
-128.55
11
127.77
21
-129.09
0
LINE
5
BE
100
AcDbEntity
8
0
6
CONTINUOUS
62
256
370
-1
100
AcDbLine
10
126.77
20
-127.55
11
120.23
21
-127.55
0
LINE
5
BF
100
AcDbEntity
8
0
6
CONTINUOUS
62
256
370
-1
100
AcDbLine
10
119.23
20
-128.55
11
119.23
21
-157.95
0
ARC
5
C0
100
AcDbEntity
8
0
6
CONTINUOUS
62
256
370
-1
100
AcDbCircle
10
86.13
20
-123.47
40
1
100
AcDbArc
50
1.6284e-12
51
90
0
LINE
5
C1
100
AcDbEntity
8
0
6
CONTINUOUS
62
256
370
-1
100
AcDbLine
10
87.13
20
-124.01
11
87.13
21
-123.47
0
ARC
5
C2
100
AcDbEntity
8
0
6
CONTINUOUS
62
256
370
-1
100
AcDbCircle
10
88.13
20
-124.01
40
1
100
AcDbArc
50
180
51
270
0
ARC
5
C3
100
AcDbEntity
8
0
6
CONTINUOUS
62
256
370
-1
100
AcDbCircle
10
82.13
20
-123.47
40
1
100
AcDbArc
50
90
51
180
0
ARC
5
C4
100
AcDbEntity
8
0
6
CONTINUOUS
62
256
370
-1
100
AcDbCircle
10
82.13
20
-129.55
40
1
100
AcDbArc
50
180
51
270
0
ARC
5
C5
100
AcDbEntity
8
0
6
CONTINUOUS
62
256
370
-1
100
AcDbCircle
10
85.21
20
-131.55
40
1
100
AcDbArc
50
0
51
90
0
LINE
5
C6
100
AcDbEntity
8
0
6
CONTINUOUS
62
256
370
-1
100
AcDbLine
10
86.21
20
-131.55
11
86.21
21
-132.55
0
ARC
5
C7
100
AcDbEntity
8
0
6
CONTINUOUS
62
256
370
-1
100
AcDbCircle
10
87.21
20
-132.55
40
1
100
AcDbArc
50
180
51
270
0
ARC
5
C8
100
AcDbEntity
8
0
6
CONTINUOUS
62
256
370
-1
100
AcDbCircle
10
108.99
20
-126.01
40
1
100
AcDbArc
50
2.036e-13
51
90
0
ARC
5
C9
100
AcDbEntity
8
0
6
CONTINUOUS
62
256
370
-1
100
AcDbCircle
10
108.99
20
-132.55
40
1
100
AcDbArc
50
270
51
8.142e-13
0
ARC
5
CA
100
AcDbEntity
8
0
6
CONTINUOUS
62
256
370
-1
100
AcDbCircle
10
84.67
20
-109.69
40
1
100
AcDbArc
50
180
51
270
0
ARC
5
CB
100
AcDbEntity
8
0
6
CONTINUOUS
62
256
370
-1
100
AcDbCircle
10
93.75
20
-109.69
40
1
100
AcDbArc
50
270
51
0
0
ARC
5
CC
100
AcDbEntity
8
0
6
CONTINUOUS
62
256
370
-1
100
AcDbCircle
10
120.23
20
-128.55
40
1
100
AcDbArc
50
90
51
180
0
ARC
5
CD
100
AcDbEntity
8
0
6
CONTINUOUS
62
256
370
-1
100
AcDbCircle
10
126.77
20
-128.55
40
1
100
AcDbArc
50
360
51
90
0
ARC
5
CE
100
AcDbEntity
8
0
6
CONTINUOUS
62
256
370
-1
100
AcDbCircle
10
134.39
20
-131.09
40
1
100
AcDbArc
50
0
51
90
0
ARC
5
CF
100
AcDbEntity
8
0
6
CONTINUOUS
62
256
370
-1
100
AcDbCircle
10
134.39
20
-135.09
40
1
100
AcDbArc
50
270
51
360
0
ARC
5
D0
100
AcDbEntity
8
0
6
CONTINUOUS
62
256
370
-1
100
AcDbCircle
10
126.77
20
-157.95
40
1
100
AcDbArc
50
270
51
8.142e-13
0
ARC
5
D1
100
AcDbEntity
8
0
6
CONTINUOUS
62
256
370
-1
100
AcDbCircle
10
120.23
20
-157.95
40
1
100
AcDbArc
50
180
51
270
0
ARC
5
D2
100
AcDbEntity
8
0
6
CONTINUOUS
62
256
370
-1
100
AcDbCircle
10
135.47
20
-109.69
40
1
100
AcDbArc
50
180
51
270
0
ARC
5
D3
100
AcDbEntity
8
0
6
CONTINUOUS
62
256
370
-1
100
AcDbCircle
10
141.09
20
-111.69
40
1
100
AcDbArc
50
0
51
90
0
ARC
5
D4
100
AcDbEntity
8
0
6
CONTINUOUS
62
256
370
-1
100
AcDbCircle
10
156.933
20
-116.77
40
1
100
AcDbArc
50
90
51
180
0
ARC
5
D5
100
AcDbEntity
8
0
6
CONTINUOUS
62
256
370
-1
100
AcDbCircle
10
162.33
20
-114.77
40
1
100
AcDbArc
50
270
51
0
0
ARC
5
D6
100
AcDbEntity
8
0
6
CONTINUOUS
62
256
370
-1
100
AcDbCircle
10
128.77
20
-137.09
40
1
100
AcDbArc
50
90
51
180
0
ARC
5
D7
100
AcDbEntity
8
0
6
CONTINUOUS
62
256
370
-1
100
AcDbCircle
10
128.77
20
-129.09
40
1
100
AcDbArc
50
180
51
270
0
ARC
5
D8
100
AcDbEntity
8
0
6
CONTINUOUS
62
256
370
-1
100
AcDbCircle
10
135.47
20
-156.49
40
1
100
AcDbArc
50
90
51
180
0
ARC
5
D9
100
AcDbEntity
8
0
6
CONTINUOUS
62
256
370
-1
100
AcDbCircle
10
152.17
20
-156.49
40
1
100
AcDbArc
50
0
51
90
0
ARC
5
DA
100
AcDbEntity
8
0
6
CONTINUOUS
62
256
370
-1
100
AcDbCircle
10
135.47
20
-168.11
40
1
100
AcDbArc
50
180
51
270
0
ARC
5
DB
100
AcDbEntity
8
0
6
CONTINUOUS
62
256
370
-1
100
AcDbCircle
10
169.95
20
-168.11
40
1
100
AcDbArc
50
270
51
0
0
ARC
5
DC
100
AcDbEntity
8
0
6
CONTINUOUS
62
256
370
-1
100
AcDbCircle
10
168.49
20
-128.55
40
1
100
AcDbArc
50
90
51
180
0
ARC
5
DD
100
AcDbEntity
8
0
6
CONTINUOUS
62
256
370
-1
100
AcDbCircle
10
175.03
20
-128.55
40
1
100
AcDbArc
50
0
51
90
0
DIMENSION
5
DE
100
AcDbEntity
8
0
6
CONTINUOUS
62
256
370
-1
100
AcDbDimension
2
*D2
10
203.984178936
20
-104.341362177
30
0
11
213.393008941
21
-102.142451867
31
0
70
35
1
M3
71
5
72
0
3
Standard
53
0
210
0
220
0
230
1
100
AcDbDiametricDimension
15
206.905460769
25
-103.658637892
35
0
40
0
0
DIMENSION
5
DF
100
AcDbEntity
8
0
6
CONTINUOUS
62
256
370
-1
100
AcDbDimension
2
*D3
10
317.444819852
20
-104.000000035
30
0
11
261.444819852
21
-104.000000035
31
0
70
32
71
5
72
0
3
Standard
53
0
210
0
220
0
230
1
100
AcDbAlignedDimension
13
205.444819852
23
-104.000000035
33
0
14
317.444819852
24
-104.000000035
34
0
100
AcDbRotatedDimension
0
DIMENSION
5
E0
100
AcDbEntity
8
0
6
CONTINUOUS
62
256
370
-1
100
AcDbDimension
2
*D4
10
322.444819852
20
-89.345969419
30
0
11
261.444819852
21
-89.345969419
31
0
70
32
71
5
72
0
3
Standard
53
0
210
0
220
0
230
1
100
AcDbAlignedDimension
13
200.444819852
23
-104.000000035
33
0
14
322.444819852
24
-104.000000035
34
0
100
AcDbRotatedDimension
0
DIMENSION
5
E1
100
AcDbEntity
8
0
6
CONTINUOUS
62
256
370
-1
100
AcDbDimension
2
*D5
10
299.428253304
20
-176.000000035
30
0
11
299.428253304
21
-137.500000035
31
0
70
32
71
5
72
0
3
Standard
53
0
210
0
220
0
230
1
100
AcDbAlignedDimension
13
317.382319852
23
-99.0000000346
33
0
14
317.382319852
24
-176.000000035
34
0
50
90
100
AcDbRotatedDimension
0
DIMENSION
5
E2
100
AcDbEntity
8
0
6
CONTINUOUS
62
256
370
-1
100
AcDbDimension
2
*D6
10
205.444819852
20
-104.000000035
30
0
11
190.283248402
21
-96.9997100005
31
0
70
36
71
5
72
0
3
Standard
53
0
210
0
220
0
230
1
100
AcDbRadialDimension
15
201.296325049
25
-101.208944524
35
0
40
0
0
LINE
5
E3
100
AcDbEntity
8
0
6
CONTINUOUS
62
256
370
-1
100
AcDbLine
10
84.67
20
-110.69
11
93.75
21
-110.69
0
LINE
5
E4
100
AcDbEntity
8
0
6
CONTINUOUS
62
256
370
-1
100
AcDbLine
10
82.13
20
-122.47
11
86.13
21
-122.47
0
LINE
5
E5
100
AcDbEntity
8
0
6
CONTINUOUS
62
256
370
-1
100
AcDbLine
10
81.13
20
-123.47
11
81.13
21
-129.55
0
LINE
5
E6
100
AcDbEntity
8
0
6
CONTINUOUS
62
256
370
-1
100
AcDbLine
10
88.13
20
-125.01
11
108.99
21
-125.01
0
LINE
5
E7
100
AcDbEntity
8
0
6
CONTINUOUS
62
256
370
-1
100
AcDbLine
10
87.21
20
-133.55
11
108.99
21
-133.55
0
LINE
5
E8
100
AcDbEntity
8
0
6
CONTINUOUS
62
256
370
-1
100
AcDbLine
10
109.99
20
-126.01
11
109.99
21
-132.55
0
LINE
5
E9
100
AcDbEntity
8
0
6
CONTINUOUS
62
256
370
-1
100
AcDbLine
10
156.933
20
-115.77
11
162.33
21
-115.77
0
LINE
5
EA
100
AcDbEntity
8
0
6
CONTINUOUS
62
256
370
-1
100
AcDbLine
10
128.77
20
-130.09
11
134.39
21
-130.09
0
LINE
5
EB
100
AcDbEntity
8
0
6
CONTINUOUS
62
256
370
-1
100
AcDbLine
10
135.39
20
-131.09
11
135.39
21
-135.09
0
LINE
5
EC
100
AcDbEntity
8
0
6
CONTINUOUS
62
256
370
-1
100
AcDbLine
10
127.77
20
-137.09
11
127.77
21
-157.95
0
LINE
5
ED
100
AcDbEntity
8
0
6
CONTINUOUS
62
256
370
-1
100
AcDbLine
10
168.49
20
-127.55
11
175.03
21
-127.55
0
LINE
5
EE
100
AcDbEntity
8
0
6
CONTINUOUS
62
256
370
-1
100
AcDbLine
10
135.47
20
-155.49
11
152.17
21
-155.49
0
LINE
5
EF
100
AcDbEntity
8
0
6
CONTINUOUS
62
256
370
-1
100
AcDbLine
10
134.47
20
-156.49
11
134.47
21
-168.11
0
LINE
5
F0
100
AcDbEntity
8
0
6
CONTINUOUS
62
256
370
-1
100
AcDbLine
10
135.47
20
-169.11
11
169.95
21
-169.11
0
LINE
5
F1
100
AcDbEntity
8
0
6
CONTINUOUS
62
256
370
-1
100
AcDbLine
10
120.23
20
-158.95
11
126.77
21
-158.95
0
CIRCLE
5
F2
100
AcDbEntity
8
0
6
CONTINUOUS
62
256
370
-1
100
AcDbCircle
10
64
20
-104
40
1.6
0
CIRCLE
5
F3
100
AcDbEntity
8
0
6
CONTINUOUS
62
256
370
-1
100
AcDbCircle
10
64
20
-171
40
1.6
0
CIRCLE
5
F4
100
AcDbEntity
8
0
6
CONTINUOUS
62
256
370
-1
100
AcDbCircle
10
176
20
-171
40
1.6
0
CIRCLE
5
F5
100
AcDbEntity
8
0
6
CONTINUOUS
62
256
370
-1
100
AcDbCircle
10
176
20
-104
40
1.6
0
CIRCLE
5
F6
100
AcDbEntity
8
0
6
CONTINUOUS
62
256
370
-1
100
AcDbCircle
10
205.445
20
-104
40
1.6
0
CIRCLE
5
F7
100
AcDbEntity
8
0
6
CONTINUOUS
62
256
370
-1
100
AcDbCircle
10
205.445
20
-171
40
1.6
0
CIRCLE
5
F8
100
AcDbEntity
8
0
6
CONTINUOUS
62
256
370
-1
100
AcDbCircle
10
317.445
20
-171
40
1.6
0
CIRCLE
5
F9
100
AcDbEntity
8
0
6
CONTINUOUS
62
256
370
-1
100
AcDbCircle
10
317.445
20
-104
40
1.6
0
LINE
5
FA
100
AcDbEntity
8
0
6
CONTINUOUS
62
256
370
-1
100
AcDbLine
10
154.17
20
-160.97
11
169.95
21
-160.97
0
LINE
5
FB
100
AcDbEntity
8
0
6
CONTINUOUS
62
256
370
-1
100
AcDbLine
10
135.47
20
-102.55
11
162.33
21
-102.55
0
LINE
5
FC
100
AcDbEntity
8
0
6
CONTINUOUS
62
256
370
-1
100
AcDbLine
10
84.67
20
-102.55
11
93.75
21
-102.55
0
ARC
5
FD
100
AcDbEntity
8
0
6
CONTINUOUS
62
256
370
-1
100
AcDbCircle
10
154.17
20
-159.97
40
1
100
AcDbArc
50
180
51
270
0
LINE
5
FE
100
AcDbEntity
8
0
6
CONTINUOUS
62
256
370
-1
100
AcDbLine
10
153.17
20
-156.49
11
153.17
21
-159.97
0
LINE
5
FF
100
AcDbEntity
8
0
6
CONTINUOUS
62
256
370
-1
100
AcDbLine
10
170.95
20
-161.97
11
170.95
21
-168.11
0
ARC
5
100
100
AcDbEntity
8
0
6
CONTINUOUS
62
256
370
-1
100
AcDbCircle
10
169.95
20
-161.97
40
1
100
AcDbArc
50
0
51
90
0
LINE
5
101
100
AcDbEntity
8
0
6
CONTINUOUS
62
256
370
-1
100
AcDbLine
10
167.49
20
-128.55
11
167.49
21
-157.55
0
LINE
5
102
100
AcDbEntity
8
0
6
CONTINUOUS
62
256
370
-1
100
AcDbLine
10
176.03
20
-128.55
11
176.03
21
-157.55
0
ARC
5
103
100
AcDbEntity
8
0
6
CONTINUOUS
62
256
370
-1
100
AcDbCircle
10
175.03
20
-157.55
40
1
100
AcDbArc
50
270
51
0
0
ARC
5
104
100
AcDbEntity
8
0
6
CONTINUOUS
62
256
370
-1
100
AcDbCircle
10
168.49
20
-157.55
40
1
100
AcDbArc
50
180
51
270
0
LINE
5
105
100
AcDbEntity
8
0
6
CONTINUOUS
62
256
370
-1
100
AcDbLine
10
168.49
20
-158.55
11
175.03
21
-158.55
0
LINE
5
106
100
AcDbEntity
8
0
6
CONTINUOUS
62
256
370
-1
100
AcDbLine
10
94.75
20
-103.55
11
94.75
21
-109.69
0
ARC
5
107
100
AcDbEntity
8
0
6
CONTINUOUS
62
256
370
-1
100
AcDbCircle
10
93.75
20
-103.55
40
1
100
AcDbArc
50
0
51
90
0
LINE
5
108
100
AcDbEntity
8
0
6
CONTINUOUS
62
256
370
-1
100
AcDbLine
10
83.67
20
-103.55
11
83.67
21
-109.69
0
ARC
5
109
100
AcDbEntity
8
0
6
CONTINUOUS
62
256
370
-1
100
AcDbCircle
10
84.67
20
-103.55
40
1
100
AcDbArc
50
90
51
180
0
LINE
5
10A
100
AcDbEntity
8
0
6
CONTINUOUS
62
256
370
-1
100
AcDbLine
10
163.33
20
-103.55
11
163.33
21
-114.77
0
ARC
5
10B
100
AcDbEntity
8
0
6
CONTINUOUS
62
256
370
-1
100
AcDbCircle
10
162.33
20
-103.55
40
1
100
AcDbArc
50
0
51
90
0
LINE
5
10C
100
AcDbEntity
8
0
6
CONTINUOUS
62
256
370
-1
100
AcDbLine
10
134.47
20
-103.55
11
134.47
21
-109.69
0
ARC
5
10D
100
AcDbEntity
8
0
6
CONTINUOUS
62
256
370
-1
100
AcDbCircle
10
135.47
20
-103.55
40
1
100
AcDbArc
50
90
51
180
0
ARC
5
10E
100
AcDbEntity
8
0
6
CONTINUOUS
62
256
370
-1
100
AcDbCircle
10
60
20
-106.4
40
1
100
AcDbArc
50
180
51
270
0
LINE
5
10F
100
AcDbEntity
8
0
6
CONTINUOUS
62
256
370
-1
100
AcDbLine
10
59
20
-106.4
11
59
21
-104
0
ARC
5
110
100
AcDbEntity
8
0
6
CONTINUOUS
62
256
370
-1
100
AcDbCircle
10
60
20
-129.4
40
1
100
AcDbArc
50
90
51
180
0
LINE
5
111
100
AcDbEntity
8
0
6
CONTINUOUS
62
256
370
-1
100
AcDbLine
10
59
20
-171
11
59
21
-129.4
0
LINE
5
112
100
AcDbEntity
8
0
6
CONTINUOUS
62
256
370
-1
100
AcDbLine
10
65
20
-108.4
11
65
21
-127.4
0
LINE
5
113
100
AcDbEntity
8
0
6
CONTINUOUS
62
256
370
-1
100
AcDbLine
10
60
20
-107.4
11
64
21
-107.4
0
LINE
5
114
100
AcDbEntity
8
0
6
CONTINUOUS
62
256
370
-1
100
AcDbLine
10
60
20
-128.4
11
64
21
-128.4
0
ARC
5
115
100
AcDbEntity
8
0
6
CONTINUOUS
62
256
370
-1
100
AcDbCircle
10
64
20
-108.4
40
1
100
AcDbArc
50
0
51
90
0
ARC
5
116
100
AcDbEntity
8
0
6
CONTINUOUS
62
256
370
-1
100
AcDbCircle
10
64
20
-127.4
40
1
100
AcDbArc
50
270
51
0
0
LINE
5
117
100
AcDbEntity
8
0
6
CONTINUOUS
62
256
370
-1
100
AcDbLine
10
142.09
20
-111.69
11
142.09
21
-123.047
0
ARC
5
118
100
AcDbEntity
8
0
6
CONTINUOUS
62
256
370
-1
100
AcDbCircle
10
143.09
20
-123.047
40
1
100
AcDbArc
50
180
51
270
0
LINE
5
119
100
AcDbEntity
8
0
6
CONTINUOUS
62
256
370
-1
100
AcDbLine
10
143.09
20
-124.047
11
154.933
21
-124.047
0
ARC
5
11A
100
AcDbEntity
8
0
6
CONTINUOUS
62
256
370
-1
100
AcDbCircle
10
154.933
20
-123.047
40
1
100
AcDbArc
50
270
51
0
0
LINE
5
11B
100
AcDbEntity
8
0
6
CONTINUOUS
62
256
370
-1
100
AcDbLine
10
155.933
20
-116.77
11
155.933
21
-123.047
0
ENDSEC
0
SECTION
2
OBJECTS
0
DICTIONARY
5
C
330
0
100
AcDbDictionary
281
1
3
ACAD_GROUP
350
D
0
DICTIONARY
5
D
330
C
100
AcDbDictionary
281
1
0
ENDSEC
0
EOF
