G04 (created by PCBNEW (2013-01-23 BZR 3920)-stable) date Mon Jun 10 00:49:26 2013*
%MOIN*%
G04 Gerber Fmt 3.4, Leading zero omitted, Abs format*
%FSLAX34Y34*%
G01*
G70*
G90*
G04 APERTURE LIST*
%ADD10C,2.3622e-06*%
%ADD11C,0.05*%
%ADD12R,0.036X0.036*%
%ADD13R,0.02X0.03*%
%ADD14R,0.0472X0.0551*%
%ADD15R,0.0551X0.0472*%
%ADD16R,0.0116X0.0591*%
%ADD17R,0.0591X0.0116*%
%ADD18R,0.0157X0.0689*%
%ADD19R,0.0561X0.0814*%
%ADD20R,0.0843X0.0571*%
%ADD21R,0.0719X0.025*%
%ADD22R,0.063X0.1116*%
%ADD23C,0.063*%
%ADD24C,0.0571*%
%ADD25R,0.025X0.075*%
%ADD26R,0.0079X0.0177*%
%ADD27R,0.0512X0.0079*%
%ADD28O,0.0472X0.0079*%
%ADD29R,0.0472X0.0197*%
%ADD30O,0.0433X0.0079*%
%ADD31R,0.0059X0.0079*%
%ADD32O,0.0335X0.011*%
%ADD33O,0.011X0.0335*%
%ADD34C,0.0236*%
%ADD35R,0.0404X0.0404*%
%ADD36O,0.0097X0.0343*%
%ADD37O,0.0343X0.0097*%
%ADD38R,0.1783X0.1783*%
%ADD39C,0.025*%
%ADD40O,0.0354X0.011*%
%ADD41R,0.1391X0.1391*%
%ADD42O,0.011X0.0354*%
%ADD43O,0.0315X0.011*%
%ADD44O,0.011X0.0315*%
%ADD45R,0.1043X0.1043*%
%ADD46R,0.1457X0.0472*%
%ADD47R,0.0157X0.0197*%
%ADD48R,0.0276X0.0197*%
%ADD49R,0.0197X0.0236*%
%ADD50R,0.06X0.06*%
%ADD51C,0.06*%
%ADD52R,0.7874X0.0787*%
%ADD53R,0.7874X0.0394*%
%ADD54R,0.0394X0.5118*%
%ADD55R,0.4724X0.0394*%
%ADD56R,0.0394X0.2362*%
%ADD57R,0.0217X0.0098*%
%ADD58R,0.034X0.034*%
%ADD59R,0.022X0.02*%
%ADD60R,0.02X0.022*%
%ADD61C,0.1*%
%ADD62R,0.03X0.02*%
%ADD63R,0.03X0.01*%
%ADD64R,0.01X0.03*%
%ADD65R,0.01X0.06*%
%ADD66R,0.06X0.01*%
%ADD67R,0.006X0.0169*%
%ADD68R,0.024X0.0079*%
%ADD69R,0.0169X0.006*%
%ADD70R,0.0079X0.024*%
%ADD71C,0.126*%
%ADD72R,0.013X0.0161*%
%ADD73R,0.0161X0.013*%
%ADD74R,0.2087X0.2087*%
%ADD75R,0.042X0.042*%
%ADD76C,0.042*%
%ADD77R,0.0453X0.0567*%
%ADD78R,0.0567X0.0453*%
%ADD79R,0.0217X0.0315*%
%ADD80R,0.039X0.018*%
%ADD81R,0.0335X0.011*%
%ADD82R,0.0324X0.0472*%
%ADD83R,0.011X0.0276*%
%ADD84C,0.023*%
%ADD85C,0.031*%
%ADD86C,0.027*%
%ADD87C,0.037*%
%ADD88C,0.02*%
%ADD89C,0.01*%
%ADD90C,0.012*%
%ADD91C,0.006*%
%ADD92C,0.0095*%
%ADD93C,0.008*%
%ADD94C,0.05*%
%ADD95C,0.011*%
%ADD96C,0.018*%
G04 APERTURE END LIST*
G54D10*
G54D11*
X69700Y-43750D03*
X69700Y-44450D03*
X45400Y-33850D03*
G54D12*
X37600Y-41650D03*
X37600Y-42350D03*
X36800Y-42000D03*
X34050Y-36600D03*
X34750Y-36600D03*
X34400Y-37400D03*
G54D13*
X56975Y-24450D03*
X57725Y-24450D03*
X56975Y-23450D03*
X57350Y-24450D03*
X57725Y-23450D03*
G54D14*
X72015Y-32383D03*
X71385Y-31517D03*
X72015Y-31517D03*
X71385Y-32383D03*
G54D15*
X43567Y-30815D03*
X44433Y-30185D03*
X44433Y-30815D03*
X43567Y-30185D03*
G54D16*
X56362Y-39350D03*
X56165Y-39350D03*
X55969Y-39350D03*
X55772Y-39350D03*
X55575Y-39350D03*
X55378Y-39350D03*
X55181Y-39350D03*
X54984Y-39350D03*
X54787Y-39350D03*
X54591Y-39350D03*
X54394Y-39350D03*
X54197Y-39350D03*
X54000Y-39350D03*
X53803Y-39350D03*
X53606Y-39350D03*
X53409Y-39350D03*
X53213Y-39350D03*
X53016Y-39350D03*
X52819Y-39350D03*
X52622Y-39350D03*
X52425Y-39350D03*
X52228Y-39350D03*
X52031Y-39350D03*
X51835Y-39350D03*
X51638Y-39350D03*
G54D17*
X50850Y-40138D03*
X50850Y-40335D03*
X50850Y-40531D03*
X50850Y-40728D03*
X50850Y-40925D03*
X50850Y-41122D03*
X50850Y-41319D03*
X50850Y-41516D03*
X50850Y-41713D03*
X50850Y-41909D03*
X50850Y-42106D03*
X50850Y-42303D03*
X50850Y-42500D03*
X50850Y-42697D03*
X50850Y-42894D03*
X50850Y-43091D03*
X50850Y-43287D03*
X50850Y-43484D03*
X50850Y-43681D03*
X50850Y-43878D03*
X50850Y-44075D03*
X50850Y-44272D03*
X50850Y-44469D03*
X50850Y-44665D03*
X50850Y-44862D03*
G54D16*
X51638Y-45650D03*
X51835Y-45650D03*
X52031Y-45650D03*
X52228Y-45650D03*
X52425Y-45650D03*
X52622Y-45650D03*
X52819Y-45650D03*
X53016Y-45650D03*
X53213Y-45650D03*
X53409Y-45650D03*
X53606Y-45650D03*
X53803Y-45650D03*
X54000Y-45650D03*
X54197Y-45650D03*
X54394Y-45650D03*
X54591Y-45650D03*
X54787Y-45650D03*
X54984Y-45650D03*
X55181Y-45650D03*
X55378Y-45650D03*
X55575Y-45650D03*
X55772Y-45650D03*
X55969Y-45650D03*
X56165Y-45650D03*
X56362Y-45650D03*
G54D17*
X57150Y-44862D03*
X57150Y-44665D03*
X57150Y-44469D03*
X57150Y-44272D03*
X57150Y-44075D03*
X57150Y-43878D03*
X57150Y-43681D03*
X57150Y-43484D03*
X57150Y-43287D03*
X57150Y-43091D03*
X57150Y-42894D03*
X57150Y-42697D03*
X57150Y-42500D03*
X57150Y-42303D03*
X57150Y-42106D03*
X57150Y-41909D03*
X57150Y-41713D03*
X57150Y-41516D03*
X57150Y-41319D03*
X57150Y-41122D03*
X57150Y-40925D03*
X57150Y-40728D03*
X57150Y-40531D03*
X57150Y-40335D03*
X57150Y-40138D03*
G54D18*
X70012Y-23281D03*
X69756Y-23281D03*
X69500Y-23281D03*
X69244Y-23281D03*
X68988Y-23281D03*
G54D19*
X69879Y-22156D03*
X69121Y-22156D03*
G54D20*
X70614Y-23340D03*
X68386Y-23340D03*
G54D21*
X70676Y-22827D03*
X68324Y-22827D03*
G54D22*
X70583Y-22394D03*
X68417Y-22394D03*
G54D23*
X70583Y-22169D03*
X68417Y-22169D03*
G54D24*
X70479Y-23339D03*
X68521Y-23339D03*
G54D25*
X81250Y-39500D03*
X80750Y-39500D03*
X80250Y-39500D03*
X79750Y-39500D03*
X79750Y-42500D03*
X80250Y-42500D03*
X80750Y-42500D03*
X81250Y-42500D03*
G54D26*
X36264Y-36455D03*
X36421Y-36455D03*
X36579Y-36455D03*
X36736Y-36455D03*
X36736Y-35845D03*
X36579Y-35845D03*
X36421Y-35845D03*
X36264Y-35845D03*
G54D27*
X36500Y-36150D03*
G54D28*
X36500Y-36052D03*
G54D29*
X36500Y-36150D03*
G54D30*
X36520Y-36248D03*
G54D10*
G36*
X36302Y-36287D02*
X36263Y-36248D01*
X36283Y-36228D01*
X36322Y-36267D01*
X36302Y-36287D01*
X36302Y-36287D01*
G37*
G54D31*
X36333Y-36248D03*
G54D26*
X34454Y-40745D03*
X34611Y-40745D03*
X34769Y-40745D03*
X34926Y-40745D03*
X34926Y-40135D03*
X34769Y-40135D03*
X34611Y-40135D03*
X34454Y-40135D03*
G54D27*
X34690Y-40440D03*
G54D28*
X34690Y-40342D03*
G54D29*
X34690Y-40440D03*
G54D30*
X34710Y-40538D03*
G54D10*
G36*
X34492Y-40577D02*
X34453Y-40538D01*
X34473Y-40518D01*
X34512Y-40557D01*
X34492Y-40577D01*
X34492Y-40577D01*
G37*
G54D31*
X34523Y-40538D03*
G54D26*
X36736Y-38045D03*
X36579Y-38045D03*
X36421Y-38045D03*
X36264Y-38045D03*
X36264Y-38655D03*
X36421Y-38655D03*
X36579Y-38655D03*
X36736Y-38655D03*
G54D27*
X36500Y-38350D03*
G54D28*
X36500Y-38448D03*
G54D29*
X36500Y-38350D03*
G54D30*
X36480Y-38252D03*
G54D10*
G36*
X36697Y-38212D02*
X36736Y-38251D01*
X36716Y-38271D01*
X36677Y-38232D01*
X36697Y-38212D01*
X36697Y-38212D01*
G37*
G54D31*
X36667Y-38252D03*
G54D32*
X44679Y-47894D03*
X44679Y-47697D03*
X44679Y-47500D03*
X44679Y-47303D03*
X44679Y-47106D03*
G54D33*
X43705Y-46821D03*
G54D32*
X43321Y-47106D03*
X43321Y-47303D03*
X43321Y-47500D03*
X43321Y-47697D03*
X43321Y-47894D03*
G54D34*
X44202Y-47702D03*
X43798Y-47702D03*
X43798Y-47298D03*
X44202Y-47298D03*
G54D35*
X44202Y-47702D03*
X43798Y-47702D03*
X44202Y-47298D03*
X43798Y-47298D03*
G54D33*
X44295Y-46821D03*
X43705Y-48179D03*
X44295Y-48179D03*
G54D32*
X40679Y-47894D03*
X40679Y-47697D03*
X40679Y-47500D03*
X40679Y-47303D03*
X40679Y-47106D03*
G54D33*
X39705Y-46821D03*
G54D32*
X39321Y-47106D03*
X39321Y-47303D03*
X39321Y-47500D03*
X39321Y-47697D03*
X39321Y-47894D03*
G54D34*
X40202Y-47702D03*
X39798Y-47702D03*
X39798Y-47298D03*
X40202Y-47298D03*
G54D35*
X40202Y-47702D03*
X39798Y-47702D03*
X40202Y-47298D03*
X39798Y-47298D03*
G54D33*
X40295Y-46821D03*
X39705Y-48179D03*
X40295Y-48179D03*
G54D36*
X52091Y-25844D03*
X51934Y-25844D03*
X51776Y-25844D03*
X51619Y-25844D03*
X51461Y-25844D03*
X51304Y-25844D03*
X51146Y-25844D03*
X50989Y-25844D03*
X50831Y-25844D03*
X50674Y-25844D03*
X50516Y-25844D03*
X50359Y-25844D03*
G54D37*
X50044Y-26159D03*
X50044Y-26316D03*
X50044Y-26474D03*
X50044Y-26631D03*
X50044Y-26789D03*
X50044Y-26946D03*
X50044Y-27104D03*
X50044Y-27261D03*
X50044Y-27419D03*
X50044Y-27576D03*
X50044Y-27734D03*
X50044Y-27891D03*
G54D36*
X50359Y-28206D03*
X50516Y-28206D03*
X50674Y-28206D03*
X50831Y-28206D03*
X50989Y-28206D03*
X51146Y-28206D03*
X51304Y-28206D03*
X51461Y-28206D03*
X51619Y-28206D03*
X51776Y-28206D03*
X51934Y-28206D03*
X52091Y-28206D03*
G54D37*
X52406Y-27891D03*
X52406Y-27734D03*
X52406Y-27576D03*
X52406Y-27419D03*
X52406Y-27261D03*
X52406Y-27104D03*
X52406Y-26946D03*
X52406Y-26789D03*
X52406Y-26631D03*
X52406Y-26474D03*
X52406Y-26316D03*
X52406Y-26159D03*
G54D38*
X51225Y-27025D03*
G54D39*
X51225Y-27025D03*
X51225Y-26431D03*
X51819Y-26431D03*
X51819Y-27025D03*
X51819Y-27619D03*
X51225Y-27619D03*
X50631Y-27619D03*
X50631Y-27025D03*
X50631Y-26431D03*
G54D40*
X37185Y-26511D03*
X37185Y-26708D03*
X37185Y-26905D03*
X37185Y-27102D03*
X37185Y-27298D03*
X37185Y-27495D03*
X37185Y-27692D03*
X37185Y-27889D03*
G54D41*
X38150Y-27200D03*
G54D34*
X38150Y-27200D03*
X37717Y-27200D03*
X37717Y-26767D03*
X38150Y-26767D03*
X38583Y-26767D03*
X38583Y-27200D03*
X38583Y-27633D03*
X38150Y-27633D03*
X37717Y-27633D03*
G54D42*
X37461Y-28165D03*
X37658Y-28165D03*
X37855Y-28165D03*
X38052Y-28165D03*
X38248Y-28165D03*
X38445Y-28165D03*
X38642Y-28165D03*
X38839Y-28165D03*
G54D40*
X39115Y-27889D03*
X39115Y-27692D03*
X39115Y-27495D03*
X39115Y-27298D03*
X39115Y-27102D03*
X39115Y-26905D03*
X39115Y-26708D03*
X39115Y-26511D03*
G54D42*
X38839Y-26235D03*
X38642Y-26235D03*
X38445Y-26235D03*
X38268Y-26235D03*
X38052Y-26235D03*
X37855Y-26235D03*
X37678Y-26235D03*
X37461Y-26235D03*
G54D43*
X45513Y-31206D03*
X45513Y-31403D03*
X45513Y-31600D03*
X45513Y-31797D03*
X45513Y-31994D03*
G54D44*
X45906Y-32387D03*
X46103Y-32387D03*
X46300Y-32387D03*
X46497Y-32387D03*
X46694Y-32387D03*
G54D43*
X47087Y-31994D03*
X47087Y-31797D03*
X47087Y-31600D03*
X47087Y-31403D03*
X47087Y-31206D03*
G54D44*
X46694Y-30813D03*
X46497Y-30813D03*
X46300Y-30813D03*
X46103Y-30813D03*
X45906Y-30813D03*
G54D45*
X46300Y-31600D03*
G54D34*
X46300Y-31600D03*
X46039Y-31339D03*
X46561Y-31339D03*
X46561Y-31861D03*
X46039Y-31861D03*
G54D46*
X75450Y-27051D03*
X75450Y-25949D03*
X75450Y-24051D03*
X75450Y-22949D03*
G54D16*
X73445Y-33659D03*
X73248Y-33659D03*
X73051Y-33659D03*
X72854Y-33659D03*
X72657Y-33659D03*
X72461Y-33659D03*
X72264Y-33659D03*
X72067Y-33659D03*
X71870Y-33659D03*
X71673Y-33659D03*
X71476Y-33659D03*
X71280Y-33659D03*
X71083Y-33659D03*
X70886Y-33659D03*
X70689Y-33659D03*
X70492Y-33659D03*
X70295Y-33659D03*
X70098Y-33659D03*
X69902Y-33659D03*
X69705Y-33659D03*
X69508Y-33659D03*
X69311Y-33659D03*
X69114Y-33659D03*
X68917Y-33659D03*
X68720Y-33659D03*
X68524Y-33659D03*
X68327Y-33659D03*
X68130Y-33659D03*
X67933Y-33659D03*
X67736Y-33659D03*
X67539Y-33659D03*
X67343Y-33659D03*
X67146Y-33659D03*
X66949Y-33659D03*
X66752Y-33659D03*
X66555Y-33659D03*
G54D17*
X65669Y-34545D03*
X65669Y-34742D03*
X65669Y-34939D03*
X65669Y-35136D03*
X65669Y-35333D03*
X65669Y-35529D03*
X65669Y-35726D03*
X65669Y-35923D03*
X65669Y-36120D03*
X65669Y-36317D03*
X65669Y-36514D03*
X65669Y-36710D03*
X65669Y-36907D03*
X65669Y-37104D03*
X65669Y-37301D03*
X65669Y-37498D03*
X65669Y-37695D03*
X65669Y-37892D03*
X65669Y-38088D03*
X65669Y-38285D03*
X65669Y-38482D03*
X65669Y-38679D03*
X65669Y-38876D03*
X65669Y-39073D03*
X65669Y-39270D03*
X65669Y-39466D03*
X65669Y-39663D03*
X65669Y-39860D03*
X65669Y-40057D03*
X65669Y-40254D03*
X65669Y-40451D03*
X65669Y-40647D03*
X65669Y-40844D03*
X65669Y-41041D03*
X65669Y-41238D03*
X65669Y-41435D03*
G54D16*
X66555Y-42321D03*
X66752Y-42321D03*
X66949Y-42321D03*
X67146Y-42321D03*
X67343Y-42321D03*
X67539Y-42321D03*
X67736Y-42321D03*
X67933Y-42321D03*
X68130Y-42321D03*
X68327Y-42321D03*
X68524Y-42321D03*
X68720Y-42321D03*
X68917Y-42321D03*
X69114Y-42321D03*
X69311Y-42321D03*
X69508Y-42321D03*
X69705Y-42321D03*
X69902Y-42321D03*
X70098Y-42321D03*
X70295Y-42321D03*
X70492Y-42321D03*
X70689Y-42321D03*
X70886Y-42321D03*
X71083Y-42321D03*
X71280Y-42321D03*
X71476Y-42321D03*
X71673Y-42321D03*
X71870Y-42321D03*
X72067Y-42321D03*
X72264Y-42321D03*
X72461Y-42321D03*
X72657Y-42321D03*
X72854Y-42321D03*
X73051Y-42321D03*
X73248Y-42321D03*
X73445Y-42321D03*
G54D17*
X74331Y-41435D03*
X74331Y-41238D03*
X74331Y-41041D03*
X74331Y-40844D03*
X74331Y-40647D03*
X74331Y-40451D03*
X74331Y-40254D03*
X74331Y-40057D03*
X74331Y-39860D03*
X74331Y-39663D03*
X74331Y-39466D03*
X74331Y-39270D03*
X74331Y-39073D03*
X74331Y-38876D03*
X74331Y-38679D03*
X74331Y-38482D03*
X74331Y-38285D03*
X74331Y-38088D03*
X74331Y-37892D03*
X74331Y-37695D03*
X74331Y-37498D03*
X74331Y-37301D03*
X74331Y-37104D03*
X74331Y-36907D03*
X74331Y-36710D03*
X74331Y-36514D03*
X74331Y-36317D03*
X74331Y-36120D03*
X74331Y-35923D03*
X74331Y-35726D03*
X74331Y-35529D03*
X74331Y-35333D03*
X74331Y-35136D03*
X74331Y-34939D03*
X74331Y-34742D03*
X74331Y-34545D03*
G54D47*
X37738Y-33196D03*
X37738Y-32704D03*
X37462Y-32704D03*
X37462Y-33196D03*
G54D48*
X35600Y-32765D03*
X35600Y-33435D03*
G54D49*
X35777Y-33100D03*
X35423Y-33100D03*
G54D50*
X59500Y-29000D03*
G54D51*
X60500Y-29000D03*
X59500Y-30000D03*
X60500Y-30000D03*
X59500Y-31000D03*
X60500Y-31000D03*
X59500Y-32000D03*
X60500Y-32000D03*
X59500Y-33000D03*
X60500Y-33000D03*
X59500Y-34000D03*
X60500Y-34000D03*
X59500Y-35000D03*
X60500Y-35000D03*
X59500Y-36000D03*
X60500Y-36000D03*
G54D50*
X66500Y-48500D03*
G54D51*
X66500Y-49500D03*
X65500Y-48500D03*
X65500Y-49500D03*
X64500Y-48500D03*
X64500Y-49500D03*
X63500Y-48500D03*
X63500Y-49500D03*
X62500Y-48500D03*
X62500Y-49500D03*
X61500Y-48500D03*
X61500Y-49500D03*
G54D50*
X78500Y-43500D03*
G54D51*
X77500Y-43500D03*
X78500Y-42500D03*
X77500Y-42500D03*
X78500Y-41500D03*
X77500Y-41500D03*
X78500Y-40500D03*
X77500Y-40500D03*
X78500Y-39500D03*
X77500Y-39500D03*
X78500Y-38500D03*
X77500Y-38500D03*
G54D50*
X78500Y-35500D03*
G54D51*
X77500Y-35500D03*
X78500Y-34500D03*
X77500Y-34500D03*
X78500Y-33500D03*
X77500Y-33500D03*
X78500Y-32500D03*
X77500Y-32500D03*
X78500Y-31500D03*
X77500Y-31500D03*
G54D50*
X50500Y-49500D03*
G54D51*
X50500Y-48500D03*
X51500Y-49500D03*
X51500Y-48500D03*
X52500Y-49500D03*
X52500Y-48500D03*
X53500Y-49500D03*
X53500Y-48500D03*
X54500Y-49500D03*
X54500Y-48500D03*
G54D50*
X76500Y-29000D03*
G54D51*
X76500Y-30000D03*
X75500Y-29000D03*
X75500Y-30000D03*
X74500Y-29000D03*
X74500Y-30000D03*
X73500Y-29000D03*
X73500Y-30000D03*
G54D50*
X78510Y-46500D03*
G54D51*
X78510Y-47500D03*
X77510Y-46500D03*
X77510Y-47500D03*
X76510Y-46500D03*
X76510Y-47500D03*
G54D50*
X69500Y-49500D03*
G54D51*
X70500Y-49500D03*
X71500Y-49500D03*
X72500Y-49500D03*
X73500Y-49500D03*
X74500Y-49500D03*
G54D50*
X47500Y-44500D03*
G54D51*
X47500Y-45500D03*
X47500Y-46500D03*
X47500Y-47500D03*
X47500Y-48500D03*
X47500Y-49500D03*
G54D50*
X63500Y-24000D03*
G54D51*
X64500Y-24000D03*
X65500Y-24000D03*
G54D50*
X63500Y-23000D03*
G54D51*
X64500Y-23000D03*
X65500Y-23000D03*
G54D50*
X63500Y-25000D03*
G54D51*
X64500Y-25000D03*
X65500Y-25000D03*
G54D50*
X63500Y-26000D03*
G54D51*
X64500Y-26000D03*
X65500Y-26000D03*
G54D50*
X67500Y-26000D03*
G54D51*
X67500Y-25000D03*
G54D52*
X29063Y-41900D03*
G54D53*
X29063Y-44459D03*
G54D54*
X25323Y-41900D03*
G54D55*
X27488Y-39538D03*
G54D56*
X29654Y-38554D03*
X25323Y-36585D03*
X29654Y-34617D03*
X25323Y-32648D03*
X29654Y-30680D03*
X25323Y-28711D03*
G54D55*
X27488Y-37569D03*
X27488Y-35601D03*
X27488Y-33632D03*
X27488Y-31664D03*
X27488Y-29695D03*
G54D57*
X51508Y-23028D03*
X51508Y-23225D03*
X51508Y-23422D03*
X51842Y-23422D03*
X51842Y-23225D03*
X51842Y-23028D03*
X50308Y-23028D03*
X50308Y-23225D03*
X50308Y-23422D03*
X50642Y-23422D03*
X50642Y-23225D03*
X50642Y-23028D03*
G54D58*
X72500Y-28700D03*
X71900Y-28700D03*
X67450Y-28700D03*
X66850Y-28700D03*
X72400Y-45050D03*
X72400Y-45650D03*
X70100Y-46000D03*
X69500Y-46000D03*
X70100Y-45200D03*
X69500Y-45200D03*
X74450Y-31600D03*
X74450Y-32200D03*
X76200Y-31600D03*
X76200Y-32200D03*
X37450Y-24900D03*
X38050Y-24900D03*
X35000Y-38000D03*
X34400Y-38000D03*
X57100Y-23000D03*
X56500Y-23000D03*
X39250Y-24900D03*
X38650Y-24900D03*
X56900Y-25400D03*
X56300Y-25400D03*
X36350Y-40850D03*
X36350Y-41450D03*
G54D59*
X62500Y-32190D03*
X62500Y-32610D03*
G54D60*
X72410Y-23500D03*
X71990Y-23500D03*
X72410Y-23100D03*
X71990Y-23100D03*
X77340Y-37100D03*
X77760Y-37100D03*
X74510Y-48250D03*
X74090Y-48250D03*
G54D59*
X71190Y-27240D03*
X71190Y-27660D03*
X71590Y-27660D03*
X71590Y-27240D03*
X70750Y-26460D03*
X70750Y-26040D03*
X70790Y-27660D03*
X70790Y-27240D03*
G54D60*
X75940Y-25000D03*
X76360Y-25000D03*
X35340Y-25500D03*
X35760Y-25500D03*
X72410Y-26000D03*
X71990Y-26000D03*
G54D59*
X54075Y-30215D03*
X54075Y-30635D03*
G54D60*
X37760Y-23650D03*
X37340Y-23650D03*
X35640Y-25050D03*
X36060Y-25050D03*
X40490Y-24300D03*
X40910Y-24300D03*
G54D59*
X38850Y-34960D03*
X38850Y-34540D03*
G54D60*
X36360Y-28600D03*
X35940Y-28600D03*
G54D59*
X34950Y-28560D03*
X34950Y-28140D03*
G54D60*
X35940Y-27700D03*
X36360Y-27700D03*
X36360Y-26500D03*
X35940Y-26500D03*
X62090Y-33550D03*
X62510Y-33550D03*
G54D59*
X63650Y-37960D03*
X63650Y-37540D03*
X55575Y-30215D03*
X55575Y-30635D03*
X55075Y-30215D03*
X55075Y-30635D03*
X54575Y-30215D03*
X54575Y-30635D03*
G54D60*
X57410Y-31500D03*
X56990Y-31500D03*
X57540Y-26500D03*
X57960Y-26500D03*
X34790Y-36050D03*
X35210Y-36050D03*
G54D59*
X54075Y-29015D03*
X54075Y-29435D03*
X54575Y-29015D03*
X54575Y-29435D03*
X55075Y-29015D03*
X55075Y-29435D03*
X55575Y-29015D03*
X55575Y-29435D03*
G54D60*
X57410Y-31100D03*
X56990Y-31100D03*
X57540Y-26100D03*
X57960Y-26100D03*
G54D59*
X53525Y-29015D03*
X53525Y-29435D03*
X53025Y-29015D03*
X53025Y-29435D03*
X52525Y-29015D03*
X52525Y-29435D03*
X52025Y-29015D03*
X52025Y-29435D03*
X38550Y-42810D03*
X38550Y-42390D03*
G54D60*
X48415Y-28225D03*
X48835Y-28225D03*
X48415Y-28625D03*
X48835Y-28625D03*
G54D59*
X47350Y-36940D03*
X47350Y-37360D03*
X46450Y-36940D03*
X46450Y-37360D03*
X36000Y-31990D03*
X36000Y-32410D03*
G54D60*
X37540Y-34500D03*
X37960Y-34500D03*
G54D59*
X37050Y-30640D03*
X37050Y-31060D03*
G54D60*
X42040Y-24100D03*
X42460Y-24100D03*
G54D59*
X41500Y-25590D03*
X41500Y-26010D03*
G54D60*
X35190Y-24200D03*
X35610Y-24200D03*
G54D59*
X36450Y-30440D03*
X36450Y-30860D03*
X40500Y-25190D03*
X40500Y-25610D03*
X36000Y-34010D03*
X36000Y-33590D03*
X37200Y-33590D03*
X37200Y-34010D03*
X40950Y-25190D03*
X40950Y-25610D03*
G54D60*
X35840Y-34900D03*
X36260Y-34900D03*
X35240Y-31500D03*
X35660Y-31500D03*
G54D59*
X37050Y-34940D03*
X37050Y-35360D03*
G54D60*
X45610Y-33300D03*
X45190Y-33300D03*
G54D59*
X44300Y-31640D03*
X44300Y-32060D03*
G54D60*
X59140Y-47600D03*
X59560Y-47600D03*
X59140Y-47200D03*
X59560Y-47200D03*
X38090Y-30650D03*
X38510Y-30650D03*
X40260Y-28200D03*
X39840Y-28200D03*
X40260Y-27000D03*
X39840Y-27000D03*
X40260Y-27400D03*
X39840Y-27400D03*
X35940Y-27300D03*
X36360Y-27300D03*
X35940Y-26900D03*
X36360Y-26900D03*
X43440Y-25300D03*
X43860Y-25300D03*
X44540Y-24700D03*
X44960Y-24700D03*
G54D59*
X42000Y-26960D03*
X42000Y-26540D03*
G54D60*
X59140Y-46800D03*
X59560Y-46800D03*
X37590Y-31500D03*
X38010Y-31500D03*
X36810Y-29100D03*
X36390Y-29100D03*
G54D59*
X35450Y-29010D03*
X35450Y-28590D03*
G54D60*
X35940Y-28100D03*
X36360Y-28100D03*
G54D59*
X35450Y-27690D03*
X35450Y-28110D03*
X43400Y-23490D03*
X43400Y-23910D03*
X37200Y-31990D03*
X37200Y-32410D03*
G54D60*
X62210Y-22800D03*
X61790Y-22800D03*
X67360Y-29200D03*
X66940Y-29200D03*
X72190Y-46150D03*
X72610Y-46150D03*
X75990Y-32700D03*
X76410Y-32700D03*
X74240Y-32700D03*
X74660Y-32700D03*
G54D59*
X70600Y-45090D03*
X70600Y-45510D03*
X70600Y-45890D03*
X70600Y-46310D03*
X69200Y-32040D03*
X69200Y-32460D03*
G54D60*
X61790Y-24300D03*
X62210Y-24300D03*
X72410Y-29250D03*
X71990Y-29250D03*
G54D59*
X63900Y-28160D03*
X63900Y-27740D03*
X70100Y-27110D03*
X70100Y-26690D03*
G54D60*
X66640Y-31200D03*
X67060Y-31200D03*
X65390Y-31000D03*
X65810Y-31000D03*
G54D59*
X70100Y-26260D03*
X70100Y-25840D03*
G54D60*
X70510Y-48250D03*
X70090Y-48250D03*
G54D59*
X69700Y-29090D03*
X69700Y-29510D03*
X69300Y-28640D03*
X69300Y-29060D03*
G54D60*
X59140Y-43600D03*
X59560Y-43600D03*
X59140Y-46400D03*
X59560Y-46400D03*
X59140Y-46000D03*
X59560Y-46000D03*
X61790Y-26300D03*
X62210Y-26300D03*
X59140Y-45600D03*
X59560Y-45600D03*
X59140Y-45200D03*
X59560Y-45200D03*
X59140Y-44800D03*
X59560Y-44800D03*
X59140Y-44400D03*
X59560Y-44400D03*
X59140Y-44000D03*
X59560Y-44000D03*
X72410Y-26400D03*
X71990Y-26400D03*
X61790Y-24800D03*
X62210Y-24800D03*
X59140Y-43200D03*
X59560Y-43200D03*
X59140Y-42800D03*
X59560Y-42800D03*
X59140Y-42400D03*
X59560Y-42400D03*
X59140Y-42000D03*
X59560Y-42000D03*
X59140Y-41600D03*
X59560Y-41600D03*
X46860Y-30050D03*
X46440Y-30050D03*
X52065Y-29825D03*
X52485Y-29825D03*
G54D59*
X50675Y-24215D03*
X50675Y-24635D03*
X49925Y-29435D03*
X49925Y-29015D03*
X52025Y-30635D03*
X52025Y-30215D03*
X52525Y-30635D03*
X52525Y-30215D03*
X53025Y-30635D03*
X53025Y-30215D03*
X53525Y-30635D03*
X53525Y-30215D03*
X50275Y-24215D03*
X50275Y-24635D03*
X49225Y-28215D03*
X49225Y-28635D03*
G54D60*
X45090Y-29900D03*
X45510Y-29900D03*
G54D59*
X48025Y-28215D03*
X48025Y-28635D03*
X47400Y-28690D03*
X47400Y-29110D03*
G54D60*
X46990Y-28050D03*
X47410Y-28050D03*
X48260Y-32300D03*
X47840Y-32300D03*
X47360Y-33100D03*
X46940Y-33100D03*
G54D59*
X51475Y-24215D03*
X51475Y-24635D03*
G54D60*
X48410Y-31100D03*
X47990Y-31100D03*
X49965Y-34200D03*
X50385Y-34200D03*
X49965Y-34600D03*
X50385Y-34600D03*
X72410Y-22700D03*
X71990Y-22700D03*
X65540Y-32850D03*
X65960Y-32850D03*
X64190Y-35350D03*
X64610Y-35350D03*
X64190Y-38900D03*
X64610Y-38900D03*
G54D59*
X64550Y-41140D03*
X64550Y-41560D03*
X67540Y-43830D03*
X67540Y-43410D03*
X70700Y-43810D03*
X70700Y-43390D03*
X73250Y-43810D03*
X73250Y-43390D03*
G54D60*
X75810Y-41050D03*
X75390Y-41050D03*
X75810Y-37900D03*
X75390Y-37900D03*
X75810Y-37100D03*
X75390Y-37100D03*
X75810Y-35950D03*
X75390Y-35950D03*
G54D59*
X49225Y-25515D03*
X49225Y-25935D03*
X53525Y-31665D03*
X53525Y-32085D03*
X53925Y-31665D03*
X53925Y-32085D03*
X52375Y-31665D03*
X52375Y-32085D03*
X52775Y-31665D03*
X52775Y-32085D03*
X51575Y-31665D03*
X51575Y-32085D03*
X51175Y-31665D03*
X51175Y-32085D03*
X53075Y-36885D03*
X53075Y-36465D03*
X53475Y-36885D03*
X53475Y-36465D03*
G54D60*
X55210Y-35050D03*
X54790Y-35050D03*
G54D59*
X54800Y-35910D03*
X54800Y-35490D03*
G54D60*
X55460Y-34000D03*
X55040Y-34000D03*
X55460Y-34400D03*
X55040Y-34400D03*
X55360Y-33150D03*
X54940Y-33150D03*
G54D59*
X52275Y-24615D03*
X52275Y-25035D03*
X51075Y-24615D03*
X51075Y-25035D03*
G54D60*
X75810Y-35150D03*
X75390Y-35150D03*
X48815Y-27025D03*
X49235Y-27025D03*
X48515Y-27425D03*
X48935Y-27425D03*
X48815Y-27825D03*
X49235Y-27825D03*
G54D59*
X50725Y-29435D03*
X50725Y-29015D03*
X50325Y-29435D03*
X50325Y-29015D03*
G54D60*
X53635Y-27725D03*
X53215Y-27725D03*
X53635Y-27325D03*
X53215Y-27325D03*
X53635Y-26375D03*
X53215Y-26375D03*
X55115Y-29825D03*
X55535Y-29825D03*
X54115Y-29825D03*
X54535Y-29825D03*
G54D59*
X55125Y-31665D03*
X55125Y-32085D03*
X54725Y-31665D03*
X54725Y-32085D03*
X51875Y-24215D03*
X51875Y-24635D03*
X54325Y-31665D03*
X54325Y-32085D03*
G54D60*
X53065Y-29825D03*
X53485Y-29825D03*
X33490Y-38000D03*
X33910Y-38000D03*
X38400Y-29130D03*
X38820Y-29130D03*
X33610Y-39150D03*
X33190Y-39150D03*
X33610Y-40000D03*
X33190Y-40000D03*
G54D59*
X34100Y-41510D03*
X34100Y-41090D03*
X34680Y-41880D03*
X34680Y-41460D03*
G54D60*
X35860Y-40800D03*
X35440Y-40800D03*
G54D59*
X35970Y-39130D03*
X35970Y-39550D03*
G54D60*
X35660Y-37400D03*
X35240Y-37400D03*
X37510Y-39100D03*
X37090Y-39100D03*
G54D59*
X34100Y-39440D03*
X34100Y-39860D03*
G54D60*
X37760Y-37350D03*
X37340Y-37350D03*
X33640Y-22550D03*
X34060Y-22550D03*
X37760Y-38200D03*
X37340Y-38200D03*
X37360Y-22950D03*
X36940Y-22950D03*
G54D59*
X34050Y-35640D03*
X34050Y-36060D03*
G54D60*
X38890Y-48650D03*
X39310Y-48650D03*
X35860Y-23150D03*
X35440Y-23150D03*
X35910Y-38000D03*
X35490Y-38000D03*
X37760Y-24050D03*
X37340Y-24050D03*
X48110Y-22100D03*
X47690Y-22100D03*
X35740Y-22550D03*
X36160Y-22550D03*
X37600Y-29130D03*
X38020Y-29130D03*
G54D59*
X36500Y-24940D03*
X36500Y-25360D03*
G54D60*
X36290Y-37250D03*
X36710Y-37250D03*
G54D59*
X34500Y-32740D03*
X34500Y-33160D03*
X36950Y-25360D03*
X36950Y-24940D03*
X39750Y-24440D03*
X39750Y-24860D03*
G54D60*
X34560Y-34750D03*
X34140Y-34750D03*
X37340Y-36900D03*
X37760Y-36900D03*
X34560Y-34050D03*
X34140Y-34050D03*
G54D59*
X35200Y-26960D03*
X35200Y-26540D03*
G54D60*
X71860Y-30950D03*
X71440Y-30950D03*
X73560Y-32600D03*
X73140Y-32600D03*
G54D59*
X68750Y-32040D03*
X68750Y-32460D03*
X70350Y-32090D03*
X70350Y-32510D03*
G54D60*
X80790Y-43600D03*
X81210Y-43600D03*
G54D59*
X72450Y-24740D03*
X72450Y-25160D03*
X58300Y-43160D03*
X58300Y-42740D03*
X58400Y-39890D03*
X58400Y-40310D03*
X55600Y-37790D03*
X55600Y-38210D03*
X50200Y-38890D03*
X50200Y-39310D03*
X52700Y-47210D03*
X52700Y-46790D03*
G54D60*
X48990Y-42500D03*
X49410Y-42500D03*
G54D59*
X51300Y-47210D03*
X51300Y-46790D03*
X70400Y-30460D03*
X70400Y-30040D03*
X70800Y-30040D03*
X70800Y-30460D03*
X72550Y-31940D03*
X72550Y-32360D03*
G54D60*
X35190Y-25950D03*
X35610Y-25950D03*
X56960Y-24900D03*
X56540Y-24900D03*
X35440Y-41500D03*
X35860Y-41500D03*
X38510Y-41650D03*
X38090Y-41650D03*
X36310Y-42000D03*
X35890Y-42000D03*
X33910Y-37550D03*
X33490Y-37550D03*
X34110Y-42550D03*
X33690Y-42550D03*
X42890Y-48650D03*
X43310Y-48650D03*
X40260Y-27800D03*
X39840Y-27800D03*
G54D59*
X39950Y-25990D03*
X39950Y-26410D03*
G54D60*
X38560Y-25400D03*
X38140Y-25400D03*
X51465Y-23825D03*
X51885Y-23825D03*
X51465Y-25025D03*
X51885Y-25025D03*
X50265Y-23825D03*
X50685Y-23825D03*
X50265Y-25025D03*
X50685Y-25025D03*
G54D61*
X43500Y-36500D03*
X42500Y-37500D03*
X44500Y-37500D03*
X44500Y-35500D03*
X42500Y-35500D03*
X35000Y-44500D03*
X36000Y-43500D03*
X34000Y-43500D03*
X34000Y-45500D03*
X36000Y-45500D03*
X43500Y-42500D03*
X42500Y-43500D03*
X44500Y-43500D03*
X44500Y-41500D03*
X42500Y-41500D03*
G54D60*
X34110Y-41900D03*
X33690Y-41900D03*
G54D62*
X33900Y-41900D03*
G54D60*
X48140Y-33100D03*
X48560Y-33100D03*
X47990Y-32700D03*
X48410Y-32700D03*
G54D63*
X48200Y-32700D03*
G54D59*
X47200Y-33490D03*
X47200Y-33910D03*
X46800Y-33490D03*
X46800Y-33910D03*
G54D64*
X46800Y-33700D03*
G54D59*
X46050Y-29460D03*
X46050Y-29040D03*
X46450Y-29660D03*
X46450Y-29240D03*
G54D64*
X46450Y-29450D03*
G54D60*
X47990Y-30300D03*
X48410Y-30300D03*
X47990Y-30700D03*
X48410Y-30700D03*
G54D63*
X48200Y-30700D03*
G54D59*
X49450Y-35140D03*
X49450Y-35560D03*
X49850Y-35140D03*
X49850Y-35560D03*
G54D64*
X49850Y-35350D03*
G54D60*
X50860Y-46300D03*
X50440Y-46300D03*
G54D63*
X50650Y-46300D03*
G54D60*
X50440Y-46750D03*
X50860Y-46750D03*
G54D59*
X43450Y-25690D03*
X43450Y-26110D03*
G54D64*
X43450Y-25900D03*
G54D60*
X58610Y-23300D03*
X58190Y-23300D03*
X61790Y-25300D03*
X62210Y-25300D03*
X61790Y-23300D03*
X62210Y-23300D03*
X61790Y-23800D03*
X62210Y-23800D03*
X61790Y-25800D03*
X62210Y-25800D03*
G54D59*
X43500Y-39990D03*
X43500Y-40410D03*
G54D60*
X42640Y-39500D03*
X43060Y-39500D03*
G54D59*
X45650Y-35960D03*
X45650Y-35540D03*
X42200Y-39510D03*
X42200Y-39090D03*
X43500Y-39090D03*
X43500Y-39510D03*
X41750Y-39960D03*
X41750Y-39540D03*
X45650Y-34590D03*
X45650Y-35010D03*
G54D50*
X54500Y-24000D03*
G54D51*
X54500Y-23000D03*
G54D65*
X54500Y-23500D03*
G54D50*
X77500Y-24000D03*
G54D51*
X77500Y-23000D03*
G54D65*
X77500Y-23500D03*
G54D50*
X77500Y-27000D03*
G54D51*
X77500Y-26000D03*
G54D65*
X77500Y-26500D03*
G54D50*
X42500Y-33500D03*
G54D51*
X43500Y-33500D03*
G54D66*
X43000Y-33500D03*
G54D67*
X43098Y-24489D03*
G54D68*
X42823Y-24700D03*
G54D67*
X42902Y-24911D03*
X43098Y-24911D03*
G54D68*
X43177Y-24700D03*
G54D67*
X42902Y-24489D03*
X41402Y-24911D03*
G54D68*
X41677Y-24700D03*
G54D67*
X41598Y-24489D03*
X41402Y-24489D03*
G54D68*
X41323Y-24700D03*
G54D67*
X41598Y-24911D03*
X36448Y-23439D03*
G54D68*
X36173Y-23650D03*
G54D67*
X36252Y-23861D03*
X36448Y-23861D03*
G54D68*
X36527Y-23650D03*
G54D67*
X36252Y-23439D03*
G54D69*
X34689Y-22552D03*
G54D70*
X34900Y-22827D03*
G54D69*
X35111Y-22748D03*
X35111Y-22552D03*
G54D70*
X34900Y-22473D03*
G54D69*
X34689Y-22748D03*
X37761Y-30198D03*
G54D70*
X37550Y-29923D03*
G54D69*
X37339Y-30002D03*
X37339Y-30198D03*
G54D70*
X37550Y-30277D03*
G54D69*
X37761Y-30002D03*
X36389Y-31502D03*
G54D70*
X36600Y-31777D03*
G54D69*
X36811Y-31698D03*
X36811Y-31502D03*
G54D70*
X36600Y-31423D03*
G54D69*
X36389Y-31698D03*
X36811Y-34498D03*
G54D70*
X36600Y-34223D03*
G54D69*
X36389Y-34302D03*
X36389Y-34498D03*
G54D70*
X36600Y-34577D03*
G54D69*
X36811Y-34302D03*
G54D71*
X26075Y-23075D03*
X80925Y-23075D03*
X80925Y-48925D03*
X26075Y-48925D03*
G54D72*
X38155Y-23840D03*
X38155Y-24100D03*
X38155Y-24360D03*
X38545Y-24360D03*
X38545Y-24100D03*
X38545Y-23840D03*
G54D73*
X40910Y-26005D03*
X40650Y-26005D03*
X40390Y-26005D03*
X40390Y-26395D03*
X40650Y-26395D03*
X40910Y-26395D03*
G54D11*
X50700Y-30350D03*
X48775Y-26425D03*
X43800Y-31800D03*
X46450Y-36150D03*
X47350Y-36150D03*
X69700Y-43050D03*
X72700Y-44000D03*
X72700Y-43300D03*
X73800Y-43300D03*
X75900Y-39450D03*
X76750Y-37100D03*
G54D42*
X53658Y-32917D03*
X53461Y-32917D03*
X53264Y-32917D03*
X53067Y-32917D03*
X52870Y-32917D03*
X52673Y-32917D03*
X52477Y-32917D03*
X52280Y-32917D03*
X52083Y-32917D03*
X51886Y-32917D03*
X51689Y-32917D03*
X51492Y-32917D03*
G54D40*
X51217Y-33192D03*
X51217Y-33389D03*
X51217Y-33586D03*
X51217Y-33783D03*
X51217Y-33980D03*
X51217Y-34177D03*
X51217Y-34373D03*
X51217Y-34570D03*
X51217Y-34767D03*
X51217Y-34964D03*
X51217Y-35161D03*
X51217Y-35358D03*
G54D42*
X51492Y-35633D03*
X51689Y-35633D03*
X51886Y-35633D03*
X52083Y-35633D03*
X52280Y-35633D03*
X52477Y-35633D03*
X52673Y-35633D03*
X52870Y-35633D03*
X53067Y-35633D03*
X53264Y-35633D03*
X53461Y-35633D03*
X53658Y-35633D03*
G54D40*
X53933Y-35358D03*
X53933Y-35161D03*
X53933Y-34964D03*
X53933Y-34767D03*
X53933Y-34570D03*
X53933Y-34373D03*
X53933Y-34177D03*
X53933Y-33980D03*
X53933Y-33783D03*
X53933Y-33586D03*
X53933Y-33389D03*
X53933Y-33192D03*
G54D74*
X52575Y-34275D03*
G54D39*
X52575Y-34275D03*
X52575Y-33625D03*
X53225Y-33625D03*
X53225Y-34275D03*
X53225Y-34925D03*
X52575Y-34925D03*
X51925Y-34925D03*
X51925Y-34275D03*
X51925Y-33625D03*
G54D75*
X63000Y-29900D03*
G54D76*
X63000Y-29400D03*
X63500Y-29900D03*
X63500Y-29400D03*
X64000Y-29900D03*
X64000Y-29400D03*
X64500Y-29900D03*
X64500Y-29400D03*
X65000Y-29900D03*
X65000Y-29400D03*
G54D77*
X74150Y-26300D03*
X73350Y-26300D03*
X74150Y-27150D03*
X73350Y-27150D03*
X73350Y-22850D03*
X74150Y-22850D03*
X73350Y-23700D03*
X74150Y-23700D03*
X55800Y-22200D03*
X56600Y-22200D03*
G54D78*
X55800Y-23800D03*
X55800Y-23000D03*
G54D11*
X57050Y-26850D03*
X57050Y-29150D03*
X67500Y-31200D03*
X67500Y-31900D03*
X52050Y-38050D03*
G54D78*
X71800Y-24550D03*
X71800Y-25350D03*
X70950Y-25350D03*
X70950Y-24550D03*
G54D79*
X70024Y-24566D03*
X69650Y-24566D03*
X69276Y-24566D03*
X69276Y-25334D03*
X69650Y-25334D03*
X70024Y-25334D03*
G54D80*
X37695Y-40260D03*
X37695Y-40000D03*
X37695Y-39740D03*
X36905Y-39740D03*
X36905Y-40000D03*
X36905Y-40260D03*
X34205Y-38540D03*
X34205Y-38800D03*
X34205Y-39060D03*
X34995Y-39060D03*
X34995Y-38800D03*
X34995Y-38540D03*
G54D81*
X73159Y-24606D03*
X73159Y-24803D03*
X73159Y-25000D03*
X73159Y-25197D03*
X73159Y-25394D03*
X74341Y-25394D03*
X74341Y-25197D03*
X74341Y-25000D03*
X74341Y-24803D03*
X74341Y-24606D03*
G54D82*
X73912Y-25236D03*
X73912Y-24764D03*
X73588Y-24764D03*
X73588Y-25236D03*
G54D83*
X73848Y-24390D03*
X73652Y-24390D03*
X73652Y-25610D03*
X73848Y-25610D03*
G54D84*
X73750Y-25000D03*
X73947Y-24705D03*
X73553Y-24705D03*
X73553Y-25295D03*
X73947Y-25295D03*
G54D59*
X46400Y-33260D03*
X46400Y-33680D03*
G54D76*
X52800Y-46400D03*
X45650Y-29000D03*
X48800Y-30200D03*
X47300Y-34310D03*
G54D85*
X49470Y-36330D03*
G54D76*
X48450Y-33500D03*
X50200Y-39880D03*
X50450Y-47150D03*
G54D86*
X53850Y-36180D03*
X56460Y-33110D03*
X56460Y-33550D03*
X54060Y-35880D03*
G54D76*
X47400Y-32300D03*
X47650Y-31150D03*
G54D86*
X38930Y-47230D03*
X38850Y-47960D03*
X44950Y-47000D03*
X45670Y-47790D03*
X39020Y-22820D03*
X44680Y-26560D03*
X36620Y-35260D03*
X35420Y-22550D03*
X40250Y-35260D03*
X34900Y-34400D03*
X45310Y-47400D03*
X43100Y-24150D03*
X42340Y-23280D03*
X34780Y-35640D03*
X37330Y-28590D03*
X40410Y-42350D03*
X38600Y-28630D03*
X41450Y-31410D03*
X38150Y-42350D03*
X35010Y-39720D03*
X36370Y-39100D03*
X39010Y-28610D03*
X46030Y-47120D03*
X41710Y-31150D03*
X33650Y-40400D03*
X37340Y-37710D03*
X40570Y-35690D03*
X45330Y-47030D03*
X38970Y-25670D03*
X43130Y-26360D03*
X36000Y-31500D03*
X40740Y-34770D03*
X36050Y-34550D03*
X36810Y-26610D03*
X40600Y-44770D03*
X42870Y-47040D03*
X34750Y-30250D03*
X40970Y-44750D03*
X43390Y-46520D03*
X37200Y-34500D03*
X40730Y-34350D03*
X37250Y-31500D03*
X34350Y-22550D03*
X40580Y-48550D03*
X43098Y-25298D03*
X39590Y-23020D03*
X41600Y-47570D03*
X42200Y-23670D03*
X40390Y-31410D03*
X43870Y-26410D03*
X41410Y-25250D03*
X40230Y-23850D03*
X38100Y-30350D03*
X35660Y-37040D03*
X38550Y-47360D03*
X33650Y-39550D03*
X34550Y-39500D03*
X36280Y-35280D03*
X39400Y-35520D03*
X34900Y-34750D03*
X41280Y-47760D03*
X38560Y-48220D03*
X42000Y-47190D03*
X36450Y-24300D03*
X40750Y-31420D03*
X41260Y-24230D03*
X40160Y-45620D03*
X39000Y-46870D03*
X39270Y-23190D03*
X44130Y-26170D03*
X39260Y-25930D03*
X42370Y-47570D03*
X36810Y-30200D03*
X36690Y-39250D03*
X34740Y-41100D03*
X37340Y-38560D03*
X39670Y-45890D03*
X39240Y-36530D03*
X36800Y-36850D03*
X41100Y-46180D03*
X39220Y-45050D03*
X62700Y-46100D03*
X62060Y-45810D03*
X57690Y-43610D03*
X62330Y-45130D03*
X61710Y-46540D03*
X72250Y-29600D03*
X71740Y-41300D03*
X75500Y-24750D03*
X73110Y-35040D03*
X73430Y-35210D03*
X73720Y-36910D03*
X75610Y-36730D03*
X72830Y-35860D03*
X72990Y-35540D03*
X75270Y-40640D03*
X74930Y-40070D03*
X74880Y-40430D03*
G54D76*
X76000Y-33150D03*
X72250Y-33000D03*
G54D86*
X61140Y-35260D03*
X63630Y-35750D03*
X61210Y-35700D03*
X63660Y-36110D03*
X61310Y-36060D03*
X66210Y-35570D03*
X61560Y-36350D03*
X66610Y-35640D03*
X65330Y-34130D03*
X73740Y-37710D03*
X64320Y-32500D03*
X72560Y-37690D03*
X67610Y-38790D03*
X66370Y-36240D03*
X66660Y-37010D03*
X66960Y-37490D03*
X67440Y-37760D03*
X67290Y-38100D03*
X67710Y-38440D03*
X66650Y-36620D03*
X67190Y-37210D03*
X62720Y-34080D03*
X64580Y-33700D03*
X62280Y-34350D03*
X64580Y-34080D03*
G54D85*
X79830Y-40270D03*
X80690Y-40200D03*
X76450Y-40350D03*
X76450Y-39200D03*
X76450Y-39900D03*
X63910Y-28530D03*
X64500Y-28250D03*
G54D86*
X68240Y-42920D03*
X67280Y-44690D03*
G54D76*
X49800Y-42500D03*
X51400Y-46300D03*
G54D86*
X71380Y-28550D03*
X71830Y-42950D03*
X54320Y-35640D03*
X56340Y-36940D03*
X57340Y-36940D03*
X64180Y-39980D03*
X51180Y-30230D03*
X65020Y-40750D03*
X47650Y-31600D03*
X52750Y-32450D03*
X51800Y-38500D03*
X50200Y-40360D03*
X47650Y-31950D03*
G54D76*
X68750Y-31650D03*
X51020Y-32840D03*
X61400Y-23300D03*
X38010Y-31900D03*
G54D86*
X35600Y-33100D03*
G54D76*
X76750Y-25000D03*
G54D87*
X53985Y-27515D03*
G54D76*
X71000Y-46100D03*
X76200Y-41050D03*
X37950Y-34850D03*
X33500Y-37200D03*
G54D87*
X40650Y-26900D03*
G54D85*
X35100Y-27300D03*
G54D86*
X53025Y-30975D03*
G54D76*
X52700Y-47600D03*
X42000Y-24700D03*
X35940Y-38470D03*
X74040Y-31190D03*
G54D87*
X40650Y-27950D03*
G54D76*
X50795Y-31665D03*
X41450Y-26400D03*
X38100Y-40130D03*
G54D85*
X35630Y-27300D03*
G54D76*
X40050Y-28600D03*
X33700Y-35650D03*
X72800Y-45050D03*
X46950Y-29650D03*
X69250Y-31650D03*
X35800Y-23650D03*
X73350Y-27650D03*
X74960Y-41560D03*
X45090Y-29500D03*
X70350Y-31690D03*
X38900Y-41650D03*
X42890Y-49050D03*
X47690Y-33200D03*
X41750Y-40350D03*
X73550Y-32200D03*
X51300Y-47600D03*
X63800Y-35350D03*
X36600Y-33850D03*
X52430Y-39990D03*
G54D87*
X71350Y-32850D03*
G54D85*
X52685Y-31375D03*
G54D76*
X35250Y-31900D03*
X66310Y-35140D03*
G54D86*
X54075Y-28675D03*
G54D76*
X48650Y-32200D03*
X56150Y-24900D03*
G54D85*
X35300Y-25050D03*
G54D76*
X40490Y-24680D03*
G54D85*
X35630Y-26500D03*
G54D76*
X57500Y-39850D03*
X76200Y-37900D03*
X69650Y-24150D03*
X36980Y-24100D03*
X69900Y-34300D03*
X65550Y-33250D03*
X53635Y-25975D03*
X55180Y-45010D03*
G54D86*
X35150Y-33100D03*
G54D76*
X44260Y-25300D03*
X49525Y-29435D03*
X36560Y-22550D03*
X33640Y-22950D03*
X42500Y-24700D03*
G54D86*
X52025Y-30975D03*
G54D76*
X49580Y-34160D03*
G54D87*
X36450Y-25700D03*
G54D76*
X53860Y-36890D03*
X38100Y-33200D03*
X67540Y-44230D03*
X51460Y-41280D03*
X73350Y-22350D03*
X68800Y-23950D03*
X54450Y-36150D03*
X53130Y-37260D03*
X49225Y-25125D03*
X72500Y-31100D03*
G54D87*
X55750Y-33750D03*
G54D76*
X48125Y-27425D03*
G54D87*
X57400Y-30800D03*
G54D76*
X51075Y-24225D03*
X34900Y-23200D03*
X72950Y-31900D03*
X76200Y-35150D03*
X40280Y-46320D03*
X74900Y-25000D03*
X38890Y-49050D03*
X36850Y-28700D03*
X64550Y-40800D03*
X55600Y-35100D03*
X33070Y-44460D03*
X37750Y-22950D03*
X55950Y-37790D03*
G54D85*
X70790Y-28050D03*
G54D87*
X35650Y-34600D03*
G54D76*
X34160Y-40500D03*
X45250Y-34600D03*
G54D87*
X35140Y-41500D03*
X48425Y-27825D03*
G54D76*
X55200Y-32800D03*
X33750Y-34750D03*
X49935Y-23225D03*
G54D87*
X73750Y-36320D03*
G54D76*
X71200Y-30040D03*
X43940Y-29720D03*
G54D86*
X55075Y-28675D03*
G54D76*
X38150Y-38200D03*
X43000Y-23500D03*
G54D85*
X53525Y-31375D03*
G54D76*
X40100Y-25190D03*
X73250Y-44200D03*
X35850Y-29050D03*
X76200Y-35950D03*
X72770Y-34260D03*
X35230Y-37040D03*
X61400Y-26300D03*
X50225Y-29835D03*
X67900Y-29100D03*
X58600Y-22900D03*
X67000Y-43190D03*
X72900Y-26500D03*
X76200Y-31100D03*
X80400Y-43600D03*
X61400Y-25300D03*
X69100Y-34300D03*
X57150Y-26100D03*
X33290Y-42550D03*
G54D85*
X35630Y-26900D03*
G54D76*
X63800Y-38900D03*
G54D85*
X71600Y-23500D03*
G54D87*
X55750Y-34300D03*
G54D86*
X55575Y-28675D03*
G54D76*
X53635Y-28125D03*
X44300Y-46320D03*
G54D85*
X52325Y-31415D03*
G54D86*
X70100Y-27500D03*
G54D85*
X54725Y-31375D03*
G54D76*
X45000Y-30900D03*
G54D87*
X34680Y-42180D03*
G54D76*
X40650Y-27400D03*
X71850Y-30550D03*
X35970Y-36150D03*
X70700Y-44200D03*
X48500Y-31450D03*
X71000Y-45300D03*
G54D85*
X72450Y-24400D03*
G54D76*
X39750Y-24050D03*
X36070Y-30860D03*
G54D87*
X51145Y-23445D03*
G54D76*
X49580Y-34640D03*
X33190Y-39620D03*
G54D85*
X54325Y-31375D03*
G54D76*
X76200Y-37100D03*
G54D85*
X53925Y-31375D03*
G54D86*
X36050Y-33100D03*
G54D76*
X38050Y-28700D03*
X52275Y-24225D03*
G54D86*
X53525Y-30975D03*
G54D76*
X38890Y-30650D03*
G54D85*
X34850Y-25950D03*
G54D87*
X48415Y-27045D03*
G54D85*
X35000Y-25500D03*
G54D76*
X49000Y-42100D03*
G54D87*
X51005Y-23005D03*
G54D76*
X58400Y-39500D03*
X55800Y-24400D03*
X43500Y-38700D03*
G54D85*
X55125Y-31375D03*
G54D76*
X46600Y-28050D03*
X79330Y-39490D03*
X37200Y-29130D03*
X33150Y-38000D03*
G54D86*
X52525Y-30975D03*
G54D76*
X35400Y-38930D03*
X50600Y-38900D03*
X38100Y-32700D03*
X37760Y-37710D03*
X38150Y-36900D03*
X33750Y-34050D03*
G54D87*
X35890Y-42320D03*
G54D76*
X33190Y-38790D03*
G54D86*
X54575Y-28675D03*
G54D76*
X33800Y-38670D03*
X51505Y-31265D03*
X62500Y-33000D03*
G54D87*
X50725Y-29835D03*
G54D76*
X36510Y-39870D03*
X72900Y-23500D03*
X37000Y-25700D03*
X52215Y-23225D03*
X36600Y-32150D03*
X57900Y-43200D03*
X53810Y-45010D03*
G54D85*
X71600Y-26000D03*
G54D76*
X37550Y-29550D03*
X71800Y-24000D03*
X57400Y-24900D03*
X61400Y-24300D03*
G54D86*
X51620Y-29390D03*
X70400Y-29650D03*
X36100Y-25500D03*
X61800Y-37050D03*
X63630Y-38280D03*
X60080Y-26420D03*
X37430Y-25680D03*
X64420Y-38540D03*
X60220Y-26080D03*
X37750Y-25420D03*
X36090Y-24630D03*
X62120Y-36860D03*
X68480Y-40710D03*
X44780Y-26900D03*
X36000Y-25950D03*
X67390Y-49290D03*
X67970Y-41810D03*
X44620Y-27220D03*
X67660Y-49530D03*
X34850Y-26330D03*
X46000Y-30000D03*
X39880Y-29130D03*
X71590Y-26500D03*
X75050Y-25450D03*
X71190Y-26830D03*
X72270Y-24000D03*
G54D85*
X69490Y-27840D03*
X68750Y-28710D03*
G54D86*
X64010Y-32720D03*
X60650Y-26060D03*
X64940Y-34130D03*
X59030Y-24610D03*
X70210Y-28110D03*
X51670Y-28620D03*
X68460Y-35140D03*
X56960Y-30050D03*
X68220Y-41230D03*
X44700Y-32300D03*
X46450Y-36600D03*
X67940Y-40990D03*
X47350Y-36600D03*
X45050Y-32350D03*
X60320Y-46400D03*
X46350Y-34060D03*
X51180Y-29850D03*
X65060Y-36190D03*
X57760Y-31520D03*
X57550Y-29130D03*
X51670Y-29010D03*
X63630Y-36820D03*
X49575Y-26375D03*
X67930Y-39250D03*
X62020Y-26880D03*
X57520Y-26850D03*
X64030Y-31800D03*
X56630Y-30180D03*
X68040Y-35150D03*
X52895Y-26425D03*
G54D76*
X37450Y-24500D03*
X51525Y-32465D03*
X54500Y-34300D03*
X39570Y-27010D03*
X39250Y-25300D03*
X38150Y-42800D03*
G54D86*
X52825Y-27335D03*
G54D87*
X52275Y-32475D03*
G54D76*
X51075Y-25405D03*
X52275Y-25415D03*
X53140Y-36100D03*
X35250Y-36400D03*
G54D85*
X52945Y-27695D03*
X49565Y-27045D03*
G54D87*
X36640Y-27250D03*
G54D76*
X54570Y-33380D03*
X49625Y-25925D03*
G54D85*
X53525Y-32475D03*
G54D87*
X50615Y-28785D03*
G54D76*
X37600Y-41150D03*
X33610Y-36600D03*
G54D85*
X49625Y-27585D03*
G54D76*
X54400Y-35100D03*
X73250Y-43000D03*
X56300Y-25800D03*
X67350Y-29600D03*
X75000Y-35150D03*
X81250Y-43200D03*
X48800Y-30750D03*
X46730Y-34310D03*
X65000Y-41250D03*
X58050Y-40400D03*
X55600Y-38600D03*
X39550Y-27800D03*
X65030Y-35270D03*
X46500Y-28850D03*
X66350Y-33100D03*
X64990Y-31000D03*
X50450Y-45900D03*
X69700Y-48250D03*
X65000Y-38900D03*
X64050Y-37540D03*
X57200Y-22200D03*
X45660Y-30400D03*
X57850Y-42700D03*
X47350Y-37750D03*
G54D85*
X49275Y-27415D03*
X49820Y-35960D03*
G54D76*
X67540Y-43020D03*
G54D87*
X44300Y-32400D03*
G54D76*
X46450Y-37750D03*
X48800Y-32700D03*
X73700Y-48250D03*
X70700Y-43000D03*
X75000Y-41050D03*
X75000Y-37900D03*
X39710Y-48650D03*
X75000Y-35950D03*
X43710Y-48650D03*
G54D85*
X72560Y-25570D03*
G54D76*
X70378Y-32904D03*
X78150Y-37100D03*
G54D85*
X71190Y-28050D03*
G54D76*
X72810Y-32920D03*
X68750Y-32850D03*
X75000Y-37100D03*
X66640Y-30840D03*
X62900Y-33550D03*
X42200Y-38750D03*
X63500Y-27740D03*
X48340Y-29160D03*
G54D87*
X44850Y-33300D03*
G54D86*
X67610Y-35160D03*
X49975Y-28485D03*
X62500Y-31850D03*
G54D88*
X46050Y-29040D02*
X45690Y-29040D01*
G54D89*
X52819Y-46381D02*
X52819Y-45650D01*
G54D88*
X48700Y-30300D02*
X48800Y-30200D01*
X48700Y-30300D02*
X48410Y-30300D01*
X52700Y-46790D02*
X52700Y-46500D01*
X48560Y-33390D02*
X48450Y-33500D01*
X45690Y-29040D02*
X45650Y-29000D01*
G54D90*
X50438Y-40138D02*
X50200Y-39880D01*
X50438Y-40138D02*
X50850Y-40138D01*
G54D88*
X47200Y-34240D02*
X47200Y-33910D01*
X49450Y-35560D02*
X49450Y-36310D01*
X50440Y-47140D02*
X50440Y-46750D01*
X47200Y-34240D02*
X47300Y-34310D01*
G54D89*
X52819Y-46381D02*
X52800Y-46400D01*
G54D88*
X50200Y-39310D02*
X50200Y-39880D01*
X50440Y-47140D02*
X50450Y-47150D01*
X49450Y-36310D02*
X49470Y-36330D01*
X52700Y-46500D02*
X52800Y-46400D01*
X48560Y-33390D02*
X48560Y-33100D01*
G54D91*
X46497Y-32387D02*
X46497Y-33163D01*
X46497Y-33163D02*
X46400Y-33260D01*
G54D89*
X46300Y-32387D02*
X46300Y-32910D01*
X45710Y-35010D02*
X45650Y-35010D01*
X45910Y-34810D02*
X45710Y-35010D01*
X45910Y-33300D02*
X45910Y-34810D01*
X46300Y-32910D02*
X45910Y-33300D01*
X45650Y-35010D02*
X45650Y-35540D01*
G54D91*
X46497Y-30653D02*
X46497Y-30813D01*
X46650Y-30500D02*
X47000Y-30500D01*
X47400Y-29110D02*
X47400Y-30100D01*
X46497Y-30653D02*
X46650Y-30500D01*
X47400Y-30100D02*
X47000Y-30500D01*
G54D89*
X42200Y-39510D02*
X41780Y-39510D01*
X41780Y-39510D02*
X41750Y-39540D01*
X42200Y-39510D02*
X42630Y-39510D01*
X42630Y-39510D02*
X42640Y-39500D01*
X43500Y-33500D02*
X43500Y-34000D01*
X41750Y-34900D02*
X41750Y-39540D01*
X42050Y-34600D02*
X41750Y-34900D01*
X45906Y-32387D02*
X45906Y-32544D01*
X44750Y-32850D02*
X44150Y-32850D01*
X42900Y-34600D02*
X42050Y-34600D01*
X43500Y-34000D02*
X42900Y-34600D01*
X45906Y-32544D02*
X45600Y-32850D01*
X44150Y-32850D02*
X43500Y-33500D01*
X45600Y-32850D02*
X44750Y-32850D01*
X53933Y-33389D02*
X54101Y-33389D01*
X55125Y-32365D02*
X55125Y-32085D01*
X54101Y-33389D02*
X55125Y-32365D01*
G54D92*
X49856Y-27734D02*
X49375Y-28215D01*
G54D89*
X48845Y-28215D02*
X48835Y-28225D01*
G54D92*
X50044Y-27734D02*
X49856Y-27734D01*
X49375Y-28215D02*
X49225Y-28215D01*
G54D89*
X49225Y-28215D02*
X48845Y-28215D01*
G54D92*
X49919Y-27891D02*
X49775Y-28035D01*
X49775Y-28155D02*
X49295Y-28635D01*
G54D89*
X49215Y-28625D02*
X49225Y-28635D01*
G54D92*
X50044Y-27891D02*
X49919Y-27891D01*
G54D89*
X48835Y-28625D02*
X49215Y-28625D01*
G54D92*
X49295Y-28635D02*
X49225Y-28635D01*
X49775Y-28035D02*
X49775Y-28155D01*
G54D93*
X53264Y-35784D02*
X53660Y-36180D01*
X56560Y-33010D02*
X56560Y-32890D01*
X56990Y-31500D02*
X56990Y-31100D01*
X56990Y-31500D02*
X56990Y-32460D01*
X56990Y-32460D02*
X56560Y-32890D01*
X53660Y-36180D02*
X53850Y-36180D01*
X56460Y-33110D02*
X56560Y-33010D01*
X53264Y-35784D02*
X53264Y-35633D01*
X53525Y-30215D02*
X53525Y-29865D01*
X53485Y-30215D02*
X53275Y-30425D01*
X53525Y-29785D02*
X53485Y-29825D01*
X53264Y-30436D02*
X53275Y-30425D01*
X53264Y-32917D02*
X53264Y-30436D01*
X53485Y-30215D02*
X53525Y-30215D01*
X53525Y-29435D02*
X53525Y-29785D01*
X53525Y-29865D02*
X53485Y-29825D01*
X53025Y-29865D02*
X53065Y-29825D01*
X53025Y-29435D02*
X53025Y-29785D01*
X53067Y-31377D02*
X52775Y-31085D01*
X52775Y-31085D02*
X52775Y-30425D01*
X53067Y-32917D02*
X53067Y-31377D01*
X52985Y-30215D02*
X53025Y-30215D01*
X53025Y-29785D02*
X53065Y-29825D01*
X53025Y-30215D02*
X53025Y-29865D01*
X52985Y-30215D02*
X52775Y-30425D01*
X54075Y-30875D02*
X54315Y-31115D01*
X55570Y-31440D02*
X55245Y-31115D01*
X54315Y-31115D02*
X55245Y-31115D01*
X55010Y-33400D02*
X54627Y-33783D01*
X53933Y-33783D02*
X54627Y-33783D01*
X55490Y-33400D02*
X55010Y-33400D01*
X54075Y-30875D02*
X54075Y-30635D01*
X55570Y-33320D02*
X55490Y-33400D01*
X55570Y-33320D02*
X55570Y-31440D01*
X55712Y-33378D02*
X55712Y-31382D01*
X55548Y-33542D02*
X55712Y-33378D01*
X55068Y-33542D02*
X55548Y-33542D01*
X54575Y-30843D02*
X54705Y-30973D01*
X55712Y-31382D02*
X55303Y-30973D01*
X54575Y-30635D02*
X54575Y-30843D01*
X54705Y-30973D02*
X55303Y-30973D01*
X54630Y-33980D02*
X53933Y-33980D01*
X54630Y-33980D02*
X55068Y-33542D01*
G54D89*
X44340Y-31600D02*
X44300Y-31640D01*
X43800Y-31800D02*
X44140Y-31800D01*
X44140Y-31800D02*
X44300Y-31640D01*
X45513Y-31600D02*
X44340Y-31600D01*
X46103Y-32387D02*
X46103Y-32807D01*
X45400Y-33510D02*
X45610Y-33300D01*
X45400Y-33850D02*
X45400Y-33510D01*
X46103Y-32807D02*
X45610Y-33300D01*
G54D88*
X49960Y-35140D02*
X49850Y-35140D01*
X50900Y-34200D02*
X50385Y-34200D01*
G54D89*
X51217Y-34177D02*
X50923Y-34177D01*
X50923Y-34177D02*
X50900Y-34200D01*
G54D88*
X50385Y-34600D02*
X50385Y-34200D01*
X50385Y-34600D02*
X50385Y-34715D01*
X49850Y-35140D02*
X49450Y-35140D01*
X50385Y-34715D02*
X49960Y-35140D01*
G54D93*
X52025Y-29435D02*
X52025Y-29785D01*
X51886Y-32696D02*
X51843Y-32653D01*
X51843Y-32653D02*
X51843Y-31173D01*
X52025Y-30215D02*
X52025Y-29865D01*
X51886Y-32917D02*
X51886Y-32696D01*
X52025Y-29785D02*
X52065Y-29825D01*
X52025Y-29865D02*
X52065Y-29825D01*
X51775Y-31105D02*
X51775Y-30425D01*
X51985Y-30215D02*
X51775Y-30425D01*
X51985Y-30215D02*
X52025Y-30215D01*
X51843Y-31173D02*
X51775Y-31105D01*
X52525Y-29435D02*
X52525Y-29785D01*
X52525Y-29865D02*
X52485Y-29825D01*
X52525Y-29785D02*
X52485Y-29825D01*
X51985Y-32595D02*
X52083Y-32693D01*
X52083Y-32693D02*
X52083Y-32917D01*
X52525Y-30215D02*
X52485Y-30215D01*
X51985Y-31375D02*
X51985Y-32595D01*
X52275Y-31085D02*
X51985Y-31375D01*
X52485Y-30215D02*
X52275Y-30425D01*
X52275Y-30425D02*
X52275Y-31085D01*
X52525Y-30215D02*
X52525Y-29865D01*
X54227Y-34767D02*
X54232Y-34772D01*
X54232Y-34772D02*
X55908Y-34772D01*
X56192Y-34488D02*
X56192Y-31252D01*
X53933Y-34767D02*
X54227Y-34767D01*
X56192Y-31252D02*
X55575Y-30635D01*
X55908Y-34772D02*
X56192Y-34488D01*
X55075Y-30635D02*
X55205Y-30635D01*
X56050Y-34430D02*
X56050Y-32370D01*
X54280Y-34570D02*
X53933Y-34570D01*
X55850Y-34630D02*
X56050Y-34430D01*
X54340Y-34630D02*
X55850Y-34630D01*
X54280Y-34570D02*
X54340Y-34630D01*
X56050Y-31480D02*
X56050Y-32370D01*
X55205Y-30635D02*
X56050Y-31480D01*
G54D89*
X53933Y-32877D02*
X54725Y-32085D01*
X53933Y-33192D02*
X53933Y-32877D01*
X53658Y-32782D02*
X54325Y-32115D01*
X54325Y-32115D02*
X54325Y-32085D01*
X53658Y-32917D02*
X53658Y-32782D01*
G54D93*
X53525Y-28667D02*
X53525Y-29015D01*
X52406Y-27734D02*
X52592Y-27734D01*
X52592Y-27734D02*
X53525Y-28667D01*
X52549Y-27891D02*
X53025Y-28367D01*
X52406Y-27891D02*
X52549Y-27891D01*
X53025Y-28367D02*
X53025Y-29015D01*
X52091Y-28581D02*
X52525Y-29015D01*
X52091Y-28206D02*
X52091Y-28581D01*
X51934Y-28924D02*
X52025Y-29015D01*
X51934Y-28206D02*
X51934Y-28924D01*
X57960Y-27284D02*
X58028Y-27352D01*
X54020Y-35920D02*
X54060Y-35880D01*
X57960Y-26500D02*
X57960Y-26100D01*
X53461Y-35781D02*
X53600Y-35920D01*
X53461Y-35633D02*
X53461Y-35781D01*
X53600Y-35920D02*
X54020Y-35920D01*
X56724Y-33286D02*
X56460Y-33550D01*
X58028Y-31652D02*
X58028Y-27352D01*
X56724Y-32956D02*
X58028Y-31652D01*
X56724Y-32956D02*
X56724Y-33286D01*
X57960Y-27284D02*
X57960Y-26500D01*
X54575Y-29650D02*
X54575Y-29785D01*
X54575Y-29785D02*
X54535Y-29825D01*
X52406Y-26946D02*
X54056Y-26946D01*
X54825Y-29225D02*
X54825Y-27715D01*
X54575Y-30215D02*
X54575Y-29865D01*
X54615Y-29435D02*
X54825Y-29225D01*
X54825Y-27715D02*
X54056Y-26946D01*
X54575Y-29435D02*
X54575Y-29650D01*
X54615Y-29435D02*
X54575Y-29435D01*
X54575Y-29865D02*
X54535Y-29825D01*
X54075Y-29865D02*
X54115Y-29825D01*
X53998Y-27088D02*
X54285Y-27375D01*
X54075Y-29435D02*
X54075Y-29785D01*
X54325Y-27415D02*
X54285Y-27375D01*
X54075Y-30215D02*
X54075Y-29865D01*
X52589Y-27104D02*
X52406Y-27104D01*
X54115Y-29435D02*
X54325Y-29225D01*
X54325Y-29225D02*
X54325Y-27415D01*
X52589Y-27104D02*
X52605Y-27088D01*
X54075Y-29435D02*
X54115Y-29435D01*
X54075Y-29785D02*
X54115Y-29825D01*
X52605Y-27088D02*
X53998Y-27088D01*
X55075Y-29865D02*
X55115Y-29825D01*
X52615Y-26804D02*
X54075Y-26804D01*
X55325Y-28015D02*
X54114Y-26804D01*
X55075Y-29435D02*
X55075Y-29785D01*
X55325Y-29225D02*
X55325Y-28015D01*
X52600Y-26789D02*
X52615Y-26804D01*
X55075Y-29435D02*
X55115Y-29435D01*
X55115Y-29435D02*
X55325Y-29225D01*
X55075Y-29785D02*
X55115Y-29825D01*
X52600Y-26789D02*
X52406Y-26789D01*
X54114Y-26804D02*
X54075Y-26804D01*
X55075Y-30215D02*
X55075Y-29865D01*
X55575Y-29785D02*
X55535Y-29825D01*
X55575Y-29435D02*
X55575Y-29785D01*
X55575Y-29865D02*
X55535Y-29825D01*
X55575Y-29435D02*
X55615Y-29435D01*
X55615Y-29435D02*
X55825Y-29225D01*
X54172Y-26662D02*
X54005Y-26662D01*
X52654Y-26631D02*
X52406Y-26631D01*
X52654Y-26631D02*
X52685Y-26662D01*
X52685Y-26662D02*
X54005Y-26662D01*
X55825Y-28315D02*
X54172Y-26662D01*
X55575Y-30215D02*
X55575Y-29865D01*
X55825Y-29225D02*
X55825Y-28315D01*
G54D88*
X47990Y-32890D02*
X48140Y-33040D01*
G54D89*
X47194Y-31994D02*
X47400Y-32200D01*
G54D88*
X47840Y-32300D02*
X47400Y-32300D01*
X48140Y-33040D02*
X48140Y-33100D01*
X47840Y-32550D02*
X47990Y-32700D01*
G54D89*
X47400Y-32200D02*
X47400Y-32300D01*
X47194Y-31994D02*
X47087Y-31994D01*
G54D88*
X47990Y-32700D02*
X47990Y-32890D01*
X47840Y-32300D02*
X47840Y-32550D01*
X46940Y-33100D02*
X46940Y-33350D01*
X46940Y-32730D02*
X46860Y-32650D01*
X46940Y-33160D02*
X46940Y-33100D01*
G54D89*
X46694Y-32484D02*
X46860Y-32650D01*
G54D88*
X46940Y-32730D02*
X46940Y-33100D01*
X46940Y-33350D02*
X46800Y-33490D01*
X47200Y-33420D02*
X46940Y-33160D01*
X47200Y-33490D02*
X47200Y-33420D01*
G54D89*
X46694Y-32387D02*
X46694Y-32484D01*
G54D88*
X46250Y-29660D02*
X46050Y-29460D01*
G54D89*
X46300Y-30500D02*
X46350Y-30450D01*
G54D88*
X46440Y-29670D02*
X46450Y-29660D01*
X46450Y-29660D02*
X46250Y-29660D01*
X46440Y-30360D02*
X46350Y-30450D01*
X46440Y-30050D02*
X46440Y-29670D01*
G54D89*
X46300Y-30813D02*
X46300Y-30500D01*
G54D88*
X46440Y-30360D02*
X46440Y-30050D01*
G54D89*
X47087Y-31403D02*
X47397Y-31403D01*
G54D88*
X47700Y-31100D02*
X47650Y-31150D01*
X47700Y-31100D02*
X47990Y-31100D01*
X47990Y-30700D02*
X47990Y-30300D01*
G54D89*
X47397Y-31403D02*
X47650Y-31150D01*
G54D88*
X47990Y-31100D02*
X47990Y-30700D01*
G54D89*
X45513Y-30913D02*
X44785Y-30185D01*
X44785Y-30185D02*
X44433Y-30185D01*
X45513Y-31206D02*
X45513Y-30913D01*
X45513Y-31403D02*
X44155Y-31403D01*
X44155Y-31403D02*
X43567Y-30815D01*
G54D92*
X48981Y-26631D02*
X48775Y-26425D01*
X50044Y-26631D02*
X48981Y-26631D01*
G54D91*
X47400Y-28060D02*
X47410Y-28050D01*
X48589Y-26789D02*
X48500Y-26700D01*
X47410Y-28050D02*
X47410Y-27490D01*
X47400Y-28690D02*
X47400Y-28060D01*
X48589Y-26789D02*
X50044Y-26789D01*
X47410Y-27490D02*
X48200Y-26700D01*
X48500Y-26700D02*
X48200Y-26700D01*
G54D93*
X39003Y-47303D02*
X38930Y-47230D01*
X44679Y-47106D02*
X44844Y-47106D01*
X38916Y-47894D02*
X39321Y-47894D01*
X44844Y-47106D02*
X44950Y-47000D01*
X38850Y-47960D02*
X38916Y-47894D01*
X39321Y-47303D02*
X39003Y-47303D01*
X45762Y-46242D02*
X45762Y-47698D01*
X40146Y-35156D02*
X40146Y-32344D01*
G54D91*
X43098Y-24152D02*
X43100Y-24150D01*
G54D93*
X44356Y-26884D02*
X44356Y-28134D01*
X40146Y-44920D02*
X40146Y-45022D01*
X40250Y-35406D02*
X40146Y-35510D01*
X40668Y-23408D02*
X42212Y-23408D01*
X36579Y-35301D02*
X36620Y-35260D01*
G54D91*
X35418Y-22552D02*
X35111Y-22552D01*
G54D93*
X34560Y-34060D02*
X34900Y-34400D01*
X45762Y-47698D02*
X45670Y-47790D01*
X39020Y-22820D02*
X39100Y-22740D01*
X40000Y-22740D02*
X40668Y-23408D01*
G54D91*
X35418Y-22552D02*
X35420Y-22550D01*
G54D93*
X44718Y-45198D02*
X45762Y-46242D01*
X36579Y-35301D02*
X36579Y-35845D01*
X39100Y-22740D02*
X40000Y-22740D01*
X40146Y-32344D02*
X40491Y-31999D01*
X40781Y-31999D02*
X41187Y-31593D01*
X44680Y-26560D02*
X44356Y-26884D01*
X40250Y-35260D02*
X40250Y-35406D01*
X35740Y-22550D02*
X35420Y-22550D01*
X40322Y-45198D02*
X44718Y-45198D01*
X43400Y-23910D02*
X43340Y-23910D01*
X45210Y-47500D02*
X44679Y-47500D01*
X40250Y-35260D02*
X40146Y-35156D01*
X40146Y-35510D02*
X40146Y-44920D01*
X45310Y-47400D02*
X45210Y-47500D01*
X40146Y-45022D02*
X40322Y-45198D01*
X34560Y-34050D02*
X34560Y-34060D01*
G54D91*
X43098Y-24152D02*
X43098Y-24489D01*
G54D93*
X43340Y-23910D02*
X43100Y-24150D01*
X42212Y-23408D02*
X42340Y-23280D01*
X40491Y-31999D02*
X40781Y-31999D01*
X41187Y-31303D02*
X44356Y-28134D01*
X41187Y-31593D02*
X41187Y-31303D01*
X37461Y-28165D02*
X37461Y-28459D01*
G54D88*
X34790Y-36560D02*
X34750Y-36600D01*
X34790Y-36050D02*
X34790Y-36560D01*
G54D93*
X34780Y-35640D02*
X34790Y-35650D01*
X34790Y-35650D02*
X34790Y-36050D01*
X37461Y-28459D02*
X37330Y-28590D01*
X40308Y-32412D02*
X40308Y-34938D01*
X40520Y-35150D02*
X40520Y-35366D01*
X40308Y-35578D02*
X40308Y-42248D01*
X40308Y-42248D02*
X40410Y-42350D01*
X37600Y-42350D02*
X38150Y-42350D01*
X41450Y-31410D02*
X41450Y-31560D01*
X40849Y-32161D02*
X40559Y-32161D01*
X38150Y-42350D02*
X38510Y-42350D01*
X38642Y-28588D02*
X38600Y-28630D01*
X38510Y-42350D02*
X38550Y-42390D01*
X41450Y-31560D02*
X40849Y-32161D01*
X40520Y-35366D02*
X40308Y-35578D01*
X40559Y-32161D02*
X40308Y-32412D01*
X40308Y-34938D02*
X40520Y-35150D01*
X38642Y-28165D02*
X38642Y-28588D01*
X40470Y-34870D02*
X40682Y-35082D01*
X33610Y-40360D02*
X33650Y-40400D01*
X40917Y-32323D02*
X40627Y-32323D01*
X40682Y-35578D02*
X40570Y-35690D01*
X40680Y-42240D02*
X40680Y-42458D01*
X45210Y-47150D02*
X45190Y-47150D01*
X40470Y-42030D02*
X40680Y-42240D01*
X41710Y-31150D02*
X41720Y-31160D01*
X36421Y-39049D02*
X36370Y-39100D01*
X40680Y-42458D02*
X40308Y-42830D01*
X36421Y-38655D02*
X36421Y-39049D01*
X41720Y-31520D02*
X40917Y-32323D01*
X37340Y-37710D02*
X37340Y-37350D01*
X40470Y-32480D02*
X40470Y-34870D01*
X41720Y-31160D02*
X41720Y-31520D01*
X33610Y-40000D02*
X33610Y-40360D01*
X40470Y-35800D02*
X40470Y-42030D01*
X45924Y-46174D02*
X45924Y-47014D01*
X40308Y-44650D02*
X40308Y-44854D01*
X34769Y-39961D02*
X35010Y-39720D01*
X38839Y-28439D02*
X39010Y-28610D01*
X40308Y-42830D02*
X40308Y-44650D01*
X38839Y-28439D02*
X38839Y-28165D01*
X40627Y-32323D02*
X40470Y-32480D01*
X40308Y-44854D02*
X40490Y-45036D01*
X44786Y-45036D02*
X45924Y-46174D01*
X40570Y-35700D02*
X40470Y-35800D01*
X45037Y-47303D02*
X44679Y-47303D01*
X34769Y-40135D02*
X34769Y-39961D01*
X45330Y-47030D02*
X45210Y-47150D01*
X40682Y-35082D02*
X40682Y-35578D01*
X40570Y-35690D02*
X40570Y-35700D01*
X45190Y-47150D02*
X45037Y-47303D01*
X45924Y-47014D02*
X46030Y-47120D01*
X40490Y-45036D02*
X44786Y-45036D01*
X38642Y-26235D02*
X38642Y-25998D01*
X43130Y-26360D02*
X43200Y-26360D01*
X43200Y-26360D02*
X43450Y-26110D01*
X38642Y-25998D02*
X38970Y-25670D01*
X40842Y-42172D02*
X40842Y-42526D01*
X36000Y-31500D02*
X36000Y-31280D01*
X40844Y-35808D02*
X40632Y-36020D01*
X40632Y-41962D02*
X40842Y-42172D01*
G54D91*
X36102Y-34498D02*
X36389Y-34498D01*
G54D93*
X40632Y-36020D02*
X40632Y-41962D01*
X36909Y-26511D02*
X37185Y-26511D01*
X34970Y-30250D02*
X34750Y-30250D01*
G54D91*
X36002Y-31502D02*
X36000Y-31500D01*
X36102Y-34498D02*
X36050Y-34550D01*
G54D93*
X40844Y-35796D02*
X40844Y-35808D01*
X40470Y-44640D02*
X40600Y-44770D01*
X40470Y-44480D02*
X40470Y-44640D01*
X36909Y-26511D02*
X36810Y-26610D01*
X42936Y-47106D02*
X43321Y-47106D01*
X42870Y-47040D02*
X42936Y-47106D01*
X40740Y-34770D02*
X40844Y-34874D01*
X40842Y-42526D02*
X40470Y-42898D01*
X36050Y-34650D02*
X36050Y-34550D01*
X36260Y-34860D02*
X36050Y-34650D01*
X35660Y-31500D02*
X36000Y-31500D01*
X40844Y-34874D02*
X40844Y-35796D01*
X40470Y-42898D02*
X40470Y-44480D01*
X36000Y-31280D02*
X34970Y-30250D01*
G54D91*
X36002Y-31502D02*
X36389Y-31502D01*
G54D93*
X36260Y-34900D02*
X36260Y-34860D01*
X43390Y-46520D02*
X43420Y-46550D01*
G54D91*
X37198Y-34498D02*
X36811Y-34498D01*
G54D93*
X41004Y-42594D02*
X40632Y-42966D01*
X40632Y-44412D02*
X40970Y-44750D01*
G54D91*
X37248Y-31502D02*
X37250Y-31500D01*
G54D93*
X40632Y-44360D02*
X40632Y-44412D01*
X41006Y-35860D02*
X41006Y-35864D01*
X41006Y-34626D02*
X41006Y-35860D01*
X43420Y-46550D02*
X43630Y-46550D01*
X41004Y-42104D02*
X41004Y-42594D01*
X40794Y-36088D02*
X40794Y-41894D01*
G54D91*
X37198Y-34498D02*
X37200Y-34500D01*
G54D93*
X37590Y-31500D02*
X37250Y-31500D01*
X41006Y-35860D02*
X41006Y-35876D01*
X43630Y-46550D02*
X43705Y-46625D01*
G54D91*
X37248Y-31502D02*
X36811Y-31502D01*
G54D93*
X40730Y-34350D02*
X41006Y-34626D01*
X40632Y-44360D02*
X40632Y-44370D01*
X37540Y-34500D02*
X37200Y-34500D01*
X40794Y-41894D02*
X41004Y-42104D01*
X40632Y-42966D02*
X40632Y-44360D01*
X43705Y-46625D02*
X43705Y-46821D01*
X41006Y-35876D02*
X40794Y-36088D01*
X45010Y-47697D02*
X45383Y-47697D01*
X45010Y-47697D02*
X44679Y-47697D01*
X45017Y-47697D02*
X45010Y-47697D01*
X45383Y-47697D02*
X45600Y-47480D01*
X39984Y-32276D02*
X39984Y-45090D01*
X39698Y-23128D02*
X40158Y-23128D01*
X44030Y-25690D02*
X44030Y-25700D01*
X45600Y-46310D02*
X44650Y-45360D01*
X45230Y-47910D02*
X45017Y-47697D01*
X40423Y-31837D02*
X39984Y-32276D01*
X34060Y-22550D02*
X34350Y-22550D01*
G54D91*
X43098Y-25298D02*
X43100Y-25300D01*
G54D93*
X42100Y-23570D02*
X42200Y-23670D01*
X44400Y-26534D02*
X44194Y-26740D01*
X45600Y-47480D02*
X45600Y-46310D01*
X43440Y-25300D02*
X43440Y-25680D01*
X44030Y-25690D02*
X43450Y-25690D01*
X41025Y-31235D02*
X41025Y-31525D01*
X40679Y-47500D02*
X41530Y-47500D01*
X44194Y-26740D02*
X44194Y-28066D01*
X44650Y-45360D02*
X40254Y-45360D01*
X44600Y-49390D02*
X45230Y-48760D01*
G54D91*
X43098Y-25298D02*
X43098Y-24911D01*
G54D93*
X44030Y-25700D02*
X44400Y-26070D01*
X41025Y-31525D02*
X40713Y-31837D01*
X45230Y-48760D02*
X45230Y-47910D01*
X41530Y-47500D02*
X41600Y-47570D01*
X39590Y-23020D02*
X39698Y-23128D01*
X40254Y-45360D02*
X39984Y-45090D01*
G54D91*
X34352Y-22552D02*
X34350Y-22550D01*
G54D93*
X43440Y-25680D02*
X43450Y-25690D01*
X40713Y-31837D02*
X40423Y-31837D01*
X40580Y-48550D02*
X40295Y-48265D01*
X44400Y-26070D02*
X44400Y-26534D01*
X40158Y-23128D02*
X40600Y-23570D01*
X43098Y-25298D02*
X43438Y-25298D01*
X40580Y-48550D02*
X40580Y-49070D01*
X40295Y-48265D02*
X40295Y-48179D01*
X40600Y-23570D02*
X42100Y-23570D01*
X40900Y-49390D02*
X44600Y-49390D01*
X40580Y-49070D02*
X40900Y-49390D01*
G54D91*
X34352Y-22552D02*
X34689Y-22552D01*
G54D93*
X43438Y-25298D02*
X43440Y-25300D01*
X44194Y-28066D02*
X41025Y-31235D01*
G54D91*
X38020Y-29130D02*
X38400Y-29130D01*
X37658Y-28165D02*
X37658Y-28768D01*
X37658Y-28768D02*
X38020Y-29130D01*
G54D93*
X36650Y-23100D02*
X36790Y-23100D01*
X39660Y-32140D02*
X40390Y-31410D01*
X38290Y-46890D02*
X38290Y-47470D01*
X42270Y-47303D02*
X42267Y-47303D01*
X41170Y-48020D02*
X41044Y-47894D01*
X39660Y-45510D02*
X39660Y-45520D01*
G54D91*
X41402Y-25242D02*
X41410Y-25250D01*
G54D93*
X36940Y-23040D02*
X37190Y-23290D01*
X38290Y-47470D02*
X38517Y-47697D01*
X38090Y-30650D02*
X38090Y-30360D01*
X42270Y-47303D02*
X42270Y-46950D01*
X41210Y-45890D02*
X40040Y-45890D01*
X37190Y-23290D02*
X38950Y-23290D01*
G54D91*
X37948Y-30198D02*
X37761Y-30198D01*
G54D93*
X38950Y-23290D02*
X39112Y-23452D01*
X38090Y-30360D02*
X38100Y-30350D01*
X40040Y-45890D02*
X39660Y-45510D01*
X41500Y-25340D02*
X41410Y-25250D01*
X41500Y-25590D02*
X41500Y-25340D01*
X40230Y-23660D02*
X40230Y-23850D01*
G54D91*
X37948Y-30198D02*
X38100Y-30350D01*
G54D93*
X41550Y-48020D02*
X41170Y-48020D01*
X40022Y-23452D02*
X40230Y-23660D01*
X38517Y-47697D02*
X39321Y-47697D01*
X43870Y-26410D02*
X43870Y-27930D01*
G54D91*
X36448Y-23302D02*
X36650Y-23100D01*
G54D93*
X43870Y-27930D02*
X40390Y-31410D01*
X41044Y-47894D02*
X40679Y-47894D01*
G54D91*
X41402Y-25242D02*
X41402Y-24911D01*
G54D93*
X43321Y-47303D02*
X42270Y-47303D01*
X42270Y-46950D02*
X41210Y-45890D01*
X36940Y-23040D02*
X36940Y-22950D01*
X39660Y-32140D02*
X39660Y-45510D01*
X36790Y-23100D02*
X36940Y-22950D01*
X39112Y-23452D02*
X40022Y-23452D01*
X42267Y-47303D02*
X41550Y-48020D01*
X39660Y-45520D02*
X38290Y-46890D01*
G54D91*
X36448Y-23439D02*
X36448Y-23302D01*
G54D93*
X34611Y-40135D02*
X34611Y-39561D01*
X33610Y-39510D02*
X33610Y-39150D01*
X33650Y-39550D02*
X33610Y-39510D01*
X34611Y-39561D02*
X34550Y-39500D01*
X39321Y-47500D02*
X38690Y-47500D01*
X36421Y-37901D02*
X36150Y-37630D01*
X36150Y-37630D02*
X35890Y-37630D01*
X35660Y-37400D02*
X35660Y-37040D01*
X36421Y-38045D02*
X36421Y-37901D01*
X35890Y-37630D02*
X35660Y-37400D01*
X38690Y-47500D02*
X38550Y-47360D01*
X34255Y-40135D02*
X34250Y-40130D01*
G54D88*
X34100Y-39980D02*
X34250Y-40130D01*
X34100Y-39980D02*
X34100Y-39860D01*
G54D93*
X34454Y-40135D02*
X34255Y-40135D01*
X36219Y-38000D02*
X36264Y-38045D01*
G54D88*
X35910Y-38000D02*
X36070Y-38000D01*
G54D93*
X36070Y-38000D02*
X36219Y-38000D01*
X34900Y-34750D02*
X34560Y-34750D01*
X38118Y-47778D02*
X38560Y-48220D01*
X36421Y-35845D02*
X36421Y-35421D01*
X39498Y-45452D02*
X38118Y-46832D01*
X39498Y-45450D02*
X39498Y-45452D01*
X36421Y-35421D02*
X36280Y-35280D01*
X40679Y-47697D02*
X41217Y-47697D01*
X39400Y-35520D02*
X39498Y-35618D01*
X41217Y-47697D02*
X41280Y-47760D01*
X39498Y-35618D02*
X39498Y-45450D01*
X38118Y-46832D02*
X38118Y-47778D01*
X40505Y-31675D02*
X40355Y-31675D01*
X42440Y-47500D02*
X42370Y-47570D01*
X40980Y-24230D02*
X40910Y-24300D01*
X36450Y-30440D02*
X36490Y-30440D01*
X40532Y-23732D02*
X40932Y-23732D01*
X44130Y-26550D02*
X44032Y-26648D01*
X36730Y-30200D02*
X36810Y-30200D01*
X41260Y-24060D02*
X41260Y-24230D01*
X36490Y-30440D02*
X36730Y-30200D01*
X40090Y-23290D02*
X40532Y-23732D01*
X40032Y-45620D02*
X39822Y-45410D01*
X38839Y-26235D02*
X38839Y-26101D01*
X44032Y-26648D02*
X44032Y-27998D01*
X41887Y-47303D02*
X40679Y-47303D01*
X36500Y-24350D02*
X36450Y-24300D01*
X40750Y-31420D02*
X40750Y-31430D01*
X40790Y-31380D02*
X40750Y-31420D01*
X40932Y-23732D02*
X41260Y-24060D01*
G54D91*
X36448Y-24298D02*
X36450Y-24300D01*
X36812Y-30198D02*
X37339Y-30198D01*
G54D93*
X38839Y-26101D02*
X39010Y-25930D01*
X39370Y-23290D02*
X40090Y-23290D01*
X40355Y-31675D02*
X39822Y-32208D01*
X39236Y-47106D02*
X39321Y-47106D01*
X39270Y-23190D02*
X39370Y-23290D01*
X42010Y-30020D02*
X40790Y-31240D01*
X39010Y-25930D02*
X39260Y-25930D01*
X36500Y-24940D02*
X36500Y-24350D01*
G54D91*
X36812Y-30198D02*
X36810Y-30200D01*
G54D93*
X40790Y-31240D02*
X40790Y-31380D01*
X44130Y-26170D02*
X44130Y-26550D01*
G54D91*
X41402Y-24372D02*
X41260Y-24230D01*
X41402Y-24489D02*
X41402Y-24372D01*
G54D93*
X42000Y-47190D02*
X41887Y-47303D01*
X40160Y-45620D02*
X40032Y-45620D01*
X44032Y-27998D02*
X42010Y-30020D01*
X43321Y-47500D02*
X42440Y-47500D01*
X39822Y-32208D02*
X39822Y-45410D01*
X40750Y-31430D02*
X40505Y-31675D01*
X39000Y-46870D02*
X39236Y-47106D01*
X41260Y-24230D02*
X40980Y-24230D01*
G54D91*
X36448Y-24298D02*
X36448Y-23861D01*
G54D93*
X36579Y-38929D02*
X36690Y-39040D01*
X36579Y-38929D02*
X36579Y-38655D01*
X34769Y-41071D02*
X34740Y-41100D01*
X34680Y-41460D02*
X34680Y-41160D01*
X34680Y-41160D02*
X34740Y-41100D01*
X37340Y-38200D02*
X37340Y-38560D01*
X39705Y-45925D02*
X39670Y-45890D01*
X36690Y-39040D02*
X36690Y-39250D01*
X39705Y-46821D02*
X39705Y-45925D01*
X34769Y-41071D02*
X34769Y-40745D01*
X36736Y-38655D02*
X36736Y-38746D01*
X36736Y-38746D02*
X36860Y-38870D01*
G54D88*
X36860Y-38870D02*
X37090Y-39100D01*
G54D93*
X34981Y-40800D02*
X34926Y-40745D01*
X35130Y-40800D02*
X34981Y-40800D01*
G54D88*
X35440Y-40800D02*
X35130Y-40800D01*
G54D93*
X37340Y-36900D02*
X36850Y-36900D01*
X39336Y-36626D02*
X39336Y-44934D01*
X39336Y-44934D02*
X39220Y-45050D01*
X36579Y-36629D02*
X36800Y-36850D01*
X39240Y-36530D02*
X39336Y-36626D01*
X36850Y-36900D02*
X36800Y-36850D01*
X36579Y-36629D02*
X36579Y-36455D01*
X41100Y-46880D02*
X41100Y-46180D01*
X40874Y-47106D02*
X40679Y-47106D01*
X40874Y-47106D02*
X41100Y-46880D01*
X72461Y-33659D02*
X72461Y-34069D01*
X72420Y-34110D02*
X72420Y-34430D01*
X74605Y-34355D02*
X75176Y-33784D01*
X72420Y-34430D02*
X72610Y-34620D01*
X73295Y-34355D02*
X74605Y-34355D01*
X75176Y-31676D02*
X73500Y-30000D01*
X72461Y-34069D02*
X72420Y-34110D01*
X72610Y-34620D02*
X73030Y-34620D01*
X73030Y-34620D02*
X73295Y-34355D01*
X75176Y-33784D02*
X75176Y-31676D01*
X74331Y-34742D02*
X74678Y-34742D01*
X74678Y-34742D02*
X75500Y-33920D01*
X75500Y-33920D02*
X75500Y-30000D01*
X75338Y-30838D02*
X74500Y-30000D01*
X74645Y-34545D02*
X75338Y-33852D01*
X75338Y-33852D02*
X75338Y-30838D01*
X74331Y-34545D02*
X74645Y-34545D01*
X75662Y-30838D02*
X76500Y-30000D01*
X74331Y-34939D02*
X74711Y-34939D01*
X74711Y-34939D02*
X75662Y-33988D01*
X75662Y-33988D02*
X75662Y-30838D01*
X49880Y-47880D02*
X50500Y-48500D01*
X49880Y-45380D02*
X49880Y-47880D01*
X50850Y-44862D02*
X50398Y-44862D01*
X50398Y-44862D02*
X49880Y-45380D01*
X51480Y-48010D02*
X51835Y-47655D01*
X51480Y-48010D02*
X51400Y-48010D01*
X51835Y-45650D02*
X51835Y-47655D01*
X51090Y-49090D02*
X51500Y-49500D01*
X51400Y-48010D02*
X51090Y-48320D01*
X51090Y-48320D02*
X51090Y-49090D01*
X52031Y-46176D02*
X51997Y-46210D01*
X51997Y-47723D02*
X51500Y-48220D01*
X51997Y-46210D02*
X51997Y-47723D01*
X52031Y-45650D02*
X52031Y-46176D01*
X51500Y-48220D02*
X51500Y-48500D01*
X52000Y-49000D02*
X52500Y-49500D01*
X52425Y-46024D02*
X52159Y-46290D01*
X52000Y-49000D02*
X52000Y-48250D01*
X52000Y-47950D02*
X52000Y-48250D01*
X52159Y-47791D02*
X52000Y-47950D01*
X52159Y-46290D02*
X52159Y-47791D01*
X52425Y-45650D02*
X52425Y-46024D01*
X52622Y-45650D02*
X52622Y-46058D01*
X52321Y-46359D02*
X52321Y-48321D01*
X52321Y-48321D02*
X52500Y-48500D01*
X52622Y-46058D02*
X52321Y-46359D01*
X53016Y-46016D02*
X53247Y-46247D01*
X53247Y-48003D02*
X53000Y-48250D01*
X53000Y-49000D02*
X53500Y-49500D01*
X53247Y-46247D02*
X53247Y-48003D01*
X53000Y-49000D02*
X53000Y-48250D01*
X53016Y-45650D02*
X53016Y-46016D01*
X53409Y-48409D02*
X53500Y-48500D01*
X53409Y-45650D02*
X53409Y-48409D01*
X49718Y-48718D02*
X50500Y-49500D01*
X50850Y-44665D02*
X50365Y-44665D01*
X49718Y-45312D02*
X49718Y-48718D01*
X50365Y-44665D02*
X49718Y-45312D01*
X54000Y-38915D02*
X54105Y-38810D01*
X54105Y-37165D02*
X56886Y-34384D01*
X58190Y-31720D02*
X58190Y-30310D01*
X54000Y-39350D02*
X54000Y-38915D01*
X56886Y-34384D02*
X56886Y-33024D01*
X54105Y-38810D02*
X54105Y-37165D01*
X56886Y-33024D02*
X58190Y-31720D01*
X58190Y-30310D02*
X59500Y-29000D01*
X58344Y-33976D02*
X58820Y-33500D01*
X55969Y-39350D02*
X55969Y-38971D01*
X58820Y-33500D02*
X60000Y-33500D01*
X60000Y-33500D02*
X60500Y-33000D01*
X55969Y-38971D02*
X58344Y-36596D01*
X58344Y-36596D02*
X58344Y-33976D01*
X56165Y-39350D02*
X56165Y-39005D01*
X56165Y-39005D02*
X58506Y-36664D01*
X58506Y-36664D02*
X58506Y-34514D01*
X59020Y-34000D02*
X59500Y-34000D01*
X58506Y-34514D02*
X59020Y-34000D01*
X60000Y-34500D02*
X60500Y-34000D01*
X58668Y-34892D02*
X59060Y-34500D01*
X56362Y-39350D02*
X56362Y-39038D01*
X59060Y-34500D02*
X60000Y-34500D01*
X58668Y-36732D02*
X58668Y-34892D01*
X56362Y-39038D02*
X58668Y-36732D01*
X57150Y-40335D02*
X57515Y-40335D01*
X57860Y-39990D02*
X57860Y-37770D01*
X58830Y-36800D02*
X58830Y-35670D01*
X57860Y-37770D02*
X58830Y-36800D01*
X57515Y-40335D02*
X57860Y-39990D01*
X58830Y-35670D02*
X59500Y-35000D01*
X58500Y-40800D02*
X58820Y-40480D01*
X57748Y-40728D02*
X57820Y-40800D01*
X58992Y-36868D02*
X58992Y-35738D01*
X58820Y-37040D02*
X58992Y-36868D01*
X59230Y-35500D02*
X60000Y-35500D01*
X58992Y-35738D02*
X59230Y-35500D01*
X57150Y-40728D02*
X57748Y-40728D01*
X57820Y-40800D02*
X58500Y-40800D01*
X60000Y-35500D02*
X60500Y-35000D01*
X58820Y-40480D02*
X58820Y-37040D01*
X58568Y-40962D02*
X58982Y-40548D01*
X58982Y-40548D02*
X58982Y-37108D01*
X58982Y-37108D02*
X59154Y-36936D01*
X57150Y-41319D02*
X57563Y-41319D01*
X59154Y-36936D02*
X59154Y-36346D01*
X57563Y-41319D02*
X57920Y-40962D01*
X57920Y-40962D02*
X58568Y-40962D01*
X59154Y-36346D02*
X59500Y-36000D01*
X57150Y-41713D02*
X57527Y-41713D01*
X58116Y-41124D02*
X58636Y-41124D01*
X59144Y-40616D02*
X59144Y-37176D01*
X59316Y-37004D02*
X59496Y-37004D01*
X59144Y-37176D02*
X59316Y-37004D01*
X59496Y-37004D02*
X60500Y-36000D01*
X57527Y-41713D02*
X58116Y-41124D01*
X58636Y-41124D02*
X59144Y-40616D01*
X60000Y-29500D02*
X60500Y-29000D01*
X58352Y-31788D02*
X58352Y-30378D01*
X54267Y-37233D02*
X57048Y-34452D01*
X54267Y-38880D02*
X54267Y-37233D01*
X58352Y-30378D02*
X59230Y-29500D01*
X54197Y-39350D02*
X54197Y-38950D01*
X57048Y-34452D02*
X57048Y-33092D01*
X54197Y-38950D02*
X54267Y-38880D01*
X57048Y-33092D02*
X58352Y-31788D01*
X59230Y-29500D02*
X60000Y-29500D01*
X57210Y-33160D02*
X58514Y-31856D01*
X58514Y-30446D02*
X58960Y-30000D01*
X54429Y-37301D02*
X57210Y-34520D01*
X54394Y-39350D02*
X54394Y-38985D01*
X58514Y-31856D02*
X58514Y-30446D01*
X54394Y-38985D02*
X54429Y-38950D01*
X58960Y-30000D02*
X59500Y-30000D01*
X54429Y-38950D02*
X54429Y-37301D01*
X57210Y-34520D02*
X57210Y-33160D01*
X58676Y-30860D02*
X59036Y-30500D01*
X60000Y-30500D02*
X60500Y-30000D01*
X54591Y-39350D02*
X54591Y-37369D01*
X57372Y-33228D02*
X58676Y-31924D01*
X59036Y-30500D02*
X60000Y-30500D01*
X57372Y-34588D02*
X57372Y-33228D01*
X58676Y-31924D02*
X58676Y-30860D01*
X54591Y-37369D02*
X57372Y-34588D01*
X54753Y-38980D02*
X54753Y-37437D01*
X58838Y-31992D02*
X58838Y-31662D01*
X58838Y-31662D02*
X59500Y-31000D01*
X57534Y-34656D02*
X57534Y-33296D01*
X54753Y-37437D02*
X57534Y-34656D01*
X54787Y-39350D02*
X54787Y-39014D01*
X57534Y-33296D02*
X58838Y-31992D01*
X54787Y-39014D02*
X54753Y-38980D01*
X54916Y-38906D02*
X54916Y-37504D01*
X59340Y-31500D02*
X60000Y-31500D01*
X59000Y-31840D02*
X59340Y-31500D01*
X59000Y-32060D02*
X59000Y-31840D01*
X57696Y-34724D02*
X57696Y-33364D01*
X54984Y-39350D02*
X54984Y-38974D01*
X57696Y-33364D02*
X59000Y-32060D01*
X54984Y-38974D02*
X54916Y-38906D01*
X54916Y-37504D02*
X57696Y-34724D01*
X60000Y-31500D02*
X60500Y-31000D01*
X59290Y-32000D02*
X59500Y-32000D01*
X57858Y-34792D02*
X57858Y-33432D01*
X55181Y-38941D02*
X55078Y-38838D01*
X55078Y-38838D02*
X55078Y-37572D01*
X55181Y-39350D02*
X55181Y-38941D01*
X55078Y-37572D02*
X57858Y-34792D01*
X57858Y-33432D02*
X59290Y-32000D01*
X55240Y-38770D02*
X55240Y-37640D01*
X58020Y-34860D02*
X58020Y-33500D01*
X55378Y-39350D02*
X55378Y-38908D01*
X59020Y-32500D02*
X60000Y-32500D01*
X58020Y-33500D02*
X59020Y-32500D01*
X60000Y-32500D02*
X60500Y-32000D01*
X55240Y-37640D02*
X58020Y-34860D01*
X55378Y-38908D02*
X55240Y-38770D01*
X55772Y-39350D02*
X55772Y-38938D01*
X58182Y-33568D02*
X58750Y-33000D01*
X55772Y-38938D02*
X58182Y-36528D01*
X58750Y-33000D02*
X59500Y-33000D01*
X58182Y-36528D02*
X58182Y-33568D01*
X57150Y-41909D02*
X57771Y-41909D01*
X58080Y-41600D02*
X59140Y-41600D01*
X57771Y-41909D02*
X58080Y-41600D01*
X58220Y-45200D02*
X59140Y-45200D01*
X55772Y-46062D02*
X56002Y-46292D01*
X56002Y-46292D02*
X57128Y-46292D01*
X55772Y-45650D02*
X55772Y-46062D01*
X57128Y-46292D02*
X58220Y-45200D01*
X57196Y-46454D02*
X58050Y-45600D01*
X55575Y-46095D02*
X55934Y-46454D01*
X55575Y-45650D02*
X55575Y-46095D01*
X58050Y-45600D02*
X59140Y-45600D01*
X55934Y-46454D02*
X57196Y-46454D01*
X55378Y-45650D02*
X55378Y-46128D01*
X57880Y-46000D02*
X59140Y-46000D01*
X55866Y-46616D02*
X57264Y-46616D01*
X57264Y-46616D02*
X57880Y-46000D01*
X55378Y-46128D02*
X55866Y-46616D01*
X57710Y-46400D02*
X59140Y-46400D01*
X55668Y-46778D02*
X57332Y-46778D01*
X54984Y-46094D02*
X55668Y-46778D01*
X54984Y-45650D02*
X54984Y-46094D01*
X57332Y-46778D02*
X57710Y-46400D01*
X54787Y-46127D02*
X55600Y-46940D01*
X57540Y-46800D02*
X59140Y-46800D01*
X54787Y-45650D02*
X54787Y-46127D01*
X57400Y-46940D02*
X57540Y-46800D01*
X55600Y-46940D02*
X57400Y-46940D01*
X54197Y-46137D02*
X55162Y-47102D01*
X55162Y-47102D02*
X59042Y-47102D01*
X54197Y-45650D02*
X54197Y-46137D01*
X59042Y-47102D02*
X59140Y-47200D01*
X58584Y-47264D02*
X58920Y-47600D01*
X58920Y-47600D02*
X59140Y-47600D01*
X53606Y-46076D02*
X54794Y-47264D01*
X53606Y-45650D02*
X53606Y-46076D01*
X54794Y-47264D02*
X58584Y-47264D01*
X58420Y-42000D02*
X59140Y-42000D01*
X58314Y-42106D02*
X58420Y-42000D01*
X57150Y-42106D02*
X58314Y-42106D01*
X57150Y-42303D02*
X58573Y-42303D01*
X58670Y-42400D02*
X59140Y-42400D01*
X58573Y-42303D02*
X58670Y-42400D01*
X58880Y-42800D02*
X59140Y-42800D01*
X58072Y-43878D02*
X58550Y-43400D01*
X58550Y-43400D02*
X58550Y-43130D01*
X58550Y-43130D02*
X58880Y-42800D01*
X57150Y-43878D02*
X58072Y-43878D01*
X58780Y-43200D02*
X59140Y-43200D01*
X57150Y-44272D02*
X57998Y-44272D01*
X58712Y-43268D02*
X58780Y-43200D01*
X58712Y-43558D02*
X58712Y-43268D01*
X57998Y-44272D02*
X58712Y-43558D01*
X57150Y-44469D02*
X58031Y-44469D01*
X58900Y-43600D02*
X59140Y-43600D01*
X58031Y-44469D02*
X58900Y-43600D01*
X57150Y-44665D02*
X58065Y-44665D01*
X58065Y-44665D02*
X58730Y-44000D01*
X58730Y-44000D02*
X59140Y-44000D01*
X58098Y-44862D02*
X58560Y-44400D01*
X57150Y-44862D02*
X58098Y-44862D01*
X58560Y-44400D02*
X59140Y-44400D01*
X56165Y-46025D02*
X56270Y-46130D01*
X57060Y-46130D02*
X58390Y-44800D01*
X56270Y-46130D02*
X57060Y-46130D01*
X56165Y-45650D02*
X56165Y-46025D01*
X58390Y-44800D02*
X59140Y-44800D01*
X66690Y-41834D02*
X66496Y-41834D01*
X50850Y-44469D02*
X50331Y-44469D01*
X66752Y-41896D02*
X66690Y-41834D01*
X48000Y-46800D02*
X48000Y-47000D01*
X50331Y-44469D02*
X48000Y-46800D01*
X62700Y-45630D02*
X62700Y-46100D01*
X66496Y-41834D02*
X62700Y-45630D01*
X66752Y-41896D02*
X66752Y-42321D01*
X48000Y-47000D02*
X47500Y-47500D01*
X62060Y-45810D02*
X66360Y-41510D01*
X47000Y-44150D02*
X47000Y-45000D01*
X50850Y-43878D02*
X47272Y-43878D01*
X68090Y-41510D02*
X68327Y-41747D01*
X68327Y-41747D02*
X68327Y-42321D01*
X47272Y-43878D02*
X47000Y-44150D01*
X66360Y-41510D02*
X68090Y-41510D01*
X47000Y-45000D02*
X47500Y-45500D01*
X57564Y-43484D02*
X57690Y-43610D01*
X57150Y-43484D02*
X57564Y-43484D01*
X62410Y-45050D02*
X62330Y-45130D01*
X66210Y-41430D02*
X62590Y-45050D01*
X66210Y-40950D02*
X66210Y-41430D01*
X65669Y-40844D02*
X66104Y-40844D01*
X66104Y-40844D02*
X66210Y-40950D01*
X62590Y-45050D02*
X62410Y-45050D01*
X62360Y-45740D02*
X66428Y-41672D01*
X49330Y-44500D02*
X49558Y-44272D01*
X49558Y-44272D02*
X50850Y-44272D01*
X67539Y-42321D02*
X67539Y-41811D01*
X62360Y-45890D02*
X62360Y-45740D01*
X67539Y-41811D02*
X67400Y-41672D01*
X47500Y-44500D02*
X49330Y-44500D01*
X67400Y-41672D02*
X66428Y-41672D01*
X61710Y-46540D02*
X62360Y-45890D01*
X68060Y-31760D02*
X67500Y-31200D01*
X68130Y-33659D02*
X68130Y-33200D01*
X68060Y-33130D02*
X68060Y-31760D01*
X67060Y-31200D02*
X67500Y-31200D01*
X68130Y-33200D02*
X68060Y-33130D01*
X69758Y-32998D02*
X69705Y-33051D01*
X69758Y-29780D02*
X69758Y-32998D01*
X69700Y-29510D02*
X69700Y-29722D01*
X69700Y-29722D02*
X69758Y-29780D01*
X69705Y-33051D02*
X69705Y-33659D01*
X69480Y-29300D02*
X69860Y-29300D01*
X69300Y-29120D02*
X69300Y-29060D01*
X70098Y-33659D02*
X70098Y-33098D01*
X69860Y-29300D02*
X69920Y-29360D01*
X69920Y-32920D02*
X69920Y-29360D01*
X69300Y-29120D02*
X69480Y-29300D01*
X69920Y-32920D02*
X70098Y-33098D01*
X74341Y-24803D02*
X74597Y-24803D01*
X74597Y-24803D02*
X74800Y-24600D01*
X72410Y-29250D02*
X72410Y-29440D01*
X72410Y-29440D02*
X72250Y-29600D01*
X75500Y-24750D02*
X75690Y-24750D01*
X75690Y-24750D02*
X75940Y-25000D01*
X75350Y-24600D02*
X75500Y-24750D01*
X74800Y-24600D02*
X75350Y-24600D01*
X71870Y-42321D02*
X71870Y-41960D01*
X71740Y-41830D02*
X71740Y-41300D01*
X71870Y-41960D02*
X71740Y-41830D01*
X73160Y-35320D02*
X73160Y-35090D01*
X73268Y-39578D02*
X73268Y-35428D01*
X73160Y-35090D02*
X73110Y-35040D01*
X74331Y-40254D02*
X73944Y-40254D01*
X73268Y-35428D02*
X73160Y-35320D01*
X73944Y-40254D02*
X73268Y-39578D01*
X73780Y-39860D02*
X73430Y-39510D01*
X74331Y-39860D02*
X73780Y-39860D01*
X73430Y-39510D02*
X73430Y-35210D01*
X75610Y-36730D02*
X75716Y-36624D01*
X75716Y-36624D02*
X76476Y-36624D01*
X77076Y-36024D02*
X77076Y-34154D01*
X76476Y-36624D02*
X77076Y-36024D01*
X77230Y-34000D02*
X78000Y-34000D01*
X74331Y-36907D02*
X73723Y-36907D01*
X73723Y-36907D02*
X73720Y-36910D01*
X77076Y-34154D02*
X77230Y-34000D01*
X78000Y-34000D02*
X78500Y-33500D01*
X76914Y-35956D02*
X76914Y-34086D01*
X74760Y-36710D02*
X75008Y-36462D01*
X76408Y-36462D02*
X76914Y-35956D01*
X74331Y-36710D02*
X74760Y-36710D01*
X76914Y-34086D02*
X77500Y-33500D01*
X75008Y-36462D02*
X76408Y-36462D01*
X76340Y-36300D02*
X76752Y-35888D01*
X74726Y-36514D02*
X74940Y-36300D01*
X76752Y-33478D02*
X77230Y-33000D01*
X77230Y-33000D02*
X78000Y-33000D01*
X76752Y-35888D02*
X76752Y-33478D01*
X74331Y-36514D02*
X74726Y-36514D01*
X78000Y-33000D02*
X78500Y-32500D01*
X74940Y-36300D02*
X76340Y-36300D01*
X76590Y-33410D02*
X77500Y-32500D01*
X76400Y-35550D02*
X76590Y-35360D01*
X76590Y-35360D02*
X76590Y-33410D01*
X74331Y-35333D02*
X74683Y-35333D01*
X74683Y-35333D02*
X74900Y-35550D01*
X74900Y-35550D02*
X76400Y-35550D01*
X74331Y-41238D02*
X73798Y-41238D01*
X72944Y-40384D02*
X72944Y-35974D01*
X73798Y-41238D02*
X72944Y-40384D01*
X72944Y-35974D02*
X72830Y-35860D01*
X74331Y-40647D02*
X73917Y-40647D01*
X73106Y-39836D02*
X73106Y-35656D01*
X73106Y-35656D02*
X72990Y-35540D01*
X73917Y-40647D02*
X73106Y-39836D01*
G54D91*
X70886Y-33302D02*
X70818Y-33234D01*
X70800Y-30460D02*
X70400Y-30460D01*
X70886Y-33659D02*
X70886Y-33302D01*
X70818Y-30478D02*
X70800Y-30460D01*
X70818Y-33234D02*
X70818Y-30478D01*
G54D93*
X71562Y-42848D02*
X71562Y-46072D01*
X71673Y-42737D02*
X71562Y-42848D01*
X71990Y-46500D02*
X76510Y-46500D01*
X71562Y-46072D02*
X71990Y-46500D01*
X71673Y-42321D02*
X71673Y-42737D01*
X75200Y-40710D02*
X75270Y-40640D01*
X74810Y-40710D02*
X75200Y-40710D01*
X74676Y-40844D02*
X74810Y-40710D01*
X74331Y-40844D02*
X74676Y-40844D01*
X74917Y-40057D02*
X74331Y-40057D01*
X74917Y-40057D02*
X74930Y-40070D01*
X74331Y-40451D02*
X74859Y-40451D01*
X74859Y-40451D02*
X74880Y-40430D01*
X71083Y-42321D02*
X71083Y-42753D01*
X70500Y-48260D02*
X70510Y-48250D01*
X71083Y-42753D02*
X71400Y-43070D01*
X70500Y-49500D02*
X70500Y-48260D01*
X71400Y-47360D02*
X70510Y-48250D01*
X71400Y-43070D02*
X71400Y-47360D01*
X73051Y-33659D02*
X73051Y-34061D01*
X73130Y-34140D02*
X73550Y-34140D01*
X74240Y-33450D02*
X74240Y-32700D01*
X73550Y-34140D02*
X74240Y-33450D01*
X73051Y-34061D02*
X73130Y-34140D01*
X76000Y-33150D02*
X75990Y-33140D01*
X72067Y-33183D02*
X72250Y-33000D01*
X72067Y-33659D02*
X72067Y-33183D01*
X75990Y-33140D02*
X75990Y-32700D01*
X72461Y-42719D02*
X72020Y-43160D01*
X72461Y-42321D02*
X72461Y-42719D01*
X72020Y-45980D02*
X72190Y-46150D01*
X72020Y-43160D02*
X72020Y-45980D01*
X61030Y-28430D02*
X59290Y-26690D01*
X61190Y-22800D02*
X61790Y-22800D01*
X59290Y-24700D02*
X61190Y-22800D01*
X65032Y-35758D02*
X63638Y-35758D01*
X59290Y-26690D02*
X59290Y-24700D01*
X65261Y-35529D02*
X65032Y-35758D01*
X61790Y-22800D02*
X61790Y-22840D01*
X64000Y-23500D02*
X62410Y-23500D01*
X61790Y-22840D02*
X62210Y-23260D01*
X62210Y-23260D02*
X62210Y-23300D01*
X61140Y-35260D02*
X61030Y-35150D01*
X65669Y-35529D02*
X65261Y-35529D01*
X63638Y-35758D02*
X63630Y-35750D01*
X64500Y-23000D02*
X64000Y-23500D01*
X62410Y-23500D02*
X62210Y-23300D01*
X61030Y-35150D02*
X61030Y-28430D01*
X61410Y-35150D02*
X61192Y-34932D01*
X65669Y-35726D02*
X65294Y-35726D01*
X62210Y-24260D02*
X62210Y-24300D01*
X61210Y-35700D02*
X61410Y-35500D01*
X61192Y-34932D02*
X61192Y-28362D01*
X61790Y-23800D02*
X61790Y-23840D01*
X63850Y-35920D02*
X63660Y-36110D01*
X61790Y-23840D02*
X62210Y-24260D01*
X59472Y-26642D02*
X59472Y-24748D01*
X65100Y-35920D02*
X63850Y-35920D01*
X65294Y-35726D02*
X65100Y-35920D01*
X61410Y-35500D02*
X61410Y-35150D01*
X61192Y-28362D02*
X59472Y-26642D01*
X59472Y-24748D02*
X60420Y-23800D01*
X62410Y-24500D02*
X62210Y-24300D01*
X64500Y-24000D02*
X64000Y-24500D01*
X64000Y-24500D02*
X62410Y-24500D01*
X60420Y-23800D02*
X61790Y-23800D01*
X61354Y-34864D02*
X61354Y-28294D01*
X61354Y-28294D02*
X59644Y-26584D01*
X61310Y-36060D02*
X61572Y-35798D01*
X66210Y-35620D02*
X66210Y-35570D01*
X71476Y-40886D02*
X71476Y-42321D01*
X59644Y-25186D02*
X60030Y-24800D01*
X59644Y-26584D02*
X59644Y-25186D01*
X71476Y-40886D02*
X66210Y-35620D01*
X61572Y-35082D02*
X61354Y-34864D01*
X61572Y-35798D02*
X61572Y-35082D01*
X61790Y-24800D02*
X61790Y-24840D01*
X61790Y-24800D02*
X60030Y-24800D01*
X62410Y-25500D02*
X62210Y-25300D01*
X64000Y-25500D02*
X62410Y-25500D01*
X64500Y-25000D02*
X64000Y-25500D01*
X61790Y-24840D02*
X62210Y-25260D01*
X62210Y-25260D02*
X62210Y-25300D01*
X59816Y-26526D02*
X59816Y-26074D01*
X62210Y-26260D02*
X62210Y-26300D01*
X61734Y-35014D02*
X61516Y-34796D01*
X64000Y-26500D02*
X62410Y-26500D01*
X72264Y-42321D02*
X72264Y-41444D01*
X62410Y-26500D02*
X62210Y-26300D01*
X64500Y-26000D02*
X64000Y-26500D01*
X59816Y-26074D02*
X60090Y-25800D01*
X61734Y-36176D02*
X61734Y-35014D01*
X61516Y-34796D02*
X61516Y-28226D01*
X61516Y-28226D02*
X59816Y-26526D01*
X61790Y-25840D02*
X62210Y-26260D01*
X72264Y-41444D02*
X66610Y-35790D01*
X61790Y-25800D02*
X61790Y-25840D01*
X60090Y-25800D02*
X61790Y-25800D01*
X66610Y-35790D02*
X66610Y-35640D01*
X61560Y-36350D02*
X61734Y-36176D01*
G54D94*
X75450Y-27051D02*
X74249Y-27051D01*
X74150Y-27150D02*
X74150Y-26300D01*
X75450Y-27051D02*
X76059Y-27051D01*
X76059Y-27051D02*
X77110Y-26000D01*
G54D88*
X73020Y-28100D02*
X73790Y-28100D01*
X71990Y-26400D02*
X71990Y-27070D01*
X71990Y-27070D02*
X73020Y-28100D01*
G54D94*
X77110Y-26000D02*
X77500Y-26000D01*
G54D88*
X74150Y-27740D02*
X74150Y-27150D01*
G54D94*
X74249Y-27051D02*
X74150Y-27150D01*
G54D88*
X73790Y-28100D02*
X74150Y-27740D01*
X71990Y-22490D02*
X72570Y-21910D01*
X71990Y-22700D02*
X71990Y-22490D01*
X74150Y-22310D02*
X74150Y-22850D01*
G54D94*
X74249Y-22949D02*
X74150Y-22850D01*
G54D88*
X71990Y-23100D02*
X71990Y-22700D01*
G54D94*
X77449Y-22949D02*
X77500Y-23000D01*
X74150Y-22850D02*
X74150Y-23700D01*
X75450Y-22949D02*
X74249Y-22949D01*
X75450Y-22949D02*
X77449Y-22949D01*
G54D88*
X73750Y-21910D02*
X74150Y-22310D01*
X72570Y-21910D02*
X73750Y-21910D01*
G54D93*
X65980Y-34140D02*
X68034Y-36194D01*
X64320Y-31060D02*
X64320Y-32500D01*
X71064Y-36194D02*
X72560Y-37690D01*
X73740Y-37710D02*
X73755Y-37695D01*
X65090Y-30570D02*
X64810Y-30570D01*
X64810Y-30570D02*
X64320Y-31060D01*
X74500Y-49500D02*
X74500Y-48260D01*
X65140Y-29400D02*
X65440Y-29700D01*
X65340Y-34140D02*
X65980Y-34140D01*
X65000Y-29400D02*
X65140Y-29400D01*
X65440Y-30220D02*
X65090Y-30570D01*
X68034Y-36194D02*
X71064Y-36194D01*
X65440Y-29700D02*
X65440Y-30220D01*
X65330Y-34130D02*
X65340Y-34140D01*
X74500Y-48260D02*
X74510Y-48250D01*
X73755Y-37695D02*
X74331Y-37695D01*
X69112Y-32988D02*
X69112Y-32548D01*
X69112Y-32548D02*
X69200Y-32460D01*
X68917Y-33183D02*
X69112Y-32988D01*
X68917Y-33659D02*
X68917Y-33183D01*
X67327Y-39073D02*
X65669Y-39073D01*
X67610Y-38790D02*
X67327Y-39073D01*
X66250Y-36120D02*
X65669Y-36120D01*
X66370Y-36240D02*
X66250Y-36120D01*
X66557Y-36907D02*
X65669Y-36907D01*
X66660Y-37010D02*
X66557Y-36907D01*
X66960Y-37490D02*
X66952Y-37498D01*
X66952Y-37498D02*
X65669Y-37498D01*
X66175Y-37695D02*
X65669Y-37695D01*
X67440Y-37760D02*
X66240Y-37760D01*
X66240Y-37760D02*
X66175Y-37695D01*
X67278Y-38088D02*
X65669Y-38088D01*
X67290Y-38100D02*
X67278Y-38088D01*
X67650Y-38380D02*
X66950Y-38380D01*
X66855Y-38285D02*
X65669Y-38285D01*
X67710Y-38440D02*
X67650Y-38380D01*
X66950Y-38380D02*
X66855Y-38285D01*
X65669Y-36710D02*
X66560Y-36710D01*
X66650Y-36620D02*
X66560Y-36710D01*
X67130Y-37150D02*
X66910Y-37150D01*
X67190Y-37210D02*
X67130Y-37150D01*
X66759Y-37301D02*
X65669Y-37301D01*
X66910Y-37150D02*
X66759Y-37301D01*
X65156Y-32044D02*
X62714Y-34486D01*
X66584Y-32044D02*
X65156Y-32044D01*
X62714Y-41706D02*
X62020Y-42400D01*
X67343Y-33659D02*
X67343Y-32803D01*
X62714Y-34486D02*
X62714Y-41706D01*
X62020Y-42400D02*
X59560Y-42400D01*
X67343Y-32803D02*
X66584Y-32044D01*
X63038Y-34622D02*
X65292Y-32368D01*
X61680Y-43200D02*
X63038Y-41842D01*
X59560Y-43200D02*
X61680Y-43200D01*
X63038Y-41842D02*
X63038Y-34622D01*
X66949Y-32869D02*
X66949Y-33659D01*
X66448Y-32368D02*
X66949Y-32869D01*
X65292Y-32368D02*
X66448Y-32368D01*
X63524Y-42046D02*
X63524Y-39786D01*
X64040Y-39270D02*
X65669Y-39270D01*
X61170Y-44400D02*
X63524Y-42046D01*
X63524Y-39786D02*
X64040Y-39270D01*
X59560Y-44400D02*
X61170Y-44400D01*
X64206Y-40254D02*
X64010Y-40450D01*
X60660Y-45600D02*
X59560Y-45600D01*
X65669Y-40254D02*
X64206Y-40254D01*
X64010Y-42250D02*
X60660Y-45600D01*
X64010Y-40450D02*
X64010Y-42250D01*
X65669Y-40451D02*
X64341Y-40451D01*
X60490Y-46000D02*
X59560Y-46000D01*
X64341Y-40451D02*
X64172Y-40620D01*
X64172Y-42318D02*
X60490Y-46000D01*
X64172Y-40620D02*
X64172Y-42318D01*
X67010Y-34710D02*
X66000Y-33700D01*
X66000Y-33700D02*
X64580Y-33700D01*
X70689Y-33659D02*
X70689Y-34231D01*
X70689Y-34231D02*
X70210Y-34710D01*
X62190Y-42000D02*
X59560Y-42000D01*
X62552Y-34248D02*
X62552Y-41638D01*
X62720Y-34080D02*
X62552Y-34248D01*
X62552Y-41638D02*
X62190Y-42000D01*
X70210Y-34710D02*
X67010Y-34710D01*
X67146Y-32836D02*
X66516Y-32206D01*
X66516Y-32206D02*
X65224Y-32206D01*
X62876Y-41774D02*
X61850Y-42800D01*
X67146Y-33659D02*
X67146Y-32836D01*
X61850Y-42800D02*
X59560Y-42800D01*
X65224Y-32206D02*
X62876Y-34554D01*
X62876Y-34554D02*
X62876Y-41774D01*
X63200Y-41910D02*
X61510Y-43600D01*
X65360Y-32530D02*
X63200Y-34690D01*
X66752Y-32902D02*
X66380Y-32530D01*
X66752Y-33659D02*
X66752Y-32902D01*
X61510Y-43600D02*
X59560Y-43600D01*
X63200Y-34690D02*
X63200Y-41910D01*
X66380Y-32530D02*
X65360Y-32530D01*
X59560Y-44800D02*
X61000Y-44800D01*
X61000Y-44800D02*
X63686Y-42114D01*
X63686Y-39854D02*
X64074Y-39466D01*
X64074Y-39466D02*
X65669Y-39466D01*
X63686Y-42114D02*
X63686Y-39854D01*
X63848Y-40080D02*
X63848Y-42182D01*
X64142Y-39628D02*
X65078Y-39628D01*
X63848Y-40080D02*
X63848Y-39922D01*
X60830Y-45200D02*
X59560Y-45200D01*
X65310Y-39860D02*
X65669Y-39860D01*
X63848Y-39922D02*
X64142Y-39628D01*
X63848Y-42182D02*
X60830Y-45200D01*
X65078Y-39628D02*
X65310Y-39860D01*
X65570Y-46800D02*
X59560Y-46800D01*
X67970Y-44400D02*
X65570Y-46800D01*
X67736Y-42696D02*
X67970Y-42930D01*
X67736Y-42321D02*
X67736Y-42696D01*
X67970Y-42930D02*
X67970Y-44400D01*
X59560Y-47200D02*
X65400Y-47200D01*
X65400Y-47200D02*
X68524Y-44076D01*
X68524Y-44076D02*
X68524Y-42321D01*
X68720Y-44110D02*
X68720Y-42321D01*
X59560Y-47600D02*
X65230Y-47600D01*
X65230Y-47600D02*
X68720Y-44110D01*
X61340Y-44000D02*
X63362Y-41978D01*
X63808Y-34742D02*
X65669Y-34742D01*
X63362Y-41978D02*
X63362Y-35188D01*
X63362Y-35188D02*
X63808Y-34742D01*
X59560Y-44000D02*
X61340Y-44000D01*
X72264Y-34046D02*
X72258Y-34052D01*
X62230Y-41600D02*
X59560Y-41600D01*
X70528Y-36032D02*
X68102Y-36032D01*
X62390Y-34460D02*
X62390Y-41440D01*
X62280Y-34350D02*
X62390Y-34460D01*
X72258Y-34052D02*
X72258Y-34302D01*
X62390Y-41440D02*
X62230Y-41600D01*
X65932Y-33862D02*
X64798Y-33862D01*
X64798Y-33862D02*
X64580Y-34080D01*
X72258Y-34302D02*
X70528Y-36032D01*
X72264Y-33659D02*
X72264Y-34046D01*
X68102Y-36032D02*
X65932Y-33862D01*
X81250Y-40570D02*
X81180Y-40640D01*
X80200Y-40640D02*
X79830Y-40270D01*
X74331Y-38482D02*
X76822Y-38482D01*
X77500Y-40500D02*
X78500Y-40500D01*
X77070Y-40070D02*
X77500Y-40500D01*
X81180Y-40640D02*
X80200Y-40640D01*
X81250Y-39500D02*
X81250Y-40570D01*
X76822Y-38482D02*
X77070Y-38730D01*
X77070Y-38730D02*
X77070Y-40070D01*
X80750Y-39500D02*
X80750Y-40140D01*
X76746Y-39090D02*
X76746Y-42746D01*
X80750Y-40140D02*
X80690Y-40200D01*
X74331Y-38876D02*
X76532Y-38876D01*
X77500Y-43500D02*
X78500Y-43500D01*
X76746Y-42746D02*
X77500Y-43500D01*
X76532Y-38876D02*
X76746Y-39090D01*
X76908Y-41908D02*
X77500Y-42500D01*
X79750Y-42500D02*
X78500Y-42500D01*
X74331Y-38679D02*
X76687Y-38679D01*
X77500Y-42500D02*
X78500Y-42500D01*
X76908Y-38900D02*
X76908Y-41908D01*
X76687Y-38679D02*
X76908Y-38900D01*
X74331Y-39663D02*
X74963Y-39663D01*
X75500Y-40200D02*
X76300Y-40200D01*
X80250Y-41980D02*
X79770Y-41500D01*
X74963Y-39663D02*
X75500Y-40200D01*
X80250Y-42500D02*
X80250Y-41980D01*
X76300Y-40200D02*
X76450Y-40350D01*
X79770Y-41500D02*
X78500Y-41500D01*
X77500Y-41500D02*
X78500Y-41500D01*
X76323Y-39073D02*
X76450Y-39200D01*
X74331Y-39073D02*
X76323Y-39073D01*
X77500Y-38500D02*
X78500Y-38500D01*
X80250Y-38810D02*
X80250Y-39500D01*
X79940Y-38500D02*
X80250Y-38810D01*
X78500Y-38500D02*
X79940Y-38500D01*
X74331Y-39466D02*
X75066Y-39466D01*
X75500Y-39900D02*
X76450Y-39900D01*
X80750Y-41750D02*
X78500Y-39500D01*
X77500Y-39500D02*
X78500Y-39500D01*
X75066Y-39466D02*
X75500Y-39900D01*
X80750Y-42500D02*
X80750Y-41750D01*
X65390Y-28530D02*
X63910Y-28530D01*
X68222Y-31362D02*
X65390Y-28530D01*
X68222Y-33062D02*
X68222Y-31362D01*
X68327Y-33659D02*
X68327Y-33167D01*
X63900Y-28160D02*
X63900Y-28520D01*
X63900Y-28520D02*
X63910Y-28530D01*
X68327Y-33167D02*
X68222Y-33062D01*
X68384Y-32994D02*
X68384Y-31294D01*
X68384Y-31294D02*
X65340Y-28250D01*
X68524Y-33659D02*
X68524Y-33134D01*
X65340Y-28250D02*
X64500Y-28250D01*
X68524Y-33134D02*
X68384Y-32994D01*
X65870Y-31100D02*
X65870Y-29720D01*
X65870Y-29720D02*
X65140Y-28990D01*
X67539Y-33659D02*
X67539Y-32769D01*
X65810Y-31040D02*
X65870Y-31100D01*
X67539Y-32769D02*
X65870Y-31100D01*
X64410Y-28990D02*
X64000Y-29400D01*
X65810Y-31000D02*
X65810Y-31040D01*
X65140Y-28990D02*
X64410Y-28990D01*
X65208Y-28828D02*
X63572Y-28828D01*
X67736Y-33659D02*
X67736Y-32736D01*
X66032Y-31032D02*
X66032Y-29652D01*
X67736Y-32736D02*
X66032Y-31032D01*
X66032Y-29652D02*
X65208Y-28828D01*
X63572Y-28828D02*
X63000Y-29400D01*
X68130Y-42810D02*
X68240Y-42920D01*
X68130Y-42321D02*
X68130Y-42810D01*
X66660Y-44070D02*
X67280Y-44690D01*
X66949Y-42321D02*
X66949Y-42701D01*
X66660Y-42990D02*
X66660Y-44070D01*
X66949Y-42701D02*
X66660Y-42990D01*
X69114Y-42321D02*
X69114Y-44814D01*
X69114Y-44814D02*
X69500Y-45200D01*
X68917Y-42321D02*
X68917Y-45417D01*
X68917Y-45417D02*
X69500Y-46000D01*
G54D88*
X70390Y-25840D02*
X70460Y-25840D01*
X70460Y-25840D02*
X70475Y-25825D01*
X69940Y-25840D02*
X70100Y-25840D01*
G54D90*
X73159Y-25000D02*
X72800Y-25000D01*
G54D88*
X72540Y-25160D02*
X72700Y-25000D01*
X72540Y-25160D02*
X72450Y-25160D01*
X70475Y-25825D02*
X70950Y-25350D01*
G54D94*
X70950Y-25350D02*
X71800Y-25350D01*
G54D88*
X72260Y-25350D02*
X72450Y-25160D01*
X69650Y-25550D02*
X69940Y-25840D01*
X71800Y-25350D02*
X72260Y-25350D01*
X70100Y-25840D02*
X70390Y-25840D01*
X69650Y-25334D02*
X69650Y-25550D01*
X72700Y-25000D02*
X72800Y-25000D01*
X70690Y-26040D02*
X70475Y-25825D01*
X70750Y-26040D02*
X70690Y-26040D01*
X51260Y-46750D02*
X51300Y-46790D01*
G54D95*
X49800Y-42500D02*
X50850Y-42500D01*
G54D89*
X51638Y-46062D02*
X51638Y-45650D01*
G54D88*
X50860Y-46300D02*
X51400Y-46300D01*
X51300Y-46790D02*
X51300Y-46400D01*
X49410Y-42500D02*
X49800Y-42500D01*
X51300Y-46400D02*
X51400Y-46300D01*
X50860Y-46750D02*
X51260Y-46750D01*
G54D89*
X51638Y-46062D02*
X51400Y-46300D01*
G54D93*
X71590Y-28340D02*
X71590Y-27660D01*
X71380Y-28550D02*
X71590Y-28340D01*
X71840Y-42950D02*
X71830Y-42950D01*
X72067Y-42723D02*
X71840Y-42950D01*
X72067Y-42321D02*
X72067Y-42723D01*
X72550Y-32360D02*
X72038Y-32360D01*
X72015Y-32383D02*
X72015Y-32465D01*
X71360Y-33170D02*
X71280Y-33250D01*
X71690Y-32790D02*
X71690Y-32960D01*
X71480Y-33170D02*
X71360Y-33170D01*
X71280Y-33250D02*
X71280Y-33659D01*
X72015Y-32465D02*
X71690Y-32790D01*
X72038Y-32360D02*
X72015Y-32383D01*
X71690Y-32960D02*
X71480Y-33170D01*
X71083Y-33283D02*
X71083Y-33659D01*
X71001Y-31901D02*
X71001Y-33201D01*
X71001Y-33201D02*
X71083Y-33283D01*
X71440Y-30950D02*
X71440Y-31462D01*
X71000Y-31902D02*
X71001Y-31901D01*
X71001Y-31901D02*
X71385Y-31517D01*
X71440Y-31462D02*
X71385Y-31517D01*
X57340Y-36940D02*
X56340Y-36940D01*
X64257Y-40057D02*
X64180Y-39980D01*
X54313Y-35633D02*
X54320Y-35640D01*
X65669Y-40057D02*
X64257Y-40057D01*
X53658Y-35633D02*
X54313Y-35633D01*
X51450Y-29710D02*
X51360Y-29620D01*
X51180Y-30230D02*
X51450Y-29960D01*
X51146Y-28206D02*
X51146Y-29406D01*
X65669Y-41041D02*
X65311Y-41041D01*
X65311Y-41041D02*
X65020Y-40750D01*
X51450Y-29960D02*
X51450Y-29710D01*
X51146Y-29406D02*
X51360Y-29620D01*
X47906Y-42926D02*
X48498Y-43518D01*
X50266Y-43484D02*
X50850Y-43484D01*
X47906Y-38004D02*
X47906Y-42926D01*
X51217Y-33192D02*
X49328Y-33192D01*
X49328Y-33192D02*
X48694Y-33826D01*
X48498Y-43518D02*
X50232Y-43518D01*
X48694Y-37216D02*
X47906Y-38004D01*
X50232Y-43518D02*
X50266Y-43484D01*
X48694Y-33826D02*
X48694Y-37216D01*
X48856Y-33894D02*
X48856Y-37284D01*
X48856Y-37284D02*
X48068Y-38072D01*
X50164Y-43356D02*
X50233Y-43287D01*
X48068Y-42858D02*
X48566Y-43356D01*
X51217Y-33389D02*
X49361Y-33389D01*
X48566Y-43356D02*
X50164Y-43356D01*
X49361Y-33389D02*
X48856Y-33894D01*
X48068Y-38072D02*
X48068Y-42858D01*
X50233Y-43287D02*
X50850Y-43287D01*
X51217Y-33586D02*
X49394Y-33586D01*
X48634Y-43194D02*
X50096Y-43194D01*
X48230Y-42790D02*
X48634Y-43194D01*
X50199Y-43091D02*
X50850Y-43091D01*
X49394Y-33586D02*
X49018Y-33962D01*
X49018Y-33962D02*
X49018Y-37352D01*
X48230Y-38140D02*
X48230Y-42790D01*
X50096Y-43194D02*
X50199Y-43091D01*
X49018Y-37352D02*
X48230Y-38140D01*
X49180Y-34030D02*
X49180Y-37420D01*
X48702Y-43032D02*
X50028Y-43032D01*
X48392Y-38208D02*
X48392Y-42722D01*
X48392Y-42722D02*
X48702Y-43032D01*
X50166Y-42894D02*
X50850Y-42894D01*
X51217Y-33783D02*
X49427Y-33783D01*
X49180Y-37420D02*
X48392Y-38208D01*
X50028Y-43032D02*
X50166Y-42894D01*
X49427Y-33783D02*
X49180Y-34030D01*
X50100Y-36730D02*
X48554Y-38276D01*
X50133Y-42697D02*
X49960Y-42870D01*
X51057Y-34373D02*
X51217Y-34373D01*
X50850Y-42697D02*
X50133Y-42697D01*
X48554Y-38276D02*
X48554Y-42654D01*
X50100Y-35330D02*
X50100Y-35440D01*
X49960Y-42870D02*
X48770Y-42870D01*
X48770Y-42870D02*
X48554Y-42654D01*
X50100Y-35440D02*
X50100Y-36730D01*
X51057Y-34373D02*
X50100Y-35330D01*
X48716Y-38344D02*
X48716Y-40906D01*
X51217Y-34570D02*
X51060Y-34570D01*
X50113Y-42303D02*
X50850Y-42303D01*
X50270Y-35480D02*
X50270Y-36790D01*
X51060Y-34570D02*
X50270Y-35360D01*
X50270Y-36790D02*
X48716Y-38344D01*
X48716Y-40906D02*
X50113Y-42303D01*
X50270Y-35360D02*
X50270Y-35480D01*
X50440Y-35530D02*
X50440Y-36850D01*
X50146Y-42106D02*
X50850Y-42106D01*
X51217Y-34767D02*
X51063Y-34767D01*
X48878Y-38412D02*
X48878Y-40838D01*
X50440Y-35390D02*
X50440Y-35530D01*
X51063Y-34767D02*
X50440Y-35390D01*
X50440Y-36850D02*
X48878Y-38412D01*
X48878Y-40838D02*
X50146Y-42106D01*
X49040Y-40770D02*
X50179Y-41909D01*
X50610Y-35980D02*
X50610Y-36910D01*
X50610Y-36910D02*
X49040Y-38480D01*
X51066Y-34964D02*
X50610Y-35420D01*
X49040Y-38480D02*
X49040Y-40770D01*
X50610Y-35980D02*
X50610Y-35420D01*
X51217Y-34964D02*
X51066Y-34964D01*
X50179Y-41909D02*
X50850Y-41909D01*
X50780Y-36970D02*
X49202Y-38548D01*
X51069Y-35161D02*
X50780Y-35450D01*
X51217Y-35161D02*
X51069Y-35161D01*
X50780Y-35910D02*
X50780Y-35450D01*
X50780Y-35910D02*
X50780Y-36970D01*
X49202Y-40702D02*
X50213Y-41713D01*
X49202Y-38548D02*
X49202Y-40702D01*
X50213Y-41713D02*
X50850Y-41713D01*
X51217Y-36763D02*
X49364Y-38616D01*
X50246Y-41516D02*
X50850Y-41516D01*
X49364Y-38616D02*
X49364Y-40634D01*
X51217Y-35358D02*
X51217Y-36763D01*
X49364Y-40634D02*
X50246Y-41516D01*
X49526Y-38684D02*
X49526Y-40566D01*
X49526Y-40566D02*
X50279Y-41319D01*
X50279Y-41319D02*
X50850Y-41319D01*
X51492Y-36718D02*
X49526Y-38684D01*
X51492Y-35633D02*
X51492Y-36718D01*
X51689Y-35633D02*
X51689Y-36751D01*
X50115Y-40925D02*
X50850Y-40925D01*
X49688Y-40498D02*
X50115Y-40925D01*
X49688Y-38752D02*
X49688Y-40498D01*
X51689Y-36751D02*
X49688Y-38752D01*
X51886Y-36784D02*
X49850Y-38820D01*
X49850Y-38820D02*
X49850Y-40430D01*
X50148Y-40728D02*
X50850Y-40728D01*
X49850Y-40430D02*
X50148Y-40728D01*
X51886Y-35633D02*
X51886Y-36784D01*
X52083Y-35633D02*
X52083Y-36817D01*
X51370Y-37530D02*
X51370Y-40430D01*
X52083Y-36817D02*
X51370Y-37530D01*
X51370Y-40430D02*
X51269Y-40531D01*
X51269Y-40531D02*
X50850Y-40531D01*
X51835Y-38935D02*
X51835Y-39350D01*
X52280Y-36850D02*
X51532Y-37598D01*
X51532Y-38632D02*
X51835Y-38935D01*
X51532Y-37598D02*
X51532Y-38632D01*
X52280Y-35633D02*
X52280Y-36850D01*
X52477Y-35633D02*
X52477Y-38297D01*
X52477Y-38297D02*
X52819Y-38639D01*
X52819Y-38639D02*
X52819Y-39350D01*
X52673Y-38213D02*
X53016Y-38556D01*
X52673Y-35633D02*
X52673Y-38213D01*
X53016Y-38556D02*
X53016Y-39350D01*
X52815Y-35940D02*
X52815Y-38155D01*
X52870Y-35633D02*
X52870Y-35885D01*
X53213Y-38553D02*
X53213Y-39350D01*
X52815Y-38155D02*
X53213Y-38553D01*
X52870Y-35885D02*
X52815Y-35940D01*
G54D91*
X47650Y-31600D02*
X47087Y-31600D01*
X52031Y-38731D02*
X52031Y-39350D01*
X51800Y-38500D02*
X52031Y-38731D01*
X52673Y-32917D02*
X52673Y-32527D01*
X52673Y-32527D02*
X52750Y-32450D01*
X47497Y-31797D02*
X47087Y-31797D01*
X50850Y-40335D02*
X50225Y-40335D01*
X50200Y-40360D02*
X50225Y-40335D01*
X47497Y-31797D02*
X47650Y-31950D01*
G54D89*
X51492Y-32917D02*
X51097Y-32917D01*
X44295Y-46325D02*
X44300Y-46320D01*
G54D88*
X57940Y-43160D02*
X57900Y-43200D01*
G54D89*
X51097Y-32917D02*
X51020Y-32840D01*
X38052Y-28165D02*
X38052Y-28698D01*
G54D94*
X73100Y-23700D02*
X72900Y-23500D01*
G54D88*
X58610Y-23300D02*
X58610Y-22910D01*
X35200Y-27200D02*
X35100Y-27300D01*
X37360Y-22950D02*
X37750Y-22950D01*
X53525Y-31665D02*
X53925Y-31665D01*
X44915Y-30815D02*
X45000Y-30900D01*
X52525Y-30635D02*
X52525Y-30975D01*
X79750Y-39500D02*
X79340Y-39500D01*
G54D93*
X36173Y-23650D02*
X35800Y-23650D01*
G54D88*
X54325Y-31665D02*
X54325Y-31375D01*
X33710Y-35640D02*
X33700Y-35650D01*
G54D89*
X50642Y-23225D02*
X50785Y-23225D01*
G54D88*
X38010Y-31500D02*
X38010Y-31900D01*
G54D90*
X74341Y-25000D02*
X74900Y-25000D01*
G54D88*
X37970Y-40260D02*
X38100Y-40130D01*
X35240Y-31890D02*
X35250Y-31900D01*
G54D96*
X36640Y-40000D02*
X36510Y-39870D01*
G54D88*
X40260Y-27400D02*
X40650Y-27400D01*
X43567Y-30093D02*
X43940Y-29720D01*
X37695Y-40260D02*
X37970Y-40260D01*
X73560Y-32600D02*
X73560Y-32210D01*
X35777Y-33100D02*
X36050Y-33100D01*
X45090Y-29900D02*
X45090Y-29500D01*
X53925Y-31665D02*
X53925Y-31375D01*
X70600Y-45510D02*
X70790Y-45510D01*
X48815Y-27025D02*
X48435Y-27025D01*
X70350Y-32090D02*
X70350Y-31690D01*
X73250Y-43810D02*
X73250Y-44200D01*
X49225Y-25515D02*
X49225Y-25125D01*
X57410Y-31100D02*
X57410Y-30810D01*
G54D89*
X74331Y-41435D02*
X74835Y-41435D01*
G54D96*
X35270Y-39060D02*
X35400Y-38930D01*
G54D90*
X68988Y-23281D02*
X68988Y-23762D01*
G54D88*
X38510Y-41650D02*
X38900Y-41650D01*
X52700Y-47210D02*
X52700Y-47600D01*
G54D92*
X50674Y-27576D02*
X51225Y-27025D01*
G54D88*
X48815Y-27825D02*
X48425Y-27825D01*
X72450Y-24740D02*
X72450Y-24400D01*
X67500Y-28700D02*
X67900Y-29100D01*
X55550Y-35050D02*
X55600Y-35100D01*
X71990Y-23500D02*
X71600Y-23500D01*
G54D89*
X51508Y-23225D02*
X51365Y-23225D01*
G54D88*
X33490Y-38000D02*
X33150Y-38000D01*
G54D96*
X38096Y-32704D02*
X38100Y-32700D01*
G54D88*
X70790Y-45510D02*
X71000Y-45300D01*
X40260Y-28200D02*
X40260Y-28390D01*
X33490Y-37550D02*
X33490Y-37210D01*
G54D89*
X50850Y-41122D02*
X51302Y-41122D01*
X67146Y-42321D02*
X67146Y-43044D01*
X52477Y-34177D02*
X52575Y-34275D01*
G54D88*
X50325Y-29735D02*
X50225Y-29835D01*
G54D89*
X38052Y-28698D02*
X38050Y-28700D01*
G54D88*
X69200Y-31700D02*
X69250Y-31650D01*
X76200Y-31600D02*
X76200Y-31100D01*
X47360Y-33100D02*
X47590Y-33100D01*
X49965Y-34600D02*
X49620Y-34600D01*
X52775Y-31465D02*
X52685Y-31375D01*
X53855Y-36885D02*
X53860Y-36890D01*
X57540Y-26100D02*
X57150Y-26100D01*
X51300Y-47210D02*
X51300Y-47600D01*
X44433Y-30815D02*
X44915Y-30815D01*
X76360Y-25000D02*
X76750Y-25000D01*
G54D96*
X35270Y-39060D02*
X34995Y-39060D01*
X36500Y-38350D02*
X36060Y-38350D01*
G54D89*
X52675Y-34275D02*
X52575Y-34275D01*
G54D88*
X43010Y-23490D02*
X43000Y-23500D01*
G54D89*
X74331Y-36317D02*
X73753Y-36317D01*
X57352Y-40138D02*
X57500Y-39990D01*
G54D88*
X29063Y-44459D02*
X33069Y-44459D01*
X33930Y-38800D02*
X33800Y-38670D01*
G54D89*
X51365Y-23225D02*
X51145Y-23445D01*
G54D88*
X33069Y-44459D02*
X33070Y-44460D01*
X41750Y-39960D02*
X41750Y-40350D01*
G54D89*
X53758Y-35358D02*
X52675Y-34275D01*
G54D88*
X62500Y-32610D02*
X62500Y-33000D01*
X72400Y-45050D02*
X72800Y-45050D01*
X75810Y-41050D02*
X76200Y-41050D01*
X57350Y-24450D02*
X57350Y-24850D01*
X48410Y-31100D02*
X48410Y-31360D01*
X40260Y-28390D02*
X40050Y-28600D01*
G54D89*
X51217Y-33980D02*
X52280Y-33980D01*
G54D88*
X37760Y-36900D02*
X38150Y-36900D01*
X48435Y-27025D02*
X48415Y-27045D01*
X75810Y-35150D02*
X76200Y-35150D01*
G54D93*
X36600Y-31777D02*
X36600Y-32150D01*
G54D88*
X35450Y-29010D02*
X35810Y-29010D01*
G54D96*
X35270Y-38800D02*
X35400Y-38930D01*
G54D88*
X45260Y-34590D02*
X45250Y-34600D01*
G54D89*
X74835Y-41435D02*
X74960Y-41560D01*
G54D88*
X35840Y-34900D02*
X35840Y-34790D01*
X49620Y-34600D02*
X49580Y-34640D01*
X40500Y-25190D02*
X40100Y-25190D01*
X72015Y-31517D02*
X72083Y-31517D01*
X74450Y-31600D02*
X74040Y-31190D01*
G54D94*
X55800Y-23800D02*
X55800Y-24400D01*
G54D88*
X33190Y-40000D02*
X33190Y-39620D01*
X43500Y-39090D02*
X43500Y-38700D01*
X57410Y-30810D02*
X57400Y-30800D01*
X35840Y-34790D02*
X35650Y-34600D01*
X48260Y-32300D02*
X48550Y-32300D01*
G54D89*
X72854Y-33659D02*
X72854Y-34176D01*
G54D88*
X37970Y-40000D02*
X38100Y-40130D01*
G54D89*
X40295Y-46335D02*
X40280Y-46320D01*
G54D93*
X73200Y-28700D02*
X73500Y-29000D01*
G54D89*
X52870Y-32917D02*
X52870Y-33980D01*
G54D88*
X36810Y-29100D02*
X36810Y-28740D01*
X75810Y-35950D02*
X76200Y-35950D01*
X49620Y-34200D02*
X49580Y-34160D01*
X37960Y-34840D02*
X37950Y-34850D01*
X33190Y-39150D02*
X33190Y-38790D01*
G54D96*
X34995Y-38800D02*
X35270Y-38800D01*
G54D88*
X53525Y-31665D02*
X53525Y-31375D01*
X70700Y-43810D02*
X70700Y-44200D01*
X37970Y-40000D02*
X37695Y-40000D01*
X43400Y-23490D02*
X43010Y-23490D01*
G54D96*
X36905Y-40000D02*
X36640Y-40000D01*
G54D88*
X61790Y-23300D02*
X61400Y-23300D01*
X67540Y-43830D02*
X67540Y-44230D01*
X35200Y-26960D02*
X35200Y-27200D01*
X50200Y-38890D02*
X50590Y-38890D01*
G54D89*
X50785Y-23225D02*
X51005Y-23005D01*
G54D88*
X75810Y-37100D02*
X76200Y-37100D01*
X51575Y-31665D02*
X51575Y-31335D01*
X33930Y-38540D02*
X34205Y-38540D01*
X34205Y-38800D02*
X33930Y-38800D01*
G54D96*
X36640Y-39740D02*
X36905Y-39740D01*
G54D94*
X73100Y-26300D02*
X72900Y-26500D01*
G54D88*
X50590Y-38890D02*
X50600Y-38900D01*
X57940Y-43160D02*
X58300Y-43160D01*
X35240Y-31500D02*
X35240Y-31890D01*
X57350Y-24850D02*
X57400Y-24900D01*
G54D89*
X52280Y-33980D02*
X52575Y-34275D01*
X53933Y-34373D02*
X52673Y-34373D01*
G54D88*
X49925Y-29435D02*
X49525Y-29435D01*
X79340Y-39500D02*
X79330Y-39490D01*
X53635Y-26375D02*
X53635Y-25975D01*
X71350Y-32850D02*
X71350Y-32418D01*
X55360Y-33150D02*
X55360Y-32960D01*
X72083Y-31517D02*
X72500Y-31100D01*
X51075Y-24615D02*
X51075Y-24225D01*
G54D93*
X55181Y-45011D02*
X55180Y-45010D01*
G54D88*
X65540Y-32850D02*
X65540Y-33240D01*
X40490Y-24300D02*
X40490Y-24680D01*
X53525Y-30635D02*
X53525Y-30975D01*
X54075Y-29015D02*
X54075Y-28675D01*
X70790Y-27660D02*
X70790Y-28050D01*
X43567Y-30185D02*
X43567Y-30093D01*
G54D89*
X52870Y-33980D02*
X52575Y-34275D01*
G54D88*
X70100Y-27110D02*
X70100Y-27500D01*
G54D89*
X57500Y-39990D02*
X57500Y-39850D01*
G54D88*
X53025Y-30635D02*
X53025Y-30975D01*
X37760Y-37350D02*
X37760Y-37710D01*
X54575Y-29015D02*
X54575Y-28675D01*
X65540Y-33240D02*
X65550Y-33250D01*
X45650Y-34590D02*
X45260Y-34590D01*
X48515Y-27425D02*
X48125Y-27425D01*
X52275Y-24615D02*
X52275Y-24225D01*
G54D94*
X73350Y-27150D02*
X73350Y-27650D01*
G54D89*
X66306Y-35136D02*
X66310Y-35140D01*
G54D94*
X73350Y-26300D02*
X73100Y-26300D01*
G54D93*
X34900Y-22827D02*
X34900Y-23200D01*
G54D88*
X54725Y-31665D02*
X54725Y-31375D01*
X53075Y-37205D02*
X53130Y-37260D01*
X58610Y-22910D02*
X58600Y-22900D01*
X40500Y-27800D02*
X40650Y-27950D01*
X70790Y-46310D02*
X71000Y-46100D01*
X71860Y-30950D02*
X71860Y-30560D01*
X55075Y-29015D02*
X55075Y-28675D01*
G54D93*
X53803Y-45017D02*
X53810Y-45010D01*
G54D88*
X53635Y-27725D02*
X53635Y-28125D01*
X55460Y-34400D02*
X55650Y-34400D01*
X52775Y-31665D02*
X52775Y-31465D01*
X54800Y-35910D02*
X54690Y-35910D01*
G54D96*
X36640Y-39740D02*
X36510Y-39870D01*
G54D88*
X33690Y-42550D02*
X33290Y-42550D01*
X35940Y-27300D02*
X35630Y-27300D01*
G54D89*
X50308Y-23225D02*
X49935Y-23225D01*
G54D88*
X61790Y-26300D02*
X61400Y-26300D01*
X34140Y-34050D02*
X33750Y-34050D01*
X70600Y-46310D02*
X70790Y-46310D01*
X51575Y-31335D02*
X51505Y-31265D01*
X36810Y-28740D02*
X36850Y-28700D01*
G54D89*
X51302Y-41122D02*
X51460Y-41280D01*
G54D92*
X51934Y-25844D02*
X51934Y-26316D01*
G54D88*
X56540Y-24900D02*
X56150Y-24900D01*
X37760Y-38200D02*
X38150Y-38200D01*
X41500Y-26010D02*
X41500Y-26350D01*
X34140Y-34750D02*
X33750Y-34750D01*
G54D89*
X53933Y-35358D02*
X53758Y-35358D01*
X69902Y-34298D02*
X69900Y-34300D01*
G54D92*
X50516Y-27734D02*
X51225Y-27025D01*
G54D88*
X35810Y-29010D02*
X35850Y-29050D01*
X38510Y-30650D02*
X38890Y-30650D01*
X34680Y-41880D02*
X34680Y-42180D01*
X53795Y-27325D02*
X53985Y-27515D01*
X52025Y-30635D02*
X52025Y-30975D01*
G54D90*
X68988Y-23762D02*
X68800Y-23950D01*
G54D88*
X40260Y-27000D02*
X40550Y-27000D01*
G54D89*
X67146Y-43044D02*
X67000Y-43190D01*
G54D94*
X71800Y-24550D02*
X71800Y-24000D01*
G54D88*
X46860Y-30050D02*
X46860Y-29740D01*
X36160Y-22550D02*
X36560Y-22550D01*
X35640Y-25050D02*
X35300Y-25050D01*
X71990Y-26000D02*
X71600Y-26000D01*
X69200Y-32040D02*
X69200Y-31700D01*
G54D89*
X57150Y-43287D02*
X57813Y-43287D01*
G54D92*
X50516Y-28206D02*
X50516Y-27734D01*
G54D88*
X35423Y-33100D02*
X35150Y-33100D01*
G54D94*
X73350Y-23700D02*
X73100Y-23700D01*
G54D88*
X55210Y-35050D02*
X55550Y-35050D01*
X67450Y-28700D02*
X67500Y-28700D01*
X61790Y-25300D02*
X61400Y-25300D01*
G54D94*
X73350Y-22850D02*
X73350Y-22350D01*
G54D88*
X55600Y-37790D02*
X55950Y-37790D01*
X36450Y-30860D02*
X36070Y-30860D01*
X73560Y-32210D02*
X73550Y-32200D01*
X37960Y-34500D02*
X37960Y-34840D01*
X46860Y-29740D02*
X46950Y-29650D01*
X48410Y-31360D02*
X48500Y-31450D01*
X35890Y-42000D02*
X35890Y-42320D01*
X53635Y-27325D02*
X53795Y-27325D01*
X55500Y-34000D02*
X55750Y-33750D01*
G54D89*
X44295Y-46821D02*
X44295Y-46325D01*
G54D88*
X39750Y-24440D02*
X39750Y-24050D01*
X68750Y-32040D02*
X68750Y-31650D01*
G54D89*
X40295Y-46821D02*
X40295Y-46335D01*
G54D88*
X55650Y-34400D02*
X55750Y-34300D01*
X40550Y-27000D02*
X40650Y-26900D01*
X61790Y-24300D02*
X61400Y-24300D01*
X36500Y-25360D02*
X36500Y-25650D01*
X50325Y-29435D02*
X50325Y-29735D01*
G54D93*
X55181Y-45650D02*
X55181Y-45011D01*
G54D88*
X37600Y-29130D02*
X37200Y-29130D01*
G54D89*
X57813Y-43287D02*
X57900Y-43200D01*
G54D88*
X33490Y-37210D02*
X33500Y-37200D01*
X55460Y-34000D02*
X55500Y-34000D01*
X36950Y-25650D02*
X37000Y-25700D01*
G54D96*
X34690Y-40440D02*
X34220Y-40440D01*
G54D88*
X35240Y-37050D02*
X35230Y-37040D01*
X72550Y-31940D02*
X72910Y-31940D01*
X35940Y-26900D02*
X35630Y-26900D01*
X33930Y-38540D02*
X33800Y-38670D01*
X64190Y-38900D02*
X63800Y-38900D01*
G54D93*
X37550Y-29923D02*
X37550Y-29550D01*
G54D88*
X71350Y-32418D02*
X71385Y-32383D01*
G54D92*
X51934Y-26316D02*
X51225Y-27025D01*
G54D88*
X40260Y-27800D02*
X40500Y-27800D01*
X71860Y-30560D02*
X71850Y-30550D01*
X55125Y-31665D02*
X55125Y-31375D01*
X42890Y-48650D02*
X42890Y-49050D01*
X48550Y-32300D02*
X48650Y-32200D01*
X35940Y-26500D02*
X35630Y-26500D01*
X43860Y-25300D02*
X44260Y-25300D01*
G54D93*
X42823Y-24700D02*
X42500Y-24700D01*
G54D89*
X69114Y-34286D02*
X69100Y-34300D01*
G54D88*
X51175Y-31665D02*
X50795Y-31665D01*
X64190Y-35350D02*
X63800Y-35350D01*
X58400Y-39890D02*
X58400Y-39500D01*
X35340Y-25500D02*
X35000Y-25500D01*
X69650Y-24566D02*
X69650Y-24150D01*
G54D89*
X73753Y-36317D02*
X73750Y-36320D01*
G54D88*
X50725Y-29435D02*
X50725Y-29835D01*
G54D89*
X69902Y-33659D02*
X69902Y-34298D01*
G54D90*
X52425Y-39985D02*
X52430Y-39990D01*
G54D88*
X72910Y-31940D02*
X72950Y-31900D01*
G54D89*
X69114Y-33659D02*
X69114Y-34286D01*
G54D96*
X38096Y-33196D02*
X38100Y-33200D01*
G54D90*
X52425Y-39350D02*
X52425Y-39985D01*
G54D96*
X34220Y-40440D02*
X34160Y-40500D01*
G54D88*
X64550Y-41140D02*
X64550Y-40800D01*
G54D89*
X57150Y-40138D02*
X57352Y-40138D01*
X52477Y-32917D02*
X52477Y-34177D01*
G54D88*
X35240Y-37400D02*
X35240Y-37050D01*
X53075Y-36885D02*
X53075Y-37205D01*
X35423Y-33100D02*
X35600Y-33100D01*
X52375Y-31665D02*
X52375Y-31465D01*
G54D92*
X50044Y-27576D02*
X50674Y-27576D01*
G54D96*
X36500Y-36150D02*
X35970Y-36150D01*
G54D88*
X48990Y-42110D02*
X49000Y-42100D01*
X46990Y-28050D02*
X46600Y-28050D01*
G54D93*
X72500Y-28700D02*
X73200Y-28700D01*
G54D96*
X37738Y-33196D02*
X38096Y-33196D01*
G54D89*
X65669Y-35136D02*
X66306Y-35136D01*
X51842Y-23225D02*
X52215Y-23225D01*
G54D88*
X36950Y-25360D02*
X36950Y-25650D01*
G54D93*
X53803Y-45650D02*
X53803Y-45017D01*
G54D88*
X37030Y-24050D02*
X36980Y-24100D01*
G54D89*
X72854Y-34176D02*
X72770Y-34260D01*
G54D88*
X38890Y-48650D02*
X38890Y-49050D01*
G54D93*
X36600Y-34223D02*
X36600Y-33850D01*
G54D96*
X36060Y-38350D02*
X35940Y-38470D01*
G54D88*
X48990Y-42500D02*
X48990Y-42110D01*
X75810Y-37900D02*
X76200Y-37900D01*
X52375Y-31465D02*
X52325Y-31415D01*
G54D96*
X37738Y-32704D02*
X38096Y-32704D01*
G54D88*
X53475Y-36885D02*
X53855Y-36885D01*
X70800Y-30040D02*
X71200Y-30040D01*
G54D93*
X41677Y-24700D02*
X42000Y-24700D01*
G54D88*
X35190Y-25950D02*
X34850Y-25950D01*
X47590Y-33100D02*
X47690Y-33200D01*
X34050Y-35640D02*
X33710Y-35640D01*
X49965Y-34200D02*
X49620Y-34200D01*
X37340Y-24050D02*
X37030Y-24050D01*
X55360Y-32960D02*
X55200Y-32800D01*
X80790Y-43600D02*
X80400Y-43600D01*
X36500Y-25650D02*
X36450Y-25700D01*
G54D93*
X52673Y-34373D02*
X52575Y-34275D01*
G54D88*
X33640Y-22550D02*
X33640Y-22950D01*
X54690Y-35910D02*
X54450Y-36150D01*
X35440Y-41500D02*
X35140Y-41500D01*
X41500Y-26350D02*
X41450Y-26400D01*
X55575Y-29015D02*
X55575Y-28675D01*
G54D91*
X49170Y-29730D02*
X50190Y-30750D01*
X47087Y-30673D02*
X48030Y-29730D01*
X51620Y-30160D02*
X51620Y-29390D01*
X51030Y-30750D02*
X51620Y-30160D01*
X70400Y-30040D02*
X70400Y-29650D01*
X47087Y-30673D02*
X47087Y-31206D01*
X48030Y-29730D02*
X49170Y-29730D01*
X50190Y-30750D02*
X51030Y-30750D01*
G54D93*
X60080Y-26560D02*
X60080Y-26420D01*
X61810Y-37040D02*
X61810Y-36490D01*
X37855Y-26045D02*
X37490Y-25680D01*
X61678Y-28158D02*
X60080Y-26560D01*
X65120Y-38280D02*
X63630Y-38280D01*
X65322Y-38482D02*
X65120Y-38280D01*
X61678Y-34728D02*
X61678Y-28158D01*
X61800Y-37050D02*
X61810Y-37040D01*
X61810Y-36490D02*
X61896Y-36404D01*
X37855Y-26235D02*
X37855Y-26045D01*
X63630Y-37980D02*
X63650Y-37960D01*
X61896Y-36404D02*
X61896Y-34946D01*
X63630Y-38280D02*
X63630Y-37980D01*
X61896Y-34946D02*
X61678Y-34728D01*
X35760Y-25500D02*
X36100Y-25500D01*
X37490Y-25680D02*
X37430Y-25680D01*
X65669Y-38482D02*
X65322Y-38482D01*
X65289Y-38679D02*
X65052Y-38442D01*
X62120Y-36432D02*
X62058Y-36370D01*
X61850Y-33550D02*
X62090Y-33550D01*
X38052Y-25982D02*
X37750Y-25680D01*
X62058Y-36370D02*
X62058Y-34878D01*
X61850Y-34670D02*
X61850Y-33550D01*
X38052Y-26235D02*
X38052Y-25982D01*
X61850Y-28100D02*
X60360Y-26610D01*
X61850Y-33550D02*
X61850Y-28100D01*
X62058Y-34878D02*
X61850Y-34670D01*
X36060Y-24660D02*
X36090Y-24630D01*
X37750Y-25680D02*
X37750Y-25420D01*
X65289Y-38679D02*
X65669Y-38679D01*
X60360Y-26220D02*
X60220Y-26080D01*
X60360Y-26610D02*
X60360Y-26220D01*
X62120Y-36860D02*
X62120Y-36432D01*
X65052Y-38442D02*
X64518Y-38442D01*
X36060Y-25050D02*
X36060Y-24660D01*
X64518Y-38442D02*
X64420Y-38540D01*
X70886Y-42321D02*
X70886Y-41696D01*
X41542Y-44712D02*
X40956Y-44126D01*
X68578Y-40808D02*
X68480Y-40710D01*
X69998Y-40808D02*
X68578Y-40808D01*
X67390Y-49290D02*
X66740Y-49940D01*
X44880Y-27340D02*
X44880Y-27000D01*
X37530Y-25950D02*
X37393Y-25950D01*
X70886Y-41696D02*
X69998Y-40808D01*
X66740Y-49940D02*
X46970Y-49940D01*
X40860Y-32647D02*
X41053Y-32647D01*
X40794Y-33804D02*
X40794Y-32713D01*
X41328Y-42730D02*
X41328Y-41968D01*
X41118Y-41758D02*
X41118Y-36224D01*
X44680Y-28270D02*
X44680Y-27540D01*
X42132Y-30818D02*
X44680Y-28270D01*
X40956Y-43102D02*
X41328Y-42730D01*
X40956Y-44126D02*
X40956Y-43102D01*
X41330Y-36012D02*
X41330Y-34340D01*
X41053Y-32647D02*
X42132Y-31568D01*
X42132Y-31568D02*
X42132Y-30818D01*
X44880Y-27000D02*
X44780Y-26900D01*
X40794Y-32713D02*
X40860Y-32647D01*
X41328Y-41968D02*
X41118Y-41758D01*
X44680Y-27540D02*
X44880Y-27340D01*
X41330Y-34340D02*
X40794Y-33804D01*
X37678Y-26098D02*
X37530Y-25950D01*
X37393Y-25950D02*
X37250Y-26093D01*
X36000Y-25950D02*
X35610Y-25950D01*
X36007Y-25950D02*
X36150Y-26093D01*
X36000Y-25950D02*
X36007Y-25950D01*
X37678Y-26235D02*
X37678Y-26098D01*
X41118Y-36224D02*
X41330Y-36012D01*
X36150Y-26093D02*
X37250Y-26093D01*
X36000Y-25950D02*
X36007Y-25950D01*
X46970Y-49940D02*
X46462Y-49432D01*
X46462Y-49432D02*
X46462Y-46252D01*
X46462Y-46252D02*
X44922Y-44712D01*
X44922Y-44712D02*
X41542Y-44712D01*
X36007Y-25950D02*
X36000Y-25950D01*
X44518Y-27322D02*
X44620Y-27220D01*
X37436Y-26260D02*
X37461Y-26235D01*
X35510Y-26210D02*
X35820Y-26210D01*
X35200Y-26520D02*
X35510Y-26210D01*
X35200Y-26540D02*
X35180Y-26540D01*
X67933Y-41847D02*
X67933Y-42321D01*
X35200Y-26540D02*
X35200Y-26520D01*
X35820Y-26210D02*
X35870Y-26260D01*
X41970Y-31500D02*
X41970Y-30750D01*
X41970Y-30750D02*
X44518Y-28202D01*
X44518Y-28202D02*
X44518Y-27322D01*
X67933Y-41847D02*
X67970Y-41810D01*
X41166Y-42036D02*
X40956Y-41826D01*
X40956Y-41826D02*
X40956Y-36156D01*
X67660Y-49530D02*
X67088Y-50102D01*
X40632Y-33872D02*
X40632Y-32563D01*
X46902Y-50102D02*
X46300Y-49500D01*
X41168Y-35944D02*
X41168Y-34408D01*
X40794Y-44194D02*
X40794Y-43034D01*
X40956Y-36156D02*
X41168Y-35944D01*
X35180Y-26540D02*
X34970Y-26330D01*
X40710Y-32485D02*
X40985Y-32485D01*
X40632Y-32563D02*
X40710Y-32485D01*
X41168Y-34408D02*
X40632Y-33872D01*
X41474Y-44874D02*
X40794Y-44194D01*
X40794Y-43034D02*
X41166Y-42662D01*
X35870Y-26260D02*
X37436Y-26260D01*
X46300Y-46320D02*
X44854Y-44874D01*
X41166Y-42662D02*
X41166Y-42036D01*
X44854Y-44874D02*
X41474Y-44874D01*
X40985Y-32485D02*
X41970Y-31500D01*
X67088Y-50102D02*
X46902Y-50102D01*
X34970Y-26330D02*
X34850Y-26330D01*
X46300Y-49500D02*
X46300Y-46320D01*
G54D91*
X46103Y-30103D02*
X46103Y-30813D01*
X46103Y-30103D02*
X46000Y-30000D01*
X38820Y-29130D02*
X39880Y-29130D01*
G54D93*
X70100Y-45200D02*
X70490Y-45200D01*
X70490Y-45200D02*
X70600Y-45090D01*
X52228Y-38228D02*
X52050Y-38050D01*
X52228Y-39350D02*
X52228Y-38228D01*
X73800Y-42950D02*
X73800Y-43300D01*
X73445Y-42595D02*
X73800Y-42950D01*
X73445Y-42321D02*
X73445Y-42595D01*
X74850Y-37450D02*
X76400Y-37450D01*
X76750Y-37100D02*
X77340Y-37100D01*
X74701Y-37301D02*
X74850Y-37450D01*
X76400Y-37450D02*
X76750Y-37100D01*
X74331Y-37301D02*
X74701Y-37301D01*
G54D88*
X74999Y-25949D02*
X74600Y-25550D01*
G54D90*
X74341Y-25394D02*
X74444Y-25394D01*
X74444Y-25394D02*
X74600Y-25550D01*
G54D88*
X74999Y-25949D02*
X75450Y-25949D01*
G54D93*
X74597Y-25197D02*
X74341Y-25197D01*
X70750Y-26460D02*
X71550Y-26460D01*
X71550Y-26460D02*
X71590Y-26500D01*
X74850Y-25450D02*
X75050Y-25450D01*
X74597Y-25197D02*
X74850Y-25450D01*
X67933Y-33659D02*
X67933Y-33235D01*
X67898Y-32298D02*
X67500Y-31900D01*
X67933Y-33235D02*
X67898Y-33200D01*
X67898Y-33200D02*
X67898Y-32298D01*
X68838Y-28178D02*
X69300Y-28640D01*
X69276Y-24566D02*
X69276Y-24594D01*
X69276Y-23924D02*
X69276Y-24566D01*
X69500Y-23281D02*
X69500Y-23700D01*
X69276Y-24594D02*
X68838Y-25032D01*
X69500Y-23700D02*
X69276Y-23924D01*
X68838Y-25032D02*
X68838Y-28178D01*
X74450Y-32490D02*
X74660Y-32700D01*
X74450Y-32200D02*
X74450Y-32490D01*
X76200Y-32490D02*
X76410Y-32700D01*
X76200Y-32200D02*
X76200Y-32490D01*
X66940Y-29200D02*
X66940Y-28790D01*
X66940Y-28790D02*
X66850Y-28700D01*
X70100Y-46000D02*
X70490Y-46000D01*
X70490Y-46000D02*
X70600Y-45890D01*
X71990Y-28790D02*
X71900Y-28700D01*
X71990Y-29250D02*
X71990Y-28790D01*
X72400Y-45650D02*
X72400Y-45940D01*
X72400Y-45940D02*
X72610Y-46150D01*
X69320Y-42784D02*
X69320Y-43370D01*
X69311Y-42775D02*
X69320Y-42784D01*
X69311Y-42321D02*
X69311Y-42775D01*
X69320Y-43370D02*
X69700Y-43750D01*
X70098Y-42662D02*
X70080Y-42680D01*
X70098Y-42321D02*
X70098Y-42662D01*
X70080Y-42680D02*
X70080Y-44070D01*
X70080Y-44070D02*
X69700Y-44450D01*
X72700Y-43020D02*
X72700Y-43300D01*
X73051Y-42669D02*
X72700Y-43020D01*
X73051Y-42321D02*
X73051Y-42669D01*
X72320Y-43620D02*
X72700Y-44000D01*
X72657Y-42803D02*
X72320Y-43140D01*
X72320Y-43140D02*
X72320Y-43620D01*
X72657Y-42321D02*
X72657Y-42803D01*
X75400Y-39450D02*
X75220Y-39270D01*
X75900Y-39450D02*
X75400Y-39450D01*
X75220Y-39270D02*
X74331Y-39270D01*
X69508Y-42858D02*
X69700Y-43050D01*
X69508Y-42321D02*
X69508Y-42858D01*
X69150Y-24950D02*
X69000Y-25100D01*
X69000Y-27948D02*
X69700Y-28648D01*
X70024Y-24566D02*
X70024Y-24776D01*
X69850Y-24950D02*
X69150Y-24950D01*
X69756Y-23281D02*
X69756Y-23706D01*
X70024Y-23974D02*
X70024Y-24566D01*
X69700Y-28648D02*
X69700Y-29090D01*
X69756Y-23706D02*
X70024Y-23974D01*
X69000Y-25100D02*
X69000Y-27948D01*
X70024Y-24776D02*
X69850Y-24950D01*
X72490Y-24000D02*
X72270Y-24000D01*
X70790Y-27240D02*
X71190Y-27240D01*
X73159Y-24803D02*
X72933Y-24803D01*
X71190Y-26830D02*
X71190Y-27240D01*
X72750Y-24620D02*
X72750Y-24260D01*
X71190Y-27240D02*
X71590Y-27240D01*
X72750Y-24260D02*
X72490Y-24000D01*
X72933Y-24803D02*
X72750Y-24620D01*
G54D88*
X74999Y-24051D02*
X74600Y-24450D01*
G54D90*
X74341Y-24606D02*
X74444Y-24606D01*
G54D88*
X74999Y-24051D02*
X75450Y-24051D01*
G54D90*
X74444Y-24606D02*
X74600Y-24450D01*
X72410Y-23100D02*
X72410Y-22700D01*
X73159Y-24606D02*
X73038Y-24606D01*
X72932Y-24500D02*
X72932Y-24184D01*
X72410Y-23662D02*
X72410Y-23500D01*
X72932Y-24184D02*
X72410Y-23662D01*
X72410Y-23500D02*
X72410Y-23100D01*
X73038Y-24606D02*
X72932Y-24500D01*
X72640Y-26000D02*
X72410Y-26000D01*
X72410Y-26000D02*
X72410Y-26400D01*
X73086Y-25394D02*
X72880Y-25600D01*
X72880Y-25600D02*
X72880Y-25760D01*
X73159Y-25394D02*
X73086Y-25394D01*
X72880Y-25760D02*
X72640Y-26000D01*
G54D93*
X68750Y-30596D02*
X68750Y-28710D01*
X70100Y-26260D02*
X70100Y-26690D01*
X69710Y-27080D02*
X70100Y-26690D01*
X69596Y-31912D02*
X69596Y-31442D01*
X69490Y-27840D02*
X69710Y-27620D01*
X69508Y-32000D02*
X69596Y-31912D01*
X69710Y-27620D02*
X69710Y-27080D01*
X69508Y-33659D02*
X69508Y-32000D01*
X69596Y-31442D02*
X68750Y-30596D01*
G54D90*
X70250Y-23900D02*
X70300Y-23900D01*
G54D88*
X70300Y-23900D02*
X70950Y-24550D01*
G54D90*
X70012Y-23662D02*
X70250Y-23900D01*
X70012Y-23281D02*
X70012Y-23662D01*
G54D89*
X48415Y-28625D02*
X48035Y-28625D01*
X48035Y-28625D02*
X48025Y-28635D01*
X48035Y-28225D02*
X48025Y-28215D01*
X48415Y-28225D02*
X48035Y-28225D01*
G54D96*
X51465Y-24645D02*
X51475Y-24635D01*
G54D92*
X51461Y-25844D02*
X51461Y-25519D01*
G54D96*
X51465Y-25515D02*
X51465Y-25025D01*
X51465Y-25025D02*
X51465Y-24645D01*
G54D92*
X51461Y-25519D02*
X51465Y-25515D01*
X50674Y-28396D02*
X50578Y-28492D01*
X50674Y-28206D02*
X50674Y-28396D01*
X50462Y-28492D02*
X49939Y-29015D01*
X50578Y-28492D02*
X50462Y-28492D01*
X49939Y-29015D02*
X49925Y-29015D01*
G54D88*
X58190Y-23300D02*
X57875Y-23300D01*
X57875Y-23300D02*
X57725Y-23450D01*
G54D89*
X43490Y-39500D02*
X43500Y-39510D01*
X43060Y-39500D02*
X43490Y-39500D01*
X43500Y-39510D02*
X43500Y-39990D01*
X43500Y-40410D02*
X43500Y-42500D01*
X43500Y-36500D02*
X45110Y-36500D01*
X45110Y-36500D02*
X45650Y-35960D01*
G54D94*
X55800Y-23000D02*
X54500Y-23000D01*
X55800Y-22200D02*
X55800Y-23000D01*
G54D88*
X56500Y-23000D02*
X55800Y-23000D01*
X56975Y-23125D02*
X57100Y-23000D01*
X56975Y-23450D02*
X56975Y-23125D01*
X56975Y-24450D02*
X56975Y-24885D01*
X56975Y-24885D02*
X56960Y-24900D01*
X56960Y-25340D02*
X56900Y-25400D01*
X56960Y-24900D02*
X56960Y-25340D01*
G54D96*
X51885Y-25025D02*
X51885Y-24645D01*
G54D92*
X51619Y-25651D02*
X51755Y-25515D01*
G54D96*
X51885Y-24645D02*
X51875Y-24635D01*
G54D92*
X51619Y-25844D02*
X51619Y-25651D01*
G54D96*
X51885Y-25385D02*
X51755Y-25515D01*
X51885Y-25385D02*
X51885Y-25025D01*
X51465Y-23825D02*
X51465Y-23625D01*
G54D89*
X51465Y-23465D02*
X51508Y-23422D01*
G54D96*
X51465Y-24205D02*
X51475Y-24215D01*
X51465Y-23825D02*
X51465Y-24205D01*
G54D89*
X51465Y-23625D02*
X51465Y-23465D01*
G54D96*
X51885Y-23825D02*
X51885Y-24205D01*
G54D89*
X51885Y-23625D02*
X51885Y-23465D01*
X51885Y-23465D02*
X51842Y-23422D01*
G54D96*
X51885Y-24205D02*
X51875Y-24215D01*
X51885Y-23825D02*
X51885Y-23625D01*
X50265Y-25365D02*
X50265Y-25025D01*
G54D92*
X50516Y-25844D02*
X50516Y-25636D01*
G54D96*
X50265Y-25365D02*
X50265Y-25385D01*
G54D92*
X50516Y-25636D02*
X50395Y-25515D01*
G54D96*
X50265Y-25025D02*
X50265Y-24645D01*
X50265Y-25385D02*
X50395Y-25515D01*
X50265Y-24645D02*
X50275Y-24635D01*
G54D92*
X50674Y-25526D02*
X50685Y-25515D01*
G54D96*
X50685Y-25515D02*
X50685Y-25025D01*
X50685Y-25025D02*
X50685Y-24645D01*
G54D92*
X50674Y-25844D02*
X50674Y-25526D01*
G54D96*
X50685Y-24645D02*
X50675Y-24635D01*
G54D89*
X50265Y-23465D02*
X50308Y-23422D01*
G54D96*
X50265Y-24205D02*
X50275Y-24215D01*
X50265Y-23825D02*
X50265Y-24205D01*
X50265Y-23825D02*
X50265Y-23615D01*
G54D89*
X50265Y-23615D02*
X50265Y-23465D01*
G54D96*
X50685Y-24205D02*
X50675Y-24215D01*
X50685Y-23825D02*
X50685Y-23625D01*
G54D89*
X50685Y-23465D02*
X50642Y-23422D01*
G54D96*
X50685Y-23825D02*
X50685Y-24205D01*
G54D89*
X50685Y-23625D02*
X50685Y-23465D01*
G54D88*
X35000Y-38430D02*
X35000Y-38000D01*
G54D96*
X34995Y-38540D02*
X34995Y-38435D01*
X34995Y-38435D02*
X35000Y-38430D01*
G54D88*
X35490Y-38000D02*
X35000Y-38000D01*
X35950Y-24200D02*
X35610Y-24200D01*
G54D91*
X36252Y-23861D02*
X36252Y-23898D01*
G54D88*
X35950Y-24200D02*
X36100Y-24050D01*
G54D91*
X36252Y-23898D02*
X36100Y-24050D01*
G54D88*
X36870Y-34940D02*
X36740Y-34810D01*
G54D93*
X36600Y-34670D02*
X36740Y-34810D01*
G54D88*
X36870Y-34940D02*
X37050Y-34940D01*
G54D93*
X36600Y-34577D02*
X36600Y-34670D01*
G54D88*
X42600Y-28300D02*
X42600Y-25250D01*
G54D91*
X42902Y-24948D02*
X42750Y-25100D01*
X42902Y-24911D02*
X42902Y-24948D01*
G54D88*
X42600Y-25250D02*
X42750Y-25100D01*
X38850Y-32050D02*
X38850Y-34540D01*
X38850Y-32050D02*
X42600Y-28300D01*
X35380Y-40140D02*
X35120Y-40140D01*
G54D93*
X34926Y-40135D02*
X35115Y-40135D01*
X35115Y-40135D02*
X35120Y-40140D01*
G54D88*
X35380Y-40140D02*
X35970Y-39550D01*
G54D93*
X36264Y-38696D02*
X36110Y-38850D01*
G54D88*
X35970Y-38990D02*
X36110Y-38850D01*
X35970Y-38990D02*
X35970Y-39130D01*
G54D93*
X36264Y-38655D02*
X36264Y-38696D01*
X36736Y-35794D02*
X36890Y-35640D01*
X36736Y-35845D02*
X36736Y-35794D01*
G54D88*
X37050Y-35480D02*
X36890Y-35640D01*
X37050Y-35480D02*
X37050Y-35360D01*
X35000Y-43370D02*
X35000Y-44500D01*
X34110Y-41520D02*
X34100Y-41510D01*
X34110Y-42550D02*
X34180Y-42550D01*
X34110Y-41900D02*
X34110Y-42550D01*
X34180Y-42550D02*
X35000Y-43370D01*
X34110Y-41900D02*
X34110Y-41520D01*
G54D91*
X34652Y-22748D02*
X34500Y-22900D01*
G54D88*
X33800Y-23600D02*
X34500Y-22900D01*
X34490Y-32740D02*
X34500Y-32740D01*
X33800Y-32050D02*
X33800Y-23600D01*
G54D91*
X34689Y-22748D02*
X34652Y-22748D01*
G54D88*
X34490Y-32740D02*
X33800Y-32050D01*
X36270Y-37150D02*
X36270Y-36700D01*
X36290Y-37170D02*
X36270Y-37150D01*
X36290Y-37170D02*
X36290Y-37250D01*
G54D93*
X36264Y-36694D02*
X36270Y-36700D01*
X36264Y-36455D02*
X36264Y-36694D01*
G54D96*
X37200Y-33540D02*
X37462Y-33278D01*
X37462Y-33278D02*
X37462Y-33196D01*
X37200Y-33590D02*
X37200Y-33540D01*
G54D88*
X42550Y-24100D02*
X42460Y-24100D01*
G54D91*
X42902Y-24452D02*
X42750Y-24300D01*
X42902Y-24489D02*
X42902Y-24452D01*
G54D88*
X42550Y-24100D02*
X42750Y-24300D01*
X36030Y-34010D02*
X36000Y-34010D01*
G54D91*
X36389Y-34302D02*
X36322Y-34302D01*
X36322Y-34302D02*
X36190Y-34170D01*
G54D88*
X36030Y-34010D02*
X36190Y-34170D01*
X36880Y-31060D02*
X37050Y-31060D01*
G54D93*
X36600Y-31423D02*
X36600Y-31340D01*
G54D88*
X36880Y-31060D02*
X36760Y-31180D01*
G54D93*
X36600Y-31340D02*
X36760Y-31180D01*
G54D88*
X42000Y-27970D02*
X42000Y-26960D01*
X37990Y-29850D02*
X37970Y-29870D01*
X42000Y-27970D02*
X40120Y-29850D01*
G54D91*
X37761Y-30002D02*
X37838Y-30002D01*
G54D88*
X40120Y-29850D02*
X37990Y-29850D01*
G54D91*
X37838Y-30002D02*
X37970Y-29870D01*
G54D93*
X34900Y-22390D02*
X35040Y-22250D01*
G54D88*
X35190Y-22100D02*
X35040Y-22250D01*
X47690Y-22100D02*
X35190Y-22100D01*
G54D93*
X34900Y-22390D02*
X34900Y-22473D01*
G54D88*
X35440Y-23030D02*
X35300Y-22890D01*
G54D91*
X35158Y-22748D02*
X35300Y-22890D01*
X35111Y-22748D02*
X35158Y-22748D01*
G54D88*
X35440Y-23030D02*
X35440Y-23150D01*
G54D93*
X36527Y-23650D02*
X36790Y-23650D01*
G54D88*
X36790Y-23650D02*
X37340Y-23650D01*
X41950Y-24100D02*
X41750Y-24300D01*
X41950Y-24100D02*
X42040Y-24100D01*
G54D91*
X41598Y-24489D02*
X41598Y-24452D01*
X41598Y-24452D02*
X41750Y-24300D01*
X41598Y-24911D02*
X41598Y-24948D01*
X41598Y-24948D02*
X41750Y-25100D01*
G54D88*
X42000Y-25350D02*
X42000Y-26540D01*
X42000Y-25350D02*
X41750Y-25100D01*
G54D90*
X40390Y-26005D02*
X40205Y-26005D01*
G54D96*
X39680Y-25990D02*
X39320Y-26350D01*
X39680Y-25990D02*
X39950Y-25990D01*
G54D89*
X39199Y-26511D02*
X39320Y-26390D01*
X39115Y-26511D02*
X39199Y-26511D01*
G54D96*
X40190Y-25990D02*
X39950Y-25990D01*
G54D90*
X40205Y-26005D02*
X40190Y-25990D01*
G54D89*
X39320Y-26390D02*
X39320Y-26350D01*
G54D96*
X37200Y-32420D02*
X37462Y-32682D01*
X37462Y-32682D02*
X37462Y-32704D01*
X37200Y-32410D02*
X37200Y-32420D01*
G54D88*
X36300Y-41500D02*
X36350Y-41450D01*
X36310Y-41490D02*
X36350Y-41450D01*
X35860Y-41500D02*
X36300Y-41500D01*
X36310Y-42000D02*
X36800Y-42000D01*
X36300Y-41500D02*
X36350Y-41450D01*
X36310Y-42000D02*
X36310Y-41490D01*
G54D96*
X37695Y-39740D02*
X37695Y-39635D01*
G54D88*
X37530Y-39100D02*
X37700Y-39270D01*
X37530Y-39100D02*
X37510Y-39100D01*
G54D96*
X37695Y-39635D02*
X37700Y-39630D01*
G54D88*
X37700Y-39270D02*
X37700Y-39630D01*
X35860Y-40800D02*
X36300Y-40800D01*
G54D96*
X36900Y-40260D02*
X36790Y-40370D01*
G54D88*
X36350Y-40810D02*
X36790Y-40370D01*
X36350Y-40810D02*
X36350Y-40850D01*
G54D96*
X36905Y-40260D02*
X36900Y-40260D01*
G54D88*
X36300Y-40800D02*
X36350Y-40850D01*
G54D90*
X40650Y-25760D02*
X40500Y-25610D01*
X40650Y-26005D02*
X40650Y-25760D01*
G54D88*
X33690Y-41900D02*
X29063Y-41900D01*
X34400Y-24990D02*
X35190Y-24200D01*
X37050Y-29850D02*
X37100Y-29900D01*
X37050Y-29850D02*
X35300Y-29850D01*
X34400Y-28950D02*
X34400Y-24990D01*
G54D91*
X37202Y-30002D02*
X37100Y-29900D01*
G54D88*
X35300Y-29850D02*
X34400Y-28950D01*
G54D91*
X37339Y-30002D02*
X37202Y-30002D01*
G54D88*
X34400Y-38000D02*
X34400Y-37400D01*
X34060Y-37400D02*
X33910Y-37550D01*
X34400Y-37400D02*
X34060Y-37400D01*
X33910Y-38000D02*
X34400Y-38000D01*
X36710Y-37360D02*
X36730Y-37380D01*
G54D93*
X36736Y-38045D02*
X36736Y-37796D01*
G54D88*
X36710Y-37360D02*
X36710Y-37250D01*
G54D93*
X36736Y-37796D02*
X36730Y-37790D01*
G54D88*
X36730Y-37380D02*
X36730Y-37790D01*
X36000Y-35680D02*
X35830Y-35680D01*
X36100Y-35680D02*
X36000Y-35680D01*
X35830Y-35680D02*
X35250Y-35100D01*
X35250Y-33910D02*
X34500Y-33160D01*
G54D93*
X36264Y-35845D02*
X36264Y-35844D01*
X36264Y-35844D02*
X36100Y-35680D01*
G54D88*
X36000Y-35680D02*
X36090Y-35680D01*
X35250Y-35100D02*
X35250Y-33910D01*
G54D93*
X37550Y-30360D02*
X37410Y-30500D01*
G54D88*
X37270Y-30640D02*
X37410Y-30500D01*
X37270Y-30640D02*
X37050Y-30640D01*
G54D93*
X37550Y-30277D02*
X37550Y-30360D01*
G54D91*
X36252Y-23439D02*
X36252Y-23382D01*
G54D88*
X36020Y-23150D02*
X35860Y-23150D01*
X36020Y-23150D02*
X36120Y-23250D01*
G54D91*
X36252Y-23382D02*
X36120Y-23250D01*
G54D93*
X43450Y-24700D02*
X43177Y-24700D01*
G54D88*
X44540Y-24700D02*
X43450Y-24700D01*
X37760Y-23650D02*
X37970Y-23650D01*
G54D90*
X38155Y-23835D02*
X37970Y-23650D01*
G54D88*
X37970Y-23650D02*
X37990Y-23670D01*
G54D90*
X38155Y-23840D02*
X38155Y-23835D01*
G54D88*
X37150Y-31990D02*
X37000Y-31840D01*
G54D91*
X36811Y-31698D02*
X36858Y-31698D01*
X36858Y-31698D02*
X37000Y-31840D01*
G54D88*
X37150Y-31990D02*
X37200Y-31990D01*
G54D91*
X36342Y-31698D02*
X36200Y-31840D01*
G54D88*
X36050Y-31990D02*
X36000Y-31990D01*
G54D91*
X36389Y-31698D02*
X36342Y-31698D01*
G54D88*
X36050Y-31990D02*
X36200Y-31840D01*
X37170Y-34010D02*
X37010Y-34170D01*
G54D91*
X36878Y-34302D02*
X37010Y-34170D01*
X36811Y-34302D02*
X36878Y-34302D01*
G54D88*
X37170Y-34010D02*
X37200Y-34010D01*
G54D93*
X36736Y-36455D02*
X36935Y-36455D01*
G54D88*
X36935Y-36455D02*
X37345Y-36455D01*
G54D93*
X36935Y-36455D02*
X36940Y-36460D01*
G54D88*
X37345Y-36455D02*
X37355Y-36455D01*
X37355Y-36455D02*
X38850Y-34960D01*
X34100Y-39170D02*
X34100Y-39440D01*
G54D96*
X34205Y-39060D02*
X34205Y-39065D01*
X34205Y-39065D02*
X34100Y-39170D01*
G54D88*
X34160Y-41090D02*
X34310Y-40940D01*
G54D93*
X34454Y-40796D02*
X34454Y-40745D01*
G54D88*
X34100Y-41090D02*
X34160Y-41090D01*
G54D93*
X34454Y-40796D02*
X34310Y-40940D01*
G54D90*
X38155Y-24100D02*
X37810Y-24100D01*
X37810Y-24100D02*
X37760Y-24050D01*
G54D93*
X35940Y-28600D02*
X35460Y-28600D01*
X35420Y-28560D02*
X35450Y-28590D01*
X35460Y-28600D02*
X35450Y-28590D01*
X34950Y-28560D02*
X35420Y-28560D01*
X37061Y-27889D02*
X36360Y-28590D01*
X36360Y-28600D02*
X36360Y-29070D01*
X36360Y-29070D02*
X36390Y-29100D01*
X36360Y-28590D02*
X36360Y-28600D01*
X37185Y-27889D02*
X37061Y-27889D01*
X35460Y-27700D02*
X35450Y-27690D01*
X35940Y-27700D02*
X35460Y-27700D01*
X36932Y-27102D02*
X37185Y-27102D01*
X36360Y-26500D02*
X36360Y-26530D01*
X36360Y-26530D02*
X36932Y-27102D01*
X36110Y-28350D02*
X36360Y-28100D01*
X34950Y-28140D02*
X35420Y-28140D01*
X37185Y-27692D02*
X36968Y-27692D01*
X35700Y-28350D02*
X36110Y-28350D01*
X36968Y-27692D02*
X36560Y-28100D01*
X36560Y-28100D02*
X36360Y-28100D01*
X35420Y-28140D02*
X35450Y-28110D01*
X35460Y-28110D02*
X35700Y-28350D01*
X35450Y-28110D02*
X35460Y-28110D01*
X35950Y-28100D02*
X35940Y-28100D01*
X36670Y-27700D02*
X36360Y-27700D01*
X37185Y-27495D02*
X36875Y-27495D01*
X36350Y-27700D02*
X35950Y-28100D01*
X36875Y-27495D02*
X36670Y-27700D01*
X36360Y-27700D02*
X36350Y-27700D01*
G54D96*
X38140Y-25760D02*
X38220Y-25840D01*
X38050Y-24810D02*
X38140Y-24720D01*
X38140Y-25400D02*
X38140Y-24990D01*
X38050Y-24810D02*
X38050Y-24900D01*
X38140Y-24990D02*
X38050Y-24900D01*
G54D90*
X38155Y-24360D02*
X38155Y-24555D01*
G54D89*
X38268Y-25888D02*
X38220Y-25840D01*
G54D96*
X38140Y-25760D02*
X38140Y-25400D01*
X38140Y-24720D02*
X38140Y-24570D01*
G54D89*
X38268Y-26235D02*
X38268Y-25888D01*
G54D90*
X38155Y-24555D02*
X38140Y-24570D01*
X40205Y-26395D02*
X40190Y-26410D01*
G54D96*
X39610Y-26640D02*
X39420Y-26640D01*
G54D90*
X40390Y-26395D02*
X40205Y-26395D01*
G54D96*
X40190Y-26410D02*
X39950Y-26410D01*
G54D89*
X39115Y-26708D02*
X39322Y-26708D01*
G54D96*
X39840Y-26410D02*
X39610Y-26640D01*
G54D89*
X39390Y-26640D02*
X39420Y-26640D01*
G54D96*
X39840Y-26410D02*
X39950Y-26410D01*
G54D89*
X39322Y-26708D02*
X39390Y-26640D01*
G54D91*
X41230Y-24700D02*
X41090Y-24840D01*
X41323Y-24700D02*
X41230Y-24700D01*
G54D88*
X40950Y-24980D02*
X41090Y-24840D01*
X40950Y-24980D02*
X40950Y-25190D01*
G54D90*
X40910Y-26005D02*
X40910Y-25840D01*
G54D88*
X40950Y-25800D02*
X40950Y-25610D01*
G54D90*
X40910Y-25840D02*
X40950Y-25800D01*
G54D96*
X38650Y-24810D02*
X38650Y-24900D01*
G54D90*
X38545Y-24555D02*
X38560Y-24570D01*
G54D89*
X38445Y-26235D02*
X38445Y-25895D01*
G54D96*
X38560Y-24720D02*
X38560Y-24570D01*
X38560Y-25780D02*
X38560Y-25400D01*
X38560Y-25780D02*
X38500Y-25840D01*
X38560Y-25400D02*
X38560Y-24990D01*
X38560Y-24990D02*
X38650Y-24900D01*
G54D89*
X38445Y-25895D02*
X38500Y-25840D01*
G54D96*
X38650Y-24810D02*
X38560Y-24720D01*
G54D90*
X38545Y-24360D02*
X38545Y-24555D01*
G54D88*
X35910Y-33590D02*
X35755Y-33435D01*
X35755Y-33435D02*
X35600Y-33435D01*
X36000Y-33590D02*
X35910Y-33590D01*
X35980Y-32410D02*
X36000Y-32410D01*
X35625Y-32765D02*
X35980Y-32410D01*
X35600Y-32765D02*
X35625Y-32765D01*
G54D93*
X65205Y-34545D02*
X64940Y-34280D01*
X59030Y-24610D02*
X58870Y-24450D01*
X64010Y-32720D02*
X62388Y-31098D01*
X65205Y-34545D02*
X65669Y-34545D01*
X57725Y-24450D02*
X58870Y-24450D01*
X64940Y-34280D02*
X64940Y-34130D01*
X62388Y-27798D02*
X60650Y-26060D01*
X62388Y-31098D02*
X62388Y-27798D01*
X51461Y-28411D02*
X51670Y-28620D01*
X51461Y-28206D02*
X51461Y-28411D01*
X73248Y-33242D02*
X73248Y-33659D01*
X73980Y-31880D02*
X73980Y-32710D01*
X73480Y-33010D02*
X73248Y-33242D01*
X73980Y-32710D02*
X73680Y-33010D01*
X73680Y-33010D02*
X73480Y-33010D01*
X70210Y-28110D02*
X73980Y-31880D01*
X52591Y-26159D02*
X52603Y-26147D01*
X52603Y-26147D02*
X53350Y-25400D01*
X71673Y-34167D02*
X70806Y-35034D01*
X56642Y-29732D02*
X56960Y-30050D01*
X53350Y-25400D02*
X54310Y-25400D01*
X68566Y-35034D02*
X68460Y-35140D01*
X56642Y-27732D02*
X56642Y-29732D01*
X54310Y-25400D02*
X56642Y-27732D01*
X71673Y-33659D02*
X71673Y-34167D01*
X52406Y-26159D02*
X52591Y-26159D01*
X70806Y-35034D02*
X68566Y-35034D01*
G54D89*
X51508Y-22828D02*
X51510Y-22830D01*
G54D88*
X50780Y-22100D02*
X51510Y-22830D01*
G54D89*
X51508Y-23028D02*
X51508Y-22828D01*
G54D88*
X50780Y-22100D02*
X48110Y-22100D01*
G54D89*
X45203Y-31797D02*
X44700Y-32300D01*
G54D93*
X68318Y-41132D02*
X68220Y-41230D01*
G54D89*
X45203Y-31797D02*
X45513Y-31797D01*
G54D93*
X70295Y-42321D02*
X70295Y-41565D01*
X70295Y-41565D02*
X69862Y-41132D01*
X69862Y-41132D02*
X68318Y-41132D01*
X46450Y-36600D02*
X46450Y-36150D01*
X46450Y-36940D02*
X46450Y-36600D01*
X69930Y-40970D02*
X70492Y-41532D01*
X70492Y-41532D02*
X70492Y-42321D01*
X67940Y-40990D02*
X67960Y-40970D01*
X67960Y-40970D02*
X69930Y-40970D01*
X47350Y-36940D02*
X47350Y-36600D01*
G54D89*
X45406Y-31994D02*
X45513Y-31994D01*
X45406Y-31994D02*
X45050Y-32350D01*
G54D93*
X47350Y-36600D02*
X47350Y-36150D01*
G54D91*
X46400Y-34010D02*
X46350Y-34060D01*
X46400Y-34010D02*
X46400Y-33680D01*
G54D93*
X64440Y-42280D02*
X65285Y-41435D01*
X65285Y-41435D02*
X65669Y-41435D01*
X60320Y-46400D02*
X64440Y-42280D01*
X59560Y-46400D02*
X60320Y-46400D01*
X50989Y-29569D02*
X50989Y-29549D01*
X51180Y-29760D02*
X50989Y-29569D01*
X50989Y-29549D02*
X50989Y-28206D01*
X51180Y-29850D02*
X51180Y-29870D01*
X65327Y-35923D02*
X65060Y-36190D01*
X65669Y-35923D02*
X65327Y-35923D01*
X51180Y-29870D02*
X50700Y-30350D01*
X51180Y-29850D02*
X51180Y-29760D01*
X57866Y-31414D02*
X57866Y-29926D01*
X57050Y-29150D02*
X57530Y-29150D01*
X51670Y-28970D02*
X51670Y-29010D01*
X51304Y-28206D02*
X51304Y-28604D01*
X57530Y-29150D02*
X57550Y-29130D01*
X57760Y-31520D02*
X57866Y-31414D01*
X57550Y-29130D02*
X57866Y-29446D01*
X57410Y-31500D02*
X57740Y-31500D01*
X57740Y-31500D02*
X57760Y-31520D01*
X57866Y-29446D02*
X57866Y-29926D01*
X65669Y-36514D02*
X63936Y-36514D01*
X51304Y-28604D02*
X51670Y-28970D01*
X63936Y-36514D02*
X63630Y-36820D01*
X66533Y-40647D02*
X67930Y-39250D01*
G54D92*
X49674Y-26474D02*
X49575Y-26375D01*
G54D93*
X64030Y-31800D02*
X64020Y-31790D01*
X64020Y-31790D02*
X63310Y-31790D01*
X57540Y-26500D02*
X57540Y-26830D01*
X57050Y-26850D02*
X57520Y-26850D01*
X57540Y-26830D02*
X57520Y-26850D01*
X65669Y-40647D02*
X66533Y-40647D01*
G54D92*
X49674Y-26474D02*
X50044Y-26474D01*
G54D93*
X62560Y-31040D02*
X62560Y-27420D01*
X62560Y-27420D02*
X62020Y-26880D01*
X63310Y-31790D02*
X62560Y-31040D01*
X53380Y-25570D02*
X54250Y-25570D01*
X56480Y-30030D02*
X56480Y-27800D01*
X68310Y-35420D02*
X68040Y-35150D01*
X68794Y-35196D02*
X68570Y-35420D01*
X56630Y-30180D02*
X56480Y-30030D01*
X54250Y-25570D02*
X56480Y-27800D01*
X52406Y-26316D02*
X52634Y-26316D01*
X70874Y-35196D02*
X68794Y-35196D01*
X71870Y-33659D02*
X71870Y-34200D01*
X52634Y-26316D02*
X53380Y-25570D01*
X68570Y-35420D02*
X68310Y-35420D01*
X71870Y-34200D02*
X70874Y-35196D01*
G54D88*
X44960Y-24700D02*
X47350Y-24700D01*
X47350Y-24700D02*
X49400Y-22650D01*
X49400Y-22650D02*
X49890Y-22650D01*
X49890Y-22650D02*
X50080Y-22840D01*
G54D89*
X50268Y-23028D02*
X50308Y-23028D01*
X50268Y-23028D02*
X50080Y-22840D01*
G54D88*
X36640Y-27250D02*
X36640Y-27130D01*
X54875Y-34235D02*
X55040Y-34400D01*
X50615Y-28765D02*
X50615Y-28785D01*
X50725Y-28895D02*
X50615Y-28785D01*
X49235Y-27025D02*
X49545Y-27025D01*
X39840Y-27000D02*
X39840Y-27400D01*
G54D92*
X49624Y-27104D02*
X50044Y-27104D01*
G54D93*
X53461Y-32539D02*
X53525Y-32475D01*
G54D88*
X55040Y-34060D02*
X54875Y-34225D01*
G54D89*
X54377Y-34177D02*
X54500Y-34300D01*
G54D88*
X49235Y-27825D02*
X49385Y-27825D01*
G54D89*
X52280Y-32480D02*
X52275Y-32475D01*
G54D92*
X52846Y-26474D02*
X52895Y-26425D01*
G54D88*
X36590Y-27300D02*
X36640Y-27250D01*
X39840Y-27000D02*
X39580Y-27000D01*
G54D92*
X51146Y-25476D02*
X51146Y-25844D01*
G54D88*
X55040Y-34000D02*
X55040Y-34060D01*
X37410Y-24940D02*
X37450Y-24900D01*
X54800Y-33150D02*
X54570Y-33380D01*
G54D89*
X54264Y-34964D02*
X54400Y-35100D01*
G54D88*
X37450Y-24900D02*
X37450Y-24500D01*
X52835Y-27325D02*
X52825Y-27335D01*
X54450Y-35050D02*
X54400Y-35100D01*
X52975Y-27725D02*
X52945Y-27695D01*
G54D89*
X53067Y-36027D02*
X53140Y-36100D01*
G54D88*
X36640Y-27130D02*
X36410Y-26900D01*
X53215Y-27325D02*
X52835Y-27325D01*
G54D92*
X50831Y-28549D02*
X50775Y-28605D01*
G54D88*
X37600Y-41650D02*
X37600Y-41150D01*
X53075Y-36165D02*
X53140Y-36100D01*
G54D89*
X37185Y-27298D02*
X36688Y-27298D01*
G54D92*
X49624Y-27104D02*
X49565Y-27045D01*
G54D88*
X53475Y-36465D02*
X53075Y-36465D01*
G54D89*
X54364Y-33586D02*
X54570Y-33380D01*
G54D88*
X39290Y-24860D02*
X39250Y-24900D01*
G54D92*
X52751Y-27261D02*
X52825Y-27335D01*
X49791Y-27419D02*
X50044Y-27419D01*
G54D89*
X51689Y-32629D02*
X51525Y-32465D01*
X39465Y-26905D02*
X39115Y-26905D01*
G54D88*
X34050Y-36600D02*
X33610Y-36600D01*
G54D89*
X54264Y-34964D02*
X53933Y-34964D01*
G54D88*
X38090Y-41650D02*
X37600Y-41650D01*
X39250Y-24900D02*
X39250Y-25300D01*
X50325Y-29015D02*
X50385Y-29015D01*
X35210Y-36360D02*
X35250Y-36400D01*
X53525Y-32085D02*
X53525Y-32475D01*
X52275Y-25035D02*
X52275Y-25415D01*
G54D92*
X49791Y-27419D02*
X49625Y-27585D01*
X51146Y-25476D02*
X51075Y-25405D01*
G54D88*
X49615Y-25935D02*
X49625Y-25925D01*
X51175Y-32085D02*
X51575Y-32085D01*
X54790Y-35050D02*
X54450Y-35050D01*
X53215Y-27725D02*
X52975Y-27725D01*
X50615Y-28765D02*
X50775Y-28605D01*
G54D92*
X52826Y-27576D02*
X52406Y-27576D01*
G54D88*
X49385Y-27825D02*
X49625Y-27585D01*
G54D92*
X52751Y-27261D02*
X52406Y-27261D01*
X49859Y-26159D02*
X49625Y-25925D01*
G54D88*
X39750Y-24860D02*
X39290Y-24860D01*
X51575Y-32085D02*
X51575Y-32415D01*
G54D89*
X53067Y-36027D02*
X53067Y-35633D01*
G54D88*
X36590Y-27300D02*
X36360Y-27300D01*
X54790Y-35050D02*
X54790Y-35480D01*
X51075Y-25035D02*
X51075Y-25405D01*
X54790Y-35480D02*
X54800Y-35490D01*
X39580Y-27000D02*
X39570Y-27010D01*
G54D89*
X36688Y-27298D02*
X36640Y-27250D01*
X54377Y-34177D02*
X53933Y-34177D01*
G54D92*
X52826Y-27576D02*
X52945Y-27695D01*
G54D88*
X52275Y-32185D02*
X52375Y-32085D01*
G54D92*
X50831Y-28206D02*
X50831Y-28549D01*
G54D88*
X53215Y-26375D02*
X52945Y-26375D01*
X36410Y-26900D02*
X36360Y-26900D01*
X54800Y-34300D02*
X54500Y-34300D01*
X54940Y-33150D02*
X54800Y-33150D01*
X38160Y-42810D02*
X38150Y-42800D01*
X52945Y-26375D02*
X52895Y-26425D01*
G54D92*
X52846Y-26474D02*
X52406Y-26474D01*
G54D88*
X53525Y-32085D02*
X53925Y-32085D01*
X50385Y-29015D02*
X50615Y-28785D01*
X49545Y-27025D02*
X49565Y-27045D01*
G54D92*
X52091Y-25599D02*
X52275Y-25415D01*
G54D88*
X54875Y-34225D02*
X54875Y-34235D01*
X50725Y-28895D02*
X50725Y-29015D01*
X52375Y-32085D02*
X52775Y-32085D01*
X38550Y-42810D02*
X38160Y-42810D01*
G54D89*
X51689Y-32629D02*
X51689Y-32917D01*
X39465Y-26905D02*
X39570Y-27010D01*
X54364Y-33586D02*
X53933Y-33586D01*
X52280Y-32917D02*
X52280Y-32480D01*
G54D88*
X49225Y-25935D02*
X49615Y-25935D01*
G54D92*
X49859Y-26159D02*
X50044Y-26159D01*
G54D88*
X51575Y-32415D02*
X51525Y-32465D01*
X53075Y-36465D02*
X53075Y-36165D01*
G54D92*
X52091Y-25599D02*
X52091Y-25844D01*
G54D88*
X52275Y-32475D02*
X52275Y-32185D01*
X35210Y-36050D02*
X35210Y-36360D01*
X36950Y-24940D02*
X37410Y-24940D01*
X34050Y-36060D02*
X34050Y-36600D01*
G54D93*
X53461Y-32539D02*
X53461Y-32917D01*
G54D88*
X54875Y-34225D02*
X54800Y-34300D01*
X74090Y-48250D02*
X73700Y-48250D01*
X49850Y-35930D02*
X49820Y-35960D01*
X44300Y-32400D02*
X44300Y-32060D01*
G54D93*
X62210Y-25800D02*
X63300Y-25800D01*
X62210Y-23800D02*
X63300Y-23800D01*
G54D88*
X65960Y-32850D02*
X66100Y-32850D01*
G54D89*
X67343Y-42321D02*
X67343Y-42823D01*
X57919Y-40531D02*
X57150Y-40531D01*
X39295Y-27495D02*
X39115Y-27495D01*
G54D88*
X66640Y-31200D02*
X66640Y-30840D01*
G54D89*
X74991Y-41041D02*
X75000Y-41050D01*
X74996Y-37104D02*
X75000Y-37100D01*
X39550Y-27750D02*
X39550Y-27800D01*
G54D88*
X39710Y-48650D02*
X39310Y-48650D01*
X50440Y-46300D02*
X50440Y-45910D01*
G54D89*
X72657Y-33073D02*
X72810Y-32920D01*
G54D88*
X39840Y-27800D02*
X39840Y-28200D01*
G54D89*
X39705Y-48179D02*
X39705Y-48645D01*
G54D88*
X75390Y-41050D02*
X75000Y-41050D01*
X63650Y-37540D02*
X64050Y-37540D01*
G54D89*
X66555Y-33305D02*
X66350Y-33100D01*
G54D92*
X49725Y-27261D02*
X50044Y-27261D01*
G54D88*
X58140Y-40310D02*
X58050Y-40400D01*
G54D89*
X73159Y-25197D02*
X72933Y-25197D01*
G54D88*
X48410Y-30700D02*
X48750Y-30700D01*
X64690Y-41560D02*
X65000Y-41250D01*
G54D89*
X70295Y-32987D02*
X70295Y-33659D01*
X45906Y-30646D02*
X45906Y-30813D01*
G54D88*
X75390Y-37100D02*
X75000Y-37100D01*
X70350Y-32876D02*
X70378Y-32904D01*
G54D89*
X55575Y-38625D02*
X55600Y-38600D01*
X65024Y-38876D02*
X65669Y-38876D01*
G54D88*
X48750Y-30700D02*
X48800Y-30750D01*
G54D93*
X44295Y-48179D02*
X44295Y-48405D01*
G54D88*
X70350Y-32510D02*
X70350Y-32876D01*
G54D89*
X70492Y-33018D02*
X70378Y-32904D01*
G54D88*
X46450Y-28900D02*
X46500Y-28850D01*
X45510Y-30250D02*
X45660Y-30400D01*
X58400Y-40310D02*
X58140Y-40310D01*
G54D89*
X74992Y-37892D02*
X74331Y-37892D01*
X39705Y-48645D02*
X39710Y-48650D01*
X55575Y-38625D02*
X55575Y-39350D01*
G54D88*
X50440Y-45910D02*
X50450Y-45900D01*
X81210Y-43240D02*
X81250Y-43200D01*
G54D89*
X70295Y-32987D02*
X70378Y-32904D01*
X65012Y-41238D02*
X65000Y-41250D01*
X70492Y-33659D02*
X70492Y-33018D01*
G54D88*
X45190Y-33300D02*
X44850Y-33300D01*
X55600Y-38210D02*
X55600Y-38600D01*
G54D89*
X67343Y-42823D02*
X67540Y-43020D01*
G54D88*
X73140Y-32600D02*
X73130Y-32600D01*
X81250Y-43200D02*
X81250Y-42500D01*
X43710Y-48650D02*
X43310Y-48650D01*
X46800Y-33910D02*
X46800Y-34240D01*
X49265Y-27425D02*
X49275Y-27415D01*
X42200Y-39090D02*
X42200Y-38750D01*
G54D89*
X57650Y-42500D02*
X57150Y-42500D01*
X65093Y-35333D02*
X65669Y-35333D01*
G54D92*
X49515Y-27315D02*
X49415Y-27415D01*
G54D89*
X72933Y-25197D02*
X72560Y-25570D01*
G54D92*
X49415Y-27415D02*
X49275Y-27415D01*
G54D88*
X49850Y-35560D02*
X49850Y-35930D01*
G54D89*
X68720Y-32880D02*
X68720Y-33659D01*
G54D93*
X63300Y-25800D02*
X63500Y-26000D01*
G54D92*
X49725Y-27261D02*
X49671Y-27315D01*
G54D89*
X74973Y-35923D02*
X75000Y-35950D01*
G54D88*
X73130Y-32600D02*
X72810Y-32920D01*
G54D93*
X43106Y-47894D02*
X43010Y-47990D01*
G54D88*
X75390Y-35150D02*
X75000Y-35150D01*
G54D93*
X63300Y-23800D02*
X63500Y-24000D01*
G54D88*
X65390Y-31000D02*
X64990Y-31000D01*
G54D89*
X45906Y-30646D02*
X45660Y-30400D01*
X43705Y-48645D02*
X43710Y-48650D01*
G54D88*
X75390Y-37900D02*
X75000Y-37900D01*
G54D89*
X74996Y-37104D02*
X74331Y-37104D01*
X67533Y-43013D02*
X67540Y-43020D01*
G54D88*
X70700Y-43390D02*
X70700Y-43000D01*
X46450Y-37360D02*
X46450Y-37750D01*
X48410Y-32700D02*
X48800Y-32700D01*
G54D89*
X73248Y-42998D02*
X73250Y-43000D01*
G54D88*
X63900Y-27740D02*
X63500Y-27740D01*
G54D93*
X63300Y-24800D02*
X63500Y-25000D01*
G54D89*
X67533Y-43013D02*
X67540Y-43020D01*
X65093Y-35333D02*
X65030Y-35270D01*
G54D93*
X43321Y-47894D02*
X43106Y-47894D01*
X44295Y-48405D02*
X44050Y-48650D01*
X44050Y-48650D02*
X43710Y-48650D01*
G54D88*
X67360Y-29590D02*
X67350Y-29600D01*
G54D93*
X62210Y-24800D02*
X63300Y-24800D01*
G54D89*
X57919Y-40531D02*
X58050Y-40400D01*
G54D88*
X71190Y-27660D02*
X71190Y-28050D01*
G54D89*
X65012Y-41238D02*
X65669Y-41238D01*
X74973Y-35923D02*
X74331Y-35923D01*
G54D88*
X48935Y-27425D02*
X49265Y-27425D01*
G54D89*
X66555Y-33305D02*
X66555Y-33659D01*
G54D88*
X45510Y-29900D02*
X45510Y-30250D01*
X57890Y-42740D02*
X57850Y-42700D01*
G54D89*
X57650Y-42500D02*
X57850Y-42700D01*
X74986Y-35136D02*
X74331Y-35136D01*
G54D92*
X49671Y-27315D02*
X49515Y-27315D01*
G54D93*
X63300Y-22800D02*
X63500Y-23000D01*
G54D89*
X73248Y-42998D02*
X73248Y-42321D01*
G54D88*
X66100Y-32850D02*
X66350Y-33100D01*
X75390Y-35950D02*
X75000Y-35950D01*
G54D93*
X43010Y-47990D02*
X43010Y-48350D01*
G54D88*
X67360Y-29200D02*
X67360Y-29590D01*
G54D93*
X62210Y-22800D02*
X63300Y-22800D01*
G54D89*
X65024Y-38876D02*
X65000Y-38900D01*
G54D88*
X77760Y-37100D02*
X78150Y-37100D01*
X73250Y-43390D02*
X73250Y-43000D01*
X67540Y-43410D02*
X67540Y-43020D01*
G54D89*
X72657Y-33073D02*
X72657Y-33659D01*
G54D88*
X70090Y-48250D02*
X69700Y-48250D01*
X58300Y-42740D02*
X57890Y-42740D01*
G54D89*
X70689Y-42989D02*
X70689Y-42321D01*
X74986Y-35136D02*
X75000Y-35150D01*
G54D88*
X81210Y-43600D02*
X81210Y-43240D01*
X64950Y-35350D02*
X65030Y-35270D01*
X64610Y-38900D02*
X65000Y-38900D01*
G54D94*
X56600Y-22200D02*
X57200Y-22200D01*
G54D89*
X39295Y-27495D02*
X39550Y-27750D01*
X43705Y-48179D02*
X43705Y-48645D01*
G54D88*
X39840Y-27800D02*
X39550Y-27800D01*
G54D93*
X43010Y-48350D02*
X43310Y-48650D01*
G54D88*
X56300Y-25400D02*
X56300Y-25800D01*
X64610Y-35350D02*
X64950Y-35350D01*
G54D89*
X74992Y-37892D02*
X75000Y-37900D01*
X68720Y-32880D02*
X68750Y-32850D01*
G54D88*
X64550Y-41560D02*
X64690Y-41560D01*
X47350Y-37360D02*
X47350Y-37750D01*
G54D89*
X74991Y-41041D02*
X74331Y-41041D01*
G54D88*
X46800Y-34240D02*
X46730Y-34310D01*
X46450Y-29240D02*
X46450Y-28900D01*
X62510Y-33550D02*
X62900Y-33550D01*
X68750Y-32460D02*
X68750Y-32850D01*
G54D89*
X70689Y-42989D02*
X70700Y-43000D01*
G54D92*
X50245Y-28485D02*
X49975Y-28485D01*
G54D93*
X62500Y-32190D02*
X62500Y-31850D01*
G54D92*
X50359Y-28371D02*
X50245Y-28485D01*
G54D93*
X70738Y-34872D02*
X67898Y-34872D01*
X71476Y-34134D02*
X70738Y-34872D01*
X67898Y-34872D02*
X67610Y-35160D01*
G54D92*
X50359Y-28206D02*
X50359Y-28371D01*
G54D93*
X71476Y-34134D02*
X71476Y-33659D01*
M02*
