M48
INCH,TZ
T1C0.013
T2C0.014
T3C0.015
T4C0.016
T5C0.020
T6C0.025
T7C0.028
T8C0.040
T9C0.041
T10C0.047
T11C0.060
T12C0.067
T13C0.126
%
G90
G05
T1
X033650Y-039550
X033650Y-040400
X034350Y-022550
X034550Y-039500
X034740Y-041100
X034750Y-030250
X034780Y-035640
X034850Y-026330
X034900Y-034400
X034900Y-034750
X035010Y-039720
X035150Y-033100
X035420Y-022550
X035600Y-033100
X035660Y-037040
X036000Y-025950
X036000Y-031500
X036050Y-033100
X036050Y-034550
X036090Y-024630
X036100Y-025500
X036280Y-035280
X036370Y-039100
X036450Y-024300
X036620Y-035260
X036690Y-039250
X036800Y-036850
X036810Y-026610
X036810Y-030200
X037200Y-034500
X037250Y-031500
X037330Y-028590
X037340Y-037710
X037340Y-038560
X037430Y-025680
X037750Y-025420
X038100Y-030350
X038150Y-042350
X038550Y-047360
X038560Y-048220
X038600Y-028630
X038850Y-047960
X038930Y-047230
X038970Y-025670
X039000Y-046870
X039010Y-028610
X039020Y-022820
X039220Y-045050
X039240Y-036530
X039260Y-025930
X039270Y-023190
X039400Y-035520
X039590Y-023020
X039670Y-045890
X039880Y-029130
X040160Y-045620
X040230Y-023850
X040250Y-035260
X040390Y-031410
X040410Y-042350
X040570Y-035690
X040580Y-048550
X040600Y-044770
X040730Y-034350
X040740Y-034770
X040750Y-031420
X040970Y-044750
X041100Y-046180
X041260Y-024230
X041280Y-047760
X041410Y-025250
X041450Y-031410
X041600Y-047570
X041710Y-031150
X042000Y-047190
X042200Y-023670
X042340Y-023280
X042370Y-047570
X042870Y-047040
X043098Y-025298
X043100Y-024150
X043130Y-026360
X043390Y-046520
X043870Y-026410
X044130Y-026170
X044620Y-027220
X044680Y-026560
X044700Y-032300
X044780Y-026900
X044950Y-047000
X045050Y-032350
X045310Y-047400
X045330Y-047030
X045670Y-047790
X046000Y-030000
X046030Y-047120
X046350Y-034060
X046450Y-036600
X047350Y-036600
X047650Y-031600
X047650Y-031950
X049575Y-026375
X049975Y-028485
X050200Y-040360
X051180Y-029850
X051180Y-030230
X051620Y-029390
X051670Y-028620
X051670Y-029010
X051800Y-038500
X052025Y-030975
X052525Y-030975
X052750Y-032450
X052825Y-027335
X052895Y-026425
X053025Y-030975
X053525Y-030975
X053850Y-036180
X054060Y-035880
X054075Y-028675
X054320Y-035640
X054575Y-028675
X055075Y-028675
X055575Y-028675
X056340Y-036940
X056460Y-033110
X056460Y-033550
X056630Y-030180
X056960Y-030050
X057340Y-036940
X057520Y-026850
X057550Y-029130
X057690Y-043610
X057760Y-031520
X059030Y-024610
X060080Y-026420
X060220Y-026080
X060320Y-046400
X060650Y-026060
X061140Y-035260
X061210Y-035700
X061310Y-036060
X061560Y-036350
X061710Y-046540
X061800Y-037050
X062020Y-026880
X062060Y-045810
X062120Y-036860
X062280Y-034350
X062330Y-045130
X062500Y-031850
X062700Y-046100
X062720Y-034080
X063630Y-035750
X063630Y-036820
X063630Y-038280
X063660Y-036110
X064010Y-032720
X064030Y-031800
X064180Y-039980
X064320Y-032500
X064420Y-038540
X064580Y-033700
X064580Y-034080
X064940Y-034130
X065020Y-040750
X065060Y-036190
X065330Y-034130
X066210Y-035570
X066370Y-036240
X066610Y-035640
X066650Y-036620
X066660Y-037010
X066960Y-037490
X067190Y-037210
X067280Y-044690
X067290Y-038100
X067390Y-049290
X067440Y-037760
X067610Y-035160
X067610Y-038790
X067660Y-049530
X067710Y-038440
X067930Y-039250
X067940Y-040990
X067970Y-041810
X068040Y-035150
X068220Y-041230
X068240Y-042920
X068460Y-035140
X068480Y-040710
X070100Y-027500
X070210Y-028110
X070400Y-029650
X071190Y-026830
X071380Y-028550
X071590Y-026500
X071740Y-041300
X071830Y-042950
X072250Y-029600
X072270Y-024000
X072560Y-037690
X072830Y-035860
X072990Y-035540
X073110Y-035040
X073430Y-035210
X073553Y-024705
X073553Y-025295
X073720Y-036910
X073740Y-037710
X073750Y-025000
X073947Y-024705
X073947Y-025295
X074880Y-040430
X074930Y-040070
X075050Y-025450
X075270Y-040640
X075500Y-024750
X075610Y-036730
T2
X037717Y-026767
X037717Y-027200
X037717Y-027633
X038150Y-026767
X038150Y-027200
X038150Y-027633
X038583Y-026767
X038583Y-027200
X038583Y-027633
X039798Y-047298
X039798Y-047702
X040202Y-047298
X040202Y-047702
X043798Y-047298
X043798Y-047702
X044202Y-047298
X044202Y-047702
X046039Y-031339
X046039Y-031861
X046300Y-031600
X046561Y-031339
X046561Y-031861
T3
X050631Y-026431
X050631Y-027025
X050631Y-027619
X051225Y-026431
X051225Y-027025
X051225Y-027619
X051819Y-026431
X051819Y-027025
X051819Y-027619
X051925Y-033625
X051925Y-034275
X051925Y-034925
X052575Y-033625
X052575Y-034275
X052575Y-034925
X053225Y-033625
X053225Y-034275
X053225Y-034925
T4
X034850Y-025950
X035000Y-025500
X035100Y-027300
X035300Y-025050
X035630Y-026500
X035630Y-026900
X035630Y-027300
X049275Y-027415
X049470Y-036330
X049565Y-027045
X049625Y-027585
X049820Y-035960
X052325Y-031415
X052685Y-031375
X052945Y-027695
X053525Y-031375
X053525Y-032475
X053925Y-031375
X054325Y-031375
X054725Y-031375
X055125Y-031375
X063910Y-028530
X064500Y-028250
X068750Y-028710
X069490Y-027840
X070790Y-028050
X071190Y-028050
X071600Y-023500
X071600Y-026000
X072450Y-024400
X072560Y-025570
X076450Y-039200
X076450Y-039900
X076450Y-040350
X079830Y-040270
X080690Y-040200
T5
X034680Y-042180
X035140Y-041500
X035650Y-034600
X035890Y-042320
X036450Y-025700
X036640Y-027250
X040650Y-026900
X040650Y-027950
X044300Y-032400
X044850Y-033300
X048415Y-027045
X048425Y-027825
X050615Y-028785
X050725Y-029835
X051005Y-023005
X051145Y-023445
X052275Y-032475
X053985Y-027515
X055750Y-033750
X055750Y-034300
X057400Y-030800
X071350Y-032850
X073750Y-036320
T6
X033070Y-044460
X033150Y-038000
X033190Y-038790
X033190Y-039620
X033290Y-042550
X033500Y-037200
X033610Y-036600
X033640Y-022950
X033700Y-035650
X033750Y-034050
X033750Y-034750
X033800Y-038670
X034160Y-040500
X034900Y-023200
X035230Y-037040
X035250Y-031900
X035250Y-036400
X035400Y-038930
X035800Y-023650
X035850Y-029050
X035940Y-038470
X035970Y-036150
X036070Y-030860
X036510Y-039870
X036560Y-022550
X036600Y-032150
X036600Y-033850
X036850Y-028700
X036980Y-024100
X037000Y-025700
X037200Y-029130
X037450Y-024500
X037550Y-029550
X037600Y-041150
X037750Y-022950
X037760Y-037710
X037950Y-034850
X038010Y-031900
X038050Y-028700
X038100Y-032700
X038100Y-033200
X038100Y-040130
X038150Y-036900
X038150Y-038200
X038150Y-042800
X038890Y-030650
X038890Y-049050
X038900Y-041650
X039250Y-025300
X039550Y-027800
X039570Y-027010
X039710Y-048650
X039750Y-024050
X040050Y-028600
X040100Y-025190
X040280Y-046320
X040490Y-024680
X040650Y-027400
X041450Y-026400
X041750Y-040350
X042000Y-024700
X042200Y-038750
X042500Y-024700
X042890Y-049050
X043000Y-023500
X043500Y-038700
X043710Y-048650
X043940Y-029720
X044260Y-025300
X044300Y-046320
X045000Y-030900
X045090Y-029500
X045250Y-034600
X045650Y-029000
X045660Y-030400
X046450Y-037750
X046500Y-028850
X046600Y-028050
X046730Y-034310
X046950Y-029650
X047300Y-034310
X047350Y-037750
X047400Y-032300
X047650Y-031150
X047690Y-033200
X048125Y-027425
X048340Y-029160
X048450Y-033500
X048500Y-031450
X048650Y-032200
X048800Y-030200
X048800Y-030750
X048800Y-032700
X049000Y-042100
X049225Y-025125
X049525Y-029435
X049580Y-034160
X049580Y-034640
X049625Y-025925
X049800Y-042500
X049935Y-023225
X050200Y-039880
X050225Y-029835
X050450Y-045900
X050450Y-047150
X050600Y-038900
X050795Y-031665
X051020Y-032840
X051075Y-024225
X051075Y-025405
X051300Y-047600
X051400Y-046300
X051460Y-041280
X051505Y-031265
X051525Y-032465
X052215Y-023225
X052275Y-024225
X052275Y-025415
X052430Y-039990
X052700Y-047600
X052800Y-046400
X053130Y-037260
X053140Y-036100
X053635Y-025975
X053635Y-028125
X053810Y-045010
X053860Y-036890
X054400Y-035100
X054450Y-036150
X054500Y-034300
X054570Y-033380
X055180Y-045010
X055200Y-032800
X055600Y-035100
X055600Y-038600
X055800Y-024400
X055950Y-037790
X056150Y-024900
X056300Y-025800
X057150Y-026100
X057200Y-022200
X057400Y-024900
X057500Y-039850
X057850Y-042700
X057900Y-043200
X058050Y-040400
X058400Y-039500
X058600Y-022900
X061400Y-023300
X061400Y-024300
X061400Y-025300
X061400Y-026300
X062500Y-033000
X062900Y-033550
X063500Y-027740
X063800Y-035350
X063800Y-038900
X064050Y-037540
X064550Y-040800
X064990Y-031000
X065000Y-038900
X065000Y-041250
X065030Y-035270
X065550Y-033250
X066310Y-035140
X066350Y-033100
X066640Y-030840
X067000Y-043190
X067350Y-029600
X067540Y-043020
X067540Y-044230
X067900Y-029100
X068750Y-031650
X068750Y-032850
X068800Y-023950
X069100Y-034300
X069250Y-031650
X069650Y-024150
X069700Y-048250
X069900Y-034300
X070350Y-031690
X070378Y-032904
X070700Y-043000
X070700Y-044200
X071000Y-045300
X071000Y-046100
X071200Y-030040
X071800Y-024000
X071850Y-030550
X072250Y-033000
X072500Y-031100
X072770Y-034260
X072800Y-045050
X072810Y-032920
X072900Y-023500
X072900Y-026500
X072950Y-031900
X073250Y-043000
X073250Y-044200
X073350Y-022350
X073350Y-027650
X073550Y-032200
X073700Y-048250
X074040Y-031190
X074900Y-025000
X074960Y-041560
X075000Y-035150
X075000Y-035950
X075000Y-037100
X075000Y-037900
X075000Y-041050
X076000Y-033150
X076200Y-031100
X076200Y-035150
X076200Y-035950
X076200Y-037100
X076200Y-037900
X076200Y-041050
X076750Y-025000
X078150Y-037100
X079330Y-039490
X080400Y-043600
X081250Y-043200
T7
X063000Y-029400
X063000Y-029900
X063500Y-029400
X063500Y-029900
X064000Y-029400
X064000Y-029900
X064500Y-029400
X064500Y-029900
X065000Y-029400
X065000Y-029900
T8
X042500Y-033500
X043500Y-033500
X047500Y-044500
X047500Y-045500
X047500Y-046500
X047500Y-047500
X047500Y-048500
X047500Y-049500
X050500Y-048500
X050500Y-049500
X051500Y-048500
X051500Y-049500
X052500Y-048500
X052500Y-049500
X053500Y-048500
X053500Y-049500
X054500Y-023000
X054500Y-024000
X054500Y-048500
X054500Y-049500
X059500Y-029000
X059500Y-030000
X059500Y-031000
X059500Y-032000
X059500Y-033000
X059500Y-034000
X059500Y-035000
X059500Y-036000
X060500Y-029000
X060500Y-030000
X060500Y-031000
X060500Y-032000
X060500Y-033000
X060500Y-034000
X060500Y-035000
X060500Y-036000
X061500Y-048500
X061500Y-049500
X062500Y-048500
X062500Y-049500
X063500Y-023000
X063500Y-024000
X063500Y-025000
X063500Y-026000
X063500Y-048500
X063500Y-049500
X064500Y-023000
X064500Y-024000
X064500Y-025000
X064500Y-026000
X064500Y-048500
X064500Y-049500
X065500Y-023000
X065500Y-024000
X065500Y-025000
X065500Y-026000
X065500Y-048500
X065500Y-049500
X066500Y-048500
X066500Y-049500
X067500Y-025000
X067500Y-026000
X069500Y-049500
X070500Y-049500
X071500Y-049500
X072500Y-049500
X073500Y-029000
X073500Y-030000
X073500Y-049500
X074500Y-029000
X074500Y-030000
X074500Y-049500
X075500Y-029000
X075500Y-030000
X076500Y-029000
X076500Y-030000
X076510Y-046500
X076510Y-047500
X077500Y-023000
X077500Y-024000
X077500Y-026000
X077500Y-027000
X077500Y-031500
X077500Y-032500
X077500Y-033500
X077500Y-034500
X077500Y-035500
X077500Y-038500
X077500Y-039500
X077500Y-040500
X077500Y-041500
X077500Y-042500
X077500Y-043500
X077510Y-046500
X077510Y-047500
X078500Y-031500
X078500Y-032500
X078500Y-033500
X078500Y-034500
X078500Y-035500
X078500Y-038500
X078500Y-039500
X078500Y-040500
X078500Y-041500
X078500Y-042500
X078500Y-043500
X078510Y-046500
X078510Y-047500
T9
X068521Y-023339
X070479Y-023339
T10
X068417Y-022169
X070583Y-022169
T11
X035000Y-044500
X043500Y-036500
X043500Y-042500
T12
X034000Y-043500
X034000Y-045500
X036000Y-043500
X036000Y-045500
X042500Y-035500
X042500Y-037500
X042500Y-041500
X042500Y-043500
X044500Y-035500
X044500Y-037500
X044500Y-041500
X044500Y-043500
T13
X026075Y-023075
X026075Y-048925
X080925Y-023075
X080925Y-048925
T0
M30
