G04 (created by PCBNEW (2013-01-23 BZR 3920)-stable) date Mon Jun 10 00:49:26 2013*
%MOIN*%
G04 Gerber Fmt 3.4, Leading zero omitted, Abs format*
%FSLAX34Y34*%
G01*
G70*
G90*
G04 APERTURE LIST*
%ADD10C,2.3622e-06*%
%ADD11C,0.008*%
%ADD12C,0.0075*%
%ADD13C,0.004*%
%ADD14C,0.012*%
%ADD15C,0.024*%
%ADD16C,0.005*%
%ADD17C,0.015*%
%ADD18C,0.007*%
%ADD19C,0.01*%
G04 APERTURE END LIST*
G54D10*
G54D11*
X62400Y-29900D02*
X61800Y-29900D01*
X62400Y-29900D02*
X62200Y-30100D01*
X62400Y-29900D02*
X62200Y-29700D01*
X33700Y-41500D02*
X33400Y-40900D01*
X33700Y-41500D02*
X33400Y-41400D01*
X33700Y-41500D02*
X33800Y-41200D01*
G54D12*
X71607Y-28311D02*
X71435Y-28311D01*
X71521Y-28311D02*
X71521Y-27911D01*
X71492Y-27969D01*
X71464Y-28007D01*
X71435Y-28026D01*
X71692Y-27911D02*
X71792Y-28311D01*
X71892Y-27911D01*
X72035Y-28083D02*
X72007Y-28064D01*
X71992Y-28045D01*
X71978Y-28007D01*
X71978Y-27988D01*
X71992Y-27950D01*
X72007Y-27930D01*
X72035Y-27911D01*
X72092Y-27911D01*
X72121Y-27930D01*
X72135Y-27950D01*
X72150Y-27988D01*
X72150Y-28007D01*
X72135Y-28045D01*
X72121Y-28064D01*
X72092Y-28083D01*
X72035Y-28083D01*
X72007Y-28102D01*
X71992Y-28121D01*
X71978Y-28159D01*
X71978Y-28235D01*
X71992Y-28273D01*
X72007Y-28292D01*
X72035Y-28311D01*
X72092Y-28311D01*
X72121Y-28292D01*
X72135Y-28273D01*
X72150Y-28235D01*
X72150Y-28159D01*
X72135Y-28121D01*
X72121Y-28102D01*
X72092Y-28083D01*
X72421Y-28311D02*
X72278Y-28311D01*
X72278Y-27911D01*
X72521Y-28102D02*
X72621Y-28102D01*
X72664Y-28311D02*
X72521Y-28311D01*
X72521Y-27911D01*
X72664Y-27911D01*
X72792Y-28311D02*
X72792Y-27911D01*
X72864Y-27911D01*
X72907Y-27930D01*
X72935Y-27969D01*
X72950Y-28007D01*
X72964Y-28083D01*
X72964Y-28140D01*
X72950Y-28216D01*
X72935Y-28254D01*
X72907Y-28292D01*
X72864Y-28311D01*
X72792Y-28311D01*
X66342Y-27911D02*
X66442Y-28311D01*
X66542Y-27911D01*
X66814Y-28273D02*
X66800Y-28292D01*
X66757Y-28311D01*
X66728Y-28311D01*
X66685Y-28292D01*
X66657Y-28254D01*
X66642Y-28216D01*
X66628Y-28140D01*
X66628Y-28083D01*
X66642Y-28007D01*
X66657Y-27969D01*
X66685Y-27930D01*
X66728Y-27911D01*
X66757Y-27911D01*
X66800Y-27930D01*
X66814Y-27950D01*
X67114Y-28273D02*
X67100Y-28292D01*
X67057Y-28311D01*
X67028Y-28311D01*
X66985Y-28292D01*
X66957Y-28254D01*
X66942Y-28216D01*
X66928Y-28140D01*
X66928Y-28083D01*
X66942Y-28007D01*
X66957Y-27969D01*
X66985Y-27930D01*
X67028Y-27911D01*
X67057Y-27911D01*
X67100Y-27930D01*
X67114Y-27950D01*
X67385Y-28311D02*
X67242Y-28311D01*
X67242Y-27911D01*
X67485Y-28102D02*
X67585Y-28102D01*
X67628Y-28311D02*
X67485Y-28311D01*
X67485Y-27911D01*
X67628Y-27911D01*
X67757Y-28311D02*
X67757Y-27911D01*
X67828Y-27911D01*
X67871Y-27930D01*
X67900Y-27969D01*
X67914Y-28007D01*
X67928Y-28083D01*
X67928Y-28140D01*
X67914Y-28216D01*
X67900Y-28254D01*
X67871Y-28292D01*
X67828Y-28311D01*
X67757Y-28311D01*
X73338Y-31114D02*
X73338Y-30971D01*
X73738Y-30971D01*
X73547Y-31214D02*
X73547Y-31314D01*
X73338Y-31357D02*
X73338Y-31214D01*
X73738Y-31214D01*
X73738Y-31357D01*
X73338Y-31485D02*
X73738Y-31485D01*
X73738Y-31557D01*
X73719Y-31600D01*
X73680Y-31628D01*
X73642Y-31642D01*
X73566Y-31657D01*
X73509Y-31657D01*
X73433Y-31642D01*
X73395Y-31628D01*
X73357Y-31600D01*
X73338Y-31557D01*
X73338Y-31485D01*
X73338Y-31942D02*
X73338Y-31771D01*
X73338Y-31857D02*
X73738Y-31857D01*
X73680Y-31828D01*
X73642Y-31800D01*
X73623Y-31771D01*
X75288Y-31164D02*
X75288Y-31021D01*
X75688Y-31021D01*
X75497Y-31264D02*
X75497Y-31364D01*
X75288Y-31407D02*
X75288Y-31264D01*
X75688Y-31264D01*
X75688Y-31407D01*
X75288Y-31535D02*
X75688Y-31535D01*
X75688Y-31607D01*
X75669Y-31650D01*
X75630Y-31678D01*
X75592Y-31692D01*
X75516Y-31707D01*
X75459Y-31707D01*
X75383Y-31692D01*
X75345Y-31678D01*
X75307Y-31650D01*
X75288Y-31607D01*
X75288Y-31535D01*
X75650Y-31821D02*
X75669Y-31835D01*
X75688Y-31864D01*
X75688Y-31935D01*
X75669Y-31964D01*
X75650Y-31978D01*
X75611Y-31992D01*
X75573Y-31992D01*
X75516Y-31978D01*
X75288Y-31807D01*
X75288Y-31992D01*
X71588Y-44964D02*
X71588Y-44821D01*
X71988Y-44821D01*
X71797Y-45064D02*
X71797Y-45164D01*
X71588Y-45207D02*
X71588Y-45064D01*
X71988Y-45064D01*
X71988Y-45207D01*
X71588Y-45335D02*
X71988Y-45335D01*
X71988Y-45407D01*
X71969Y-45450D01*
X71930Y-45478D01*
X71892Y-45492D01*
X71816Y-45507D01*
X71759Y-45507D01*
X71683Y-45492D01*
X71645Y-45478D01*
X71607Y-45450D01*
X71588Y-45407D01*
X71588Y-45335D01*
X71988Y-45607D02*
X71988Y-45792D01*
X71835Y-45692D01*
X71835Y-45735D01*
X71816Y-45764D01*
X71797Y-45778D01*
X71759Y-45792D01*
X71664Y-45792D01*
X71626Y-45778D01*
X71607Y-45764D01*
X71588Y-45735D01*
X71588Y-45650D01*
X71607Y-45621D01*
X71626Y-45607D01*
X66857Y-45861D02*
X66857Y-46185D01*
X66871Y-46223D01*
X66885Y-46242D01*
X66914Y-46261D01*
X66971Y-46261D01*
X67000Y-46242D01*
X67014Y-46223D01*
X67028Y-46185D01*
X67028Y-45861D01*
X67157Y-46242D02*
X67200Y-46261D01*
X67271Y-46261D01*
X67300Y-46242D01*
X67314Y-46223D01*
X67328Y-46185D01*
X67328Y-46147D01*
X67314Y-46109D01*
X67300Y-46090D01*
X67271Y-46071D01*
X67214Y-46052D01*
X67185Y-46033D01*
X67171Y-46014D01*
X67157Y-45976D01*
X67157Y-45938D01*
X67171Y-45900D01*
X67185Y-45880D01*
X67214Y-45861D01*
X67285Y-45861D01*
X67328Y-45880D01*
X67557Y-46052D02*
X67600Y-46071D01*
X67614Y-46090D01*
X67628Y-46128D01*
X67628Y-46185D01*
X67614Y-46223D01*
X67600Y-46242D01*
X67571Y-46261D01*
X67457Y-46261D01*
X67457Y-45861D01*
X67557Y-45861D01*
X67585Y-45880D01*
X67600Y-45900D01*
X67614Y-45938D01*
X67614Y-45976D01*
X67600Y-46014D01*
X67585Y-46033D01*
X67557Y-46052D01*
X67457Y-46052D01*
X67685Y-46300D02*
X67914Y-46300D01*
X68128Y-46261D02*
X67985Y-46261D01*
X67985Y-45861D01*
X68228Y-46052D02*
X68328Y-46052D01*
X68371Y-46261D02*
X68228Y-46261D01*
X68228Y-45861D01*
X68371Y-45861D01*
X68500Y-46261D02*
X68500Y-45861D01*
X68571Y-45861D01*
X68614Y-45880D01*
X68642Y-45919D01*
X68657Y-45957D01*
X68671Y-46033D01*
X68671Y-46090D01*
X68657Y-46166D01*
X68642Y-46204D01*
X68614Y-46242D01*
X68571Y-46261D01*
X68500Y-46261D01*
X68957Y-46261D02*
X68785Y-46261D01*
X68871Y-46261D02*
X68871Y-45861D01*
X68842Y-45919D01*
X68814Y-45957D01*
X68785Y-45976D01*
X66857Y-45061D02*
X66857Y-45385D01*
X66871Y-45423D01*
X66885Y-45442D01*
X66914Y-45461D01*
X66971Y-45461D01*
X67000Y-45442D01*
X67014Y-45423D01*
X67028Y-45385D01*
X67028Y-45061D01*
X67157Y-45442D02*
X67200Y-45461D01*
X67271Y-45461D01*
X67300Y-45442D01*
X67314Y-45423D01*
X67328Y-45385D01*
X67328Y-45347D01*
X67314Y-45309D01*
X67300Y-45290D01*
X67271Y-45271D01*
X67214Y-45252D01*
X67185Y-45233D01*
X67171Y-45214D01*
X67157Y-45176D01*
X67157Y-45138D01*
X67171Y-45100D01*
X67185Y-45080D01*
X67214Y-45061D01*
X67285Y-45061D01*
X67328Y-45080D01*
X67557Y-45252D02*
X67600Y-45271D01*
X67614Y-45290D01*
X67628Y-45328D01*
X67628Y-45385D01*
X67614Y-45423D01*
X67600Y-45442D01*
X67571Y-45461D01*
X67457Y-45461D01*
X67457Y-45061D01*
X67557Y-45061D01*
X67585Y-45080D01*
X67600Y-45100D01*
X67614Y-45138D01*
X67614Y-45176D01*
X67600Y-45214D01*
X67585Y-45233D01*
X67557Y-45252D01*
X67457Y-45252D01*
X67685Y-45500D02*
X67914Y-45500D01*
X68128Y-45461D02*
X67985Y-45461D01*
X67985Y-45061D01*
X68228Y-45252D02*
X68328Y-45252D01*
X68371Y-45461D02*
X68228Y-45461D01*
X68228Y-45061D01*
X68371Y-45061D01*
X68500Y-45461D02*
X68500Y-45061D01*
X68571Y-45061D01*
X68614Y-45080D01*
X68642Y-45119D01*
X68657Y-45157D01*
X68671Y-45233D01*
X68671Y-45290D01*
X68657Y-45366D01*
X68642Y-45404D01*
X68614Y-45442D01*
X68571Y-45461D01*
X68500Y-45461D01*
X68857Y-45061D02*
X68885Y-45061D01*
X68914Y-45080D01*
X68928Y-45100D01*
X68942Y-45138D01*
X68957Y-45214D01*
X68957Y-45309D01*
X68942Y-45385D01*
X68928Y-45423D01*
X68914Y-45442D01*
X68885Y-45461D01*
X68857Y-45461D01*
X68828Y-45442D01*
X68814Y-45423D01*
X68800Y-45385D01*
X68785Y-45309D01*
X68785Y-45214D01*
X68800Y-45138D01*
X68814Y-45100D01*
X68828Y-45080D01*
X68857Y-45061D01*
G54D13*
X78428Y-23876D02*
X78428Y-23761D01*
X78428Y-23819D02*
X78728Y-23819D01*
X78685Y-23800D01*
X78657Y-23780D01*
X78642Y-23761D01*
X78728Y-23933D02*
X78428Y-24000D01*
X78728Y-24066D01*
X78600Y-24161D02*
X78614Y-24142D01*
X78628Y-24133D01*
X78657Y-24123D01*
X78671Y-24123D01*
X78700Y-24133D01*
X78714Y-24142D01*
X78728Y-24161D01*
X78728Y-24200D01*
X78714Y-24219D01*
X78700Y-24228D01*
X78671Y-24238D01*
X78657Y-24238D01*
X78628Y-24228D01*
X78614Y-24219D01*
X78600Y-24200D01*
X78600Y-24161D01*
X78585Y-24142D01*
X78571Y-24133D01*
X78542Y-24123D01*
X78485Y-24123D01*
X78457Y-24133D01*
X78442Y-24142D01*
X78428Y-24161D01*
X78428Y-24200D01*
X78442Y-24219D01*
X78457Y-24228D01*
X78485Y-24238D01*
X78542Y-24238D01*
X78571Y-24228D01*
X78585Y-24219D01*
X78600Y-24200D01*
X78728Y-26733D02*
X78428Y-26800D01*
X78728Y-26866D01*
X78457Y-27047D02*
X78442Y-27038D01*
X78428Y-27009D01*
X78428Y-26990D01*
X78442Y-26961D01*
X78471Y-26942D01*
X78500Y-26933D01*
X78557Y-26923D01*
X78600Y-26923D01*
X78657Y-26933D01*
X78685Y-26942D01*
X78714Y-26961D01*
X78728Y-26990D01*
X78728Y-27009D01*
X78714Y-27038D01*
X78700Y-27047D01*
X78457Y-27247D02*
X78442Y-27238D01*
X78428Y-27209D01*
X78428Y-27190D01*
X78442Y-27161D01*
X78471Y-27142D01*
X78500Y-27133D01*
X78557Y-27123D01*
X78600Y-27123D01*
X78657Y-27133D01*
X78685Y-27142D01*
X78714Y-27161D01*
X78728Y-27190D01*
X78728Y-27209D01*
X78714Y-27238D01*
X78700Y-27247D01*
X68714Y-24847D02*
X68728Y-24828D01*
X68728Y-24800D01*
X68714Y-24771D01*
X68685Y-24752D01*
X68657Y-24742D01*
X68600Y-24733D01*
X68557Y-24733D01*
X68500Y-24742D01*
X68471Y-24752D01*
X68442Y-24771D01*
X68428Y-24800D01*
X68428Y-24819D01*
X68442Y-24847D01*
X68457Y-24857D01*
X68557Y-24857D01*
X68557Y-24819D01*
X68428Y-24942D02*
X68728Y-24942D01*
X68428Y-25057D01*
X68728Y-25057D01*
X68428Y-25152D02*
X68728Y-25152D01*
X68728Y-25200D01*
X68714Y-25228D01*
X68685Y-25247D01*
X68657Y-25257D01*
X68600Y-25266D01*
X68557Y-25266D01*
X68500Y-25257D01*
X68471Y-25247D01*
X68442Y-25228D01*
X68428Y-25200D01*
X68428Y-25152D01*
X68714Y-25847D02*
X68728Y-25828D01*
X68728Y-25800D01*
X68714Y-25771D01*
X68685Y-25752D01*
X68657Y-25742D01*
X68600Y-25733D01*
X68557Y-25733D01*
X68500Y-25742D01*
X68471Y-25752D01*
X68442Y-25771D01*
X68428Y-25800D01*
X68428Y-25819D01*
X68442Y-25847D01*
X68457Y-25857D01*
X68557Y-25857D01*
X68557Y-25819D01*
X68428Y-25942D02*
X68728Y-25942D01*
X68428Y-26057D01*
X68728Y-26057D01*
X68428Y-26152D02*
X68728Y-26152D01*
X68728Y-26200D01*
X68714Y-26228D01*
X68685Y-26247D01*
X68657Y-26257D01*
X68600Y-26266D01*
X68557Y-26266D01*
X68500Y-26257D01*
X68471Y-26247D01*
X68442Y-26228D01*
X68428Y-26200D01*
X68428Y-26152D01*
X53578Y-23861D02*
X53278Y-23928D01*
X53578Y-23995D01*
X53364Y-24052D02*
X53364Y-24147D01*
X53278Y-24033D02*
X53578Y-24100D01*
X53278Y-24166D01*
X53364Y-24223D02*
X53364Y-24319D01*
X53278Y-24204D02*
X53578Y-24271D01*
X53278Y-24338D01*
X65347Y-26935D02*
X65328Y-26921D01*
X65300Y-26921D01*
X65271Y-26935D01*
X65252Y-26964D01*
X65242Y-26992D01*
X65233Y-27050D01*
X65233Y-27092D01*
X65242Y-27150D01*
X65252Y-27178D01*
X65271Y-27207D01*
X65300Y-27221D01*
X65319Y-27221D01*
X65347Y-27207D01*
X65357Y-27192D01*
X65357Y-27092D01*
X65319Y-27092D01*
X65442Y-27221D02*
X65442Y-26921D01*
X65557Y-27221D01*
X65557Y-26921D01*
X65652Y-27221D02*
X65652Y-26921D01*
X65700Y-26921D01*
X65728Y-26935D01*
X65747Y-26964D01*
X65757Y-26992D01*
X65766Y-27050D01*
X65766Y-27092D01*
X65757Y-27150D01*
X65747Y-27178D01*
X65728Y-27207D01*
X65700Y-27221D01*
X65652Y-27221D01*
X63233Y-26921D02*
X63300Y-27221D01*
X63366Y-26921D01*
X63547Y-27192D02*
X63538Y-27207D01*
X63509Y-27221D01*
X63490Y-27221D01*
X63461Y-27207D01*
X63442Y-27178D01*
X63433Y-27150D01*
X63423Y-27092D01*
X63423Y-27050D01*
X63433Y-26992D01*
X63442Y-26964D01*
X63461Y-26935D01*
X63490Y-26921D01*
X63509Y-26921D01*
X63538Y-26935D01*
X63547Y-26950D01*
X63747Y-27192D02*
X63738Y-27207D01*
X63709Y-27221D01*
X63690Y-27221D01*
X63661Y-27207D01*
X63642Y-27178D01*
X63633Y-27150D01*
X63623Y-27092D01*
X63623Y-27050D01*
X63633Y-26992D01*
X63642Y-26964D01*
X63661Y-26935D01*
X63690Y-26921D01*
X63709Y-26921D01*
X63738Y-26935D01*
X63747Y-26950D01*
X66178Y-25680D02*
X66478Y-25680D01*
X66478Y-25757D01*
X66464Y-25776D01*
X66450Y-25785D01*
X66421Y-25795D01*
X66378Y-25795D01*
X66350Y-25785D01*
X66335Y-25776D01*
X66321Y-25757D01*
X66321Y-25680D01*
X66450Y-25871D02*
X66464Y-25880D01*
X66478Y-25899D01*
X66478Y-25947D01*
X66464Y-25966D01*
X66450Y-25976D01*
X66421Y-25985D01*
X66392Y-25985D01*
X66350Y-25976D01*
X66178Y-25861D01*
X66178Y-25985D01*
X66150Y-26023D02*
X66150Y-26176D01*
X66178Y-26233D02*
X66178Y-26271D01*
X66192Y-26290D01*
X66207Y-26300D01*
X66250Y-26319D01*
X66307Y-26328D01*
X66421Y-26328D01*
X66450Y-26319D01*
X66464Y-26309D01*
X66478Y-26290D01*
X66478Y-26252D01*
X66464Y-26233D01*
X66450Y-26223D01*
X66421Y-26214D01*
X66350Y-26214D01*
X66321Y-26223D01*
X66307Y-26233D01*
X66292Y-26252D01*
X66292Y-26290D01*
X66307Y-26309D01*
X66321Y-26319D01*
X66350Y-26328D01*
X66178Y-24680D02*
X66478Y-24680D01*
X66478Y-24757D01*
X66464Y-24776D01*
X66450Y-24785D01*
X66421Y-24795D01*
X66378Y-24795D01*
X66350Y-24785D01*
X66335Y-24776D01*
X66321Y-24757D01*
X66321Y-24680D01*
X66450Y-24871D02*
X66464Y-24880D01*
X66478Y-24899D01*
X66478Y-24947D01*
X66464Y-24966D01*
X66450Y-24976D01*
X66421Y-24985D01*
X66392Y-24985D01*
X66350Y-24976D01*
X66178Y-24861D01*
X66178Y-24985D01*
X66150Y-25023D02*
X66150Y-25176D01*
X66350Y-25252D02*
X66364Y-25233D01*
X66378Y-25223D01*
X66407Y-25214D01*
X66421Y-25214D01*
X66450Y-25223D01*
X66464Y-25233D01*
X66478Y-25252D01*
X66478Y-25290D01*
X66464Y-25309D01*
X66450Y-25319D01*
X66421Y-25328D01*
X66407Y-25328D01*
X66378Y-25319D01*
X66364Y-25309D01*
X66350Y-25290D01*
X66350Y-25252D01*
X66335Y-25233D01*
X66321Y-25223D01*
X66292Y-25214D01*
X66235Y-25214D01*
X66207Y-25223D01*
X66192Y-25233D01*
X66178Y-25252D01*
X66178Y-25290D01*
X66192Y-25309D01*
X66207Y-25319D01*
X66235Y-25328D01*
X66292Y-25328D01*
X66321Y-25319D01*
X66335Y-25309D01*
X66350Y-25290D01*
X66178Y-23680D02*
X66478Y-23680D01*
X66478Y-23757D01*
X66464Y-23776D01*
X66450Y-23785D01*
X66421Y-23795D01*
X66378Y-23795D01*
X66350Y-23785D01*
X66335Y-23776D01*
X66321Y-23757D01*
X66321Y-23680D01*
X66178Y-23985D02*
X66178Y-23871D01*
X66178Y-23928D02*
X66478Y-23928D01*
X66435Y-23909D01*
X66407Y-23890D01*
X66392Y-23871D01*
X66150Y-24023D02*
X66150Y-24176D01*
X66450Y-24214D02*
X66464Y-24223D01*
X66478Y-24242D01*
X66478Y-24290D01*
X66464Y-24309D01*
X66450Y-24319D01*
X66421Y-24328D01*
X66392Y-24328D01*
X66350Y-24319D01*
X66178Y-24204D01*
X66178Y-24328D01*
X66178Y-22680D02*
X66478Y-22680D01*
X66478Y-22757D01*
X66464Y-22776D01*
X66450Y-22785D01*
X66421Y-22795D01*
X66378Y-22795D01*
X66350Y-22785D01*
X66335Y-22776D01*
X66321Y-22757D01*
X66321Y-22680D01*
X66178Y-22985D02*
X66178Y-22871D01*
X66178Y-22928D02*
X66478Y-22928D01*
X66435Y-22909D01*
X66407Y-22890D01*
X66392Y-22871D01*
X66150Y-23023D02*
X66150Y-23176D01*
X66178Y-23328D02*
X66178Y-23214D01*
X66178Y-23271D02*
X66478Y-23271D01*
X66435Y-23252D01*
X66407Y-23233D01*
X66392Y-23214D01*
X68461Y-44592D02*
X68452Y-44607D01*
X68423Y-44621D01*
X68404Y-44621D01*
X68376Y-44607D01*
X68357Y-44578D01*
X68347Y-44550D01*
X68338Y-44492D01*
X68338Y-44450D01*
X68347Y-44392D01*
X68357Y-44364D01*
X68376Y-44335D01*
X68404Y-44321D01*
X68423Y-44321D01*
X68452Y-44335D01*
X68461Y-44350D01*
X68519Y-44321D02*
X68633Y-44321D01*
X68576Y-44621D02*
X68576Y-44321D01*
X68700Y-44621D02*
X68700Y-44321D01*
X68795Y-44621D02*
X68795Y-44321D01*
X68909Y-44621D01*
X68909Y-44321D01*
X68957Y-44650D02*
X69109Y-44650D01*
X69147Y-44350D02*
X69157Y-44335D01*
X69176Y-44321D01*
X69223Y-44321D01*
X69242Y-44335D01*
X69252Y-44350D01*
X69261Y-44378D01*
X69261Y-44407D01*
X69252Y-44450D01*
X69138Y-44621D01*
X69261Y-44621D01*
X68299Y-43721D02*
X68299Y-43964D01*
X68309Y-43992D01*
X68319Y-44007D01*
X68338Y-44021D01*
X68376Y-44021D01*
X68395Y-44007D01*
X68404Y-43992D01*
X68414Y-43964D01*
X68414Y-43721D01*
X68490Y-43721D02*
X68614Y-43721D01*
X68547Y-43835D01*
X68576Y-43835D01*
X68595Y-43850D01*
X68604Y-43864D01*
X68614Y-43892D01*
X68614Y-43964D01*
X68604Y-43992D01*
X68595Y-44007D01*
X68576Y-44021D01*
X68519Y-44021D01*
X68499Y-44007D01*
X68490Y-43992D01*
X68652Y-44050D02*
X68804Y-44050D01*
X68823Y-43721D02*
X68938Y-43721D01*
X68880Y-44021D02*
X68880Y-43721D01*
X68985Y-43721D02*
X69119Y-44021D01*
X69119Y-43721D02*
X68985Y-44021D01*
X69195Y-44021D02*
X69195Y-43721D01*
X69242Y-43721D01*
X69271Y-43735D01*
X69290Y-43764D01*
X69300Y-43792D01*
X69309Y-43850D01*
X69309Y-43892D01*
X69300Y-43950D01*
X69290Y-43978D01*
X69271Y-44007D01*
X69242Y-44021D01*
X69195Y-44021D01*
X68276Y-43121D02*
X68276Y-43364D01*
X68285Y-43392D01*
X68295Y-43407D01*
X68314Y-43421D01*
X68352Y-43421D01*
X68371Y-43407D01*
X68380Y-43392D01*
X68390Y-43364D01*
X68390Y-43121D01*
X68466Y-43121D02*
X68590Y-43121D01*
X68523Y-43235D01*
X68552Y-43235D01*
X68571Y-43250D01*
X68580Y-43264D01*
X68590Y-43292D01*
X68590Y-43364D01*
X68580Y-43392D01*
X68571Y-43407D01*
X68552Y-43421D01*
X68495Y-43421D01*
X68476Y-43407D01*
X68466Y-43392D01*
X68628Y-43450D02*
X68780Y-43450D01*
X68942Y-43421D02*
X68876Y-43278D01*
X68828Y-43421D02*
X68828Y-43121D01*
X68904Y-43121D01*
X68923Y-43135D01*
X68933Y-43150D01*
X68942Y-43178D01*
X68942Y-43221D01*
X68933Y-43250D01*
X68923Y-43264D01*
X68904Y-43278D01*
X68828Y-43278D01*
X69009Y-43121D02*
X69142Y-43421D01*
X69142Y-43121D02*
X69009Y-43421D01*
X69219Y-43421D02*
X69219Y-43121D01*
X69266Y-43121D01*
X69295Y-43135D01*
X69314Y-43164D01*
X69323Y-43192D01*
X69333Y-43250D01*
X69333Y-43292D01*
X69323Y-43350D01*
X69314Y-43378D01*
X69295Y-43407D01*
X69266Y-43421D01*
X69219Y-43421D01*
X71228Y-44092D02*
X71219Y-44107D01*
X71190Y-44121D01*
X71171Y-44121D01*
X71142Y-44107D01*
X71123Y-44078D01*
X71114Y-44050D01*
X71104Y-43992D01*
X71104Y-43950D01*
X71114Y-43892D01*
X71123Y-43864D01*
X71142Y-43835D01*
X71171Y-43821D01*
X71190Y-43821D01*
X71219Y-43835D01*
X71228Y-43850D01*
X71285Y-43821D02*
X71400Y-43821D01*
X71342Y-44121D02*
X71342Y-43821D01*
X71504Y-43821D02*
X71542Y-43821D01*
X71561Y-43835D01*
X71580Y-43864D01*
X71590Y-43921D01*
X71590Y-44021D01*
X71580Y-44078D01*
X71561Y-44107D01*
X71542Y-44121D01*
X71504Y-44121D01*
X71485Y-44107D01*
X71466Y-44078D01*
X71457Y-44021D01*
X71457Y-43921D01*
X71466Y-43864D01*
X71485Y-43835D01*
X71504Y-43821D01*
X71676Y-43821D02*
X71676Y-44064D01*
X71685Y-44092D01*
X71695Y-44107D01*
X71714Y-44121D01*
X71752Y-44121D01*
X71771Y-44107D01*
X71780Y-44092D01*
X71790Y-44064D01*
X71790Y-43821D01*
X71857Y-43821D02*
X71971Y-43821D01*
X71914Y-44121D02*
X71914Y-43821D01*
X71990Y-44150D02*
X72142Y-44150D01*
X72180Y-43850D02*
X72190Y-43835D01*
X72209Y-43821D01*
X72257Y-43821D01*
X72276Y-43835D01*
X72285Y-43850D01*
X72295Y-43878D01*
X72295Y-43907D01*
X72285Y-43950D01*
X72171Y-44121D01*
X72295Y-44121D01*
X71228Y-43392D02*
X71219Y-43407D01*
X71190Y-43421D01*
X71171Y-43421D01*
X71142Y-43407D01*
X71123Y-43378D01*
X71114Y-43350D01*
X71104Y-43292D01*
X71104Y-43250D01*
X71114Y-43192D01*
X71123Y-43164D01*
X71142Y-43135D01*
X71171Y-43121D01*
X71190Y-43121D01*
X71219Y-43135D01*
X71228Y-43150D01*
X71285Y-43121D02*
X71400Y-43121D01*
X71342Y-43421D02*
X71342Y-43121D01*
X71504Y-43121D02*
X71542Y-43121D01*
X71561Y-43135D01*
X71580Y-43164D01*
X71590Y-43221D01*
X71590Y-43321D01*
X71580Y-43378D01*
X71561Y-43407D01*
X71542Y-43421D01*
X71504Y-43421D01*
X71485Y-43407D01*
X71466Y-43378D01*
X71457Y-43321D01*
X71457Y-43221D01*
X71466Y-43164D01*
X71485Y-43135D01*
X71504Y-43121D01*
X71676Y-43121D02*
X71676Y-43364D01*
X71685Y-43392D01*
X71695Y-43407D01*
X71714Y-43421D01*
X71752Y-43421D01*
X71771Y-43407D01*
X71780Y-43392D01*
X71790Y-43364D01*
X71790Y-43121D01*
X71857Y-43121D02*
X71971Y-43121D01*
X71914Y-43421D02*
X71914Y-43121D01*
X71990Y-43450D02*
X72142Y-43450D01*
X72276Y-43221D02*
X72276Y-43421D01*
X72228Y-43107D02*
X72180Y-43321D01*
X72304Y-43321D01*
X74361Y-43392D02*
X74352Y-43407D01*
X74323Y-43421D01*
X74304Y-43421D01*
X74276Y-43407D01*
X74257Y-43378D01*
X74247Y-43350D01*
X74238Y-43292D01*
X74238Y-43250D01*
X74247Y-43192D01*
X74257Y-43164D01*
X74276Y-43135D01*
X74304Y-43121D01*
X74323Y-43121D01*
X74352Y-43135D01*
X74361Y-43150D01*
X74419Y-43121D02*
X74533Y-43121D01*
X74476Y-43421D02*
X74476Y-43121D01*
X74600Y-43421D02*
X74600Y-43121D01*
X74695Y-43421D02*
X74695Y-43121D01*
X74809Y-43421D01*
X74809Y-43121D01*
X74857Y-43450D02*
X75009Y-43450D01*
X75142Y-43221D02*
X75142Y-43421D01*
X75095Y-43107D02*
X75047Y-43321D01*
X75171Y-43321D01*
X75185Y-38621D02*
X75300Y-38621D01*
X75242Y-38921D02*
X75242Y-38621D01*
X75480Y-38921D02*
X75414Y-38778D01*
X75366Y-38921D02*
X75366Y-38621D01*
X75442Y-38621D01*
X75461Y-38635D01*
X75471Y-38650D01*
X75480Y-38678D01*
X75480Y-38721D01*
X75471Y-38750D01*
X75461Y-38764D01*
X75442Y-38778D01*
X75366Y-38778D01*
X75557Y-38835D02*
X75652Y-38835D01*
X75538Y-38921D02*
X75604Y-38621D01*
X75671Y-38921D01*
X75852Y-38892D02*
X75842Y-38907D01*
X75814Y-38921D01*
X75795Y-38921D01*
X75766Y-38907D01*
X75747Y-38878D01*
X75738Y-38850D01*
X75728Y-38792D01*
X75728Y-38750D01*
X75738Y-38692D01*
X75747Y-38664D01*
X75766Y-38635D01*
X75795Y-38621D01*
X75814Y-38621D01*
X75842Y-38635D01*
X75852Y-38650D01*
X75938Y-38764D02*
X76004Y-38764D01*
X76033Y-38921D02*
X75938Y-38921D01*
X75938Y-38621D01*
X76033Y-38621D01*
X76233Y-38892D02*
X76223Y-38907D01*
X76195Y-38921D01*
X76176Y-38921D01*
X76147Y-38907D01*
X76128Y-38878D01*
X76119Y-38850D01*
X76109Y-38792D01*
X76109Y-38750D01*
X76119Y-38692D01*
X76128Y-38664D01*
X76147Y-38635D01*
X76176Y-38621D01*
X76195Y-38621D01*
X76223Y-38635D01*
X76233Y-38650D01*
X76414Y-38921D02*
X76319Y-38921D01*
X76319Y-38621D01*
X76480Y-38921D02*
X76480Y-38621D01*
X76595Y-38921D02*
X76509Y-38750D01*
X76595Y-38621D02*
X76480Y-38792D01*
X76233Y-36421D02*
X76280Y-36721D01*
X76319Y-36507D01*
X76357Y-36721D01*
X76404Y-36421D01*
X76471Y-36635D02*
X76566Y-36635D01*
X76452Y-36721D02*
X76519Y-36421D01*
X76585Y-36721D01*
X76652Y-36721D02*
X76652Y-36421D01*
X76766Y-36721D02*
X76680Y-36550D01*
X76766Y-36421D02*
X76652Y-36592D01*
X76852Y-36564D02*
X76919Y-36564D01*
X76947Y-36721D02*
X76852Y-36721D01*
X76852Y-36421D01*
X76947Y-36421D01*
X77033Y-36421D02*
X77033Y-36664D01*
X77042Y-36692D01*
X77052Y-36707D01*
X77071Y-36721D01*
X77109Y-36721D01*
X77128Y-36707D01*
X77138Y-36692D01*
X77147Y-36664D01*
X77147Y-36421D01*
X77242Y-36721D02*
X77242Y-36421D01*
X77319Y-36421D01*
X77338Y-36435D01*
X77347Y-36450D01*
X77357Y-36478D01*
X77357Y-36521D01*
X77347Y-36550D01*
X77338Y-36564D01*
X77319Y-36578D01*
X77242Y-36578D01*
X66371Y-31721D02*
X66485Y-31721D01*
X66428Y-32021D02*
X66428Y-31721D01*
X66666Y-32021D02*
X66600Y-31878D01*
X66552Y-32021D02*
X66552Y-31721D01*
X66628Y-31721D01*
X66647Y-31735D01*
X66657Y-31750D01*
X66666Y-31778D01*
X66666Y-31821D01*
X66657Y-31850D01*
X66647Y-31864D01*
X66628Y-31878D01*
X66552Y-31878D01*
X66742Y-32007D02*
X66771Y-32021D01*
X66819Y-32021D01*
X66838Y-32007D01*
X66847Y-31992D01*
X66857Y-31964D01*
X66857Y-31935D01*
X66847Y-31907D01*
X66838Y-31892D01*
X66819Y-31878D01*
X66780Y-31864D01*
X66761Y-31850D01*
X66752Y-31835D01*
X66742Y-31807D01*
X66742Y-31778D01*
X66752Y-31750D01*
X66761Y-31735D01*
X66780Y-31721D01*
X66828Y-31721D01*
X66857Y-31735D01*
X66914Y-31721D02*
X67028Y-31721D01*
X66971Y-32021D02*
X66971Y-31721D01*
X67952Y-31321D02*
X67952Y-31021D01*
X68000Y-31021D01*
X68028Y-31035D01*
X68047Y-31064D01*
X68057Y-31092D01*
X68066Y-31150D01*
X68066Y-31192D01*
X68057Y-31250D01*
X68047Y-31278D01*
X68028Y-31307D01*
X68000Y-31321D01*
X67952Y-31321D01*
X68219Y-31164D02*
X68247Y-31178D01*
X68257Y-31192D01*
X68266Y-31221D01*
X68266Y-31264D01*
X68257Y-31292D01*
X68247Y-31307D01*
X68228Y-31321D01*
X68152Y-31321D01*
X68152Y-31021D01*
X68219Y-31021D01*
X68238Y-31035D01*
X68247Y-31050D01*
X68257Y-31078D01*
X68257Y-31107D01*
X68247Y-31135D01*
X68238Y-31150D01*
X68219Y-31164D01*
X68152Y-31164D01*
X68457Y-31035D02*
X68438Y-31021D01*
X68409Y-31021D01*
X68380Y-31035D01*
X68361Y-31064D01*
X68352Y-31092D01*
X68342Y-31150D01*
X68342Y-31192D01*
X68352Y-31250D01*
X68361Y-31278D01*
X68380Y-31307D01*
X68409Y-31321D01*
X68428Y-31321D01*
X68457Y-31307D01*
X68466Y-31292D01*
X68466Y-31192D01*
X68428Y-31192D01*
X68552Y-31164D02*
X68619Y-31164D01*
X68647Y-31321D02*
X68552Y-31321D01*
X68552Y-31021D01*
X68647Y-31021D01*
X68733Y-31321D02*
X68733Y-31021D01*
X68847Y-31321D01*
X68847Y-31021D01*
X47157Y-35707D02*
X47185Y-35721D01*
X47233Y-35721D01*
X47252Y-35707D01*
X47261Y-35692D01*
X47271Y-35664D01*
X47271Y-35635D01*
X47261Y-35607D01*
X47252Y-35592D01*
X47233Y-35578D01*
X47195Y-35564D01*
X47176Y-35550D01*
X47166Y-35535D01*
X47157Y-35507D01*
X47157Y-35478D01*
X47166Y-35450D01*
X47176Y-35435D01*
X47195Y-35421D01*
X47242Y-35421D01*
X47271Y-35435D01*
X47357Y-35721D02*
X47357Y-35421D01*
X47404Y-35421D01*
X47433Y-35435D01*
X47452Y-35464D01*
X47461Y-35492D01*
X47471Y-35550D01*
X47471Y-35592D01*
X47461Y-35650D01*
X47452Y-35678D01*
X47433Y-35707D01*
X47404Y-35721D01*
X47357Y-35721D01*
X47547Y-35635D02*
X47642Y-35635D01*
X47528Y-35721D02*
X47595Y-35421D01*
X47661Y-35721D01*
X46161Y-35707D02*
X46190Y-35721D01*
X46238Y-35721D01*
X46257Y-35707D01*
X46266Y-35692D01*
X46276Y-35664D01*
X46276Y-35635D01*
X46266Y-35607D01*
X46257Y-35592D01*
X46238Y-35578D01*
X46200Y-35564D01*
X46180Y-35550D01*
X46171Y-35535D01*
X46161Y-35507D01*
X46161Y-35478D01*
X46171Y-35450D01*
X46180Y-35435D01*
X46200Y-35421D01*
X46247Y-35421D01*
X46276Y-35435D01*
X46476Y-35692D02*
X46466Y-35707D01*
X46438Y-35721D01*
X46419Y-35721D01*
X46390Y-35707D01*
X46371Y-35678D01*
X46361Y-35650D01*
X46352Y-35592D01*
X46352Y-35550D01*
X46361Y-35492D01*
X46371Y-35464D01*
X46390Y-35435D01*
X46419Y-35421D01*
X46438Y-35421D01*
X46466Y-35435D01*
X46476Y-35450D01*
X46657Y-35721D02*
X46561Y-35721D01*
X46561Y-35421D01*
X52557Y-37935D02*
X52538Y-37921D01*
X52509Y-37921D01*
X52480Y-37935D01*
X52461Y-37964D01*
X52452Y-37992D01*
X52442Y-38050D01*
X52442Y-38092D01*
X52452Y-38150D01*
X52461Y-38178D01*
X52480Y-38207D01*
X52509Y-38221D01*
X52528Y-38221D01*
X52557Y-38207D01*
X52566Y-38192D01*
X52566Y-38092D01*
X52528Y-38092D01*
X52766Y-38192D02*
X52757Y-38207D01*
X52728Y-38221D01*
X52709Y-38221D01*
X52680Y-38207D01*
X52661Y-38178D01*
X52652Y-38150D01*
X52642Y-38092D01*
X52642Y-38050D01*
X52652Y-37992D01*
X52661Y-37964D01*
X52680Y-37935D01*
X52709Y-37921D01*
X52728Y-37921D01*
X52757Y-37935D01*
X52766Y-37950D01*
X52852Y-38221D02*
X52852Y-37921D01*
X52966Y-38221D02*
X52880Y-38050D01*
X52966Y-37921D02*
X52852Y-38092D01*
X53090Y-37921D02*
X53109Y-37921D01*
X53128Y-37935D01*
X53138Y-37950D01*
X53147Y-37978D01*
X53157Y-38035D01*
X53157Y-38107D01*
X53147Y-38164D01*
X53138Y-38192D01*
X53128Y-38207D01*
X53109Y-38221D01*
X53090Y-38221D01*
X53071Y-38207D01*
X53061Y-38192D01*
X53052Y-38164D01*
X53042Y-38107D01*
X53042Y-38035D01*
X53052Y-37978D01*
X53061Y-37950D01*
X53071Y-37935D01*
X53090Y-37921D01*
X56314Y-29807D02*
X56342Y-29821D01*
X56390Y-29821D01*
X56409Y-29807D01*
X56419Y-29792D01*
X56428Y-29764D01*
X56428Y-29735D01*
X56419Y-29707D01*
X56409Y-29692D01*
X56390Y-29678D01*
X56352Y-29664D01*
X56333Y-29650D01*
X56323Y-29635D01*
X56314Y-29607D01*
X56314Y-29578D01*
X56323Y-29550D01*
X56333Y-29535D01*
X56352Y-29521D01*
X56399Y-29521D01*
X56428Y-29535D01*
X56504Y-29807D02*
X56533Y-29821D01*
X56580Y-29821D01*
X56600Y-29807D01*
X56609Y-29792D01*
X56619Y-29764D01*
X56619Y-29735D01*
X56609Y-29707D01*
X56600Y-29692D01*
X56580Y-29678D01*
X56542Y-29664D01*
X56523Y-29650D01*
X56514Y-29635D01*
X56504Y-29607D01*
X56504Y-29578D01*
X56514Y-29550D01*
X56523Y-29535D01*
X56542Y-29521D01*
X56590Y-29521D01*
X56619Y-29535D01*
X56704Y-29821D02*
X56704Y-29521D01*
X56780Y-29521D01*
X56800Y-29535D01*
X56809Y-29550D01*
X56819Y-29578D01*
X56819Y-29621D01*
X56809Y-29650D01*
X56800Y-29664D01*
X56780Y-29678D01*
X56704Y-29678D01*
X57009Y-29821D02*
X56895Y-29821D01*
X56952Y-29821D02*
X56952Y-29521D01*
X56933Y-29564D01*
X56914Y-29592D01*
X56895Y-29607D01*
X57047Y-29850D02*
X57200Y-29850D01*
X57247Y-29821D02*
X57247Y-29521D01*
X57314Y-29735D01*
X57380Y-29521D01*
X57380Y-29821D01*
X57514Y-29521D02*
X57552Y-29521D01*
X57571Y-29535D01*
X57590Y-29564D01*
X57600Y-29621D01*
X57600Y-29721D01*
X57590Y-29778D01*
X57571Y-29807D01*
X57552Y-29821D01*
X57514Y-29821D01*
X57495Y-29807D01*
X57476Y-29778D01*
X57466Y-29721D01*
X57466Y-29621D01*
X57476Y-29564D01*
X57495Y-29535D01*
X57514Y-29521D01*
X57676Y-29807D02*
X57704Y-29821D01*
X57752Y-29821D01*
X57771Y-29807D01*
X57780Y-29792D01*
X57790Y-29764D01*
X57790Y-29735D01*
X57780Y-29707D01*
X57771Y-29692D01*
X57752Y-29678D01*
X57714Y-29664D01*
X57695Y-29650D01*
X57685Y-29635D01*
X57676Y-29607D01*
X57676Y-29578D01*
X57685Y-29550D01*
X57695Y-29535D01*
X57714Y-29521D01*
X57761Y-29521D01*
X57790Y-29535D01*
X57876Y-29821D02*
X57876Y-29521D01*
X56380Y-27507D02*
X56409Y-27521D01*
X56457Y-27521D01*
X56476Y-27507D01*
X56485Y-27492D01*
X56495Y-27464D01*
X56495Y-27435D01*
X56485Y-27407D01*
X56476Y-27392D01*
X56457Y-27378D01*
X56419Y-27364D01*
X56399Y-27350D01*
X56390Y-27335D01*
X56380Y-27307D01*
X56380Y-27278D01*
X56390Y-27250D01*
X56399Y-27235D01*
X56419Y-27221D01*
X56466Y-27221D01*
X56495Y-27235D01*
X56571Y-27507D02*
X56599Y-27521D01*
X56647Y-27521D01*
X56666Y-27507D01*
X56676Y-27492D01*
X56685Y-27464D01*
X56685Y-27435D01*
X56676Y-27407D01*
X56666Y-27392D01*
X56647Y-27378D01*
X56609Y-27364D01*
X56590Y-27350D01*
X56580Y-27335D01*
X56571Y-27307D01*
X56571Y-27278D01*
X56580Y-27250D01*
X56590Y-27235D01*
X56609Y-27221D01*
X56657Y-27221D01*
X56685Y-27235D01*
X56771Y-27521D02*
X56771Y-27221D01*
X56847Y-27221D01*
X56866Y-27235D01*
X56876Y-27250D01*
X56885Y-27278D01*
X56885Y-27321D01*
X56876Y-27350D01*
X56866Y-27364D01*
X56847Y-27378D01*
X56771Y-27378D01*
X57076Y-27521D02*
X56961Y-27521D01*
X57019Y-27521D02*
X57019Y-27221D01*
X57000Y-27264D01*
X56980Y-27292D01*
X56961Y-27307D01*
X57114Y-27550D02*
X57266Y-27550D01*
X57304Y-27507D02*
X57333Y-27521D01*
X57380Y-27521D01*
X57400Y-27507D01*
X57409Y-27492D01*
X57419Y-27464D01*
X57419Y-27435D01*
X57409Y-27407D01*
X57400Y-27392D01*
X57380Y-27378D01*
X57342Y-27364D01*
X57323Y-27350D01*
X57314Y-27335D01*
X57304Y-27307D01*
X57304Y-27278D01*
X57314Y-27250D01*
X57323Y-27235D01*
X57342Y-27221D01*
X57390Y-27221D01*
X57419Y-27235D01*
X57619Y-27492D02*
X57609Y-27507D01*
X57580Y-27521D01*
X57561Y-27521D01*
X57533Y-27507D01*
X57514Y-27478D01*
X57504Y-27450D01*
X57495Y-27392D01*
X57495Y-27350D01*
X57504Y-27292D01*
X57514Y-27264D01*
X57533Y-27235D01*
X57561Y-27221D01*
X57580Y-27221D01*
X57609Y-27235D01*
X57619Y-27250D01*
X57704Y-27521D02*
X57704Y-27221D01*
X57819Y-27521D02*
X57733Y-27350D01*
X57819Y-27221D02*
X57704Y-27392D01*
X49914Y-31007D02*
X49942Y-31021D01*
X49990Y-31021D01*
X50009Y-31007D01*
X50019Y-30992D01*
X50028Y-30964D01*
X50028Y-30935D01*
X50019Y-30907D01*
X50009Y-30892D01*
X49990Y-30878D01*
X49952Y-30864D01*
X49933Y-30850D01*
X49923Y-30835D01*
X49914Y-30807D01*
X49914Y-30778D01*
X49923Y-30750D01*
X49933Y-30735D01*
X49952Y-30721D01*
X49999Y-30721D01*
X50028Y-30735D01*
X50104Y-31007D02*
X50133Y-31021D01*
X50180Y-31021D01*
X50200Y-31007D01*
X50209Y-30992D01*
X50219Y-30964D01*
X50219Y-30935D01*
X50209Y-30907D01*
X50200Y-30892D01*
X50180Y-30878D01*
X50142Y-30864D01*
X50123Y-30850D01*
X50114Y-30835D01*
X50104Y-30807D01*
X50104Y-30778D01*
X50114Y-30750D01*
X50123Y-30735D01*
X50142Y-30721D01*
X50190Y-30721D01*
X50219Y-30735D01*
X50304Y-31021D02*
X50304Y-30721D01*
X50380Y-30721D01*
X50400Y-30735D01*
X50409Y-30750D01*
X50419Y-30778D01*
X50419Y-30821D01*
X50409Y-30850D01*
X50400Y-30864D01*
X50380Y-30878D01*
X50304Y-30878D01*
X50609Y-31021D02*
X50495Y-31021D01*
X50552Y-31021D02*
X50552Y-30721D01*
X50533Y-30764D01*
X50514Y-30792D01*
X50495Y-30807D01*
X50647Y-31050D02*
X50800Y-31050D01*
X50847Y-31021D02*
X50847Y-30721D01*
X50914Y-30935D01*
X50980Y-30721D01*
X50980Y-31021D01*
X51076Y-31021D02*
X51076Y-30721D01*
X51161Y-31007D02*
X51190Y-31021D01*
X51238Y-31021D01*
X51257Y-31007D01*
X51266Y-30992D01*
X51276Y-30964D01*
X51276Y-30935D01*
X51266Y-30907D01*
X51257Y-30892D01*
X51238Y-30878D01*
X51200Y-30864D01*
X51180Y-30850D01*
X51171Y-30835D01*
X51161Y-30807D01*
X51161Y-30778D01*
X51171Y-30750D01*
X51180Y-30735D01*
X51200Y-30721D01*
X51247Y-30721D01*
X51276Y-30735D01*
X51400Y-30721D02*
X51438Y-30721D01*
X51457Y-30735D01*
X51476Y-30764D01*
X51485Y-30821D01*
X51485Y-30921D01*
X51476Y-30978D01*
X51457Y-31007D01*
X51438Y-31021D01*
X51400Y-31021D01*
X51380Y-31007D01*
X51361Y-30978D01*
X51352Y-30921D01*
X51352Y-30821D01*
X51361Y-30764D01*
X51380Y-30735D01*
X51400Y-30721D01*
X46304Y-26221D02*
X46438Y-26521D01*
X46438Y-26221D02*
X46304Y-26521D01*
X46628Y-26492D02*
X46619Y-26507D01*
X46590Y-26521D01*
X46571Y-26521D01*
X46542Y-26507D01*
X46523Y-26478D01*
X46514Y-26450D01*
X46504Y-26392D01*
X46504Y-26350D01*
X46514Y-26292D01*
X46523Y-26264D01*
X46542Y-26235D01*
X46571Y-26221D01*
X46590Y-26221D01*
X46619Y-26235D01*
X46628Y-26250D01*
X46685Y-26221D02*
X46752Y-26521D01*
X46819Y-26221D01*
X47000Y-26521D02*
X46933Y-26378D01*
X46885Y-26521D02*
X46885Y-26221D01*
X46961Y-26221D01*
X46980Y-26235D01*
X46990Y-26250D01*
X47000Y-26278D01*
X47000Y-26321D01*
X46990Y-26350D01*
X46980Y-26364D01*
X46961Y-26378D01*
X46885Y-26378D01*
X47038Y-26550D02*
X47190Y-26550D01*
X47352Y-26492D02*
X47342Y-26507D01*
X47314Y-26521D01*
X47295Y-26521D01*
X47266Y-26507D01*
X47247Y-26478D01*
X47238Y-26450D01*
X47228Y-26392D01*
X47228Y-26350D01*
X47238Y-26292D01*
X47247Y-26264D01*
X47266Y-26235D01*
X47295Y-26221D01*
X47314Y-26221D01*
X47342Y-26235D01*
X47352Y-26250D01*
X47533Y-26521D02*
X47438Y-26521D01*
X47438Y-26221D01*
X47600Y-26521D02*
X47600Y-26221D01*
X47714Y-26521D02*
X47628Y-26350D01*
X47714Y-26221D02*
X47600Y-26392D01*
X47838Y-26221D02*
X47876Y-26221D01*
X47895Y-26235D01*
X47914Y-26264D01*
X47923Y-26321D01*
X47923Y-26421D01*
X47914Y-26478D01*
X47895Y-26507D01*
X47876Y-26521D01*
X47838Y-26521D01*
X47819Y-26507D01*
X47800Y-26478D01*
X47790Y-26421D01*
X47790Y-26321D01*
X47800Y-26264D01*
X47819Y-26235D01*
X47838Y-26221D01*
X48009Y-26221D02*
X48009Y-26464D01*
X48019Y-26492D01*
X48028Y-26507D01*
X48047Y-26521D01*
X48085Y-26521D01*
X48104Y-26507D01*
X48114Y-26492D01*
X48123Y-26464D01*
X48123Y-26221D01*
X48190Y-26221D02*
X48304Y-26221D01*
X48247Y-26521D02*
X48247Y-26221D01*
X44540Y-33691D02*
X44578Y-33691D01*
X44597Y-33705D01*
X44616Y-33734D01*
X44626Y-33791D01*
X44626Y-33891D01*
X44616Y-33948D01*
X44597Y-33977D01*
X44578Y-33991D01*
X44540Y-33991D01*
X44521Y-33977D01*
X44502Y-33948D01*
X44492Y-33891D01*
X44492Y-33791D01*
X44502Y-33734D01*
X44521Y-33705D01*
X44540Y-33691D01*
X44711Y-33834D02*
X44778Y-33834D01*
X44807Y-33991D02*
X44711Y-33991D01*
X44711Y-33691D01*
X44807Y-33691D01*
X44959Y-33834D02*
X44988Y-33848D01*
X44997Y-33862D01*
X45007Y-33891D01*
X45007Y-33934D01*
X44997Y-33962D01*
X44988Y-33977D01*
X44969Y-33991D01*
X44892Y-33991D01*
X44892Y-33691D01*
X44959Y-33691D01*
X44978Y-33705D01*
X44988Y-33720D01*
X44997Y-33748D01*
X44997Y-33777D01*
X44988Y-33805D01*
X44978Y-33820D01*
X44959Y-33834D01*
X44892Y-33834D01*
X42819Y-31921D02*
X42819Y-31621D01*
X42914Y-31921D02*
X42914Y-31621D01*
X43028Y-31921D01*
X43028Y-31621D01*
X43095Y-31621D02*
X43209Y-31621D01*
X43152Y-31921D02*
X43152Y-31621D01*
X43390Y-31921D02*
X43323Y-31778D01*
X43276Y-31921D02*
X43276Y-31621D01*
X43352Y-31621D01*
X43371Y-31635D01*
X43380Y-31650D01*
X43390Y-31678D01*
X43390Y-31721D01*
X43380Y-31750D01*
X43371Y-31764D01*
X43352Y-31778D01*
X43276Y-31778D01*
G54D12*
X78938Y-23278D02*
X79338Y-23278D01*
X79338Y-23392D01*
X79319Y-23421D01*
X79300Y-23435D01*
X79261Y-23450D01*
X79204Y-23450D01*
X79166Y-23435D01*
X79147Y-23421D01*
X79128Y-23392D01*
X79128Y-23278D01*
X78938Y-23735D02*
X78938Y-23564D01*
X78938Y-23650D02*
X79338Y-23650D01*
X79280Y-23621D01*
X79242Y-23592D01*
X79223Y-23564D01*
X78938Y-26278D02*
X79338Y-26278D01*
X79338Y-26392D01*
X79319Y-26421D01*
X79300Y-26435D01*
X79261Y-26450D01*
X79204Y-26450D01*
X79166Y-26435D01*
X79147Y-26421D01*
X79128Y-26392D01*
X79128Y-26278D01*
X79166Y-26621D02*
X79185Y-26592D01*
X79204Y-26578D01*
X79242Y-26564D01*
X79261Y-26564D01*
X79300Y-26578D01*
X79319Y-26592D01*
X79338Y-26621D01*
X79338Y-26678D01*
X79319Y-26707D01*
X79300Y-26721D01*
X79261Y-26735D01*
X79242Y-26735D01*
X79204Y-26721D01*
X79185Y-26707D01*
X79166Y-26678D01*
X79166Y-26621D01*
X79147Y-26592D01*
X79128Y-26578D01*
X79090Y-26564D01*
X79014Y-26564D01*
X78976Y-26578D01*
X78957Y-26592D01*
X78938Y-26621D01*
X78938Y-26678D01*
X78957Y-26707D01*
X78976Y-26721D01*
X79014Y-26735D01*
X79090Y-26735D01*
X79128Y-26721D01*
X79147Y-26707D01*
X79166Y-26678D01*
X77671Y-29361D02*
X77671Y-28961D01*
X77785Y-28961D01*
X77814Y-28980D01*
X77828Y-29000D01*
X77842Y-29038D01*
X77842Y-29095D01*
X77828Y-29133D01*
X77814Y-29152D01*
X77785Y-29171D01*
X77671Y-29171D01*
X77957Y-29000D02*
X77971Y-28980D01*
X78000Y-28961D01*
X78071Y-28961D01*
X78100Y-28980D01*
X78114Y-29000D01*
X78128Y-29038D01*
X78128Y-29076D01*
X78114Y-29133D01*
X77942Y-29361D01*
X78128Y-29361D01*
X78414Y-29361D02*
X78242Y-29361D01*
X78328Y-29361D02*
X78328Y-28961D01*
X78300Y-29019D01*
X78271Y-29057D01*
X78242Y-29076D01*
X77657Y-29882D02*
X77800Y-29882D01*
X77628Y-29996D02*
X77728Y-29596D01*
X77828Y-29996D01*
X77928Y-29996D02*
X77928Y-29596D01*
X78100Y-29996D01*
X78100Y-29596D01*
X78228Y-29882D02*
X78371Y-29882D01*
X78200Y-29996D02*
X78300Y-29596D01*
X78400Y-29996D01*
X78642Y-29996D02*
X78500Y-29996D01*
X78500Y-29596D01*
X78800Y-29596D02*
X78857Y-29596D01*
X78885Y-29615D01*
X78914Y-29654D01*
X78928Y-29730D01*
X78928Y-29863D01*
X78914Y-29939D01*
X78885Y-29977D01*
X78857Y-29996D01*
X78800Y-29996D01*
X78771Y-29977D01*
X78742Y-29939D01*
X78728Y-29863D01*
X78728Y-29730D01*
X78742Y-29654D01*
X78771Y-29615D01*
X78800Y-29596D01*
X79214Y-29615D02*
X79185Y-29596D01*
X79142Y-29596D01*
X79100Y-29615D01*
X79071Y-29654D01*
X79057Y-29692D01*
X79042Y-29768D01*
X79042Y-29825D01*
X79057Y-29901D01*
X79071Y-29939D01*
X79100Y-29977D01*
X79142Y-29996D01*
X79171Y-29996D01*
X79214Y-29977D01*
X79228Y-29958D01*
X79228Y-29825D01*
X79171Y-29825D01*
X79338Y-32328D02*
X79738Y-32328D01*
X79738Y-32442D01*
X79719Y-32471D01*
X79700Y-32485D01*
X79661Y-32500D01*
X79604Y-32500D01*
X79566Y-32485D01*
X79547Y-32471D01*
X79528Y-32442D01*
X79528Y-32328D01*
X79700Y-32614D02*
X79719Y-32628D01*
X79738Y-32657D01*
X79738Y-32728D01*
X79719Y-32757D01*
X79700Y-32771D01*
X79661Y-32785D01*
X79623Y-32785D01*
X79566Y-32771D01*
X79338Y-32600D01*
X79338Y-32785D01*
X79738Y-32971D02*
X79738Y-33000D01*
X79719Y-33028D01*
X79700Y-33042D01*
X79661Y-33057D01*
X79585Y-33071D01*
X79490Y-33071D01*
X79414Y-33057D01*
X79376Y-33042D01*
X79357Y-33028D01*
X79338Y-33000D01*
X79338Y-32971D01*
X79357Y-32942D01*
X79376Y-32928D01*
X79414Y-32914D01*
X79490Y-32900D01*
X79585Y-32900D01*
X79661Y-32914D01*
X79700Y-32928D01*
X79719Y-32942D01*
X79738Y-32971D01*
X79719Y-33814D02*
X79738Y-33785D01*
X79738Y-33742D01*
X79719Y-33700D01*
X79680Y-33671D01*
X79642Y-33657D01*
X79566Y-33642D01*
X79509Y-33642D01*
X79433Y-33657D01*
X79395Y-33671D01*
X79357Y-33700D01*
X79338Y-33742D01*
X79338Y-33771D01*
X79357Y-33814D01*
X79376Y-33828D01*
X79509Y-33828D01*
X79509Y-33771D01*
X79338Y-33957D02*
X79738Y-33957D01*
X79738Y-34071D01*
X79719Y-34100D01*
X79700Y-34114D01*
X79661Y-34128D01*
X79604Y-34128D01*
X79566Y-34114D01*
X79547Y-34100D01*
X79528Y-34071D01*
X79528Y-33957D01*
X79338Y-34257D02*
X79738Y-34257D01*
X79738Y-34457D02*
X79738Y-34514D01*
X79719Y-34542D01*
X79680Y-34571D01*
X79604Y-34585D01*
X79471Y-34585D01*
X79395Y-34571D01*
X79357Y-34542D01*
X79338Y-34514D01*
X79338Y-34457D01*
X79357Y-34428D01*
X79395Y-34400D01*
X79471Y-34385D01*
X79604Y-34385D01*
X79680Y-34400D01*
X79719Y-34428D01*
X79738Y-34457D01*
X76338Y-41442D02*
X76738Y-41442D01*
X76738Y-41557D01*
X76719Y-41585D01*
X76700Y-41600D01*
X76661Y-41614D01*
X76604Y-41614D01*
X76566Y-41600D01*
X76547Y-41585D01*
X76528Y-41557D01*
X76528Y-41442D01*
X76338Y-41900D02*
X76338Y-41728D01*
X76338Y-41814D02*
X76738Y-41814D01*
X76680Y-41785D01*
X76642Y-41757D01*
X76623Y-41728D01*
X76338Y-42042D02*
X76338Y-42100D01*
X76357Y-42128D01*
X76376Y-42142D01*
X76433Y-42171D01*
X76509Y-42185D01*
X76661Y-42185D01*
X76700Y-42171D01*
X76719Y-42157D01*
X76738Y-42128D01*
X76738Y-42071D01*
X76719Y-42042D01*
X76700Y-42028D01*
X76661Y-42014D01*
X76566Y-42014D01*
X76528Y-42028D01*
X76509Y-42042D01*
X76490Y-42071D01*
X76490Y-42128D01*
X76509Y-42157D01*
X76528Y-42171D01*
X76566Y-42185D01*
X76357Y-42757D02*
X76338Y-42800D01*
X76338Y-42871D01*
X76357Y-42900D01*
X76376Y-42914D01*
X76414Y-42928D01*
X76452Y-42928D01*
X76490Y-42914D01*
X76509Y-42900D01*
X76528Y-42871D01*
X76547Y-42814D01*
X76566Y-42785D01*
X76585Y-42771D01*
X76623Y-42757D01*
X76661Y-42757D01*
X76700Y-42771D01*
X76719Y-42785D01*
X76738Y-42814D01*
X76738Y-42885D01*
X76719Y-42928D01*
X76338Y-43057D02*
X76738Y-43057D01*
X76738Y-43171D01*
X76719Y-43200D01*
X76700Y-43214D01*
X76661Y-43228D01*
X76604Y-43228D01*
X76566Y-43214D01*
X76547Y-43200D01*
X76528Y-43171D01*
X76528Y-43057D01*
X76338Y-43357D02*
X76738Y-43357D01*
X76547Y-43600D02*
X76547Y-43500D01*
X76338Y-43500D02*
X76738Y-43500D01*
X76738Y-43642D01*
X76338Y-43757D02*
X76738Y-43757D01*
X76550Y-48661D02*
X76550Y-48261D01*
X76664Y-48261D01*
X76692Y-48280D01*
X76707Y-48300D01*
X76721Y-48338D01*
X76721Y-48395D01*
X76707Y-48433D01*
X76692Y-48452D01*
X76664Y-48471D01*
X76550Y-48471D01*
X76835Y-48300D02*
X76850Y-48280D01*
X76878Y-48261D01*
X76950Y-48261D01*
X76978Y-48280D01*
X76992Y-48300D01*
X77007Y-48338D01*
X77007Y-48376D01*
X76992Y-48433D01*
X76821Y-48661D01*
X77007Y-48661D01*
X77121Y-48300D02*
X77135Y-48280D01*
X77164Y-48261D01*
X77235Y-48261D01*
X77264Y-48280D01*
X77278Y-48300D01*
X77292Y-48338D01*
X77292Y-48376D01*
X77278Y-48433D01*
X77107Y-48661D01*
X77292Y-48661D01*
X77878Y-48661D02*
X77878Y-48261D01*
X78007Y-48300D02*
X78021Y-48280D01*
X78050Y-48261D01*
X78121Y-48261D01*
X78150Y-48280D01*
X78164Y-48300D01*
X78178Y-48338D01*
X78178Y-48376D01*
X78164Y-48433D01*
X77992Y-48661D01*
X78178Y-48661D01*
X78292Y-48642D02*
X78335Y-48661D01*
X78407Y-48661D01*
X78435Y-48642D01*
X78450Y-48623D01*
X78464Y-48585D01*
X78464Y-48547D01*
X78450Y-48509D01*
X78435Y-48490D01*
X78407Y-48471D01*
X78350Y-48452D01*
X78321Y-48433D01*
X78307Y-48414D01*
X78292Y-48376D01*
X78292Y-48338D01*
X78307Y-48300D01*
X78321Y-48280D01*
X78350Y-48261D01*
X78421Y-48261D01*
X78464Y-48280D01*
X71635Y-48111D02*
X71635Y-47711D01*
X71750Y-47711D01*
X71778Y-47730D01*
X71792Y-47750D01*
X71807Y-47788D01*
X71807Y-47845D01*
X71792Y-47883D01*
X71778Y-47902D01*
X71750Y-47921D01*
X71635Y-47921D01*
X71921Y-47750D02*
X71935Y-47730D01*
X71964Y-47711D01*
X72035Y-47711D01*
X72064Y-47730D01*
X72078Y-47750D01*
X72092Y-47788D01*
X72092Y-47826D01*
X72078Y-47883D01*
X71907Y-48111D01*
X72092Y-48111D01*
X72364Y-47711D02*
X72221Y-47711D01*
X72207Y-47902D01*
X72221Y-47883D01*
X72250Y-47864D01*
X72321Y-47864D01*
X72350Y-47883D01*
X72364Y-47902D01*
X72378Y-47940D01*
X72378Y-48035D01*
X72364Y-48073D01*
X72350Y-48092D01*
X72321Y-48111D01*
X72250Y-48111D01*
X72221Y-48092D01*
X72207Y-48073D01*
X71314Y-48746D02*
X71171Y-48746D01*
X71171Y-48346D01*
X71414Y-48746D02*
X71414Y-48346D01*
X71528Y-48346D01*
X71557Y-48365D01*
X71571Y-48385D01*
X71585Y-48423D01*
X71585Y-48480D01*
X71571Y-48518D01*
X71557Y-48537D01*
X71528Y-48556D01*
X71414Y-48556D01*
X71885Y-48708D02*
X71871Y-48727D01*
X71828Y-48746D01*
X71800Y-48746D01*
X71757Y-48727D01*
X71728Y-48689D01*
X71714Y-48651D01*
X71700Y-48575D01*
X71700Y-48518D01*
X71714Y-48442D01*
X71728Y-48404D01*
X71757Y-48365D01*
X71800Y-48346D01*
X71828Y-48346D01*
X71871Y-48365D01*
X71885Y-48385D01*
X71942Y-48785D02*
X72171Y-48785D01*
X72242Y-48746D02*
X72242Y-48346D01*
X72371Y-48727D02*
X72414Y-48746D01*
X72485Y-48746D01*
X72514Y-48727D01*
X72528Y-48708D01*
X72542Y-48670D01*
X72542Y-48632D01*
X72528Y-48594D01*
X72514Y-48575D01*
X72485Y-48556D01*
X72428Y-48537D01*
X72400Y-48518D01*
X72385Y-48499D01*
X72371Y-48461D01*
X72371Y-48423D01*
X72385Y-48385D01*
X72400Y-48365D01*
X72428Y-48346D01*
X72500Y-48346D01*
X72542Y-48365D01*
X72671Y-48746D02*
X72671Y-48346D01*
X72785Y-48346D01*
X72814Y-48365D01*
X72828Y-48385D01*
X72842Y-48423D01*
X72842Y-48480D01*
X72828Y-48518D01*
X72814Y-48537D01*
X72785Y-48556D01*
X72671Y-48556D01*
X63114Y-47761D02*
X63114Y-47361D01*
X63228Y-47361D01*
X63257Y-47380D01*
X63271Y-47400D01*
X63285Y-47438D01*
X63285Y-47495D01*
X63271Y-47533D01*
X63257Y-47552D01*
X63228Y-47571D01*
X63114Y-47571D01*
X63400Y-47400D02*
X63414Y-47380D01*
X63442Y-47361D01*
X63514Y-47361D01*
X63542Y-47380D01*
X63557Y-47400D01*
X63571Y-47438D01*
X63571Y-47476D01*
X63557Y-47533D01*
X63385Y-47761D01*
X63571Y-47761D01*
X63742Y-47533D02*
X63714Y-47514D01*
X63700Y-47495D01*
X63685Y-47457D01*
X63685Y-47438D01*
X63700Y-47400D01*
X63714Y-47380D01*
X63742Y-47361D01*
X63800Y-47361D01*
X63828Y-47380D01*
X63842Y-47400D01*
X63857Y-47438D01*
X63857Y-47457D01*
X63842Y-47495D01*
X63828Y-47514D01*
X63800Y-47533D01*
X63742Y-47533D01*
X63714Y-47552D01*
X63700Y-47571D01*
X63685Y-47609D01*
X63685Y-47685D01*
X63700Y-47723D01*
X63714Y-47742D01*
X63742Y-47761D01*
X63800Y-47761D01*
X63828Y-47742D01*
X63842Y-47723D01*
X63857Y-47685D01*
X63857Y-47609D01*
X63842Y-47571D01*
X63828Y-47552D01*
X63800Y-47533D01*
X64428Y-47742D02*
X64471Y-47761D01*
X64542Y-47761D01*
X64571Y-47742D01*
X64585Y-47723D01*
X64599Y-47685D01*
X64599Y-47647D01*
X64585Y-47609D01*
X64571Y-47590D01*
X64542Y-47571D01*
X64485Y-47552D01*
X64457Y-47533D01*
X64442Y-47514D01*
X64428Y-47476D01*
X64428Y-47438D01*
X64442Y-47400D01*
X64457Y-47380D01*
X64485Y-47361D01*
X64557Y-47361D01*
X64599Y-47380D01*
X64728Y-47761D02*
X64728Y-47361D01*
X64799Y-47361D01*
X64842Y-47380D01*
X64871Y-47419D01*
X64885Y-47457D01*
X64899Y-47533D01*
X64899Y-47590D01*
X64885Y-47666D01*
X64871Y-47704D01*
X64842Y-47742D01*
X64799Y-47761D01*
X64728Y-47761D01*
X55371Y-48861D02*
X55371Y-48461D01*
X55485Y-48461D01*
X55514Y-48480D01*
X55528Y-48500D01*
X55542Y-48538D01*
X55542Y-48595D01*
X55528Y-48633D01*
X55514Y-48652D01*
X55485Y-48671D01*
X55371Y-48671D01*
X55642Y-48461D02*
X55828Y-48461D01*
X55728Y-48614D01*
X55771Y-48614D01*
X55800Y-48633D01*
X55814Y-48652D01*
X55828Y-48690D01*
X55828Y-48785D01*
X55814Y-48823D01*
X55800Y-48842D01*
X55771Y-48861D01*
X55685Y-48861D01*
X55657Y-48842D01*
X55642Y-48823D01*
X56114Y-48861D02*
X55942Y-48861D01*
X56028Y-48861D02*
X56028Y-48461D01*
X56000Y-48519D01*
X55971Y-48557D01*
X55942Y-48576D01*
X55471Y-49287D02*
X55514Y-49306D01*
X55528Y-49325D01*
X55542Y-49363D01*
X55542Y-49420D01*
X55528Y-49458D01*
X55514Y-49477D01*
X55485Y-49496D01*
X55371Y-49496D01*
X55371Y-49096D01*
X55471Y-49096D01*
X55500Y-49115D01*
X55514Y-49135D01*
X55528Y-49173D01*
X55528Y-49211D01*
X55514Y-49249D01*
X55500Y-49268D01*
X55471Y-49287D01*
X55371Y-49287D01*
X55657Y-49382D02*
X55800Y-49382D01*
X55628Y-49496D02*
X55728Y-49096D01*
X55828Y-49496D01*
X55928Y-49496D02*
X55928Y-49096D01*
X56100Y-49496D01*
X56100Y-49096D01*
X56242Y-49496D02*
X56242Y-49096D01*
X56414Y-49496D02*
X56285Y-49268D01*
X56414Y-49096D02*
X56242Y-49325D01*
X56700Y-49496D02*
X56528Y-49496D01*
X56614Y-49496D02*
X56614Y-49096D01*
X56585Y-49154D01*
X56557Y-49192D01*
X56528Y-49211D01*
X56757Y-49535D02*
X56985Y-49535D01*
X57042Y-49382D02*
X57185Y-49382D01*
X57014Y-49496D02*
X57114Y-49096D01*
X57214Y-49496D01*
X57314Y-49096D02*
X57314Y-49420D01*
X57328Y-49458D01*
X57342Y-49477D01*
X57371Y-49496D01*
X57428Y-49496D01*
X57457Y-49477D01*
X57471Y-49458D01*
X57485Y-49420D01*
X57485Y-49096D01*
X57600Y-49096D02*
X57800Y-49496D01*
X57800Y-49096D02*
X57600Y-49496D01*
X63435Y-30961D02*
X63435Y-30561D01*
X63550Y-30561D01*
X63578Y-30580D01*
X63592Y-30600D01*
X63607Y-30638D01*
X63607Y-30695D01*
X63592Y-30733D01*
X63578Y-30752D01*
X63550Y-30771D01*
X63435Y-30771D01*
X63721Y-30600D02*
X63735Y-30580D01*
X63764Y-30561D01*
X63835Y-30561D01*
X63864Y-30580D01*
X63878Y-30600D01*
X63892Y-30638D01*
X63892Y-30676D01*
X63878Y-30733D01*
X63707Y-30961D01*
X63892Y-30961D01*
X64150Y-30561D02*
X64092Y-30561D01*
X64064Y-30580D01*
X64050Y-30600D01*
X64021Y-30657D01*
X64007Y-30733D01*
X64007Y-30885D01*
X64021Y-30923D01*
X64035Y-30942D01*
X64064Y-30961D01*
X64121Y-30961D01*
X64150Y-30942D01*
X64164Y-30923D01*
X64178Y-30885D01*
X64178Y-30790D01*
X64164Y-30752D01*
X64150Y-30733D01*
X64121Y-30714D01*
X64064Y-30714D01*
X64035Y-30733D01*
X64021Y-30752D01*
X64007Y-30790D01*
X62971Y-31596D02*
X62828Y-31596D01*
X62828Y-31196D01*
X63071Y-31596D02*
X63071Y-31196D01*
X63185Y-31196D01*
X63214Y-31215D01*
X63228Y-31235D01*
X63242Y-31273D01*
X63242Y-31330D01*
X63228Y-31368D01*
X63214Y-31387D01*
X63185Y-31406D01*
X63071Y-31406D01*
X63542Y-31558D02*
X63528Y-31577D01*
X63485Y-31596D01*
X63457Y-31596D01*
X63414Y-31577D01*
X63385Y-31539D01*
X63371Y-31501D01*
X63357Y-31425D01*
X63357Y-31368D01*
X63371Y-31292D01*
X63385Y-31254D01*
X63414Y-31215D01*
X63457Y-31196D01*
X63485Y-31196D01*
X63528Y-31215D01*
X63542Y-31235D01*
X63600Y-31635D02*
X63828Y-31635D01*
X63985Y-31196D02*
X63985Y-31482D01*
X63971Y-31539D01*
X63942Y-31577D01*
X63900Y-31596D01*
X63871Y-31596D01*
X64085Y-31196D02*
X64257Y-31196D01*
X64171Y-31596D02*
X64171Y-31196D01*
X64342Y-31482D02*
X64485Y-31482D01*
X64314Y-31596D02*
X64414Y-31196D01*
X64514Y-31596D01*
X64771Y-31215D02*
X64742Y-31196D01*
X64700Y-31196D01*
X64657Y-31215D01*
X64628Y-31254D01*
X64614Y-31292D01*
X64600Y-31368D01*
X64600Y-31425D01*
X64614Y-31501D01*
X64628Y-31539D01*
X64657Y-31577D01*
X64700Y-31596D01*
X64728Y-31596D01*
X64771Y-31577D01*
X64785Y-31558D01*
X64785Y-31425D01*
X64728Y-31425D01*
X67278Y-24261D02*
X67278Y-23861D01*
X67392Y-23861D01*
X67421Y-23880D01*
X67435Y-23900D01*
X67450Y-23938D01*
X67450Y-23995D01*
X67435Y-24033D01*
X67421Y-24052D01*
X67392Y-24071D01*
X67278Y-24071D01*
X67550Y-23861D02*
X67735Y-23861D01*
X67635Y-24014D01*
X67678Y-24014D01*
X67707Y-24033D01*
X67721Y-24052D01*
X67735Y-24090D01*
X67735Y-24185D01*
X67721Y-24223D01*
X67707Y-24242D01*
X67678Y-24261D01*
X67592Y-24261D01*
X67564Y-24242D01*
X67550Y-24223D01*
X64392Y-22002D02*
X64435Y-22021D01*
X64450Y-22040D01*
X64464Y-22078D01*
X64464Y-22135D01*
X64450Y-22173D01*
X64435Y-22192D01*
X64407Y-22211D01*
X64292Y-22211D01*
X64292Y-21811D01*
X64392Y-21811D01*
X64421Y-21830D01*
X64435Y-21850D01*
X64450Y-21888D01*
X64450Y-21926D01*
X64435Y-21964D01*
X64421Y-21983D01*
X64392Y-22002D01*
X64292Y-22002D01*
X64650Y-21811D02*
X64707Y-21811D01*
X64735Y-21830D01*
X64764Y-21869D01*
X64778Y-21945D01*
X64778Y-22078D01*
X64764Y-22154D01*
X64735Y-22192D01*
X64707Y-22211D01*
X64650Y-22211D01*
X64621Y-22192D01*
X64592Y-22154D01*
X64578Y-22078D01*
X64578Y-21945D01*
X64592Y-21869D01*
X64621Y-21830D01*
X64650Y-21811D01*
X64964Y-21811D02*
X65021Y-21811D01*
X65050Y-21830D01*
X65078Y-21869D01*
X65092Y-21945D01*
X65092Y-22078D01*
X65078Y-22154D01*
X65050Y-22192D01*
X65021Y-22211D01*
X64964Y-22211D01*
X64935Y-22192D01*
X64907Y-22154D01*
X64892Y-22078D01*
X64892Y-21945D01*
X64907Y-21869D01*
X64935Y-21830D01*
X64964Y-21811D01*
X65178Y-21811D02*
X65350Y-21811D01*
X65264Y-22211D02*
X65264Y-21811D01*
X58238Y-30635D02*
X58638Y-30635D01*
X58638Y-30750D01*
X58619Y-30778D01*
X58600Y-30792D01*
X58561Y-30807D01*
X58504Y-30807D01*
X58466Y-30792D01*
X58447Y-30778D01*
X58428Y-30750D01*
X58428Y-30635D01*
X58638Y-30907D02*
X58638Y-31092D01*
X58485Y-30992D01*
X58485Y-31035D01*
X58466Y-31064D01*
X58447Y-31078D01*
X58409Y-31092D01*
X58314Y-31092D01*
X58276Y-31078D01*
X58257Y-31064D01*
X58238Y-31035D01*
X58238Y-30950D01*
X58257Y-30921D01*
X58276Y-30907D01*
X58638Y-31278D02*
X58638Y-31307D01*
X58619Y-31335D01*
X58600Y-31350D01*
X58561Y-31364D01*
X58485Y-31378D01*
X58390Y-31378D01*
X58314Y-31364D01*
X58276Y-31350D01*
X58257Y-31335D01*
X58238Y-31307D01*
X58238Y-31278D01*
X58257Y-31250D01*
X58276Y-31235D01*
X58314Y-31221D01*
X58390Y-31207D01*
X58485Y-31207D01*
X58561Y-31221D01*
X58600Y-31235D01*
X58619Y-31250D01*
X58638Y-31278D01*
X58447Y-32064D02*
X58428Y-32107D01*
X58409Y-32121D01*
X58371Y-32135D01*
X58314Y-32135D01*
X58276Y-32121D01*
X58257Y-32107D01*
X58238Y-32078D01*
X58238Y-31964D01*
X58638Y-31964D01*
X58638Y-32064D01*
X58619Y-32092D01*
X58600Y-32107D01*
X58561Y-32121D01*
X58523Y-32121D01*
X58485Y-32107D01*
X58466Y-32092D01*
X58447Y-32064D01*
X58447Y-31964D01*
X58352Y-32250D02*
X58352Y-32392D01*
X58238Y-32221D02*
X58638Y-32321D01*
X58238Y-32421D01*
X58238Y-32521D02*
X58638Y-32521D01*
X58238Y-32692D01*
X58638Y-32692D01*
X58238Y-32835D02*
X58638Y-32835D01*
X58238Y-33007D02*
X58466Y-32878D01*
X58638Y-33007D02*
X58409Y-32835D01*
X58600Y-33121D02*
X58619Y-33135D01*
X58638Y-33164D01*
X58638Y-33235D01*
X58619Y-33264D01*
X58600Y-33278D01*
X58561Y-33292D01*
X58523Y-33292D01*
X58466Y-33278D01*
X58238Y-33107D01*
X58238Y-33292D01*
X58200Y-33350D02*
X58200Y-33578D01*
X58352Y-33635D02*
X58352Y-33778D01*
X58238Y-33607D02*
X58638Y-33707D01*
X58238Y-33807D01*
X58638Y-33907D02*
X58314Y-33907D01*
X58276Y-33921D01*
X58257Y-33935D01*
X58238Y-33964D01*
X58238Y-34021D01*
X58257Y-34050D01*
X58276Y-34064D01*
X58314Y-34078D01*
X58638Y-34078D01*
X58638Y-34192D02*
X58238Y-34392D01*
X58638Y-34392D02*
X58238Y-34192D01*
X54135Y-22261D02*
X54135Y-21861D01*
X54250Y-21861D01*
X54278Y-21880D01*
X54292Y-21900D01*
X54307Y-21938D01*
X54307Y-21995D01*
X54292Y-22033D01*
X54278Y-22052D01*
X54250Y-22071D01*
X54135Y-22071D01*
X54407Y-21861D02*
X54592Y-21861D01*
X54492Y-22014D01*
X54535Y-22014D01*
X54564Y-22033D01*
X54578Y-22052D01*
X54592Y-22090D01*
X54592Y-22185D01*
X54578Y-22223D01*
X54564Y-22242D01*
X54535Y-22261D01*
X54450Y-22261D01*
X54421Y-22242D01*
X54407Y-22223D01*
X54850Y-21861D02*
X54792Y-21861D01*
X54764Y-21880D01*
X54750Y-21900D01*
X54721Y-21957D01*
X54707Y-22033D01*
X54707Y-22185D01*
X54721Y-22223D01*
X54735Y-22242D01*
X54764Y-22261D01*
X54821Y-22261D01*
X54850Y-22242D01*
X54864Y-22223D01*
X54878Y-22185D01*
X54878Y-22090D01*
X54864Y-22052D01*
X54850Y-22033D01*
X54821Y-22014D01*
X54764Y-22014D01*
X54735Y-22033D01*
X54721Y-22052D01*
X54707Y-22090D01*
X41038Y-33135D02*
X41438Y-33135D01*
X41438Y-33250D01*
X41419Y-33278D01*
X41400Y-33292D01*
X41361Y-33307D01*
X41304Y-33307D01*
X41266Y-33292D01*
X41247Y-33278D01*
X41228Y-33250D01*
X41228Y-33135D01*
X41038Y-33592D02*
X41038Y-33421D01*
X41038Y-33507D02*
X41438Y-33507D01*
X41380Y-33478D01*
X41342Y-33450D01*
X41323Y-33421D01*
X41438Y-33692D02*
X41438Y-33892D01*
X41038Y-33764D01*
X41138Y-35200D02*
X41538Y-35200D01*
X41538Y-35314D01*
X41519Y-35342D01*
X41500Y-35357D01*
X41461Y-35371D01*
X41404Y-35371D01*
X41366Y-35357D01*
X41347Y-35342D01*
X41328Y-35314D01*
X41328Y-35200D01*
X41500Y-35485D02*
X41519Y-35500D01*
X41538Y-35528D01*
X41538Y-35600D01*
X41519Y-35628D01*
X41500Y-35642D01*
X41461Y-35657D01*
X41423Y-35657D01*
X41366Y-35642D01*
X41138Y-35471D01*
X41138Y-35657D01*
X41176Y-36414D02*
X41157Y-36399D01*
X41138Y-36357D01*
X41138Y-36328D01*
X41157Y-36285D01*
X41195Y-36257D01*
X41233Y-36242D01*
X41309Y-36228D01*
X41366Y-36228D01*
X41442Y-36242D01*
X41480Y-36257D01*
X41519Y-36285D01*
X41538Y-36328D01*
X41538Y-36357D01*
X41519Y-36399D01*
X41500Y-36414D01*
X41138Y-36685D02*
X41138Y-36542D01*
X41538Y-36542D01*
X41138Y-36785D02*
X41538Y-36785D01*
X41138Y-36957D02*
X41366Y-36828D01*
X41538Y-36957D02*
X41309Y-36785D01*
X41538Y-37142D02*
X41538Y-37199D01*
X41519Y-37228D01*
X41480Y-37257D01*
X41404Y-37271D01*
X41271Y-37271D01*
X41195Y-37257D01*
X41157Y-37228D01*
X41138Y-37199D01*
X41138Y-37142D01*
X41157Y-37114D01*
X41195Y-37085D01*
X41271Y-37071D01*
X41404Y-37071D01*
X41480Y-37085D01*
X41519Y-37114D01*
X41538Y-37142D01*
X41538Y-37400D02*
X41214Y-37400D01*
X41176Y-37414D01*
X41157Y-37428D01*
X41138Y-37457D01*
X41138Y-37514D01*
X41157Y-37542D01*
X41176Y-37557D01*
X41214Y-37571D01*
X41538Y-37571D01*
X41538Y-37671D02*
X41538Y-37842D01*
X41138Y-37757D02*
X41538Y-37757D01*
X46338Y-45214D02*
X46738Y-45214D01*
X46738Y-45328D01*
X46719Y-45357D01*
X46700Y-45371D01*
X46661Y-45385D01*
X46604Y-45385D01*
X46566Y-45371D01*
X46547Y-45357D01*
X46528Y-45328D01*
X46528Y-45214D01*
X46700Y-45500D02*
X46719Y-45514D01*
X46738Y-45542D01*
X46738Y-45614D01*
X46719Y-45642D01*
X46700Y-45657D01*
X46661Y-45671D01*
X46623Y-45671D01*
X46566Y-45657D01*
X46338Y-45485D01*
X46338Y-45671D01*
X46338Y-45814D02*
X46338Y-45871D01*
X46357Y-45900D01*
X46376Y-45914D01*
X46433Y-45942D01*
X46509Y-45957D01*
X46661Y-45957D01*
X46700Y-45942D01*
X46719Y-45928D01*
X46738Y-45900D01*
X46738Y-45842D01*
X46719Y-45814D01*
X46700Y-45800D01*
X46661Y-45785D01*
X46566Y-45785D01*
X46528Y-45800D01*
X46509Y-45814D01*
X46490Y-45842D01*
X46490Y-45900D01*
X46509Y-45928D01*
X46528Y-45942D01*
X46566Y-45957D01*
X46376Y-46714D02*
X46357Y-46700D01*
X46338Y-46657D01*
X46338Y-46628D01*
X46357Y-46585D01*
X46395Y-46557D01*
X46433Y-46542D01*
X46509Y-46528D01*
X46566Y-46528D01*
X46642Y-46542D01*
X46680Y-46557D01*
X46719Y-46585D01*
X46738Y-46628D01*
X46738Y-46657D01*
X46719Y-46700D01*
X46700Y-46714D01*
X46338Y-46842D02*
X46738Y-46842D01*
X46738Y-46957D01*
X46719Y-46985D01*
X46700Y-47000D01*
X46661Y-47014D01*
X46604Y-47014D01*
X46566Y-47000D01*
X46547Y-46985D01*
X46528Y-46957D01*
X46528Y-46842D01*
X46338Y-47285D02*
X46338Y-47142D01*
X46738Y-47142D01*
X46338Y-47385D02*
X46738Y-47385D01*
X46738Y-47457D01*
X46719Y-47500D01*
X46680Y-47528D01*
X46642Y-47542D01*
X46566Y-47557D01*
X46509Y-47557D01*
X46433Y-47542D01*
X46395Y-47528D01*
X46357Y-47500D01*
X46338Y-47457D01*
X46338Y-47385D01*
X46300Y-47614D02*
X46300Y-47842D01*
X46738Y-48000D02*
X46452Y-48000D01*
X46395Y-47985D01*
X46357Y-47957D01*
X46338Y-47914D01*
X46338Y-47885D01*
X46738Y-48099D02*
X46738Y-48271D01*
X46338Y-48185D02*
X46738Y-48185D01*
X46452Y-48357D02*
X46452Y-48499D01*
X46338Y-48328D02*
X46738Y-48428D01*
X46338Y-48528D01*
X46719Y-48785D02*
X46738Y-48757D01*
X46738Y-48714D01*
X46719Y-48671D01*
X46680Y-48642D01*
X46642Y-48628D01*
X46566Y-48614D01*
X46509Y-48614D01*
X46433Y-48628D01*
X46395Y-48642D01*
X46357Y-48671D01*
X46338Y-48714D01*
X46338Y-48742D01*
X46357Y-48785D01*
X46376Y-48799D01*
X46509Y-48799D01*
X46509Y-48742D01*
X41138Y-41257D02*
X41538Y-41257D01*
X41538Y-41371D01*
X41519Y-41400D01*
X41500Y-41414D01*
X41461Y-41428D01*
X41404Y-41428D01*
X41366Y-41414D01*
X41347Y-41400D01*
X41328Y-41371D01*
X41328Y-41257D01*
X41138Y-41714D02*
X41138Y-41542D01*
X41138Y-41628D02*
X41538Y-41628D01*
X41480Y-41600D01*
X41442Y-41571D01*
X41423Y-41542D01*
X41538Y-41971D02*
X41538Y-41914D01*
X41519Y-41885D01*
X41500Y-41871D01*
X41442Y-41842D01*
X41366Y-41828D01*
X41214Y-41828D01*
X41176Y-41842D01*
X41157Y-41857D01*
X41138Y-41885D01*
X41138Y-41942D01*
X41157Y-41971D01*
X41176Y-41985D01*
X41214Y-42000D01*
X41309Y-42000D01*
X41347Y-41985D01*
X41366Y-41971D01*
X41385Y-41942D01*
X41385Y-41885D01*
X41366Y-41857D01*
X41347Y-41842D01*
X41309Y-41828D01*
X41176Y-42757D02*
X41157Y-42742D01*
X41138Y-42699D01*
X41138Y-42671D01*
X41157Y-42628D01*
X41195Y-42599D01*
X41233Y-42585D01*
X41309Y-42571D01*
X41366Y-42571D01*
X41442Y-42585D01*
X41480Y-42599D01*
X41519Y-42628D01*
X41538Y-42671D01*
X41538Y-42699D01*
X41519Y-42742D01*
X41500Y-42757D01*
X41138Y-43028D02*
X41138Y-42885D01*
X41538Y-42885D01*
X41138Y-43128D02*
X41538Y-43128D01*
X41138Y-43299D02*
X41366Y-43171D01*
X41538Y-43299D02*
X41309Y-43128D01*
X41138Y-43428D02*
X41538Y-43428D01*
X41138Y-43571D02*
X41538Y-43571D01*
X41138Y-43742D01*
X41538Y-43742D01*
X33571Y-46961D02*
X33571Y-46561D01*
X33685Y-46561D01*
X33714Y-46580D01*
X33728Y-46600D01*
X33742Y-46638D01*
X33742Y-46695D01*
X33728Y-46733D01*
X33714Y-46752D01*
X33685Y-46771D01*
X33571Y-46771D01*
X34000Y-46695D02*
X34000Y-46961D01*
X33928Y-46542D02*
X33857Y-46828D01*
X34042Y-46828D01*
X34599Y-46847D02*
X34742Y-46847D01*
X34571Y-46961D02*
X34671Y-46561D01*
X34771Y-46961D01*
X34871Y-46961D02*
X34871Y-46561D01*
X35042Y-46961D01*
X35042Y-46561D01*
X35142Y-46561D02*
X35314Y-46561D01*
X35228Y-46961D02*
X35228Y-46561D01*
X35414Y-46752D02*
X35514Y-46752D01*
X35557Y-46961D02*
X35414Y-46961D01*
X35414Y-46561D01*
X35557Y-46561D01*
X35685Y-46961D02*
X35685Y-46561D01*
X35857Y-46961D01*
X35857Y-46561D01*
X36000Y-46961D02*
X36000Y-46561D01*
X36171Y-46961D01*
X36171Y-46561D01*
X36300Y-46847D02*
X36442Y-46847D01*
X36271Y-46961D02*
X36371Y-46561D01*
X36471Y-46961D01*
G54D14*
X25676Y-27357D02*
X26476Y-27357D01*
X25676Y-27614D02*
X26095Y-27614D01*
X26171Y-27585D01*
X26209Y-27528D01*
X26209Y-27442D01*
X26171Y-27385D01*
X26133Y-27357D01*
X26209Y-27814D02*
X26209Y-28042D01*
X26476Y-27900D02*
X25790Y-27900D01*
X25714Y-27928D01*
X25676Y-27985D01*
X25676Y-28042D01*
X26209Y-28157D02*
X26209Y-28385D01*
X26476Y-28242D02*
X25790Y-28242D01*
X25714Y-28271D01*
X25676Y-28328D01*
X25676Y-28385D01*
X26209Y-28585D02*
X25409Y-28585D01*
X26171Y-28585D02*
X26209Y-28642D01*
X26209Y-28757D01*
X26171Y-28814D01*
X26133Y-28842D01*
X26057Y-28871D01*
X25828Y-28871D01*
X25752Y-28842D01*
X25714Y-28814D01*
X25676Y-28757D01*
X25676Y-28642D01*
X25714Y-28585D01*
X25752Y-29128D02*
X25714Y-29157D01*
X25676Y-29128D01*
X25714Y-29100D01*
X25752Y-29128D01*
X25676Y-29128D01*
X26171Y-29128D02*
X26133Y-29157D01*
X26095Y-29128D01*
X26133Y-29100D01*
X26171Y-29128D01*
X26095Y-29128D01*
X26514Y-29842D02*
X25485Y-29328D01*
X26514Y-30471D02*
X25485Y-29957D01*
X26209Y-30928D02*
X25561Y-30928D01*
X25485Y-30900D01*
X25447Y-30871D01*
X25409Y-30814D01*
X25409Y-30728D01*
X25447Y-30671D01*
X25714Y-30928D02*
X25676Y-30871D01*
X25676Y-30757D01*
X25714Y-30700D01*
X25752Y-30671D01*
X25828Y-30642D01*
X26057Y-30642D01*
X26133Y-30671D01*
X26171Y-30700D01*
X26209Y-30757D01*
X26209Y-30871D01*
X26171Y-30928D01*
X25676Y-31214D02*
X26209Y-31214D01*
X26057Y-31214D02*
X26133Y-31242D01*
X26171Y-31271D01*
X26209Y-31328D01*
X26209Y-31385D01*
X25714Y-31814D02*
X25676Y-31757D01*
X25676Y-31642D01*
X25714Y-31585D01*
X25790Y-31557D01*
X26095Y-31557D01*
X26171Y-31585D01*
X26209Y-31642D01*
X26209Y-31757D01*
X26171Y-31814D01*
X26095Y-31842D01*
X26019Y-31842D01*
X25942Y-31557D01*
X25676Y-32357D02*
X26095Y-32357D01*
X26171Y-32328D01*
X26209Y-32271D01*
X26209Y-32157D01*
X26171Y-32100D01*
X25714Y-32357D02*
X25676Y-32300D01*
X25676Y-32157D01*
X25714Y-32100D01*
X25790Y-32071D01*
X25866Y-32071D01*
X25942Y-32100D01*
X25980Y-32157D01*
X25980Y-32300D01*
X26019Y-32357D01*
X26209Y-32557D02*
X26209Y-32785D01*
X26476Y-32642D02*
X25790Y-32642D01*
X25714Y-32671D01*
X25676Y-32728D01*
X25676Y-32785D01*
X25714Y-32957D02*
X25676Y-33014D01*
X25676Y-33128D01*
X25714Y-33185D01*
X25790Y-33214D01*
X25828Y-33214D01*
X25904Y-33185D01*
X25942Y-33128D01*
X25942Y-33042D01*
X25980Y-32985D01*
X26057Y-32957D01*
X26095Y-32957D01*
X26171Y-32985D01*
X26209Y-33042D01*
X26209Y-33128D01*
X26171Y-33185D01*
X25714Y-33728D02*
X25676Y-33671D01*
X25676Y-33557D01*
X25714Y-33500D01*
X25752Y-33471D01*
X25828Y-33442D01*
X26057Y-33442D01*
X26133Y-33471D01*
X26171Y-33500D01*
X26209Y-33557D01*
X26209Y-33671D01*
X26171Y-33728D01*
X25676Y-34071D02*
X25714Y-34014D01*
X25752Y-33985D01*
X25828Y-33957D01*
X26057Y-33957D01*
X26133Y-33985D01*
X26171Y-34014D01*
X26209Y-34071D01*
X26209Y-34157D01*
X26171Y-34214D01*
X26133Y-34242D01*
X26057Y-34271D01*
X25828Y-34271D01*
X25752Y-34242D01*
X25714Y-34214D01*
X25676Y-34157D01*
X25676Y-34071D01*
X26209Y-34442D02*
X26209Y-34671D01*
X26476Y-34528D02*
X25790Y-34528D01*
X25714Y-34557D01*
X25676Y-34614D01*
X25676Y-34671D01*
X26209Y-34785D02*
X26209Y-35014D01*
X26476Y-34871D02*
X25790Y-34871D01*
X25714Y-34900D01*
X25676Y-34957D01*
X25676Y-35014D01*
X26209Y-35471D02*
X25561Y-35471D01*
X25485Y-35442D01*
X25447Y-35414D01*
X25409Y-35357D01*
X25409Y-35271D01*
X25447Y-35214D01*
X25714Y-35471D02*
X25676Y-35414D01*
X25676Y-35300D01*
X25714Y-35242D01*
X25752Y-35214D01*
X25828Y-35185D01*
X26057Y-35185D01*
X26133Y-35214D01*
X26171Y-35242D01*
X26209Y-35300D01*
X26209Y-35414D01*
X26171Y-35471D01*
X25676Y-36014D02*
X26095Y-36014D01*
X26171Y-35985D01*
X26209Y-35928D01*
X26209Y-35814D01*
X26171Y-35757D01*
X25714Y-36014D02*
X25676Y-35957D01*
X25676Y-35814D01*
X25714Y-35757D01*
X25790Y-35728D01*
X25866Y-35728D01*
X25942Y-35757D01*
X25980Y-35814D01*
X25980Y-35957D01*
X26019Y-36014D01*
X25676Y-36557D02*
X26476Y-36557D01*
X25714Y-36557D02*
X25676Y-36500D01*
X25676Y-36385D01*
X25714Y-36328D01*
X25752Y-36300D01*
X25828Y-36271D01*
X26057Y-36271D01*
X26133Y-36300D01*
X26171Y-36328D01*
X26209Y-36385D01*
X26209Y-36500D01*
X26171Y-36557D01*
X26209Y-37100D02*
X25561Y-37100D01*
X25485Y-37071D01*
X25447Y-37042D01*
X25409Y-36985D01*
X25409Y-36900D01*
X25447Y-36842D01*
X25714Y-37100D02*
X25676Y-37042D01*
X25676Y-36928D01*
X25714Y-36871D01*
X25752Y-36842D01*
X25828Y-36814D01*
X26057Y-36814D01*
X26133Y-36842D01*
X26171Y-36871D01*
X26209Y-36928D01*
X26209Y-37042D01*
X26171Y-37100D01*
X25714Y-37614D02*
X25676Y-37557D01*
X25676Y-37442D01*
X25714Y-37385D01*
X25790Y-37357D01*
X26095Y-37357D01*
X26171Y-37385D01*
X26209Y-37442D01*
X26209Y-37557D01*
X26171Y-37614D01*
X26095Y-37642D01*
X26019Y-37642D01*
X25942Y-37357D01*
X26209Y-37814D02*
X26209Y-38042D01*
X26476Y-37900D02*
X25790Y-37900D01*
X25714Y-37928D01*
X25676Y-37985D01*
X25676Y-38042D01*
X25714Y-38214D02*
X25676Y-38271D01*
X25676Y-38385D01*
X25714Y-38442D01*
X25790Y-38471D01*
X25828Y-38471D01*
X25904Y-38442D01*
X25942Y-38385D01*
X25942Y-38300D01*
X25980Y-38242D01*
X26057Y-38214D01*
X26095Y-38214D01*
X26171Y-38242D01*
X26209Y-38300D01*
X26209Y-38385D01*
X26171Y-38442D01*
X25752Y-38728D02*
X25714Y-38757D01*
X25676Y-38728D01*
X25714Y-38700D01*
X25752Y-38728D01*
X25676Y-38728D01*
X25714Y-39271D02*
X25676Y-39214D01*
X25676Y-39099D01*
X25714Y-39042D01*
X25752Y-39014D01*
X25828Y-38985D01*
X26057Y-38985D01*
X26133Y-39014D01*
X26171Y-39042D01*
X26209Y-39099D01*
X26209Y-39214D01*
X26171Y-39271D01*
X25676Y-39614D02*
X25714Y-39557D01*
X25752Y-39528D01*
X25828Y-39500D01*
X26057Y-39500D01*
X26133Y-39528D01*
X26171Y-39557D01*
X26209Y-39614D01*
X26209Y-39700D01*
X26171Y-39757D01*
X26133Y-39785D01*
X26057Y-39814D01*
X25828Y-39814D01*
X25752Y-39785D01*
X25714Y-39757D01*
X25676Y-39700D01*
X25676Y-39614D01*
X25676Y-40071D02*
X26209Y-40071D01*
X26133Y-40071D02*
X26171Y-40100D01*
X26209Y-40157D01*
X26209Y-40242D01*
X26171Y-40300D01*
X26095Y-40328D01*
X25676Y-40328D01*
X26095Y-40328D02*
X26171Y-40357D01*
X26209Y-40414D01*
X26209Y-40500D01*
X26171Y-40557D01*
X26095Y-40585D01*
X25676Y-40585D01*
X26514Y-41300D02*
X25485Y-40785D01*
X25676Y-41499D02*
X26476Y-41499D01*
X25676Y-41757D02*
X26095Y-41757D01*
X26171Y-41728D01*
X26209Y-41671D01*
X26209Y-41585D01*
X26171Y-41528D01*
X26133Y-41499D01*
X25676Y-42299D02*
X26095Y-42299D01*
X26171Y-42271D01*
X26209Y-42214D01*
X26209Y-42099D01*
X26171Y-42042D01*
X25714Y-42299D02*
X25676Y-42242D01*
X25676Y-42099D01*
X25714Y-42042D01*
X25790Y-42014D01*
X25866Y-42014D01*
X25942Y-42042D01*
X25980Y-42099D01*
X25980Y-42242D01*
X26019Y-42299D01*
X25714Y-42842D02*
X25676Y-42785D01*
X25676Y-42671D01*
X25714Y-42614D01*
X25752Y-42585D01*
X25828Y-42557D01*
X26057Y-42557D01*
X26133Y-42585D01*
X26171Y-42614D01*
X26209Y-42671D01*
X26209Y-42785D01*
X26171Y-42842D01*
X25676Y-43099D02*
X26476Y-43099D01*
X25980Y-43157D02*
X25676Y-43328D01*
X26209Y-43328D02*
X25904Y-43099D01*
X25676Y-43585D02*
X26209Y-43585D01*
X26057Y-43585D02*
X26133Y-43614D01*
X26171Y-43642D01*
X26209Y-43699D01*
X26209Y-43757D01*
X26209Y-43871D02*
X26209Y-44099D01*
X25676Y-43957D02*
X26361Y-43957D01*
X26438Y-43985D01*
X26476Y-44042D01*
X26476Y-44099D01*
X26514Y-44728D02*
X25485Y-44214D01*
X28476Y-32328D02*
X28476Y-32214D01*
X28438Y-32157D01*
X28400Y-32128D01*
X28285Y-32071D01*
X28133Y-32042D01*
X27828Y-32042D01*
X27752Y-32071D01*
X27714Y-32099D01*
X27676Y-32157D01*
X27676Y-32271D01*
X27714Y-32328D01*
X27752Y-32357D01*
X27828Y-32385D01*
X28019Y-32385D01*
X28095Y-32357D01*
X28133Y-32328D01*
X28171Y-32271D01*
X28171Y-32157D01*
X28133Y-32099D01*
X28095Y-32071D01*
X28019Y-32042D01*
X27676Y-33099D02*
X28476Y-33099D01*
X28476Y-33242D01*
X28438Y-33328D01*
X28361Y-33385D01*
X28285Y-33414D01*
X28133Y-33442D01*
X28019Y-33442D01*
X27866Y-33414D01*
X27790Y-33385D01*
X27714Y-33328D01*
X27676Y-33242D01*
X27676Y-33099D01*
X27714Y-33928D02*
X27676Y-33871D01*
X27676Y-33757D01*
X27714Y-33699D01*
X27790Y-33671D01*
X28095Y-33671D01*
X28171Y-33699D01*
X28209Y-33757D01*
X28209Y-33871D01*
X28171Y-33928D01*
X28095Y-33957D01*
X28019Y-33957D01*
X27942Y-33671D01*
X27714Y-34471D02*
X27676Y-34414D01*
X27676Y-34299D01*
X27714Y-34242D01*
X27752Y-34214D01*
X27828Y-34185D01*
X28057Y-34185D01*
X28133Y-34214D01*
X28171Y-34242D01*
X28209Y-34299D01*
X28209Y-34414D01*
X28171Y-34471D01*
X27714Y-34957D02*
X27676Y-34900D01*
X27676Y-34785D01*
X27714Y-34728D01*
X27790Y-34700D01*
X28095Y-34700D01*
X28171Y-34728D01*
X28209Y-34785D01*
X28209Y-34900D01*
X28171Y-34957D01*
X28095Y-34985D01*
X28019Y-34985D01*
X27942Y-34700D01*
X27676Y-35242D02*
X28209Y-35242D01*
X28133Y-35242D02*
X28171Y-35271D01*
X28209Y-35328D01*
X28209Y-35414D01*
X28171Y-35471D01*
X28095Y-35500D01*
X27676Y-35500D01*
X28095Y-35500D02*
X28171Y-35528D01*
X28209Y-35585D01*
X28209Y-35671D01*
X28171Y-35728D01*
X28095Y-35757D01*
X27676Y-35757D01*
X27676Y-36042D02*
X28476Y-36042D01*
X28171Y-36042D02*
X28209Y-36100D01*
X28209Y-36214D01*
X28171Y-36271D01*
X28133Y-36300D01*
X28057Y-36328D01*
X27828Y-36328D01*
X27752Y-36300D01*
X27714Y-36271D01*
X27676Y-36214D01*
X27676Y-36100D01*
X27714Y-36042D01*
X27714Y-36814D02*
X27676Y-36757D01*
X27676Y-36642D01*
X27714Y-36585D01*
X27790Y-36557D01*
X28095Y-36557D01*
X28171Y-36585D01*
X28209Y-36642D01*
X28209Y-36757D01*
X28171Y-36814D01*
X28095Y-36842D01*
X28019Y-36842D01*
X27942Y-36557D01*
X27676Y-37100D02*
X28209Y-37100D01*
X28057Y-37100D02*
X28133Y-37128D01*
X28171Y-37157D01*
X28209Y-37214D01*
X28209Y-37271D01*
X28400Y-37900D02*
X28438Y-37928D01*
X28476Y-37985D01*
X28476Y-38128D01*
X28438Y-38185D01*
X28400Y-38214D01*
X28323Y-38242D01*
X28247Y-38242D01*
X28133Y-38214D01*
X27676Y-37871D01*
X27676Y-38242D01*
X28476Y-38614D02*
X28476Y-38671D01*
X28438Y-38728D01*
X28400Y-38757D01*
X28323Y-38785D01*
X28171Y-38814D01*
X27980Y-38814D01*
X27828Y-38785D01*
X27752Y-38757D01*
X27714Y-38728D01*
X27676Y-38671D01*
X27676Y-38614D01*
X27714Y-38557D01*
X27752Y-38528D01*
X27828Y-38500D01*
X27980Y-38471D01*
X28171Y-38471D01*
X28323Y-38500D01*
X28400Y-38528D01*
X28438Y-38557D01*
X28476Y-38614D01*
X27676Y-39385D02*
X27676Y-39042D01*
X27676Y-39214D02*
X28476Y-39214D01*
X28361Y-39157D01*
X28285Y-39100D01*
X28247Y-39042D01*
X28400Y-39614D02*
X28438Y-39642D01*
X28476Y-39700D01*
X28476Y-39842D01*
X28438Y-39900D01*
X28400Y-39928D01*
X28323Y-39957D01*
X28247Y-39957D01*
X28133Y-39928D01*
X27676Y-39585D01*
X27676Y-39957D01*
G54D15*
X30352Y-27571D02*
X31952Y-27571D01*
X31190Y-27571D02*
X31190Y-28257D01*
X30352Y-28257D02*
X31952Y-28257D01*
X30352Y-29342D02*
X31190Y-29342D01*
X31342Y-29285D01*
X31419Y-29171D01*
X31419Y-28942D01*
X31342Y-28828D01*
X30428Y-29342D02*
X30352Y-29228D01*
X30352Y-28942D01*
X30428Y-28828D01*
X30580Y-28771D01*
X30733Y-28771D01*
X30885Y-28828D01*
X30961Y-28942D01*
X30961Y-29228D01*
X31038Y-29342D01*
X30428Y-30428D02*
X30352Y-30314D01*
X30352Y-30085D01*
X30428Y-29971D01*
X30504Y-29914D01*
X30657Y-29857D01*
X31114Y-29857D01*
X31266Y-29914D01*
X31342Y-29971D01*
X31419Y-30085D01*
X31419Y-30314D01*
X31342Y-30428D01*
X30352Y-30942D02*
X31952Y-30942D01*
X30961Y-31057D02*
X30352Y-31400D01*
X31419Y-31400D02*
X30809Y-30942D01*
X30352Y-32600D02*
X31114Y-32200D01*
X30352Y-31914D02*
X31952Y-31914D01*
X31952Y-32371D01*
X31876Y-32485D01*
X31800Y-32542D01*
X31647Y-32600D01*
X31419Y-32600D01*
X31266Y-32542D01*
X31190Y-32485D01*
X31114Y-32371D01*
X31114Y-31914D01*
X31190Y-33514D02*
X31190Y-33114D01*
X30352Y-33114D02*
X31952Y-33114D01*
X31952Y-33685D01*
X31952Y-35400D02*
X30809Y-35400D01*
X30580Y-35342D01*
X30428Y-35228D01*
X30352Y-35057D01*
X30352Y-34942D01*
X30352Y-36485D02*
X31190Y-36485D01*
X31342Y-36428D01*
X31419Y-36314D01*
X31419Y-36085D01*
X31342Y-35971D01*
X30428Y-36485D02*
X30352Y-36371D01*
X30352Y-36085D01*
X30428Y-35971D01*
X30580Y-35914D01*
X30733Y-35914D01*
X30885Y-35971D01*
X30961Y-36085D01*
X30961Y-36371D01*
X31038Y-36485D01*
X31419Y-36942D02*
X30352Y-37171D01*
X31114Y-37400D01*
X30352Y-37628D01*
X31419Y-37857D01*
X30352Y-38314D02*
X31952Y-38314D01*
X31342Y-38314D02*
X31419Y-38428D01*
X31419Y-38657D01*
X31342Y-38771D01*
X31266Y-38828D01*
X31114Y-38885D01*
X30657Y-38885D01*
X30504Y-38828D01*
X30428Y-38771D01*
X30352Y-38657D01*
X30352Y-38428D01*
X30428Y-38314D01*
X30352Y-39400D02*
X31419Y-39400D01*
X31114Y-39400D02*
X31266Y-39457D01*
X31342Y-39514D01*
X31419Y-39628D01*
X31419Y-39742D01*
X30428Y-40600D02*
X30352Y-40485D01*
X30352Y-40257D01*
X30428Y-40142D01*
X30580Y-40085D01*
X31190Y-40085D01*
X31342Y-40142D01*
X31419Y-40257D01*
X31419Y-40485D01*
X31342Y-40600D01*
X31190Y-40657D01*
X31038Y-40657D01*
X30885Y-40085D01*
X30352Y-41685D02*
X31190Y-41685D01*
X31342Y-41628D01*
X31419Y-41514D01*
X31419Y-41285D01*
X31342Y-41171D01*
X30428Y-41685D02*
X30352Y-41571D01*
X30352Y-41285D01*
X30428Y-41171D01*
X30580Y-41114D01*
X30733Y-41114D01*
X30885Y-41171D01*
X30961Y-41285D01*
X30961Y-41571D01*
X31038Y-41685D01*
X30352Y-42257D02*
X31952Y-42257D01*
X30961Y-42371D02*
X30352Y-42714D01*
X31419Y-42714D02*
X30809Y-42257D01*
X30428Y-43685D02*
X30352Y-43571D01*
X30352Y-43342D01*
X30428Y-43228D01*
X30580Y-43171D01*
X31190Y-43171D01*
X31342Y-43228D01*
X31419Y-43342D01*
X31419Y-43571D01*
X31342Y-43685D01*
X31190Y-43742D01*
X31038Y-43742D01*
X30885Y-43171D01*
X30352Y-44257D02*
X31419Y-44257D01*
X31114Y-44257D02*
X31266Y-44314D01*
X31342Y-44371D01*
X31419Y-44485D01*
X31419Y-44599D01*
G54D11*
X69980Y-43750D02*
G75*
G03X69980Y-43750I-280J0D01*
G74*
G01*
X69980Y-44450D02*
G75*
G03X69980Y-44450I-280J0D01*
G74*
G01*
X45680Y-33850D02*
G75*
G03X45680Y-33850I-280J0D01*
G74*
G01*
G54D16*
X37350Y-41400D02*
X37350Y-42600D01*
X37350Y-42600D02*
X37050Y-42600D01*
X37050Y-42600D02*
X37050Y-41400D01*
X37050Y-41400D02*
X37350Y-41400D01*
X33800Y-36850D02*
X35000Y-36850D01*
X35000Y-36850D02*
X35000Y-37150D01*
X35000Y-37150D02*
X33800Y-37150D01*
X33800Y-37150D02*
X33800Y-36850D01*
X57950Y-23600D02*
X57950Y-24300D01*
X57950Y-24300D02*
X56750Y-24300D01*
X56750Y-24300D02*
X56750Y-23600D01*
X56750Y-23600D02*
X57950Y-23600D01*
G54D11*
X71739Y-32580D02*
X71661Y-32580D01*
X71739Y-31320D02*
X71661Y-31320D01*
X72192Y-32048D02*
X72192Y-31852D01*
X71208Y-32048D02*
X71208Y-31852D01*
X43370Y-30539D02*
X43370Y-30461D01*
X44630Y-30539D02*
X44630Y-30461D01*
X43902Y-30992D02*
X44098Y-30992D01*
X43902Y-30008D02*
X44098Y-30008D01*
G54D17*
X56559Y-40236D02*
G75*
G03X56559Y-40236I-295J0D01*
G74*
G01*
X56559Y-45650D02*
X57150Y-45650D01*
X57150Y-45650D02*
X57150Y-45059D01*
X50850Y-45059D02*
X50850Y-45650D01*
X50850Y-45650D02*
X51441Y-45650D01*
X51441Y-39350D02*
X50850Y-39350D01*
X50850Y-39350D02*
X50850Y-39941D01*
X57150Y-39941D02*
X57150Y-39350D01*
X57150Y-39350D02*
X56559Y-39350D01*
G54D11*
X81350Y-40350D02*
G75*
G03X81350Y-40350I-200J0D01*
G74*
G01*
X81550Y-39950D02*
X79450Y-39950D01*
X79450Y-39950D02*
X79450Y-42050D01*
X79450Y-42050D02*
X81550Y-42050D01*
X81550Y-42050D02*
X81550Y-39950D01*
G54D13*
X36205Y-35855D02*
X36205Y-36347D01*
X36181Y-36445D02*
G75*
G03X36181Y-36445I-55J0D01*
G74*
G01*
X36362Y-36445D02*
X36323Y-36445D01*
X36520Y-36445D02*
X36480Y-36445D01*
X36677Y-36445D02*
X36638Y-36445D01*
X36638Y-35855D02*
X36677Y-35855D01*
X36480Y-35855D02*
X36520Y-35855D01*
X36323Y-35855D02*
X36362Y-35855D01*
X36795Y-36445D02*
X36795Y-35855D01*
X34395Y-40145D02*
X34395Y-40637D01*
X34371Y-40735D02*
G75*
G03X34371Y-40735I-55J0D01*
G74*
G01*
X34552Y-40735D02*
X34513Y-40735D01*
X34710Y-40735D02*
X34670Y-40735D01*
X34867Y-40735D02*
X34828Y-40735D01*
X34828Y-40145D02*
X34867Y-40145D01*
X34670Y-40145D02*
X34710Y-40145D01*
X34513Y-40145D02*
X34552Y-40145D01*
X34985Y-40735D02*
X34985Y-40145D01*
X36795Y-38645D02*
X36795Y-38153D01*
X36929Y-38055D02*
G75*
G03X36929Y-38055I-55J0D01*
G74*
G01*
X36638Y-38055D02*
X36677Y-38055D01*
X36480Y-38055D02*
X36520Y-38055D01*
X36323Y-38055D02*
X36362Y-38055D01*
X36362Y-38645D02*
X36323Y-38645D01*
X36520Y-38645D02*
X36480Y-38645D01*
X36677Y-38645D02*
X36638Y-38645D01*
X36205Y-38055D02*
X36205Y-38645D01*
G54D11*
X44689Y-48031D02*
X44531Y-48189D01*
X44531Y-48189D02*
X44433Y-48189D01*
X44157Y-48189D02*
X43843Y-48189D01*
X44157Y-46811D02*
X43843Y-46811D01*
X44689Y-46811D02*
X44689Y-46969D01*
X44689Y-46811D02*
X44433Y-46811D01*
X43311Y-46811D02*
X43567Y-46811D01*
X43311Y-46811D02*
X43311Y-46969D01*
X43311Y-48189D02*
X43567Y-48189D01*
X43311Y-48189D02*
X43311Y-48031D01*
X40689Y-48031D02*
X40531Y-48189D01*
X40531Y-48189D02*
X40433Y-48189D01*
X40157Y-48189D02*
X39843Y-48189D01*
X40157Y-46811D02*
X39843Y-46811D01*
X40689Y-46811D02*
X40689Y-46969D01*
X40689Y-46811D02*
X40433Y-46811D01*
X39311Y-46811D02*
X39567Y-46811D01*
X39311Y-46811D02*
X39311Y-46969D01*
X39311Y-48189D02*
X39567Y-48189D01*
X39311Y-48189D02*
X39311Y-48031D01*
X52249Y-25844D02*
X52406Y-26001D01*
X50044Y-26001D02*
X50044Y-25844D01*
X50044Y-25844D02*
X50201Y-25844D01*
X50201Y-28206D02*
X50044Y-28206D01*
X50044Y-28206D02*
X50044Y-28049D01*
X52406Y-28049D02*
X52406Y-28206D01*
X52406Y-28206D02*
X52249Y-28206D01*
X37343Y-26216D02*
X37304Y-26216D01*
X37304Y-26216D02*
X37166Y-26354D01*
X37166Y-26354D02*
X37166Y-26393D01*
X39134Y-26393D02*
X39134Y-26216D01*
X39134Y-26216D02*
X38957Y-26216D01*
X38957Y-28184D02*
X39134Y-28184D01*
X39134Y-28184D02*
X39134Y-28007D01*
X37166Y-28007D02*
X37166Y-28184D01*
X37166Y-28184D02*
X37343Y-28184D01*
X45670Y-30813D02*
X45513Y-30970D01*
X47087Y-30970D02*
X47087Y-30813D01*
X47087Y-30813D02*
X46930Y-30813D01*
X46930Y-32387D02*
X47087Y-32387D01*
X47087Y-32387D02*
X47087Y-32230D01*
X45513Y-32230D02*
X45513Y-32387D01*
X45513Y-32387D02*
X45670Y-32387D01*
X74584Y-27366D02*
X74584Y-25634D01*
X74584Y-25634D02*
X76316Y-25634D01*
X76316Y-25634D02*
X76316Y-27366D01*
X76316Y-27366D02*
X74584Y-27366D01*
X74584Y-24366D02*
X74584Y-22634D01*
X74584Y-22634D02*
X76316Y-22634D01*
X76316Y-22634D02*
X76316Y-24366D01*
X76316Y-24366D02*
X74584Y-24366D01*
G54D17*
X73740Y-34545D02*
G75*
G03X73740Y-34545I-295J0D01*
G74*
G01*
X73642Y-42321D02*
X74331Y-42321D01*
X74331Y-42321D02*
X74331Y-41632D01*
X65669Y-41632D02*
X65669Y-42321D01*
X65669Y-42321D02*
X66358Y-42321D01*
X66358Y-33659D02*
X65669Y-33659D01*
X65669Y-33659D02*
X65669Y-34348D01*
X73642Y-33659D02*
X74331Y-33659D01*
X74331Y-33659D02*
X74331Y-34348D01*
G54D11*
X37300Y-33030D02*
X37300Y-33370D01*
X37300Y-33370D02*
X37540Y-33370D01*
G54D13*
X37580Y-32615D02*
X37620Y-32615D01*
X37580Y-33285D02*
X37620Y-33285D01*
G54D11*
X37757Y-32852D02*
X37757Y-33048D01*
X37423Y-33048D02*
X37423Y-32852D01*
X35820Y-32900D02*
X35820Y-32580D01*
X35820Y-32580D02*
X35380Y-32580D01*
X35380Y-32580D02*
X35380Y-32900D01*
G54D17*
X61000Y-28500D02*
X61000Y-36500D01*
X61000Y-36500D02*
X59000Y-36500D01*
X59000Y-36500D02*
X59000Y-28500D01*
X60000Y-29500D02*
X60000Y-28250D01*
X60000Y-28250D02*
X58750Y-28250D01*
X58750Y-28250D02*
X58750Y-29500D01*
X58750Y-29500D02*
X60000Y-29500D01*
X59000Y-28500D02*
X61000Y-28500D01*
X66000Y-49000D02*
X67250Y-49000D01*
X67250Y-49000D02*
X67250Y-47750D01*
X67250Y-47750D02*
X66000Y-47750D01*
X66000Y-47750D02*
X66000Y-49000D01*
X67000Y-50000D02*
X61000Y-50000D01*
X61000Y-50000D02*
X61000Y-48000D01*
X61000Y-48000D02*
X67000Y-48000D01*
X67000Y-48000D02*
X67000Y-50000D01*
X78000Y-43000D02*
X78000Y-44250D01*
X78000Y-44250D02*
X79250Y-44250D01*
X79250Y-44250D02*
X79250Y-43000D01*
X79250Y-43000D02*
X78000Y-43000D01*
X77000Y-44000D02*
X77000Y-38000D01*
X77000Y-38000D02*
X79000Y-38000D01*
X79000Y-38000D02*
X79000Y-44000D01*
X79000Y-44000D02*
X77000Y-44000D01*
X78000Y-35000D02*
X78000Y-36250D01*
X78000Y-36250D02*
X79250Y-36250D01*
X79250Y-36250D02*
X79250Y-35000D01*
X79250Y-35000D02*
X78000Y-35000D01*
X77000Y-36000D02*
X77000Y-31000D01*
X77000Y-31000D02*
X79000Y-31000D01*
X79000Y-31000D02*
X79000Y-36000D01*
X79000Y-36000D02*
X77000Y-36000D01*
X51000Y-49000D02*
X49750Y-49000D01*
X49750Y-49000D02*
X49750Y-50250D01*
X49750Y-50250D02*
X51000Y-50250D01*
X51000Y-50250D02*
X51000Y-49000D01*
X50000Y-48000D02*
X55000Y-48000D01*
X55000Y-48000D02*
X55000Y-50000D01*
X55000Y-50000D02*
X50000Y-50000D01*
X50000Y-50000D02*
X50000Y-48000D01*
X76000Y-29500D02*
X77250Y-29500D01*
X77250Y-29500D02*
X77250Y-28250D01*
X77250Y-28250D02*
X76000Y-28250D01*
X76000Y-28250D02*
X76000Y-29500D01*
X77000Y-30500D02*
X73000Y-30500D01*
X73000Y-30500D02*
X73000Y-28500D01*
X73000Y-28500D02*
X77000Y-28500D01*
X77000Y-28500D02*
X77000Y-30500D01*
X78010Y-47000D02*
X79260Y-47000D01*
X79260Y-47000D02*
X79260Y-45750D01*
X79260Y-45750D02*
X78010Y-45750D01*
X78010Y-45750D02*
X78010Y-47000D01*
X79010Y-48000D02*
X76010Y-48000D01*
X76010Y-48000D02*
X76010Y-46000D01*
X76010Y-46000D02*
X79010Y-46000D01*
X79010Y-46000D02*
X79010Y-48000D01*
X69000Y-49000D02*
X75000Y-49000D01*
X75000Y-49000D02*
X75000Y-50000D01*
X75000Y-50000D02*
X69000Y-50000D01*
X70000Y-50250D02*
X70000Y-48750D01*
X70000Y-48750D02*
X68750Y-48750D01*
X68750Y-48750D02*
X68750Y-50250D01*
X69000Y-49000D02*
X69000Y-50000D01*
X68750Y-50250D02*
X70000Y-50250D01*
X48000Y-44000D02*
X48000Y-50000D01*
X48000Y-50000D02*
X47000Y-50000D01*
X47000Y-50000D02*
X47000Y-44000D01*
X46750Y-45000D02*
X48250Y-45000D01*
X48250Y-45000D02*
X48250Y-43750D01*
X48250Y-43750D02*
X46750Y-43750D01*
X48000Y-44000D02*
X47000Y-44000D01*
X46750Y-43750D02*
X46750Y-45000D01*
X63000Y-23500D02*
X66000Y-23500D01*
X66000Y-23500D02*
X66000Y-24500D01*
X66000Y-24500D02*
X63000Y-24500D01*
X64000Y-24750D02*
X64000Y-23250D01*
X64000Y-23250D02*
X62750Y-23250D01*
X62750Y-23250D02*
X62750Y-24750D01*
X63000Y-23500D02*
X63000Y-24500D01*
X62750Y-24750D02*
X64000Y-24750D01*
X63000Y-22500D02*
X66000Y-22500D01*
X66000Y-22500D02*
X66000Y-23500D01*
X66000Y-23500D02*
X63000Y-23500D01*
X64000Y-23750D02*
X64000Y-22250D01*
X64000Y-22250D02*
X62750Y-22250D01*
X62750Y-22250D02*
X62750Y-23750D01*
X63000Y-22500D02*
X63000Y-23500D01*
X62750Y-23750D02*
X64000Y-23750D01*
X63000Y-24500D02*
X66000Y-24500D01*
X66000Y-24500D02*
X66000Y-25500D01*
X66000Y-25500D02*
X63000Y-25500D01*
X64000Y-25750D02*
X64000Y-24250D01*
X64000Y-24250D02*
X62750Y-24250D01*
X62750Y-24250D02*
X62750Y-25750D01*
X63000Y-24500D02*
X63000Y-25500D01*
X62750Y-25750D02*
X64000Y-25750D01*
X63000Y-25500D02*
X66000Y-25500D01*
X66000Y-25500D02*
X66000Y-26500D01*
X66000Y-26500D02*
X63000Y-26500D01*
X64000Y-26750D02*
X64000Y-25250D01*
X64000Y-25250D02*
X62750Y-25250D01*
X62750Y-25250D02*
X62750Y-26750D01*
X63000Y-25500D02*
X63000Y-26500D01*
X62750Y-26750D02*
X64000Y-26750D01*
X67000Y-26500D02*
X67000Y-24500D01*
X67000Y-24500D02*
X68000Y-24500D01*
X68000Y-24500D02*
X68000Y-26500D01*
X68250Y-25500D02*
X66750Y-25500D01*
X66750Y-25500D02*
X66750Y-26750D01*
X66750Y-26750D02*
X68250Y-26750D01*
X67000Y-26500D02*
X68000Y-26500D01*
X68250Y-26750D02*
X68250Y-25500D01*
G54D11*
X51518Y-23540D02*
X51518Y-23028D01*
X51832Y-22910D02*
X51832Y-23540D01*
X51832Y-22910D02*
X51675Y-22910D01*
X51518Y-22910D02*
X51557Y-22910D01*
X51832Y-23540D02*
X51518Y-23540D01*
X50318Y-23540D02*
X50318Y-23028D01*
X50632Y-22910D02*
X50632Y-23540D01*
X50632Y-22910D02*
X50475Y-22910D01*
X50318Y-22910D02*
X50357Y-22910D01*
X50632Y-23540D02*
X50318Y-23540D01*
X72180Y-28730D02*
X72180Y-28670D01*
X72280Y-28700D02*
X72120Y-28570D01*
X72120Y-28570D02*
X72120Y-28830D01*
X72120Y-28830D02*
X72280Y-28700D01*
X72740Y-28460D02*
X71660Y-28460D01*
X71660Y-28460D02*
X71660Y-28940D01*
X71660Y-28940D02*
X72740Y-28940D01*
X72740Y-28940D02*
X72740Y-28460D01*
X67130Y-28730D02*
X67130Y-28670D01*
X67230Y-28700D02*
X67070Y-28570D01*
X67070Y-28570D02*
X67070Y-28830D01*
X67070Y-28830D02*
X67230Y-28700D01*
X67690Y-28460D02*
X66610Y-28460D01*
X66610Y-28460D02*
X66610Y-28940D01*
X66610Y-28940D02*
X67690Y-28940D01*
X67690Y-28940D02*
X67690Y-28460D01*
X72430Y-45370D02*
X72370Y-45370D01*
X72400Y-45270D02*
X72270Y-45430D01*
X72270Y-45430D02*
X72530Y-45430D01*
X72530Y-45430D02*
X72400Y-45270D01*
X72160Y-44810D02*
X72160Y-45890D01*
X72160Y-45890D02*
X72640Y-45890D01*
X72640Y-45890D02*
X72640Y-44810D01*
X72640Y-44810D02*
X72160Y-44810D01*
X69780Y-46030D02*
X69780Y-45970D01*
X69880Y-46000D02*
X69720Y-45870D01*
X69720Y-45870D02*
X69720Y-46130D01*
X69720Y-46130D02*
X69880Y-46000D01*
X70340Y-45760D02*
X69260Y-45760D01*
X69260Y-45760D02*
X69260Y-46240D01*
X69260Y-46240D02*
X70340Y-46240D01*
X70340Y-46240D02*
X70340Y-45760D01*
X69780Y-45230D02*
X69780Y-45170D01*
X69880Y-45200D02*
X69720Y-45070D01*
X69720Y-45070D02*
X69720Y-45330D01*
X69720Y-45330D02*
X69880Y-45200D01*
X70340Y-44960D02*
X69260Y-44960D01*
X69260Y-44960D02*
X69260Y-45440D01*
X69260Y-45440D02*
X70340Y-45440D01*
X70340Y-45440D02*
X70340Y-44960D01*
X74480Y-31920D02*
X74420Y-31920D01*
X74450Y-31820D02*
X74320Y-31980D01*
X74320Y-31980D02*
X74580Y-31980D01*
X74580Y-31980D02*
X74450Y-31820D01*
X74210Y-31360D02*
X74210Y-32440D01*
X74210Y-32440D02*
X74690Y-32440D01*
X74690Y-32440D02*
X74690Y-31360D01*
X74690Y-31360D02*
X74210Y-31360D01*
X76230Y-31920D02*
X76170Y-31920D01*
X76200Y-31820D02*
X76070Y-31980D01*
X76070Y-31980D02*
X76330Y-31980D01*
X76330Y-31980D02*
X76200Y-31820D01*
X75960Y-31360D02*
X75960Y-32440D01*
X75960Y-32440D02*
X76440Y-32440D01*
X76440Y-32440D02*
X76440Y-31360D01*
X76440Y-31360D02*
X75960Y-31360D01*
X37210Y-25140D02*
X38290Y-25140D01*
X38290Y-25140D02*
X38290Y-24660D01*
X38290Y-24660D02*
X37210Y-24660D01*
X37210Y-24660D02*
X37210Y-25140D01*
X35240Y-37760D02*
X34160Y-37760D01*
X34160Y-37760D02*
X34160Y-38240D01*
X34160Y-38240D02*
X35240Y-38240D01*
X35240Y-38240D02*
X35240Y-37760D01*
X57340Y-22760D02*
X56260Y-22760D01*
X56260Y-22760D02*
X56260Y-23240D01*
X56260Y-23240D02*
X57340Y-23240D01*
X57340Y-23240D02*
X57340Y-22760D01*
X39490Y-24660D02*
X38410Y-24660D01*
X38410Y-24660D02*
X38410Y-25140D01*
X38410Y-25140D02*
X39490Y-25140D01*
X39490Y-25140D02*
X39490Y-24660D01*
X57140Y-25160D02*
X56060Y-25160D01*
X56060Y-25160D02*
X56060Y-25640D01*
X56060Y-25640D02*
X57140Y-25640D01*
X57140Y-25640D02*
X57140Y-25160D01*
X36110Y-40610D02*
X36110Y-41690D01*
X36110Y-41690D02*
X36590Y-41690D01*
X36590Y-41690D02*
X36590Y-40610D01*
X36590Y-40610D02*
X36110Y-40610D01*
X62350Y-32050D02*
X62650Y-32050D01*
X62650Y-32050D02*
X62650Y-32750D01*
X62650Y-32750D02*
X62350Y-32750D01*
X62350Y-32750D02*
X62350Y-32050D01*
X72550Y-23350D02*
X72550Y-23650D01*
X72550Y-23650D02*
X71850Y-23650D01*
X71850Y-23650D02*
X71850Y-23350D01*
X71850Y-23350D02*
X72550Y-23350D01*
X72550Y-22950D02*
X72550Y-23250D01*
X72550Y-23250D02*
X71850Y-23250D01*
X71850Y-23250D02*
X71850Y-22950D01*
X71850Y-22950D02*
X72550Y-22950D01*
X77200Y-37250D02*
X77200Y-36950D01*
X77200Y-36950D02*
X77900Y-36950D01*
X77900Y-36950D02*
X77900Y-37250D01*
X77900Y-37250D02*
X77200Y-37250D01*
X74650Y-48100D02*
X74650Y-48400D01*
X74650Y-48400D02*
X73950Y-48400D01*
X73950Y-48400D02*
X73950Y-48100D01*
X73950Y-48100D02*
X74650Y-48100D01*
X71040Y-27100D02*
X71340Y-27100D01*
X71340Y-27100D02*
X71340Y-27800D01*
X71340Y-27800D02*
X71040Y-27800D01*
X71040Y-27800D02*
X71040Y-27100D01*
X71740Y-27800D02*
X71440Y-27800D01*
X71440Y-27800D02*
X71440Y-27100D01*
X71440Y-27100D02*
X71740Y-27100D01*
X71740Y-27100D02*
X71740Y-27800D01*
X70900Y-26600D02*
X70600Y-26600D01*
X70600Y-26600D02*
X70600Y-25900D01*
X70600Y-25900D02*
X70900Y-25900D01*
X70900Y-25900D02*
X70900Y-26600D01*
X70940Y-27800D02*
X70640Y-27800D01*
X70640Y-27800D02*
X70640Y-27100D01*
X70640Y-27100D02*
X70940Y-27100D01*
X70940Y-27100D02*
X70940Y-27800D01*
X75800Y-25150D02*
X75800Y-24850D01*
X75800Y-24850D02*
X76500Y-24850D01*
X76500Y-24850D02*
X76500Y-25150D01*
X76500Y-25150D02*
X75800Y-25150D01*
X35200Y-25650D02*
X35200Y-25350D01*
X35200Y-25350D02*
X35900Y-25350D01*
X35900Y-25350D02*
X35900Y-25650D01*
X35900Y-25650D02*
X35200Y-25650D01*
X72550Y-25850D02*
X72550Y-26150D01*
X72550Y-26150D02*
X71850Y-26150D01*
X71850Y-26150D02*
X71850Y-25850D01*
X71850Y-25850D02*
X72550Y-25850D01*
X53925Y-30075D02*
X54225Y-30075D01*
X54225Y-30075D02*
X54225Y-30775D01*
X54225Y-30775D02*
X53925Y-30775D01*
X53925Y-30775D02*
X53925Y-30075D01*
X37900Y-23500D02*
X37900Y-23800D01*
X37900Y-23800D02*
X37200Y-23800D01*
X37200Y-23800D02*
X37200Y-23500D01*
X37200Y-23500D02*
X37900Y-23500D01*
X35500Y-25200D02*
X35500Y-24900D01*
X35500Y-24900D02*
X36200Y-24900D01*
X36200Y-24900D02*
X36200Y-25200D01*
X36200Y-25200D02*
X35500Y-25200D01*
X40350Y-24450D02*
X40350Y-24150D01*
X40350Y-24150D02*
X41050Y-24150D01*
X41050Y-24150D02*
X41050Y-24450D01*
X41050Y-24450D02*
X40350Y-24450D01*
X39000Y-35100D02*
X38700Y-35100D01*
X38700Y-35100D02*
X38700Y-34400D01*
X38700Y-34400D02*
X39000Y-34400D01*
X39000Y-34400D02*
X39000Y-35100D01*
X36500Y-28450D02*
X36500Y-28750D01*
X36500Y-28750D02*
X35800Y-28750D01*
X35800Y-28750D02*
X35800Y-28450D01*
X35800Y-28450D02*
X36500Y-28450D01*
X35100Y-28700D02*
X34800Y-28700D01*
X34800Y-28700D02*
X34800Y-28000D01*
X34800Y-28000D02*
X35100Y-28000D01*
X35100Y-28000D02*
X35100Y-28700D01*
X35800Y-27850D02*
X35800Y-27550D01*
X35800Y-27550D02*
X36500Y-27550D01*
X36500Y-27550D02*
X36500Y-27850D01*
X36500Y-27850D02*
X35800Y-27850D01*
X36500Y-26350D02*
X36500Y-26650D01*
X36500Y-26650D02*
X35800Y-26650D01*
X35800Y-26650D02*
X35800Y-26350D01*
X35800Y-26350D02*
X36500Y-26350D01*
X61950Y-33700D02*
X61950Y-33400D01*
X61950Y-33400D02*
X62650Y-33400D01*
X62650Y-33400D02*
X62650Y-33700D01*
X62650Y-33700D02*
X61950Y-33700D01*
X63800Y-38100D02*
X63500Y-38100D01*
X63500Y-38100D02*
X63500Y-37400D01*
X63500Y-37400D02*
X63800Y-37400D01*
X63800Y-37400D02*
X63800Y-38100D01*
X55425Y-30075D02*
X55725Y-30075D01*
X55725Y-30075D02*
X55725Y-30775D01*
X55725Y-30775D02*
X55425Y-30775D01*
X55425Y-30775D02*
X55425Y-30075D01*
X54925Y-30075D02*
X55225Y-30075D01*
X55225Y-30075D02*
X55225Y-30775D01*
X55225Y-30775D02*
X54925Y-30775D01*
X54925Y-30775D02*
X54925Y-30075D01*
X54425Y-30075D02*
X54725Y-30075D01*
X54725Y-30075D02*
X54725Y-30775D01*
X54725Y-30775D02*
X54425Y-30775D01*
X54425Y-30775D02*
X54425Y-30075D01*
X57550Y-31350D02*
X57550Y-31650D01*
X57550Y-31650D02*
X56850Y-31650D01*
X56850Y-31650D02*
X56850Y-31350D01*
X56850Y-31350D02*
X57550Y-31350D01*
X57400Y-26650D02*
X57400Y-26350D01*
X57400Y-26350D02*
X58100Y-26350D01*
X58100Y-26350D02*
X58100Y-26650D01*
X58100Y-26650D02*
X57400Y-26650D01*
X34650Y-36200D02*
X34650Y-35900D01*
X34650Y-35900D02*
X35350Y-35900D01*
X35350Y-35900D02*
X35350Y-36200D01*
X35350Y-36200D02*
X34650Y-36200D01*
X53925Y-28875D02*
X54225Y-28875D01*
X54225Y-28875D02*
X54225Y-29575D01*
X54225Y-29575D02*
X53925Y-29575D01*
X53925Y-29575D02*
X53925Y-28875D01*
X54425Y-28875D02*
X54725Y-28875D01*
X54725Y-28875D02*
X54725Y-29575D01*
X54725Y-29575D02*
X54425Y-29575D01*
X54425Y-29575D02*
X54425Y-28875D01*
X54925Y-28875D02*
X55225Y-28875D01*
X55225Y-28875D02*
X55225Y-29575D01*
X55225Y-29575D02*
X54925Y-29575D01*
X54925Y-29575D02*
X54925Y-28875D01*
X55425Y-28875D02*
X55725Y-28875D01*
X55725Y-28875D02*
X55725Y-29575D01*
X55725Y-29575D02*
X55425Y-29575D01*
X55425Y-29575D02*
X55425Y-28875D01*
X57550Y-30950D02*
X57550Y-31250D01*
X57550Y-31250D02*
X56850Y-31250D01*
X56850Y-31250D02*
X56850Y-30950D01*
X56850Y-30950D02*
X57550Y-30950D01*
X57400Y-26250D02*
X57400Y-25950D01*
X57400Y-25950D02*
X58100Y-25950D01*
X58100Y-25950D02*
X58100Y-26250D01*
X58100Y-26250D02*
X57400Y-26250D01*
X53375Y-28875D02*
X53675Y-28875D01*
X53675Y-28875D02*
X53675Y-29575D01*
X53675Y-29575D02*
X53375Y-29575D01*
X53375Y-29575D02*
X53375Y-28875D01*
X52875Y-28875D02*
X53175Y-28875D01*
X53175Y-28875D02*
X53175Y-29575D01*
X53175Y-29575D02*
X52875Y-29575D01*
X52875Y-29575D02*
X52875Y-28875D01*
X52375Y-28875D02*
X52675Y-28875D01*
X52675Y-28875D02*
X52675Y-29575D01*
X52675Y-29575D02*
X52375Y-29575D01*
X52375Y-29575D02*
X52375Y-28875D01*
X51875Y-28875D02*
X52175Y-28875D01*
X52175Y-28875D02*
X52175Y-29575D01*
X52175Y-29575D02*
X51875Y-29575D01*
X51875Y-29575D02*
X51875Y-28875D01*
X38700Y-42950D02*
X38400Y-42950D01*
X38400Y-42950D02*
X38400Y-42250D01*
X38400Y-42250D02*
X38700Y-42250D01*
X38700Y-42250D02*
X38700Y-42950D01*
X48275Y-28375D02*
X48275Y-28075D01*
X48275Y-28075D02*
X48975Y-28075D01*
X48975Y-28075D02*
X48975Y-28375D01*
X48975Y-28375D02*
X48275Y-28375D01*
X48275Y-28775D02*
X48275Y-28475D01*
X48275Y-28475D02*
X48975Y-28475D01*
X48975Y-28475D02*
X48975Y-28775D01*
X48975Y-28775D02*
X48275Y-28775D01*
X47200Y-36800D02*
X47500Y-36800D01*
X47500Y-36800D02*
X47500Y-37500D01*
X47500Y-37500D02*
X47200Y-37500D01*
X47200Y-37500D02*
X47200Y-36800D01*
X46300Y-36800D02*
X46600Y-36800D01*
X46600Y-36800D02*
X46600Y-37500D01*
X46600Y-37500D02*
X46300Y-37500D01*
X46300Y-37500D02*
X46300Y-36800D01*
X35850Y-31850D02*
X36150Y-31850D01*
X36150Y-31850D02*
X36150Y-32550D01*
X36150Y-32550D02*
X35850Y-32550D01*
X35850Y-32550D02*
X35850Y-31850D01*
X37400Y-34650D02*
X37400Y-34350D01*
X37400Y-34350D02*
X38100Y-34350D01*
X38100Y-34350D02*
X38100Y-34650D01*
X38100Y-34650D02*
X37400Y-34650D01*
X36900Y-30500D02*
X37200Y-30500D01*
X37200Y-30500D02*
X37200Y-31200D01*
X37200Y-31200D02*
X36900Y-31200D01*
X36900Y-31200D02*
X36900Y-30500D01*
X41900Y-24250D02*
X41900Y-23950D01*
X41900Y-23950D02*
X42600Y-23950D01*
X42600Y-23950D02*
X42600Y-24250D01*
X42600Y-24250D02*
X41900Y-24250D01*
X41350Y-25450D02*
X41650Y-25450D01*
X41650Y-25450D02*
X41650Y-26150D01*
X41650Y-26150D02*
X41350Y-26150D01*
X41350Y-26150D02*
X41350Y-25450D01*
X35050Y-24350D02*
X35050Y-24050D01*
X35050Y-24050D02*
X35750Y-24050D01*
X35750Y-24050D02*
X35750Y-24350D01*
X35750Y-24350D02*
X35050Y-24350D01*
X36300Y-30300D02*
X36600Y-30300D01*
X36600Y-30300D02*
X36600Y-31000D01*
X36600Y-31000D02*
X36300Y-31000D01*
X36300Y-31000D02*
X36300Y-30300D01*
X40350Y-25050D02*
X40650Y-25050D01*
X40650Y-25050D02*
X40650Y-25750D01*
X40650Y-25750D02*
X40350Y-25750D01*
X40350Y-25750D02*
X40350Y-25050D01*
X36150Y-34150D02*
X35850Y-34150D01*
X35850Y-34150D02*
X35850Y-33450D01*
X35850Y-33450D02*
X36150Y-33450D01*
X36150Y-33450D02*
X36150Y-34150D01*
X37050Y-33450D02*
X37350Y-33450D01*
X37350Y-33450D02*
X37350Y-34150D01*
X37350Y-34150D02*
X37050Y-34150D01*
X37050Y-34150D02*
X37050Y-33450D01*
X40800Y-25050D02*
X41100Y-25050D01*
X41100Y-25050D02*
X41100Y-25750D01*
X41100Y-25750D02*
X40800Y-25750D01*
X40800Y-25750D02*
X40800Y-25050D01*
X35700Y-35050D02*
X35700Y-34750D01*
X35700Y-34750D02*
X36400Y-34750D01*
X36400Y-34750D02*
X36400Y-35050D01*
X36400Y-35050D02*
X35700Y-35050D01*
X35100Y-31650D02*
X35100Y-31350D01*
X35100Y-31350D02*
X35800Y-31350D01*
X35800Y-31350D02*
X35800Y-31650D01*
X35800Y-31650D02*
X35100Y-31650D01*
X36900Y-34800D02*
X37200Y-34800D01*
X37200Y-34800D02*
X37200Y-35500D01*
X37200Y-35500D02*
X36900Y-35500D01*
X36900Y-35500D02*
X36900Y-34800D01*
X45750Y-33150D02*
X45750Y-33450D01*
X45750Y-33450D02*
X45050Y-33450D01*
X45050Y-33450D02*
X45050Y-33150D01*
X45050Y-33150D02*
X45750Y-33150D01*
X44150Y-31500D02*
X44450Y-31500D01*
X44450Y-31500D02*
X44450Y-32200D01*
X44450Y-32200D02*
X44150Y-32200D01*
X44150Y-32200D02*
X44150Y-31500D01*
X59000Y-47750D02*
X59000Y-47450D01*
X59000Y-47450D02*
X59700Y-47450D01*
X59700Y-47450D02*
X59700Y-47750D01*
X59700Y-47750D02*
X59000Y-47750D01*
X59000Y-47350D02*
X59000Y-47050D01*
X59000Y-47050D02*
X59700Y-47050D01*
X59700Y-47050D02*
X59700Y-47350D01*
X59700Y-47350D02*
X59000Y-47350D01*
X37950Y-30800D02*
X37950Y-30500D01*
X37950Y-30500D02*
X38650Y-30500D01*
X38650Y-30500D02*
X38650Y-30800D01*
X38650Y-30800D02*
X37950Y-30800D01*
X40400Y-28050D02*
X40400Y-28350D01*
X40400Y-28350D02*
X39700Y-28350D01*
X39700Y-28350D02*
X39700Y-28050D01*
X39700Y-28050D02*
X40400Y-28050D01*
X40400Y-26850D02*
X40400Y-27150D01*
X40400Y-27150D02*
X39700Y-27150D01*
X39700Y-27150D02*
X39700Y-26850D01*
X39700Y-26850D02*
X40400Y-26850D01*
X40400Y-27250D02*
X40400Y-27550D01*
X40400Y-27550D02*
X39700Y-27550D01*
X39700Y-27550D02*
X39700Y-27250D01*
X39700Y-27250D02*
X40400Y-27250D01*
X35800Y-27450D02*
X35800Y-27150D01*
X35800Y-27150D02*
X36500Y-27150D01*
X36500Y-27150D02*
X36500Y-27450D01*
X36500Y-27450D02*
X35800Y-27450D01*
X35800Y-27050D02*
X35800Y-26750D01*
X35800Y-26750D02*
X36500Y-26750D01*
X36500Y-26750D02*
X36500Y-27050D01*
X36500Y-27050D02*
X35800Y-27050D01*
X43300Y-25450D02*
X43300Y-25150D01*
X43300Y-25150D02*
X44000Y-25150D01*
X44000Y-25150D02*
X44000Y-25450D01*
X44000Y-25450D02*
X43300Y-25450D01*
X44400Y-24850D02*
X44400Y-24550D01*
X44400Y-24550D02*
X45100Y-24550D01*
X45100Y-24550D02*
X45100Y-24850D01*
X45100Y-24850D02*
X44400Y-24850D01*
X42150Y-27100D02*
X41850Y-27100D01*
X41850Y-27100D02*
X41850Y-26400D01*
X41850Y-26400D02*
X42150Y-26400D01*
X42150Y-26400D02*
X42150Y-27100D01*
X59000Y-46950D02*
X59000Y-46650D01*
X59000Y-46650D02*
X59700Y-46650D01*
X59700Y-46650D02*
X59700Y-46950D01*
X59700Y-46950D02*
X59000Y-46950D01*
X37450Y-31650D02*
X37450Y-31350D01*
X37450Y-31350D02*
X38150Y-31350D01*
X38150Y-31350D02*
X38150Y-31650D01*
X38150Y-31650D02*
X37450Y-31650D01*
X36950Y-28950D02*
X36950Y-29250D01*
X36950Y-29250D02*
X36250Y-29250D01*
X36250Y-29250D02*
X36250Y-28950D01*
X36250Y-28950D02*
X36950Y-28950D01*
X35600Y-29150D02*
X35300Y-29150D01*
X35300Y-29150D02*
X35300Y-28450D01*
X35300Y-28450D02*
X35600Y-28450D01*
X35600Y-28450D02*
X35600Y-29150D01*
X35800Y-28250D02*
X35800Y-27950D01*
X35800Y-27950D02*
X36500Y-27950D01*
X36500Y-27950D02*
X36500Y-28250D01*
X36500Y-28250D02*
X35800Y-28250D01*
X35300Y-27550D02*
X35600Y-27550D01*
X35600Y-27550D02*
X35600Y-28250D01*
X35600Y-28250D02*
X35300Y-28250D01*
X35300Y-28250D02*
X35300Y-27550D01*
X43250Y-23350D02*
X43550Y-23350D01*
X43550Y-23350D02*
X43550Y-24050D01*
X43550Y-24050D02*
X43250Y-24050D01*
X43250Y-24050D02*
X43250Y-23350D01*
X37050Y-31850D02*
X37350Y-31850D01*
X37350Y-31850D02*
X37350Y-32550D01*
X37350Y-32550D02*
X37050Y-32550D01*
X37050Y-32550D02*
X37050Y-31850D01*
X62350Y-22650D02*
X62350Y-22950D01*
X62350Y-22950D02*
X61650Y-22950D01*
X61650Y-22950D02*
X61650Y-22650D01*
X61650Y-22650D02*
X62350Y-22650D01*
X67500Y-29050D02*
X67500Y-29350D01*
X67500Y-29350D02*
X66800Y-29350D01*
X66800Y-29350D02*
X66800Y-29050D01*
X66800Y-29050D02*
X67500Y-29050D01*
X72050Y-46300D02*
X72050Y-46000D01*
X72050Y-46000D02*
X72750Y-46000D01*
X72750Y-46000D02*
X72750Y-46300D01*
X72750Y-46300D02*
X72050Y-46300D01*
X75850Y-32850D02*
X75850Y-32550D01*
X75850Y-32550D02*
X76550Y-32550D01*
X76550Y-32550D02*
X76550Y-32850D01*
X76550Y-32850D02*
X75850Y-32850D01*
X74100Y-32850D02*
X74100Y-32550D01*
X74100Y-32550D02*
X74800Y-32550D01*
X74800Y-32550D02*
X74800Y-32850D01*
X74800Y-32850D02*
X74100Y-32850D01*
X70450Y-44950D02*
X70750Y-44950D01*
X70750Y-44950D02*
X70750Y-45650D01*
X70750Y-45650D02*
X70450Y-45650D01*
X70450Y-45650D02*
X70450Y-44950D01*
X70450Y-45750D02*
X70750Y-45750D01*
X70750Y-45750D02*
X70750Y-46450D01*
X70750Y-46450D02*
X70450Y-46450D01*
X70450Y-46450D02*
X70450Y-45750D01*
X69050Y-31900D02*
X69350Y-31900D01*
X69350Y-31900D02*
X69350Y-32600D01*
X69350Y-32600D02*
X69050Y-32600D01*
X69050Y-32600D02*
X69050Y-31900D01*
X61650Y-24450D02*
X61650Y-24150D01*
X61650Y-24150D02*
X62350Y-24150D01*
X62350Y-24150D02*
X62350Y-24450D01*
X62350Y-24450D02*
X61650Y-24450D01*
X72550Y-29100D02*
X72550Y-29400D01*
X72550Y-29400D02*
X71850Y-29400D01*
X71850Y-29400D02*
X71850Y-29100D01*
X71850Y-29100D02*
X72550Y-29100D01*
X64050Y-28300D02*
X63750Y-28300D01*
X63750Y-28300D02*
X63750Y-27600D01*
X63750Y-27600D02*
X64050Y-27600D01*
X64050Y-27600D02*
X64050Y-28300D01*
X70250Y-27250D02*
X69950Y-27250D01*
X69950Y-27250D02*
X69950Y-26550D01*
X69950Y-26550D02*
X70250Y-26550D01*
X70250Y-26550D02*
X70250Y-27250D01*
X66500Y-31350D02*
X66500Y-31050D01*
X66500Y-31050D02*
X67200Y-31050D01*
X67200Y-31050D02*
X67200Y-31350D01*
X67200Y-31350D02*
X66500Y-31350D01*
X65250Y-31150D02*
X65250Y-30850D01*
X65250Y-30850D02*
X65950Y-30850D01*
X65950Y-30850D02*
X65950Y-31150D01*
X65950Y-31150D02*
X65250Y-31150D01*
X70250Y-26400D02*
X69950Y-26400D01*
X69950Y-26400D02*
X69950Y-25700D01*
X69950Y-25700D02*
X70250Y-25700D01*
X70250Y-25700D02*
X70250Y-26400D01*
X70650Y-48100D02*
X70650Y-48400D01*
X70650Y-48400D02*
X69950Y-48400D01*
X69950Y-48400D02*
X69950Y-48100D01*
X69950Y-48100D02*
X70650Y-48100D01*
X69550Y-28950D02*
X69850Y-28950D01*
X69850Y-28950D02*
X69850Y-29650D01*
X69850Y-29650D02*
X69550Y-29650D01*
X69550Y-29650D02*
X69550Y-28950D01*
X69150Y-28500D02*
X69450Y-28500D01*
X69450Y-28500D02*
X69450Y-29200D01*
X69450Y-29200D02*
X69150Y-29200D01*
X69150Y-29200D02*
X69150Y-28500D01*
X59000Y-43750D02*
X59000Y-43450D01*
X59000Y-43450D02*
X59700Y-43450D01*
X59700Y-43450D02*
X59700Y-43750D01*
X59700Y-43750D02*
X59000Y-43750D01*
X59000Y-46550D02*
X59000Y-46250D01*
X59000Y-46250D02*
X59700Y-46250D01*
X59700Y-46250D02*
X59700Y-46550D01*
X59700Y-46550D02*
X59000Y-46550D01*
X59000Y-46150D02*
X59000Y-45850D01*
X59000Y-45850D02*
X59700Y-45850D01*
X59700Y-45850D02*
X59700Y-46150D01*
X59700Y-46150D02*
X59000Y-46150D01*
X61650Y-26450D02*
X61650Y-26150D01*
X61650Y-26150D02*
X62350Y-26150D01*
X62350Y-26150D02*
X62350Y-26450D01*
X62350Y-26450D02*
X61650Y-26450D01*
X59000Y-45750D02*
X59000Y-45450D01*
X59000Y-45450D02*
X59700Y-45450D01*
X59700Y-45450D02*
X59700Y-45750D01*
X59700Y-45750D02*
X59000Y-45750D01*
X59000Y-45350D02*
X59000Y-45050D01*
X59000Y-45050D02*
X59700Y-45050D01*
X59700Y-45050D02*
X59700Y-45350D01*
X59700Y-45350D02*
X59000Y-45350D01*
X59000Y-44950D02*
X59000Y-44650D01*
X59000Y-44650D02*
X59700Y-44650D01*
X59700Y-44650D02*
X59700Y-44950D01*
X59700Y-44950D02*
X59000Y-44950D01*
X59000Y-44550D02*
X59000Y-44250D01*
X59000Y-44250D02*
X59700Y-44250D01*
X59700Y-44250D02*
X59700Y-44550D01*
X59700Y-44550D02*
X59000Y-44550D01*
X59000Y-44150D02*
X59000Y-43850D01*
X59000Y-43850D02*
X59700Y-43850D01*
X59700Y-43850D02*
X59700Y-44150D01*
X59700Y-44150D02*
X59000Y-44150D01*
X72550Y-26250D02*
X72550Y-26550D01*
X72550Y-26550D02*
X71850Y-26550D01*
X71850Y-26550D02*
X71850Y-26250D01*
X71850Y-26250D02*
X72550Y-26250D01*
X61650Y-24950D02*
X61650Y-24650D01*
X61650Y-24650D02*
X62350Y-24650D01*
X62350Y-24650D02*
X62350Y-24950D01*
X62350Y-24950D02*
X61650Y-24950D01*
X59000Y-43350D02*
X59000Y-43050D01*
X59000Y-43050D02*
X59700Y-43050D01*
X59700Y-43050D02*
X59700Y-43350D01*
X59700Y-43350D02*
X59000Y-43350D01*
X59000Y-42950D02*
X59000Y-42650D01*
X59000Y-42650D02*
X59700Y-42650D01*
X59700Y-42650D02*
X59700Y-42950D01*
X59700Y-42950D02*
X59000Y-42950D01*
X59000Y-42550D02*
X59000Y-42250D01*
X59000Y-42250D02*
X59700Y-42250D01*
X59700Y-42250D02*
X59700Y-42550D01*
X59700Y-42550D02*
X59000Y-42550D01*
X59000Y-42150D02*
X59000Y-41850D01*
X59000Y-41850D02*
X59700Y-41850D01*
X59700Y-41850D02*
X59700Y-42150D01*
X59700Y-42150D02*
X59000Y-42150D01*
X59000Y-41750D02*
X59000Y-41450D01*
X59000Y-41450D02*
X59700Y-41450D01*
X59700Y-41450D02*
X59700Y-41750D01*
X59700Y-41750D02*
X59000Y-41750D01*
X47000Y-29900D02*
X47000Y-30200D01*
X47000Y-30200D02*
X46300Y-30200D01*
X46300Y-30200D02*
X46300Y-29900D01*
X46300Y-29900D02*
X47000Y-29900D01*
X51925Y-29975D02*
X51925Y-29675D01*
X51925Y-29675D02*
X52625Y-29675D01*
X52625Y-29675D02*
X52625Y-29975D01*
X52625Y-29975D02*
X51925Y-29975D01*
X50525Y-24075D02*
X50825Y-24075D01*
X50825Y-24075D02*
X50825Y-24775D01*
X50825Y-24775D02*
X50525Y-24775D01*
X50525Y-24775D02*
X50525Y-24075D01*
X50075Y-29575D02*
X49775Y-29575D01*
X49775Y-29575D02*
X49775Y-28875D01*
X49775Y-28875D02*
X50075Y-28875D01*
X50075Y-28875D02*
X50075Y-29575D01*
X52175Y-30775D02*
X51875Y-30775D01*
X51875Y-30775D02*
X51875Y-30075D01*
X51875Y-30075D02*
X52175Y-30075D01*
X52175Y-30075D02*
X52175Y-30775D01*
X52675Y-30775D02*
X52375Y-30775D01*
X52375Y-30775D02*
X52375Y-30075D01*
X52375Y-30075D02*
X52675Y-30075D01*
X52675Y-30075D02*
X52675Y-30775D01*
X53175Y-30775D02*
X52875Y-30775D01*
X52875Y-30775D02*
X52875Y-30075D01*
X52875Y-30075D02*
X53175Y-30075D01*
X53175Y-30075D02*
X53175Y-30775D01*
X53675Y-30775D02*
X53375Y-30775D01*
X53375Y-30775D02*
X53375Y-30075D01*
X53375Y-30075D02*
X53675Y-30075D01*
X53675Y-30075D02*
X53675Y-30775D01*
X50125Y-24075D02*
X50425Y-24075D01*
X50425Y-24075D02*
X50425Y-24775D01*
X50425Y-24775D02*
X50125Y-24775D01*
X50125Y-24775D02*
X50125Y-24075D01*
X49075Y-28075D02*
X49375Y-28075D01*
X49375Y-28075D02*
X49375Y-28775D01*
X49375Y-28775D02*
X49075Y-28775D01*
X49075Y-28775D02*
X49075Y-28075D01*
X44950Y-30050D02*
X44950Y-29750D01*
X44950Y-29750D02*
X45650Y-29750D01*
X45650Y-29750D02*
X45650Y-30050D01*
X45650Y-30050D02*
X44950Y-30050D01*
X47875Y-28075D02*
X48175Y-28075D01*
X48175Y-28075D02*
X48175Y-28775D01*
X48175Y-28775D02*
X47875Y-28775D01*
X47875Y-28775D02*
X47875Y-28075D01*
X47250Y-28550D02*
X47550Y-28550D01*
X47550Y-28550D02*
X47550Y-29250D01*
X47550Y-29250D02*
X47250Y-29250D01*
X47250Y-29250D02*
X47250Y-28550D01*
X46850Y-28200D02*
X46850Y-27900D01*
X46850Y-27900D02*
X47550Y-27900D01*
X47550Y-27900D02*
X47550Y-28200D01*
X47550Y-28200D02*
X46850Y-28200D01*
X48400Y-32150D02*
X48400Y-32450D01*
X48400Y-32450D02*
X47700Y-32450D01*
X47700Y-32450D02*
X47700Y-32150D01*
X47700Y-32150D02*
X48400Y-32150D01*
X47500Y-32950D02*
X47500Y-33250D01*
X47500Y-33250D02*
X46800Y-33250D01*
X46800Y-33250D02*
X46800Y-32950D01*
X46800Y-32950D02*
X47500Y-32950D01*
X51325Y-24075D02*
X51625Y-24075D01*
X51625Y-24075D02*
X51625Y-24775D01*
X51625Y-24775D02*
X51325Y-24775D01*
X51325Y-24775D02*
X51325Y-24075D01*
X48550Y-30950D02*
X48550Y-31250D01*
X48550Y-31250D02*
X47850Y-31250D01*
X47850Y-31250D02*
X47850Y-30950D01*
X47850Y-30950D02*
X48550Y-30950D01*
X49825Y-34350D02*
X49825Y-34050D01*
X49825Y-34050D02*
X50525Y-34050D01*
X50525Y-34050D02*
X50525Y-34350D01*
X50525Y-34350D02*
X49825Y-34350D01*
X49825Y-34750D02*
X49825Y-34450D01*
X49825Y-34450D02*
X50525Y-34450D01*
X50525Y-34450D02*
X50525Y-34750D01*
X50525Y-34750D02*
X49825Y-34750D01*
X72550Y-22550D02*
X72550Y-22850D01*
X72550Y-22850D02*
X71850Y-22850D01*
X71850Y-22850D02*
X71850Y-22550D01*
X71850Y-22550D02*
X72550Y-22550D01*
X65400Y-33000D02*
X65400Y-32700D01*
X65400Y-32700D02*
X66100Y-32700D01*
X66100Y-32700D02*
X66100Y-33000D01*
X66100Y-33000D02*
X65400Y-33000D01*
X64050Y-35500D02*
X64050Y-35200D01*
X64050Y-35200D02*
X64750Y-35200D01*
X64750Y-35200D02*
X64750Y-35500D01*
X64750Y-35500D02*
X64050Y-35500D01*
X64050Y-39050D02*
X64050Y-38750D01*
X64050Y-38750D02*
X64750Y-38750D01*
X64750Y-38750D02*
X64750Y-39050D01*
X64750Y-39050D02*
X64050Y-39050D01*
X64400Y-41000D02*
X64700Y-41000D01*
X64700Y-41000D02*
X64700Y-41700D01*
X64700Y-41700D02*
X64400Y-41700D01*
X64400Y-41700D02*
X64400Y-41000D01*
X67690Y-43970D02*
X67390Y-43970D01*
X67390Y-43970D02*
X67390Y-43270D01*
X67390Y-43270D02*
X67690Y-43270D01*
X67690Y-43270D02*
X67690Y-43970D01*
X70850Y-43950D02*
X70550Y-43950D01*
X70550Y-43950D02*
X70550Y-43250D01*
X70550Y-43250D02*
X70850Y-43250D01*
X70850Y-43250D02*
X70850Y-43950D01*
X73400Y-43950D02*
X73100Y-43950D01*
X73100Y-43950D02*
X73100Y-43250D01*
X73100Y-43250D02*
X73400Y-43250D01*
X73400Y-43250D02*
X73400Y-43950D01*
X75950Y-40900D02*
X75950Y-41200D01*
X75950Y-41200D02*
X75250Y-41200D01*
X75250Y-41200D02*
X75250Y-40900D01*
X75250Y-40900D02*
X75950Y-40900D01*
X75950Y-37750D02*
X75950Y-38050D01*
X75950Y-38050D02*
X75250Y-38050D01*
X75250Y-38050D02*
X75250Y-37750D01*
X75250Y-37750D02*
X75950Y-37750D01*
X75950Y-36950D02*
X75950Y-37250D01*
X75950Y-37250D02*
X75250Y-37250D01*
X75250Y-37250D02*
X75250Y-36950D01*
X75250Y-36950D02*
X75950Y-36950D01*
X75950Y-35800D02*
X75950Y-36100D01*
X75950Y-36100D02*
X75250Y-36100D01*
X75250Y-36100D02*
X75250Y-35800D01*
X75250Y-35800D02*
X75950Y-35800D01*
X49075Y-25375D02*
X49375Y-25375D01*
X49375Y-25375D02*
X49375Y-26075D01*
X49375Y-26075D02*
X49075Y-26075D01*
X49075Y-26075D02*
X49075Y-25375D01*
X53375Y-31525D02*
X53675Y-31525D01*
X53675Y-31525D02*
X53675Y-32225D01*
X53675Y-32225D02*
X53375Y-32225D01*
X53375Y-32225D02*
X53375Y-31525D01*
X53775Y-31525D02*
X54075Y-31525D01*
X54075Y-31525D02*
X54075Y-32225D01*
X54075Y-32225D02*
X53775Y-32225D01*
X53775Y-32225D02*
X53775Y-31525D01*
X52225Y-31525D02*
X52525Y-31525D01*
X52525Y-31525D02*
X52525Y-32225D01*
X52525Y-32225D02*
X52225Y-32225D01*
X52225Y-32225D02*
X52225Y-31525D01*
X52625Y-31525D02*
X52925Y-31525D01*
X52925Y-31525D02*
X52925Y-32225D01*
X52925Y-32225D02*
X52625Y-32225D01*
X52625Y-32225D02*
X52625Y-31525D01*
X51425Y-31525D02*
X51725Y-31525D01*
X51725Y-31525D02*
X51725Y-32225D01*
X51725Y-32225D02*
X51425Y-32225D01*
X51425Y-32225D02*
X51425Y-31525D01*
X51025Y-31525D02*
X51325Y-31525D01*
X51325Y-31525D02*
X51325Y-32225D01*
X51325Y-32225D02*
X51025Y-32225D01*
X51025Y-32225D02*
X51025Y-31525D01*
X53225Y-37025D02*
X52925Y-37025D01*
X52925Y-37025D02*
X52925Y-36325D01*
X52925Y-36325D02*
X53225Y-36325D01*
X53225Y-36325D02*
X53225Y-37025D01*
X53625Y-37025D02*
X53325Y-37025D01*
X53325Y-37025D02*
X53325Y-36325D01*
X53325Y-36325D02*
X53625Y-36325D01*
X53625Y-36325D02*
X53625Y-37025D01*
X55350Y-34900D02*
X55350Y-35200D01*
X55350Y-35200D02*
X54650Y-35200D01*
X54650Y-35200D02*
X54650Y-34900D01*
X54650Y-34900D02*
X55350Y-34900D01*
X54950Y-36050D02*
X54650Y-36050D01*
X54650Y-36050D02*
X54650Y-35350D01*
X54650Y-35350D02*
X54950Y-35350D01*
X54950Y-35350D02*
X54950Y-36050D01*
X55600Y-33850D02*
X55600Y-34150D01*
X55600Y-34150D02*
X54900Y-34150D01*
X54900Y-34150D02*
X54900Y-33850D01*
X54900Y-33850D02*
X55600Y-33850D01*
X55600Y-34250D02*
X55600Y-34550D01*
X55600Y-34550D02*
X54900Y-34550D01*
X54900Y-34550D02*
X54900Y-34250D01*
X54900Y-34250D02*
X55600Y-34250D01*
X55500Y-33000D02*
X55500Y-33300D01*
X55500Y-33300D02*
X54800Y-33300D01*
X54800Y-33300D02*
X54800Y-33000D01*
X54800Y-33000D02*
X55500Y-33000D01*
X52125Y-24475D02*
X52425Y-24475D01*
X52425Y-24475D02*
X52425Y-25175D01*
X52425Y-25175D02*
X52125Y-25175D01*
X52125Y-25175D02*
X52125Y-24475D01*
X50925Y-24475D02*
X51225Y-24475D01*
X51225Y-24475D02*
X51225Y-25175D01*
X51225Y-25175D02*
X50925Y-25175D01*
X50925Y-25175D02*
X50925Y-24475D01*
X75950Y-35000D02*
X75950Y-35300D01*
X75950Y-35300D02*
X75250Y-35300D01*
X75250Y-35300D02*
X75250Y-35000D01*
X75250Y-35000D02*
X75950Y-35000D01*
X48675Y-27175D02*
X48675Y-26875D01*
X48675Y-26875D02*
X49375Y-26875D01*
X49375Y-26875D02*
X49375Y-27175D01*
X49375Y-27175D02*
X48675Y-27175D01*
X48375Y-27575D02*
X48375Y-27275D01*
X48375Y-27275D02*
X49075Y-27275D01*
X49075Y-27275D02*
X49075Y-27575D01*
X49075Y-27575D02*
X48375Y-27575D01*
X48675Y-27975D02*
X48675Y-27675D01*
X48675Y-27675D02*
X49375Y-27675D01*
X49375Y-27675D02*
X49375Y-27975D01*
X49375Y-27975D02*
X48675Y-27975D01*
X50875Y-29575D02*
X50575Y-29575D01*
X50575Y-29575D02*
X50575Y-28875D01*
X50575Y-28875D02*
X50875Y-28875D01*
X50875Y-28875D02*
X50875Y-29575D01*
X50475Y-29575D02*
X50175Y-29575D01*
X50175Y-29575D02*
X50175Y-28875D01*
X50175Y-28875D02*
X50475Y-28875D01*
X50475Y-28875D02*
X50475Y-29575D01*
X53775Y-27575D02*
X53775Y-27875D01*
X53775Y-27875D02*
X53075Y-27875D01*
X53075Y-27875D02*
X53075Y-27575D01*
X53075Y-27575D02*
X53775Y-27575D01*
X53775Y-27175D02*
X53775Y-27475D01*
X53775Y-27475D02*
X53075Y-27475D01*
X53075Y-27475D02*
X53075Y-27175D01*
X53075Y-27175D02*
X53775Y-27175D01*
X53775Y-26225D02*
X53775Y-26525D01*
X53775Y-26525D02*
X53075Y-26525D01*
X53075Y-26525D02*
X53075Y-26225D01*
X53075Y-26225D02*
X53775Y-26225D01*
X54975Y-29975D02*
X54975Y-29675D01*
X54975Y-29675D02*
X55675Y-29675D01*
X55675Y-29675D02*
X55675Y-29975D01*
X55675Y-29975D02*
X54975Y-29975D01*
X53975Y-29975D02*
X53975Y-29675D01*
X53975Y-29675D02*
X54675Y-29675D01*
X54675Y-29675D02*
X54675Y-29975D01*
X54675Y-29975D02*
X53975Y-29975D01*
X54975Y-31525D02*
X55275Y-31525D01*
X55275Y-31525D02*
X55275Y-32225D01*
X55275Y-32225D02*
X54975Y-32225D01*
X54975Y-32225D02*
X54975Y-31525D01*
X54575Y-31525D02*
X54875Y-31525D01*
X54875Y-31525D02*
X54875Y-32225D01*
X54875Y-32225D02*
X54575Y-32225D01*
X54575Y-32225D02*
X54575Y-31525D01*
X51725Y-24075D02*
X52025Y-24075D01*
X52025Y-24075D02*
X52025Y-24775D01*
X52025Y-24775D02*
X51725Y-24775D01*
X51725Y-24775D02*
X51725Y-24075D01*
X54175Y-31525D02*
X54475Y-31525D01*
X54475Y-31525D02*
X54475Y-32225D01*
X54475Y-32225D02*
X54175Y-32225D01*
X54175Y-32225D02*
X54175Y-31525D01*
X52925Y-29975D02*
X52925Y-29675D01*
X52925Y-29675D02*
X53625Y-29675D01*
X53625Y-29675D02*
X53625Y-29975D01*
X53625Y-29975D02*
X52925Y-29975D01*
X33350Y-38150D02*
X33350Y-37850D01*
X33350Y-37850D02*
X34050Y-37850D01*
X34050Y-37850D02*
X34050Y-38150D01*
X34050Y-38150D02*
X33350Y-38150D01*
X38260Y-29280D02*
X38260Y-28980D01*
X38260Y-28980D02*
X38960Y-28980D01*
X38960Y-28980D02*
X38960Y-29280D01*
X38960Y-29280D02*
X38260Y-29280D01*
X33750Y-39000D02*
X33750Y-39300D01*
X33750Y-39300D02*
X33050Y-39300D01*
X33050Y-39300D02*
X33050Y-39000D01*
X33050Y-39000D02*
X33750Y-39000D01*
X33750Y-39850D02*
X33750Y-40150D01*
X33750Y-40150D02*
X33050Y-40150D01*
X33050Y-40150D02*
X33050Y-39850D01*
X33050Y-39850D02*
X33750Y-39850D01*
X34250Y-41650D02*
X33950Y-41650D01*
X33950Y-41650D02*
X33950Y-40950D01*
X33950Y-40950D02*
X34250Y-40950D01*
X34250Y-40950D02*
X34250Y-41650D01*
X34830Y-42020D02*
X34530Y-42020D01*
X34530Y-42020D02*
X34530Y-41320D01*
X34530Y-41320D02*
X34830Y-41320D01*
X34830Y-41320D02*
X34830Y-42020D01*
X36000Y-40650D02*
X36000Y-40950D01*
X36000Y-40950D02*
X35300Y-40950D01*
X35300Y-40950D02*
X35300Y-40650D01*
X35300Y-40650D02*
X36000Y-40650D01*
X35820Y-38990D02*
X36120Y-38990D01*
X36120Y-38990D02*
X36120Y-39690D01*
X36120Y-39690D02*
X35820Y-39690D01*
X35820Y-39690D02*
X35820Y-38990D01*
X35800Y-37250D02*
X35800Y-37550D01*
X35800Y-37550D02*
X35100Y-37550D01*
X35100Y-37550D02*
X35100Y-37250D01*
X35100Y-37250D02*
X35800Y-37250D01*
X37650Y-38950D02*
X37650Y-39250D01*
X37650Y-39250D02*
X36950Y-39250D01*
X36950Y-39250D02*
X36950Y-38950D01*
X36950Y-38950D02*
X37650Y-38950D01*
X33950Y-39300D02*
X34250Y-39300D01*
X34250Y-39300D02*
X34250Y-40000D01*
X34250Y-40000D02*
X33950Y-40000D01*
X33950Y-40000D02*
X33950Y-39300D01*
X37900Y-37200D02*
X37900Y-37500D01*
X37900Y-37500D02*
X37200Y-37500D01*
X37200Y-37500D02*
X37200Y-37200D01*
X37200Y-37200D02*
X37900Y-37200D01*
X33500Y-22700D02*
X33500Y-22400D01*
X33500Y-22400D02*
X34200Y-22400D01*
X34200Y-22400D02*
X34200Y-22700D01*
X34200Y-22700D02*
X33500Y-22700D01*
X37900Y-38050D02*
X37900Y-38350D01*
X37900Y-38350D02*
X37200Y-38350D01*
X37200Y-38350D02*
X37200Y-38050D01*
X37200Y-38050D02*
X37900Y-38050D01*
X37500Y-22800D02*
X37500Y-23100D01*
X37500Y-23100D02*
X36800Y-23100D01*
X36800Y-23100D02*
X36800Y-22800D01*
X36800Y-22800D02*
X37500Y-22800D01*
X33900Y-35500D02*
X34200Y-35500D01*
X34200Y-35500D02*
X34200Y-36200D01*
X34200Y-36200D02*
X33900Y-36200D01*
X33900Y-36200D02*
X33900Y-35500D01*
X38750Y-48800D02*
X38750Y-48500D01*
X38750Y-48500D02*
X39450Y-48500D01*
X39450Y-48500D02*
X39450Y-48800D01*
X39450Y-48800D02*
X38750Y-48800D01*
X36000Y-23000D02*
X36000Y-23300D01*
X36000Y-23300D02*
X35300Y-23300D01*
X35300Y-23300D02*
X35300Y-23000D01*
X35300Y-23000D02*
X36000Y-23000D01*
X36050Y-37850D02*
X36050Y-38150D01*
X36050Y-38150D02*
X35350Y-38150D01*
X35350Y-38150D02*
X35350Y-37850D01*
X35350Y-37850D02*
X36050Y-37850D01*
X37900Y-23900D02*
X37900Y-24200D01*
X37900Y-24200D02*
X37200Y-24200D01*
X37200Y-24200D02*
X37200Y-23900D01*
X37200Y-23900D02*
X37900Y-23900D01*
X48250Y-21950D02*
X48250Y-22250D01*
X48250Y-22250D02*
X47550Y-22250D01*
X47550Y-22250D02*
X47550Y-21950D01*
X47550Y-21950D02*
X48250Y-21950D01*
X35600Y-22700D02*
X35600Y-22400D01*
X35600Y-22400D02*
X36300Y-22400D01*
X36300Y-22400D02*
X36300Y-22700D01*
X36300Y-22700D02*
X35600Y-22700D01*
X37460Y-29280D02*
X37460Y-28980D01*
X37460Y-28980D02*
X38160Y-28980D01*
X38160Y-28980D02*
X38160Y-29280D01*
X38160Y-29280D02*
X37460Y-29280D01*
X36350Y-24800D02*
X36650Y-24800D01*
X36650Y-24800D02*
X36650Y-25500D01*
X36650Y-25500D02*
X36350Y-25500D01*
X36350Y-25500D02*
X36350Y-24800D01*
X36150Y-37400D02*
X36150Y-37100D01*
X36150Y-37100D02*
X36850Y-37100D01*
X36850Y-37100D02*
X36850Y-37400D01*
X36850Y-37400D02*
X36150Y-37400D01*
X34350Y-32600D02*
X34650Y-32600D01*
X34650Y-32600D02*
X34650Y-33300D01*
X34650Y-33300D02*
X34350Y-33300D01*
X34350Y-33300D02*
X34350Y-32600D01*
X37100Y-25500D02*
X36800Y-25500D01*
X36800Y-25500D02*
X36800Y-24800D01*
X36800Y-24800D02*
X37100Y-24800D01*
X37100Y-24800D02*
X37100Y-25500D01*
X39600Y-24300D02*
X39900Y-24300D01*
X39900Y-24300D02*
X39900Y-25000D01*
X39900Y-25000D02*
X39600Y-25000D01*
X39600Y-25000D02*
X39600Y-24300D01*
X34700Y-34600D02*
X34700Y-34900D01*
X34700Y-34900D02*
X34000Y-34900D01*
X34000Y-34900D02*
X34000Y-34600D01*
X34000Y-34600D02*
X34700Y-34600D01*
X37200Y-37050D02*
X37200Y-36750D01*
X37200Y-36750D02*
X37900Y-36750D01*
X37900Y-36750D02*
X37900Y-37050D01*
X37900Y-37050D02*
X37200Y-37050D01*
X34700Y-33900D02*
X34700Y-34200D01*
X34700Y-34200D02*
X34000Y-34200D01*
X34000Y-34200D02*
X34000Y-33900D01*
X34000Y-33900D02*
X34700Y-33900D01*
X35350Y-27100D02*
X35050Y-27100D01*
X35050Y-27100D02*
X35050Y-26400D01*
X35050Y-26400D02*
X35350Y-26400D01*
X35350Y-26400D02*
X35350Y-27100D01*
X72000Y-30800D02*
X72000Y-31100D01*
X72000Y-31100D02*
X71300Y-31100D01*
X71300Y-31100D02*
X71300Y-30800D01*
X71300Y-30800D02*
X72000Y-30800D01*
X73700Y-32450D02*
X73700Y-32750D01*
X73700Y-32750D02*
X73000Y-32750D01*
X73000Y-32750D02*
X73000Y-32450D01*
X73000Y-32450D02*
X73700Y-32450D01*
X68600Y-31900D02*
X68900Y-31900D01*
X68900Y-31900D02*
X68900Y-32600D01*
X68900Y-32600D02*
X68600Y-32600D01*
X68600Y-32600D02*
X68600Y-31900D01*
X70200Y-31950D02*
X70500Y-31950D01*
X70500Y-31950D02*
X70500Y-32650D01*
X70500Y-32650D02*
X70200Y-32650D01*
X70200Y-32650D02*
X70200Y-31950D01*
X80650Y-43750D02*
X80650Y-43450D01*
X80650Y-43450D02*
X81350Y-43450D01*
X81350Y-43450D02*
X81350Y-43750D01*
X81350Y-43750D02*
X80650Y-43750D01*
X72300Y-24600D02*
X72600Y-24600D01*
X72600Y-24600D02*
X72600Y-25300D01*
X72600Y-25300D02*
X72300Y-25300D01*
X72300Y-25300D02*
X72300Y-24600D01*
X58450Y-43300D02*
X58150Y-43300D01*
X58150Y-43300D02*
X58150Y-42600D01*
X58150Y-42600D02*
X58450Y-42600D01*
X58450Y-42600D02*
X58450Y-43300D01*
X58250Y-39750D02*
X58550Y-39750D01*
X58550Y-39750D02*
X58550Y-40450D01*
X58550Y-40450D02*
X58250Y-40450D01*
X58250Y-40450D02*
X58250Y-39750D01*
X55450Y-37650D02*
X55750Y-37650D01*
X55750Y-37650D02*
X55750Y-38350D01*
X55750Y-38350D02*
X55450Y-38350D01*
X55450Y-38350D02*
X55450Y-37650D01*
X50050Y-38750D02*
X50350Y-38750D01*
X50350Y-38750D02*
X50350Y-39450D01*
X50350Y-39450D02*
X50050Y-39450D01*
X50050Y-39450D02*
X50050Y-38750D01*
X52850Y-47350D02*
X52550Y-47350D01*
X52550Y-47350D02*
X52550Y-46650D01*
X52550Y-46650D02*
X52850Y-46650D01*
X52850Y-46650D02*
X52850Y-47350D01*
X48850Y-42650D02*
X48850Y-42350D01*
X48850Y-42350D02*
X49550Y-42350D01*
X49550Y-42350D02*
X49550Y-42650D01*
X49550Y-42650D02*
X48850Y-42650D01*
X51450Y-47350D02*
X51150Y-47350D01*
X51150Y-47350D02*
X51150Y-46650D01*
X51150Y-46650D02*
X51450Y-46650D01*
X51450Y-46650D02*
X51450Y-47350D01*
X70550Y-30600D02*
X70250Y-30600D01*
X70250Y-30600D02*
X70250Y-29900D01*
X70250Y-29900D02*
X70550Y-29900D01*
X70550Y-29900D02*
X70550Y-30600D01*
X70650Y-29900D02*
X70950Y-29900D01*
X70950Y-29900D02*
X70950Y-30600D01*
X70950Y-30600D02*
X70650Y-30600D01*
X70650Y-30600D02*
X70650Y-29900D01*
X72400Y-31800D02*
X72700Y-31800D01*
X72700Y-31800D02*
X72700Y-32500D01*
X72700Y-32500D02*
X72400Y-32500D01*
X72400Y-32500D02*
X72400Y-31800D01*
X35050Y-26100D02*
X35050Y-25800D01*
X35050Y-25800D02*
X35750Y-25800D01*
X35750Y-25800D02*
X35750Y-26100D01*
X35750Y-26100D02*
X35050Y-26100D01*
X57100Y-24750D02*
X57100Y-25050D01*
X57100Y-25050D02*
X56400Y-25050D01*
X56400Y-25050D02*
X56400Y-24750D01*
X56400Y-24750D02*
X57100Y-24750D01*
X35300Y-41650D02*
X35300Y-41350D01*
X35300Y-41350D02*
X36000Y-41350D01*
X36000Y-41350D02*
X36000Y-41650D01*
X36000Y-41650D02*
X35300Y-41650D01*
X38650Y-41500D02*
X38650Y-41800D01*
X38650Y-41800D02*
X37950Y-41800D01*
X37950Y-41800D02*
X37950Y-41500D01*
X37950Y-41500D02*
X38650Y-41500D01*
X36450Y-41850D02*
X36450Y-42150D01*
X36450Y-42150D02*
X35750Y-42150D01*
X35750Y-42150D02*
X35750Y-41850D01*
X35750Y-41850D02*
X36450Y-41850D01*
X34050Y-37400D02*
X34050Y-37700D01*
X34050Y-37700D02*
X33350Y-37700D01*
X33350Y-37700D02*
X33350Y-37400D01*
X33350Y-37400D02*
X34050Y-37400D01*
X34250Y-42400D02*
X34250Y-42700D01*
X34250Y-42700D02*
X33550Y-42700D01*
X33550Y-42700D02*
X33550Y-42400D01*
X33550Y-42400D02*
X34250Y-42400D01*
X42750Y-48800D02*
X42750Y-48500D01*
X42750Y-48500D02*
X43450Y-48500D01*
X43450Y-48500D02*
X43450Y-48800D01*
X43450Y-48800D02*
X42750Y-48800D01*
X40400Y-27650D02*
X40400Y-27950D01*
X40400Y-27950D02*
X39700Y-27950D01*
X39700Y-27950D02*
X39700Y-27650D01*
X39700Y-27650D02*
X40400Y-27650D01*
X39800Y-25850D02*
X40100Y-25850D01*
X40100Y-25850D02*
X40100Y-26550D01*
X40100Y-26550D02*
X39800Y-26550D01*
X39800Y-26550D02*
X39800Y-25850D01*
X38700Y-25250D02*
X38700Y-25550D01*
X38700Y-25550D02*
X38000Y-25550D01*
X38000Y-25550D02*
X38000Y-25250D01*
X38000Y-25250D02*
X38700Y-25250D01*
X51325Y-23975D02*
X51325Y-23675D01*
X51325Y-23675D02*
X52025Y-23675D01*
X52025Y-23675D02*
X52025Y-23975D01*
X52025Y-23975D02*
X51325Y-23975D01*
X51325Y-25175D02*
X51325Y-24875D01*
X51325Y-24875D02*
X52025Y-24875D01*
X52025Y-24875D02*
X52025Y-25175D01*
X52025Y-25175D02*
X51325Y-25175D01*
X50125Y-23975D02*
X50125Y-23675D01*
X50125Y-23675D02*
X50825Y-23675D01*
X50825Y-23675D02*
X50825Y-23975D01*
X50825Y-23975D02*
X50125Y-23975D01*
X50125Y-25175D02*
X50125Y-24875D01*
X50125Y-24875D02*
X50825Y-24875D01*
X50825Y-24875D02*
X50825Y-25175D01*
X50825Y-25175D02*
X50125Y-25175D01*
G54D17*
X41900Y-38100D02*
X45100Y-38100D01*
X45100Y-38100D02*
X45100Y-34900D01*
X45100Y-34900D02*
X41900Y-34900D01*
X41900Y-34900D02*
X41900Y-38100D01*
X36600Y-42900D02*
X33400Y-42900D01*
X33400Y-42900D02*
X33400Y-46100D01*
X33400Y-46100D02*
X36600Y-46100D01*
X36600Y-46100D02*
X36600Y-42900D01*
X41900Y-44100D02*
X45100Y-44100D01*
X45100Y-44100D02*
X45100Y-40900D01*
X45100Y-40900D02*
X41900Y-40900D01*
X41900Y-40900D02*
X41900Y-44100D01*
G54D11*
X34250Y-41750D02*
X34250Y-42050D01*
X34250Y-42050D02*
X33550Y-42050D01*
X33550Y-42050D02*
X33550Y-41750D01*
X33550Y-41750D02*
X34250Y-41750D01*
X48000Y-33250D02*
X48000Y-32950D01*
X48000Y-32950D02*
X48700Y-32950D01*
X48700Y-32950D02*
X48700Y-33250D01*
X48700Y-33250D02*
X48000Y-33250D01*
X47850Y-32850D02*
X47850Y-32550D01*
X47850Y-32550D02*
X48550Y-32550D01*
X48550Y-32550D02*
X48550Y-32850D01*
X48550Y-32850D02*
X47850Y-32850D01*
X47050Y-33350D02*
X47350Y-33350D01*
X47350Y-33350D02*
X47350Y-34050D01*
X47350Y-34050D02*
X47050Y-34050D01*
X47050Y-34050D02*
X47050Y-33350D01*
X46650Y-33350D02*
X46950Y-33350D01*
X46950Y-33350D02*
X46950Y-34050D01*
X46950Y-34050D02*
X46650Y-34050D01*
X46650Y-34050D02*
X46650Y-33350D01*
X46200Y-29600D02*
X45900Y-29600D01*
X45900Y-29600D02*
X45900Y-28900D01*
X45900Y-28900D02*
X46200Y-28900D01*
X46200Y-28900D02*
X46200Y-29600D01*
X46600Y-29800D02*
X46300Y-29800D01*
X46300Y-29800D02*
X46300Y-29100D01*
X46300Y-29100D02*
X46600Y-29100D01*
X46600Y-29100D02*
X46600Y-29800D01*
X47850Y-30450D02*
X47850Y-30150D01*
X47850Y-30150D02*
X48550Y-30150D01*
X48550Y-30150D02*
X48550Y-30450D01*
X48550Y-30450D02*
X47850Y-30450D01*
X47850Y-30850D02*
X47850Y-30550D01*
X47850Y-30550D02*
X48550Y-30550D01*
X48550Y-30550D02*
X48550Y-30850D01*
X48550Y-30850D02*
X47850Y-30850D01*
X49300Y-35000D02*
X49600Y-35000D01*
X49600Y-35000D02*
X49600Y-35700D01*
X49600Y-35700D02*
X49300Y-35700D01*
X49300Y-35700D02*
X49300Y-35000D01*
X49700Y-35000D02*
X50000Y-35000D01*
X50000Y-35000D02*
X50000Y-35700D01*
X50000Y-35700D02*
X49700Y-35700D01*
X49700Y-35700D02*
X49700Y-35000D01*
X51000Y-46150D02*
X51000Y-46450D01*
X51000Y-46450D02*
X50300Y-46450D01*
X50300Y-46450D02*
X50300Y-46150D01*
X50300Y-46150D02*
X51000Y-46150D01*
X50300Y-46900D02*
X50300Y-46600D01*
X50300Y-46600D02*
X51000Y-46600D01*
X51000Y-46600D02*
X51000Y-46900D01*
X51000Y-46900D02*
X50300Y-46900D01*
X43300Y-25550D02*
X43600Y-25550D01*
X43600Y-25550D02*
X43600Y-26250D01*
X43600Y-26250D02*
X43300Y-26250D01*
X43300Y-26250D02*
X43300Y-25550D01*
X58750Y-23150D02*
X58750Y-23450D01*
X58750Y-23450D02*
X58050Y-23450D01*
X58050Y-23450D02*
X58050Y-23150D01*
X58050Y-23150D02*
X58750Y-23150D01*
X61650Y-25450D02*
X61650Y-25150D01*
X61650Y-25150D02*
X62350Y-25150D01*
X62350Y-25150D02*
X62350Y-25450D01*
X62350Y-25450D02*
X61650Y-25450D01*
X61650Y-23450D02*
X61650Y-23150D01*
X61650Y-23150D02*
X62350Y-23150D01*
X62350Y-23150D02*
X62350Y-23450D01*
X62350Y-23450D02*
X61650Y-23450D01*
X61650Y-23950D02*
X61650Y-23650D01*
X61650Y-23650D02*
X62350Y-23650D01*
X62350Y-23650D02*
X62350Y-23950D01*
X62350Y-23950D02*
X61650Y-23950D01*
X61650Y-25950D02*
X61650Y-25650D01*
X61650Y-25650D02*
X62350Y-25650D01*
X62350Y-25650D02*
X62350Y-25950D01*
X62350Y-25950D02*
X61650Y-25950D01*
X43350Y-39850D02*
X43650Y-39850D01*
X43650Y-39850D02*
X43650Y-40550D01*
X43650Y-40550D02*
X43350Y-40550D01*
X43350Y-40550D02*
X43350Y-39850D01*
X42500Y-39650D02*
X42500Y-39350D01*
X42500Y-39350D02*
X43200Y-39350D01*
X43200Y-39350D02*
X43200Y-39650D01*
X43200Y-39650D02*
X42500Y-39650D01*
X45800Y-36100D02*
X45500Y-36100D01*
X45500Y-36100D02*
X45500Y-35400D01*
X45500Y-35400D02*
X45800Y-35400D01*
X45800Y-35400D02*
X45800Y-36100D01*
X42350Y-39650D02*
X42050Y-39650D01*
X42050Y-39650D02*
X42050Y-38950D01*
X42050Y-38950D02*
X42350Y-38950D01*
X42350Y-38950D02*
X42350Y-39650D01*
X43350Y-38950D02*
X43650Y-38950D01*
X43650Y-38950D02*
X43650Y-39650D01*
X43650Y-39650D02*
X43350Y-39650D01*
X43350Y-39650D02*
X43350Y-38950D01*
X41900Y-40100D02*
X41600Y-40100D01*
X41600Y-40100D02*
X41600Y-39400D01*
X41600Y-39400D02*
X41900Y-39400D01*
X41900Y-39400D02*
X41900Y-40100D01*
X45500Y-34450D02*
X45800Y-34450D01*
X45800Y-34450D02*
X45800Y-35150D01*
X45800Y-35150D02*
X45500Y-35150D01*
X45500Y-35150D02*
X45500Y-34450D01*
G54D17*
X54000Y-24500D02*
X54000Y-22500D01*
X54000Y-22500D02*
X55000Y-22500D01*
X55000Y-22500D02*
X55000Y-24500D01*
X55250Y-23500D02*
X53750Y-23500D01*
X53750Y-23500D02*
X53750Y-24750D01*
X53750Y-24750D02*
X55250Y-24750D01*
X54000Y-24500D02*
X55000Y-24500D01*
X55250Y-24750D02*
X55250Y-23500D01*
X77000Y-24500D02*
X77000Y-22500D01*
X77000Y-22500D02*
X78000Y-22500D01*
X78000Y-22500D02*
X78000Y-24500D01*
X78250Y-23500D02*
X76750Y-23500D01*
X76750Y-23500D02*
X76750Y-24750D01*
X76750Y-24750D02*
X78250Y-24750D01*
X77000Y-24500D02*
X78000Y-24500D01*
X78250Y-24750D02*
X78250Y-23500D01*
X77000Y-27500D02*
X77000Y-25500D01*
X77000Y-25500D02*
X78000Y-25500D01*
X78000Y-25500D02*
X78000Y-27500D01*
X78250Y-26500D02*
X76750Y-26500D01*
X76750Y-26500D02*
X76750Y-27750D01*
X76750Y-27750D02*
X78250Y-27750D01*
X77000Y-27500D02*
X78000Y-27500D01*
X78250Y-27750D02*
X78250Y-26500D01*
X42000Y-33000D02*
X44000Y-33000D01*
X44000Y-33000D02*
X44000Y-34000D01*
X44000Y-34000D02*
X42000Y-34000D01*
X43000Y-34250D02*
X43000Y-32750D01*
X43000Y-32750D02*
X41750Y-32750D01*
X41750Y-32750D02*
X41750Y-34250D01*
X42000Y-33000D02*
X42000Y-34000D01*
X41750Y-34250D02*
X43000Y-34250D01*
G54D18*
X43291Y-24464D02*
G75*
G03X43291Y-24464I-55J0D01*
G74*
G01*
X42803Y-24897D02*
X42803Y-24503D01*
X42803Y-24503D02*
X43197Y-24503D01*
X43197Y-24503D02*
X43197Y-24897D01*
X43197Y-24897D02*
X42803Y-24897D01*
X41319Y-24936D02*
G75*
G03X41319Y-24936I-55J0D01*
G74*
G01*
X41697Y-24503D02*
X41697Y-24897D01*
X41697Y-24897D02*
X41303Y-24897D01*
X41303Y-24897D02*
X41303Y-24503D01*
X41303Y-24503D02*
X41697Y-24503D01*
X36641Y-23414D02*
G75*
G03X36641Y-23414I-55J0D01*
G74*
G01*
X36153Y-23847D02*
X36153Y-23453D01*
X36153Y-23453D02*
X36547Y-23453D01*
X36547Y-23453D02*
X36547Y-23847D01*
X36547Y-23847D02*
X36153Y-23847D01*
X34719Y-22414D02*
G75*
G03X34719Y-22414I-55J0D01*
G74*
G01*
X35097Y-22847D02*
X34703Y-22847D01*
X34703Y-22847D02*
X34703Y-22453D01*
X34703Y-22453D02*
X35097Y-22453D01*
X35097Y-22453D02*
X35097Y-22847D01*
X37841Y-30336D02*
G75*
G03X37841Y-30336I-55J0D01*
G74*
G01*
X37353Y-29903D02*
X37747Y-29903D01*
X37747Y-29903D02*
X37747Y-30297D01*
X37747Y-30297D02*
X37353Y-30297D01*
X37353Y-30297D02*
X37353Y-29903D01*
X36419Y-31364D02*
G75*
G03X36419Y-31364I-55J0D01*
G74*
G01*
X36797Y-31797D02*
X36403Y-31797D01*
X36403Y-31797D02*
X36403Y-31403D01*
X36403Y-31403D02*
X36797Y-31403D01*
X36797Y-31403D02*
X36797Y-31797D01*
X36891Y-34636D02*
G75*
G03X36891Y-34636I-55J0D01*
G74*
G01*
X36403Y-34203D02*
X36797Y-34203D01*
X36797Y-34203D02*
X36797Y-34597D01*
X36797Y-34597D02*
X36403Y-34597D01*
X36403Y-34597D02*
X36403Y-34203D01*
G54D11*
X38606Y-24513D02*
X38606Y-23687D01*
X38094Y-23687D02*
X38094Y-24513D01*
X38378Y-23844D02*
G75*
G03X38378Y-23844I-28J0D01*
G74*
G01*
X38094Y-24513D02*
X38606Y-24513D01*
X38094Y-23687D02*
X38606Y-23687D01*
X40237Y-26456D02*
X41063Y-26456D01*
X41063Y-25944D02*
X40237Y-25944D01*
X40934Y-26200D02*
G75*
G03X40934Y-26200I-28J0D01*
G74*
G01*
X40237Y-25944D02*
X40237Y-26456D01*
X41063Y-25944D02*
X41063Y-26456D01*
X50980Y-30350D02*
G75*
G03X50980Y-30350I-280J0D01*
G74*
G01*
X49055Y-26425D02*
G75*
G03X49055Y-26425I-280J0D01*
G74*
G01*
X44080Y-31800D02*
G75*
G03X44080Y-31800I-280J0D01*
G74*
G01*
X46730Y-36150D02*
G75*
G03X46730Y-36150I-280J0D01*
G74*
G01*
X47630Y-36150D02*
G75*
G03X47630Y-36150I-280J0D01*
G74*
G01*
X69980Y-43050D02*
G75*
G03X69980Y-43050I-280J0D01*
G74*
G01*
X72980Y-44000D02*
G75*
G03X72980Y-44000I-280J0D01*
G74*
G01*
X72980Y-43300D02*
G75*
G03X72980Y-43300I-280J0D01*
G74*
G01*
X74080Y-43300D02*
G75*
G03X74080Y-43300I-280J0D01*
G74*
G01*
X76180Y-39450D02*
G75*
G03X76180Y-39450I-280J0D01*
G74*
G01*
X77030Y-37100D02*
G75*
G03X77030Y-37100I-280J0D01*
G74*
G01*
X53953Y-33055D02*
X53795Y-32897D01*
X53795Y-35653D02*
X53953Y-35653D01*
X53953Y-35653D02*
X53953Y-35495D01*
X51197Y-35495D02*
X51197Y-35653D01*
X51197Y-35653D02*
X51355Y-35653D01*
X51355Y-32897D02*
X51197Y-32897D01*
X51197Y-32897D02*
X51197Y-33055D01*
X65250Y-28980D02*
X62750Y-28980D01*
X65250Y-28980D02*
X65250Y-30320D01*
X62750Y-28980D02*
X62750Y-30320D01*
X62750Y-30320D02*
X65250Y-30320D01*
X73050Y-25940D02*
X74450Y-25940D01*
X74450Y-25940D02*
X74450Y-26660D01*
X74450Y-26660D02*
X73050Y-26660D01*
X73050Y-26660D02*
X73050Y-25940D01*
X73050Y-26790D02*
X74450Y-26790D01*
X74450Y-26790D02*
X74450Y-27510D01*
X74450Y-27510D02*
X73050Y-27510D01*
X73050Y-27510D02*
X73050Y-26790D01*
X74450Y-23210D02*
X73050Y-23210D01*
X73050Y-23210D02*
X73050Y-22490D01*
X73050Y-22490D02*
X74450Y-22490D01*
X74450Y-22490D02*
X74450Y-23210D01*
X74450Y-24060D02*
X73050Y-24060D01*
X73050Y-24060D02*
X73050Y-23340D01*
X73050Y-23340D02*
X74450Y-23340D01*
X74450Y-23340D02*
X74450Y-24060D01*
X56900Y-22560D02*
X55500Y-22560D01*
X55500Y-22560D02*
X55500Y-21840D01*
X55500Y-21840D02*
X56900Y-21840D01*
X56900Y-21840D02*
X56900Y-22560D01*
X56160Y-22700D02*
X56160Y-24100D01*
X56160Y-24100D02*
X55440Y-24100D01*
X55440Y-24100D02*
X55440Y-22700D01*
X55440Y-22700D02*
X56160Y-22700D01*
X57330Y-26850D02*
G75*
G03X57330Y-26850I-280J0D01*
G74*
G01*
X57330Y-29150D02*
G75*
G03X57330Y-29150I-280J0D01*
G74*
G01*
X67780Y-31200D02*
G75*
G03X67780Y-31200I-280J0D01*
G74*
G01*
X67780Y-31900D02*
G75*
G03X67780Y-31900I-280J0D01*
G74*
G01*
X52330Y-38050D02*
G75*
G03X52330Y-38050I-280J0D01*
G74*
G01*
X71440Y-25650D02*
X71440Y-24250D01*
X71440Y-24250D02*
X72160Y-24250D01*
X72160Y-24250D02*
X72160Y-25650D01*
X72160Y-25650D02*
X71440Y-25650D01*
X71310Y-24250D02*
X71310Y-25650D01*
X71310Y-25650D02*
X70590Y-25650D01*
X70590Y-25650D02*
X70590Y-24250D01*
X70590Y-24250D02*
X71310Y-24250D01*
X70144Y-24852D02*
G75*
G03X70144Y-24852I-81J0D01*
G74*
G01*
X69493Y-25245D02*
X69433Y-25245D01*
X69867Y-25245D02*
X69807Y-25245D01*
X69807Y-24655D02*
X69867Y-24655D01*
X69433Y-24655D02*
X69493Y-24655D01*
X69079Y-25245D02*
X69119Y-25245D01*
X69079Y-25245D02*
X69079Y-24655D01*
X69079Y-24655D02*
X69119Y-24655D01*
X70221Y-25245D02*
X70181Y-25245D01*
X70221Y-25245D02*
X70221Y-24655D01*
X70221Y-24655D02*
X70181Y-24655D01*
X37054Y-40394D02*
X37054Y-39606D01*
X37054Y-39606D02*
X37546Y-39606D01*
X37546Y-39606D02*
X37546Y-40394D01*
X37546Y-40394D02*
X37054Y-40394D01*
X37458Y-40197D02*
G75*
G03X37458Y-40197I-40J0D01*
G74*
G01*
X34846Y-38406D02*
X34846Y-39194D01*
X34846Y-39194D02*
X34354Y-39194D01*
X34354Y-39194D02*
X34354Y-38406D01*
X34354Y-38406D02*
X34846Y-38406D01*
X34522Y-38603D02*
G75*
G03X34522Y-38603I-40J0D01*
G74*
G01*
X73159Y-24508D02*
X73159Y-24409D01*
X73455Y-24409D02*
X73159Y-24409D01*
X73159Y-24311D02*
G75*
G03X73159Y-24311I-98J0D01*
G74*
G01*
X74341Y-24508D02*
X74341Y-24409D01*
X74341Y-24409D02*
X74045Y-24409D01*
X74045Y-25591D02*
X74341Y-25591D01*
X74341Y-25591D02*
X74341Y-25492D01*
X73159Y-25492D02*
X73159Y-25591D01*
X73159Y-25591D02*
X73455Y-25591D01*
X46250Y-33120D02*
X46550Y-33120D01*
X46550Y-33120D02*
X46550Y-33820D01*
X46550Y-33820D02*
X46250Y-33820D01*
X46250Y-33820D02*
X46250Y-33120D01*
G54D10*
G36*
X37450Y-49950D02*
X27550Y-49950D01*
X27550Y-47550D01*
X37450Y-47550D01*
X37450Y-49950D01*
X37450Y-49950D01*
G37*
G54D19*
X37450Y-49950D02*
X27550Y-49950D01*
X27550Y-47550D01*
X37450Y-47550D01*
X37450Y-49950D01*
M02*
