G04 (created by PCBNEW (2013-01-23 BZR 3920)-stable) date Mon Jun 10 00:49:26 2013*
%MOIN*%
G04 Gerber Fmt 3.4, Leading zero omitted, Abs format*
%FSLAX34Y34*%
G01*
G70*
G90*
G04 APERTURE LIST*
%ADD10C,2.3622e-06*%
%ADD11C,0.062*%
%ADD12R,0.048X0.048*%
%ADD13R,0.032X0.042*%
%ADD14R,0.0592X0.0671*%
%ADD15R,0.0671X0.0592*%
%ADD16R,0.0236X0.0711*%
%ADD17R,0.0711X0.0236*%
%ADD18R,0.0237X0.0769*%
%ADD19R,0.0681X0.0934*%
%ADD20R,0.0963X0.0691*%
%ADD21R,0.0839X0.037*%
%ADD22R,0.075X0.1236*%
%ADD23C,0.075*%
%ADD24C,0.0691*%
%ADD25R,0.037X0.087*%
%ADD26R,0.0199X0.0297*%
%ADD27R,0.0632X0.0199*%
%ADD28O,0.0592X0.0199*%
%ADD29R,0.0592X0.0317*%
%ADD30O,0.0553X0.0199*%
%ADD31R,0.0179X0.0199*%
%ADD32O,0.0391X0.0166*%
%ADD33O,0.0166X0.0391*%
%ADD34R,0.046X0.046*%
%ADD35O,0.0137X0.0383*%
%ADD36O,0.0383X0.0137*%
%ADD37R,0.1705X0.1705*%
%ADD38O,0.041X0.0166*%
%ADD39R,0.1313X0.1313*%
%ADD40O,0.0166X0.041*%
%ADD41O,0.0371X0.0166*%
%ADD42O,0.0166X0.0371*%
%ADD43R,0.0965X0.0965*%
%ADD44R,0.1577X0.0592*%
%ADD45R,0.0277X0.0317*%
%ADD46R,0.0396X0.0317*%
%ADD47R,0.0317X0.0356*%
%ADD48R,0.072X0.072*%
%ADD49C,0.072*%
%ADD50R,0.0337X0.0218*%
%ADD51R,0.042X0.042*%
%ADD52R,0.03X0.028*%
%ADD53R,0.028X0.03*%
%ADD54C,0.112*%
%ADD55R,0.038X0.028*%
%ADD56R,0.038X0.018*%
%ADD57R,0.018X0.038*%
%ADD58R,0.022X0.072*%
%ADD59R,0.072X0.022*%
%ADD60R,0.018X0.0289*%
%ADD61R,0.036X0.0199*%
%ADD62R,0.0289X0.018*%
%ADD63R,0.0199X0.036*%
%ADD64C,0.138*%
%ADD65R,0.025X0.0281*%
%ADD66R,0.0281X0.025*%
%ADD67R,0.2009X0.2009*%
%ADD68R,0.054X0.054*%
%ADD69C,0.054*%
%ADD70R,0.0533X0.0647*%
%ADD71R,0.0647X0.0533*%
%ADD72R,0.0337X0.0435*%
%ADD73R,0.051X0.03*%
%ADD74R,0.0455X0.023*%
%ADD75R,0.0444X0.0592*%
%ADD76R,0.023X0.0396*%
%ADD77C,0.035*%
G04 APERTURE END LIST*
G54D10*
G54D11*
X69700Y-43750D03*
X69700Y-44450D03*
X45400Y-33850D03*
G54D12*
X37600Y-41650D03*
X37600Y-42350D03*
X36800Y-42000D03*
X34050Y-36600D03*
X34750Y-36600D03*
X34400Y-37400D03*
G54D13*
X56975Y-24450D03*
X57725Y-24450D03*
X56975Y-23450D03*
X57350Y-24450D03*
X57725Y-23450D03*
G54D14*
X72015Y-32383D03*
X71385Y-31517D03*
X72015Y-31517D03*
X71385Y-32383D03*
G54D15*
X43567Y-30815D03*
X44433Y-30185D03*
X44433Y-30815D03*
X43567Y-30185D03*
G54D16*
X56362Y-39350D03*
X56165Y-39350D03*
X55969Y-39350D03*
X55772Y-39350D03*
X55575Y-39350D03*
X55378Y-39350D03*
X55181Y-39350D03*
X54984Y-39350D03*
X54787Y-39350D03*
X54591Y-39350D03*
X54394Y-39350D03*
X54197Y-39350D03*
X54000Y-39350D03*
X53803Y-39350D03*
X53606Y-39350D03*
X53409Y-39350D03*
X53213Y-39350D03*
X53016Y-39350D03*
X52819Y-39350D03*
X52622Y-39350D03*
X52425Y-39350D03*
X52228Y-39350D03*
X52031Y-39350D03*
X51835Y-39350D03*
X51638Y-39350D03*
G54D17*
X50850Y-40138D03*
X50850Y-40335D03*
X50850Y-40531D03*
X50850Y-40728D03*
X50850Y-40925D03*
X50850Y-41122D03*
X50850Y-41319D03*
X50850Y-41516D03*
X50850Y-41713D03*
X50850Y-41909D03*
X50850Y-42106D03*
X50850Y-42303D03*
X50850Y-42500D03*
X50850Y-42697D03*
X50850Y-42894D03*
X50850Y-43091D03*
X50850Y-43287D03*
X50850Y-43484D03*
X50850Y-43681D03*
X50850Y-43878D03*
X50850Y-44075D03*
X50850Y-44272D03*
X50850Y-44469D03*
X50850Y-44665D03*
X50850Y-44862D03*
G54D16*
X51638Y-45650D03*
X51835Y-45650D03*
X52031Y-45650D03*
X52228Y-45650D03*
X52425Y-45650D03*
X52622Y-45650D03*
X52819Y-45650D03*
X53016Y-45650D03*
X53213Y-45650D03*
X53409Y-45650D03*
X53606Y-45650D03*
X53803Y-45650D03*
X54000Y-45650D03*
X54197Y-45650D03*
X54394Y-45650D03*
X54591Y-45650D03*
X54787Y-45650D03*
X54984Y-45650D03*
X55181Y-45650D03*
X55378Y-45650D03*
X55575Y-45650D03*
X55772Y-45650D03*
X55969Y-45650D03*
X56165Y-45650D03*
X56362Y-45650D03*
G54D17*
X57150Y-44862D03*
X57150Y-44665D03*
X57150Y-44469D03*
X57150Y-44272D03*
X57150Y-44075D03*
X57150Y-43878D03*
X57150Y-43681D03*
X57150Y-43484D03*
X57150Y-43287D03*
X57150Y-43091D03*
X57150Y-42894D03*
X57150Y-42697D03*
X57150Y-42500D03*
X57150Y-42303D03*
X57150Y-42106D03*
X57150Y-41909D03*
X57150Y-41713D03*
X57150Y-41516D03*
X57150Y-41319D03*
X57150Y-41122D03*
X57150Y-40925D03*
X57150Y-40728D03*
X57150Y-40531D03*
X57150Y-40335D03*
X57150Y-40138D03*
G54D18*
X70012Y-23281D03*
X69756Y-23281D03*
X69500Y-23281D03*
X69244Y-23281D03*
X68988Y-23281D03*
G54D19*
X69879Y-22156D03*
X69121Y-22156D03*
G54D20*
X70614Y-23340D03*
X68386Y-23340D03*
G54D21*
X70676Y-22827D03*
X68324Y-22827D03*
G54D22*
X70583Y-22394D03*
X68417Y-22394D03*
G54D23*
X70583Y-22169D03*
X68417Y-22169D03*
G54D24*
X70479Y-23339D03*
X68521Y-23339D03*
G54D25*
X81250Y-39500D03*
X80750Y-39500D03*
X80250Y-39500D03*
X79750Y-39500D03*
X79750Y-42500D03*
X80250Y-42500D03*
X80750Y-42500D03*
X81250Y-42500D03*
G54D26*
X36264Y-36455D03*
X36421Y-36455D03*
X36579Y-36455D03*
X36736Y-36455D03*
X36736Y-35845D03*
X36579Y-35845D03*
X36421Y-35845D03*
X36264Y-35845D03*
G54D27*
X36500Y-36150D03*
G54D28*
X36500Y-36052D03*
G54D29*
X36500Y-36150D03*
G54D30*
X36520Y-36248D03*
G54D10*
G36*
X36302Y-36372D02*
X36178Y-36248D01*
X36283Y-36143D01*
X36407Y-36267D01*
X36302Y-36372D01*
X36302Y-36372D01*
G37*
G54D31*
X36333Y-36248D03*
G54D26*
X34454Y-40745D03*
X34611Y-40745D03*
X34769Y-40745D03*
X34926Y-40745D03*
X34926Y-40135D03*
X34769Y-40135D03*
X34611Y-40135D03*
X34454Y-40135D03*
G54D27*
X34690Y-40440D03*
G54D28*
X34690Y-40342D03*
G54D29*
X34690Y-40440D03*
G54D30*
X34710Y-40538D03*
G54D10*
G36*
X34492Y-40662D02*
X34368Y-40538D01*
X34473Y-40433D01*
X34597Y-40557D01*
X34492Y-40662D01*
X34492Y-40662D01*
G37*
G54D31*
X34523Y-40538D03*
G54D26*
X36736Y-38045D03*
X36579Y-38045D03*
X36421Y-38045D03*
X36264Y-38045D03*
X36264Y-38655D03*
X36421Y-38655D03*
X36579Y-38655D03*
X36736Y-38655D03*
G54D27*
X36500Y-38350D03*
G54D28*
X36500Y-38448D03*
G54D29*
X36500Y-38350D03*
G54D30*
X36480Y-38252D03*
G54D10*
G36*
X36697Y-38127D02*
X36821Y-38251D01*
X36716Y-38356D01*
X36592Y-38232D01*
X36697Y-38127D01*
X36697Y-38127D01*
G37*
G54D31*
X36667Y-38252D03*
G54D32*
X44679Y-47894D03*
X44679Y-47697D03*
X44679Y-47500D03*
X44679Y-47303D03*
X44679Y-47106D03*
G54D33*
X43705Y-46821D03*
G54D32*
X43321Y-47106D03*
X43321Y-47303D03*
X43321Y-47500D03*
X43321Y-47697D03*
X43321Y-47894D03*
G54D34*
X44202Y-47702D03*
X43798Y-47702D03*
X44202Y-47298D03*
X43798Y-47298D03*
G54D33*
X44295Y-46821D03*
X43705Y-48179D03*
X44295Y-48179D03*
G54D32*
X40679Y-47894D03*
X40679Y-47697D03*
X40679Y-47500D03*
X40679Y-47303D03*
X40679Y-47106D03*
G54D33*
X39705Y-46821D03*
G54D32*
X39321Y-47106D03*
X39321Y-47303D03*
X39321Y-47500D03*
X39321Y-47697D03*
X39321Y-47894D03*
G54D34*
X40202Y-47702D03*
X39798Y-47702D03*
X40202Y-47298D03*
X39798Y-47298D03*
G54D33*
X40295Y-46821D03*
X39705Y-48179D03*
X40295Y-48179D03*
G54D35*
X52091Y-25844D03*
X51934Y-25844D03*
X51776Y-25844D03*
X51619Y-25844D03*
X51461Y-25844D03*
X51304Y-25844D03*
X51146Y-25844D03*
X50989Y-25844D03*
X50831Y-25844D03*
X50674Y-25844D03*
X50516Y-25844D03*
X50359Y-25844D03*
G54D36*
X50044Y-26159D03*
X50044Y-26316D03*
X50044Y-26474D03*
X50044Y-26631D03*
X50044Y-26789D03*
X50044Y-26946D03*
X50044Y-27104D03*
X50044Y-27261D03*
X50044Y-27419D03*
X50044Y-27576D03*
X50044Y-27734D03*
X50044Y-27891D03*
G54D35*
X50359Y-28206D03*
X50516Y-28206D03*
X50674Y-28206D03*
X50831Y-28206D03*
X50989Y-28206D03*
X51146Y-28206D03*
X51304Y-28206D03*
X51461Y-28206D03*
X51619Y-28206D03*
X51776Y-28206D03*
X51934Y-28206D03*
X52091Y-28206D03*
G54D36*
X52406Y-27891D03*
X52406Y-27734D03*
X52406Y-27576D03*
X52406Y-27419D03*
X52406Y-27261D03*
X52406Y-27104D03*
X52406Y-26946D03*
X52406Y-26789D03*
X52406Y-26631D03*
X52406Y-26474D03*
X52406Y-26316D03*
X52406Y-26159D03*
G54D37*
X51225Y-27025D03*
G54D38*
X37185Y-26511D03*
X37185Y-26708D03*
X37185Y-26905D03*
X37185Y-27102D03*
X37185Y-27298D03*
X37185Y-27495D03*
X37185Y-27692D03*
X37185Y-27889D03*
G54D39*
X38150Y-27200D03*
G54D40*
X37461Y-28165D03*
X37658Y-28165D03*
X37855Y-28165D03*
X38052Y-28165D03*
X38248Y-28165D03*
X38445Y-28165D03*
X38642Y-28165D03*
X38839Y-28165D03*
G54D38*
X39115Y-27889D03*
X39115Y-27692D03*
X39115Y-27495D03*
X39115Y-27298D03*
X39115Y-27102D03*
X39115Y-26905D03*
X39115Y-26708D03*
X39115Y-26511D03*
G54D40*
X38839Y-26235D03*
X38642Y-26235D03*
X38445Y-26235D03*
X38268Y-26235D03*
X38052Y-26235D03*
X37855Y-26235D03*
X37678Y-26235D03*
X37461Y-26235D03*
G54D41*
X45513Y-31206D03*
X45513Y-31403D03*
X45513Y-31600D03*
X45513Y-31797D03*
X45513Y-31994D03*
G54D42*
X45906Y-32387D03*
X46103Y-32387D03*
X46300Y-32387D03*
X46497Y-32387D03*
X46694Y-32387D03*
G54D41*
X47087Y-31994D03*
X47087Y-31797D03*
X47087Y-31600D03*
X47087Y-31403D03*
X47087Y-31206D03*
G54D42*
X46694Y-30813D03*
X46497Y-30813D03*
X46300Y-30813D03*
X46103Y-30813D03*
X45906Y-30813D03*
G54D43*
X46300Y-31600D03*
G54D44*
X75450Y-27051D03*
X75450Y-25949D03*
X75450Y-24051D03*
X75450Y-22949D03*
G54D16*
X73445Y-33659D03*
X73248Y-33659D03*
X73051Y-33659D03*
X72854Y-33659D03*
X72657Y-33659D03*
X72461Y-33659D03*
X72264Y-33659D03*
X72067Y-33659D03*
X71870Y-33659D03*
X71673Y-33659D03*
X71476Y-33659D03*
X71280Y-33659D03*
X71083Y-33659D03*
X70886Y-33659D03*
X70689Y-33659D03*
X70492Y-33659D03*
X70295Y-33659D03*
X70098Y-33659D03*
X69902Y-33659D03*
X69705Y-33659D03*
X69508Y-33659D03*
X69311Y-33659D03*
X69114Y-33659D03*
X68917Y-33659D03*
X68720Y-33659D03*
X68524Y-33659D03*
X68327Y-33659D03*
X68130Y-33659D03*
X67933Y-33659D03*
X67736Y-33659D03*
X67539Y-33659D03*
X67343Y-33659D03*
X67146Y-33659D03*
X66949Y-33659D03*
X66752Y-33659D03*
X66555Y-33659D03*
G54D17*
X65669Y-34545D03*
X65669Y-34742D03*
X65669Y-34939D03*
X65669Y-35136D03*
X65669Y-35333D03*
X65669Y-35529D03*
X65669Y-35726D03*
X65669Y-35923D03*
X65669Y-36120D03*
X65669Y-36317D03*
X65669Y-36514D03*
X65669Y-36710D03*
X65669Y-36907D03*
X65669Y-37104D03*
X65669Y-37301D03*
X65669Y-37498D03*
X65669Y-37695D03*
X65669Y-37892D03*
X65669Y-38088D03*
X65669Y-38285D03*
X65669Y-38482D03*
X65669Y-38679D03*
X65669Y-38876D03*
X65669Y-39073D03*
X65669Y-39270D03*
X65669Y-39466D03*
X65669Y-39663D03*
X65669Y-39860D03*
X65669Y-40057D03*
X65669Y-40254D03*
X65669Y-40451D03*
X65669Y-40647D03*
X65669Y-40844D03*
X65669Y-41041D03*
X65669Y-41238D03*
X65669Y-41435D03*
G54D16*
X66555Y-42321D03*
X66752Y-42321D03*
X66949Y-42321D03*
X67146Y-42321D03*
X67343Y-42321D03*
X67539Y-42321D03*
X67736Y-42321D03*
X67933Y-42321D03*
X68130Y-42321D03*
X68327Y-42321D03*
X68524Y-42321D03*
X68720Y-42321D03*
X68917Y-42321D03*
X69114Y-42321D03*
X69311Y-42321D03*
X69508Y-42321D03*
X69705Y-42321D03*
X69902Y-42321D03*
X70098Y-42321D03*
X70295Y-42321D03*
X70492Y-42321D03*
X70689Y-42321D03*
X70886Y-42321D03*
X71083Y-42321D03*
X71280Y-42321D03*
X71476Y-42321D03*
X71673Y-42321D03*
X71870Y-42321D03*
X72067Y-42321D03*
X72264Y-42321D03*
X72461Y-42321D03*
X72657Y-42321D03*
X72854Y-42321D03*
X73051Y-42321D03*
X73248Y-42321D03*
X73445Y-42321D03*
G54D17*
X74331Y-41435D03*
X74331Y-41238D03*
X74331Y-41041D03*
X74331Y-40844D03*
X74331Y-40647D03*
X74331Y-40451D03*
X74331Y-40254D03*
X74331Y-40057D03*
X74331Y-39860D03*
X74331Y-39663D03*
X74331Y-39466D03*
X74331Y-39270D03*
X74331Y-39073D03*
X74331Y-38876D03*
X74331Y-38679D03*
X74331Y-38482D03*
X74331Y-38285D03*
X74331Y-38088D03*
X74331Y-37892D03*
X74331Y-37695D03*
X74331Y-37498D03*
X74331Y-37301D03*
X74331Y-37104D03*
X74331Y-36907D03*
X74331Y-36710D03*
X74331Y-36514D03*
X74331Y-36317D03*
X74331Y-36120D03*
X74331Y-35923D03*
X74331Y-35726D03*
X74331Y-35529D03*
X74331Y-35333D03*
X74331Y-35136D03*
X74331Y-34939D03*
X74331Y-34742D03*
X74331Y-34545D03*
G54D45*
X37738Y-33196D03*
X37738Y-32704D03*
X37462Y-32704D03*
X37462Y-33196D03*
G54D46*
X35600Y-32765D03*
X35600Y-33435D03*
G54D47*
X35777Y-33100D03*
X35423Y-33100D03*
G54D48*
X59500Y-29000D03*
G54D49*
X60500Y-29000D03*
X59500Y-30000D03*
X60500Y-30000D03*
X59500Y-31000D03*
X60500Y-31000D03*
X59500Y-32000D03*
X60500Y-32000D03*
X59500Y-33000D03*
X60500Y-33000D03*
X59500Y-34000D03*
X60500Y-34000D03*
X59500Y-35000D03*
X60500Y-35000D03*
X59500Y-36000D03*
X60500Y-36000D03*
G54D48*
X66500Y-48500D03*
G54D49*
X66500Y-49500D03*
X65500Y-48500D03*
X65500Y-49500D03*
X64500Y-48500D03*
X64500Y-49500D03*
X63500Y-48500D03*
X63500Y-49500D03*
X62500Y-48500D03*
X62500Y-49500D03*
X61500Y-48500D03*
X61500Y-49500D03*
G54D48*
X78500Y-43500D03*
G54D49*
X77500Y-43500D03*
X78500Y-42500D03*
X77500Y-42500D03*
X78500Y-41500D03*
X77500Y-41500D03*
X78500Y-40500D03*
X77500Y-40500D03*
X78500Y-39500D03*
X77500Y-39500D03*
X78500Y-38500D03*
X77500Y-38500D03*
G54D48*
X78500Y-35500D03*
G54D49*
X77500Y-35500D03*
X78500Y-34500D03*
X77500Y-34500D03*
X78500Y-33500D03*
X77500Y-33500D03*
X78500Y-32500D03*
X77500Y-32500D03*
X78500Y-31500D03*
X77500Y-31500D03*
G54D48*
X50500Y-49500D03*
G54D49*
X50500Y-48500D03*
X51500Y-49500D03*
X51500Y-48500D03*
X52500Y-49500D03*
X52500Y-48500D03*
X53500Y-49500D03*
X53500Y-48500D03*
X54500Y-49500D03*
X54500Y-48500D03*
G54D48*
X76500Y-29000D03*
G54D49*
X76500Y-30000D03*
X75500Y-29000D03*
X75500Y-30000D03*
X74500Y-29000D03*
X74500Y-30000D03*
X73500Y-29000D03*
X73500Y-30000D03*
G54D48*
X78510Y-46500D03*
G54D49*
X78510Y-47500D03*
X77510Y-46500D03*
X77510Y-47500D03*
X76510Y-46500D03*
X76510Y-47500D03*
G54D48*
X69500Y-49500D03*
G54D49*
X70500Y-49500D03*
X71500Y-49500D03*
X72500Y-49500D03*
X73500Y-49500D03*
X74500Y-49500D03*
G54D48*
X47500Y-44500D03*
G54D49*
X47500Y-45500D03*
X47500Y-46500D03*
X47500Y-47500D03*
X47500Y-48500D03*
X47500Y-49500D03*
G54D48*
X63500Y-24000D03*
G54D49*
X64500Y-24000D03*
X65500Y-24000D03*
G54D48*
X63500Y-23000D03*
G54D49*
X64500Y-23000D03*
X65500Y-23000D03*
G54D48*
X63500Y-25000D03*
G54D49*
X64500Y-25000D03*
X65500Y-25000D03*
G54D48*
X63500Y-26000D03*
G54D49*
X64500Y-26000D03*
X65500Y-26000D03*
G54D48*
X67500Y-26000D03*
G54D49*
X67500Y-25000D03*
G54D50*
X51508Y-23028D03*
X51508Y-23225D03*
X51508Y-23422D03*
X51842Y-23422D03*
X51842Y-23225D03*
X51842Y-23028D03*
X50308Y-23028D03*
X50308Y-23225D03*
X50308Y-23422D03*
X50642Y-23422D03*
X50642Y-23225D03*
X50642Y-23028D03*
G54D51*
X72500Y-28700D03*
X71900Y-28700D03*
X67450Y-28700D03*
X66850Y-28700D03*
X72400Y-45050D03*
X72400Y-45650D03*
X70100Y-46000D03*
X69500Y-46000D03*
X70100Y-45200D03*
X69500Y-45200D03*
X74450Y-31600D03*
X74450Y-32200D03*
X76200Y-31600D03*
X76200Y-32200D03*
X37450Y-24900D03*
X38050Y-24900D03*
X35000Y-38000D03*
X34400Y-38000D03*
X57100Y-23000D03*
X56500Y-23000D03*
X39250Y-24900D03*
X38650Y-24900D03*
X56900Y-25400D03*
X56300Y-25400D03*
X36350Y-40850D03*
X36350Y-41450D03*
G54D52*
X62500Y-32190D03*
X62500Y-32610D03*
G54D53*
X72410Y-23500D03*
X71990Y-23500D03*
X72410Y-23100D03*
X71990Y-23100D03*
X77340Y-37100D03*
X77760Y-37100D03*
X74510Y-48250D03*
X74090Y-48250D03*
G54D52*
X71190Y-27240D03*
X71190Y-27660D03*
X71590Y-27660D03*
X71590Y-27240D03*
X70750Y-26460D03*
X70750Y-26040D03*
X70790Y-27660D03*
X70790Y-27240D03*
G54D53*
X75940Y-25000D03*
X76360Y-25000D03*
X35340Y-25500D03*
X35760Y-25500D03*
X72410Y-26000D03*
X71990Y-26000D03*
G54D52*
X54075Y-30215D03*
X54075Y-30635D03*
G54D53*
X37760Y-23650D03*
X37340Y-23650D03*
X35640Y-25050D03*
X36060Y-25050D03*
X40490Y-24300D03*
X40910Y-24300D03*
G54D52*
X38850Y-34960D03*
X38850Y-34540D03*
G54D53*
X36360Y-28600D03*
X35940Y-28600D03*
G54D52*
X34950Y-28560D03*
X34950Y-28140D03*
G54D53*
X35940Y-27700D03*
X36360Y-27700D03*
X36360Y-26500D03*
X35940Y-26500D03*
X62090Y-33550D03*
X62510Y-33550D03*
G54D52*
X63650Y-37960D03*
X63650Y-37540D03*
X55575Y-30215D03*
X55575Y-30635D03*
X55075Y-30215D03*
X55075Y-30635D03*
X54575Y-30215D03*
X54575Y-30635D03*
G54D53*
X57410Y-31500D03*
X56990Y-31500D03*
X57540Y-26500D03*
X57960Y-26500D03*
X34790Y-36050D03*
X35210Y-36050D03*
G54D52*
X54075Y-29015D03*
X54075Y-29435D03*
X54575Y-29015D03*
X54575Y-29435D03*
X55075Y-29015D03*
X55075Y-29435D03*
X55575Y-29015D03*
X55575Y-29435D03*
G54D53*
X57410Y-31100D03*
X56990Y-31100D03*
X57540Y-26100D03*
X57960Y-26100D03*
G54D52*
X53525Y-29015D03*
X53525Y-29435D03*
X53025Y-29015D03*
X53025Y-29435D03*
X52525Y-29015D03*
X52525Y-29435D03*
X52025Y-29015D03*
X52025Y-29435D03*
X38550Y-42810D03*
X38550Y-42390D03*
G54D53*
X48415Y-28225D03*
X48835Y-28225D03*
X48415Y-28625D03*
X48835Y-28625D03*
G54D52*
X47350Y-36940D03*
X47350Y-37360D03*
X46450Y-36940D03*
X46450Y-37360D03*
X36000Y-31990D03*
X36000Y-32410D03*
G54D53*
X37540Y-34500D03*
X37960Y-34500D03*
G54D52*
X37050Y-30640D03*
X37050Y-31060D03*
G54D53*
X42040Y-24100D03*
X42460Y-24100D03*
G54D52*
X41500Y-25590D03*
X41500Y-26010D03*
G54D53*
X35190Y-24200D03*
X35610Y-24200D03*
G54D52*
X36450Y-30440D03*
X36450Y-30860D03*
X40500Y-25190D03*
X40500Y-25610D03*
X36000Y-34010D03*
X36000Y-33590D03*
X37200Y-33590D03*
X37200Y-34010D03*
X40950Y-25190D03*
X40950Y-25610D03*
G54D53*
X35840Y-34900D03*
X36260Y-34900D03*
X35240Y-31500D03*
X35660Y-31500D03*
G54D52*
X37050Y-34940D03*
X37050Y-35360D03*
G54D53*
X45610Y-33300D03*
X45190Y-33300D03*
G54D52*
X44300Y-31640D03*
X44300Y-32060D03*
G54D53*
X59140Y-47600D03*
X59560Y-47600D03*
X59140Y-47200D03*
X59560Y-47200D03*
X38090Y-30650D03*
X38510Y-30650D03*
X40260Y-28200D03*
X39840Y-28200D03*
X40260Y-27000D03*
X39840Y-27000D03*
X40260Y-27400D03*
X39840Y-27400D03*
X35940Y-27300D03*
X36360Y-27300D03*
X35940Y-26900D03*
X36360Y-26900D03*
X43440Y-25300D03*
X43860Y-25300D03*
X44540Y-24700D03*
X44960Y-24700D03*
G54D52*
X42000Y-26960D03*
X42000Y-26540D03*
G54D53*
X59140Y-46800D03*
X59560Y-46800D03*
X37590Y-31500D03*
X38010Y-31500D03*
X36810Y-29100D03*
X36390Y-29100D03*
G54D52*
X35450Y-29010D03*
X35450Y-28590D03*
G54D53*
X35940Y-28100D03*
X36360Y-28100D03*
G54D52*
X35450Y-27690D03*
X35450Y-28110D03*
X43400Y-23490D03*
X43400Y-23910D03*
X37200Y-31990D03*
X37200Y-32410D03*
G54D53*
X62210Y-22800D03*
X61790Y-22800D03*
X67360Y-29200D03*
X66940Y-29200D03*
X72190Y-46150D03*
X72610Y-46150D03*
X75990Y-32700D03*
X76410Y-32700D03*
X74240Y-32700D03*
X74660Y-32700D03*
G54D52*
X70600Y-45090D03*
X70600Y-45510D03*
X70600Y-45890D03*
X70600Y-46310D03*
X69200Y-32040D03*
X69200Y-32460D03*
G54D53*
X61790Y-24300D03*
X62210Y-24300D03*
X72410Y-29250D03*
X71990Y-29250D03*
G54D52*
X63900Y-28160D03*
X63900Y-27740D03*
X70100Y-27110D03*
X70100Y-26690D03*
G54D53*
X66640Y-31200D03*
X67060Y-31200D03*
X65390Y-31000D03*
X65810Y-31000D03*
G54D52*
X70100Y-26260D03*
X70100Y-25840D03*
G54D53*
X70510Y-48250D03*
X70090Y-48250D03*
G54D52*
X69700Y-29090D03*
X69700Y-29510D03*
X69300Y-28640D03*
X69300Y-29060D03*
G54D53*
X59140Y-43600D03*
X59560Y-43600D03*
X59140Y-46400D03*
X59560Y-46400D03*
X59140Y-46000D03*
X59560Y-46000D03*
X61790Y-26300D03*
X62210Y-26300D03*
X59140Y-45600D03*
X59560Y-45600D03*
X59140Y-45200D03*
X59560Y-45200D03*
X59140Y-44800D03*
X59560Y-44800D03*
X59140Y-44400D03*
X59560Y-44400D03*
X59140Y-44000D03*
X59560Y-44000D03*
X72410Y-26400D03*
X71990Y-26400D03*
X61790Y-24800D03*
X62210Y-24800D03*
X59140Y-43200D03*
X59560Y-43200D03*
X59140Y-42800D03*
X59560Y-42800D03*
X59140Y-42400D03*
X59560Y-42400D03*
X59140Y-42000D03*
X59560Y-42000D03*
X59140Y-41600D03*
X59560Y-41600D03*
X46860Y-30050D03*
X46440Y-30050D03*
X52065Y-29825D03*
X52485Y-29825D03*
G54D52*
X50675Y-24215D03*
X50675Y-24635D03*
X49925Y-29435D03*
X49925Y-29015D03*
X52025Y-30635D03*
X52025Y-30215D03*
X52525Y-30635D03*
X52525Y-30215D03*
X53025Y-30635D03*
X53025Y-30215D03*
X53525Y-30635D03*
X53525Y-30215D03*
X50275Y-24215D03*
X50275Y-24635D03*
X49225Y-28215D03*
X49225Y-28635D03*
G54D53*
X45090Y-29900D03*
X45510Y-29900D03*
G54D52*
X48025Y-28215D03*
X48025Y-28635D03*
X47400Y-28690D03*
X47400Y-29110D03*
G54D53*
X46990Y-28050D03*
X47410Y-28050D03*
X48260Y-32300D03*
X47840Y-32300D03*
X47360Y-33100D03*
X46940Y-33100D03*
G54D52*
X51475Y-24215D03*
X51475Y-24635D03*
G54D53*
X48410Y-31100D03*
X47990Y-31100D03*
X49965Y-34200D03*
X50385Y-34200D03*
X49965Y-34600D03*
X50385Y-34600D03*
X72410Y-22700D03*
X71990Y-22700D03*
X65540Y-32850D03*
X65960Y-32850D03*
X64190Y-35350D03*
X64610Y-35350D03*
X64190Y-38900D03*
X64610Y-38900D03*
G54D52*
X64550Y-41140D03*
X64550Y-41560D03*
X67540Y-43830D03*
X67540Y-43410D03*
X70700Y-43810D03*
X70700Y-43390D03*
X73250Y-43810D03*
X73250Y-43390D03*
G54D53*
X75810Y-41050D03*
X75390Y-41050D03*
X75810Y-37900D03*
X75390Y-37900D03*
X75810Y-37100D03*
X75390Y-37100D03*
X75810Y-35950D03*
X75390Y-35950D03*
G54D52*
X49225Y-25515D03*
X49225Y-25935D03*
X53525Y-31665D03*
X53525Y-32085D03*
X53925Y-31665D03*
X53925Y-32085D03*
X52375Y-31665D03*
X52375Y-32085D03*
X52775Y-31665D03*
X52775Y-32085D03*
X51575Y-31665D03*
X51575Y-32085D03*
X51175Y-31665D03*
X51175Y-32085D03*
X53075Y-36885D03*
X53075Y-36465D03*
X53475Y-36885D03*
X53475Y-36465D03*
G54D53*
X55210Y-35050D03*
X54790Y-35050D03*
G54D52*
X54800Y-35910D03*
X54800Y-35490D03*
G54D53*
X55460Y-34000D03*
X55040Y-34000D03*
X55460Y-34400D03*
X55040Y-34400D03*
X55360Y-33150D03*
X54940Y-33150D03*
G54D52*
X52275Y-24615D03*
X52275Y-25035D03*
X51075Y-24615D03*
X51075Y-25035D03*
G54D53*
X75810Y-35150D03*
X75390Y-35150D03*
X48815Y-27025D03*
X49235Y-27025D03*
X48515Y-27425D03*
X48935Y-27425D03*
X48815Y-27825D03*
X49235Y-27825D03*
G54D52*
X50725Y-29435D03*
X50725Y-29015D03*
X50325Y-29435D03*
X50325Y-29015D03*
G54D53*
X53635Y-27725D03*
X53215Y-27725D03*
X53635Y-27325D03*
X53215Y-27325D03*
X53635Y-26375D03*
X53215Y-26375D03*
X55115Y-29825D03*
X55535Y-29825D03*
X54115Y-29825D03*
X54535Y-29825D03*
G54D52*
X55125Y-31665D03*
X55125Y-32085D03*
X54725Y-31665D03*
X54725Y-32085D03*
X51875Y-24215D03*
X51875Y-24635D03*
X54325Y-31665D03*
X54325Y-32085D03*
G54D53*
X53065Y-29825D03*
X53485Y-29825D03*
X33490Y-38000D03*
X33910Y-38000D03*
X38400Y-29130D03*
X38820Y-29130D03*
X33610Y-39150D03*
X33190Y-39150D03*
X33610Y-40000D03*
X33190Y-40000D03*
G54D52*
X34100Y-41510D03*
X34100Y-41090D03*
X34680Y-41880D03*
X34680Y-41460D03*
G54D53*
X35860Y-40800D03*
X35440Y-40800D03*
G54D52*
X35970Y-39130D03*
X35970Y-39550D03*
G54D53*
X35660Y-37400D03*
X35240Y-37400D03*
X37510Y-39100D03*
X37090Y-39100D03*
G54D52*
X34100Y-39440D03*
X34100Y-39860D03*
G54D53*
X37760Y-37350D03*
X37340Y-37350D03*
X33640Y-22550D03*
X34060Y-22550D03*
X37760Y-38200D03*
X37340Y-38200D03*
X37360Y-22950D03*
X36940Y-22950D03*
G54D52*
X34050Y-35640D03*
X34050Y-36060D03*
G54D53*
X38890Y-48650D03*
X39310Y-48650D03*
X35860Y-23150D03*
X35440Y-23150D03*
X35910Y-38000D03*
X35490Y-38000D03*
X37760Y-24050D03*
X37340Y-24050D03*
X48110Y-22100D03*
X47690Y-22100D03*
X35740Y-22550D03*
X36160Y-22550D03*
X37600Y-29130D03*
X38020Y-29130D03*
G54D52*
X36500Y-24940D03*
X36500Y-25360D03*
G54D53*
X36290Y-37250D03*
X36710Y-37250D03*
G54D52*
X34500Y-32740D03*
X34500Y-33160D03*
X36950Y-25360D03*
X36950Y-24940D03*
X39750Y-24440D03*
X39750Y-24860D03*
G54D53*
X34560Y-34750D03*
X34140Y-34750D03*
X37340Y-36900D03*
X37760Y-36900D03*
X34560Y-34050D03*
X34140Y-34050D03*
G54D52*
X35200Y-26960D03*
X35200Y-26540D03*
G54D53*
X71860Y-30950D03*
X71440Y-30950D03*
X73560Y-32600D03*
X73140Y-32600D03*
G54D52*
X68750Y-32040D03*
X68750Y-32460D03*
X70350Y-32090D03*
X70350Y-32510D03*
G54D53*
X80790Y-43600D03*
X81210Y-43600D03*
G54D52*
X72450Y-24740D03*
X72450Y-25160D03*
X58300Y-43160D03*
X58300Y-42740D03*
X58400Y-39890D03*
X58400Y-40310D03*
X55600Y-37790D03*
X55600Y-38210D03*
X50200Y-38890D03*
X50200Y-39310D03*
X52700Y-47210D03*
X52700Y-46790D03*
G54D53*
X48990Y-42500D03*
X49410Y-42500D03*
G54D52*
X51300Y-47210D03*
X51300Y-46790D03*
X70400Y-30460D03*
X70400Y-30040D03*
X70800Y-30040D03*
X70800Y-30460D03*
X72550Y-31940D03*
X72550Y-32360D03*
G54D53*
X35190Y-25950D03*
X35610Y-25950D03*
X56960Y-24900D03*
X56540Y-24900D03*
X35440Y-41500D03*
X35860Y-41500D03*
X38510Y-41650D03*
X38090Y-41650D03*
X36310Y-42000D03*
X35890Y-42000D03*
X33910Y-37550D03*
X33490Y-37550D03*
X34110Y-42550D03*
X33690Y-42550D03*
X42890Y-48650D03*
X43310Y-48650D03*
X40260Y-27800D03*
X39840Y-27800D03*
G54D52*
X39950Y-25990D03*
X39950Y-26410D03*
G54D53*
X38560Y-25400D03*
X38140Y-25400D03*
X51465Y-23825D03*
X51885Y-23825D03*
X51465Y-25025D03*
X51885Y-25025D03*
X50265Y-23825D03*
X50685Y-23825D03*
X50265Y-25025D03*
X50685Y-25025D03*
G54D54*
X43500Y-36500D03*
X42500Y-37500D03*
X44500Y-37500D03*
X44500Y-35500D03*
X42500Y-35500D03*
X35000Y-44500D03*
X36000Y-43500D03*
X34000Y-43500D03*
X34000Y-45500D03*
X36000Y-45500D03*
X43500Y-42500D03*
X42500Y-43500D03*
X44500Y-43500D03*
X44500Y-41500D03*
X42500Y-41500D03*
G54D53*
X34110Y-41900D03*
X33690Y-41900D03*
G54D55*
X33900Y-41900D03*
G54D53*
X48140Y-33100D03*
X48560Y-33100D03*
X47990Y-32700D03*
X48410Y-32700D03*
G54D56*
X48200Y-32700D03*
G54D52*
X47200Y-33490D03*
X47200Y-33910D03*
X46800Y-33490D03*
X46800Y-33910D03*
G54D57*
X46800Y-33700D03*
G54D52*
X46050Y-29460D03*
X46050Y-29040D03*
X46450Y-29660D03*
X46450Y-29240D03*
G54D57*
X46450Y-29450D03*
G54D53*
X47990Y-30300D03*
X48410Y-30300D03*
X47990Y-30700D03*
X48410Y-30700D03*
G54D56*
X48200Y-30700D03*
G54D52*
X49450Y-35140D03*
X49450Y-35560D03*
X49850Y-35140D03*
X49850Y-35560D03*
G54D57*
X49850Y-35350D03*
G54D53*
X50860Y-46300D03*
X50440Y-46300D03*
G54D56*
X50650Y-46300D03*
G54D53*
X50440Y-46750D03*
X50860Y-46750D03*
G54D52*
X43450Y-25690D03*
X43450Y-26110D03*
G54D57*
X43450Y-25900D03*
G54D53*
X58610Y-23300D03*
X58190Y-23300D03*
X61790Y-25300D03*
X62210Y-25300D03*
X61790Y-23300D03*
X62210Y-23300D03*
X61790Y-23800D03*
X62210Y-23800D03*
X61790Y-25800D03*
X62210Y-25800D03*
G54D52*
X43500Y-39990D03*
X43500Y-40410D03*
G54D53*
X42640Y-39500D03*
X43060Y-39500D03*
G54D52*
X45650Y-35960D03*
X45650Y-35540D03*
X42200Y-39510D03*
X42200Y-39090D03*
X43500Y-39090D03*
X43500Y-39510D03*
X41750Y-39960D03*
X41750Y-39540D03*
X45650Y-34590D03*
X45650Y-35010D03*
G54D48*
X54500Y-24000D03*
G54D49*
X54500Y-23000D03*
G54D58*
X54500Y-23500D03*
G54D48*
X77500Y-24000D03*
G54D49*
X77500Y-23000D03*
G54D58*
X77500Y-23500D03*
G54D48*
X77500Y-27000D03*
G54D49*
X77500Y-26000D03*
G54D58*
X77500Y-26500D03*
G54D48*
X42500Y-33500D03*
G54D49*
X43500Y-33500D03*
G54D59*
X43000Y-33500D03*
G54D60*
X43098Y-24489D03*
G54D61*
X42823Y-24700D03*
G54D60*
X42902Y-24911D03*
X43098Y-24911D03*
G54D61*
X43177Y-24700D03*
G54D60*
X42902Y-24489D03*
X41402Y-24911D03*
G54D61*
X41677Y-24700D03*
G54D60*
X41598Y-24489D03*
X41402Y-24489D03*
G54D61*
X41323Y-24700D03*
G54D60*
X41598Y-24911D03*
X36448Y-23439D03*
G54D61*
X36173Y-23650D03*
G54D60*
X36252Y-23861D03*
X36448Y-23861D03*
G54D61*
X36527Y-23650D03*
G54D60*
X36252Y-23439D03*
G54D62*
X34689Y-22552D03*
G54D63*
X34900Y-22827D03*
G54D62*
X35111Y-22748D03*
X35111Y-22552D03*
G54D63*
X34900Y-22473D03*
G54D62*
X34689Y-22748D03*
X37761Y-30198D03*
G54D63*
X37550Y-29923D03*
G54D62*
X37339Y-30002D03*
X37339Y-30198D03*
G54D63*
X37550Y-30277D03*
G54D62*
X37761Y-30002D03*
X36389Y-31502D03*
G54D63*
X36600Y-31777D03*
G54D62*
X36811Y-31698D03*
X36811Y-31502D03*
G54D63*
X36600Y-31423D03*
G54D62*
X36389Y-31698D03*
X36811Y-34498D03*
G54D63*
X36600Y-34223D03*
G54D62*
X36389Y-34302D03*
X36389Y-34498D03*
G54D63*
X36600Y-34577D03*
G54D62*
X36811Y-34302D03*
G54D64*
X26075Y-23075D03*
X80925Y-23075D03*
X80925Y-48925D03*
X26075Y-48925D03*
G54D65*
X38155Y-23840D03*
X38155Y-24100D03*
X38155Y-24360D03*
X38545Y-24360D03*
X38545Y-24100D03*
X38545Y-23840D03*
G54D66*
X40910Y-26005D03*
X40650Y-26005D03*
X40390Y-26005D03*
X40390Y-26395D03*
X40650Y-26395D03*
X40910Y-26395D03*
G54D11*
X50700Y-30350D03*
X48775Y-26425D03*
X43800Y-31800D03*
X46450Y-36150D03*
X47350Y-36150D03*
X69700Y-43050D03*
X72700Y-44000D03*
X72700Y-43300D03*
X73800Y-43300D03*
X75900Y-39450D03*
X76750Y-37100D03*
G54D40*
X53658Y-32917D03*
X53461Y-32917D03*
X53264Y-32917D03*
X53067Y-32917D03*
X52870Y-32917D03*
X52673Y-32917D03*
X52477Y-32917D03*
X52280Y-32917D03*
X52083Y-32917D03*
X51886Y-32917D03*
X51689Y-32917D03*
X51492Y-32917D03*
G54D38*
X51217Y-33192D03*
X51217Y-33389D03*
X51217Y-33586D03*
X51217Y-33783D03*
X51217Y-33980D03*
X51217Y-34177D03*
X51217Y-34373D03*
X51217Y-34570D03*
X51217Y-34767D03*
X51217Y-34964D03*
X51217Y-35161D03*
X51217Y-35358D03*
G54D40*
X51492Y-35633D03*
X51689Y-35633D03*
X51886Y-35633D03*
X52083Y-35633D03*
X52280Y-35633D03*
X52477Y-35633D03*
X52673Y-35633D03*
X52870Y-35633D03*
X53067Y-35633D03*
X53264Y-35633D03*
X53461Y-35633D03*
X53658Y-35633D03*
G54D38*
X53933Y-35358D03*
X53933Y-35161D03*
X53933Y-34964D03*
X53933Y-34767D03*
X53933Y-34570D03*
X53933Y-34373D03*
X53933Y-34177D03*
X53933Y-33980D03*
X53933Y-33783D03*
X53933Y-33586D03*
X53933Y-33389D03*
X53933Y-33192D03*
G54D67*
X52575Y-34275D03*
G54D68*
X63000Y-29900D03*
G54D69*
X63000Y-29400D03*
X63500Y-29900D03*
X63500Y-29400D03*
X64000Y-29900D03*
X64000Y-29400D03*
X64500Y-29900D03*
X64500Y-29400D03*
X65000Y-29900D03*
X65000Y-29400D03*
G54D70*
X74150Y-26300D03*
X73350Y-26300D03*
X74150Y-27150D03*
X73350Y-27150D03*
X73350Y-22850D03*
X74150Y-22850D03*
X73350Y-23700D03*
X74150Y-23700D03*
X55800Y-22200D03*
X56600Y-22200D03*
G54D71*
X55800Y-23800D03*
X55800Y-23000D03*
G54D11*
X57050Y-26850D03*
X57050Y-29150D03*
X67500Y-31200D03*
X67500Y-31900D03*
X52050Y-38050D03*
G54D71*
X71800Y-24550D03*
X71800Y-25350D03*
X70950Y-25350D03*
X70950Y-24550D03*
G54D72*
X70024Y-24566D03*
X69650Y-24566D03*
X69276Y-24566D03*
X69276Y-25334D03*
X69650Y-25334D03*
X70024Y-25334D03*
G54D73*
X37695Y-40260D03*
X37695Y-40000D03*
X37695Y-39740D03*
X36905Y-39740D03*
X36905Y-40000D03*
X36905Y-40260D03*
X34205Y-38540D03*
X34205Y-38800D03*
X34205Y-39060D03*
X34995Y-39060D03*
X34995Y-38800D03*
X34995Y-38540D03*
G54D74*
X73159Y-24606D03*
X73159Y-24803D03*
X73159Y-25000D03*
X73159Y-25197D03*
X73159Y-25394D03*
X74341Y-25394D03*
X74341Y-25197D03*
X74341Y-25000D03*
X74341Y-24803D03*
X74341Y-24606D03*
G54D75*
X73912Y-25236D03*
X73912Y-24764D03*
X73588Y-24764D03*
X73588Y-25236D03*
G54D76*
X73848Y-24390D03*
X73652Y-24390D03*
X73652Y-25610D03*
X73848Y-25610D03*
G54D77*
X73750Y-25000D03*
X73947Y-24705D03*
X73553Y-24705D03*
X73553Y-25295D03*
X73947Y-25295D03*
G54D52*
X46400Y-33260D03*
X46400Y-33680D03*
M02*
