G04 (created by PCBNEW (2013-01-23 BZR 3920)-stable) date Mon Jun 10 00:49:26 2013*
%MOIN*%
G04 Gerber Fmt 3.4, Leading zero omitted, Abs format*
%FSLAX34Y34*%
G01*
G70*
G90*
G04 APERTURE LIST*
%ADD10C,2.3622e-06*%
%ADD11C,0.063*%
%ADD12C,0.0571*%
%ADD13C,0.0236*%
%ADD14C,0.025*%
%ADD15R,0.06X0.06*%
%ADD16C,0.06*%
%ADD17C,0.1*%
%ADD18C,0.126*%
%ADD19R,0.042X0.042*%
%ADD20C,0.042*%
%ADD21C,0.023*%
%ADD22C,0.031*%
%ADD23C,0.027*%
%ADD24C,0.037*%
%ADD25C,0.05*%
%ADD26C,0.008*%
%ADD27C,0.02*%
%ADD28C,0.006*%
G04 APERTURE END LIST*
G54D10*
G54D11*
X70583Y-22169D03*
X68417Y-22169D03*
G54D12*
X70479Y-23339D03*
X68521Y-23339D03*
G54D13*
X44202Y-47702D03*
X43798Y-47702D03*
X43798Y-47298D03*
X44202Y-47298D03*
X40202Y-47702D03*
X39798Y-47702D03*
X39798Y-47298D03*
X40202Y-47298D03*
G54D14*
X51225Y-27025D03*
X51225Y-26431D03*
X51819Y-26431D03*
X51819Y-27025D03*
X51819Y-27619D03*
X51225Y-27619D03*
X50631Y-27619D03*
X50631Y-27025D03*
X50631Y-26431D03*
G54D13*
X38150Y-27200D03*
X37717Y-27200D03*
X37717Y-26767D03*
X38150Y-26767D03*
X38583Y-26767D03*
X38583Y-27200D03*
X38583Y-27633D03*
X38150Y-27633D03*
X37717Y-27633D03*
X46300Y-31600D03*
X46039Y-31339D03*
X46561Y-31339D03*
X46561Y-31861D03*
X46039Y-31861D03*
G54D15*
X59500Y-29000D03*
G54D16*
X60500Y-29000D03*
X59500Y-30000D03*
X60500Y-30000D03*
X59500Y-31000D03*
X60500Y-31000D03*
X59500Y-32000D03*
X60500Y-32000D03*
X59500Y-33000D03*
X60500Y-33000D03*
X59500Y-34000D03*
X60500Y-34000D03*
X59500Y-35000D03*
X60500Y-35000D03*
X59500Y-36000D03*
X60500Y-36000D03*
G54D15*
X66500Y-48500D03*
G54D16*
X66500Y-49500D03*
X65500Y-48500D03*
X65500Y-49500D03*
X64500Y-48500D03*
X64500Y-49500D03*
X63500Y-48500D03*
X63500Y-49500D03*
X62500Y-48500D03*
X62500Y-49500D03*
X61500Y-48500D03*
X61500Y-49500D03*
G54D15*
X78500Y-43500D03*
G54D16*
X77500Y-43500D03*
X78500Y-42500D03*
X77500Y-42500D03*
X78500Y-41500D03*
X77500Y-41500D03*
X78500Y-40500D03*
X77500Y-40500D03*
X78500Y-39500D03*
X77500Y-39500D03*
X78500Y-38500D03*
X77500Y-38500D03*
G54D15*
X78500Y-35500D03*
G54D16*
X77500Y-35500D03*
X78500Y-34500D03*
X77500Y-34500D03*
X78500Y-33500D03*
X77500Y-33500D03*
X78500Y-32500D03*
X77500Y-32500D03*
X78500Y-31500D03*
X77500Y-31500D03*
G54D15*
X50500Y-49500D03*
G54D16*
X50500Y-48500D03*
X51500Y-49500D03*
X51500Y-48500D03*
X52500Y-49500D03*
X52500Y-48500D03*
X53500Y-49500D03*
X53500Y-48500D03*
X54500Y-49500D03*
X54500Y-48500D03*
G54D15*
X76500Y-29000D03*
G54D16*
X76500Y-30000D03*
X75500Y-29000D03*
X75500Y-30000D03*
X74500Y-29000D03*
X74500Y-30000D03*
X73500Y-29000D03*
X73500Y-30000D03*
G54D15*
X78510Y-46500D03*
G54D16*
X78510Y-47500D03*
X77510Y-46500D03*
X77510Y-47500D03*
X76510Y-46500D03*
X76510Y-47500D03*
G54D15*
X69500Y-49500D03*
G54D16*
X70500Y-49500D03*
X71500Y-49500D03*
X72500Y-49500D03*
X73500Y-49500D03*
X74500Y-49500D03*
G54D15*
X47500Y-44500D03*
G54D16*
X47500Y-45500D03*
X47500Y-46500D03*
X47500Y-47500D03*
X47500Y-48500D03*
X47500Y-49500D03*
G54D15*
X63500Y-24000D03*
G54D16*
X64500Y-24000D03*
X65500Y-24000D03*
G54D15*
X63500Y-23000D03*
G54D16*
X64500Y-23000D03*
X65500Y-23000D03*
G54D15*
X63500Y-25000D03*
G54D16*
X64500Y-25000D03*
X65500Y-25000D03*
G54D15*
X63500Y-26000D03*
G54D16*
X64500Y-26000D03*
X65500Y-26000D03*
G54D15*
X67500Y-26000D03*
G54D16*
X67500Y-25000D03*
G54D17*
X43500Y-36500D03*
X42500Y-37500D03*
X44500Y-37500D03*
X44500Y-35500D03*
X42500Y-35500D03*
X35000Y-44500D03*
X36000Y-43500D03*
X34000Y-43500D03*
X34000Y-45500D03*
X36000Y-45500D03*
X43500Y-42500D03*
X42500Y-43500D03*
X44500Y-43500D03*
X44500Y-41500D03*
X42500Y-41500D03*
G54D15*
X54500Y-24000D03*
G54D16*
X54500Y-23000D03*
G54D15*
X77500Y-24000D03*
G54D16*
X77500Y-23000D03*
G54D15*
X77500Y-27000D03*
G54D16*
X77500Y-26000D03*
G54D15*
X42500Y-33500D03*
G54D16*
X43500Y-33500D03*
G54D18*
X26075Y-23075D03*
X80925Y-23075D03*
X80925Y-48925D03*
X26075Y-48925D03*
G54D14*
X52575Y-34275D03*
X52575Y-33625D03*
X53225Y-33625D03*
X53225Y-34275D03*
X53225Y-34925D03*
X52575Y-34925D03*
X51925Y-34925D03*
X51925Y-34275D03*
X51925Y-33625D03*
G54D19*
X63000Y-29900D03*
G54D20*
X63000Y-29400D03*
X63500Y-29900D03*
X63500Y-29400D03*
X64000Y-29900D03*
X64000Y-29400D03*
X64500Y-29900D03*
X64500Y-29400D03*
X65000Y-29900D03*
X65000Y-29400D03*
G54D21*
X73750Y-25000D03*
X73947Y-24705D03*
X73553Y-24705D03*
X73553Y-25295D03*
X73947Y-25295D03*
G54D20*
X52800Y-46400D03*
X45650Y-29000D03*
X48800Y-30200D03*
X47300Y-34310D03*
G54D22*
X49470Y-36330D03*
G54D20*
X48450Y-33500D03*
X50200Y-39880D03*
X50450Y-47150D03*
G54D23*
X53850Y-36180D03*
X56460Y-33110D03*
X56460Y-33550D03*
X54060Y-35880D03*
G54D20*
X47400Y-32300D03*
X47650Y-31150D03*
G54D23*
X38930Y-47230D03*
X38850Y-47960D03*
X44950Y-47000D03*
X45670Y-47790D03*
X39020Y-22820D03*
X44680Y-26560D03*
X36620Y-35260D03*
X35420Y-22550D03*
X40250Y-35260D03*
X34900Y-34400D03*
X45310Y-47400D03*
X43100Y-24150D03*
X42340Y-23280D03*
X34780Y-35640D03*
X37330Y-28590D03*
X40410Y-42350D03*
X38600Y-28630D03*
X41450Y-31410D03*
X38150Y-42350D03*
X35010Y-39720D03*
X36370Y-39100D03*
X39010Y-28610D03*
X46030Y-47120D03*
X41710Y-31150D03*
X33650Y-40400D03*
X37340Y-37710D03*
X40570Y-35690D03*
X45330Y-47030D03*
X38970Y-25670D03*
X43130Y-26360D03*
X36000Y-31500D03*
X40740Y-34770D03*
X36050Y-34550D03*
X36810Y-26610D03*
X40600Y-44770D03*
X42870Y-47040D03*
X34750Y-30250D03*
X40970Y-44750D03*
X43390Y-46520D03*
X37200Y-34500D03*
X40730Y-34350D03*
X37250Y-31500D03*
X34350Y-22550D03*
X40580Y-48550D03*
X43098Y-25298D03*
X39590Y-23020D03*
X41600Y-47570D03*
X42200Y-23670D03*
X40390Y-31410D03*
X43870Y-26410D03*
X41410Y-25250D03*
X40230Y-23850D03*
X38100Y-30350D03*
X35660Y-37040D03*
X38550Y-47360D03*
X33650Y-39550D03*
X34550Y-39500D03*
X36280Y-35280D03*
X39400Y-35520D03*
X34900Y-34750D03*
X41280Y-47760D03*
X38560Y-48220D03*
X42000Y-47190D03*
X36450Y-24300D03*
X40750Y-31420D03*
X41260Y-24230D03*
X40160Y-45620D03*
X39000Y-46870D03*
X39270Y-23190D03*
X44130Y-26170D03*
X39260Y-25930D03*
X42370Y-47570D03*
X36810Y-30200D03*
X36690Y-39250D03*
X34740Y-41100D03*
X37340Y-38560D03*
X39670Y-45890D03*
X39240Y-36530D03*
X36800Y-36850D03*
X41100Y-46180D03*
X39220Y-45050D03*
X62700Y-46100D03*
X62060Y-45810D03*
X57690Y-43610D03*
X62330Y-45130D03*
X61710Y-46540D03*
X72250Y-29600D03*
X71740Y-41300D03*
X75500Y-24750D03*
X73110Y-35040D03*
X73430Y-35210D03*
X73720Y-36910D03*
X75610Y-36730D03*
X72830Y-35860D03*
X72990Y-35540D03*
X75270Y-40640D03*
X74930Y-40070D03*
X74880Y-40430D03*
G54D20*
X76000Y-33150D03*
X72250Y-33000D03*
G54D23*
X61140Y-35260D03*
X63630Y-35750D03*
X61210Y-35700D03*
X63660Y-36110D03*
X61310Y-36060D03*
X66210Y-35570D03*
X61560Y-36350D03*
X66610Y-35640D03*
X65330Y-34130D03*
X73740Y-37710D03*
X64320Y-32500D03*
X72560Y-37690D03*
X67610Y-38790D03*
X66370Y-36240D03*
X66660Y-37010D03*
X66960Y-37490D03*
X67440Y-37760D03*
X67290Y-38100D03*
X67710Y-38440D03*
X66650Y-36620D03*
X67190Y-37210D03*
X62720Y-34080D03*
X64580Y-33700D03*
X62280Y-34350D03*
X64580Y-34080D03*
G54D22*
X79830Y-40270D03*
X80690Y-40200D03*
X76450Y-40350D03*
X76450Y-39200D03*
X76450Y-39900D03*
X63910Y-28530D03*
X64500Y-28250D03*
G54D23*
X68240Y-42920D03*
X67280Y-44690D03*
G54D20*
X49800Y-42500D03*
X51400Y-46300D03*
G54D23*
X71380Y-28550D03*
X71830Y-42950D03*
X54320Y-35640D03*
X56340Y-36940D03*
X57340Y-36940D03*
X64180Y-39980D03*
X51180Y-30230D03*
X65020Y-40750D03*
X47650Y-31600D03*
X52750Y-32450D03*
X51800Y-38500D03*
X50200Y-40360D03*
X47650Y-31950D03*
G54D20*
X68750Y-31650D03*
X51020Y-32840D03*
X61400Y-23300D03*
X38010Y-31900D03*
G54D23*
X35600Y-33100D03*
G54D20*
X76750Y-25000D03*
G54D24*
X53985Y-27515D03*
G54D20*
X71000Y-46100D03*
X76200Y-41050D03*
X37950Y-34850D03*
X33500Y-37200D03*
G54D24*
X40650Y-26900D03*
G54D22*
X35100Y-27300D03*
G54D23*
X53025Y-30975D03*
G54D20*
X52700Y-47600D03*
X42000Y-24700D03*
X35940Y-38470D03*
X74040Y-31190D03*
G54D24*
X40650Y-27950D03*
G54D20*
X50795Y-31665D03*
X41450Y-26400D03*
X38100Y-40130D03*
G54D22*
X35630Y-27300D03*
G54D20*
X40050Y-28600D03*
X33700Y-35650D03*
X72800Y-45050D03*
X46950Y-29650D03*
X69250Y-31650D03*
X35800Y-23650D03*
X73350Y-27650D03*
X74960Y-41560D03*
X45090Y-29500D03*
X70350Y-31690D03*
X38900Y-41650D03*
X42890Y-49050D03*
X47690Y-33200D03*
X41750Y-40350D03*
X73550Y-32200D03*
X51300Y-47600D03*
X63800Y-35350D03*
X36600Y-33850D03*
X52430Y-39990D03*
G54D24*
X71350Y-32850D03*
G54D22*
X52685Y-31375D03*
G54D20*
X35250Y-31900D03*
X66310Y-35140D03*
G54D23*
X54075Y-28675D03*
G54D20*
X48650Y-32200D03*
X56150Y-24900D03*
G54D22*
X35300Y-25050D03*
G54D20*
X40490Y-24680D03*
G54D22*
X35630Y-26500D03*
G54D20*
X57500Y-39850D03*
X76200Y-37900D03*
X69650Y-24150D03*
X36980Y-24100D03*
X69900Y-34300D03*
X65550Y-33250D03*
X53635Y-25975D03*
X55180Y-45010D03*
G54D23*
X35150Y-33100D03*
G54D20*
X44260Y-25300D03*
X49525Y-29435D03*
X36560Y-22550D03*
X33640Y-22950D03*
X42500Y-24700D03*
G54D23*
X52025Y-30975D03*
G54D20*
X49580Y-34160D03*
G54D24*
X36450Y-25700D03*
G54D20*
X53860Y-36890D03*
X38100Y-33200D03*
X67540Y-44230D03*
X51460Y-41280D03*
X73350Y-22350D03*
X68800Y-23950D03*
X54450Y-36150D03*
X53130Y-37260D03*
X49225Y-25125D03*
X72500Y-31100D03*
G54D24*
X55750Y-33750D03*
G54D20*
X48125Y-27425D03*
G54D24*
X57400Y-30800D03*
G54D20*
X51075Y-24225D03*
X34900Y-23200D03*
X72950Y-31900D03*
X76200Y-35150D03*
X40280Y-46320D03*
X74900Y-25000D03*
X38890Y-49050D03*
X36850Y-28700D03*
X64550Y-40800D03*
X55600Y-35100D03*
X33070Y-44460D03*
X37750Y-22950D03*
X55950Y-37790D03*
G54D22*
X70790Y-28050D03*
G54D24*
X35650Y-34600D03*
G54D20*
X34160Y-40500D03*
X45250Y-34600D03*
G54D24*
X35140Y-41500D03*
X48425Y-27825D03*
G54D20*
X55200Y-32800D03*
X33750Y-34750D03*
X49935Y-23225D03*
G54D24*
X73750Y-36320D03*
G54D20*
X71200Y-30040D03*
X43940Y-29720D03*
G54D23*
X55075Y-28675D03*
G54D20*
X38150Y-38200D03*
X43000Y-23500D03*
G54D22*
X53525Y-31375D03*
G54D20*
X40100Y-25190D03*
X73250Y-44200D03*
X35850Y-29050D03*
X76200Y-35950D03*
X72770Y-34260D03*
X35230Y-37040D03*
X61400Y-26300D03*
X50225Y-29835D03*
X67900Y-29100D03*
X58600Y-22900D03*
X67000Y-43190D03*
X72900Y-26500D03*
X76200Y-31100D03*
X80400Y-43600D03*
X61400Y-25300D03*
X69100Y-34300D03*
X57150Y-26100D03*
X33290Y-42550D03*
G54D22*
X35630Y-26900D03*
G54D20*
X63800Y-38900D03*
G54D22*
X71600Y-23500D03*
G54D24*
X55750Y-34300D03*
G54D23*
X55575Y-28675D03*
G54D20*
X53635Y-28125D03*
X44300Y-46320D03*
G54D22*
X52325Y-31415D03*
G54D23*
X70100Y-27500D03*
G54D22*
X54725Y-31375D03*
G54D20*
X45000Y-30900D03*
G54D24*
X34680Y-42180D03*
G54D20*
X40650Y-27400D03*
X71850Y-30550D03*
X35970Y-36150D03*
X70700Y-44200D03*
X48500Y-31450D03*
X71000Y-45300D03*
G54D22*
X72450Y-24400D03*
G54D20*
X39750Y-24050D03*
X36070Y-30860D03*
G54D24*
X51145Y-23445D03*
G54D20*
X49580Y-34640D03*
X33190Y-39620D03*
G54D22*
X54325Y-31375D03*
G54D20*
X76200Y-37100D03*
G54D22*
X53925Y-31375D03*
G54D23*
X36050Y-33100D03*
G54D20*
X38050Y-28700D03*
X52275Y-24225D03*
G54D23*
X53525Y-30975D03*
G54D20*
X38890Y-30650D03*
G54D22*
X34850Y-25950D03*
G54D24*
X48415Y-27045D03*
G54D22*
X35000Y-25500D03*
G54D20*
X49000Y-42100D03*
G54D24*
X51005Y-23005D03*
G54D20*
X58400Y-39500D03*
X55800Y-24400D03*
X43500Y-38700D03*
G54D22*
X55125Y-31375D03*
G54D20*
X46600Y-28050D03*
X79330Y-39490D03*
X37200Y-29130D03*
X33150Y-38000D03*
G54D23*
X52525Y-30975D03*
G54D20*
X35400Y-38930D03*
X50600Y-38900D03*
X38100Y-32700D03*
X37760Y-37710D03*
X38150Y-36900D03*
X33750Y-34050D03*
G54D24*
X35890Y-42320D03*
G54D20*
X33190Y-38790D03*
G54D23*
X54575Y-28675D03*
G54D20*
X33800Y-38670D03*
X51505Y-31265D03*
X62500Y-33000D03*
G54D24*
X50725Y-29835D03*
G54D20*
X36510Y-39870D03*
X72900Y-23500D03*
X37000Y-25700D03*
X52215Y-23225D03*
X36600Y-32150D03*
X57900Y-43200D03*
X53810Y-45010D03*
G54D22*
X71600Y-26000D03*
G54D20*
X37550Y-29550D03*
X71800Y-24000D03*
X57400Y-24900D03*
X61400Y-24300D03*
G54D23*
X51620Y-29390D03*
X70400Y-29650D03*
X36100Y-25500D03*
X61800Y-37050D03*
X63630Y-38280D03*
X60080Y-26420D03*
X37430Y-25680D03*
X64420Y-38540D03*
X60220Y-26080D03*
X37750Y-25420D03*
X36090Y-24630D03*
X62120Y-36860D03*
X68480Y-40710D03*
X44780Y-26900D03*
X36000Y-25950D03*
X67390Y-49290D03*
X67970Y-41810D03*
X44620Y-27220D03*
X67660Y-49530D03*
X34850Y-26330D03*
X46000Y-30000D03*
X39880Y-29130D03*
X71590Y-26500D03*
X75050Y-25450D03*
X71190Y-26830D03*
X72270Y-24000D03*
G54D22*
X69490Y-27840D03*
X68750Y-28710D03*
G54D23*
X64010Y-32720D03*
X60650Y-26060D03*
X64940Y-34130D03*
X59030Y-24610D03*
X70210Y-28110D03*
X51670Y-28620D03*
X68460Y-35140D03*
X56960Y-30050D03*
X68220Y-41230D03*
X44700Y-32300D03*
X46450Y-36600D03*
X67940Y-40990D03*
X47350Y-36600D03*
X45050Y-32350D03*
X60320Y-46400D03*
X46350Y-34060D03*
X51180Y-29850D03*
X65060Y-36190D03*
X57760Y-31520D03*
X57550Y-29130D03*
X51670Y-29010D03*
X63630Y-36820D03*
X49575Y-26375D03*
X67930Y-39250D03*
X62020Y-26880D03*
X57520Y-26850D03*
X64030Y-31800D03*
X56630Y-30180D03*
X68040Y-35150D03*
X52895Y-26425D03*
G54D20*
X37450Y-24500D03*
X51525Y-32465D03*
X54500Y-34300D03*
X39570Y-27010D03*
X39250Y-25300D03*
X38150Y-42800D03*
G54D23*
X52825Y-27335D03*
G54D24*
X52275Y-32475D03*
G54D20*
X51075Y-25405D03*
X52275Y-25415D03*
X53140Y-36100D03*
X35250Y-36400D03*
G54D22*
X52945Y-27695D03*
X49565Y-27045D03*
G54D24*
X36640Y-27250D03*
G54D20*
X54570Y-33380D03*
X49625Y-25925D03*
G54D22*
X53525Y-32475D03*
G54D24*
X50615Y-28785D03*
G54D20*
X37600Y-41150D03*
X33610Y-36600D03*
G54D22*
X49625Y-27585D03*
G54D20*
X54400Y-35100D03*
X73250Y-43000D03*
X56300Y-25800D03*
X67350Y-29600D03*
X75000Y-35150D03*
X81250Y-43200D03*
X48800Y-30750D03*
X46730Y-34310D03*
X65000Y-41250D03*
X58050Y-40400D03*
X55600Y-38600D03*
X39550Y-27800D03*
X65030Y-35270D03*
X46500Y-28850D03*
X66350Y-33100D03*
X64990Y-31000D03*
X50450Y-45900D03*
X69700Y-48250D03*
X65000Y-38900D03*
X64050Y-37540D03*
X57200Y-22200D03*
X45660Y-30400D03*
X57850Y-42700D03*
X47350Y-37750D03*
G54D22*
X49275Y-27415D03*
X49820Y-35960D03*
G54D20*
X67540Y-43020D03*
G54D24*
X44300Y-32400D03*
G54D20*
X46450Y-37750D03*
X48800Y-32700D03*
X73700Y-48250D03*
X70700Y-43000D03*
X75000Y-41050D03*
X75000Y-37900D03*
X39710Y-48650D03*
X75000Y-35950D03*
X43710Y-48650D03*
G54D22*
X72560Y-25570D03*
G54D20*
X70378Y-32904D03*
X78150Y-37100D03*
G54D22*
X71190Y-28050D03*
G54D20*
X72810Y-32920D03*
X68750Y-32850D03*
X75000Y-37100D03*
X66640Y-30840D03*
X62900Y-33550D03*
X42200Y-38750D03*
X63500Y-27740D03*
X48340Y-29160D03*
G54D24*
X44850Y-33300D03*
G54D23*
X67610Y-35160D03*
X49975Y-28485D03*
X62500Y-31850D03*
G54D25*
X50840Y-39880D02*
X50200Y-39880D01*
X52800Y-41840D02*
X50840Y-39880D01*
X52800Y-46400D02*
X52800Y-41840D01*
G54D26*
X54972Y-33758D02*
X55632Y-33098D01*
X53800Y-35990D02*
X53800Y-35770D01*
X53850Y-36040D02*
X53800Y-35990D01*
X53898Y-35672D02*
X53898Y-34122D01*
X55632Y-33098D02*
X55940Y-33098D01*
X53898Y-34122D02*
X54262Y-33758D01*
X55940Y-33098D02*
X56448Y-33098D01*
X53850Y-36180D02*
X53850Y-36040D01*
X56448Y-33098D02*
X56460Y-33110D01*
X54262Y-33758D02*
X54972Y-33758D01*
X53800Y-35770D02*
X53898Y-35672D01*
X56335Y-33425D02*
X55535Y-33425D01*
X55535Y-33425D02*
X55040Y-33920D01*
X54330Y-33920D02*
X55040Y-33920D01*
X56460Y-33550D02*
X56335Y-33425D01*
X54060Y-35880D02*
X54060Y-34190D01*
X54060Y-34190D02*
X54330Y-33920D01*
X38850Y-47310D02*
X38850Y-47960D01*
X38410Y-47960D02*
X38180Y-48190D01*
X38180Y-48190D02*
X38180Y-49050D01*
X44010Y-49550D02*
X38680Y-49550D01*
X44950Y-47000D02*
X45020Y-47070D01*
X38850Y-47960D02*
X38410Y-47960D01*
X38680Y-49550D02*
X38180Y-49050D01*
X45020Y-48540D02*
X44010Y-49550D01*
X45020Y-47070D02*
X45020Y-48540D01*
X38930Y-47230D02*
X38850Y-47310D01*
X43002Y-24390D02*
X43002Y-24812D01*
X35640Y-21862D02*
X38202Y-21862D01*
X45670Y-47790D02*
X45310Y-47430D01*
X35420Y-22082D02*
X35640Y-21862D01*
X44330Y-25910D02*
X44680Y-26260D01*
X39020Y-22680D02*
X39020Y-22820D01*
X43002Y-24812D02*
X44100Y-25910D01*
X35020Y-34400D02*
X35530Y-34910D01*
X34900Y-34400D02*
X35020Y-34400D01*
X36620Y-35260D02*
X40250Y-35260D01*
X43100Y-24292D02*
X43100Y-24150D01*
X45310Y-47430D02*
X45310Y-47400D01*
X42340Y-23390D02*
X43100Y-24150D01*
X44680Y-26260D02*
X44680Y-26560D01*
X36270Y-34910D02*
X36620Y-35260D01*
X35530Y-34910D02*
X36270Y-34910D01*
X42340Y-23280D02*
X42340Y-23390D01*
X38202Y-21862D02*
X39020Y-22680D01*
X43100Y-24292D02*
X43002Y-24390D01*
X35420Y-22550D02*
X35420Y-22082D01*
X44100Y-25910D02*
X44330Y-25910D01*
X37010Y-28350D02*
X35300Y-28350D01*
X34360Y-35220D02*
X34780Y-35640D01*
X37330Y-28590D02*
X37250Y-28590D01*
X37250Y-28590D02*
X37010Y-28350D01*
X35020Y-30138D02*
X35020Y-30360D01*
X35300Y-28350D02*
X34912Y-28738D01*
X34912Y-28738D02*
X34912Y-30030D01*
X33580Y-35220D02*
X34360Y-35220D01*
X34912Y-30030D02*
X35020Y-30138D01*
X35020Y-30360D02*
X33230Y-32150D01*
X33230Y-34870D02*
X33580Y-35220D01*
X33230Y-32150D02*
X33230Y-34870D01*
X38600Y-28630D02*
X38600Y-29160D01*
X40410Y-42350D02*
X38150Y-42350D01*
X40428Y-30988D02*
X41028Y-30988D01*
X38600Y-29160D02*
X40428Y-30988D01*
X41028Y-30988D02*
X41450Y-31410D01*
X45940Y-47030D02*
X45330Y-47030D01*
X40496Y-30826D02*
X41386Y-30826D01*
X46030Y-47120D02*
X45940Y-47030D01*
X36370Y-39100D02*
X35860Y-39100D01*
X37600Y-37320D02*
X38940Y-37320D01*
X41386Y-30826D02*
X41710Y-31150D01*
X38940Y-37320D02*
X40570Y-35690D01*
X34830Y-39900D02*
X35010Y-39720D01*
X37340Y-38130D02*
X36370Y-39100D01*
X35240Y-39720D02*
X35010Y-39720D01*
X35860Y-39100D02*
X35240Y-39720D01*
X37340Y-37580D02*
X37600Y-37320D01*
X37340Y-37710D02*
X37340Y-38130D01*
X39010Y-29340D02*
X40496Y-30826D01*
X33650Y-40400D02*
X34150Y-39900D01*
X34150Y-39900D02*
X34830Y-39900D01*
X39010Y-28610D02*
X39010Y-29340D01*
X37340Y-37710D02*
X37340Y-37580D01*
X42320Y-26500D02*
X42990Y-26500D01*
X39468Y-25768D02*
X41588Y-25768D01*
X38970Y-25670D02*
X39370Y-25670D01*
X41588Y-25768D02*
X42320Y-26500D01*
X39370Y-25670D02*
X39468Y-25768D01*
X42990Y-26500D02*
X43130Y-26360D01*
X40600Y-44770D02*
X42870Y-47040D01*
X36000Y-32150D02*
X36000Y-31500D01*
X37310Y-34760D02*
X37560Y-34510D01*
X36880Y-34550D02*
X37090Y-34760D01*
X34750Y-28670D02*
X34750Y-28720D01*
X36400Y-33450D02*
X36400Y-32550D01*
X40480Y-34510D02*
X40740Y-34770D01*
X36810Y-26610D02*
X34750Y-28670D01*
X36050Y-34550D02*
X36880Y-34550D01*
X34750Y-28720D02*
X34750Y-30250D01*
X37090Y-34760D02*
X37310Y-34760D01*
X36050Y-33800D02*
X36400Y-33450D01*
X37560Y-34510D02*
X40480Y-34510D01*
X36400Y-32550D02*
X36000Y-32150D01*
X36050Y-34550D02*
X36050Y-33800D01*
X36800Y-32550D02*
X36800Y-33400D01*
X42740Y-46520D02*
X43390Y-46520D01*
X37250Y-31500D02*
X37250Y-32100D01*
X37492Y-34348D02*
X40728Y-34348D01*
X40970Y-44750D02*
X42740Y-46520D01*
X37200Y-33800D02*
X37200Y-34500D01*
X37250Y-32100D02*
X36800Y-32550D01*
X40728Y-34348D02*
X40730Y-34350D01*
X36800Y-33400D02*
X37200Y-33800D01*
X37200Y-34500D02*
X37340Y-34500D01*
X37340Y-34500D02*
X37492Y-34348D01*
X42840Y-24310D02*
X42840Y-25040D01*
X34670Y-21700D02*
X38270Y-21700D01*
X42200Y-23670D02*
X42840Y-24310D01*
X34350Y-22020D02*
X34670Y-21700D01*
X43098Y-25298D02*
X42840Y-25040D01*
X34350Y-22020D02*
X34350Y-22550D01*
X41600Y-47820D02*
X40870Y-48550D01*
X41600Y-47570D02*
X41600Y-47820D01*
X38270Y-21700D02*
X39590Y-23020D01*
X40870Y-48550D02*
X40580Y-48550D01*
X38200Y-30250D02*
X38100Y-30350D01*
X40870Y-24490D02*
X40870Y-24710D01*
X40390Y-31410D02*
X39230Y-30250D01*
X43870Y-26140D02*
X43870Y-26410D01*
X38200Y-30250D02*
X39230Y-30250D01*
X41410Y-25250D02*
X40870Y-24710D01*
X42922Y-25732D02*
X43462Y-25732D01*
X43462Y-25732D02*
X43870Y-26140D01*
X42440Y-25250D02*
X42922Y-25732D01*
X40230Y-23850D02*
X40870Y-24490D01*
X41410Y-25250D02*
X42440Y-25250D01*
X34550Y-39500D02*
X34550Y-38470D01*
X35118Y-42468D02*
X35472Y-42822D01*
X33650Y-39770D02*
X33370Y-40050D01*
X34460Y-41660D02*
X34610Y-41660D01*
X34550Y-39500D02*
X34500Y-39550D01*
X35472Y-42822D02*
X36622Y-42822D01*
X38508Y-44708D02*
X38508Y-47318D01*
X33370Y-40050D02*
X33370Y-40570D01*
X33650Y-39770D02*
X33650Y-39550D01*
X34610Y-41660D02*
X35118Y-42168D01*
X35118Y-42168D02*
X35118Y-42468D01*
X38508Y-47318D02*
X38550Y-47360D01*
X34550Y-38470D02*
X35660Y-37360D01*
X35660Y-37360D02*
X35660Y-37040D01*
X33370Y-40570D02*
X34460Y-41660D01*
X36622Y-42822D02*
X38508Y-44708D01*
X34500Y-39550D02*
X33650Y-39550D01*
X41280Y-47760D02*
X40820Y-48220D01*
X36500Y-35530D02*
X36742Y-35530D01*
X35140Y-34750D02*
X35462Y-35072D01*
X36280Y-35310D02*
X36500Y-35530D01*
X34900Y-34750D02*
X35140Y-34750D01*
X36072Y-35072D02*
X36280Y-35280D01*
X36850Y-35422D02*
X39302Y-35422D01*
X36742Y-35530D02*
X36850Y-35422D01*
X36280Y-35310D02*
X36280Y-35280D01*
X40820Y-48220D02*
X38560Y-48220D01*
X35462Y-35072D02*
X36072Y-35072D01*
X39302Y-35422D02*
X39400Y-35520D01*
X42258Y-26668D02*
X44000Y-26668D01*
X40160Y-45620D02*
X40140Y-45620D01*
X44000Y-26668D02*
X44130Y-26538D01*
X37050Y-23290D02*
X39170Y-23290D01*
X41520Y-25930D02*
X42258Y-26668D01*
X42000Y-47200D02*
X42000Y-47190D01*
X42370Y-47570D02*
X42000Y-47200D01*
X36450Y-24300D02*
X36450Y-23890D01*
X39150Y-46870D02*
X39000Y-46870D01*
X41260Y-24710D02*
X41600Y-25050D01*
X40140Y-45620D02*
X39960Y-45800D01*
X41730Y-47190D02*
X40160Y-45620D01*
X40730Y-31370D02*
X40510Y-31150D01*
X36450Y-23890D02*
X37050Y-23290D01*
X39260Y-25930D02*
X41520Y-25930D01*
X42470Y-25050D02*
X42990Y-25570D01*
X41260Y-24230D02*
X41260Y-24710D01*
X40510Y-31150D02*
X40360Y-31150D01*
X36922Y-30088D02*
X36810Y-30200D01*
X44130Y-26538D02*
X44130Y-26170D01*
X41600Y-25050D02*
X42470Y-25050D01*
X39298Y-30088D02*
X36922Y-30088D01*
X41730Y-47190D02*
X42000Y-47190D01*
X40750Y-31420D02*
X40730Y-31400D01*
X39960Y-46060D02*
X39150Y-46870D01*
X40730Y-31400D02*
X40730Y-31370D01*
X42990Y-25570D02*
X43530Y-25570D01*
X40360Y-31150D02*
X39298Y-30088D01*
X39960Y-45800D02*
X39960Y-46060D01*
X39170Y-23290D02*
X39270Y-23190D01*
X43530Y-25570D02*
X44130Y-26170D01*
X36690Y-42660D02*
X38670Y-44640D01*
X34740Y-41100D02*
X35570Y-41100D01*
X35540Y-42660D02*
X36690Y-42660D01*
X38670Y-44890D02*
X38670Y-44640D01*
X36690Y-39210D02*
X36690Y-39250D01*
X35280Y-42100D02*
X35280Y-42400D01*
X34740Y-41560D02*
X35280Y-42100D01*
X35960Y-39940D02*
X36650Y-39250D01*
X35570Y-41100D02*
X35960Y-40710D01*
X39670Y-45890D02*
X38670Y-44890D01*
X35960Y-40710D02*
X35960Y-39940D01*
X34740Y-41100D02*
X34740Y-41560D01*
X35280Y-42400D02*
X35540Y-42660D01*
X37340Y-38560D02*
X36690Y-39210D01*
X36650Y-39250D02*
X36690Y-39250D01*
X36800Y-36850D02*
X37530Y-36850D01*
X39970Y-45050D02*
X39220Y-45050D01*
X37530Y-36850D02*
X37850Y-36530D01*
X37850Y-36530D02*
X39240Y-36530D01*
X41100Y-46180D02*
X39970Y-45050D01*
X53000Y-48124D02*
X53858Y-47266D01*
X61864Y-47266D02*
X62700Y-46430D01*
X50000Y-49000D02*
X52790Y-49000D01*
X62700Y-46430D02*
X62700Y-46100D01*
X47500Y-47500D02*
X48500Y-47500D01*
X53858Y-47266D02*
X61864Y-47266D01*
X52790Y-49000D02*
X53000Y-48790D01*
X53000Y-48790D02*
X53000Y-48124D01*
X48500Y-47500D02*
X50000Y-49000D01*
X47500Y-45500D02*
X49300Y-45500D01*
X49300Y-45500D02*
X50742Y-46942D01*
X61538Y-46942D02*
X61688Y-46942D01*
X50742Y-46942D02*
X61538Y-46942D01*
X62060Y-46570D02*
X62060Y-45810D01*
X61688Y-46942D02*
X62060Y-46570D01*
X61410Y-44210D02*
X62330Y-45130D01*
X50770Y-48000D02*
X52894Y-48000D01*
X58290Y-44210D02*
X61410Y-44210D01*
X52894Y-48000D02*
X53790Y-47104D01*
X49270Y-46500D02*
X47500Y-46500D01*
X62330Y-46530D02*
X62330Y-45130D01*
X49270Y-46500D02*
X50770Y-48000D01*
X57690Y-43610D02*
X58290Y-44210D01*
X61756Y-47104D02*
X62330Y-46530D01*
X53790Y-47104D02*
X61530Y-47104D01*
X61530Y-47104D02*
X61756Y-47104D01*
X48530Y-44500D02*
X47500Y-44500D01*
X61470Y-46780D02*
X61710Y-46540D01*
X50810Y-46780D02*
X61470Y-46780D01*
X48530Y-44500D02*
X50810Y-46780D01*
X72420Y-27750D02*
X74078Y-26092D01*
X74858Y-26092D02*
X75500Y-25450D01*
X70952Y-30888D02*
X72270Y-29570D01*
X71740Y-41300D02*
X71382Y-41300D01*
X70952Y-40870D02*
X70952Y-30888D01*
X72250Y-29600D02*
X72270Y-29580D01*
X75500Y-25450D02*
X75500Y-24750D01*
X72270Y-29570D02*
X72420Y-29420D01*
X71382Y-41300D02*
X70952Y-40870D01*
X72270Y-29580D02*
X72270Y-29570D01*
X74078Y-26092D02*
X74858Y-26092D01*
X72420Y-29420D02*
X72420Y-27750D01*
X73270Y-34880D02*
X73530Y-34880D01*
X77230Y-34000D02*
X78000Y-34000D01*
X74072Y-34338D02*
X76892Y-34338D01*
X78000Y-34000D02*
X78500Y-34500D01*
X73530Y-34880D02*
X74072Y-34338D01*
X73110Y-35040D02*
X73270Y-34880D01*
X76892Y-34338D02*
X77230Y-34000D01*
X74140Y-34500D02*
X77500Y-34500D01*
X73430Y-35210D02*
X74140Y-34500D01*
X73720Y-36910D02*
X73900Y-36730D01*
X73900Y-36730D02*
X75610Y-36730D01*
X73440Y-35840D02*
X73730Y-35550D01*
X77980Y-36020D02*
X78500Y-35500D01*
X72830Y-35860D02*
X72850Y-35840D01*
X73730Y-35550D02*
X76710Y-35550D01*
X76710Y-35550D02*
X77180Y-36020D01*
X72850Y-35840D02*
X73440Y-35840D01*
X77180Y-36020D02*
X77980Y-36020D01*
X73020Y-35510D02*
X73540Y-35510D01*
X74388Y-34662D02*
X76662Y-34662D01*
X73540Y-35510D02*
X74388Y-34662D01*
X72990Y-35540D02*
X73020Y-35510D01*
X76662Y-34662D02*
X77500Y-35500D01*
X77010Y-45270D02*
X77010Y-47000D01*
X75270Y-40640D02*
X75306Y-40640D01*
X75306Y-40640D02*
X75426Y-40760D01*
X77010Y-47000D02*
X77510Y-47500D01*
X75426Y-40760D02*
X75426Y-43686D01*
X75426Y-43686D02*
X77010Y-45270D01*
X78020Y-45820D02*
X78020Y-47010D01*
X75410Y-40070D02*
X74930Y-40070D01*
X75750Y-40890D02*
X75750Y-43550D01*
X75750Y-40890D02*
X75750Y-40410D01*
X78510Y-47500D02*
X78020Y-47010D01*
X75750Y-43550D02*
X78020Y-45820D01*
X75750Y-40410D02*
X75410Y-40070D01*
X77510Y-45540D02*
X77510Y-46500D01*
X75150Y-40232D02*
X75342Y-40232D01*
X75588Y-43618D02*
X77510Y-45540D01*
X75588Y-40478D02*
X75588Y-43618D01*
X75342Y-40232D02*
X75588Y-40478D01*
X74880Y-40430D02*
X74952Y-40430D01*
X74952Y-40430D02*
X75150Y-40232D01*
X75850Y-33300D02*
X76000Y-33150D01*
X72250Y-33000D02*
X72550Y-33300D01*
X72550Y-33300D02*
X75850Y-33300D01*
X63630Y-35750D02*
X61630Y-35750D01*
X61630Y-35750D02*
X61140Y-35260D01*
X61562Y-35912D02*
X61350Y-35700D01*
X63608Y-36110D02*
X63410Y-35912D01*
X63660Y-36110D02*
X63608Y-36110D01*
X63410Y-35912D02*
X61562Y-35912D01*
X61350Y-35700D02*
X61210Y-35700D01*
X63840Y-36380D02*
X63540Y-36380D01*
X63540Y-36380D02*
X63234Y-36074D01*
X66210Y-35570D02*
X66060Y-35720D01*
X61324Y-36074D02*
X61310Y-36060D01*
X64500Y-35720D02*
X64380Y-35840D01*
X66060Y-35720D02*
X64500Y-35720D01*
X63234Y-36074D02*
X61324Y-36074D01*
X64380Y-35840D02*
X63840Y-36380D01*
X63472Y-36542D02*
X63166Y-36236D01*
X66610Y-35640D02*
X66368Y-35882D01*
X61674Y-36236D02*
X61560Y-36350D01*
X63908Y-36542D02*
X63472Y-36542D01*
X64568Y-35882D02*
X63908Y-36542D01*
X66368Y-35882D02*
X64568Y-35882D01*
X63166Y-36236D02*
X61674Y-36236D01*
X65330Y-33810D02*
X65330Y-34130D01*
X64335Y-32815D02*
X65330Y-33810D01*
X72580Y-37710D02*
X73740Y-37710D01*
X64335Y-32515D02*
X64335Y-32815D01*
X72560Y-37690D02*
X72580Y-37710D01*
X74500Y-49500D02*
X74500Y-38470D01*
X64320Y-32500D02*
X64335Y-32515D01*
X74500Y-38470D02*
X73740Y-37710D01*
X67504Y-40966D02*
X67504Y-38896D01*
X65838Y-42632D02*
X67504Y-40966D01*
X67504Y-38896D02*
X67610Y-38790D01*
X65838Y-46692D02*
X65838Y-42632D01*
X65500Y-48500D02*
X65500Y-47030D01*
X65500Y-47030D02*
X65838Y-46692D01*
X62330Y-48070D02*
X62850Y-48070D01*
X64704Y-42156D02*
X66370Y-40490D01*
X61500Y-48500D02*
X61900Y-48500D01*
X61900Y-48500D02*
X62330Y-48070D01*
X62850Y-48070D02*
X64704Y-46216D01*
X64704Y-46216D02*
X64704Y-42156D01*
X66370Y-40490D02*
X66370Y-36240D01*
X66532Y-37138D02*
X66660Y-37010D01*
X62650Y-48500D02*
X64866Y-46284D01*
X64866Y-42224D02*
X66532Y-40558D01*
X62500Y-48500D02*
X62650Y-48500D01*
X64866Y-46284D02*
X64866Y-42224D01*
X66532Y-40558D02*
X66532Y-37138D01*
X63500Y-48500D02*
X63500Y-48110D01*
X63500Y-48110D02*
X65190Y-46420D01*
X66856Y-37594D02*
X66960Y-37490D01*
X63500Y-48500D02*
X63500Y-48270D01*
X65190Y-42360D02*
X66856Y-40694D01*
X65190Y-46420D02*
X65190Y-42360D01*
X66856Y-40694D02*
X66856Y-37594D01*
X65000Y-47300D02*
X65676Y-46624D01*
X67560Y-37880D02*
X67440Y-37760D01*
X64500Y-49500D02*
X65000Y-49000D01*
X65000Y-49000D02*
X65000Y-47300D01*
X67342Y-38428D02*
X67560Y-38210D01*
X67342Y-40898D02*
X67342Y-38428D01*
X67560Y-38210D02*
X67560Y-37880D01*
X65676Y-42564D02*
X67342Y-40898D01*
X65676Y-46624D02*
X65676Y-42564D01*
X67180Y-40830D02*
X67180Y-38210D01*
X64500Y-48500D02*
X64500Y-47570D01*
X67180Y-38210D02*
X67290Y-38100D01*
X64500Y-47570D02*
X65514Y-46556D01*
X65514Y-46556D02*
X65514Y-42496D01*
X65514Y-42496D02*
X67180Y-40830D01*
X67666Y-41034D02*
X67666Y-39114D01*
X65500Y-49500D02*
X66000Y-49000D01*
X67666Y-39114D02*
X67880Y-38900D01*
X67880Y-38900D02*
X67880Y-38610D01*
X67880Y-38610D02*
X67710Y-38440D01*
X66000Y-49000D02*
X66000Y-42700D01*
X66000Y-42700D02*
X67666Y-41034D01*
X66694Y-37366D02*
X66930Y-37130D01*
X63000Y-49000D02*
X62500Y-49500D01*
X65028Y-42292D02*
X66694Y-40626D01*
X65028Y-46352D02*
X65028Y-42292D01*
X63000Y-48380D02*
X65028Y-46352D01*
X66694Y-40626D02*
X66694Y-37366D01*
X63000Y-49000D02*
X63000Y-48380D01*
X66930Y-36900D02*
X66650Y-36620D01*
X66930Y-37130D02*
X66930Y-36900D01*
X65352Y-46488D02*
X65352Y-42428D01*
X64000Y-47840D02*
X65352Y-46488D01*
X63500Y-49500D02*
X64000Y-49000D01*
X67230Y-37250D02*
X67190Y-37210D01*
X64000Y-49000D02*
X64000Y-47840D01*
X65352Y-42428D02*
X67018Y-40762D01*
X67018Y-40762D02*
X67018Y-37812D01*
X67230Y-37600D02*
X67230Y-37250D01*
X67018Y-37812D02*
X67230Y-37600D01*
X64580Y-33700D02*
X64200Y-34080D01*
X64200Y-34080D02*
X62720Y-34080D01*
X64418Y-34242D02*
X62958Y-34242D01*
X64580Y-34080D02*
X64418Y-34242D01*
X62850Y-34350D02*
X62280Y-34350D01*
X62958Y-34242D02*
X62850Y-34350D01*
X79830Y-40270D02*
X79600Y-40500D01*
X79600Y-40500D02*
X78500Y-40500D01*
X80700Y-41300D02*
X78500Y-43500D01*
X80690Y-40200D02*
X80700Y-40210D01*
X80700Y-40210D02*
X80700Y-41300D01*
X77500Y-41400D02*
X77500Y-41500D01*
X76450Y-40350D02*
X77500Y-41400D01*
X77150Y-38500D02*
X77500Y-38500D01*
X76450Y-39200D02*
X77150Y-38500D01*
X76850Y-39500D02*
X77500Y-39500D01*
X76450Y-39900D02*
X76850Y-39500D01*
X63500Y-28940D02*
X63500Y-29400D01*
X63910Y-28530D02*
X63500Y-28940D01*
X64500Y-28250D02*
X64500Y-29400D01*
X68240Y-42920D02*
X68240Y-45140D01*
X72500Y-49400D02*
X72500Y-49500D01*
X68240Y-45140D02*
X72500Y-49400D01*
X72290Y-50000D02*
X73000Y-50000D01*
X67560Y-44690D02*
X72000Y-49130D01*
X67280Y-44690D02*
X67560Y-44690D01*
X72000Y-49710D02*
X72290Y-50000D01*
X73000Y-50000D02*
X73500Y-49500D01*
X72000Y-49130D02*
X72000Y-49710D01*
G54D27*
X51400Y-44100D02*
X49800Y-42500D01*
X51400Y-46300D02*
X51400Y-44100D01*
G54D26*
X71830Y-42950D02*
X70790Y-41910D01*
X70790Y-41910D02*
X70790Y-41880D01*
X70790Y-29140D02*
X71380Y-28550D01*
X70790Y-41880D02*
X70790Y-29140D01*
X56340Y-36940D02*
X55040Y-35640D01*
X61144Y-36944D02*
X57344Y-36944D01*
X57344Y-36944D02*
X57340Y-36940D01*
X64180Y-39980D02*
X61144Y-36944D01*
X55040Y-35640D02*
X54320Y-35640D01*
X57060Y-37070D02*
X57060Y-31510D01*
X57060Y-31510D02*
X55564Y-30014D01*
X57240Y-37250D02*
X57060Y-37070D01*
X64070Y-40270D02*
X63890Y-40090D01*
X51396Y-30014D02*
X51180Y-30230D01*
X63890Y-40090D02*
X63890Y-39920D01*
X63890Y-39920D02*
X61076Y-37106D01*
X57430Y-37250D02*
X57240Y-37250D01*
X57574Y-37106D02*
X57430Y-37250D01*
X61076Y-37106D02*
X57574Y-37106D01*
X65020Y-40750D02*
X65020Y-40740D01*
X64550Y-40270D02*
X64070Y-40270D01*
X55564Y-30014D02*
X51396Y-30014D01*
X65020Y-40740D02*
X64550Y-40270D01*
G54D28*
X51280Y-33500D02*
X51280Y-37980D01*
X52750Y-32450D02*
X52300Y-32000D01*
X51280Y-37980D02*
X51800Y-38500D01*
X48890Y-31790D02*
X47840Y-31790D01*
X47840Y-31790D02*
X47650Y-31600D01*
X51910Y-32870D02*
X51280Y-33500D01*
X52750Y-32710D02*
X52590Y-32870D01*
X52750Y-32450D02*
X52750Y-32710D01*
X49100Y-32000D02*
X48890Y-31790D01*
X52590Y-32870D02*
X51910Y-32870D01*
X52300Y-32000D02*
X49100Y-32000D01*
X48060Y-38960D02*
X48060Y-32360D01*
X49460Y-40360D02*
X48060Y-38960D01*
X50200Y-40360D02*
X49460Y-40360D01*
X48060Y-32360D02*
X47650Y-31950D01*
G54D25*
X38583Y-27633D02*
X37717Y-27633D01*
X51925Y-33625D02*
X53225Y-33625D01*
X43798Y-47298D02*
X44202Y-47298D01*
X46561Y-31339D02*
X46039Y-31339D01*
X73947Y-25295D02*
X73553Y-25295D01*
X37717Y-27633D02*
X37717Y-26767D01*
X44202Y-47298D02*
X44202Y-47702D01*
X44202Y-47702D02*
X43798Y-47702D01*
X50631Y-26431D02*
X51819Y-27619D01*
X38583Y-26767D02*
X38583Y-27633D01*
X50631Y-27619D02*
X50631Y-26431D01*
X37717Y-27633D02*
X37717Y-26767D01*
X38583Y-27633D02*
X37717Y-27633D01*
X73553Y-24705D02*
X73947Y-24705D01*
X51925Y-34275D02*
X53225Y-34275D01*
X50631Y-26431D02*
X51819Y-26431D01*
X51925Y-34925D02*
X51925Y-33625D01*
X40202Y-47298D02*
X40202Y-47702D01*
X52575Y-33625D02*
X52575Y-34925D01*
X40202Y-47702D02*
X39798Y-47702D01*
X46039Y-31861D02*
X46039Y-31339D01*
X39798Y-47298D02*
X40202Y-47298D01*
X38583Y-26767D02*
X38583Y-27633D01*
X51925Y-33625D02*
X53225Y-34925D01*
X37717Y-26767D02*
X38583Y-26767D01*
X73947Y-24705D02*
X73947Y-25295D01*
X51819Y-26431D02*
X51819Y-27619D01*
X51819Y-27619D02*
X50631Y-27619D01*
X46561Y-31339D02*
X46561Y-31861D01*
X46039Y-31339D02*
X46561Y-31861D01*
X43798Y-47702D02*
X43798Y-47298D01*
X50631Y-27619D02*
X51819Y-26431D01*
X53225Y-34925D02*
X51925Y-34925D01*
X37717Y-26767D02*
X38583Y-27633D01*
X39798Y-47702D02*
X39798Y-47298D01*
X73553Y-25295D02*
X73553Y-24705D01*
X46561Y-31861D02*
X46039Y-31861D01*
X37717Y-27633D02*
X38583Y-26767D01*
X51925Y-34925D02*
X53225Y-33625D01*
X53225Y-33625D02*
X53225Y-34925D01*
G54D28*
X67400Y-27900D02*
X63950Y-27900D01*
X63750Y-28100D02*
X59520Y-28100D01*
X70400Y-29650D02*
X69150Y-29650D01*
X63950Y-27900D02*
X63750Y-28100D01*
X59520Y-28100D02*
X58220Y-29400D01*
X51630Y-29400D02*
X58220Y-29400D01*
X51620Y-29390D02*
X51630Y-29400D01*
X69150Y-29650D02*
X67400Y-27900D01*
G54D26*
X63630Y-38280D02*
X63630Y-37980D01*
X37430Y-25680D02*
X38300Y-25680D01*
X36230Y-25370D02*
X36100Y-25500D01*
X63630Y-37980D02*
X62672Y-37022D01*
X37120Y-25370D02*
X36230Y-25370D01*
X61880Y-37130D02*
X61800Y-37050D01*
X39240Y-23990D02*
X40720Y-22510D01*
X60080Y-26420D02*
X56170Y-22510D01*
X62358Y-37022D02*
X62250Y-37130D01*
X62672Y-37022D02*
X62358Y-37022D01*
X37430Y-25680D02*
X37120Y-25370D01*
X39240Y-24740D02*
X39240Y-23990D01*
X38300Y-25680D02*
X39240Y-24740D01*
X40720Y-22510D02*
X56170Y-22510D01*
X62250Y-37130D02*
X61880Y-37130D01*
X62740Y-36860D02*
X62120Y-36860D01*
X39078Y-23922D02*
X40652Y-22348D01*
X37750Y-25420D02*
X38330Y-25420D01*
X59970Y-26080D02*
X60220Y-26080D01*
X39078Y-24672D02*
X39078Y-23922D01*
X37750Y-25420D02*
X37540Y-25210D01*
X37540Y-25210D02*
X36670Y-25210D01*
X36670Y-25210D02*
X36090Y-24630D01*
X56238Y-22348D02*
X59970Y-26080D01*
X40652Y-22348D02*
X56238Y-22348D01*
X38330Y-25420D02*
X39078Y-24672D01*
X64420Y-38540D02*
X62740Y-36860D01*
X67390Y-48020D02*
X67390Y-49290D01*
X37440Y-26040D02*
X36090Y-26040D01*
X36090Y-26040D02*
X36000Y-25950D01*
X39390Y-26190D02*
X39130Y-26190D01*
X68293Y-41547D02*
X67843Y-41547D01*
X40652Y-26092D02*
X39488Y-26092D01*
X68480Y-40710D02*
X68490Y-40720D01*
X39130Y-26190D02*
X38840Y-25900D01*
X68490Y-40720D02*
X68490Y-41350D01*
X68490Y-41350D02*
X68293Y-41547D01*
X66486Y-42904D02*
X66486Y-47116D01*
X38840Y-25900D02*
X37580Y-25900D01*
X66486Y-47116D02*
X67390Y-48020D01*
X41390Y-26830D02*
X40652Y-26092D01*
X39488Y-26092D02*
X39390Y-26190D01*
X37580Y-25900D02*
X37440Y-26040D01*
X67843Y-41547D02*
X66486Y-42904D01*
X44710Y-26830D02*
X41390Y-26830D01*
X44780Y-26900D02*
X44710Y-26830D01*
X37648Y-26062D02*
X37500Y-26210D01*
X67590Y-42030D02*
X66648Y-42972D01*
X67970Y-41810D02*
X67750Y-42030D01*
X66648Y-42972D02*
X66648Y-47048D01*
X39458Y-26352D02*
X39062Y-26352D01*
X40584Y-26254D02*
X39556Y-26254D01*
X44420Y-26992D02*
X41322Y-26992D01*
X44620Y-27192D02*
X44420Y-26992D01*
X67750Y-42030D02*
X67590Y-42030D01*
X39556Y-26254D02*
X39458Y-26352D01*
X38772Y-26062D02*
X37648Y-26062D01*
X39062Y-26352D02*
X38772Y-26062D01*
X41322Y-26992D02*
X40584Y-26254D01*
X67660Y-48060D02*
X67660Y-49530D01*
X34850Y-26330D02*
X34970Y-26210D01*
X34970Y-26210D02*
X37500Y-26210D01*
X66648Y-47048D02*
X67660Y-48060D01*
X44620Y-27220D02*
X44620Y-27192D01*
G54D28*
X44970Y-30000D02*
X44100Y-29130D01*
X46000Y-30000D02*
X44970Y-30000D01*
X44100Y-29130D02*
X39880Y-29130D01*
G54D26*
X71590Y-26500D02*
X72160Y-25930D01*
X74570Y-25930D02*
X75050Y-25450D01*
X72160Y-25930D02*
X74570Y-25930D01*
X72270Y-24000D02*
X72270Y-24110D01*
X72270Y-24110D02*
X71190Y-25190D01*
X71190Y-25190D02*
X71190Y-26830D01*
X68750Y-28710D02*
X69490Y-27970D01*
X69490Y-27970D02*
X69490Y-27840D01*
X64880Y-34070D02*
X64880Y-33590D01*
X59200Y-24610D02*
X59030Y-24610D01*
X60650Y-26060D02*
X59200Y-24610D01*
X64880Y-33590D02*
X64010Y-32720D01*
X64940Y-34130D02*
X64880Y-34070D01*
X51670Y-28620D02*
X53710Y-28620D01*
X69300Y-27200D02*
X70210Y-28110D01*
X53710Y-28620D02*
X55130Y-27200D01*
X55130Y-27200D02*
X69300Y-27200D01*
X57824Y-30146D02*
X58470Y-29500D01*
X68460Y-35140D02*
X68460Y-34240D01*
X56960Y-30050D02*
X57056Y-30146D01*
X58470Y-29500D02*
X60800Y-29500D01*
X68460Y-34240D02*
X65370Y-31150D01*
X57056Y-30146D02*
X57824Y-30146D01*
X65370Y-31150D02*
X65370Y-30830D01*
X65370Y-30830D02*
X65170Y-30630D01*
X65170Y-30630D02*
X61930Y-30630D01*
X61930Y-30630D02*
X60800Y-29500D01*
X44920Y-32620D02*
X44700Y-32400D01*
X67112Y-47972D02*
X67112Y-49748D01*
X68065Y-41385D02*
X67775Y-41385D01*
X66758Y-50102D02*
X47232Y-50102D01*
X44700Y-32400D02*
X44700Y-32300D01*
X46818Y-35178D02*
X45908Y-34268D01*
X66324Y-47184D02*
X67112Y-47972D01*
X66324Y-42836D02*
X66324Y-47184D01*
X45908Y-34268D02*
X45908Y-33438D01*
X46450Y-36600D02*
X46818Y-36600D01*
X45090Y-32620D02*
X44920Y-32620D01*
X67775Y-41385D02*
X66324Y-42836D01*
X68220Y-41230D02*
X68065Y-41385D01*
X46818Y-36600D02*
X46818Y-35178D01*
X67112Y-49748D02*
X66758Y-50102D01*
X47232Y-50102D02*
X46818Y-49688D01*
X46818Y-49688D02*
X46818Y-36600D01*
X45908Y-33438D02*
X45090Y-32620D01*
X66690Y-49940D02*
X47300Y-49940D01*
X66162Y-47252D02*
X66950Y-48040D01*
X66162Y-42768D02*
X66162Y-47252D01*
X66950Y-49680D02*
X66690Y-49940D01*
X66950Y-48040D02*
X66950Y-49680D01*
X47350Y-36600D02*
X46980Y-36600D01*
X47300Y-49940D02*
X46980Y-49620D01*
X46980Y-36600D02*
X46980Y-49620D01*
X46070Y-33370D02*
X45050Y-32350D01*
X46980Y-36600D02*
X46980Y-35110D01*
X46980Y-35110D02*
X46070Y-34200D01*
X46070Y-34200D02*
X46070Y-33370D01*
X66162Y-42768D02*
X67940Y-40990D01*
G54D28*
X47270Y-30990D02*
X47270Y-31920D01*
X58060Y-45180D02*
X56790Y-43910D01*
X60320Y-46400D02*
X59100Y-45180D01*
X59100Y-45180D02*
X58060Y-45180D01*
X56790Y-43910D02*
X56790Y-32940D01*
X50820Y-31100D02*
X51430Y-31710D01*
X51430Y-31710D02*
X55560Y-31710D01*
X55560Y-31710D02*
X56790Y-32940D01*
X48230Y-30780D02*
X48550Y-31100D01*
X48550Y-31100D02*
X50820Y-31100D01*
X47270Y-30990D02*
X47480Y-30780D01*
X47480Y-30780D02*
X48230Y-30780D01*
X46350Y-32840D02*
X46350Y-34060D01*
X47270Y-31920D02*
X46350Y-32840D01*
G54D26*
X63900Y-36780D02*
X63900Y-36940D01*
X63900Y-36940D02*
X63750Y-37090D01*
X57575Y-31795D02*
X55632Y-29852D01*
X51182Y-29852D02*
X51180Y-29850D01*
X57805Y-31795D02*
X58848Y-32838D01*
X62990Y-36560D02*
X61960Y-36560D01*
X63750Y-37090D02*
X63520Y-37090D01*
X58848Y-32838D02*
X58848Y-36198D01*
X61738Y-36782D02*
X59432Y-36782D01*
X61960Y-36560D02*
X61738Y-36782D01*
X63520Y-37090D02*
X62990Y-36560D01*
X57805Y-31795D02*
X57575Y-31795D01*
X58848Y-36198D02*
X59432Y-36782D01*
X65060Y-36190D02*
X64490Y-36190D01*
X64490Y-36190D02*
X63900Y-36780D01*
X55632Y-29852D02*
X51182Y-29852D01*
X63098Y-36398D02*
X61892Y-36398D01*
X61892Y-36398D02*
X61670Y-36620D01*
X63630Y-36820D02*
X63520Y-36710D01*
X63520Y-36710D02*
X63410Y-36710D01*
X57430Y-29010D02*
X57550Y-29130D01*
X59500Y-36620D02*
X59010Y-36130D01*
X59010Y-36130D02*
X59010Y-32770D01*
X61670Y-36620D02*
X59500Y-36620D01*
X57430Y-29010D02*
X51670Y-29010D01*
X59010Y-32770D02*
X57760Y-31520D01*
X63410Y-36710D02*
X63098Y-36398D01*
X64620Y-32870D02*
X64620Y-32390D01*
X57520Y-27038D02*
X53128Y-27038D01*
X68042Y-39138D02*
X68042Y-36292D01*
X64620Y-32390D02*
X64030Y-31800D01*
X51850Y-25760D02*
X50450Y-25760D01*
X50450Y-25760D02*
X49835Y-26375D01*
X67930Y-39250D02*
X68042Y-39138D01*
X57520Y-26850D02*
X57520Y-27038D01*
X62020Y-26880D02*
X61862Y-27038D01*
X49835Y-26375D02*
X49575Y-26375D01*
X68042Y-36292D02*
X64620Y-32870D01*
X61862Y-27038D02*
X57520Y-27038D01*
X53128Y-27038D02*
X51850Y-25760D01*
X57798Y-30308D02*
X56758Y-30308D01*
X56758Y-30308D02*
X56630Y-30180D01*
X61618Y-31348D02*
X60770Y-30500D01*
X68040Y-34050D02*
X65338Y-31348D01*
X57990Y-30500D02*
X57798Y-30308D01*
X65338Y-31348D02*
X61618Y-31348D01*
X68040Y-35150D02*
X68040Y-34050D01*
X60770Y-30500D02*
X57990Y-30500D01*
G54D27*
X48950Y-28550D02*
X48340Y-29160D01*
X49265Y-27415D02*
X48950Y-27730D01*
X49275Y-27415D02*
X49265Y-27415D01*
X48950Y-27730D02*
X48950Y-28550D01*
G54D26*
X67610Y-35160D02*
X67610Y-33850D01*
X65270Y-31510D02*
X62500Y-31510D01*
X62500Y-31510D02*
X62100Y-31510D01*
X62100Y-31510D02*
X58770Y-31510D01*
X51000Y-29210D02*
X50390Y-29210D01*
X50390Y-29210D02*
X49975Y-28795D01*
X57730Y-30470D02*
X56480Y-30470D01*
X49975Y-28795D02*
X49975Y-28485D01*
X67610Y-33850D02*
X65270Y-31510D01*
X62500Y-31510D02*
X62500Y-31850D01*
X56480Y-30470D02*
X55700Y-29690D01*
X51480Y-29690D02*
X51000Y-29210D01*
X55700Y-29690D02*
X51480Y-29690D01*
X58770Y-31510D02*
X57730Y-30470D01*
M02*
