M48
INCH,TZ
T1C0.013
T2C0.014
T3C0.015
T4C0.016
T5C0.020
T6C0.025
T7C0.028
T8C0.040
T9C0.041
T10C0.047
T11C0.060
T12C0.067
T13C0.126
%
G90
G05
T1
X33650Y-39550
X33650Y-40400
X34350Y-22550
X34550Y-39500
X34740Y-41100
X34750Y-30250
X34780Y-35640
X34850Y-26330
X34900Y-34400
X34900Y-34750
X35010Y-39720
X35150Y-33100
X35420Y-22550
X35600Y-33100
X35660Y-37040
X36000Y-25950
X36000Y-31500
X36050Y-33100
X36050Y-34550
X36090Y-24630
X36100Y-25500
X36280Y-35280
X36370Y-39100
X36450Y-24300
X36620Y-35260
X36690Y-39250
X36800Y-36850
X36810Y-26610
X36810Y-30200
X37200Y-34500
X37250Y-31500
X37330Y-28590
X37340Y-37710
X37340Y-38560
X37430Y-25680
X37750Y-25420
X38100Y-30350
X38150Y-42350
X38550Y-47360
X38560Y-48220
X38600Y-28630
X38850Y-47960
X38930Y-47230
X38970Y-25670
X39000Y-46870
X39010Y-28610
X39020Y-22820
X39220Y-45050
X39240Y-36530
X39260Y-25930
X39270Y-23190
X39400Y-35520
X39590Y-23020
X39670Y-45890
X39880Y-29130
X40160Y-45620
X40230Y-23850
X40250Y-35260
X40390Y-31410
X40410Y-42350
X40570Y-35690
X40580Y-48550
X40600Y-44770
X40730Y-34350
X40740Y-34770
X40750Y-31420
X40970Y-44750
X41100Y-46180
X41260Y-24230
X41280Y-47760
X41410Y-25250
X41450Y-31410
X41600Y-47570
X41710Y-31150
X42000Y-47190
X42200Y-23670
X42340Y-23280
X42370Y-47570
X42870Y-47040
X43098Y-25298
X43100Y-24150
X43130Y-26360
X43390Y-46520
X43870Y-26410
X44130Y-26170
X44620Y-27220
X44680Y-26560
X44700Y-32300
X44780Y-26900
X44950Y-47000
X45050Y-32350
X45310Y-47400
X45330Y-47030
X45670Y-47790
X46000Y-30000
X46030Y-47120
X46450Y-36600
X46600Y-32850
X47350Y-36600
X47650Y-31600
X47650Y-31950
X49575Y-26375
X49975Y-28485
X50200Y-40360
X51180Y-29850
X51180Y-30230
X51620Y-29390
X51670Y-28620
X51670Y-29010
X51800Y-38500
X52025Y-30975
X52525Y-30975
X52750Y-32450
X52825Y-27335
X52895Y-26425
X53025Y-30975
X53525Y-30975
X53850Y-36180
X54060Y-35880
X54075Y-28675
X54320Y-35640
X54575Y-28675
X55075Y-28675
X55575Y-28675
X56340Y-36940
X56460Y-33110
X56460Y-33550
X56630Y-30180
X56960Y-30050
X57340Y-36940
X57520Y-26850
X57550Y-29130
X57690Y-43610
X57760Y-31520
X59030Y-24610
X60080Y-26420
X60220Y-26080
X60320Y-46400
X60650Y-26060
X61140Y-35260
X61210Y-35700
X61310Y-36060
X61560Y-36350
X61710Y-46540
X61800Y-37050
X62020Y-26880
X62060Y-45810
X62120Y-36860
X62280Y-34350
X62330Y-45130
X62500Y-31850
X62700Y-46100
X62720Y-34080
X63630Y-35750
X63630Y-36820
X63630Y-38280
X63660Y-36110
X64010Y-32720
X64030Y-31800
X64180Y-39980
X64320Y-32500
X64420Y-38540
X64580Y-33700
X64580Y-34080
X64940Y-34130
X65020Y-40750
X65060Y-36190
X65330Y-34130
X66210Y-35570
X66370Y-36240
X66610Y-35640
X66650Y-36620
X66660Y-37010
X66960Y-37490
X67190Y-37210
X67280Y-44690
X67290Y-38100
X67390Y-49290
X67440Y-37760
X67610Y-35160
X67610Y-38790
X67660Y-49530
X67710Y-38440
X67930Y-39250
X67940Y-40990
X67970Y-41810
X68040Y-35150
X68220Y-41230
X68240Y-42920
X68460Y-35140
X68480Y-40710
X70100Y-27500
X70210Y-28110
X70400Y-29650
X71190Y-26830
X71380Y-28550
X71590Y-26500
X71740Y-41300
X71830Y-42950
X72250Y-29600
X72270Y-24000
X72560Y-37690
X72830Y-35860
X72990Y-35540
X73110Y-35040
X73430Y-35210
X73553Y-24705
X73553Y-25295
X73720Y-36910
X73740Y-37710
X73750Y-25000
X73947Y-24705
X73947Y-25295
X74880Y-40430
X74930Y-40070
X75050Y-25450
X75270Y-40640
X75500Y-24750
X75610Y-36730
T2
X37717Y-26767
X37717Y-27200
X37717Y-27633
X38150Y-26767
X38150Y-27200
X38150Y-27633
X38583Y-26767
X38583Y-27200
X38583Y-27633
X39798Y-47298
X39798Y-47702
X40202Y-47298
X40202Y-47702
X43798Y-47298
X43798Y-47702
X44202Y-47298
X44202Y-47702
X46039Y-31339
X46039Y-31861
X46300Y-31600
X46561Y-31339
X46561Y-31861
T3
X50631Y-26431
X50631Y-27025
X50631Y-27619
X51225Y-26431
X51225Y-27025
X51225Y-27619
X51819Y-26431
X51819Y-27025
X51819Y-27619
X51925Y-33625
X51925Y-34275
X51925Y-34925
X52575Y-33625
X52575Y-34275
X52575Y-34925
X53225Y-33625
X53225Y-34275
X53225Y-34925
T4
X34850Y-25950
X35000Y-25500
X35100Y-27300
X35300Y-25050
X35630Y-26500
X35630Y-26900
X35630Y-27300
X49275Y-27415
X49470Y-36330
X49565Y-27045
X49625Y-27585
X49820Y-35960
X52325Y-31415
X52685Y-31375
X52945Y-27695
X53525Y-31375
X53525Y-32475
X53925Y-31375
X54325Y-31375
X54725Y-31375
X55125Y-31375
X63910Y-28530
X64500Y-28250
X68750Y-28710
X69490Y-27840
X70790Y-28050
X71190Y-28050
X71600Y-23500
X71600Y-26000
X72450Y-24400
X72560Y-25570
X76450Y-39200
X76450Y-39900
X76450Y-40350
X79830Y-40270
X80690Y-40200
T5
X34680Y-42180
X35140Y-41500
X35650Y-34600
X35890Y-42320
X36450Y-25700
X36640Y-27250
X40650Y-26900
X40650Y-27950
X44300Y-32400
X44850Y-33300
X48415Y-27045
X48425Y-27825
X50615Y-28785
X50725Y-29835
X51005Y-23005
X51145Y-23445
X52275Y-32475
X53985Y-27515
X55750Y-33750
X55750Y-34300
X57400Y-30800
X71350Y-32850
X73750Y-36320
T6
X33070Y-44460
X33150Y-38000
X33190Y-38790
X33190Y-39620
X33290Y-42550
X33500Y-37200
X33610Y-36600
X33640Y-22950
X33700Y-35650
X33750Y-34050
X33750Y-34750
X33800Y-38670
X34160Y-40500
X34900Y-23200
X35230Y-37040
X35250Y-31900
X35250Y-36400
X35400Y-38930
X35800Y-23650
X35850Y-29050
X35940Y-38470
X35970Y-36150
X36070Y-30860
X36510Y-39870
X36560Y-22550
X36600Y-32150
X36600Y-33850
X36850Y-28700
X36980Y-24100
X37000Y-25700
X37200Y-29130
X37450Y-24500
X37550Y-29550
X37600Y-41150
X37750Y-22950
X37760Y-37710
X37950Y-34850
X38010Y-31900
X38050Y-28700
X38100Y-32700
X38100Y-33200
X38100Y-40130
X38150Y-36900
X38150Y-38200
X38150Y-42800
X38890Y-30650
X38890Y-49050
X38900Y-41650
X39250Y-25300
X39550Y-27800
X39570Y-27010
X39710Y-48650
X39750Y-24050
X40050Y-28600
X40100Y-25190
X40280Y-46320
X40490Y-24680
X40650Y-27400
X41450Y-26400
X41750Y-40350
X42000Y-24700
X42200Y-38750
X42500Y-24700
X42890Y-49050
X43000Y-23500
X43500Y-38700
X43710Y-48650
X43940Y-29720
X44260Y-25300
X44300Y-46320
X45000Y-30900
X45090Y-29500
X45250Y-34600
X45650Y-29000
X45660Y-30400
X46450Y-37750
X46500Y-28850
X46600Y-28050
X46730Y-34310
X46950Y-29650
X47300Y-34310
X47350Y-37750
X47400Y-32300
X47650Y-31150
X47690Y-33200
X48125Y-27425
X48340Y-29160
X48450Y-33500
X48500Y-31450
X48650Y-32200
X48800Y-30200
X48800Y-30750
X48800Y-32700
X49000Y-42100
X49225Y-25125
X49525Y-29435
X49580Y-34160
X49580Y-34640
X49625Y-25925
X49800Y-42500
X49935Y-23225
X50200Y-39880
X50225Y-29835
X50450Y-45900
X50450Y-47150
X50600Y-38900
X50795Y-31665
X51075Y-24225
X51075Y-25405
X51300Y-47600
X51400Y-46300
X51460Y-41280
X51505Y-31265
X51525Y-32465
X52215Y-23225
X52275Y-24225
X52275Y-25415
X52430Y-39990
X52700Y-47600
X52800Y-46400
X53130Y-37260
X53140Y-36100
X53635Y-25975
X53635Y-28125
X53810Y-45010
X53860Y-36890
X54400Y-35100
X54450Y-36150
X54500Y-34300
X54570Y-33380
X55180Y-45010
X55200Y-32800
X55600Y-35100
X55600Y-38600
X55800Y-24400
X55950Y-37790
X56150Y-24900
X56300Y-25800
X57150Y-26100
X57200Y-22200
X57400Y-24900
X57500Y-39850
X57850Y-42700
X57900Y-43200
X58050Y-40400
X58400Y-39500
X58600Y-22900
X61400Y-23300
X61400Y-24300
X61400Y-25300
X61400Y-26300
X62500Y-33000
X62900Y-33550
X63500Y-27740
X63800Y-35350
X63800Y-38900
X64050Y-37540
X64550Y-40800
X64990Y-31000
X65000Y-38900
X65000Y-41250
X65030Y-35270
X65550Y-33250
X66310Y-35140
X66350Y-33100
X66640Y-30840
X67000Y-43190
X67350Y-29600
X67540Y-43020
X67540Y-44230
X67900Y-29100
X68750Y-31650
X68750Y-32850
X68800Y-23950
X69100Y-34300
X69250Y-31650
X69650Y-24150
X69700Y-48250
X69900Y-34300
X70350Y-31690
X70378Y-32904
X70700Y-43000
X70700Y-44200
X71000Y-45300
X71000Y-46100
X71200Y-30040
X71800Y-24000
X71850Y-30550
X72250Y-33000
X72500Y-31100
X72770Y-34260
X72800Y-45050
X72810Y-32920
X72900Y-23500
X72900Y-26500
X72950Y-31900
X73250Y-43000
X73250Y-44200
X73350Y-22350
X73350Y-27650
X73550Y-32200
X73700Y-48250
X74040Y-31190
X74900Y-25000
X74960Y-41560
X75000Y-35150
X75000Y-35950
X75000Y-37100
X75000Y-37900
X75000Y-41050
X76000Y-33150
X76200Y-31100
X76200Y-35150
X76200Y-35950
X76200Y-37100
X76200Y-37900
X76200Y-41050
X76750Y-25000
X78150Y-37100
X79330Y-39490
X80400Y-43600
X81250Y-43200
T7
X63000Y-29400
X63000Y-29900
X63500Y-29400
X63500Y-29900
X64000Y-29400
X64000Y-29900
X64500Y-29400
X64500Y-29900
X65000Y-29400
X65000Y-29900
T8
X42500Y-33500
X43500Y-33500
X47500Y-44500
X47500Y-45500
X47500Y-46500
X47500Y-47500
X47500Y-48500
X47500Y-49500
X50500Y-48500
X50500Y-49500
X51500Y-48500
X51500Y-49500
X52500Y-48500
X52500Y-49500
X53500Y-48500
X53500Y-49500
X54500Y-23000
X54500Y-24000
X54500Y-48500
X54500Y-49500
X59500Y-29000
X59500Y-30000
X59500Y-31000
X59500Y-32000
X59500Y-33000
X59500Y-34000
X59500Y-35000
X59500Y-36000
X60500Y-29000
X60500Y-30000
X60500Y-31000
X60500Y-32000
X60500Y-33000
X60500Y-34000
X60500Y-35000
X60500Y-36000
X61500Y-48500
X61500Y-49500
X62500Y-48500
X62500Y-49500
X63500Y-23000
X63500Y-24000
X63500Y-25000
X63500Y-26000
X63500Y-48500
X63500Y-49500
X64500Y-23000
X64500Y-24000
X64500Y-25000
X64500Y-26000
X64500Y-48500
X64500Y-49500
X65500Y-23000
X65500Y-24000
X65500Y-25000
X65500Y-26000
X65500Y-48500
X65500Y-49500
X66500Y-48500
X66500Y-49500
X67500Y-25000
X67500Y-26000
X69500Y-49500
X70500Y-49500
X71500Y-49500
X72500Y-49500
X73500Y-29000
X73500Y-30000
X73500Y-49500
X74500Y-29000
X74500Y-30000
X74500Y-49500
X75500Y-29000
X75500Y-30000
X76500Y-29000
X76500Y-30000
X76510Y-46500
X76510Y-47500
X77500Y-23000
X77500Y-24000
X77500Y-26000
X77500Y-27000
X77500Y-31500
X77500Y-32500
X77500Y-33500
X77500Y-34500
X77500Y-35500
X77500Y-38500
X77500Y-39500
X77500Y-40500
X77500Y-41500
X77500Y-42500
X77500Y-43500
X77510Y-46500
X77510Y-47500
X78500Y-31500
X78500Y-32500
X78500Y-33500
X78500Y-34500
X78500Y-35500
X78500Y-38500
X78500Y-39500
X78500Y-40500
X78500Y-41500
X78500Y-42500
X78500Y-43500
X78510Y-46500
X78510Y-47500
T9
X68521Y-23339
X70479Y-23339
T10
X68417Y-22169
X70583Y-22169
T11
X35000Y-44500
X43500Y-36500
X43500Y-42500
T12
X34000Y-43500
X34000Y-45500
X36000Y-43500
X36000Y-45500
X42500Y-35500
X42500Y-37500
X42500Y-41500
X42500Y-43500
X44500Y-35500
X44500Y-37500
X44500Y-41500
X44500Y-43500
T13
X26075Y-23075
X26075Y-48925
X80925Y-23075
X80925Y-48925
T0
M30
