G04 (created by PCBNEW-RS274X (2012-01-19 BZR 3256)-stable) date 21/09/2012 20:47:58*
G01*
G70*
G90*
%MOIN*%
G04 Gerber Fmt 3.4, Leading zero omitted, Abs format*
%FSLAX34Y34*%
G04 APERTURE LIST*
%ADD10C,0.006000*%
%ADD11C,0.015000*%
%ADD12C,0.083000*%
%ADD13C,0.077100*%
%ADD14C,0.043000*%
%ADD15C,0.029200*%
%ADD16C,0.030600*%
%ADD17C,0.029000*%
%ADD18R,0.080000X0.080000*%
%ADD19C,0.080000*%
%ADD20R,0.062000X0.062000*%
%ADD21C,0.062000*%
%ADD22C,0.120000*%
%ADD23C,0.146000*%
G04 APERTURE END LIST*
G54D10*
G54D11*
X26075Y-21500D02*
X80975Y-21500D01*
X26075Y-50500D02*
X80925Y-50500D01*
X24500Y-23075D02*
X24500Y-48925D01*
X82500Y-23075D02*
X82500Y-48925D01*
X82500Y-23075D02*
X82494Y-22938D01*
X82476Y-22802D01*
X82446Y-22668D01*
X82405Y-22537D01*
X82352Y-22410D01*
X82288Y-22288D01*
X82215Y-22172D01*
X82131Y-22063D01*
X82038Y-21962D01*
X81937Y-21869D01*
X81828Y-21785D01*
X81712Y-21712D01*
X81590Y-21648D01*
X81463Y-21595D01*
X81332Y-21554D01*
X81198Y-21524D01*
X81062Y-21506D01*
X80925Y-21500D01*
X80925Y-50500D02*
X81062Y-50494D01*
X81198Y-50476D01*
X81332Y-50446D01*
X81463Y-50405D01*
X81590Y-50352D01*
X81712Y-50288D01*
X81828Y-50215D01*
X81937Y-50131D01*
X82038Y-50038D01*
X82131Y-49937D01*
X82215Y-49828D01*
X82288Y-49712D01*
X82352Y-49590D01*
X82405Y-49463D01*
X82446Y-49332D01*
X82476Y-49198D01*
X82494Y-49062D01*
X82500Y-48925D01*
X24500Y-48925D02*
X24506Y-49062D01*
X24524Y-49198D01*
X24554Y-49332D01*
X24595Y-49463D01*
X24648Y-49590D01*
X24712Y-49712D01*
X24785Y-49828D01*
X24869Y-49937D01*
X24962Y-50038D01*
X25063Y-50131D01*
X25172Y-50215D01*
X25288Y-50288D01*
X25410Y-50352D01*
X25537Y-50405D01*
X25668Y-50446D01*
X25802Y-50476D01*
X25938Y-50494D01*
X26075Y-50500D01*
X26075Y-21500D02*
X25938Y-21506D01*
X25802Y-21524D01*
X25668Y-21554D01*
X25537Y-21595D01*
X25410Y-21648D01*
X25288Y-21712D01*
X25172Y-21785D01*
X25063Y-21869D01*
X24962Y-21962D01*
X24869Y-22063D01*
X24785Y-22172D01*
X24712Y-22288D01*
X24648Y-22410D01*
X24595Y-22537D01*
X24554Y-22668D01*
X24524Y-22802D01*
X24506Y-22938D01*
X24500Y-23075D01*
G54D12*
X70583Y-22169D03*
X68417Y-22169D03*
G54D13*
X70479Y-23339D03*
X68521Y-23339D03*
G54D14*
X73750Y-25000D03*
X73947Y-24705D03*
X73553Y-24705D03*
X73553Y-25295D03*
X73947Y-25295D03*
G54D15*
X44202Y-47702D03*
X43798Y-47702D03*
X43798Y-47298D03*
X44202Y-47298D03*
X40202Y-47702D03*
X39798Y-47702D03*
X39798Y-47298D03*
X40202Y-47298D03*
G54D16*
X52575Y-34275D03*
X52575Y-33625D03*
X53225Y-33625D03*
X53225Y-34275D03*
X53225Y-34925D03*
X52575Y-34925D03*
X51925Y-34925D03*
X51925Y-34275D03*
X51925Y-33625D03*
G54D17*
X51225Y-27025D03*
X51225Y-26431D03*
X51819Y-26431D03*
X51819Y-27025D03*
X51819Y-27619D03*
X51225Y-27619D03*
X50631Y-27619D03*
X50631Y-27025D03*
X50631Y-26431D03*
G54D15*
X38150Y-27200D03*
X37717Y-27200D03*
X37717Y-26767D03*
X38150Y-26767D03*
X38583Y-26767D03*
X38583Y-27200D03*
X38583Y-27633D03*
X38150Y-27633D03*
X37717Y-27633D03*
X46300Y-31600D03*
X46039Y-31339D03*
X46561Y-31339D03*
X46561Y-31861D03*
X46039Y-31861D03*
G54D18*
X59500Y-29000D03*
G54D19*
X60500Y-29000D03*
X59500Y-30000D03*
X60500Y-30000D03*
X59500Y-31000D03*
X60500Y-31000D03*
X59500Y-32000D03*
X60500Y-32000D03*
X59500Y-33000D03*
X60500Y-33000D03*
X59500Y-34000D03*
X60500Y-34000D03*
X59500Y-35000D03*
X60500Y-35000D03*
X59500Y-36000D03*
X60500Y-36000D03*
G54D18*
X66500Y-48500D03*
G54D19*
X66500Y-49500D03*
X65500Y-48500D03*
X65500Y-49500D03*
X64500Y-48500D03*
X64500Y-49500D03*
X63500Y-48500D03*
X63500Y-49500D03*
X62500Y-48500D03*
X62500Y-49500D03*
X61500Y-48500D03*
X61500Y-49500D03*
G54D18*
X78500Y-43500D03*
G54D19*
X77500Y-43500D03*
X78500Y-42500D03*
X77500Y-42500D03*
X78500Y-41500D03*
X77500Y-41500D03*
X78500Y-40500D03*
X77500Y-40500D03*
X78500Y-39500D03*
X77500Y-39500D03*
X78500Y-38500D03*
X77500Y-38500D03*
G54D18*
X78500Y-35500D03*
G54D19*
X77500Y-35500D03*
X78500Y-34500D03*
X77500Y-34500D03*
X78500Y-33500D03*
X77500Y-33500D03*
X78500Y-32500D03*
X77500Y-32500D03*
X78500Y-31500D03*
X77500Y-31500D03*
G54D18*
X50500Y-49500D03*
G54D19*
X50500Y-48500D03*
X51500Y-49500D03*
X51500Y-48500D03*
X52500Y-49500D03*
X52500Y-48500D03*
X53500Y-49500D03*
X53500Y-48500D03*
X54500Y-49500D03*
X54500Y-48500D03*
G54D18*
X76500Y-29000D03*
G54D19*
X76500Y-30000D03*
X75500Y-29000D03*
X75500Y-30000D03*
X74500Y-29000D03*
X74500Y-30000D03*
X73500Y-29000D03*
X73500Y-30000D03*
G54D18*
X78510Y-46500D03*
G54D19*
X78510Y-47500D03*
X77510Y-46500D03*
X77510Y-47500D03*
X76510Y-46500D03*
X76510Y-47500D03*
G54D18*
X69500Y-49500D03*
G54D19*
X70500Y-49500D03*
X71500Y-49500D03*
X72500Y-49500D03*
X73500Y-49500D03*
X74500Y-49500D03*
G54D18*
X47500Y-44500D03*
G54D19*
X47500Y-45500D03*
X47500Y-46500D03*
X47500Y-47500D03*
X47500Y-48500D03*
X47500Y-49500D03*
G54D18*
X63500Y-24000D03*
G54D19*
X64500Y-24000D03*
X65500Y-24000D03*
G54D18*
X63500Y-23000D03*
G54D19*
X64500Y-23000D03*
X65500Y-23000D03*
G54D18*
X63500Y-25000D03*
G54D19*
X64500Y-25000D03*
X65500Y-25000D03*
G54D18*
X63500Y-26000D03*
G54D19*
X64500Y-26000D03*
X65500Y-26000D03*
G54D18*
X67500Y-26000D03*
G54D19*
X67500Y-25000D03*
G54D20*
X63000Y-29900D03*
G54D21*
X63000Y-29400D03*
X63500Y-29900D03*
X63500Y-29400D03*
X64000Y-29900D03*
X64000Y-29400D03*
X64500Y-29900D03*
X64500Y-29400D03*
X65000Y-29900D03*
X65000Y-29400D03*
G54D22*
X43500Y-36500D03*
X42500Y-37500D03*
X44500Y-37500D03*
X44500Y-35500D03*
X42500Y-35500D03*
X35000Y-44500D03*
X36000Y-43500D03*
X34000Y-43500D03*
X34000Y-45500D03*
X36000Y-45500D03*
X43500Y-42500D03*
X42500Y-43500D03*
X44500Y-43500D03*
X44500Y-41500D03*
X42500Y-41500D03*
G54D23*
X26075Y-23075D03*
X26075Y-48925D03*
X80925Y-48925D03*
X80925Y-23075D03*
G54D18*
X54500Y-24000D03*
G54D19*
X54500Y-23000D03*
G54D18*
X77500Y-24000D03*
G54D19*
X77500Y-23000D03*
G54D18*
X77500Y-27000D03*
G54D19*
X77500Y-26000D03*
G54D18*
X42500Y-33500D03*
G54D19*
X43500Y-33500D03*
M02*
