G04 (created by PCBNEW (2012-nov-02)-stable) date Sat 15 Mar 2014 07:07:26 PM MDT*
%MOIN*%
G04 Gerber Fmt 3.4, Leading zero omitted, Abs format*
%FSLAX34Y34*%
G01*
G70*
G90*
G04 APERTURE LIST*
%ADD10C,0*%
%ADD11R,0.066X0.066*%
%ADD12C,0.066*%
%ADD13C,0.0650551*%
%ADD14C,0.0847402*%
%ADD15O,0.0166236X0.0410331*%
%ADD16O,0.0410331X0.0166236*%
%ADD17R,0.200661X0.200661*%
%ADD18O,0.0136457X0.038252*%
%ADD19O,0.038252X0.0136457*%
%ADD20R,0.17015X0.17015*%
%ADD21C,0.056*%
%ADD22R,0.042X0.042*%
%ADD23R,0.0532X0.0611*%
%ADD24R,0.0176X0.0651*%
%ADD25R,0.0651X0.0176*%
%ADD26R,0.081X0.031*%
%ADD27R,0.1517X0.0532*%
%ADD28R,0.0257X0.0217*%
%ADD29R,0.0257X0.0336*%
%ADD30R,0.0296X0.0257*%
%ADD31R,0.0277X0.0158*%
%ADD32R,0.028X0.03*%
%ADD33R,0.03X0.028*%
%ADD34R,0.0221X0.019*%
%ADD35R,0.019X0.0221*%
%ADD36R,0.048X0.048*%
%ADD37C,0.048*%
%ADD38R,0.0533X0.0647*%
%ADD39R,0.0647X0.0533*%
%ADD40R,0.045X0.024*%
%ADD41R,0.0150551X0.0313937*%
%ADD42R,0.0380079X0.017811*%
%ADD43R,0.0313937X0.0150551*%
%ADD44R,0.017811X0.0380079*%
%ADD45R,0.0473701X0.0670551*%
%ADD46O,0.0166236X0.0587496*%
%ADD47R,0.13098X0.13098*%
%ADD48O,0.0587496X0.0166236*%
%ADD49O,0.0181984X0.0528441*%
%ADD50O,0.0528441X0.0181984*%
%ADD51R,0.0965307X0.0965307*%
%ADD52R,0.157575X0.0453701*%
%ADD53R,0.155606X0.0453701*%
%ADD54R,0.0453701X0.13789*%
%ADD55R,0.0453701X0.155606*%
%ADD56R,0.013874X0.0325748*%
%ADD57R,0.0571811X0.013874*%
%ADD58O,0.0532441X0.013874*%
%ADD59R,0.0532441X0.025685*%
%ADD60O,0.0493071X0.013874*%
%ADD61R,0.0119055X0.013874*%
%ADD62R,0.0325748X0.013874*%
%ADD63R,0.013874X0.0571811*%
%ADD64O,0.013874X0.0532441*%
%ADD65R,0.025685X0.0532441*%
%ADD66O,0.013874X0.0493071*%
%ADD67R,0.013874X0.0119055*%
%ADD68R,0.0394646X0.0170236*%
%ADD69R,0.0384803X0.0532441*%
%ADD70R,0.0170236X0.0611181*%
%ADD71C,0.0290315*%
%ADD72C,0.036*%
%ADD73C,0.226472*%
%ADD74C,0.029622*%
%ADD75R,0.0493071X0.029622*%
%ADD76R,0.100488X0.0650551*%
%ADD77R,0.0867087X0.149701*%
%ADD78R,0.170961X0.0760787*%
%ADD79R,0.170961X0.110921*%
%ADD80R,0.0414331X0.017811*%
%ADD81R,0.025685X0.0493071*%
%ADD82R,0.0768976X0.023748*%
%ADD83R,0.0886772X0.0601339*%
%ADD84R,0.0634803X0.090252*%
%ADD85R,0.0591496X0.0778504*%
%ADD86R,0.0886772X0.0748976*%
%ADD87C,0.0611181*%
%ADD88C,0.0787402*%
G04 APERTURE END LIST*
G54D10*
G54D11*
X68122Y-61397D03*
G54D12*
X67122Y-61397D03*
X68122Y-60397D03*
X67122Y-60397D03*
X68122Y-59397D03*
X67122Y-59397D03*
X68122Y-58397D03*
X67122Y-58397D03*
X68122Y-57397D03*
X67122Y-57397D03*
X68122Y-56397D03*
X67122Y-56397D03*
X68122Y-55397D03*
X67122Y-55397D03*
X68122Y-54397D03*
X67122Y-54397D03*
X68122Y-53397D03*
X67122Y-53397D03*
X68122Y-52397D03*
X67122Y-52397D03*
X68122Y-51397D03*
X67122Y-51397D03*
G54D13*
X24685Y-48090D03*
X24685Y-49862D03*
G54D14*
X25665Y-50356D03*
X25665Y-47596D03*
G54D15*
X39427Y-45634D03*
X39624Y-45634D03*
X39821Y-45634D03*
X40017Y-45634D03*
X40214Y-45634D03*
X40411Y-45634D03*
X40608Y-45634D03*
X40805Y-45634D03*
X41002Y-45634D03*
X41198Y-45634D03*
X41395Y-45634D03*
X41592Y-45634D03*
G54D16*
X41868Y-45358D03*
X41868Y-45162D03*
X41868Y-44965D03*
X41868Y-44768D03*
X41868Y-44571D03*
X41868Y-44374D03*
X41868Y-44177D03*
X41868Y-43981D03*
X41868Y-43784D03*
X41868Y-43587D03*
X41868Y-43390D03*
X41868Y-43193D03*
G54D15*
X41592Y-42918D03*
X41395Y-42918D03*
X41198Y-42918D03*
X41002Y-42918D03*
X40805Y-42918D03*
X40608Y-42918D03*
X40411Y-42918D03*
X40214Y-42918D03*
X40017Y-42918D03*
X39821Y-42918D03*
X39624Y-42918D03*
X39427Y-42918D03*
G54D16*
X39151Y-43193D03*
X39151Y-43390D03*
X39151Y-43587D03*
X39151Y-43784D03*
X39151Y-43981D03*
X39151Y-44177D03*
X39151Y-44374D03*
X39151Y-44571D03*
X39151Y-44768D03*
X39151Y-44965D03*
X39151Y-45162D03*
X39151Y-45358D03*
G54D17*
X40510Y-44276D03*
G54D18*
X41908Y-57046D03*
X42066Y-57046D03*
X42223Y-57046D03*
X42381Y-57046D03*
X42538Y-57046D03*
X42696Y-57046D03*
X42853Y-57046D03*
X43011Y-57046D03*
X43168Y-57046D03*
X43326Y-57046D03*
X43483Y-57046D03*
X43641Y-57046D03*
G54D19*
X43956Y-56731D03*
X43956Y-56573D03*
X43956Y-56416D03*
X43956Y-56258D03*
X43956Y-56101D03*
X43956Y-55943D03*
X43956Y-55786D03*
X43956Y-55628D03*
X43956Y-55471D03*
X43956Y-55313D03*
X43956Y-55156D03*
X43956Y-54998D03*
G54D18*
X43641Y-54683D03*
X43483Y-54683D03*
X43326Y-54683D03*
X43168Y-54683D03*
X43011Y-54683D03*
X42853Y-54683D03*
X42696Y-54683D03*
X42538Y-54683D03*
X42381Y-54683D03*
X42223Y-54683D03*
X42066Y-54683D03*
X41908Y-54683D03*
G54D19*
X41593Y-54998D03*
X41593Y-55156D03*
X41593Y-55313D03*
X41593Y-55471D03*
X41593Y-55628D03*
X41593Y-55786D03*
X41593Y-55943D03*
X41593Y-56101D03*
X41593Y-56258D03*
X41593Y-56416D03*
X41593Y-56573D03*
X41593Y-56731D03*
G54D20*
X42775Y-55865D03*
G54D21*
X52500Y-65000D03*
G54D22*
X30750Y-65514D03*
X30050Y-65514D03*
X30400Y-64714D03*
X28144Y-58804D03*
X28844Y-58804D03*
X28494Y-59604D03*
G54D10*
G36*
X64120Y-53039D02*
X63744Y-52662D01*
X64176Y-52230D01*
X64552Y-52607D01*
X64120Y-53039D01*
X64120Y-53039D01*
G37*
G36*
X64287Y-51981D02*
X63911Y-51605D01*
X64343Y-51173D01*
X64719Y-51549D01*
X64287Y-51981D01*
X64287Y-51981D01*
G37*
G36*
X64732Y-52426D02*
X64356Y-52050D01*
X64788Y-51618D01*
X65165Y-51994D01*
X64732Y-52426D01*
X64732Y-52426D01*
G37*
G36*
X63675Y-52593D02*
X63298Y-52217D01*
X63730Y-51785D01*
X64107Y-52161D01*
X63675Y-52593D01*
X63675Y-52593D01*
G37*
G54D23*
X49399Y-66877D03*
X48769Y-66011D03*
X49399Y-66011D03*
X48769Y-66877D03*
G54D24*
X52262Y-42920D03*
X52065Y-42920D03*
X51869Y-42920D03*
X51672Y-42920D03*
X51475Y-42920D03*
X51278Y-42920D03*
X51081Y-42920D03*
X50884Y-42920D03*
X50687Y-42920D03*
X50491Y-42920D03*
X50294Y-42920D03*
X50097Y-42920D03*
X49900Y-42920D03*
X49703Y-42920D03*
X49506Y-42920D03*
X49309Y-42920D03*
X49113Y-42920D03*
X48916Y-42920D03*
X48719Y-42920D03*
X48522Y-42920D03*
X48325Y-42920D03*
X48128Y-42920D03*
X47931Y-42920D03*
X47735Y-42920D03*
X47538Y-42920D03*
G54D25*
X46750Y-43708D03*
X46750Y-43905D03*
X46750Y-44101D03*
X46750Y-44298D03*
X46750Y-44495D03*
X46750Y-44692D03*
X46750Y-44889D03*
X46750Y-45086D03*
X46750Y-45283D03*
X46750Y-45479D03*
X46750Y-45676D03*
X46750Y-45873D03*
X46750Y-46070D03*
X46750Y-46267D03*
X46750Y-46464D03*
X46750Y-46661D03*
X46750Y-46857D03*
X46750Y-47054D03*
X46750Y-47251D03*
X46750Y-47448D03*
X46750Y-47645D03*
X46750Y-47842D03*
X46750Y-48039D03*
X46750Y-48235D03*
X46750Y-48432D03*
G54D24*
X47538Y-49220D03*
X47735Y-49220D03*
X47931Y-49220D03*
X48128Y-49220D03*
X48325Y-49220D03*
X48522Y-49220D03*
X48719Y-49220D03*
X48916Y-49220D03*
X49113Y-49220D03*
X49309Y-49220D03*
X49506Y-49220D03*
X49703Y-49220D03*
X49900Y-49220D03*
X50097Y-49220D03*
X50294Y-49220D03*
X50491Y-49220D03*
X50687Y-49220D03*
X50884Y-49220D03*
X51081Y-49220D03*
X51278Y-49220D03*
X51475Y-49220D03*
X51672Y-49220D03*
X51869Y-49220D03*
X52065Y-49220D03*
X52262Y-49220D03*
G54D25*
X53050Y-48432D03*
X53050Y-48235D03*
X53050Y-48039D03*
X53050Y-47842D03*
X53050Y-47645D03*
X53050Y-47448D03*
X53050Y-47251D03*
X53050Y-47054D03*
X53050Y-46857D03*
X53050Y-46661D03*
X53050Y-46464D03*
X53050Y-46267D03*
X53050Y-46070D03*
X53050Y-45873D03*
X53050Y-45676D03*
X53050Y-45479D03*
X53050Y-45283D03*
X53050Y-45086D03*
X53050Y-44889D03*
X53050Y-44692D03*
X53050Y-44495D03*
X53050Y-44298D03*
X53050Y-44101D03*
X53050Y-43905D03*
X53050Y-43708D03*
G54D26*
X64790Y-63210D03*
X64790Y-62710D03*
X64790Y-62210D03*
X64790Y-61710D03*
X61790Y-61710D03*
X61790Y-62210D03*
X61790Y-62710D03*
X61790Y-63210D03*
G54D27*
X65044Y-42024D03*
X65044Y-43126D03*
X65044Y-45024D03*
X65044Y-46126D03*
G54D10*
G36*
X64425Y-54256D02*
X64549Y-54380D01*
X64089Y-54840D01*
X63965Y-54716D01*
X64425Y-54256D01*
X64425Y-54256D01*
G37*
G36*
X64286Y-54116D02*
X64410Y-54241D01*
X63950Y-54701D01*
X63825Y-54577D01*
X64286Y-54116D01*
X64286Y-54116D01*
G37*
G36*
X64146Y-53977D02*
X64271Y-54101D01*
X63810Y-54562D01*
X63686Y-54437D01*
X64146Y-53977D01*
X64146Y-53977D01*
G37*
G36*
X64007Y-53838D02*
X64131Y-53962D01*
X63671Y-54422D01*
X63547Y-54298D01*
X64007Y-53838D01*
X64007Y-53838D01*
G37*
G36*
X63868Y-53698D02*
X63992Y-53823D01*
X63532Y-54283D01*
X63407Y-54159D01*
X63868Y-53698D01*
X63868Y-53698D01*
G37*
G36*
X63729Y-53560D02*
X63854Y-53684D01*
X63393Y-54145D01*
X63269Y-54020D01*
X63729Y-53560D01*
X63729Y-53560D01*
G37*
G36*
X63590Y-53420D02*
X63714Y-53545D01*
X63254Y-54005D01*
X63129Y-53881D01*
X63590Y-53420D01*
X63590Y-53420D01*
G37*
G36*
X63450Y-53281D02*
X63575Y-53406D01*
X63115Y-53866D01*
X62990Y-53741D01*
X63450Y-53281D01*
X63450Y-53281D01*
G37*
G36*
X63311Y-53142D02*
X63436Y-53266D01*
X62975Y-53727D01*
X62851Y-53602D01*
X63311Y-53142D01*
X63311Y-53142D01*
G37*
G36*
X63172Y-53003D02*
X63296Y-53127D01*
X62836Y-53587D01*
X62712Y-53463D01*
X63172Y-53003D01*
X63172Y-53003D01*
G37*
G36*
X63033Y-52863D02*
X63157Y-52988D01*
X62697Y-53448D01*
X62572Y-53324D01*
X63033Y-52863D01*
X63033Y-52863D01*
G37*
G36*
X62894Y-52725D02*
X63018Y-52849D01*
X62558Y-53309D01*
X62434Y-53185D01*
X62894Y-52725D01*
X62894Y-52725D01*
G37*
G36*
X62755Y-52585D02*
X62879Y-52710D01*
X62419Y-53170D01*
X62294Y-53046D01*
X62755Y-52585D01*
X62755Y-52585D01*
G37*
G36*
X62615Y-52446D02*
X62740Y-52570D01*
X62280Y-53031D01*
X62155Y-52906D01*
X62615Y-52446D01*
X62615Y-52446D01*
G37*
G36*
X62476Y-52307D02*
X62601Y-52431D01*
X62140Y-52892D01*
X62016Y-52767D01*
X62476Y-52307D01*
X62476Y-52307D01*
G37*
G36*
X62337Y-52167D02*
X62461Y-52292D01*
X62001Y-52752D01*
X61876Y-52628D01*
X62337Y-52167D01*
X62337Y-52167D01*
G37*
G36*
X62197Y-52028D02*
X62322Y-52153D01*
X61862Y-52613D01*
X61737Y-52488D01*
X62197Y-52028D01*
X62197Y-52028D01*
G37*
G36*
X62058Y-51889D02*
X62183Y-52013D01*
X61722Y-52474D01*
X61598Y-52349D01*
X62058Y-51889D01*
X62058Y-51889D01*
G37*
G36*
X61920Y-51750D02*
X62044Y-51875D01*
X61584Y-52335D01*
X61459Y-52211D01*
X61920Y-51750D01*
X61920Y-51750D01*
G37*
G36*
X61780Y-51611D02*
X61905Y-51735D01*
X61444Y-52196D01*
X61320Y-52071D01*
X61780Y-51611D01*
X61780Y-51611D01*
G37*
G36*
X61641Y-51472D02*
X61765Y-51596D01*
X61305Y-52056D01*
X61181Y-51932D01*
X61641Y-51472D01*
X61641Y-51472D01*
G37*
G36*
X61502Y-51332D02*
X61626Y-51457D01*
X61166Y-51917D01*
X61041Y-51793D01*
X61502Y-51332D01*
X61502Y-51332D01*
G37*
G36*
X61362Y-51193D02*
X61487Y-51317D01*
X61027Y-51778D01*
X60902Y-51653D01*
X61362Y-51193D01*
X61362Y-51193D01*
G37*
G36*
X61223Y-51054D02*
X61348Y-51178D01*
X60887Y-51639D01*
X60763Y-51514D01*
X61223Y-51054D01*
X61223Y-51054D01*
G37*
G36*
X61084Y-50914D02*
X61208Y-51039D01*
X60748Y-51499D01*
X60623Y-51375D01*
X61084Y-50914D01*
X61084Y-50914D01*
G37*
G36*
X60945Y-50776D02*
X61070Y-50900D01*
X60609Y-51361D01*
X60485Y-51236D01*
X60945Y-50776D01*
X60945Y-50776D01*
G37*
G36*
X60806Y-50637D02*
X60930Y-50761D01*
X60470Y-51221D01*
X60346Y-51097D01*
X60806Y-50637D01*
X60806Y-50637D01*
G37*
G36*
X60667Y-50497D02*
X60791Y-50622D01*
X60331Y-51082D01*
X60206Y-50958D01*
X60667Y-50497D01*
X60667Y-50497D01*
G37*
G36*
X60527Y-50358D02*
X60652Y-50482D01*
X60191Y-50943D01*
X60067Y-50818D01*
X60527Y-50358D01*
X60527Y-50358D01*
G37*
G36*
X60388Y-50219D02*
X60512Y-50343D01*
X60052Y-50803D01*
X59928Y-50679D01*
X60388Y-50219D01*
X60388Y-50219D01*
G37*
G36*
X60249Y-50079D02*
X60373Y-50204D01*
X59913Y-50664D01*
X59788Y-50540D01*
X60249Y-50079D01*
X60249Y-50079D01*
G37*
G36*
X60110Y-49941D02*
X60235Y-50065D01*
X59774Y-50526D01*
X59650Y-50401D01*
X60110Y-49941D01*
X60110Y-49941D01*
G37*
G36*
X59971Y-49801D02*
X60095Y-49926D01*
X59635Y-50386D01*
X59510Y-50262D01*
X59971Y-49801D01*
X59971Y-49801D01*
G37*
G36*
X59832Y-49662D02*
X59956Y-49787D01*
X59496Y-50247D01*
X59371Y-50122D01*
X59832Y-49662D01*
X59832Y-49662D01*
G37*
G36*
X59692Y-49523D02*
X59817Y-49647D01*
X59356Y-50108D01*
X59232Y-49983D01*
X59692Y-49523D01*
X59692Y-49523D01*
G37*
G36*
X59553Y-49384D02*
X59677Y-49508D01*
X59217Y-49968D01*
X59093Y-49844D01*
X59553Y-49384D01*
X59553Y-49384D01*
G37*
G36*
X57840Y-49508D02*
X57964Y-49384D01*
X58424Y-49844D01*
X58300Y-49968D01*
X57840Y-49508D01*
X57840Y-49508D01*
G37*
G36*
X57700Y-49647D02*
X57825Y-49523D01*
X58285Y-49983D01*
X58161Y-50108D01*
X57700Y-49647D01*
X57700Y-49647D01*
G37*
G36*
X57561Y-49787D02*
X57685Y-49662D01*
X58146Y-50122D01*
X58021Y-50247D01*
X57561Y-49787D01*
X57561Y-49787D01*
G37*
G36*
X57422Y-49926D02*
X57546Y-49801D01*
X58006Y-50262D01*
X57882Y-50386D01*
X57422Y-49926D01*
X57422Y-49926D01*
G37*
G36*
X57282Y-50065D02*
X57407Y-49941D01*
X57867Y-50401D01*
X57743Y-50526D01*
X57282Y-50065D01*
X57282Y-50065D01*
G37*
G36*
X57144Y-50204D02*
X57268Y-50079D01*
X57729Y-50540D01*
X57604Y-50664D01*
X57144Y-50204D01*
X57144Y-50204D01*
G37*
G36*
X57004Y-50343D02*
X57129Y-50219D01*
X57589Y-50679D01*
X57465Y-50803D01*
X57004Y-50343D01*
X57004Y-50343D01*
G37*
G36*
X56865Y-50482D02*
X56990Y-50358D01*
X57450Y-50818D01*
X57326Y-50943D01*
X56865Y-50482D01*
X56865Y-50482D01*
G37*
G36*
X56726Y-50622D02*
X56850Y-50497D01*
X57311Y-50958D01*
X57186Y-51082D01*
X56726Y-50622D01*
X56726Y-50622D01*
G37*
G36*
X56587Y-50761D02*
X56711Y-50637D01*
X57171Y-51097D01*
X57047Y-51221D01*
X56587Y-50761D01*
X56587Y-50761D01*
G37*
G36*
X56447Y-50900D02*
X56572Y-50776D01*
X57032Y-51236D01*
X56908Y-51361D01*
X56447Y-50900D01*
X56447Y-50900D01*
G37*
G36*
X56309Y-51039D02*
X56433Y-50914D01*
X56893Y-51375D01*
X56769Y-51499D01*
X56309Y-51039D01*
X56309Y-51039D01*
G37*
G36*
X56169Y-51178D02*
X56294Y-51054D01*
X56754Y-51514D01*
X56630Y-51639D01*
X56169Y-51178D01*
X56169Y-51178D01*
G37*
G36*
X56030Y-51317D02*
X56155Y-51193D01*
X56615Y-51653D01*
X56490Y-51778D01*
X56030Y-51317D01*
X56030Y-51317D01*
G37*
G36*
X55891Y-51457D02*
X56015Y-51332D01*
X56476Y-51793D01*
X56351Y-51917D01*
X55891Y-51457D01*
X55891Y-51457D01*
G37*
G36*
X55752Y-51596D02*
X55876Y-51472D01*
X56336Y-51932D01*
X56212Y-52056D01*
X55752Y-51596D01*
X55752Y-51596D01*
G37*
G36*
X55612Y-51735D02*
X55737Y-51611D01*
X56197Y-52071D01*
X56073Y-52196D01*
X55612Y-51735D01*
X55612Y-51735D01*
G37*
G36*
X55473Y-51875D02*
X55597Y-51750D01*
X56058Y-52211D01*
X55933Y-52335D01*
X55473Y-51875D01*
X55473Y-51875D01*
G37*
G36*
X55334Y-52013D02*
X55459Y-51889D01*
X55919Y-52349D01*
X55795Y-52474D01*
X55334Y-52013D01*
X55334Y-52013D01*
G37*
G36*
X55195Y-52153D02*
X55319Y-52028D01*
X55780Y-52488D01*
X55655Y-52613D01*
X55195Y-52153D01*
X55195Y-52153D01*
G37*
G36*
X55056Y-52292D02*
X55180Y-52167D01*
X55640Y-52628D01*
X55516Y-52752D01*
X55056Y-52292D01*
X55056Y-52292D01*
G37*
G36*
X54916Y-52431D02*
X55041Y-52307D01*
X55501Y-52767D01*
X55377Y-52892D01*
X54916Y-52431D01*
X54916Y-52431D01*
G37*
G36*
X54777Y-52570D02*
X54902Y-52446D01*
X55362Y-52906D01*
X55237Y-53031D01*
X54777Y-52570D01*
X54777Y-52570D01*
G37*
G36*
X54638Y-52710D02*
X54762Y-52585D01*
X55223Y-53046D01*
X55098Y-53170D01*
X54638Y-52710D01*
X54638Y-52710D01*
G37*
G36*
X54499Y-52849D02*
X54623Y-52725D01*
X55083Y-53185D01*
X54959Y-53309D01*
X54499Y-52849D01*
X54499Y-52849D01*
G37*
G36*
X54360Y-52988D02*
X54484Y-52863D01*
X54945Y-53324D01*
X54820Y-53448D01*
X54360Y-52988D01*
X54360Y-52988D01*
G37*
G36*
X54221Y-53127D02*
X54345Y-53003D01*
X54805Y-53463D01*
X54681Y-53587D01*
X54221Y-53127D01*
X54221Y-53127D01*
G37*
G36*
X54081Y-53266D02*
X54206Y-53142D01*
X54666Y-53602D01*
X54542Y-53727D01*
X54081Y-53266D01*
X54081Y-53266D01*
G37*
G36*
X53942Y-53406D02*
X54066Y-53281D01*
X54527Y-53741D01*
X54402Y-53866D01*
X53942Y-53406D01*
X53942Y-53406D01*
G37*
G36*
X53803Y-53545D02*
X53927Y-53420D01*
X54387Y-53881D01*
X54263Y-54005D01*
X53803Y-53545D01*
X53803Y-53545D01*
G37*
G36*
X53663Y-53684D02*
X53788Y-53560D01*
X54248Y-54020D01*
X54124Y-54145D01*
X53663Y-53684D01*
X53663Y-53684D01*
G37*
G36*
X53525Y-53823D02*
X53649Y-53698D01*
X54110Y-54159D01*
X53985Y-54283D01*
X53525Y-53823D01*
X53525Y-53823D01*
G37*
G36*
X53386Y-53962D02*
X53510Y-53838D01*
X53970Y-54298D01*
X53846Y-54422D01*
X53386Y-53962D01*
X53386Y-53962D01*
G37*
G36*
X53246Y-54101D02*
X53371Y-53977D01*
X53831Y-54437D01*
X53707Y-54562D01*
X53246Y-54101D01*
X53246Y-54101D01*
G37*
G36*
X53107Y-54241D02*
X53231Y-54116D01*
X53692Y-54577D01*
X53567Y-54701D01*
X53107Y-54241D01*
X53107Y-54241D01*
G37*
G36*
X52968Y-54380D02*
X53092Y-54256D01*
X53552Y-54716D01*
X53428Y-54840D01*
X52968Y-54380D01*
X52968Y-54380D01*
G37*
G36*
X53428Y-55509D02*
X53552Y-55633D01*
X53092Y-56093D01*
X52968Y-55969D01*
X53428Y-55509D01*
X53428Y-55509D01*
G37*
G36*
X53567Y-55648D02*
X53692Y-55772D01*
X53231Y-56233D01*
X53107Y-56108D01*
X53567Y-55648D01*
X53567Y-55648D01*
G37*
G36*
X53707Y-55787D02*
X53831Y-55912D01*
X53371Y-56372D01*
X53246Y-56247D01*
X53707Y-55787D01*
X53707Y-55787D01*
G37*
G36*
X53846Y-55926D02*
X53970Y-56051D01*
X53510Y-56511D01*
X53386Y-56387D01*
X53846Y-55926D01*
X53846Y-55926D01*
G37*
G36*
X53985Y-56066D02*
X54110Y-56190D01*
X53649Y-56650D01*
X53525Y-56526D01*
X53985Y-56066D01*
X53985Y-56066D01*
G37*
G36*
X54124Y-56204D02*
X54248Y-56329D01*
X53788Y-56789D01*
X53663Y-56665D01*
X54124Y-56204D01*
X54124Y-56204D01*
G37*
G36*
X54263Y-56344D02*
X54387Y-56468D01*
X53927Y-56928D01*
X53803Y-56804D01*
X54263Y-56344D01*
X54263Y-56344D01*
G37*
G36*
X54402Y-56483D02*
X54527Y-56607D01*
X54066Y-57068D01*
X53942Y-56943D01*
X54402Y-56483D01*
X54402Y-56483D01*
G37*
G36*
X54542Y-56622D02*
X54666Y-56747D01*
X54206Y-57207D01*
X54081Y-57083D01*
X54542Y-56622D01*
X54542Y-56622D01*
G37*
G36*
X54681Y-56762D02*
X54805Y-56886D01*
X54345Y-57346D01*
X54221Y-57222D01*
X54681Y-56762D01*
X54681Y-56762D01*
G37*
G36*
X54820Y-56901D02*
X54945Y-57025D01*
X54484Y-57486D01*
X54360Y-57361D01*
X54820Y-56901D01*
X54820Y-56901D01*
G37*
G36*
X54959Y-57039D02*
X55083Y-57164D01*
X54623Y-57624D01*
X54499Y-57500D01*
X54959Y-57039D01*
X54959Y-57039D01*
G37*
G36*
X55098Y-57179D02*
X55223Y-57303D01*
X54762Y-57763D01*
X54638Y-57639D01*
X55098Y-57179D01*
X55098Y-57179D01*
G37*
G36*
X55237Y-57318D02*
X55362Y-57442D01*
X54902Y-57903D01*
X54777Y-57778D01*
X55237Y-57318D01*
X55237Y-57318D01*
G37*
G36*
X55377Y-57457D02*
X55501Y-57582D01*
X55041Y-58042D01*
X54916Y-57918D01*
X55377Y-57457D01*
X55377Y-57457D01*
G37*
G36*
X55516Y-57597D02*
X55640Y-57721D01*
X55180Y-58181D01*
X55056Y-58057D01*
X55516Y-57597D01*
X55516Y-57597D01*
G37*
G36*
X55655Y-57736D02*
X55780Y-57860D01*
X55319Y-58321D01*
X55195Y-58196D01*
X55655Y-57736D01*
X55655Y-57736D01*
G37*
G36*
X55795Y-57875D02*
X55919Y-58000D01*
X55459Y-58460D01*
X55334Y-58336D01*
X55795Y-57875D01*
X55795Y-57875D01*
G37*
G36*
X55933Y-58014D02*
X56058Y-58138D01*
X55597Y-58599D01*
X55473Y-58474D01*
X55933Y-58014D01*
X55933Y-58014D01*
G37*
G36*
X56073Y-58153D02*
X56197Y-58278D01*
X55737Y-58738D01*
X55612Y-58613D01*
X56073Y-58153D01*
X56073Y-58153D01*
G37*
G36*
X56212Y-58292D02*
X56336Y-58417D01*
X55876Y-58877D01*
X55752Y-58753D01*
X56212Y-58292D01*
X56212Y-58292D01*
G37*
G36*
X56351Y-58432D02*
X56476Y-58556D01*
X56015Y-59016D01*
X55891Y-58892D01*
X56351Y-58432D01*
X56351Y-58432D01*
G37*
G36*
X56490Y-58571D02*
X56615Y-58695D01*
X56155Y-59156D01*
X56030Y-59031D01*
X56490Y-58571D01*
X56490Y-58571D01*
G37*
G36*
X56630Y-58710D02*
X56754Y-58835D01*
X56294Y-59295D01*
X56169Y-59171D01*
X56630Y-58710D01*
X56630Y-58710D01*
G37*
G36*
X56769Y-58850D02*
X56893Y-58974D01*
X56433Y-59434D01*
X56309Y-59310D01*
X56769Y-58850D01*
X56769Y-58850D01*
G37*
G36*
X56908Y-58988D02*
X57032Y-59113D01*
X56572Y-59573D01*
X56447Y-59449D01*
X56908Y-58988D01*
X56908Y-58988D01*
G37*
G36*
X57047Y-59127D02*
X57171Y-59252D01*
X56711Y-59712D01*
X56587Y-59588D01*
X57047Y-59127D01*
X57047Y-59127D01*
G37*
G36*
X57186Y-59267D02*
X57311Y-59391D01*
X56850Y-59852D01*
X56726Y-59727D01*
X57186Y-59267D01*
X57186Y-59267D01*
G37*
G36*
X57326Y-59406D02*
X57450Y-59531D01*
X56990Y-59991D01*
X56865Y-59866D01*
X57326Y-59406D01*
X57326Y-59406D01*
G37*
G36*
X57465Y-59545D02*
X57589Y-59670D01*
X57129Y-60130D01*
X57004Y-60006D01*
X57465Y-59545D01*
X57465Y-59545D01*
G37*
G36*
X57604Y-59685D02*
X57729Y-59809D01*
X57268Y-60269D01*
X57144Y-60145D01*
X57604Y-59685D01*
X57604Y-59685D01*
G37*
G36*
X57743Y-59823D02*
X57867Y-59948D01*
X57407Y-60408D01*
X57282Y-60284D01*
X57743Y-59823D01*
X57743Y-59823D01*
G37*
G36*
X57882Y-59963D02*
X58006Y-60087D01*
X57546Y-60547D01*
X57422Y-60423D01*
X57882Y-59963D01*
X57882Y-59963D01*
G37*
G36*
X58021Y-60102D02*
X58146Y-60226D01*
X57685Y-60687D01*
X57561Y-60562D01*
X58021Y-60102D01*
X58021Y-60102D01*
G37*
G36*
X58161Y-60241D02*
X58285Y-60366D01*
X57825Y-60826D01*
X57700Y-60702D01*
X58161Y-60241D01*
X58161Y-60241D01*
G37*
G36*
X58300Y-60380D02*
X58424Y-60505D01*
X57964Y-60965D01*
X57840Y-60841D01*
X58300Y-60380D01*
X58300Y-60380D01*
G37*
G36*
X59093Y-60505D02*
X59217Y-60380D01*
X59677Y-60841D01*
X59553Y-60965D01*
X59093Y-60505D01*
X59093Y-60505D01*
G37*
G36*
X59232Y-60366D02*
X59356Y-60241D01*
X59817Y-60702D01*
X59692Y-60826D01*
X59232Y-60366D01*
X59232Y-60366D01*
G37*
G36*
X59371Y-60226D02*
X59496Y-60102D01*
X59956Y-60562D01*
X59832Y-60687D01*
X59371Y-60226D01*
X59371Y-60226D01*
G37*
G36*
X59510Y-60087D02*
X59635Y-59963D01*
X60095Y-60423D01*
X59971Y-60547D01*
X59510Y-60087D01*
X59510Y-60087D01*
G37*
G36*
X59650Y-59948D02*
X59774Y-59823D01*
X60235Y-60284D01*
X60110Y-60408D01*
X59650Y-59948D01*
X59650Y-59948D01*
G37*
G36*
X59788Y-59809D02*
X59913Y-59685D01*
X60373Y-60145D01*
X60249Y-60269D01*
X59788Y-59809D01*
X59788Y-59809D01*
G37*
G36*
X59928Y-59670D02*
X60052Y-59545D01*
X60512Y-60006D01*
X60388Y-60130D01*
X59928Y-59670D01*
X59928Y-59670D01*
G37*
G36*
X60067Y-59531D02*
X60191Y-59406D01*
X60652Y-59866D01*
X60527Y-59991D01*
X60067Y-59531D01*
X60067Y-59531D01*
G37*
G36*
X60206Y-59391D02*
X60331Y-59267D01*
X60791Y-59727D01*
X60667Y-59852D01*
X60206Y-59391D01*
X60206Y-59391D01*
G37*
G36*
X60346Y-59252D02*
X60470Y-59127D01*
X60930Y-59588D01*
X60806Y-59712D01*
X60346Y-59252D01*
X60346Y-59252D01*
G37*
G36*
X60485Y-59113D02*
X60609Y-58988D01*
X61070Y-59449D01*
X60945Y-59573D01*
X60485Y-59113D01*
X60485Y-59113D01*
G37*
G36*
X60623Y-58974D02*
X60748Y-58850D01*
X61208Y-59310D01*
X61084Y-59434D01*
X60623Y-58974D01*
X60623Y-58974D01*
G37*
G36*
X60763Y-58835D02*
X60887Y-58710D01*
X61348Y-59171D01*
X61223Y-59295D01*
X60763Y-58835D01*
X60763Y-58835D01*
G37*
G36*
X60902Y-58695D02*
X61027Y-58571D01*
X61487Y-59031D01*
X61362Y-59156D01*
X60902Y-58695D01*
X60902Y-58695D01*
G37*
G36*
X61041Y-58556D02*
X61166Y-58432D01*
X61626Y-58892D01*
X61502Y-59016D01*
X61041Y-58556D01*
X61041Y-58556D01*
G37*
G36*
X61181Y-58417D02*
X61305Y-58292D01*
X61765Y-58753D01*
X61641Y-58877D01*
X61181Y-58417D01*
X61181Y-58417D01*
G37*
G36*
X61320Y-58278D02*
X61444Y-58153D01*
X61905Y-58613D01*
X61780Y-58738D01*
X61320Y-58278D01*
X61320Y-58278D01*
G37*
G36*
X61459Y-58138D02*
X61584Y-58014D01*
X62044Y-58474D01*
X61920Y-58599D01*
X61459Y-58138D01*
X61459Y-58138D01*
G37*
G36*
X61598Y-58000D02*
X61722Y-57875D01*
X62183Y-58336D01*
X62058Y-58460D01*
X61598Y-58000D01*
X61598Y-58000D01*
G37*
G36*
X61737Y-57860D02*
X61862Y-57736D01*
X62322Y-58196D01*
X62197Y-58321D01*
X61737Y-57860D01*
X61737Y-57860D01*
G37*
G36*
X61876Y-57721D02*
X62001Y-57597D01*
X62461Y-58057D01*
X62337Y-58181D01*
X61876Y-57721D01*
X61876Y-57721D01*
G37*
G36*
X62016Y-57582D02*
X62140Y-57457D01*
X62601Y-57918D01*
X62476Y-58042D01*
X62016Y-57582D01*
X62016Y-57582D01*
G37*
G36*
X62155Y-57442D02*
X62280Y-57318D01*
X62740Y-57778D01*
X62615Y-57903D01*
X62155Y-57442D01*
X62155Y-57442D01*
G37*
G36*
X62294Y-57303D02*
X62419Y-57179D01*
X62879Y-57639D01*
X62755Y-57763D01*
X62294Y-57303D01*
X62294Y-57303D01*
G37*
G36*
X62434Y-57164D02*
X62558Y-57039D01*
X63018Y-57500D01*
X62894Y-57624D01*
X62434Y-57164D01*
X62434Y-57164D01*
G37*
G36*
X62572Y-57025D02*
X62697Y-56901D01*
X63157Y-57361D01*
X63033Y-57486D01*
X62572Y-57025D01*
X62572Y-57025D01*
G37*
G36*
X62712Y-56886D02*
X62836Y-56762D01*
X63296Y-57222D01*
X63172Y-57346D01*
X62712Y-56886D01*
X62712Y-56886D01*
G37*
G36*
X62851Y-56747D02*
X62975Y-56622D01*
X63436Y-57083D01*
X63311Y-57207D01*
X62851Y-56747D01*
X62851Y-56747D01*
G37*
G36*
X62990Y-56607D02*
X63115Y-56483D01*
X63575Y-56943D01*
X63450Y-57068D01*
X62990Y-56607D01*
X62990Y-56607D01*
G37*
G36*
X63129Y-56468D02*
X63254Y-56344D01*
X63714Y-56804D01*
X63590Y-56928D01*
X63129Y-56468D01*
X63129Y-56468D01*
G37*
G36*
X63269Y-56329D02*
X63393Y-56204D01*
X63854Y-56665D01*
X63729Y-56789D01*
X63269Y-56329D01*
X63269Y-56329D01*
G37*
G36*
X63407Y-56190D02*
X63532Y-56066D01*
X63992Y-56526D01*
X63868Y-56650D01*
X63407Y-56190D01*
X63407Y-56190D01*
G37*
G36*
X63547Y-56051D02*
X63671Y-55926D01*
X64131Y-56387D01*
X64007Y-56511D01*
X63547Y-56051D01*
X63547Y-56051D01*
G37*
G36*
X63686Y-55912D02*
X63810Y-55787D01*
X64271Y-56247D01*
X64146Y-56372D01*
X63686Y-55912D01*
X63686Y-55912D01*
G37*
G36*
X63825Y-55772D02*
X63950Y-55648D01*
X64410Y-56108D01*
X64286Y-56233D01*
X63825Y-55772D01*
X63825Y-55772D01*
G37*
G36*
X63965Y-55633D02*
X64089Y-55509D01*
X64549Y-55969D01*
X64425Y-56093D01*
X63965Y-55633D01*
X63965Y-55633D01*
G37*
G54D28*
X31655Y-56419D03*
X32147Y-56419D03*
X32147Y-56143D03*
X31655Y-56143D03*
G54D29*
X32086Y-54281D03*
X31416Y-54281D03*
G54D30*
X31751Y-54458D03*
X31751Y-54104D03*
G54D11*
X54122Y-62397D03*
G54D12*
X55122Y-62397D03*
X56122Y-62397D03*
X57122Y-62397D03*
X58122Y-62397D03*
X59122Y-62397D03*
G54D31*
X42492Y-59862D03*
X42492Y-59665D03*
X42492Y-59468D03*
X42158Y-59468D03*
X42158Y-59665D03*
X42158Y-59862D03*
X43692Y-59862D03*
X43692Y-59665D03*
X43692Y-59468D03*
X43358Y-59468D03*
X43358Y-59665D03*
X43358Y-59862D03*
G54D22*
X38854Y-61411D03*
X38854Y-62011D03*
X29094Y-60204D03*
X28494Y-60204D03*
X38854Y-63211D03*
X38854Y-62611D03*
X30444Y-63054D03*
X30444Y-63654D03*
G54D32*
X55232Y-49697D03*
X54812Y-49697D03*
X68084Y-45575D03*
X68504Y-45575D03*
X68084Y-45975D03*
X68504Y-45975D03*
X64862Y-59147D03*
X65282Y-59147D03*
G54D33*
X26722Y-43907D03*
X26722Y-43487D03*
G54D32*
X62752Y-46987D03*
X63172Y-46987D03*
G54D33*
X69744Y-42615D03*
X69744Y-43035D03*
G54D32*
X64554Y-44075D03*
X64134Y-44075D03*
G54D33*
X38254Y-59301D03*
X38254Y-59721D03*
G54D32*
X68084Y-43075D03*
X68504Y-43075D03*
G54D33*
X37880Y-48216D03*
X37880Y-47796D03*
G54D32*
X40360Y-61730D03*
X40780Y-61730D03*
G54D33*
X38704Y-59601D03*
X38704Y-60021D03*
X39414Y-64411D03*
X39414Y-64831D03*
G54D32*
X40120Y-66460D03*
X40540Y-66460D03*
G54D33*
X35064Y-60321D03*
X35064Y-59901D03*
G54D32*
X35104Y-58911D03*
X35524Y-58911D03*
G54D33*
X35964Y-59901D03*
X35964Y-60321D03*
X37154Y-60181D03*
X37154Y-59761D03*
G54D10*
G36*
X54415Y-51703D02*
X54627Y-51491D01*
X54825Y-51689D01*
X54613Y-51901D01*
X54415Y-51703D01*
X54415Y-51703D01*
G37*
G36*
X54118Y-51406D02*
X54330Y-51194D01*
X54528Y-51392D01*
X54316Y-51604D01*
X54118Y-51406D01*
X54118Y-51406D01*
G37*
G36*
X54715Y-51403D02*
X54927Y-51191D01*
X55125Y-51389D01*
X54913Y-51601D01*
X54715Y-51403D01*
X54715Y-51403D01*
G37*
G36*
X54418Y-51106D02*
X54630Y-50894D01*
X54828Y-51092D01*
X54616Y-51304D01*
X54418Y-51106D01*
X54418Y-51106D01*
G37*
G54D33*
X36150Y-48216D03*
X36150Y-47796D03*
X36650Y-48216D03*
X36650Y-47796D03*
X37380Y-48216D03*
X37380Y-47796D03*
G54D32*
X57282Y-48577D03*
X57702Y-48577D03*
G54D33*
X65812Y-51357D03*
X65812Y-51777D03*
G54D32*
X28884Y-58254D03*
X29304Y-58254D03*
G54D33*
X37880Y-49416D03*
X37880Y-48996D03*
X37380Y-49416D03*
X37380Y-48996D03*
X36650Y-49416D03*
X36650Y-48996D03*
X36150Y-49416D03*
X36150Y-48996D03*
X39375Y-49511D03*
X39375Y-49091D03*
X39875Y-49511D03*
X39875Y-49091D03*
X40605Y-49511D03*
X40605Y-49091D03*
X41105Y-49511D03*
X41105Y-49091D03*
G54D32*
X29590Y-66464D03*
X30010Y-66464D03*
X45585Y-54665D03*
X45165Y-54665D03*
X45585Y-54265D03*
X45165Y-54265D03*
X53032Y-63507D03*
X52612Y-63507D03*
X52742Y-62277D03*
X52322Y-62277D03*
X32861Y-54681D03*
X32441Y-54681D03*
G54D33*
X30351Y-56221D03*
X30351Y-56641D03*
G54D32*
X34780Y-55720D03*
X34360Y-55720D03*
X40120Y-65110D03*
X40540Y-65110D03*
X37994Y-65461D03*
X37574Y-65461D03*
G54D33*
X39870Y-59310D03*
X39870Y-59730D03*
X36488Y-56698D03*
X36488Y-56278D03*
G54D32*
X38474Y-64461D03*
X38054Y-64461D03*
X30841Y-54681D03*
X31261Y-54681D03*
X31261Y-55881D03*
X30841Y-55881D03*
X38474Y-64911D03*
X38054Y-64911D03*
X29481Y-54611D03*
X29901Y-54611D03*
G54D33*
X33351Y-53921D03*
X33351Y-54341D03*
X29761Y-55871D03*
X29761Y-56291D03*
X51884Y-64834D03*
X51884Y-65254D03*
G54D32*
X50224Y-66144D03*
X50644Y-66144D03*
G54D33*
X49872Y-50387D03*
X49872Y-50807D03*
X50272Y-50387D03*
X50272Y-50807D03*
G54D32*
X34848Y-56488D03*
X34428Y-56488D03*
G54D33*
X35464Y-64401D03*
X35464Y-63981D03*
X36664Y-64401D03*
X36664Y-63981D03*
X36264Y-64401D03*
X36264Y-63981D03*
X36354Y-59761D03*
X36354Y-60181D03*
X36754Y-59761D03*
X36754Y-60181D03*
G54D32*
X41949Y-66368D03*
X42369Y-66368D03*
G54D33*
X44850Y-61410D03*
X44850Y-60990D03*
X33622Y-58517D03*
X33622Y-58937D03*
X50672Y-50387D03*
X50672Y-50807D03*
X33351Y-56271D03*
X33351Y-56691D03*
X34564Y-60771D03*
X34564Y-60351D03*
G54D32*
X34654Y-59411D03*
X35074Y-59411D03*
G54D33*
X35564Y-59901D03*
X35564Y-60321D03*
G54D32*
X35974Y-59411D03*
X35554Y-59411D03*
G54D33*
X41929Y-64418D03*
X41929Y-64838D03*
G54D32*
X32861Y-55881D03*
X32441Y-55881D03*
X54812Y-48697D03*
X55232Y-48697D03*
X25032Y-45947D03*
X24612Y-45947D03*
X25132Y-57897D03*
X24712Y-57897D03*
X25132Y-56097D03*
X24712Y-56097D03*
X25132Y-54297D03*
X24712Y-54297D03*
G54D10*
G36*
X62407Y-50606D02*
X62195Y-50394D01*
X62393Y-50196D01*
X62605Y-50409D01*
X62407Y-50606D01*
X62407Y-50606D01*
G37*
G36*
X62110Y-50903D02*
X61898Y-50691D01*
X62096Y-50493D01*
X62308Y-50705D01*
X62110Y-50903D01*
X62110Y-50903D01*
G37*
G54D32*
X54812Y-49197D03*
X55232Y-49197D03*
X25132Y-50947D03*
X24712Y-50947D03*
X61542Y-45987D03*
X61962Y-45987D03*
G54D33*
X61042Y-47477D03*
X61042Y-47897D03*
X61492Y-47467D03*
X61492Y-47047D03*
G54D32*
X55312Y-61567D03*
X55732Y-61567D03*
X55040Y-47170D03*
X55460Y-47170D03*
G54D33*
X51090Y-50380D03*
X51090Y-50800D03*
G54D32*
X55312Y-61097D03*
X55732Y-61097D03*
G54D33*
X51490Y-50380D03*
X51490Y-50800D03*
X51890Y-50380D03*
X51890Y-50800D03*
X52290Y-50380D03*
X52290Y-50800D03*
X52892Y-50367D03*
X52892Y-50787D03*
G54D32*
X55040Y-47570D03*
X55460Y-47570D03*
X68084Y-42675D03*
X68504Y-42675D03*
X55040Y-46770D03*
X55460Y-46770D03*
X55040Y-46370D03*
X55460Y-46370D03*
X55040Y-45970D03*
X55460Y-45970D03*
X55040Y-45570D03*
X55460Y-45570D03*
X55040Y-45170D03*
X55460Y-45170D03*
X47832Y-64057D03*
X48252Y-64057D03*
X41065Y-48701D03*
X40645Y-48701D03*
G54D33*
X43325Y-58675D03*
X43325Y-58255D03*
X44075Y-53455D03*
X44075Y-53875D03*
X41130Y-47886D03*
X41130Y-48306D03*
X40630Y-47886D03*
X40630Y-48306D03*
X39900Y-47886D03*
X39900Y-48306D03*
X39400Y-47886D03*
X39400Y-48306D03*
X43725Y-58675D03*
X43725Y-58255D03*
X44775Y-54675D03*
X44775Y-54255D03*
X48484Y-65354D03*
X48484Y-64934D03*
X45975Y-54675D03*
X45975Y-54255D03*
G54D32*
X48142Y-63627D03*
X48562Y-63627D03*
X47372Y-63207D03*
X47792Y-63207D03*
G54D33*
X50884Y-62184D03*
X50884Y-62604D03*
X51822Y-63027D03*
X51822Y-63447D03*
X42525Y-58675D03*
X42525Y-58255D03*
G54D32*
X49332Y-62327D03*
X49752Y-62327D03*
X43120Y-44511D03*
X42700Y-44511D03*
X43120Y-44111D03*
X42700Y-44111D03*
X68084Y-46375D03*
X68504Y-46375D03*
G54D10*
G36*
X59444Y-48379D02*
X59232Y-48591D01*
X59034Y-48393D01*
X59246Y-48181D01*
X59444Y-48379D01*
X59444Y-48379D01*
G37*
G36*
X59741Y-48676D02*
X59529Y-48888D01*
X59331Y-48690D01*
X59543Y-48478D01*
X59741Y-48676D01*
X59741Y-48676D01*
G37*
G36*
X56722Y-49192D02*
X56510Y-49404D01*
X56312Y-49206D01*
X56524Y-48994D01*
X56722Y-49192D01*
X56722Y-49192D01*
G37*
G36*
X57019Y-49489D02*
X56807Y-49701D01*
X56609Y-49503D01*
X56821Y-49291D01*
X57019Y-49489D01*
X57019Y-49489D01*
G37*
G36*
X54212Y-51703D02*
X54000Y-51915D01*
X53802Y-51717D01*
X54014Y-51505D01*
X54212Y-51703D01*
X54212Y-51703D01*
G37*
G36*
X54509Y-52000D02*
X54297Y-52212D01*
X54099Y-52014D01*
X54311Y-51802D01*
X54509Y-52000D01*
X54509Y-52000D01*
G37*
G54D32*
X52112Y-53937D03*
X52532Y-53937D03*
G54D10*
G36*
X52796Y-57311D02*
X53008Y-57523D01*
X52810Y-57721D01*
X52598Y-57509D01*
X52796Y-57311D01*
X52796Y-57311D01*
G37*
G36*
X53093Y-57014D02*
X53305Y-57226D01*
X53107Y-57424D01*
X52895Y-57212D01*
X53093Y-57014D01*
X53093Y-57014D01*
G37*
G36*
X55131Y-59580D02*
X55343Y-59792D01*
X55145Y-59990D01*
X54933Y-59778D01*
X55131Y-59580D01*
X55131Y-59580D01*
G37*
G36*
X55428Y-59283D02*
X55640Y-59495D01*
X55442Y-59693D01*
X55230Y-59481D01*
X55428Y-59283D01*
X55428Y-59283D01*
G37*
G36*
X56934Y-61383D02*
X57146Y-61595D01*
X56948Y-61793D01*
X56736Y-61581D01*
X56934Y-61383D01*
X56934Y-61383D01*
G37*
G36*
X57231Y-61086D02*
X57443Y-61298D01*
X57245Y-61496D01*
X57033Y-61284D01*
X57231Y-61086D01*
X57231Y-61086D01*
G37*
G36*
X60498Y-61454D02*
X60710Y-61241D01*
X60908Y-61439D01*
X60696Y-61652D01*
X60498Y-61454D01*
X60498Y-61454D01*
G37*
G36*
X60201Y-61157D02*
X60413Y-60944D01*
X60611Y-61142D01*
X60399Y-61355D01*
X60201Y-61157D01*
X60201Y-61157D01*
G37*
G36*
X62725Y-59226D02*
X62937Y-59014D01*
X63135Y-59212D01*
X62923Y-59424D01*
X62725Y-59226D01*
X62725Y-59226D01*
G37*
G36*
X62428Y-58929D02*
X62640Y-58717D01*
X62838Y-58915D01*
X62626Y-59127D01*
X62428Y-58929D01*
X62428Y-58929D01*
G37*
G36*
X63291Y-58660D02*
X63503Y-58448D01*
X63701Y-58646D01*
X63489Y-58858D01*
X63291Y-58660D01*
X63291Y-58660D01*
G37*
G36*
X62994Y-58363D02*
X63206Y-58151D01*
X63404Y-58349D01*
X63192Y-58561D01*
X62994Y-58363D01*
X62994Y-58363D01*
G37*
G36*
X64104Y-57847D02*
X64316Y-57635D01*
X64514Y-57833D01*
X64302Y-58045D01*
X64104Y-57847D01*
X64104Y-57847D01*
G37*
G36*
X63807Y-57550D02*
X64019Y-57338D01*
X64217Y-57536D01*
X64005Y-57748D01*
X63807Y-57550D01*
X63807Y-57550D01*
G37*
G54D33*
X44775Y-57375D03*
X44775Y-56955D03*
X39560Y-46886D03*
X39560Y-46466D03*
X39160Y-46886D03*
X39160Y-46466D03*
X40710Y-46886D03*
X40710Y-46466D03*
X40310Y-46886D03*
X40310Y-46466D03*
X41510Y-46886D03*
X41510Y-46466D03*
X41910Y-46886D03*
X41910Y-46466D03*
X40010Y-41666D03*
X40010Y-42086D03*
X39610Y-41666D03*
X39610Y-42086D03*
G54D32*
X37875Y-43501D03*
X38295Y-43501D03*
G54D33*
X38285Y-42641D03*
X38285Y-43061D03*
G54D32*
X37625Y-44551D03*
X38045Y-44551D03*
X37625Y-44151D03*
X38045Y-44151D03*
X37725Y-45401D03*
X38145Y-45401D03*
G54D33*
X41725Y-58275D03*
X41725Y-57855D03*
X42925Y-58275D03*
X42925Y-57855D03*
G54D10*
G36*
X64670Y-57282D02*
X64882Y-57069D01*
X65080Y-57267D01*
X64868Y-57480D01*
X64670Y-57282D01*
X64670Y-57282D01*
G37*
G36*
X64373Y-56985D02*
X64585Y-56772D01*
X64783Y-56970D01*
X64571Y-57183D01*
X64373Y-56985D01*
X64373Y-56985D01*
G37*
G54D32*
X45185Y-55865D03*
X44765Y-55865D03*
X45485Y-55465D03*
X45065Y-55465D03*
X45185Y-55065D03*
X44765Y-55065D03*
G54D33*
X43275Y-53455D03*
X43275Y-53875D03*
X43675Y-53455D03*
X43675Y-53875D03*
G54D32*
X40365Y-55165D03*
X40785Y-55165D03*
X40365Y-55565D03*
X40785Y-55565D03*
X40365Y-56515D03*
X40785Y-56515D03*
X36610Y-48606D03*
X36190Y-48606D03*
X37840Y-48606D03*
X37420Y-48606D03*
G54D33*
X37960Y-46886D03*
X37960Y-46466D03*
X38360Y-46886D03*
X38360Y-46466D03*
X42125Y-58675D03*
X42125Y-58255D03*
X38760Y-46886D03*
X38760Y-46466D03*
G54D32*
X39835Y-48701D03*
X39415Y-48701D03*
X27584Y-60204D03*
X28004Y-60204D03*
G54D33*
X47669Y-64893D03*
X47669Y-64473D03*
G54D32*
X27704Y-61354D03*
X27284Y-61354D03*
X27704Y-62204D03*
X27284Y-62204D03*
X27782Y-63385D03*
X28202Y-63385D03*
G54D33*
X28774Y-64084D03*
X28774Y-63664D03*
G54D32*
X29954Y-63004D03*
X29534Y-63004D03*
G54D33*
X30064Y-61334D03*
X30064Y-61754D03*
G54D32*
X29754Y-59604D03*
X29334Y-59604D03*
X31604Y-61304D03*
X31184Y-61304D03*
G54D33*
X28194Y-61644D03*
X28194Y-62064D03*
X30250Y-58620D03*
X30250Y-59040D03*
X42280Y-60760D03*
X42280Y-61180D03*
G54D32*
X31854Y-60404D03*
X31434Y-60404D03*
X40390Y-62860D03*
X40810Y-62860D03*
X27722Y-58267D03*
X28142Y-58267D03*
X41814Y-62769D03*
X42234Y-62769D03*
X30004Y-60204D03*
X29584Y-60204D03*
G54D33*
X39704Y-61721D03*
X39704Y-61301D03*
X42810Y-60420D03*
X42810Y-60840D03*
X44160Y-61430D03*
X44160Y-61850D03*
X47669Y-65693D03*
X47669Y-65273D03*
G54D32*
X40600Y-61280D03*
X40180Y-61280D03*
G54D33*
X31370Y-58620D03*
X31370Y-59040D03*
G54D32*
X28140Y-57250D03*
X28560Y-57250D03*
X38394Y-60911D03*
X38814Y-60911D03*
X39314Y-63711D03*
X38894Y-63711D03*
X28731Y-56721D03*
X28311Y-56721D03*
G54D33*
X32010Y-57800D03*
X32010Y-58220D03*
G54D32*
X28731Y-56231D03*
X28311Y-56231D03*
X36694Y-59021D03*
X37114Y-59021D03*
G54D10*
G36*
X64847Y-51519D02*
X65059Y-51307D01*
X65257Y-51505D01*
X65045Y-51717D01*
X64847Y-51519D01*
X64847Y-51519D01*
G37*
G36*
X64550Y-51222D02*
X64762Y-51010D01*
X64960Y-51208D01*
X64748Y-51420D01*
X64550Y-51222D01*
X64550Y-51222D01*
G37*
G36*
X64882Y-53887D02*
X65094Y-53675D01*
X65292Y-53873D01*
X65080Y-54085D01*
X64882Y-53887D01*
X64882Y-53887D01*
G37*
G36*
X64585Y-53590D02*
X64797Y-53378D01*
X64995Y-53576D01*
X64783Y-53788D01*
X64585Y-53590D01*
X64585Y-53590D01*
G37*
G36*
X62089Y-50288D02*
X61877Y-50076D01*
X62075Y-49878D01*
X62287Y-50090D01*
X62089Y-50288D01*
X62089Y-50288D01*
G37*
G36*
X61792Y-50585D02*
X61580Y-50373D01*
X61778Y-50175D01*
X61990Y-50387D01*
X61792Y-50585D01*
X61792Y-50585D01*
G37*
G36*
X63185Y-51455D02*
X62973Y-51243D01*
X63171Y-51045D01*
X63383Y-51257D01*
X63185Y-51455D01*
X63185Y-51455D01*
G37*
G36*
X62888Y-51752D02*
X62676Y-51540D01*
X62874Y-51342D01*
X63086Y-51554D01*
X62888Y-51752D01*
X62888Y-51752D01*
G37*
G54D32*
X60270Y-63220D03*
X60690Y-63220D03*
G54D33*
X68044Y-44335D03*
X68044Y-43915D03*
X54200Y-46730D03*
X54200Y-46310D03*
G54D32*
X54772Y-43977D03*
X54352Y-43977D03*
G54D33*
X51500Y-41360D03*
X51500Y-41780D03*
X46100Y-42460D03*
X46100Y-42880D03*
G54D32*
X49192Y-50397D03*
X48772Y-50397D03*
X44890Y-46070D03*
X45310Y-46070D03*
X46442Y-49877D03*
X46862Y-49877D03*
X48122Y-62597D03*
X48542Y-62597D03*
G54D10*
G36*
X64847Y-52905D02*
X64635Y-52692D01*
X64833Y-52494D01*
X65045Y-52707D01*
X64847Y-52905D01*
X64847Y-52905D01*
G37*
G36*
X64550Y-53202D02*
X64338Y-52989D01*
X64536Y-52791D01*
X64748Y-53004D01*
X64550Y-53202D01*
X64550Y-53202D01*
G37*
G54D33*
X37804Y-59151D03*
X37804Y-59571D03*
G54D32*
X29534Y-63704D03*
X29954Y-63704D03*
G54D33*
X30750Y-66424D03*
X30750Y-66004D03*
G54D32*
X30404Y-64204D03*
X29984Y-64204D03*
X28004Y-59754D03*
X27584Y-59754D03*
G54D33*
X26062Y-63372D03*
X26062Y-63792D03*
X35864Y-64401D03*
X35864Y-63981D03*
G54D32*
X37674Y-63911D03*
X37254Y-63911D03*
G54D33*
X38354Y-62521D03*
X38354Y-62101D03*
G54D32*
X42535Y-59065D03*
X42115Y-59065D03*
X42535Y-57865D03*
X42115Y-57865D03*
X43735Y-59065D03*
X43315Y-59065D03*
X43735Y-57865D03*
X43315Y-57865D03*
G54D33*
X26722Y-48587D03*
X26722Y-49007D03*
G54D32*
X63136Y-61062D03*
X63556Y-61062D03*
X63989Y-59803D03*
X63569Y-59803D03*
G54D33*
X51802Y-66857D03*
X51802Y-66437D03*
G54D34*
X39914Y-62116D03*
X39654Y-62116D03*
X39394Y-62116D03*
X39394Y-62506D03*
X39654Y-62506D03*
X39914Y-62506D03*
G54D35*
X37659Y-64871D03*
X37659Y-64611D03*
X37659Y-64351D03*
X37269Y-64351D03*
X37269Y-64611D03*
X37269Y-64871D03*
G54D21*
X55722Y-50597D03*
X45272Y-56577D03*
X51250Y-66630D03*
X52642Y-61317D03*
X52762Y-59187D03*
X38250Y-63020D03*
G54D36*
X59709Y-45065D03*
G54D37*
X60209Y-45065D03*
X59709Y-45565D03*
X60209Y-45565D03*
X59709Y-46065D03*
X60209Y-46065D03*
X59709Y-46565D03*
X60209Y-46565D03*
X59709Y-47065D03*
X60209Y-47065D03*
G54D38*
X66344Y-42775D03*
X67144Y-42775D03*
X66344Y-41925D03*
X67144Y-41925D03*
X67144Y-46225D03*
X66344Y-46225D03*
X67144Y-45375D03*
X66344Y-45375D03*
X32640Y-48240D03*
X33440Y-48240D03*
G54D39*
X34312Y-48557D03*
X34312Y-49357D03*
G54D21*
X38712Y-41857D03*
X53722Y-50497D03*
X61312Y-48527D03*
X61310Y-49290D03*
G54D39*
X68694Y-44525D03*
X68694Y-43725D03*
G54D38*
X66922Y-48051D03*
X67722Y-48051D03*
G54D40*
X31789Y-62464D03*
X31789Y-62204D03*
X31789Y-61944D03*
X30999Y-61944D03*
X30999Y-62204D03*
X30999Y-62464D03*
X28299Y-60744D03*
X28299Y-61004D03*
X28299Y-61264D03*
X29089Y-61264D03*
X29089Y-61004D03*
X29089Y-60744D03*
G54D32*
X51842Y-63947D03*
X52262Y-63947D03*
G54D22*
X33132Y-46717D03*
X33832Y-46717D03*
X33482Y-47517D03*
G54D41*
X41607Y-65515D03*
G54D42*
X41291Y-65768D03*
G54D41*
X41411Y-66021D03*
X41607Y-66021D03*
G54D42*
X41726Y-65768D03*
G54D41*
X41411Y-65515D03*
G54D43*
X38711Y-65363D03*
G54D44*
X38964Y-65678D03*
G54D43*
X39218Y-65559D03*
X39218Y-65363D03*
G54D44*
X38964Y-65244D03*
G54D43*
X38711Y-65559D03*
G54D41*
X41226Y-62522D03*
G54D42*
X41541Y-62269D03*
G54D41*
X41422Y-62015D03*
X41226Y-62015D03*
G54D42*
X41106Y-62269D03*
G54D41*
X41422Y-62522D03*
G54D43*
X42907Y-61427D03*
G54D44*
X43160Y-61743D03*
G54D43*
X43414Y-61623D03*
X43414Y-61427D03*
G54D44*
X43160Y-61308D03*
G54D43*
X42907Y-61623D03*
X35134Y-56940D03*
G54D44*
X35388Y-57256D03*
G54D43*
X35641Y-57136D03*
X35641Y-56940D03*
G54D44*
X35388Y-56821D03*
G54D43*
X35134Y-57136D03*
G54D41*
X33349Y-55027D03*
G54D42*
X33034Y-55281D03*
G54D41*
X33153Y-55534D03*
X33349Y-55534D03*
G54D42*
X33469Y-55281D03*
G54D41*
X33153Y-55027D03*
X30353Y-55534D03*
G54D42*
X30669Y-55281D03*
G54D41*
X30549Y-55027D03*
X30353Y-55027D03*
G54D42*
X30234Y-55281D03*
G54D41*
X30549Y-55534D03*
G54D11*
X63122Y-41397D03*
G54D12*
X63122Y-42397D03*
X62122Y-41397D03*
X62122Y-42397D03*
X61122Y-41397D03*
X61122Y-42397D03*
X60122Y-41397D03*
X60122Y-42397D03*
X59122Y-41397D03*
X59122Y-42397D03*
X58122Y-41397D03*
X58122Y-42397D03*
X57122Y-41397D03*
X57122Y-42397D03*
X56122Y-41397D03*
X56122Y-42397D03*
X55122Y-41397D03*
X55122Y-42397D03*
X54122Y-41397D03*
X54122Y-42397D03*
G54D45*
X24015Y-46909D03*
X24015Y-45925D03*
X24122Y-51889D03*
X24122Y-50905D03*
X24122Y-55489D03*
X24122Y-54505D03*
X24122Y-57289D03*
X24122Y-56305D03*
X24122Y-59089D03*
X24122Y-58105D03*
X24122Y-53689D03*
X24122Y-52705D03*
G54D32*
X25132Y-52497D03*
X24712Y-52497D03*
G54D46*
X37153Y-61058D03*
X36956Y-61058D03*
X36760Y-61058D03*
X36563Y-61058D03*
X36366Y-61058D03*
X36169Y-61058D03*
X35972Y-61058D03*
X35775Y-61058D03*
G54D47*
X36464Y-62111D03*
G54D48*
X35411Y-61422D03*
X35411Y-61619D03*
X35411Y-61816D03*
X35411Y-62013D03*
X35411Y-62210D03*
X35411Y-62406D03*
X35411Y-62603D03*
X35411Y-62800D03*
G54D46*
X35775Y-63164D03*
X35972Y-63164D03*
X36169Y-63164D03*
X36366Y-63164D03*
X36563Y-63164D03*
X36760Y-63164D03*
X36956Y-63164D03*
X37153Y-63164D03*
G54D48*
X37517Y-62800D03*
X37517Y-62603D03*
X37517Y-62406D03*
X37517Y-62210D03*
X37517Y-62013D03*
X37517Y-61816D03*
X37517Y-61619D03*
X37517Y-61422D03*
G54D49*
X49791Y-65010D03*
X49987Y-65010D03*
X50184Y-65010D03*
X50381Y-65010D03*
X50578Y-65010D03*
G54D50*
X51050Y-64537D03*
X51050Y-64340D03*
X51050Y-64144D03*
X51050Y-63947D03*
X51050Y-63750D03*
G54D49*
X50578Y-63277D03*
X50381Y-63277D03*
X50184Y-63277D03*
X49987Y-63277D03*
X49791Y-63277D03*
G54D50*
X49318Y-63750D03*
X49318Y-63947D03*
X49318Y-64144D03*
X49318Y-64340D03*
X49318Y-64537D03*
G54D51*
X50184Y-64144D03*
G54D11*
X33122Y-50397D03*
G54D12*
X33122Y-49397D03*
G54D11*
X57122Y-44397D03*
G54D12*
X58122Y-44397D03*
G54D11*
X62122Y-44397D03*
G54D12*
X63122Y-44397D03*
G54D52*
X27214Y-67303D03*
G54D53*
X29527Y-67303D03*
X31889Y-67303D03*
X34251Y-67303D03*
X36614Y-67303D03*
X38976Y-67303D03*
X41338Y-67303D03*
X43700Y-67303D03*
G54D52*
X46013Y-67303D03*
G54D54*
X46574Y-66840D03*
G54D55*
X46574Y-64566D03*
X46574Y-62204D03*
X46574Y-59842D03*
X46574Y-57480D03*
X46574Y-55118D03*
G54D54*
X46574Y-52844D03*
G54D52*
X46013Y-52381D03*
G54D53*
X43700Y-52381D03*
X41338Y-52381D03*
X38976Y-52381D03*
X36614Y-52381D03*
X34251Y-52381D03*
X31889Y-52381D03*
X29527Y-52381D03*
G54D52*
X27214Y-52381D03*
G54D54*
X26653Y-52844D03*
G54D55*
X26653Y-55118D03*
X26653Y-57480D03*
X26653Y-59842D03*
X26653Y-62204D03*
X26653Y-64566D03*
G54D54*
X26653Y-66840D03*
G54D56*
X28548Y-62994D03*
X28705Y-62994D03*
X28863Y-62994D03*
X29020Y-62994D03*
X29020Y-62295D03*
X28863Y-62295D03*
X28705Y-62295D03*
X28548Y-62295D03*
G54D57*
X28784Y-62644D03*
G54D58*
X28784Y-62546D03*
G54D59*
X28784Y-62644D03*
G54D60*
X28804Y-62743D03*
G54D10*
G36*
X28587Y-62825D02*
X28505Y-62743D01*
X28595Y-62653D01*
X28677Y-62735D01*
X28587Y-62825D01*
X28587Y-62825D01*
G37*
G54D61*
X28617Y-62743D03*
G54D56*
X30830Y-60205D03*
X30673Y-60205D03*
X30515Y-60205D03*
X30358Y-60205D03*
X30358Y-60904D03*
X30515Y-60904D03*
X30673Y-60904D03*
X30830Y-60904D03*
G54D57*
X30594Y-60554D03*
G54D58*
X30594Y-60653D03*
G54D59*
X30594Y-60554D03*
G54D60*
X30574Y-60456D03*
G54D10*
G36*
X30791Y-60374D02*
X30873Y-60456D01*
X30783Y-60546D01*
X30701Y-60464D01*
X30791Y-60374D01*
X30791Y-60374D01*
G37*
G54D61*
X30761Y-60456D03*
G54D62*
X30999Y-57836D03*
X30999Y-57678D03*
X30999Y-57521D03*
X30999Y-57363D03*
X30300Y-57363D03*
X30300Y-57521D03*
X30300Y-57678D03*
X30300Y-57836D03*
G54D63*
X30650Y-57600D03*
G54D64*
X30551Y-57600D03*
G54D65*
X30650Y-57600D03*
G54D66*
X30748Y-57580D03*
G54D10*
G36*
X30830Y-57796D02*
X30748Y-57878D01*
X30658Y-57788D01*
X30740Y-57706D01*
X30830Y-57796D01*
X30830Y-57796D01*
G37*
G54D67*
X30748Y-57767D03*
G54D68*
X67334Y-44468D03*
X67334Y-44272D03*
X67334Y-44075D03*
X67334Y-43878D03*
X67334Y-43681D03*
X66153Y-43681D03*
X66153Y-43878D03*
X66153Y-44075D03*
X66153Y-44272D03*
X66153Y-44468D03*
G54D69*
X66582Y-43839D03*
X66582Y-44311D03*
X66905Y-44311D03*
X66905Y-43839D03*
G54D70*
X66645Y-44547D03*
X66842Y-44547D03*
X66842Y-43602D03*
X66645Y-43602D03*
G54D71*
X66744Y-44075D03*
X66547Y-44370D03*
X66940Y-44370D03*
X66940Y-43780D03*
X66547Y-43780D03*
G54D13*
X24685Y-42972D03*
X24685Y-44744D03*
G54D14*
X25665Y-45238D03*
X25665Y-42478D03*
G54D33*
X27152Y-43907D03*
X27152Y-44327D03*
X27152Y-49007D03*
X27152Y-49427D03*
X50172Y-62347D03*
X50172Y-61927D03*
X50612Y-61787D03*
X50612Y-61367D03*
G54D32*
X51362Y-59437D03*
X51782Y-59437D03*
G54D33*
X53122Y-64827D03*
X53122Y-65247D03*
G54D32*
X52822Y-65667D03*
X53242Y-65667D03*
G54D33*
X50182Y-61097D03*
X50182Y-61517D03*
G54D32*
X51032Y-60737D03*
X50612Y-60737D03*
X63192Y-47897D03*
X62772Y-47897D03*
X62782Y-48357D03*
X63202Y-48357D03*
G54D11*
X66122Y-64397D03*
G54D12*
X66122Y-65397D03*
X65122Y-64397D03*
X65122Y-65397D03*
X64122Y-64397D03*
X64122Y-65397D03*
X63122Y-64397D03*
X63122Y-65397D03*
X62122Y-64397D03*
X62122Y-65397D03*
X61122Y-64397D03*
X61122Y-65397D03*
X60122Y-64397D03*
X60122Y-65397D03*
X59122Y-64397D03*
X59122Y-65397D03*
X58122Y-64397D03*
X58122Y-65397D03*
X57122Y-64397D03*
X57122Y-65397D03*
X56122Y-64397D03*
X56122Y-65397D03*
X55122Y-64397D03*
X55122Y-65397D03*
X54122Y-64397D03*
X54122Y-65397D03*
G54D11*
X36122Y-41397D03*
G54D12*
X36122Y-42397D03*
X35122Y-41397D03*
X35122Y-42397D03*
X34122Y-41397D03*
X34122Y-42397D03*
G54D21*
X38132Y-63647D03*
X34930Y-63450D03*
X34552Y-62667D03*
X34362Y-61297D03*
X40522Y-63777D03*
X28340Y-57760D03*
X29412Y-65507D03*
X56702Y-60767D03*
X30780Y-59070D03*
X32332Y-60957D03*
X28872Y-55577D03*
X32072Y-58777D03*
X33882Y-57007D03*
X33952Y-54347D03*
X37102Y-56297D03*
X43212Y-64317D03*
X41442Y-63597D03*
X39312Y-60437D03*
X39260Y-59500D03*
X37982Y-60427D03*
X37122Y-58387D03*
X34382Y-61987D03*
X40672Y-57357D03*
X41162Y-57867D03*
X51972Y-53357D03*
X47262Y-56667D03*
X37652Y-42847D03*
X50612Y-60107D03*
X51792Y-61707D03*
X43832Y-48607D03*
X44710Y-43100D03*
X40920Y-41450D03*
X44082Y-47077D03*
X44840Y-43880D03*
X47022Y-42307D03*
X43892Y-44997D03*
X65412Y-54407D03*
X64032Y-50947D03*
X65812Y-50817D03*
X62272Y-59757D03*
X62342Y-47417D03*
X26392Y-51117D03*
X55032Y-48117D03*
X55960Y-48460D03*
X57972Y-45467D03*
X56062Y-47567D03*
X55982Y-45147D03*
X52642Y-49827D03*
X53182Y-52527D03*
G54D32*
X68954Y-59448D03*
X69374Y-59448D03*
G54D33*
X68122Y-64897D03*
X68122Y-65317D03*
G54D21*
X65762Y-62217D03*
X60732Y-62317D03*
G54D72*
X35163Y-56102D03*
X33112Y-59707D03*
X29754Y-56777D03*
X29155Y-57540D03*
X36922Y-54697D03*
X33622Y-63527D03*
X29661Y-62145D03*
X31115Y-59591D03*
X44850Y-63681D03*
X40989Y-66456D03*
X41044Y-65108D03*
X39770Y-65458D03*
X31365Y-58154D03*
X43101Y-62766D03*
X39119Y-58145D03*
X40642Y-60740D03*
X44376Y-60516D03*
G54D33*
X47132Y-65617D03*
X47132Y-65197D03*
X32202Y-47497D03*
X32202Y-47077D03*
G54D21*
X44112Y-62857D03*
X40462Y-65747D03*
X38262Y-58427D03*
X36052Y-55437D03*
X29291Y-64724D03*
X32242Y-59767D03*
X34302Y-63777D03*
X27342Y-57707D03*
X41442Y-60087D03*
X44662Y-59677D03*
G54D11*
X57122Y-46397D03*
G54D12*
X57122Y-47397D03*
G54D11*
X70122Y-51397D03*
G54D12*
X70122Y-52397D03*
G54D11*
X49122Y-61397D03*
G54D12*
X48122Y-61397D03*
X49122Y-60397D03*
X48122Y-60397D03*
X49122Y-59397D03*
X48122Y-59397D03*
X49122Y-58397D03*
X48122Y-58397D03*
X49122Y-57397D03*
X48122Y-57397D03*
X49122Y-56397D03*
X48122Y-56397D03*
X49122Y-55397D03*
X48122Y-55397D03*
X49122Y-54397D03*
X48122Y-54397D03*
X49122Y-53397D03*
X48122Y-53397D03*
X49122Y-52397D03*
X48122Y-52397D03*
X49122Y-51397D03*
X48122Y-51397D03*
G54D11*
X51122Y-52397D03*
G54D12*
X52122Y-52397D03*
G54D73*
X25196Y-40944D03*
G54D74*
X25196Y-40078D03*
X24330Y-40944D03*
X25196Y-41811D03*
X26062Y-40944D03*
X25807Y-40334D03*
X24586Y-40334D03*
X24586Y-41555D03*
X25807Y-41555D03*
G54D73*
X25196Y-67322D03*
G54D74*
X25196Y-66456D03*
X24330Y-67322D03*
X25196Y-68188D03*
X26062Y-67322D03*
X25807Y-66712D03*
X24586Y-66712D03*
X24586Y-67933D03*
X25807Y-67933D03*
G54D73*
X69291Y-67322D03*
G54D74*
X69291Y-66456D03*
X68425Y-67322D03*
X69291Y-68188D03*
X70157Y-67322D03*
X69901Y-66712D03*
X68681Y-66712D03*
X68681Y-67933D03*
X69901Y-67933D03*
G54D73*
X69291Y-40944D03*
G54D74*
X69291Y-40078D03*
X68425Y-40944D03*
X69291Y-41811D03*
X70157Y-40944D03*
X69901Y-40334D03*
X68681Y-40334D03*
X68681Y-41555D03*
X69901Y-41555D03*
G54D73*
X49606Y-40944D03*
G54D74*
X49606Y-40078D03*
X48740Y-40944D03*
X49606Y-41811D03*
X50472Y-40944D03*
X50216Y-40334D03*
X48996Y-40334D03*
X48996Y-41555D03*
X50216Y-41555D03*
G54D73*
X51574Y-56692D03*
G54D74*
X51574Y-55826D03*
X50708Y-56692D03*
X51574Y-57559D03*
X52440Y-56692D03*
X52185Y-56082D03*
X50964Y-56082D03*
X50964Y-57303D03*
X52185Y-57303D03*
G54D32*
X48980Y-63040D03*
X48560Y-63040D03*
G54D75*
X63582Y-60610D03*
X63582Y-60255D03*
G54D76*
X65767Y-60433D03*
G54D77*
X44881Y-50984D03*
G54D38*
X69403Y-45511D03*
X70203Y-45511D03*
X69403Y-46377D03*
X70203Y-46377D03*
G54D11*
X42122Y-50397D03*
G54D12*
X42122Y-51397D03*
X41122Y-50397D03*
X41122Y-51397D03*
X40122Y-50397D03*
X40122Y-51397D03*
X39122Y-50397D03*
X39122Y-51397D03*
X38122Y-50397D03*
X38122Y-51397D03*
X37122Y-50397D03*
X37122Y-51397D03*
X36122Y-50397D03*
X36122Y-51397D03*
X35122Y-50397D03*
X35122Y-51397D03*
G54D32*
X54812Y-50197D03*
X55232Y-50197D03*
X49940Y-66890D03*
X50360Y-66890D03*
G54D33*
X48228Y-66010D03*
X48228Y-66430D03*
G54D78*
X24848Y-63385D03*
G54D79*
X24848Y-62010D03*
X24848Y-64760D03*
G54D78*
X69639Y-64173D03*
G54D79*
X69639Y-65548D03*
X69639Y-62798D03*
G54D78*
X69639Y-57086D03*
G54D79*
X69639Y-58461D03*
X69639Y-55711D03*
G54D22*
X28224Y-65045D03*
X27524Y-65045D03*
X27874Y-64245D03*
X27322Y-63400D03*
X27322Y-64000D03*
G54D32*
X28084Y-65590D03*
X27664Y-65590D03*
G54D33*
X28661Y-65879D03*
X28661Y-65459D03*
G54D22*
X65872Y-47507D03*
X65872Y-48207D03*
X65072Y-47857D03*
G54D38*
X66922Y-50314D03*
X67722Y-50314D03*
G54D32*
X63532Y-49187D03*
X63112Y-49187D03*
X65436Y-49320D03*
X65016Y-49320D03*
X65436Y-49005D03*
X65016Y-49005D03*
G54D80*
X67312Y-49360D03*
X67312Y-49163D03*
X67312Y-48966D03*
X66564Y-48966D03*
X66564Y-49163D03*
X66564Y-49360D03*
G54D81*
X66938Y-49163D03*
G54D82*
X69281Y-49330D03*
X69281Y-49074D03*
X69281Y-48818D03*
X69281Y-48562D03*
X69281Y-48307D03*
G54D83*
X70413Y-49187D03*
X70413Y-48449D03*
G54D84*
X69200Y-49933D03*
X69200Y-47704D03*
G54D85*
X69852Y-49995D03*
X69852Y-47642D03*
G54D86*
X70413Y-50393D03*
X70413Y-47244D03*
G54D13*
X70393Y-50442D03*
X70393Y-47194D03*
G54D87*
X69200Y-49799D03*
X69200Y-47838D03*
G54D88*
X67322Y-40157D03*
M02*
