G04 (created by PCBNEW (2012-nov-02)-stable) date Sat 15 Mar 2014 07:07:26 PM MDT*
%MOIN*%
G04 Gerber Fmt 3.4, Leading zero omitted, Abs format*
%FSLAX34Y34*%
G01*
G70*
G90*
G04 APERTURE LIST*
%ADD10C,0*%
%ADD11C,0.007*%
%ADD12R,0.06X0.06*%
%ADD13C,0.06*%
%ADD14C,0.0590551*%
%ADD15C,0.0787402*%
%ADD16C,0.025*%
%ADD17R,0.042X0.042*%
%ADD18C,0.042*%
%ADD19C,0.023622*%
%ADD20C,0.0230315*%
%ADD21C,0.220472*%
%ADD22R,0.164961X0.104921*%
%ADD23C,0.0551181*%
%ADD24C,0.0393701*%
%ADD25C,0.027*%
%ADD26C,0.031*%
%ADD27C,0.037*%
%ADD28C,0.008*%
%ADD29C,0.01*%
%ADD30C,0.05*%
%ADD31C,0.04*%
%ADD32C,0.02*%
%ADD33C,0.012*%
G04 APERTURE END LIST*
G54D10*
G54D11*
X66099Y-39777D02*
X66099Y-40043D01*
X66004Y-39624D02*
X65909Y-39910D01*
X66156Y-39910D01*
G54D12*
X68122Y-61397D03*
G54D13*
X67122Y-61397D03*
X68122Y-60397D03*
X67122Y-60397D03*
X68122Y-59397D03*
X67122Y-59397D03*
X68122Y-58397D03*
X67122Y-58397D03*
X68122Y-57397D03*
X67122Y-57397D03*
X68122Y-56397D03*
X67122Y-56397D03*
X68122Y-55397D03*
X67122Y-55397D03*
X68122Y-54397D03*
X67122Y-54397D03*
X68122Y-53397D03*
X67122Y-53397D03*
X68122Y-52397D03*
X67122Y-52397D03*
X68122Y-51397D03*
X67122Y-51397D03*
G54D14*
X24685Y-48090D03*
X24685Y-49862D03*
G54D15*
X25665Y-50356D03*
X25665Y-47596D03*
G54D16*
X40510Y-44276D03*
X40510Y-44925D03*
X39860Y-44925D03*
X39860Y-44276D03*
X39860Y-43626D03*
X40510Y-43626D03*
X41159Y-43626D03*
X41159Y-44276D03*
X41159Y-44925D03*
X42775Y-55865D03*
X42775Y-56455D03*
X42184Y-56455D03*
X42184Y-55865D03*
X42184Y-55274D03*
X42775Y-55274D03*
X43365Y-55274D03*
X43365Y-55865D03*
X43365Y-56455D03*
G54D12*
X54122Y-62397D03*
G54D13*
X55122Y-62397D03*
X56122Y-62397D03*
X57122Y-62397D03*
X58122Y-62397D03*
X59122Y-62397D03*
G54D17*
X59709Y-45065D03*
G54D18*
X60209Y-45065D03*
X59709Y-45565D03*
X60209Y-45565D03*
X59709Y-46065D03*
X60209Y-46065D03*
X59709Y-46565D03*
X60209Y-46565D03*
X59709Y-47065D03*
X60209Y-47065D03*
G54D12*
X63122Y-41397D03*
G54D13*
X63122Y-42397D03*
X62122Y-41397D03*
X62122Y-42397D03*
X61122Y-41397D03*
X61122Y-42397D03*
X60122Y-41397D03*
X60122Y-42397D03*
X59122Y-41397D03*
X59122Y-42397D03*
X58122Y-41397D03*
X58122Y-42397D03*
X57122Y-41397D03*
X57122Y-42397D03*
X56122Y-41397D03*
X56122Y-42397D03*
X55122Y-41397D03*
X55122Y-42397D03*
X54122Y-41397D03*
X54122Y-42397D03*
G54D19*
X36464Y-62111D03*
X36464Y-61678D03*
X36897Y-61678D03*
X36897Y-62111D03*
X36897Y-62544D03*
X36464Y-62544D03*
X36031Y-62544D03*
X36031Y-62111D03*
X36031Y-61678D03*
X50184Y-64144D03*
X49924Y-64403D03*
X49924Y-63884D03*
X50444Y-63884D03*
X50444Y-64403D03*
G54D12*
X33122Y-50397D03*
G54D13*
X33122Y-49397D03*
G54D12*
X57122Y-44397D03*
G54D13*
X58122Y-44397D03*
G54D12*
X62122Y-44397D03*
G54D13*
X63122Y-44397D03*
G54D20*
X66744Y-44075D03*
X66547Y-44370D03*
X66940Y-44370D03*
X66940Y-43780D03*
X66547Y-43780D03*
G54D14*
X24685Y-42972D03*
X24685Y-44744D03*
G54D15*
X25665Y-45238D03*
X25665Y-42478D03*
G54D12*
X66122Y-64397D03*
G54D13*
X66122Y-65397D03*
X65122Y-64397D03*
X65122Y-65397D03*
X64122Y-64397D03*
X64122Y-65397D03*
X63122Y-64397D03*
X63122Y-65397D03*
X62122Y-64397D03*
X62122Y-65397D03*
X61122Y-64397D03*
X61122Y-65397D03*
X60122Y-64397D03*
X60122Y-65397D03*
X59122Y-64397D03*
X59122Y-65397D03*
X58122Y-64397D03*
X58122Y-65397D03*
X57122Y-64397D03*
X57122Y-65397D03*
X56122Y-64397D03*
X56122Y-65397D03*
X55122Y-64397D03*
X55122Y-65397D03*
X54122Y-64397D03*
X54122Y-65397D03*
G54D12*
X36122Y-41397D03*
G54D13*
X36122Y-42397D03*
X35122Y-41397D03*
X35122Y-42397D03*
X34122Y-41397D03*
X34122Y-42397D03*
G54D12*
X57122Y-46397D03*
G54D13*
X57122Y-47397D03*
G54D12*
X70122Y-51397D03*
G54D13*
X70122Y-52397D03*
G54D12*
X49122Y-61397D03*
G54D13*
X48122Y-61397D03*
X49122Y-60397D03*
X48122Y-60397D03*
X49122Y-59397D03*
X48122Y-59397D03*
X49122Y-58397D03*
X48122Y-58397D03*
X49122Y-57397D03*
X48122Y-57397D03*
X49122Y-56397D03*
X48122Y-56397D03*
X49122Y-55397D03*
X48122Y-55397D03*
X49122Y-54397D03*
X48122Y-54397D03*
X49122Y-53397D03*
X48122Y-53397D03*
X49122Y-52397D03*
X48122Y-52397D03*
X49122Y-51397D03*
X48122Y-51397D03*
G54D12*
X51122Y-52397D03*
G54D13*
X52122Y-52397D03*
G54D21*
X25196Y-40944D03*
G54D19*
X25196Y-40078D03*
X24330Y-40944D03*
X25196Y-41811D03*
X26062Y-40944D03*
X25807Y-40334D03*
X24586Y-40334D03*
X24586Y-41555D03*
X25807Y-41555D03*
G54D21*
X25196Y-67322D03*
G54D19*
X25196Y-66456D03*
X24330Y-67322D03*
X25196Y-68188D03*
X26062Y-67322D03*
X25807Y-66712D03*
X24586Y-66712D03*
X24586Y-67933D03*
X25807Y-67933D03*
G54D21*
X69291Y-67322D03*
G54D19*
X69291Y-66456D03*
X68425Y-67322D03*
X69291Y-68188D03*
X70157Y-67322D03*
X69901Y-66712D03*
X68681Y-66712D03*
X68681Y-67933D03*
X69901Y-67933D03*
G54D21*
X69291Y-40944D03*
G54D19*
X69291Y-40078D03*
X68425Y-40944D03*
X69291Y-41811D03*
X70157Y-40944D03*
X69901Y-40334D03*
X68681Y-40334D03*
X68681Y-41555D03*
X69901Y-41555D03*
G54D21*
X49606Y-40944D03*
G54D19*
X49606Y-40078D03*
X48740Y-40944D03*
X49606Y-41811D03*
X50472Y-40944D03*
X50216Y-40334D03*
X48996Y-40334D03*
X48996Y-41555D03*
X50216Y-41555D03*
G54D21*
X51574Y-56692D03*
G54D19*
X51574Y-55826D03*
X50708Y-56692D03*
X51574Y-57559D03*
X52440Y-56692D03*
X52185Y-56082D03*
X50964Y-56082D03*
X50964Y-57303D03*
X52185Y-57303D03*
G54D12*
X42122Y-50397D03*
G54D13*
X42122Y-51397D03*
X41122Y-50397D03*
X41122Y-51397D03*
X40122Y-50397D03*
X40122Y-51397D03*
X39122Y-50397D03*
X39122Y-51397D03*
X38122Y-50397D03*
X38122Y-51397D03*
X37122Y-50397D03*
X37122Y-51397D03*
X36122Y-50397D03*
X36122Y-51397D03*
X35122Y-50397D03*
X35122Y-51397D03*
G54D22*
X24848Y-62010D03*
X24848Y-64760D03*
G54D19*
X25401Y-64370D03*
X25401Y-64763D03*
X25401Y-65157D03*
X25007Y-64370D03*
X25007Y-64763D03*
X25007Y-65157D03*
X24614Y-64370D03*
X24614Y-64763D03*
X24614Y-65157D03*
X25401Y-62401D03*
X25401Y-62007D03*
X25401Y-61614D03*
X25007Y-62401D03*
X25007Y-62007D03*
X25007Y-61614D03*
X24614Y-62401D03*
X24614Y-62007D03*
X24614Y-61614D03*
G54D22*
X69639Y-65548D03*
X69639Y-62798D03*
G54D19*
X69086Y-63188D03*
X69086Y-62795D03*
X69086Y-62401D03*
X69480Y-63188D03*
X69480Y-62795D03*
X69480Y-62401D03*
X69874Y-63188D03*
X69874Y-62795D03*
X69874Y-62401D03*
X69086Y-65157D03*
X69086Y-65551D03*
X69086Y-65944D03*
X69480Y-65157D03*
X69480Y-65551D03*
X69480Y-65944D03*
X69874Y-65157D03*
X69874Y-65551D03*
X69874Y-65944D03*
G54D22*
X69639Y-58461D03*
X69639Y-55711D03*
G54D19*
X69086Y-56102D03*
X69086Y-55708D03*
X69086Y-55314D03*
X69480Y-56102D03*
X69480Y-55708D03*
X69480Y-55314D03*
X69874Y-56102D03*
X69874Y-55708D03*
X69874Y-55314D03*
X69086Y-58070D03*
X69086Y-58464D03*
X69086Y-58858D03*
X69480Y-58070D03*
X69480Y-58464D03*
X69480Y-58858D03*
X69874Y-58070D03*
X69874Y-58464D03*
X69874Y-58858D03*
G54D14*
X70393Y-50442D03*
X70393Y-47194D03*
G54D23*
X69200Y-49799D03*
X69200Y-47838D03*
G54D24*
X67322Y-40157D03*
G54D25*
X29111Y-56231D03*
X60792Y-55737D03*
G54D18*
X47082Y-66107D03*
G54D26*
X47360Y-68120D03*
X42690Y-64830D03*
G54D25*
X58252Y-59997D03*
X28874Y-57844D03*
X30050Y-66064D03*
X54887Y-61667D03*
G54D26*
X57282Y-48167D03*
G54D18*
X48702Y-48587D03*
X48700Y-45410D03*
X50672Y-44897D03*
X46100Y-43450D03*
G54D25*
X34152Y-63007D03*
X31972Y-66157D03*
X34750Y-61560D03*
G54D18*
X47052Y-64337D03*
G54D26*
X50102Y-43697D03*
X50602Y-44327D03*
X50692Y-43747D03*
X50892Y-44067D03*
X51082Y-44397D03*
X48042Y-48027D03*
X48042Y-46877D03*
X48062Y-47267D03*
X48052Y-47647D03*
X50972Y-53457D03*
X46232Y-48047D03*
X50832Y-53107D03*
X46192Y-47447D03*
G54D25*
X53662Y-47207D03*
G54D26*
X47462Y-47867D03*
X54990Y-56410D03*
X55920Y-55320D03*
G54D25*
X57442Y-59167D03*
G54D18*
X33232Y-40777D03*
G54D25*
X64994Y-44325D03*
G54D26*
X50082Y-44087D03*
X66650Y-58060D03*
G54D25*
X63044Y-55288D03*
X63150Y-55634D03*
X62192Y-55787D03*
G54D26*
X65990Y-58910D03*
G54D25*
X62605Y-55556D03*
G54D26*
X62042Y-53227D03*
X48542Y-62187D03*
G54D25*
X60182Y-57577D03*
X55982Y-57117D03*
X57092Y-56007D03*
X55642Y-57087D03*
X57122Y-55607D03*
X60512Y-57227D03*
G54D26*
X61782Y-61007D03*
G54D25*
X60774Y-60131D03*
X59772Y-62807D03*
X60542Y-60437D03*
X60712Y-60727D03*
G54D26*
X59692Y-53097D03*
G54D18*
X33802Y-43277D03*
G54D25*
X59572Y-52537D03*
G54D26*
X56212Y-60357D03*
X57022Y-58717D03*
G54D18*
X32892Y-41897D03*
G54D25*
X54652Y-61392D03*
G54D26*
X69250Y-42335D03*
X67934Y-43505D03*
G54D18*
X33912Y-40427D03*
G54D25*
X61882Y-57257D03*
G54D26*
X60762Y-56747D03*
G54D25*
X58186Y-49143D03*
X56352Y-54077D03*
G54D26*
X50202Y-58997D03*
G54D25*
X57742Y-51227D03*
X57252Y-51917D03*
X57132Y-52637D03*
X57322Y-53117D03*
G54D26*
X50062Y-58647D03*
X49792Y-58907D03*
G54D25*
X56764Y-53336D03*
X57122Y-53707D03*
G54D26*
X49942Y-59437D03*
G54D25*
X57562Y-52177D03*
G54D26*
X49642Y-58257D03*
G54D25*
X57662Y-53077D03*
X57122Y-45577D03*
X58522Y-48107D03*
G54D26*
X56722Y-45147D03*
G54D25*
X58252Y-48427D03*
G54D26*
X63900Y-61910D03*
X60800Y-58460D03*
X64170Y-62210D03*
X62172Y-61047D03*
X61170Y-62700D03*
X61632Y-61357D03*
X61079Y-45975D03*
X62082Y-46857D03*
X61082Y-46387D03*
X62358Y-58646D03*
X66280Y-61980D03*
G54D18*
X66112Y-49163D03*
X66372Y-48047D03*
G54D26*
X63700Y-48582D03*
G54D18*
X69324Y-43748D03*
X65072Y-47367D03*
G54D26*
X62342Y-48667D03*
G54D25*
X56545Y-59976D03*
X57282Y-60597D03*
G54D18*
X30250Y-59450D03*
G54D25*
X27744Y-62604D03*
X29035Y-61889D03*
X30464Y-61304D03*
G54D26*
X48902Y-63417D03*
G54D25*
X38765Y-42911D03*
G54D26*
X52052Y-51267D03*
X45460Y-53640D03*
X51202Y-53987D03*
G54D25*
X40335Y-46101D03*
G54D26*
X41992Y-47287D03*
X49232Y-49847D03*
X46100Y-43930D03*
G54D18*
X68897Y-46968D03*
X66302Y-50317D03*
G54D26*
X63202Y-48767D03*
G54D18*
X67775Y-49163D03*
X29650Y-64200D03*
X28982Y-66197D03*
X25822Y-64097D03*
X69372Y-59847D03*
X50770Y-66890D03*
X48240Y-66890D03*
X49192Y-50777D03*
G54D26*
X54422Y-50197D03*
G54D18*
X44094Y-50984D03*
G54D26*
X62832Y-60687D03*
X64472Y-59807D03*
G54D18*
X51032Y-48607D03*
X44160Y-62230D03*
G54D26*
X38254Y-58961D03*
G54D18*
X36488Y-55898D03*
X27342Y-58267D03*
X32244Y-60404D03*
X35064Y-64191D03*
X41009Y-65768D03*
X41785Y-59665D03*
X44065Y-59665D03*
X46555Y-65748D03*
X31802Y-47497D03*
X53052Y-43362D03*
X52960Y-56730D03*
X37827Y-45787D03*
X37252Y-44232D03*
X40412Y-41667D03*
X68122Y-65717D03*
X52382Y-65607D03*
X51432Y-60737D03*
X50182Y-60697D03*
X50982Y-59437D03*
X26722Y-48187D03*
X27165Y-62598D03*
X26673Y-56299D03*
X26673Y-58661D03*
X26673Y-61023D03*
X26673Y-65748D03*
X39050Y-64200D03*
X47047Y-55511D03*
X44881Y-67322D03*
X42519Y-67322D03*
X40157Y-67322D03*
X28346Y-67322D03*
X30708Y-67322D03*
X37795Y-67322D03*
X35433Y-67322D03*
X33070Y-67322D03*
X46062Y-57086D03*
X46555Y-53937D03*
X37007Y-52854D03*
X44881Y-52362D03*
X41043Y-52854D03*
X46555Y-63385D03*
X46555Y-58661D03*
X46555Y-61023D03*
X47070Y-63510D03*
X42519Y-52362D03*
X38976Y-52952D03*
X26673Y-53937D03*
X28346Y-52362D03*
X30708Y-52362D03*
X33070Y-52362D03*
X35433Y-52362D03*
X24722Y-53697D03*
X24722Y-51897D03*
X24722Y-59087D03*
X24722Y-57287D03*
X24722Y-55487D03*
X24622Y-46737D03*
X34312Y-47897D03*
X54932Y-61097D03*
X56672Y-61317D03*
X54412Y-49707D03*
X48952Y-62327D03*
X47742Y-62597D03*
X47452Y-64057D03*
X52532Y-57787D03*
X51732Y-53937D03*
X51802Y-67237D03*
X55172Y-43867D03*
X51292Y-62177D03*
X64790Y-61240D03*
X51822Y-62627D03*
X54412Y-49207D03*
X46442Y-50277D03*
X54862Y-60057D03*
X62358Y-49807D03*
X65327Y-51222D03*
X49484Y-65444D03*
G54D25*
X37882Y-49757D03*
G54D26*
X41532Y-47227D03*
G54D18*
X40390Y-63240D03*
X39540Y-60960D03*
X40160Y-60900D03*
X42150Y-60370D03*
X29480Y-55000D03*
X34920Y-62020D03*
X32390Y-58220D03*
X30650Y-58230D03*
X29870Y-58620D03*
G54D25*
X37380Y-49756D03*
G54D18*
X41874Y-62269D03*
X28311Y-55851D03*
X27931Y-56721D03*
X30701Y-56641D03*
X31130Y-66420D03*
X42065Y-45711D03*
X32951Y-56691D03*
G54D25*
X31751Y-54281D03*
G54D18*
X63744Y-44075D03*
G54D27*
X40015Y-55375D03*
G54D18*
X60979Y-61722D03*
X27594Y-59404D03*
G54D27*
X36764Y-64791D03*
G54D26*
X36354Y-58921D03*
G54D25*
X39900Y-47546D03*
G54D18*
X38964Y-65961D03*
X30034Y-60674D03*
G54D27*
X35714Y-64791D03*
G54D18*
X42290Y-46886D03*
X37184Y-65411D03*
X32194Y-62334D03*
G54D26*
X36354Y-59451D03*
G54D18*
X62711Y-50161D03*
X67144Y-41425D03*
X59741Y-61206D03*
X48084Y-65354D03*
X63461Y-50967D03*
X65363Y-53590D03*
X56241Y-48924D03*
X31001Y-55281D03*
X48330Y-43560D03*
G54D27*
X63348Y-52494D03*
G54D26*
X40400Y-47176D03*
G54D18*
X32951Y-53931D03*
X58165Y-50550D03*
G54D26*
X38704Y-59261D03*
X37154Y-59451D03*
G54D18*
X63206Y-59495D03*
X61297Y-52494D03*
X58964Y-48676D03*
X40365Y-56915D03*
G54D25*
X31751Y-53831D03*
G54D18*
X42769Y-66368D03*
X44475Y-53455D03*
G54D25*
X41130Y-47546D03*
G54D18*
X43505Y-44551D03*
X39225Y-41661D03*
X31651Y-56781D03*
X47360Y-44850D03*
X67144Y-46725D03*
X38635Y-42401D03*
X44775Y-57765D03*
X65398Y-52070D03*
G54D27*
X37335Y-44801D03*
G54D18*
X45875Y-55465D03*
X42925Y-58665D03*
X43160Y-62075D03*
X65151Y-52954D03*
X65151Y-57550D03*
X65594Y-44075D03*
X34964Y-60811D03*
X37485Y-43451D03*
X51850Y-41360D03*
X28254Y-62704D03*
G54D27*
X29234Y-63704D03*
X45575Y-55065D03*
X62591Y-56645D03*
G54D25*
X36650Y-49756D03*
G54D18*
X41529Y-64428D03*
G54D26*
X39560Y-47176D03*
G54D18*
X38474Y-64061D03*
X34614Y-59811D03*
X64585Y-58116D03*
X63355Y-54496D03*
X29324Y-59244D03*
X43775Y-53055D03*
X67594Y-42575D03*
X59880Y-63220D03*
X60731Y-51929D03*
G54D26*
X36754Y-59451D03*
G54D18*
X53731Y-51434D03*
G54D26*
X68894Y-45575D03*
G54D25*
X36150Y-49756D03*
G54D18*
X40365Y-54765D03*
G54D26*
X40760Y-47136D03*
X38360Y-47176D03*
G54D27*
X28774Y-64384D03*
G54D18*
X36264Y-64791D03*
G54D26*
X68044Y-44675D03*
G54D18*
X39704Y-63711D03*
G54D27*
X42855Y-59445D03*
G54D18*
X43505Y-44071D03*
X27284Y-61824D03*
G54D26*
X38760Y-47176D03*
G54D18*
X63772Y-58929D03*
G54D26*
X39160Y-47176D03*
G54D25*
X31751Y-54731D03*
G54D18*
X41725Y-58665D03*
G54D25*
X39400Y-47546D03*
G54D18*
X34048Y-56488D03*
G54D26*
X37804Y-58811D03*
G54D27*
X45585Y-55845D03*
G54D18*
X44900Y-45670D03*
G54D27*
X42995Y-59885D03*
G54D26*
X37960Y-47176D03*
G54D18*
X47669Y-66093D03*
X27244Y-60204D03*
G54D25*
X40630Y-47546D03*
G54D18*
X29494Y-61134D03*
X46500Y-42470D03*
X32151Y-56781D03*
X27284Y-60994D03*
X27894Y-60874D03*
G54D27*
X43275Y-53055D03*
G54D18*
X30604Y-62074D03*
X67594Y-45575D03*
X38054Y-60961D03*
X32701Y-55281D03*
X53800Y-46770D03*
X49710Y-48580D03*
G54D26*
X68894Y-43075D03*
G54D18*
X35388Y-57588D03*
X68694Y-45075D03*
G54D26*
X64900Y-54850D03*
G54D25*
X30301Y-54621D03*
X33351Y-54681D03*
X60812Y-55037D03*
X30351Y-55881D03*
X33351Y-55931D03*
X58502Y-55667D03*
X38240Y-61360D03*
X38254Y-60061D03*
X58742Y-55957D03*
X38334Y-61711D03*
X38700Y-60440D03*
G54D26*
X56332Y-58067D03*
G54D25*
X37804Y-59961D03*
G54D26*
X37452Y-59097D03*
X56912Y-57287D03*
X53662Y-63487D03*
X40952Y-64557D03*
G54D25*
X42600Y-61280D03*
G54D26*
X41922Y-63587D03*
G54D25*
X41607Y-66366D03*
X68904Y-42575D03*
X65444Y-43625D03*
X68224Y-45075D03*
G54D26*
X63572Y-46987D03*
X61872Y-51257D03*
X62772Y-49367D03*
X65082Y-50817D03*
G54D25*
X60906Y-52321D03*
G54D26*
X58522Y-54917D03*
G54D25*
X42330Y-54270D03*
X34838Y-56788D03*
G54D26*
X40052Y-64647D03*
G54D25*
X54292Y-63507D03*
X38342Y-65363D03*
G54D26*
X59062Y-52107D03*
G54D25*
X41240Y-57330D03*
X29754Y-59244D03*
X58002Y-59767D03*
X27744Y-61754D03*
X28644Y-61704D03*
X29091Y-56731D03*
X60802Y-56107D03*
X50942Y-65737D03*
G54D26*
X52442Y-59537D03*
G54D25*
X54582Y-58407D03*
G54D26*
X53292Y-64427D03*
X52792Y-62627D03*
G54D25*
X50934Y-65394D03*
G54D26*
X53082Y-64047D03*
G54D25*
X54402Y-58687D03*
G54D26*
X53072Y-59547D03*
X51792Y-59087D03*
X56410Y-55370D03*
G54D25*
X42820Y-53040D03*
X56538Y-50409D03*
G54D26*
X53223Y-51068D03*
G54D25*
X42330Y-53880D03*
G54D26*
X39212Y-42147D03*
X44602Y-56587D03*
X50912Y-51177D03*
X39268Y-42577D03*
G54D25*
X36128Y-56938D03*
G54D26*
X39020Y-64630D03*
X53622Y-63927D03*
X39892Y-63157D03*
G54D25*
X41100Y-61650D03*
G54D26*
X59222Y-52467D03*
G54D25*
X40960Y-56980D03*
X60132Y-56857D03*
X30784Y-61454D03*
X28834Y-63304D03*
X31434Y-60764D03*
X31660Y-57780D03*
X60842Y-55407D03*
G54D18*
X28702Y-65007D03*
X47142Y-64827D03*
X25122Y-52897D03*
G54D26*
X41055Y-55195D03*
G54D27*
X43385Y-54105D03*
G54D18*
X41560Y-46086D03*
X39945Y-42451D03*
X38682Y-43367D03*
X38427Y-44257D03*
X39260Y-63210D03*
X36404Y-60461D03*
X36654Y-63711D03*
G54D25*
X41105Y-56465D03*
G54D18*
X39254Y-61411D03*
X29600Y-66064D03*
G54D25*
X41175Y-55555D03*
G54D27*
X40810Y-46076D03*
G54D18*
X42925Y-57485D03*
X41725Y-57475D03*
X29344Y-58604D03*
G54D26*
X44435Y-55845D03*
G54D18*
X38515Y-45171D03*
X44375Y-56965D03*
G54D26*
X39560Y-46076D03*
G54D18*
X31250Y-65514D03*
X27704Y-58804D03*
G54D26*
X44375Y-55305D03*
X57712Y-48157D03*
X66142Y-52107D03*
X61492Y-47877D03*
X65682Y-59147D03*
X25032Y-46367D03*
G54D18*
X47300Y-49870D03*
X32602Y-46717D03*
X53392Y-56967D03*
X64367Y-53587D03*
X62942Y-58107D03*
X48722Y-56897D03*
X26722Y-43087D03*
G54D26*
X54302Y-50777D03*
G54D18*
X56112Y-61567D03*
X49734Y-62744D03*
X48652Y-64147D03*
G54D26*
X44725Y-55475D03*
G54D18*
X52918Y-53944D03*
X45700Y-46070D03*
X42362Y-44457D03*
G54D27*
X50984Y-66144D03*
G54D18*
X35864Y-63691D03*
X53950Y-43970D03*
X61110Y-63210D03*
X51432Y-63467D03*
X52612Y-63107D03*
X52322Y-61877D03*
X54412Y-48697D03*
X50910Y-63000D03*
X48980Y-64850D03*
G54D26*
X62342Y-45987D03*
G54D18*
X57514Y-61015D03*
X64302Y-56702D03*
X51500Y-42170D03*
X57167Y-49737D03*
X59635Y-49136D03*
X54579Y-52282D03*
X53750Y-46270D03*
X55711Y-59212D03*
X60130Y-60874D03*
X63737Y-57267D03*
X62622Y-51845D03*
X61509Y-50656D03*
G54D27*
X51884Y-65594D03*
G54D25*
X44025Y-54405D03*
X59070Y-51483D03*
G54D26*
X56182Y-50337D03*
G54D28*
X27186Y-57247D02*
X26212Y-58221D01*
X29111Y-56231D02*
X28095Y-57247D01*
X28787Y-68237D02*
X46990Y-68237D01*
X27559Y-67009D02*
X28787Y-68237D01*
X27559Y-65435D02*
X27559Y-67009D01*
X26559Y-64435D02*
X27559Y-65435D01*
X28095Y-57247D02*
X27186Y-57247D01*
X47107Y-68120D02*
X47360Y-68120D01*
X47107Y-68120D02*
X46990Y-68237D01*
X26559Y-61553D02*
X26559Y-64435D01*
X26212Y-61205D02*
X26559Y-61553D01*
X26212Y-58221D02*
X26212Y-61205D01*
X63998Y-54877D02*
X66100Y-56980D01*
X66100Y-56980D02*
X67310Y-56980D01*
X67310Y-56980D02*
X67540Y-57210D01*
X67540Y-57210D02*
X67540Y-65057D01*
X67540Y-65057D02*
X64360Y-68237D01*
X64360Y-68237D02*
X47707Y-68237D01*
X61634Y-55737D02*
X62494Y-54877D01*
X62494Y-54877D02*
X63998Y-54877D01*
X60792Y-55737D02*
X61634Y-55737D01*
X47360Y-68120D02*
X47590Y-68120D01*
X47707Y-68237D02*
X47590Y-68120D01*
X47082Y-66107D02*
X43967Y-66107D01*
X43967Y-66107D02*
X42690Y-64830D01*
X28874Y-57844D02*
X28874Y-61095D01*
X29672Y-67957D02*
X46874Y-67957D01*
X27839Y-66125D02*
X29672Y-67957D01*
X27839Y-65319D02*
X27839Y-66125D01*
X26840Y-64320D02*
X27839Y-65319D01*
X56710Y-67957D02*
X47823Y-67957D01*
X58712Y-65955D02*
X56710Y-67957D01*
X58252Y-59997D02*
X58252Y-61437D01*
X58252Y-61437D02*
X58712Y-61897D01*
X58712Y-61897D02*
X58712Y-65955D01*
X47111Y-67719D02*
X46874Y-67957D01*
X47585Y-67719D02*
X47111Y-67719D01*
X47823Y-67957D02*
X47585Y-67719D01*
X26840Y-61799D02*
X26840Y-64320D01*
X27162Y-61477D02*
X26840Y-61799D01*
X28492Y-61477D02*
X27162Y-61477D01*
X28874Y-61095D02*
X28492Y-61477D01*
X48055Y-67397D02*
X47527Y-66869D01*
X47527Y-66869D02*
X30855Y-66869D01*
X30855Y-66869D02*
X30050Y-66064D01*
X51984Y-66357D02*
X50944Y-67397D01*
X50944Y-67397D02*
X48055Y-67397D01*
X53950Y-66357D02*
X51984Y-66357D01*
X54682Y-65625D02*
X53950Y-66357D01*
X54682Y-61872D02*
X54682Y-65625D01*
X54887Y-61667D02*
X54682Y-61872D01*
X47183Y-40567D02*
X49660Y-43044D01*
X49660Y-43044D02*
X49660Y-44487D01*
X50500Y-45327D02*
X54184Y-45327D01*
X49660Y-44487D02*
X50500Y-45327D01*
X34122Y-40887D02*
X34122Y-41397D01*
X34442Y-40567D02*
X34122Y-40887D01*
X34442Y-40567D02*
X47183Y-40567D01*
X56824Y-47967D02*
X54184Y-45327D01*
X57082Y-47967D02*
X56824Y-47967D01*
X57282Y-48167D02*
X57082Y-47967D01*
G54D29*
X48702Y-48587D02*
X48700Y-48587D01*
G54D30*
X57122Y-44397D02*
X55122Y-44397D01*
X54622Y-44897D02*
X50672Y-44897D01*
X55122Y-44397D02*
X54622Y-44897D01*
X46740Y-43450D02*
X46100Y-43450D01*
X48700Y-45410D02*
X46740Y-43450D01*
X48700Y-48587D02*
X48700Y-45410D01*
G54D28*
X34152Y-63977D02*
X34152Y-63007D01*
X31972Y-66157D02*
X34152Y-63977D01*
G54D29*
X34572Y-61737D02*
X34572Y-62127D01*
X34572Y-61737D02*
X34750Y-61560D01*
X38522Y-63087D02*
X39502Y-64067D01*
X34572Y-62127D02*
X35532Y-63087D01*
X35532Y-63087D02*
X38522Y-63087D01*
X42212Y-64067D02*
X39502Y-64067D01*
X42482Y-64337D02*
X42212Y-64067D01*
X47052Y-64337D02*
X42482Y-64337D01*
G54D28*
X54006Y-42987D02*
X53646Y-42627D01*
X56122Y-42397D02*
X56122Y-42837D01*
X55972Y-42987D02*
X54006Y-42987D01*
X56122Y-42837D02*
X55972Y-42987D01*
X50472Y-43327D02*
X50102Y-43697D01*
X51038Y-43327D02*
X50472Y-43327D01*
X51738Y-42627D02*
X51038Y-43327D01*
X53646Y-42627D02*
X51738Y-42627D01*
X53948Y-43127D02*
X53588Y-42767D01*
X56122Y-41397D02*
X56632Y-41907D01*
X56392Y-43127D02*
X53948Y-43127D01*
X56632Y-42887D02*
X56392Y-43127D01*
X56632Y-41907D02*
X56632Y-42887D01*
X50412Y-44137D02*
X50602Y-44327D01*
X50412Y-43657D02*
X50412Y-44137D01*
X50602Y-43467D02*
X50412Y-43657D01*
X51096Y-43467D02*
X50602Y-43467D01*
X51796Y-42767D02*
X51096Y-43467D01*
X53588Y-42767D02*
X51796Y-42767D01*
X53890Y-43267D02*
X53530Y-42907D01*
X57122Y-42877D02*
X56732Y-43267D01*
X56732Y-43267D02*
X53890Y-43267D01*
X57122Y-42877D02*
X57122Y-42397D01*
X51014Y-43747D02*
X50692Y-43747D01*
X51854Y-42907D02*
X51014Y-43747D01*
X53530Y-42907D02*
X51854Y-42907D01*
X53832Y-43407D02*
X53472Y-43047D01*
X57622Y-41897D02*
X57622Y-42887D01*
X57622Y-42887D02*
X57102Y-43407D01*
X57102Y-43407D02*
X53832Y-43407D01*
X57622Y-41897D02*
X57122Y-41397D01*
X51912Y-43047D02*
X50892Y-44067D01*
X53472Y-43047D02*
X51912Y-43047D01*
X58122Y-42947D02*
X57522Y-43547D01*
X57522Y-43547D02*
X53812Y-43547D01*
X53812Y-43547D02*
X52962Y-44397D01*
X52962Y-44397D02*
X51082Y-44397D01*
X58122Y-42947D02*
X58122Y-42397D01*
X47622Y-47607D02*
X48042Y-48027D01*
X49122Y-51397D02*
X48842Y-51117D01*
X47352Y-47607D02*
X47622Y-47607D01*
X48842Y-51117D02*
X48842Y-50045D01*
X48842Y-50045D02*
X47202Y-48405D01*
X47202Y-48405D02*
X47202Y-47757D01*
X47202Y-47757D02*
X47352Y-47607D01*
X48122Y-53397D02*
X47432Y-52707D01*
X45932Y-48947D02*
X45932Y-47337D01*
X47432Y-50447D02*
X45932Y-48947D01*
X47432Y-52707D02*
X47432Y-50447D01*
X46392Y-46877D02*
X48042Y-46877D01*
X45932Y-47337D02*
X46392Y-46877D01*
X48562Y-50161D02*
X48562Y-50957D01*
X47296Y-47267D02*
X48062Y-47267D01*
X46922Y-48521D02*
X46922Y-47641D01*
X48562Y-50161D02*
X46922Y-48521D01*
X46922Y-47641D02*
X47296Y-47267D01*
X48562Y-50957D02*
X48122Y-51397D01*
X48122Y-52397D02*
X48702Y-51817D01*
X47294Y-47467D02*
X47872Y-47467D01*
X47872Y-47467D02*
X48052Y-47647D01*
X48702Y-50103D02*
X47062Y-48463D01*
X47062Y-48463D02*
X47062Y-47699D01*
X47062Y-47699D02*
X47294Y-47467D01*
X48702Y-51817D02*
X48702Y-50103D01*
X49182Y-53457D02*
X49122Y-53397D01*
X50972Y-53457D02*
X49182Y-53457D01*
X47572Y-50417D02*
X47682Y-50307D01*
X48672Y-52947D02*
X49122Y-53397D01*
X47894Y-52947D02*
X48672Y-52947D01*
X47572Y-52625D02*
X47894Y-52947D01*
X47572Y-52625D02*
X47572Y-50417D01*
X47682Y-50307D02*
X47682Y-49677D01*
X46642Y-48457D02*
X46232Y-48047D01*
X46642Y-48637D02*
X46642Y-48457D01*
X47682Y-49677D02*
X46642Y-48637D01*
X49832Y-53107D02*
X49122Y-52397D01*
X50832Y-53107D02*
X49832Y-53107D01*
X47712Y-52567D02*
X47712Y-50475D01*
X47952Y-52807D02*
X48712Y-52807D01*
X47952Y-52807D02*
X47712Y-52567D01*
X48712Y-52807D02*
X49122Y-52397D01*
X46782Y-48037D02*
X46192Y-47447D01*
X46782Y-48579D02*
X46782Y-48037D01*
X47822Y-49619D02*
X46782Y-48579D01*
X47822Y-50365D02*
X47822Y-49619D01*
X47712Y-50475D02*
X47822Y-50365D01*
X53662Y-47207D02*
X53662Y-50997D01*
X52122Y-51937D02*
X52122Y-52397D01*
X52382Y-51677D02*
X52122Y-51937D01*
X52982Y-51677D02*
X52382Y-51677D01*
X53662Y-50997D02*
X52982Y-51677D01*
X49352Y-50137D02*
X51122Y-51907D01*
X48189Y-49195D02*
X48189Y-48595D01*
X49132Y-50137D02*
X48189Y-49195D01*
X49352Y-50137D02*
X49132Y-50137D01*
X48189Y-48595D02*
X47462Y-47867D01*
X51122Y-51907D02*
X51122Y-52397D01*
X54990Y-56410D02*
X55570Y-55830D01*
X55570Y-55670D02*
X55920Y-55320D01*
X55570Y-55830D02*
X55570Y-55670D01*
X61161Y-51020D02*
X61161Y-50350D01*
X64994Y-44325D02*
X62872Y-46447D01*
X57442Y-59167D02*
X57622Y-58987D01*
X61161Y-51020D02*
X60396Y-51785D01*
X60396Y-56011D02*
X60396Y-51785D01*
X57622Y-58785D02*
X60396Y-56011D01*
X57622Y-58987D02*
X57622Y-58785D01*
X62872Y-48639D02*
X62872Y-46447D01*
X61161Y-50350D02*
X62872Y-48639D01*
X33232Y-40777D02*
X33232Y-40427D01*
X50946Y-40536D02*
X50130Y-39720D01*
X50130Y-39720D02*
X49100Y-39720D01*
X49100Y-39720D02*
X48532Y-40287D01*
X59241Y-40536D02*
X59612Y-40907D01*
X60172Y-43367D02*
X64602Y-43367D01*
X64602Y-43367D02*
X64994Y-43759D01*
X64994Y-44325D02*
X64994Y-43759D01*
X60172Y-43367D02*
X59612Y-42807D01*
X59612Y-42807D02*
X59612Y-40907D01*
X59241Y-40536D02*
X50946Y-40536D01*
X34262Y-40287D02*
X48532Y-40287D01*
X34072Y-40097D02*
X34262Y-40287D01*
X33562Y-40097D02*
X34072Y-40097D01*
X33232Y-40427D02*
X33562Y-40097D01*
X53541Y-40816D02*
X54122Y-41397D01*
X51873Y-40816D02*
X53541Y-40816D01*
X49800Y-42889D02*
X51873Y-40816D01*
X49800Y-43805D02*
X49800Y-42889D01*
X50082Y-44087D02*
X49800Y-43805D01*
X66650Y-58060D02*
X66650Y-57800D01*
X63044Y-55288D02*
X63270Y-55288D01*
X63270Y-55288D02*
X63454Y-55471D01*
X63454Y-55471D02*
X64196Y-55471D01*
X66404Y-57680D02*
X64196Y-55471D01*
X66530Y-57680D02*
X66404Y-57680D01*
X66650Y-57800D02*
X66530Y-57680D01*
X64160Y-55634D02*
X63150Y-55634D01*
X66392Y-57865D02*
X64160Y-55634D01*
X66392Y-58167D02*
X66392Y-57865D01*
X66622Y-58397D02*
X66392Y-58167D01*
X67122Y-58397D02*
X66622Y-58397D01*
X64217Y-56087D02*
X65990Y-57859D01*
X62491Y-56087D02*
X62192Y-55787D01*
X64217Y-56087D02*
X62491Y-56087D01*
X65990Y-57859D02*
X65990Y-58910D01*
X62605Y-55556D02*
X62648Y-55556D01*
X62648Y-55556D02*
X63015Y-55924D01*
X64252Y-55924D02*
X66252Y-57923D01*
X63015Y-55924D02*
X64252Y-55924D01*
X66252Y-57923D02*
X66252Y-59027D01*
X66252Y-59027D02*
X66622Y-59397D01*
X67122Y-59397D02*
X66622Y-59397D01*
G54D29*
X51392Y-61547D02*
X53622Y-61547D01*
X60546Y-54723D02*
X60546Y-56073D01*
X60546Y-56073D02*
X57772Y-58847D01*
X57772Y-58847D02*
X57772Y-59197D01*
X48542Y-62187D02*
X48732Y-61997D01*
X50942Y-61997D02*
X51392Y-61547D01*
X48732Y-61997D02*
X50942Y-61997D01*
X62042Y-53227D02*
X60546Y-54723D01*
X56312Y-60657D02*
X57772Y-59197D01*
X54512Y-60657D02*
X56312Y-60657D01*
X53622Y-61547D02*
X54512Y-60657D01*
G54D28*
X57092Y-56007D02*
X55982Y-57117D01*
X60412Y-57577D02*
X60182Y-57577D01*
X64122Y-64397D02*
X64462Y-64057D01*
X61112Y-58487D02*
X61112Y-58277D01*
X64462Y-61837D02*
X61112Y-58487D01*
X64462Y-64057D02*
X64462Y-61837D01*
X61112Y-58277D02*
X60412Y-57577D01*
X55642Y-57087D02*
X57122Y-55607D01*
X61252Y-58219D02*
X60512Y-57479D01*
X64602Y-64917D02*
X64602Y-61779D01*
X64602Y-61779D02*
X61252Y-58429D01*
X61252Y-58429D02*
X61252Y-58219D01*
X64122Y-65397D02*
X64602Y-64917D01*
X60512Y-57479D02*
X60512Y-57227D01*
X60622Y-62537D02*
X60622Y-64897D01*
X61122Y-65397D02*
X60622Y-64897D01*
X61300Y-61130D02*
X61300Y-61860D01*
X61300Y-61860D02*
X60622Y-62537D01*
X61422Y-61007D02*
X61300Y-61130D01*
X61782Y-61007D02*
X61422Y-61007D01*
X61113Y-60937D02*
X60202Y-61849D01*
X60202Y-64317D02*
X60122Y-64397D01*
X60202Y-61849D02*
X60202Y-64317D01*
X61113Y-60471D02*
X60774Y-60131D01*
X61113Y-60937D02*
X61113Y-60471D01*
X59772Y-62065D02*
X59772Y-62807D01*
X60951Y-60886D02*
X59772Y-62065D01*
X60951Y-60576D02*
X60951Y-60886D01*
X60812Y-60437D02*
X60951Y-60576D01*
X60542Y-60437D02*
X60812Y-60437D01*
X59532Y-64987D02*
X59122Y-65397D01*
X59532Y-62107D02*
X59532Y-64987D01*
X60497Y-61142D02*
X59532Y-62107D01*
X60497Y-60942D02*
X60497Y-61142D01*
X60712Y-60727D02*
X60497Y-60942D01*
X49240Y-44663D02*
X50324Y-45747D01*
X50324Y-45747D02*
X54010Y-45747D01*
X54010Y-45747D02*
X59816Y-51553D01*
X49240Y-44663D02*
X49240Y-43218D01*
X59692Y-53097D02*
X59692Y-52831D01*
X59692Y-52831D02*
X59816Y-52707D01*
X59816Y-51553D02*
X59816Y-52707D01*
X35122Y-41397D02*
X35532Y-40987D01*
X47009Y-40987D02*
X35532Y-40987D01*
X49240Y-43218D02*
X47009Y-40987D01*
X34242Y-43277D02*
X35122Y-42397D01*
X33802Y-43277D02*
X34242Y-43277D01*
X49100Y-44721D02*
X49100Y-43276D01*
X37382Y-41127D02*
X36612Y-41897D01*
X59676Y-52107D02*
X59676Y-51611D01*
X59572Y-52537D02*
X59572Y-52211D01*
X59572Y-52211D02*
X59676Y-52107D01*
X50266Y-45887D02*
X49100Y-44721D01*
X53952Y-45887D02*
X50266Y-45887D01*
X59676Y-51611D02*
X53952Y-45887D01*
X35622Y-41897D02*
X35122Y-42397D01*
X36612Y-41897D02*
X35622Y-41897D01*
X46951Y-41127D02*
X37382Y-41127D01*
X49100Y-43276D02*
X46951Y-41127D01*
X59956Y-51495D02*
X54068Y-45607D01*
X54068Y-45607D02*
X50382Y-45607D01*
X50382Y-45607D02*
X49380Y-44605D01*
X49380Y-44605D02*
X49380Y-43160D01*
X34702Y-41147D02*
X34702Y-41817D01*
X34702Y-41817D02*
X34122Y-42397D01*
X35002Y-40847D02*
X34702Y-41147D01*
X59956Y-55857D02*
X59956Y-51495D01*
X56212Y-60357D02*
X56212Y-59799D01*
X56212Y-59799D02*
X56752Y-59259D01*
X56752Y-59259D02*
X56752Y-58617D01*
X56752Y-58617D02*
X56991Y-58378D01*
X56991Y-58378D02*
X57435Y-58378D01*
X57435Y-58378D02*
X59956Y-55857D01*
X47067Y-40847D02*
X35002Y-40847D01*
X49380Y-43160D02*
X47067Y-40847D01*
X34424Y-41897D02*
X32892Y-41897D01*
X50440Y-45467D02*
X54126Y-45467D01*
X54126Y-45467D02*
X60096Y-51437D01*
X49520Y-44547D02*
X49520Y-43102D01*
X34944Y-40707D02*
X34562Y-41089D01*
X34562Y-41089D02*
X34562Y-41759D01*
X34562Y-41759D02*
X34424Y-41897D01*
X60096Y-55915D02*
X60096Y-51437D01*
X57493Y-58518D02*
X60096Y-55915D01*
X57221Y-58518D02*
X57493Y-58518D01*
X57022Y-58717D02*
X57221Y-58518D01*
X47125Y-40707D02*
X34944Y-40707D01*
X49520Y-43102D02*
X47125Y-40707D01*
X49520Y-44547D02*
X50440Y-45467D01*
X55122Y-64397D02*
X55552Y-63967D01*
X55552Y-61722D02*
X55552Y-63967D01*
X55242Y-61412D02*
X55552Y-61722D01*
X54672Y-61412D02*
X55242Y-61412D01*
X54652Y-61392D02*
X54672Y-61412D01*
G54D29*
X69250Y-42335D02*
X69250Y-43228D01*
X69250Y-43228D02*
X68973Y-43505D01*
X68973Y-43505D02*
X67934Y-43505D01*
G54D28*
X47241Y-40427D02*
X33912Y-40427D01*
X58291Y-40676D02*
X51815Y-40676D01*
X51815Y-40676D02*
X50153Y-42338D01*
X50153Y-42338D02*
X49151Y-42338D01*
X49151Y-42338D02*
X47241Y-40427D01*
X59102Y-47907D02*
X59102Y-43547D01*
X58632Y-43077D02*
X58632Y-41017D01*
X59102Y-43547D02*
X58632Y-43077D01*
X58632Y-41017D02*
X58291Y-40676D01*
X33912Y-40427D02*
X33912Y-40427D01*
X60762Y-56747D02*
X60549Y-56960D01*
X59122Y-58257D02*
X59122Y-62397D01*
X60419Y-56960D02*
X59122Y-58257D01*
X60549Y-56960D02*
X60419Y-56960D01*
X60762Y-56747D02*
X61372Y-56747D01*
X61372Y-56747D02*
X61882Y-57257D01*
X60209Y-47065D02*
X59367Y-47907D01*
X58582Y-48747D02*
X58186Y-49143D01*
X58582Y-48427D02*
X58582Y-48747D01*
X59102Y-47907D02*
X58582Y-48427D01*
X59367Y-47907D02*
X59102Y-47907D01*
X65622Y-61525D02*
X65622Y-63897D01*
X62092Y-57467D02*
X62092Y-58827D01*
X62092Y-58827D02*
X63082Y-59817D01*
X63082Y-59817D02*
X63914Y-59817D01*
X63914Y-59817D02*
X65622Y-61525D01*
X61882Y-57257D02*
X62092Y-57467D01*
X65622Y-63897D02*
X65122Y-64397D01*
X56066Y-54052D02*
X53780Y-56338D01*
X56326Y-54052D02*
X56352Y-54077D01*
X56066Y-54052D02*
X56326Y-54052D01*
X53780Y-57020D02*
X52350Y-58450D01*
X53780Y-56338D02*
X53780Y-57020D01*
X50749Y-58450D02*
X50202Y-58997D01*
X52350Y-58450D02*
X50749Y-58450D01*
X54335Y-54397D02*
X57505Y-51227D01*
X57505Y-51227D02*
X57742Y-51227D01*
X50498Y-54397D02*
X54335Y-54397D01*
X49936Y-54960D02*
X50498Y-54397D01*
X48969Y-54960D02*
X49936Y-54960D01*
X48969Y-54960D02*
X48620Y-55310D01*
X48620Y-55310D02*
X48620Y-55895D01*
X48620Y-55895D02*
X49122Y-56397D01*
X54393Y-54537D02*
X57013Y-51917D01*
X57013Y-51917D02*
X57252Y-51917D01*
X49529Y-56569D02*
X49529Y-55564D01*
X50556Y-54537D02*
X54393Y-54537D01*
X49529Y-55564D02*
X50556Y-54537D01*
X49122Y-56977D02*
X49529Y-56569D01*
X49122Y-56977D02*
X49122Y-57397D01*
X57132Y-52637D02*
X56689Y-52637D01*
X56689Y-52637D02*
X54509Y-54817D01*
X50672Y-54817D02*
X54509Y-54817D01*
X49810Y-55680D02*
X50672Y-54817D01*
X49810Y-57709D02*
X49810Y-55680D01*
X49122Y-58397D02*
X49810Y-57709D01*
X54682Y-55237D02*
X56315Y-53605D01*
X57322Y-53117D02*
X56834Y-53605D01*
X56834Y-53605D02*
X56315Y-53605D01*
X54682Y-55237D02*
X50846Y-55237D01*
X50230Y-55854D02*
X50230Y-58479D01*
X50846Y-55237D02*
X50230Y-55854D01*
X50230Y-58479D02*
X50062Y-58647D01*
X49792Y-58497D02*
X49792Y-58907D01*
X50090Y-58199D02*
X50090Y-55796D01*
X50090Y-58199D02*
X49792Y-58497D01*
X56386Y-53336D02*
X54624Y-55097D01*
X56764Y-53336D02*
X56386Y-53336D01*
X50788Y-55097D02*
X54624Y-55097D01*
X50090Y-55796D02*
X50788Y-55097D01*
X57122Y-53707D02*
X56510Y-54319D01*
X56510Y-54319D02*
X55997Y-54319D01*
X53920Y-56396D02*
X55997Y-54319D01*
X53920Y-57077D02*
X53920Y-56396D01*
X52407Y-58590D02*
X53920Y-57077D01*
X49942Y-59437D02*
X50202Y-59437D01*
X51049Y-58590D02*
X52407Y-58590D01*
X50202Y-59437D02*
X51049Y-58590D01*
X54451Y-54677D02*
X56951Y-52177D01*
X56951Y-52177D02*
X57562Y-52177D01*
X54451Y-54677D02*
X50614Y-54677D01*
X49670Y-55622D02*
X49670Y-57449D01*
X50614Y-54677D02*
X49670Y-55622D01*
X49670Y-57449D02*
X49282Y-57837D01*
X48562Y-57837D02*
X49282Y-57837D01*
X48122Y-57397D02*
X48562Y-57837D01*
X54567Y-54957D02*
X50730Y-54957D01*
X49950Y-57949D02*
X49642Y-58257D01*
X54567Y-54957D02*
X56647Y-52877D01*
X56647Y-52877D02*
X57462Y-52877D01*
X49950Y-55738D02*
X49950Y-57949D01*
X50730Y-54957D02*
X49950Y-55738D01*
X57462Y-52877D02*
X57662Y-53077D01*
X57122Y-45577D02*
X58522Y-46977D01*
X58522Y-46977D02*
X58522Y-48107D01*
X56722Y-45147D02*
X56722Y-45567D01*
X56572Y-45717D02*
X56722Y-45567D01*
X56572Y-46697D02*
X56572Y-45717D01*
X56762Y-46887D02*
X56572Y-46697D01*
X57392Y-46887D02*
X56762Y-46887D01*
X58252Y-47747D02*
X57392Y-46887D01*
X58252Y-48427D02*
X58252Y-47747D01*
X63470Y-61910D02*
X63900Y-61910D01*
X60800Y-59240D02*
X63470Y-61910D01*
X60800Y-58460D02*
X60800Y-59240D01*
X63334Y-62210D02*
X64170Y-62210D01*
X62172Y-61047D02*
X63334Y-62210D01*
X61440Y-62429D02*
X61170Y-62700D01*
X61440Y-61549D02*
X61440Y-62429D01*
X61632Y-61357D02*
X61440Y-61549D01*
X60669Y-45565D02*
X60209Y-45565D01*
X61079Y-45975D02*
X60669Y-45565D01*
X60501Y-46857D02*
X62082Y-46857D01*
X60501Y-46857D02*
X60209Y-46565D01*
X60760Y-46065D02*
X60209Y-46065D01*
X60760Y-46065D02*
X61082Y-46387D01*
X57122Y-62397D02*
X57122Y-64397D01*
X62941Y-58646D02*
X66274Y-61980D01*
X62358Y-58646D02*
X62941Y-58646D01*
X66274Y-61980D02*
X66280Y-61980D01*
G54D31*
X68122Y-51397D02*
X66112Y-49387D01*
X66112Y-49387D02*
X66112Y-49163D01*
X66112Y-48307D02*
X66112Y-49163D01*
X66372Y-48047D02*
X66112Y-48307D01*
G54D28*
X63700Y-48582D02*
X64055Y-48937D01*
X67637Y-52913D02*
X68122Y-53397D01*
X66811Y-52913D02*
X67637Y-52913D01*
X66456Y-52559D02*
X66811Y-52913D01*
X66456Y-51771D02*
X66456Y-52559D01*
X64055Y-49370D02*
X66456Y-51771D01*
X64055Y-48937D02*
X64055Y-49370D01*
G54D31*
X66673Y-51397D02*
X67122Y-51397D01*
X65072Y-49796D02*
X66673Y-51397D01*
X65072Y-47367D02*
X65072Y-49796D01*
X69324Y-43748D02*
X69324Y-45765D01*
X67722Y-47367D02*
X65072Y-47367D01*
X69324Y-45765D02*
X67722Y-47367D01*
G54D28*
X61001Y-50954D02*
X61001Y-50312D01*
X60236Y-51719D02*
X60236Y-55973D01*
X61001Y-50954D02*
X60236Y-51719D01*
X56545Y-59976D02*
X56545Y-59663D01*
X60236Y-55973D02*
X56545Y-59663D01*
X62342Y-48971D02*
X62342Y-48667D01*
X61001Y-50312D02*
X62342Y-48971D01*
X27744Y-62604D02*
X27744Y-62864D01*
X47939Y-67677D02*
X47701Y-67439D01*
X47701Y-67439D02*
X46995Y-67439D01*
X46995Y-67439D02*
X46758Y-67677D01*
X57692Y-61807D02*
X57692Y-65797D01*
X57862Y-61637D02*
X57692Y-61807D01*
X57862Y-60787D02*
X57862Y-61637D01*
X57672Y-60597D02*
X57862Y-60787D01*
X57282Y-60597D02*
X57672Y-60597D01*
X57692Y-65797D02*
X55812Y-67677D01*
X55812Y-67677D02*
X47939Y-67677D01*
X29787Y-67677D02*
X46758Y-67677D01*
X28119Y-66009D02*
X29787Y-67677D01*
X28119Y-63239D02*
X28119Y-66009D01*
X27744Y-62864D02*
X28119Y-63239D01*
X30464Y-59664D02*
X30250Y-59450D01*
X30464Y-59664D02*
X30464Y-61304D01*
X27744Y-62604D02*
X27744Y-62373D01*
X28759Y-62165D02*
X29035Y-61889D01*
X27952Y-62165D02*
X28759Y-62165D01*
X27744Y-62373D02*
X27952Y-62165D01*
X30214Y-61555D02*
X30464Y-61304D01*
X29370Y-61555D02*
X30214Y-61555D01*
X29035Y-61889D02*
X29370Y-61555D01*
G54D29*
X54122Y-63707D02*
X54122Y-64397D01*
X54042Y-63627D02*
X54122Y-63707D01*
X54042Y-63307D02*
X54042Y-63627D01*
X53002Y-62267D02*
X54042Y-63307D01*
X51702Y-62267D02*
X53002Y-62267D01*
X51372Y-62597D02*
X51702Y-62267D01*
X51102Y-62597D02*
X51372Y-62597D01*
X50892Y-62387D02*
X51102Y-62597D01*
X49562Y-62387D02*
X50892Y-62387D01*
X48902Y-63047D02*
X49562Y-62387D01*
X48902Y-63417D02*
X48902Y-63047D01*
G54D28*
X46893Y-41267D02*
X48960Y-43334D01*
X48960Y-43334D02*
X48960Y-44779D01*
X39152Y-41267D02*
X38304Y-42115D01*
X38765Y-42911D02*
X38523Y-42911D01*
X38523Y-42911D02*
X38304Y-42691D01*
X38304Y-42691D02*
X38304Y-42115D01*
X48960Y-44779D02*
X49330Y-45149D01*
X49330Y-45149D02*
X49330Y-48858D01*
X51739Y-51267D02*
X49330Y-48858D01*
X52052Y-51267D02*
X51739Y-51267D01*
X39152Y-41267D02*
X46893Y-41267D01*
X47379Y-53987D02*
X51202Y-53987D01*
X45460Y-53640D02*
X45800Y-53640D01*
X45800Y-53640D02*
X45920Y-53520D01*
X45920Y-53520D02*
X46912Y-53520D01*
X46912Y-53520D02*
X47379Y-53987D01*
G54D29*
X40335Y-46101D02*
X40651Y-46417D01*
X41122Y-46417D02*
X40651Y-46417D01*
X41992Y-47287D02*
X41122Y-46417D01*
X49232Y-49847D02*
X48339Y-48955D01*
X48339Y-46475D02*
X46100Y-44235D01*
X48339Y-48955D02*
X48339Y-46475D01*
X46100Y-44235D02*
X46100Y-43930D01*
G54D32*
X25822Y-64097D02*
X25158Y-64760D01*
X25158Y-64760D02*
X24848Y-64760D01*
G54D30*
X36031Y-62544D02*
X36031Y-61678D01*
X41160Y-44926D02*
X39860Y-44926D01*
X49923Y-63883D02*
X49923Y-64405D01*
X66547Y-43780D02*
X66941Y-43780D01*
X36031Y-61678D02*
X36897Y-61678D01*
X43369Y-56459D02*
X42181Y-55271D01*
X36897Y-62544D02*
X36031Y-62544D01*
X43369Y-55271D02*
X43369Y-56459D01*
X66941Y-44370D02*
X66547Y-44370D01*
X41160Y-44276D02*
X39860Y-44276D01*
X43369Y-56459D02*
X42181Y-56459D01*
X41160Y-43626D02*
X41160Y-44926D01*
X50445Y-64405D02*
X49923Y-64405D01*
X41160Y-44926D02*
X39860Y-43626D01*
X36897Y-61678D02*
X36897Y-62544D01*
X66547Y-44370D02*
X66547Y-43780D01*
X42181Y-56459D02*
X42181Y-55271D01*
X42181Y-55271D02*
X43369Y-55271D01*
X49923Y-63883D02*
X50445Y-63883D01*
X49923Y-64405D02*
X50445Y-63883D01*
X43369Y-55271D02*
X42181Y-56459D01*
X39860Y-43626D02*
X41160Y-43626D01*
X36897Y-61678D02*
X36031Y-62544D01*
X66941Y-43780D02*
X66941Y-44370D01*
X50445Y-63883D02*
X50445Y-64405D01*
X36031Y-61678D02*
X36897Y-62544D01*
X41160Y-43626D02*
X39860Y-44926D01*
X39860Y-44926D02*
X39860Y-43626D01*
X40510Y-44926D02*
X40510Y-43626D01*
G54D28*
X27002Y-55047D02*
X27002Y-56837D01*
X64534Y-68657D02*
X28613Y-68657D01*
X27139Y-65609D02*
X26139Y-64609D01*
X27139Y-67183D02*
X27139Y-65609D01*
X28613Y-68657D02*
X27139Y-67183D01*
X68670Y-64521D02*
X64534Y-68657D01*
X68670Y-56162D02*
X68670Y-64521D01*
X68327Y-55819D02*
X68670Y-56162D01*
X65534Y-55819D02*
X68327Y-55819D01*
X64900Y-55185D02*
X65534Y-55819D01*
X64900Y-54850D02*
X64900Y-55185D01*
X27428Y-54621D02*
X30301Y-54621D01*
X27428Y-54621D02*
X27002Y-55047D01*
X26139Y-61727D02*
X26139Y-64609D01*
X25792Y-61379D02*
X26139Y-61727D01*
X25792Y-58047D02*
X25792Y-61379D01*
X27002Y-56837D02*
X25792Y-58047D01*
X31401Y-55081D02*
X30941Y-54621D01*
X32301Y-55081D02*
X32701Y-54681D01*
X31401Y-55081D02*
X32301Y-55081D01*
X30941Y-54621D02*
X30301Y-54621D01*
X33351Y-54681D02*
X32701Y-54681D01*
X26279Y-64551D02*
X26279Y-61669D01*
X63544Y-54027D02*
X65476Y-55960D01*
X28974Y-55379D02*
X27919Y-55379D01*
X27919Y-55379D02*
X27142Y-56157D01*
X61938Y-55037D02*
X62948Y-54027D01*
X62948Y-54027D02*
X63544Y-54027D01*
X28671Y-68517D02*
X64476Y-68517D01*
X27279Y-67125D02*
X28671Y-68517D01*
X27279Y-65551D02*
X27279Y-67125D01*
X26279Y-64551D02*
X27279Y-65551D01*
X60812Y-55037D02*
X61938Y-55037D01*
X29475Y-55881D02*
X30351Y-55881D01*
X29475Y-55881D02*
X28974Y-55379D01*
X68530Y-64463D02*
X64476Y-68517D01*
X68530Y-56220D02*
X68530Y-64463D01*
X68270Y-55960D02*
X68530Y-56220D01*
X65476Y-55960D02*
X68270Y-55960D01*
X27142Y-56895D02*
X27142Y-56157D01*
X25932Y-58105D02*
X27142Y-56895D01*
X25932Y-61321D02*
X25932Y-58105D01*
X26279Y-61669D02*
X25932Y-61321D01*
X32301Y-55481D02*
X31451Y-55481D01*
X33351Y-55931D02*
X32751Y-55931D01*
X31051Y-55881D02*
X30351Y-55881D01*
X32751Y-55931D02*
X32301Y-55481D01*
X31451Y-55481D02*
X31051Y-55881D01*
X46720Y-60660D02*
X44857Y-60660D01*
X38254Y-60061D02*
X38673Y-60061D01*
X40712Y-60299D02*
X41310Y-60897D01*
X38912Y-60299D02*
X40712Y-60299D01*
X38673Y-60061D02*
X38912Y-60299D01*
X47037Y-60977D02*
X46720Y-60660D01*
X49732Y-61227D02*
X53202Y-61227D01*
X49482Y-60977D02*
X49732Y-61227D01*
X56102Y-58327D02*
X56442Y-58327D01*
X53202Y-61227D02*
X56102Y-58327D01*
X58502Y-56267D02*
X56442Y-58327D01*
X58502Y-55667D02*
X58502Y-56267D01*
X49482Y-60977D02*
X47037Y-60977D01*
X44620Y-60897D02*
X41310Y-60897D01*
X44857Y-60660D02*
X44620Y-60897D01*
X38240Y-61360D02*
X38384Y-61215D01*
X38384Y-61215D02*
X38384Y-60191D01*
X38384Y-60191D02*
X38254Y-60061D01*
X50852Y-61807D02*
X45370Y-61807D01*
X38700Y-60440D02*
X40654Y-60440D01*
X40654Y-60440D02*
X41252Y-61037D01*
X50852Y-61807D02*
X51292Y-61367D01*
X58742Y-55957D02*
X58742Y-56225D01*
X58742Y-56225D02*
X56042Y-58925D01*
X56042Y-58925D02*
X56042Y-59347D01*
X56042Y-59347D02*
X55012Y-60377D01*
X55012Y-60377D02*
X54249Y-60377D01*
X54249Y-60377D02*
X53259Y-61367D01*
X53259Y-61367D02*
X51292Y-61367D01*
X44600Y-61037D02*
X41252Y-61037D01*
X45370Y-61807D02*
X44600Y-61037D01*
X38544Y-61501D02*
X38544Y-60595D01*
X38334Y-61711D02*
X38544Y-61501D01*
X38544Y-60595D02*
X38700Y-60440D01*
X49540Y-60837D02*
X47095Y-60837D01*
X53144Y-61087D02*
X56164Y-58067D01*
X56164Y-58067D02*
X56332Y-58067D01*
X37978Y-59787D02*
X37804Y-59961D01*
X40770Y-60159D02*
X41368Y-60757D01*
X38970Y-60159D02*
X40770Y-60159D01*
X38597Y-59787D02*
X38970Y-60159D01*
X37978Y-59787D02*
X38597Y-59787D01*
X49540Y-60837D02*
X49790Y-61087D01*
X49790Y-61087D02*
X53144Y-61087D01*
X44562Y-60757D02*
X41368Y-60757D01*
X44800Y-60519D02*
X44562Y-60757D01*
X46777Y-60519D02*
X44800Y-60519D01*
X47095Y-60837D02*
X46777Y-60519D01*
X53796Y-60237D02*
X56456Y-57577D01*
X49528Y-59987D02*
X49778Y-60237D01*
X49778Y-60237D02*
X53796Y-60237D01*
X42254Y-60019D02*
X42574Y-60340D01*
X39028Y-60019D02*
X42254Y-60019D01*
X38655Y-59647D02*
X39028Y-60019D01*
X38002Y-59647D02*
X38655Y-59647D01*
X38002Y-59647D02*
X37452Y-59097D01*
X44387Y-60340D02*
X44740Y-59987D01*
X42574Y-60340D02*
X44387Y-60340D01*
X44740Y-59987D02*
X49528Y-59987D01*
X56622Y-57577D02*
X56912Y-57287D01*
X56456Y-57577D02*
X56622Y-57577D01*
X41863Y-66366D02*
X42179Y-66050D01*
X42179Y-66050D02*
X43180Y-66050D01*
X53712Y-65135D02*
X53712Y-64217D01*
X52770Y-66077D02*
X53712Y-65135D01*
X51840Y-66077D02*
X52770Y-66077D01*
X51840Y-66077D02*
X51347Y-66570D01*
X51347Y-66570D02*
X43700Y-66570D01*
X43700Y-66570D02*
X43180Y-66050D01*
X53882Y-64047D02*
X53882Y-63707D01*
X53712Y-64217D02*
X53882Y-64047D01*
X41863Y-66366D02*
X41607Y-66366D01*
X53662Y-63487D02*
X53882Y-63707D01*
X40952Y-65202D02*
X41349Y-65599D01*
X41349Y-65599D02*
X41349Y-66108D01*
X41607Y-66366D02*
X41349Y-66108D01*
X40952Y-64557D02*
X40952Y-65202D01*
X42600Y-61280D02*
X42600Y-62909D01*
X42600Y-62909D02*
X41922Y-63587D01*
X68904Y-42575D02*
X68334Y-43145D01*
X65924Y-43145D02*
X65444Y-43625D01*
X68334Y-43145D02*
X65924Y-43145D01*
X68224Y-45075D02*
X65484Y-45075D01*
X65484Y-45075D02*
X63572Y-46987D01*
X61872Y-51257D02*
X61872Y-49837D01*
X62342Y-49367D02*
X62772Y-49367D01*
X61872Y-49837D02*
X62342Y-49367D01*
X65082Y-50817D02*
X63722Y-52177D01*
X63722Y-52177D02*
X61050Y-52177D01*
X61050Y-52177D02*
X60906Y-52321D01*
X49675Y-59540D02*
X49952Y-59817D01*
X49952Y-59817D02*
X53622Y-59817D01*
X53622Y-59817D02*
X58522Y-54917D01*
X47022Y-58837D02*
X46760Y-59100D01*
X46760Y-59100D02*
X44380Y-59100D01*
X44380Y-59100D02*
X43782Y-58501D01*
X49350Y-58837D02*
X49675Y-59162D01*
X42330Y-54270D02*
X42857Y-54797D01*
X43442Y-54797D02*
X43782Y-55137D01*
X42857Y-54797D02*
X43442Y-54797D01*
X43782Y-55137D02*
X43782Y-58501D01*
X49350Y-58837D02*
X47022Y-58837D01*
X49675Y-59162D02*
X49675Y-59540D01*
X38142Y-65162D02*
X38342Y-65363D01*
X38142Y-64699D02*
X38142Y-65162D01*
X36820Y-63377D02*
X38142Y-64699D01*
X36820Y-63377D02*
X35329Y-63377D01*
X35329Y-63377D02*
X34052Y-62100D01*
X34052Y-62100D02*
X34052Y-57574D01*
X34838Y-56788D02*
X34052Y-57574D01*
X38342Y-65363D02*
X38818Y-64887D01*
X39812Y-64887D02*
X38818Y-64887D01*
X40052Y-64647D02*
X39812Y-64887D01*
X51926Y-66217D02*
X53892Y-66217D01*
X48113Y-67257D02*
X47585Y-66729D01*
X47585Y-66729D02*
X39249Y-66729D01*
X39249Y-66729D02*
X38342Y-65822D01*
X38342Y-65822D02*
X38342Y-65363D01*
X51926Y-66217D02*
X50886Y-67257D01*
X50886Y-67257D02*
X48113Y-67257D01*
X54542Y-63757D02*
X54292Y-63507D01*
X54542Y-65567D02*
X54542Y-63757D01*
X53892Y-66217D02*
X54542Y-65567D01*
X49535Y-59220D02*
X49535Y-59598D01*
X49292Y-58977D02*
X47080Y-58977D01*
X59062Y-52107D02*
X58792Y-52377D01*
X58792Y-52377D02*
X58792Y-55027D01*
X49292Y-58977D02*
X49535Y-59220D01*
X41240Y-58827D02*
X41430Y-59017D01*
X41430Y-59017D02*
X44100Y-59017D01*
X41240Y-57330D02*
X41240Y-58827D01*
X58642Y-55177D02*
X58792Y-55027D01*
X58460Y-55177D02*
X58642Y-55177D01*
X44322Y-59240D02*
X44100Y-59017D01*
X46817Y-59240D02*
X44322Y-59240D01*
X47080Y-58977D02*
X46817Y-59240D01*
X53680Y-59957D02*
X58460Y-55177D01*
X49894Y-59957D02*
X53680Y-59957D01*
X49535Y-59598D02*
X49894Y-59957D01*
X28644Y-61704D02*
X29014Y-61334D01*
X29754Y-59564D02*
X29754Y-59244D01*
X29014Y-60304D02*
X29754Y-59564D01*
X29014Y-61334D02*
X29014Y-60304D01*
X27600Y-62170D02*
X27500Y-62270D01*
X58572Y-65897D02*
X56652Y-67817D01*
X58002Y-59767D02*
X58002Y-61385D01*
X58002Y-61385D02*
X58572Y-61955D01*
X58572Y-61955D02*
X58572Y-65897D01*
X47053Y-67579D02*
X46816Y-67817D01*
X47643Y-67579D02*
X47053Y-67579D01*
X47881Y-67817D02*
X47643Y-67579D01*
X56652Y-67817D02*
X47881Y-67817D01*
X27600Y-61899D02*
X27600Y-62170D01*
X27979Y-63297D02*
X27979Y-66067D01*
X27979Y-66067D02*
X29729Y-67817D01*
X29729Y-67817D02*
X46816Y-67817D01*
X27600Y-61899D02*
X27744Y-61754D01*
X27500Y-62817D02*
X27979Y-63297D01*
X27500Y-62270D02*
X27500Y-62817D01*
X28644Y-61704D02*
X28594Y-61754D01*
X28594Y-61754D02*
X27744Y-61754D01*
X26699Y-64377D02*
X26699Y-61495D01*
X66620Y-61290D02*
X66620Y-65779D01*
X47169Y-67860D02*
X46932Y-68097D01*
X47527Y-67860D02*
X47169Y-67860D01*
X47765Y-68097D02*
X47527Y-67860D01*
X64302Y-68097D02*
X47765Y-68097D01*
X28435Y-57387D02*
X27244Y-57387D01*
X26699Y-64377D02*
X27699Y-65377D01*
X27699Y-65377D02*
X27699Y-66183D01*
X27699Y-66183D02*
X29614Y-68097D01*
X29614Y-68097D02*
X46932Y-68097D01*
X29091Y-56731D02*
X28435Y-57387D01*
X61437Y-56107D02*
X66620Y-61290D01*
X60802Y-56107D02*
X61437Y-56107D01*
X66620Y-65779D02*
X64302Y-68097D01*
X26352Y-58279D02*
X27244Y-57387D01*
X26352Y-61147D02*
X26352Y-58279D01*
X26699Y-61495D02*
X26352Y-61147D01*
X53292Y-64427D02*
X52252Y-64427D01*
X52252Y-64427D02*
X50942Y-65737D01*
X53462Y-59277D02*
X52702Y-59277D01*
X52702Y-59277D02*
X52442Y-59537D01*
X54582Y-58407D02*
X54332Y-58407D01*
X54332Y-58407D02*
X53462Y-59277D01*
X53362Y-63197D02*
X53362Y-64357D01*
X52792Y-62627D02*
X53362Y-63197D01*
X53362Y-64357D02*
X53292Y-64427D01*
X53082Y-64047D02*
X52281Y-64047D01*
X52281Y-64047D02*
X50934Y-65394D01*
X54202Y-58887D02*
X54050Y-58887D01*
X54202Y-58887D02*
X54402Y-58687D01*
X53390Y-59547D02*
X53072Y-59547D01*
X54050Y-58887D02*
X53390Y-59547D01*
G54D29*
X52692Y-59087D02*
X56409Y-55370D01*
X51792Y-59087D02*
X52692Y-59087D01*
X56409Y-55370D02*
X56410Y-55370D01*
G54D28*
X54277Y-54257D02*
X50440Y-54257D01*
X43670Y-54410D02*
X43930Y-54670D01*
X43930Y-54670D02*
X47050Y-54670D01*
X47050Y-54670D02*
X47200Y-54820D01*
X42820Y-53089D02*
X42820Y-53040D01*
X42820Y-53089D02*
X43670Y-53939D01*
X54277Y-54257D02*
X56538Y-51996D01*
X56538Y-51996D02*
X56538Y-50409D01*
X43670Y-53939D02*
X43670Y-54410D01*
X49878Y-54820D02*
X47200Y-54820D01*
X50440Y-54257D02*
X49878Y-54820D01*
X46835Y-41407D02*
X41304Y-41407D01*
X41304Y-41407D02*
X40714Y-41997D01*
X48820Y-44837D02*
X48820Y-43392D01*
X48820Y-44837D02*
X49190Y-45207D01*
X49190Y-45207D02*
X49190Y-48916D01*
X52754Y-51537D02*
X53223Y-51068D01*
X51811Y-51537D02*
X52754Y-51537D01*
X49190Y-48916D02*
X51811Y-51537D01*
X39212Y-42147D02*
X39522Y-42147D01*
X39522Y-42147D02*
X39672Y-41997D01*
X39672Y-41997D02*
X40714Y-41997D01*
X48820Y-43392D02*
X46835Y-41407D01*
X39012Y-46247D02*
X40360Y-47595D01*
X39012Y-46247D02*
X39012Y-42347D01*
X39212Y-42147D02*
X39012Y-42347D01*
X41560Y-53110D02*
X42330Y-53880D01*
X41560Y-49070D02*
X41560Y-53110D01*
X40360Y-47870D02*
X41560Y-49070D01*
X40360Y-47595D02*
X40360Y-47870D01*
X43922Y-55079D02*
X41700Y-52857D01*
X39268Y-42851D02*
X39152Y-42967D01*
X39152Y-42967D02*
X39152Y-46189D01*
X39720Y-46757D02*
X40942Y-46757D01*
X44602Y-56587D02*
X43922Y-55907D01*
X43922Y-55907D02*
X43922Y-55079D01*
X39720Y-46757D02*
X39152Y-46189D01*
X41162Y-46977D02*
X41162Y-47237D01*
X40942Y-46757D02*
X41162Y-46977D01*
X39268Y-42851D02*
X39268Y-42577D01*
X41700Y-47775D02*
X41162Y-47237D01*
X41700Y-52857D02*
X41700Y-47775D01*
X49050Y-45265D02*
X49050Y-48974D01*
X40136Y-42773D02*
X41362Y-41547D01*
X50912Y-51177D02*
X50912Y-50836D01*
X50912Y-50836D02*
X49050Y-48974D01*
X39614Y-42577D02*
X39810Y-42773D01*
X39614Y-42577D02*
X39268Y-42577D01*
X40136Y-42773D02*
X39810Y-42773D01*
X48680Y-44895D02*
X48680Y-43450D01*
X46777Y-41547D02*
X48680Y-43450D01*
X41362Y-41547D02*
X46777Y-41547D01*
X48680Y-44895D02*
X49050Y-45265D01*
X38270Y-64630D02*
X39020Y-64630D01*
X36878Y-63237D02*
X38270Y-64630D01*
X34192Y-62042D02*
X35387Y-63237D01*
X35387Y-63237D02*
X36878Y-63237D01*
X36128Y-56938D02*
X35070Y-56938D01*
X35070Y-56938D02*
X34192Y-57817D01*
X34192Y-57817D02*
X34192Y-62042D01*
X53572Y-65077D02*
X53572Y-63977D01*
X53572Y-65077D02*
X52712Y-65937D01*
X51782Y-65937D02*
X52712Y-65937D01*
X43237Y-65909D02*
X42349Y-65909D01*
X42349Y-65909D02*
X41210Y-64770D01*
X51782Y-65937D02*
X51289Y-66429D01*
X51289Y-66429D02*
X43757Y-66429D01*
X39630Y-64630D02*
X39020Y-64630D01*
X41210Y-64430D02*
X41210Y-64770D01*
X40997Y-64217D02*
X41210Y-64430D01*
X40042Y-64217D02*
X40997Y-64217D01*
X39630Y-64630D02*
X40042Y-64217D01*
X43757Y-66429D02*
X43237Y-65909D01*
X53572Y-63977D02*
X53622Y-63927D01*
X41100Y-61650D02*
X41100Y-61949D01*
X41100Y-61949D02*
X39892Y-63157D01*
X44732Y-59847D02*
X49586Y-59847D01*
X58932Y-52757D02*
X59222Y-52467D01*
X58518Y-55317D02*
X58700Y-55317D01*
X58700Y-55317D02*
X58932Y-55085D01*
X58932Y-55085D02*
X58932Y-52757D01*
X40960Y-56980D02*
X40960Y-58745D01*
X41372Y-59157D02*
X44042Y-59157D01*
X40960Y-58745D02*
X41372Y-59157D01*
X44732Y-59847D02*
X44042Y-59157D01*
X53738Y-60097D02*
X58518Y-55317D01*
X49836Y-60097D02*
X53738Y-60097D01*
X49586Y-59847D02*
X49836Y-60097D01*
X52042Y-66497D02*
X54972Y-66497D01*
X29318Y-67010D02*
X28260Y-65951D01*
X51002Y-67537D02*
X47997Y-67537D01*
X52042Y-66497D02*
X51002Y-67537D01*
X60132Y-56857D02*
X57982Y-59007D01*
X47997Y-67537D02*
X47469Y-67010D01*
X47469Y-67010D02*
X29318Y-67010D01*
X28260Y-63879D02*
X28834Y-63304D01*
X28260Y-65951D02*
X28260Y-63879D01*
X57982Y-59237D02*
X57982Y-59007D01*
X55692Y-61527D02*
X57982Y-59237D01*
X55692Y-65777D02*
X55692Y-61527D01*
X54972Y-66497D02*
X55692Y-65777D01*
X28834Y-63304D02*
X29664Y-63304D01*
X30784Y-61414D02*
X30784Y-61454D01*
X30054Y-62144D02*
X30744Y-61454D01*
X29664Y-63304D02*
X30054Y-62914D01*
X30054Y-62914D02*
X30054Y-62144D01*
X31434Y-60764D02*
X30784Y-61414D01*
X30744Y-61454D02*
X30784Y-61454D01*
X26419Y-64493D02*
X26419Y-61611D01*
X63486Y-54167D02*
X66158Y-56839D01*
X27282Y-56215D02*
X27977Y-55520D01*
X31660Y-57780D02*
X31176Y-57780D01*
X31176Y-57780D02*
X28916Y-55520D01*
X27419Y-67067D02*
X28729Y-68377D01*
X27419Y-65493D02*
X27419Y-67067D01*
X26419Y-64493D02*
X27419Y-65493D01*
X60842Y-55407D02*
X61766Y-55407D01*
X63006Y-54167D02*
X63486Y-54167D01*
X61766Y-55407D02*
X63006Y-54167D01*
X28729Y-68377D02*
X64418Y-68377D01*
X27977Y-55520D02*
X28916Y-55520D01*
X67680Y-65115D02*
X64418Y-68377D01*
X67680Y-57152D02*
X67680Y-65115D01*
X67367Y-56839D02*
X67680Y-57152D01*
X66158Y-56839D02*
X67367Y-56839D01*
X27282Y-56953D02*
X27282Y-56215D01*
X26072Y-58163D02*
X27282Y-56953D01*
X26072Y-61263D02*
X26072Y-58163D01*
X26419Y-61611D02*
X26072Y-61263D01*
X25122Y-52897D02*
X27622Y-50397D01*
X27622Y-50397D02*
X33122Y-50397D01*
X47437Y-53847D02*
X50962Y-53847D01*
X56182Y-50337D02*
X55910Y-50337D01*
X47437Y-53847D02*
X46970Y-53380D01*
X46970Y-53380D02*
X45050Y-53380D01*
X45050Y-53380D02*
X44025Y-54405D01*
X52630Y-53617D02*
X55910Y-50337D01*
X51192Y-53617D02*
X52630Y-53617D01*
X50962Y-53847D02*
X51192Y-53617D01*
X56182Y-50337D02*
X56452Y-50067D01*
X56972Y-50067D02*
X58388Y-51483D01*
X58388Y-51483D02*
X59070Y-51483D01*
X56452Y-50067D02*
X56972Y-50067D01*
G54D10*
G36*
X70631Y-53128D02*
X68800Y-53128D01*
X68800Y-47343D01*
X69040Y-47343D01*
X69098Y-47286D01*
X69106Y-47282D01*
X69211Y-47178D01*
X69214Y-47169D01*
X69828Y-46556D01*
X70631Y-46556D01*
X70631Y-47471D01*
X70413Y-47471D01*
X70390Y-47476D01*
X70367Y-47476D01*
X70299Y-47489D01*
X70299Y-47489D01*
X70299Y-47489D01*
X70226Y-47520D01*
X70215Y-47524D01*
X70215Y-47524D01*
X70214Y-47524D01*
X70157Y-47563D01*
X70101Y-47619D01*
X70092Y-47627D01*
X70092Y-47627D01*
X70092Y-47628D01*
X70092Y-47628D01*
X70054Y-47685D01*
X70054Y-47685D01*
X70054Y-47685D01*
X70023Y-47759D01*
X70019Y-47770D01*
X70019Y-47770D01*
X70019Y-47770D01*
X70005Y-47838D01*
X70005Y-47883D01*
X70005Y-47929D01*
X70019Y-47997D01*
X70019Y-47997D01*
X70019Y-47997D01*
X70023Y-48008D01*
X70054Y-48082D01*
X70054Y-48082D01*
X70054Y-48082D01*
X70092Y-48139D01*
X70092Y-48139D01*
X70092Y-48139D01*
X70092Y-48139D01*
X70101Y-48148D01*
X70157Y-48204D01*
X70214Y-48242D01*
X70215Y-48243D01*
X70215Y-48243D01*
X70226Y-48247D01*
X70299Y-48278D01*
X70299Y-48278D01*
X70299Y-48278D01*
X70367Y-48291D01*
X70390Y-48291D01*
X70413Y-48296D01*
X70631Y-48296D01*
X70631Y-49341D01*
X70413Y-49341D01*
X70390Y-49346D01*
X70367Y-49346D01*
X70299Y-49359D01*
X70299Y-49359D01*
X70299Y-49359D01*
X70226Y-49390D01*
X70215Y-49394D01*
X70215Y-49394D01*
X70214Y-49394D01*
X70157Y-49433D01*
X70101Y-49489D01*
X70092Y-49497D01*
X70092Y-49498D01*
X70092Y-49498D01*
X70092Y-49498D01*
X70054Y-49555D01*
X70054Y-49555D01*
X70054Y-49555D01*
X70023Y-49629D01*
X70019Y-49640D01*
X70019Y-49640D01*
X70019Y-49640D01*
X70005Y-49708D01*
X70005Y-49753D01*
X70005Y-49799D01*
X70019Y-49867D01*
X70019Y-49867D01*
X70019Y-49867D01*
X70023Y-49878D01*
X70054Y-49952D01*
X70054Y-49952D01*
X70054Y-49952D01*
X70092Y-50009D01*
X70092Y-50009D01*
X70092Y-50009D01*
X70092Y-50009D01*
X70101Y-50018D01*
X70157Y-50074D01*
X70214Y-50112D01*
X70215Y-50113D01*
X70215Y-50113D01*
X70226Y-50117D01*
X70299Y-50148D01*
X70299Y-50148D01*
X70299Y-50148D01*
X70367Y-50161D01*
X70390Y-50161D01*
X70413Y-50166D01*
X70631Y-50166D01*
X70631Y-53128D01*
X70631Y-53128D01*
G37*
G54D33*
X70631Y-53128D02*
X68800Y-53128D01*
X68800Y-47343D01*
X69040Y-47343D01*
X69098Y-47286D01*
X69106Y-47282D01*
X69211Y-47178D01*
X69214Y-47169D01*
X69828Y-46556D01*
X70631Y-46556D01*
X70631Y-47471D01*
X70413Y-47471D01*
X70390Y-47476D01*
X70367Y-47476D01*
X70299Y-47489D01*
X70299Y-47489D01*
X70299Y-47489D01*
X70226Y-47520D01*
X70215Y-47524D01*
X70215Y-47524D01*
X70214Y-47524D01*
X70157Y-47563D01*
X70101Y-47619D01*
X70092Y-47627D01*
X70092Y-47627D01*
X70092Y-47628D01*
X70092Y-47628D01*
X70054Y-47685D01*
X70054Y-47685D01*
X70054Y-47685D01*
X70023Y-47759D01*
X70019Y-47770D01*
X70019Y-47770D01*
X70019Y-47770D01*
X70005Y-47838D01*
X70005Y-47883D01*
X70005Y-47929D01*
X70019Y-47997D01*
X70019Y-47997D01*
X70019Y-47997D01*
X70023Y-48008D01*
X70054Y-48082D01*
X70054Y-48082D01*
X70054Y-48082D01*
X70092Y-48139D01*
X70092Y-48139D01*
X70092Y-48139D01*
X70092Y-48139D01*
X70101Y-48148D01*
X70157Y-48204D01*
X70214Y-48242D01*
X70215Y-48243D01*
X70215Y-48243D01*
X70226Y-48247D01*
X70299Y-48278D01*
X70299Y-48278D01*
X70299Y-48278D01*
X70367Y-48291D01*
X70390Y-48291D01*
X70413Y-48296D01*
X70631Y-48296D01*
X70631Y-49341D01*
X70413Y-49341D01*
X70390Y-49346D01*
X70367Y-49346D01*
X70299Y-49359D01*
X70299Y-49359D01*
X70299Y-49359D01*
X70226Y-49390D01*
X70215Y-49394D01*
X70215Y-49394D01*
X70214Y-49394D01*
X70157Y-49433D01*
X70101Y-49489D01*
X70092Y-49497D01*
X70092Y-49498D01*
X70092Y-49498D01*
X70092Y-49498D01*
X70054Y-49555D01*
X70054Y-49555D01*
X70054Y-49555D01*
X70023Y-49629D01*
X70019Y-49640D01*
X70019Y-49640D01*
X70019Y-49640D01*
X70005Y-49708D01*
X70005Y-49753D01*
X70005Y-49799D01*
X70019Y-49867D01*
X70019Y-49867D01*
X70019Y-49867D01*
X70023Y-49878D01*
X70054Y-49952D01*
X70054Y-49952D01*
X70054Y-49952D01*
X70092Y-50009D01*
X70092Y-50009D01*
X70092Y-50009D01*
X70092Y-50009D01*
X70101Y-50018D01*
X70157Y-50074D01*
X70214Y-50112D01*
X70215Y-50113D01*
X70215Y-50113D01*
X70226Y-50117D01*
X70299Y-50148D01*
X70299Y-50148D01*
X70299Y-50148D01*
X70367Y-50161D01*
X70390Y-50161D01*
X70413Y-50166D01*
X70631Y-50166D01*
X70631Y-53128D01*
M02*
