G04 #@! TF.GenerationSoftware,KiCad,Pcbnew,(5.1.6-0-10_14)*
G04 #@! TF.CreationDate,2020-09-07T10:58:25+10:00*
G04 #@! TF.ProjectId,hackrf-one,6861636b-7266-42d6-9f6e-652e6b696361,rev?*
G04 #@! TF.SameCoordinates,Original*
G04 #@! TF.FileFunction,Legend,Top*
G04 #@! TF.FilePolarity,Positive*
%FSLAX45Y45*%
G04 Gerber Fmt 4.5, Leading zero omitted, Abs format (unit mm)*
G04 Created by KiCad (PCBNEW (5.1.6-0-10_14)) date 2020-09-07 10:58:25*
%MOMM*%
%LPD*%
G01*
G04 APERTURE LIST*
%ADD10C,0.203200*%
%ADD11C,0.304800*%
%ADD12C,0.190500*%
%ADD13C,0.152400*%
%ADD14C,0.609600*%
%ADD15C,0.120000*%
%ADD16C,0.177800*%
%ADD17C,0.101600*%
%ADD18C,0.381000*%
%ADD19C,0.119380*%
%ADD20C,0.254000*%
G04 APERTURE END LIST*
D10*
X12540000Y-16520000D02*
G75*
G03*
X12540000Y-16520000I-20000J0D01*
G01*
X9560000Y-15500000D02*
G75*
G03*
X9560000Y-15500000I-20000J0D01*
G01*
X10560000Y-14520000D02*
G75*
G03*
X10560000Y-14520000I-20000J0D01*
G01*
X9940000Y-11620000D02*
G75*
G03*
X9940000Y-11620000I-20000J0D01*
G01*
D11*
X7951567Y-12065609D02*
X7960033Y-12077705D01*
X7960033Y-12101895D01*
X7951567Y-12113990D01*
X7943100Y-12120038D01*
X7926167Y-12126086D01*
X7875367Y-12126086D01*
X7858433Y-12120038D01*
X7849967Y-12113990D01*
X7841500Y-12101895D01*
X7841500Y-12077705D01*
X7849967Y-12065609D01*
X7841500Y-12011181D02*
X7993900Y-12011181D01*
X8010833Y-12017228D01*
X8019300Y-12029324D01*
X8019300Y-12035371D01*
X7782233Y-12011181D02*
X7790700Y-12017228D01*
X7799167Y-12011181D01*
X7790700Y-12005133D01*
X7782233Y-12011181D01*
X7799167Y-12011181D01*
X7960033Y-11950705D02*
X7782233Y-11950705D01*
X7960033Y-11896276D02*
X7866900Y-11896276D01*
X7849967Y-11902324D01*
X7841500Y-11914419D01*
X7841500Y-11932562D01*
X7849967Y-11944657D01*
X7858433Y-11950705D01*
X7782233Y-11714848D02*
X7782233Y-11702752D01*
X7790700Y-11690657D01*
X7799167Y-11684609D01*
X7816100Y-11678562D01*
X7849967Y-11672514D01*
X7892300Y-11672514D01*
X7926167Y-11678562D01*
X7943100Y-11684609D01*
X7951567Y-11690657D01*
X7960033Y-11702752D01*
X7960033Y-11714848D01*
X7951567Y-11726943D01*
X7943100Y-11732990D01*
X7926167Y-11739038D01*
X7892300Y-11745086D01*
X7849967Y-11745086D01*
X7816100Y-11739038D01*
X7799167Y-11732990D01*
X7790700Y-11726943D01*
X7782233Y-11714848D01*
X7782233Y-11563657D02*
X7782233Y-11587848D01*
X7790700Y-11599943D01*
X7799167Y-11605990D01*
X7824567Y-11618086D01*
X7858433Y-11624133D01*
X7926167Y-11624133D01*
X7943100Y-11618086D01*
X7951567Y-11612038D01*
X7960033Y-11599943D01*
X7960033Y-11575752D01*
X7951567Y-11563657D01*
X7943100Y-11557609D01*
X7926167Y-11551562D01*
X7883833Y-11551562D01*
X7866900Y-11557609D01*
X7858433Y-11563657D01*
X7849967Y-11575752D01*
X7849967Y-11599943D01*
X7858433Y-11612038D01*
X7866900Y-11618086D01*
X7883833Y-11624133D01*
X7951567Y-11406419D02*
X7960033Y-11388276D01*
X7960033Y-11358038D01*
X7951567Y-11345943D01*
X7943100Y-11339895D01*
X7926167Y-11333848D01*
X7909233Y-11333848D01*
X7892300Y-11339895D01*
X7883833Y-11345943D01*
X7875367Y-11358038D01*
X7866900Y-11382228D01*
X7858433Y-11394324D01*
X7849967Y-11400371D01*
X7833033Y-11406419D01*
X7816100Y-11406419D01*
X7799167Y-11400371D01*
X7790700Y-11394324D01*
X7782233Y-11382228D01*
X7782233Y-11351990D01*
X7790700Y-11333848D01*
X7951567Y-11231038D02*
X7960033Y-11243133D01*
X7960033Y-11267324D01*
X7951567Y-11279419D01*
X7934633Y-11285467D01*
X7866900Y-11285467D01*
X7849967Y-11279419D01*
X7841500Y-11267324D01*
X7841500Y-11243133D01*
X7849967Y-11231038D01*
X7866900Y-11224990D01*
X7883833Y-11224990D01*
X7900767Y-11285467D01*
X7841500Y-11170562D02*
X8019300Y-11170562D01*
X7849967Y-11170562D02*
X7841500Y-11158467D01*
X7841500Y-11134276D01*
X7849967Y-11122181D01*
X7858433Y-11116133D01*
X7875367Y-11110086D01*
X7926167Y-11110086D01*
X7943100Y-11116133D01*
X7951567Y-11122181D01*
X7960033Y-11134276D01*
X7960033Y-11158467D01*
X7951567Y-11170562D01*
X7799167Y-10964943D02*
X7790700Y-10958895D01*
X7782233Y-10946800D01*
X7782233Y-10916562D01*
X7790700Y-10904467D01*
X7799167Y-10898419D01*
X7816100Y-10892371D01*
X7833033Y-10892371D01*
X7858433Y-10898419D01*
X7960033Y-10970990D01*
X7960033Y-10892371D01*
X7782233Y-10813752D02*
X7782233Y-10801657D01*
X7790700Y-10789562D01*
X7799167Y-10783514D01*
X7816100Y-10777467D01*
X7849967Y-10771419D01*
X7892300Y-10771419D01*
X7926167Y-10777467D01*
X7943100Y-10783514D01*
X7951567Y-10789562D01*
X7960033Y-10801657D01*
X7960033Y-10813752D01*
X7951567Y-10825848D01*
X7943100Y-10831895D01*
X7926167Y-10837943D01*
X7892300Y-10843990D01*
X7849967Y-10843990D01*
X7816100Y-10837943D01*
X7799167Y-10831895D01*
X7790700Y-10825848D01*
X7782233Y-10813752D01*
X7799167Y-10723038D02*
X7790700Y-10716990D01*
X7782233Y-10704895D01*
X7782233Y-10674657D01*
X7790700Y-10662562D01*
X7799167Y-10656514D01*
X7816100Y-10650467D01*
X7833033Y-10650467D01*
X7858433Y-10656514D01*
X7960033Y-10729086D01*
X7960033Y-10650467D01*
X7782233Y-10571848D02*
X7782233Y-10559752D01*
X7790700Y-10547657D01*
X7799167Y-10541610D01*
X7816100Y-10535562D01*
X7849967Y-10529514D01*
X7892300Y-10529514D01*
X7926167Y-10535562D01*
X7943100Y-10541610D01*
X7951567Y-10547657D01*
X7960033Y-10559752D01*
X7960033Y-10571848D01*
X7951567Y-10583943D01*
X7943100Y-10589990D01*
X7926167Y-10596038D01*
X7892300Y-10602086D01*
X7849967Y-10602086D01*
X7816100Y-10596038D01*
X7799167Y-10589990D01*
X7790700Y-10583943D01*
X7782233Y-10571848D01*
D12*
X9753757Y-12592962D02*
X9753757Y-12491362D01*
X9782786Y-12491362D01*
X9790043Y-12496200D01*
X9793671Y-12501038D01*
X9797300Y-12510714D01*
X9797300Y-12525228D01*
X9793671Y-12534905D01*
X9790043Y-12539743D01*
X9782786Y-12544581D01*
X9753757Y-12544581D01*
X9833586Y-12592962D02*
X9848100Y-12592962D01*
X9855357Y-12588124D01*
X9858986Y-12583286D01*
X9866243Y-12568771D01*
X9869871Y-12549419D01*
X9869871Y-12510714D01*
X9866243Y-12501038D01*
X9862614Y-12496200D01*
X9855357Y-12491362D01*
X9840843Y-12491362D01*
X9833586Y-12496200D01*
X9829957Y-12501038D01*
X9826329Y-12510714D01*
X9826329Y-12534905D01*
X9829957Y-12544581D01*
X9833586Y-12549419D01*
X9840843Y-12554257D01*
X9855357Y-12554257D01*
X9862614Y-12549419D01*
X9866243Y-12544581D01*
X9869871Y-12534905D01*
X11630454Y-12799337D02*
X11630454Y-12871908D01*
X11626826Y-12886423D01*
X11619568Y-12896099D01*
X11608683Y-12900937D01*
X11601426Y-12900937D01*
X11706654Y-12900937D02*
X11663111Y-12900937D01*
X11684883Y-12900937D02*
X11684883Y-12799337D01*
X11677626Y-12813851D01*
X11670368Y-12823527D01*
X11663111Y-12828365D01*
X11753826Y-12799337D02*
X11761083Y-12799337D01*
X11768340Y-12804175D01*
X11771968Y-12809013D01*
X11775597Y-12818689D01*
X11779226Y-12838042D01*
X11779226Y-12862232D01*
X11775597Y-12881584D01*
X11771968Y-12891261D01*
X11768340Y-12896099D01*
X11761083Y-12900937D01*
X11753826Y-12900937D01*
X11746568Y-12896099D01*
X11742940Y-12891261D01*
X11739311Y-12881584D01*
X11735683Y-12862232D01*
X11735683Y-12838042D01*
X11739311Y-12818689D01*
X11742940Y-12809013D01*
X11746568Y-12804175D01*
X11753826Y-12799337D01*
X11634083Y-12975625D02*
X11626826Y-12970787D01*
X11615940Y-12970787D01*
X11605054Y-12975625D01*
X11597797Y-12985301D01*
X11594168Y-12994977D01*
X11590540Y-13014330D01*
X11590540Y-13028844D01*
X11594168Y-13048196D01*
X11597797Y-13057873D01*
X11605054Y-13067549D01*
X11615940Y-13072387D01*
X11623197Y-13072387D01*
X11634083Y-13067549D01*
X11637711Y-13062711D01*
X11637711Y-13028844D01*
X11623197Y-13028844D01*
X11670368Y-13072387D02*
X11670368Y-12970787D01*
X11713911Y-13072387D01*
X11713911Y-12970787D01*
X11750197Y-13072387D02*
X11750197Y-12970787D01*
X11768340Y-12970787D01*
X11779226Y-12975625D01*
X11786483Y-12985301D01*
X11790111Y-12994977D01*
X11793740Y-13014330D01*
X11793740Y-13028844D01*
X11790111Y-13048196D01*
X11786483Y-13057873D01*
X11779226Y-13067549D01*
X11768340Y-13072387D01*
X11750197Y-13072387D01*
X17630902Y-13508934D02*
X17529302Y-13508934D01*
X17529302Y-13479906D01*
X17534140Y-13472648D01*
X17538978Y-13469020D01*
X17548654Y-13465391D01*
X17563169Y-13465391D01*
X17572845Y-13469020D01*
X17577683Y-13472648D01*
X17582521Y-13479906D01*
X17582521Y-13508934D01*
X17572845Y-13421848D02*
X17568007Y-13429106D01*
X17563169Y-13432734D01*
X17553492Y-13436363D01*
X17548654Y-13436363D01*
X17538978Y-13432734D01*
X17534140Y-13429106D01*
X17529302Y-13421848D01*
X17529302Y-13407334D01*
X17534140Y-13400077D01*
X17538978Y-13396448D01*
X17548654Y-13392820D01*
X17553492Y-13392820D01*
X17563169Y-13396448D01*
X17568007Y-13400077D01*
X17572845Y-13407334D01*
X17572845Y-13421848D01*
X17577683Y-13429106D01*
X17582521Y-13432734D01*
X17592197Y-13436363D01*
X17611550Y-13436363D01*
X17621226Y-13432734D01*
X17626064Y-13429106D01*
X17630902Y-13421848D01*
X17630902Y-13407334D01*
X17626064Y-13400077D01*
X17621226Y-13396448D01*
X17611550Y-13392820D01*
X17592197Y-13392820D01*
X17582521Y-13396448D01*
X17577683Y-13400077D01*
X17572845Y-13407334D01*
X17529302Y-13345648D02*
X17529302Y-13338391D01*
X17534140Y-13331134D01*
X17538978Y-13327506D01*
X17548654Y-13323877D01*
X17568007Y-13320248D01*
X17592197Y-13320248D01*
X17611550Y-13323877D01*
X17621226Y-13327506D01*
X17626064Y-13331134D01*
X17630902Y-13338391D01*
X17630902Y-13345648D01*
X17626064Y-13352906D01*
X17621226Y-13356534D01*
X17611550Y-13360163D01*
X17592197Y-13363791D01*
X17568007Y-13363791D01*
X17548654Y-13360163D01*
X17538978Y-13356534D01*
X17534140Y-13352906D01*
X17529302Y-13345648D01*
X17626064Y-13233163D02*
X17630902Y-13222277D01*
X17630902Y-13204134D01*
X17626064Y-13196877D01*
X17621226Y-13193248D01*
X17611550Y-13189620D01*
X17601873Y-13189620D01*
X17592197Y-13193248D01*
X17587359Y-13196877D01*
X17582521Y-13204134D01*
X17577683Y-13218648D01*
X17572845Y-13225906D01*
X17568007Y-13229534D01*
X17558330Y-13233163D01*
X17548654Y-13233163D01*
X17538978Y-13229534D01*
X17534140Y-13225906D01*
X17529302Y-13218648D01*
X17529302Y-13200506D01*
X17534140Y-13189620D01*
X17630902Y-13156963D02*
X17529302Y-13156963D01*
X17577683Y-13156963D02*
X17577683Y-13113420D01*
X17630902Y-13113420D02*
X17529302Y-13113420D01*
X17630902Y-13077134D02*
X17529302Y-13077134D01*
X17577683Y-13040848D02*
X17577683Y-13015448D01*
X17630902Y-13004563D02*
X17630902Y-13040848D01*
X17529302Y-13040848D01*
X17529302Y-13004563D01*
X17630902Y-12935620D02*
X17630902Y-12971906D01*
X17529302Y-12971906D01*
X17630902Y-12910220D02*
X17529302Y-12910220D01*
X17529302Y-12892077D01*
X17534140Y-12881191D01*
X17543816Y-12873934D01*
X17553492Y-12870306D01*
X17572845Y-12866677D01*
X17587359Y-12866677D01*
X17606711Y-12870306D01*
X17616388Y-12873934D01*
X17626064Y-12881191D01*
X17630902Y-12892077D01*
X17630902Y-12910220D01*
X8864757Y-11076582D02*
X8864757Y-10974982D01*
X8893786Y-10974982D01*
X8901043Y-10979820D01*
X8904671Y-10984658D01*
X8908300Y-10994334D01*
X8908300Y-11008849D01*
X8904671Y-11018525D01*
X8901043Y-11023363D01*
X8893786Y-11028201D01*
X8864757Y-11028201D01*
X8977243Y-10974982D02*
X8940957Y-10974982D01*
X8937329Y-11023363D01*
X8940957Y-11018525D01*
X8948214Y-11013687D01*
X8966357Y-11013687D01*
X8973614Y-11018525D01*
X8977243Y-11023363D01*
X8980871Y-11033039D01*
X8980871Y-11057230D01*
X8977243Y-11066906D01*
X8973614Y-11071744D01*
X8966357Y-11076582D01*
X8948214Y-11076582D01*
X8940957Y-11071744D01*
X8937329Y-11066906D01*
X6715962Y-11250671D02*
X6667581Y-11276071D01*
X6715962Y-11294214D02*
X6614362Y-11294214D01*
X6614362Y-11265186D01*
X6619200Y-11257928D01*
X6624038Y-11254300D01*
X6633714Y-11250671D01*
X6648228Y-11250671D01*
X6657905Y-11254300D01*
X6662743Y-11257928D01*
X6667581Y-11265186D01*
X6667581Y-11294214D01*
X6662743Y-11218014D02*
X6662743Y-11192614D01*
X6715962Y-11181729D02*
X6715962Y-11218014D01*
X6614362Y-11218014D01*
X6614362Y-11181729D01*
X6711124Y-11152700D02*
X6715962Y-11141814D01*
X6715962Y-11123671D01*
X6711124Y-11116414D01*
X6706286Y-11112786D01*
X6696609Y-11109157D01*
X6686933Y-11109157D01*
X6677257Y-11112786D01*
X6672419Y-11116414D01*
X6667581Y-11123671D01*
X6662743Y-11138186D01*
X6657905Y-11145443D01*
X6653067Y-11149071D01*
X6643390Y-11152700D01*
X6633714Y-11152700D01*
X6624038Y-11149071D01*
X6619200Y-11145443D01*
X6614362Y-11138186D01*
X6614362Y-11120043D01*
X6619200Y-11109157D01*
X6662743Y-11076500D02*
X6662743Y-11051100D01*
X6715962Y-11040214D02*
X6715962Y-11076500D01*
X6614362Y-11076500D01*
X6614362Y-11040214D01*
X6614362Y-11018443D02*
X6614362Y-10974900D01*
X6715962Y-10996671D02*
X6614362Y-10996671D01*
X6715962Y-12532528D02*
X6614362Y-12532528D01*
X6614362Y-12514386D01*
X6619200Y-12503500D01*
X6628876Y-12496243D01*
X6638552Y-12492614D01*
X6657905Y-12488986D01*
X6672419Y-12488986D01*
X6691771Y-12492614D01*
X6701448Y-12496243D01*
X6711124Y-12503500D01*
X6715962Y-12514386D01*
X6715962Y-12532528D01*
X6662743Y-12430928D02*
X6662743Y-12456328D01*
X6715962Y-12456328D02*
X6614362Y-12456328D01*
X6614362Y-12420043D01*
X6614362Y-12391014D02*
X6696609Y-12391014D01*
X6706286Y-12387386D01*
X6711124Y-12383757D01*
X6715962Y-12376500D01*
X6715962Y-12361986D01*
X6711124Y-12354728D01*
X6706286Y-12351100D01*
X6696609Y-12347471D01*
X6614362Y-12347471D01*
D13*
X7019991Y-11441374D02*
X7019991Y-11397831D01*
X7096191Y-11419603D02*
X7019991Y-11419603D01*
X7096191Y-11372431D02*
X7019991Y-11372431D01*
X7074420Y-11347031D01*
X7019991Y-11321631D01*
X7096191Y-11321631D01*
D12*
X6553962Y-13572071D02*
X6505581Y-13597471D01*
X6553962Y-13615614D02*
X6452362Y-13615614D01*
X6452362Y-13586586D01*
X6457200Y-13579328D01*
X6462038Y-13575700D01*
X6471714Y-13572071D01*
X6486228Y-13572071D01*
X6495905Y-13575700D01*
X6500743Y-13579328D01*
X6505581Y-13586586D01*
X6505581Y-13615614D01*
X6500743Y-13514014D02*
X6500743Y-13539414D01*
X6553962Y-13539414D02*
X6452362Y-13539414D01*
X6452362Y-13503128D01*
D14*
X7580848Y-13065886D02*
X7174448Y-13065886D01*
X7367971Y-13065886D02*
X7367971Y-12891714D01*
X7580848Y-12891714D02*
X7174448Y-12891714D01*
X7580848Y-12615943D02*
X7367971Y-12615943D01*
X7329267Y-12630457D01*
X7309914Y-12659486D01*
X7309914Y-12717543D01*
X7329267Y-12746571D01*
X7561495Y-12615943D02*
X7580848Y-12644971D01*
X7580848Y-12717543D01*
X7561495Y-12746571D01*
X7522790Y-12761086D01*
X7484086Y-12761086D01*
X7445381Y-12746571D01*
X7426028Y-12717543D01*
X7426028Y-12644971D01*
X7406676Y-12615943D01*
X7561495Y-12340171D02*
X7580848Y-12369200D01*
X7580848Y-12427257D01*
X7561495Y-12456286D01*
X7542143Y-12470800D01*
X7503438Y-12485314D01*
X7387324Y-12485314D01*
X7348619Y-12470800D01*
X7329267Y-12456286D01*
X7309914Y-12427257D01*
X7309914Y-12369200D01*
X7329267Y-12340171D01*
X7580848Y-12209543D02*
X7174448Y-12209543D01*
X7426028Y-12180514D02*
X7580848Y-12093428D01*
X7309914Y-12093428D02*
X7464733Y-12209543D01*
X7580848Y-11788628D02*
X7387324Y-11890228D01*
X7580848Y-11962800D02*
X7174448Y-11962800D01*
X7174448Y-11846686D01*
X7193800Y-11817657D01*
X7213152Y-11803143D01*
X7251857Y-11788628D01*
X7309914Y-11788628D01*
X7348619Y-11803143D01*
X7367971Y-11817657D01*
X7387324Y-11846686D01*
X7387324Y-11962800D01*
X7367971Y-11556400D02*
X7367971Y-11658000D01*
X7580848Y-11658000D02*
X7174448Y-11658000D01*
X7174448Y-11512857D01*
X7174448Y-11106457D02*
X7174448Y-11048400D01*
X7193800Y-11019371D01*
X7232505Y-10990343D01*
X7309914Y-10975829D01*
X7445381Y-10975829D01*
X7522790Y-10990343D01*
X7561495Y-11019371D01*
X7580848Y-11048400D01*
X7580848Y-11106457D01*
X7561495Y-11135486D01*
X7522790Y-11164514D01*
X7445381Y-11179029D01*
X7309914Y-11179029D01*
X7232505Y-11164514D01*
X7193800Y-11135486D01*
X7174448Y-11106457D01*
X7309914Y-10845200D02*
X7580848Y-10845200D01*
X7348619Y-10845200D02*
X7329267Y-10830686D01*
X7309914Y-10801657D01*
X7309914Y-10758114D01*
X7329267Y-10729086D01*
X7367971Y-10714571D01*
X7580848Y-10714571D01*
X7561495Y-10453314D02*
X7580848Y-10482343D01*
X7580848Y-10540400D01*
X7561495Y-10569429D01*
X7522790Y-10583943D01*
X7367971Y-10583943D01*
X7329267Y-10569429D01*
X7309914Y-10540400D01*
X7309914Y-10482343D01*
X7329267Y-10453314D01*
X7367971Y-10438800D01*
X7406676Y-10438800D01*
X7445381Y-10583943D01*
D10*
X14993620Y-11457940D02*
X14841220Y-11457940D01*
X14993620Y-11457940D02*
X14942820Y-11508740D01*
X14993620Y-11457940D02*
X14942820Y-11407140D01*
D12*
X6553962Y-13127571D02*
X6553962Y-13171114D01*
X6553962Y-13149343D02*
X6452362Y-13149343D01*
X6466876Y-13156600D01*
X6476552Y-13163857D01*
X6481390Y-13171114D01*
X6452362Y-13105800D02*
X6553962Y-13080400D01*
X6452362Y-13055000D01*
X6495905Y-13018714D02*
X6491067Y-13025971D01*
X6486228Y-13029600D01*
X6476552Y-13033228D01*
X6471714Y-13033228D01*
X6462038Y-13029600D01*
X6457200Y-13025971D01*
X6452362Y-13018714D01*
X6452362Y-13004200D01*
X6457200Y-12996943D01*
X6462038Y-12993314D01*
X6471714Y-12989686D01*
X6476552Y-12989686D01*
X6486228Y-12993314D01*
X6491067Y-12996943D01*
X6495905Y-13004200D01*
X6495905Y-13018714D01*
X6500743Y-13025971D01*
X6505581Y-13029600D01*
X6515257Y-13033228D01*
X6534609Y-13033228D01*
X6544286Y-13029600D01*
X6549124Y-13025971D01*
X6553962Y-13018714D01*
X6553962Y-13004200D01*
X6549124Y-12996943D01*
X6544286Y-12993314D01*
X6534609Y-12989686D01*
X6515257Y-12989686D01*
X6505581Y-12993314D01*
X6500743Y-12996943D01*
X6495905Y-13004200D01*
X6452362Y-11879343D02*
X6452362Y-11832171D01*
X6491067Y-11857571D01*
X6491067Y-11846686D01*
X6495905Y-11839428D01*
X6500743Y-11835800D01*
X6510419Y-11832171D01*
X6534609Y-11832171D01*
X6544286Y-11835800D01*
X6549124Y-11839428D01*
X6553962Y-11846686D01*
X6553962Y-11868457D01*
X6549124Y-11875714D01*
X6544286Y-11879343D01*
X6452362Y-11810400D02*
X6553962Y-11785000D01*
X6452362Y-11759600D01*
X6452362Y-11741457D02*
X6452362Y-11694286D01*
X6491067Y-11719686D01*
X6491067Y-11708800D01*
X6495905Y-11701543D01*
X6500743Y-11697914D01*
X6510419Y-11694286D01*
X6534609Y-11694286D01*
X6544286Y-11697914D01*
X6549124Y-11701543D01*
X6553962Y-11708800D01*
X6553962Y-11730571D01*
X6549124Y-11737828D01*
X6544286Y-11741457D01*
X6452362Y-14090957D02*
X6534609Y-14090957D01*
X6544286Y-14087328D01*
X6549124Y-14083700D01*
X6553962Y-14076443D01*
X6553962Y-14061928D01*
X6549124Y-14054671D01*
X6544286Y-14051043D01*
X6534609Y-14047414D01*
X6452362Y-14047414D01*
X6549124Y-14014757D02*
X6553962Y-14003871D01*
X6553962Y-13985728D01*
X6549124Y-13978471D01*
X6544286Y-13974843D01*
X6534609Y-13971214D01*
X6524933Y-13971214D01*
X6515257Y-13974843D01*
X6510419Y-13978471D01*
X6505581Y-13985728D01*
X6500743Y-14000243D01*
X6495905Y-14007500D01*
X6491067Y-14011128D01*
X6481390Y-14014757D01*
X6471714Y-14014757D01*
X6462038Y-14011128D01*
X6457200Y-14007500D01*
X6452362Y-14000243D01*
X6452362Y-13982100D01*
X6457200Y-13971214D01*
X6500743Y-13913157D02*
X6505581Y-13902271D01*
X6510419Y-13898643D01*
X6520095Y-13895014D01*
X6534609Y-13895014D01*
X6544286Y-13898643D01*
X6549124Y-13902271D01*
X6553962Y-13909528D01*
X6553962Y-13938557D01*
X6452362Y-13938557D01*
X6452362Y-13913157D01*
X6457200Y-13905900D01*
X6462038Y-13902271D01*
X6471714Y-13898643D01*
X6481390Y-13898643D01*
X6491067Y-13902271D01*
X6495905Y-13905900D01*
X6500743Y-13913157D01*
X6500743Y-13938557D01*
X6553962Y-14464700D02*
X6505581Y-14490100D01*
X6553962Y-14508243D02*
X6452362Y-14508243D01*
X6452362Y-14479214D01*
X6457200Y-14471957D01*
X6462038Y-14468328D01*
X6471714Y-14464700D01*
X6486228Y-14464700D01*
X6495905Y-14468328D01*
X6500743Y-14471957D01*
X6505581Y-14479214D01*
X6505581Y-14508243D01*
X6452362Y-14439300D02*
X6553962Y-14388500D01*
X6452362Y-14388500D02*
X6553962Y-14439300D01*
X6452362Y-14967257D02*
X6452362Y-14923714D01*
X6553962Y-14945486D02*
X6452362Y-14945486D01*
X6452362Y-14905571D02*
X6553962Y-14854771D01*
X6452362Y-14854771D02*
X6553962Y-14905571D01*
X14113757Y-11120237D02*
X14113757Y-11018637D01*
X14142786Y-11018637D01*
X14150043Y-11023475D01*
X14153671Y-11028313D01*
X14157300Y-11037989D01*
X14157300Y-11052504D01*
X14153671Y-11062180D01*
X14150043Y-11067018D01*
X14142786Y-11071856D01*
X14113757Y-11071856D01*
X14229871Y-11120237D02*
X14186328Y-11120237D01*
X14208100Y-11120237D02*
X14208100Y-11018637D01*
X14200843Y-11033151D01*
X14193586Y-11042827D01*
X14186328Y-11047665D01*
X14122828Y-11291687D02*
X14079286Y-11291687D01*
X14101057Y-11291687D02*
X14101057Y-11190087D01*
X14093800Y-11204601D01*
X14086543Y-11214277D01*
X14079286Y-11219115D01*
X14144600Y-11190087D02*
X14170000Y-11291687D01*
X14195400Y-11190087D01*
X14231686Y-11233630D02*
X14224428Y-11228792D01*
X14220800Y-11223953D01*
X14217171Y-11214277D01*
X14217171Y-11209439D01*
X14220800Y-11199763D01*
X14224428Y-11194925D01*
X14231686Y-11190087D01*
X14246200Y-11190087D01*
X14253457Y-11194925D01*
X14257086Y-11199763D01*
X14260714Y-11209439D01*
X14260714Y-11214277D01*
X14257086Y-11223953D01*
X14253457Y-11228792D01*
X14246200Y-11233630D01*
X14231686Y-11233630D01*
X14224428Y-11238468D01*
X14220800Y-11243306D01*
X14217171Y-11252982D01*
X14217171Y-11272334D01*
X14220800Y-11282011D01*
X14224428Y-11286849D01*
X14231686Y-11291687D01*
X14246200Y-11291687D01*
X14253457Y-11286849D01*
X14257086Y-11282011D01*
X14260714Y-11272334D01*
X14260714Y-11252982D01*
X14257086Y-11243306D01*
X14253457Y-11238468D01*
X14246200Y-11233630D01*
X15369697Y-11059437D02*
X15369697Y-10957837D01*
X15398726Y-10957837D01*
X15405983Y-10962675D01*
X15409611Y-10967513D01*
X15413240Y-10977189D01*
X15413240Y-10991704D01*
X15409611Y-11001380D01*
X15405983Y-11006218D01*
X15398726Y-11011056D01*
X15369697Y-11011056D01*
X15456783Y-11001380D02*
X15449526Y-10996542D01*
X15445897Y-10991704D01*
X15442268Y-10982027D01*
X15442268Y-10977189D01*
X15445897Y-10967513D01*
X15449526Y-10962675D01*
X15456783Y-10957837D01*
X15471297Y-10957837D01*
X15478554Y-10962675D01*
X15482183Y-10967513D01*
X15485811Y-10977189D01*
X15485811Y-10982027D01*
X15482183Y-10991704D01*
X15478554Y-10996542D01*
X15471297Y-11001380D01*
X15456783Y-11001380D01*
X15449526Y-11006218D01*
X15445897Y-11011056D01*
X15442268Y-11020732D01*
X15442268Y-11040085D01*
X15445897Y-11049761D01*
X15449526Y-11054599D01*
X15456783Y-11059437D01*
X15471297Y-11059437D01*
X15478554Y-11054599D01*
X15482183Y-11049761D01*
X15485811Y-11040085D01*
X15485811Y-11020732D01*
X15482183Y-11011056D01*
X15478554Y-11006218D01*
X15471297Y-11001380D01*
X15324340Y-11129287D02*
X15349740Y-11230887D01*
X15375140Y-11129287D01*
X15444083Y-11221211D02*
X15440454Y-11226049D01*
X15429568Y-11230887D01*
X15422311Y-11230887D01*
X15411426Y-11226049D01*
X15404168Y-11216373D01*
X15400540Y-11206696D01*
X15396911Y-11187344D01*
X15396911Y-11172830D01*
X15400540Y-11153477D01*
X15404168Y-11143801D01*
X15411426Y-11134125D01*
X15422311Y-11129287D01*
X15429568Y-11129287D01*
X15440454Y-11134125D01*
X15444083Y-11138963D01*
X15520283Y-11221211D02*
X15516654Y-11226049D01*
X15505768Y-11230887D01*
X15498511Y-11230887D01*
X15487626Y-11226049D01*
X15480368Y-11216373D01*
X15476740Y-11206696D01*
X15473111Y-11187344D01*
X15473111Y-11172830D01*
X15476740Y-11153477D01*
X15480368Y-11143801D01*
X15487626Y-11134125D01*
X15498511Y-11129287D01*
X15505768Y-11129287D01*
X15516654Y-11134125D01*
X15520283Y-11138963D01*
X16825722Y-14547068D02*
X16724122Y-14547068D01*
X16724122Y-14518040D01*
X16728960Y-14510783D01*
X16733798Y-14507154D01*
X16743474Y-14503526D01*
X16757988Y-14503526D01*
X16767665Y-14507154D01*
X16772503Y-14510783D01*
X16777341Y-14518040D01*
X16777341Y-14547068D01*
X16733798Y-14474497D02*
X16728960Y-14470868D01*
X16724122Y-14463611D01*
X16724122Y-14445468D01*
X16728960Y-14438211D01*
X16733798Y-14434583D01*
X16743474Y-14430954D01*
X16753150Y-14430954D01*
X16767665Y-14434583D01*
X16825722Y-14478126D01*
X16825722Y-14430954D01*
X16724122Y-14383783D02*
X16724122Y-14376526D01*
X16728960Y-14369268D01*
X16733798Y-14365640D01*
X16743474Y-14362011D01*
X16762827Y-14358383D01*
X16787017Y-14358383D01*
X16806370Y-14362011D01*
X16816046Y-14365640D01*
X16820884Y-14369268D01*
X16825722Y-14376526D01*
X16825722Y-14383783D01*
X16820884Y-14391040D01*
X16816046Y-14394668D01*
X16806370Y-14398297D01*
X16787017Y-14401926D01*
X16762827Y-14401926D01*
X16743474Y-14398297D01*
X16733798Y-14394668D01*
X16728960Y-14391040D01*
X16724122Y-14383783D01*
X15183551Y-16921122D02*
X15183551Y-16819522D01*
X15212580Y-16819522D01*
X15219837Y-16824360D01*
X15223466Y-16829198D01*
X15227094Y-16838874D01*
X15227094Y-16853389D01*
X15223466Y-16863065D01*
X15219837Y-16867903D01*
X15212580Y-16872741D01*
X15183551Y-16872741D01*
X15256123Y-16829198D02*
X15259751Y-16824360D01*
X15267008Y-16819522D01*
X15285151Y-16819522D01*
X15292408Y-16824360D01*
X15296037Y-16829198D01*
X15299666Y-16838874D01*
X15299666Y-16848550D01*
X15296037Y-16863065D01*
X15252494Y-16921122D01*
X15299666Y-16921122D01*
X15328694Y-16829198D02*
X15332323Y-16824360D01*
X15339580Y-16819522D01*
X15357723Y-16819522D01*
X15364980Y-16824360D01*
X15368608Y-16829198D01*
X15372237Y-16838874D01*
X15372237Y-16848550D01*
X15368608Y-16863065D01*
X15325066Y-16921122D01*
X15372237Y-16921122D01*
X14038374Y-16128642D02*
X14038374Y-16027042D01*
X14067403Y-16027042D01*
X14074660Y-16031880D01*
X14078288Y-16036718D01*
X14081917Y-16046394D01*
X14081917Y-16060908D01*
X14078288Y-16070585D01*
X14074660Y-16075423D01*
X14067403Y-16080261D01*
X14038374Y-16080261D01*
X14110946Y-16036718D02*
X14114574Y-16031880D01*
X14121831Y-16027042D01*
X14139974Y-16027042D01*
X14147231Y-16031880D01*
X14150860Y-16036718D01*
X14154488Y-16046394D01*
X14154488Y-16056070D01*
X14150860Y-16070585D01*
X14107317Y-16128642D01*
X14154488Y-16128642D01*
X14223431Y-16027042D02*
X14187146Y-16027042D01*
X14183517Y-16075423D01*
X14187146Y-16070585D01*
X14194403Y-16065747D01*
X14212546Y-16065747D01*
X14219803Y-16070585D01*
X14223431Y-16075423D01*
X14227060Y-16085099D01*
X14227060Y-16109289D01*
X14223431Y-16118966D01*
X14219803Y-16123804D01*
X14212546Y-16128642D01*
X14194403Y-16128642D01*
X14187146Y-16123804D01*
X14183517Y-16118966D01*
X14412117Y-16128642D02*
X14375831Y-16128642D01*
X14375831Y-16027042D01*
X14437517Y-16128642D02*
X14437517Y-16027042D01*
X14466546Y-16027042D01*
X14473803Y-16031880D01*
X14477431Y-16036718D01*
X14481060Y-16046394D01*
X14481060Y-16060908D01*
X14477431Y-16070585D01*
X14473803Y-16075423D01*
X14466546Y-16080261D01*
X14437517Y-16080261D01*
X14557260Y-16118966D02*
X14553631Y-16123804D01*
X14542746Y-16128642D01*
X14535488Y-16128642D01*
X14524603Y-16123804D01*
X14517346Y-16114128D01*
X14513717Y-16104451D01*
X14510088Y-16085099D01*
X14510088Y-16070585D01*
X14513717Y-16051232D01*
X14517346Y-16041556D01*
X14524603Y-16031880D01*
X14535488Y-16027042D01*
X14542746Y-16027042D01*
X14553631Y-16031880D01*
X14557260Y-16036718D01*
X14571774Y-16138318D02*
X14629831Y-16138318D01*
X14647974Y-16128642D02*
X14647974Y-16027042D01*
X14680631Y-16123804D02*
X14691517Y-16128642D01*
X14709660Y-16128642D01*
X14716917Y-16123804D01*
X14720546Y-16118966D01*
X14724174Y-16109289D01*
X14724174Y-16099613D01*
X14720546Y-16089937D01*
X14716917Y-16085099D01*
X14709660Y-16080261D01*
X14695146Y-16075423D01*
X14687888Y-16070585D01*
X14684260Y-16065747D01*
X14680631Y-16056070D01*
X14680631Y-16046394D01*
X14684260Y-16036718D01*
X14687888Y-16031880D01*
X14695146Y-16027042D01*
X14713288Y-16027042D01*
X14724174Y-16031880D01*
X14756831Y-16128642D02*
X14756831Y-16027042D01*
X14785860Y-16027042D01*
X14793117Y-16031880D01*
X14796746Y-16036718D01*
X14800374Y-16046394D01*
X14800374Y-16060908D01*
X14796746Y-16070585D01*
X14793117Y-16075423D01*
X14785860Y-16080261D01*
X14756831Y-16080261D01*
X12766802Y-14552148D02*
X12665202Y-14552148D01*
X12665202Y-14523120D01*
X12670040Y-14515863D01*
X12674878Y-14512234D01*
X12684554Y-14508606D01*
X12699068Y-14508606D01*
X12708745Y-14512234D01*
X12713583Y-14515863D01*
X12718421Y-14523120D01*
X12718421Y-14552148D01*
X12674878Y-14479577D02*
X12670040Y-14475948D01*
X12665202Y-14468691D01*
X12665202Y-14450548D01*
X12670040Y-14443291D01*
X12674878Y-14439663D01*
X12684554Y-14436034D01*
X12694230Y-14436034D01*
X12708745Y-14439663D01*
X12766802Y-14483206D01*
X12766802Y-14436034D01*
X12708745Y-14392491D02*
X12703907Y-14399748D01*
X12699068Y-14403377D01*
X12689392Y-14407006D01*
X12684554Y-14407006D01*
X12674878Y-14403377D01*
X12670040Y-14399748D01*
X12665202Y-14392491D01*
X12665202Y-14377977D01*
X12670040Y-14370720D01*
X12674878Y-14367091D01*
X12684554Y-14363463D01*
X12689392Y-14363463D01*
X12699068Y-14367091D01*
X12703907Y-14370720D01*
X12708745Y-14377977D01*
X12708745Y-14392491D01*
X12713583Y-14399748D01*
X12718421Y-14403377D01*
X12728097Y-14407006D01*
X12747449Y-14407006D01*
X12757126Y-14403377D01*
X12761964Y-14399748D01*
X12766802Y-14392491D01*
X12766802Y-14377977D01*
X12761964Y-14370720D01*
X12757126Y-14367091D01*
X12747449Y-14363463D01*
X12728097Y-14363463D01*
X12718421Y-14367091D01*
X12713583Y-14370720D01*
X12708745Y-14377977D01*
X14730857Y-11908008D02*
X14629257Y-11908008D01*
X14629257Y-11878980D01*
X14634095Y-11871723D01*
X14638933Y-11868094D01*
X14648609Y-11864466D01*
X14663123Y-11864466D01*
X14672800Y-11868094D01*
X14677638Y-11871723D01*
X14682476Y-11878980D01*
X14682476Y-11908008D01*
X14638933Y-11835437D02*
X14634095Y-11831808D01*
X14629257Y-11824551D01*
X14629257Y-11806408D01*
X14634095Y-11799151D01*
X14638933Y-11795523D01*
X14648609Y-11791894D01*
X14658285Y-11791894D01*
X14672800Y-11795523D01*
X14730857Y-11839066D01*
X14730857Y-11791894D01*
X14629257Y-11726580D02*
X14629257Y-11741094D01*
X14634095Y-11748351D01*
X14638933Y-11751980D01*
X14653447Y-11759237D01*
X14672800Y-11762866D01*
X14711504Y-11762866D01*
X14721181Y-11759237D01*
X14726019Y-11755608D01*
X14730857Y-11748351D01*
X14730857Y-11733837D01*
X14726019Y-11726580D01*
X14721181Y-11722951D01*
X14711504Y-11719323D01*
X14687314Y-11719323D01*
X14677638Y-11722951D01*
X14672800Y-11726580D01*
X14667962Y-11733837D01*
X14667962Y-11748351D01*
X14672800Y-11755608D01*
X14677638Y-11759237D01*
X14687314Y-11762866D01*
X14902307Y-12025937D02*
X14902307Y-12062223D01*
X14800707Y-12062223D01*
X14902307Y-12000537D02*
X14800707Y-12000537D01*
X14800707Y-11971508D01*
X14805545Y-11964251D01*
X14810383Y-11960623D01*
X14820059Y-11956994D01*
X14834573Y-11956994D01*
X14844250Y-11960623D01*
X14849088Y-11964251D01*
X14853926Y-11971508D01*
X14853926Y-12000537D01*
X14892631Y-11880794D02*
X14897469Y-11884423D01*
X14902307Y-11895308D01*
X14902307Y-11902566D01*
X14897469Y-11913451D01*
X14887793Y-11920708D01*
X14878116Y-11924337D01*
X14858764Y-11927966D01*
X14844250Y-11927966D01*
X14824897Y-11924337D01*
X14815221Y-11920708D01*
X14805545Y-11913451D01*
X14800707Y-11902566D01*
X14800707Y-11895308D01*
X14805545Y-11884423D01*
X14810383Y-11880794D01*
X14911983Y-11866280D02*
X14911983Y-11808223D01*
X14800707Y-11768308D02*
X14873278Y-11768308D01*
X14887793Y-11771937D01*
X14897469Y-11779194D01*
X14902307Y-11790080D01*
X14902307Y-11797337D01*
X14800707Y-11742908D02*
X14800707Y-11699366D01*
X14902307Y-11721137D02*
X14800707Y-11721137D01*
X14873278Y-11677594D02*
X14873278Y-11641308D01*
X14902307Y-11684851D02*
X14800707Y-11659451D01*
X14902307Y-11634051D01*
X14805545Y-11568737D02*
X14800707Y-11575994D01*
X14800707Y-11586880D01*
X14805545Y-11597766D01*
X14815221Y-11605023D01*
X14824897Y-11608651D01*
X14844250Y-11612280D01*
X14858764Y-11612280D01*
X14878116Y-11608651D01*
X14887793Y-11605023D01*
X14897469Y-11597766D01*
X14902307Y-11586880D01*
X14902307Y-11579623D01*
X14897469Y-11568737D01*
X14892631Y-11565108D01*
X14858764Y-11565108D01*
X14858764Y-11579623D01*
X14191137Y-11702057D02*
X14191137Y-11600457D01*
X14220166Y-11600457D01*
X14227423Y-11605295D01*
X14231051Y-11610133D01*
X14234680Y-11619809D01*
X14234680Y-11634323D01*
X14231051Y-11644000D01*
X14227423Y-11648838D01*
X14220166Y-11653676D01*
X14191137Y-11653676D01*
X14260080Y-11600457D02*
X14307251Y-11600457D01*
X14281851Y-11639162D01*
X14292737Y-11639162D01*
X14299994Y-11644000D01*
X14303623Y-11648838D01*
X14307251Y-11658514D01*
X14307251Y-11682704D01*
X14303623Y-11692381D01*
X14299994Y-11697219D01*
X14292737Y-11702057D01*
X14270966Y-11702057D01*
X14263708Y-11697219D01*
X14260080Y-11692381D01*
X14189323Y-11776745D02*
X14182066Y-11771907D01*
X14171180Y-11771907D01*
X14160294Y-11776745D01*
X14153037Y-11786421D01*
X14149408Y-11796097D01*
X14145780Y-11815450D01*
X14145780Y-11829964D01*
X14149408Y-11849316D01*
X14153037Y-11858993D01*
X14160294Y-11868669D01*
X14171180Y-11873507D01*
X14178437Y-11873507D01*
X14189323Y-11868669D01*
X14192951Y-11863831D01*
X14192951Y-11829964D01*
X14178437Y-11829964D01*
X14225608Y-11873507D02*
X14225608Y-11771907D01*
X14269151Y-11873507D01*
X14269151Y-11771907D01*
X14305437Y-11873507D02*
X14305437Y-11771907D01*
X14323580Y-11771907D01*
X14334466Y-11776745D01*
X14341723Y-11786421D01*
X14345351Y-11796097D01*
X14348980Y-11815450D01*
X14348980Y-11829964D01*
X14345351Y-11849316D01*
X14341723Y-11858993D01*
X14334466Y-11868669D01*
X14323580Y-11873507D01*
X14305437Y-11873507D01*
X14408851Y-10286642D02*
X14408851Y-10185042D01*
X14437880Y-10185042D01*
X14445137Y-10189880D01*
X14448766Y-10194718D01*
X14452394Y-10204394D01*
X14452394Y-10218909D01*
X14448766Y-10228585D01*
X14445137Y-10233423D01*
X14437880Y-10238261D01*
X14408851Y-10238261D01*
X14477794Y-10185042D02*
X14524966Y-10185042D01*
X14499566Y-10223747D01*
X14510451Y-10223747D01*
X14517708Y-10228585D01*
X14521337Y-10233423D01*
X14524966Y-10243099D01*
X14524966Y-10267290D01*
X14521337Y-10276966D01*
X14517708Y-10281804D01*
X14510451Y-10286642D01*
X14488680Y-10286642D01*
X14481423Y-10281804D01*
X14477794Y-10276966D01*
X14572137Y-10185042D02*
X14579394Y-10185042D01*
X14586651Y-10189880D01*
X14590280Y-10194718D01*
X14593908Y-10204394D01*
X14597537Y-10223747D01*
X14597537Y-10247937D01*
X14593908Y-10267290D01*
X14590280Y-10276966D01*
X14586651Y-10281804D01*
X14579394Y-10286642D01*
X14572137Y-10286642D01*
X14564880Y-10281804D01*
X14561251Y-10276966D01*
X14557623Y-10267290D01*
X14553994Y-10247937D01*
X14553994Y-10223747D01*
X14557623Y-10204394D01*
X14561251Y-10194718D01*
X14564880Y-10189880D01*
X14572137Y-10185042D01*
X14771708Y-10233423D02*
X14782594Y-10238261D01*
X14786223Y-10243099D01*
X14789851Y-10252775D01*
X14789851Y-10267290D01*
X14786223Y-10276966D01*
X14782594Y-10281804D01*
X14775337Y-10286642D01*
X14746308Y-10286642D01*
X14746308Y-10185042D01*
X14771708Y-10185042D01*
X14778966Y-10189880D01*
X14782594Y-10194718D01*
X14786223Y-10204394D01*
X14786223Y-10214070D01*
X14782594Y-10223747D01*
X14778966Y-10228585D01*
X14771708Y-10233423D01*
X14746308Y-10233423D01*
X14818880Y-10257613D02*
X14855166Y-10257613D01*
X14811623Y-10286642D02*
X14837023Y-10185042D01*
X14862423Y-10286642D01*
X14887823Y-10286642D02*
X14887823Y-10185042D01*
X14931366Y-10286642D01*
X14931366Y-10185042D01*
X14967651Y-10286642D02*
X14967651Y-10185042D01*
X15011194Y-10286642D02*
X14978537Y-10228585D01*
X15011194Y-10185042D02*
X14967651Y-10243099D01*
X15040223Y-10194718D02*
X15043851Y-10189880D01*
X15051108Y-10185042D01*
X15069251Y-10185042D01*
X15076508Y-10189880D01*
X15080137Y-10194718D01*
X15083766Y-10204394D01*
X15083766Y-10214070D01*
X15080137Y-10228585D01*
X15036594Y-10286642D01*
X15083766Y-10286642D01*
X15098280Y-10296318D02*
X15156337Y-10296318D01*
X15170851Y-10257613D02*
X15207137Y-10257613D01*
X15163594Y-10286642D02*
X15188994Y-10185042D01*
X15214394Y-10286642D01*
X15239794Y-10185042D02*
X15239794Y-10267290D01*
X15243423Y-10276966D01*
X15247051Y-10281804D01*
X15254308Y-10286642D01*
X15268823Y-10286642D01*
X15276080Y-10281804D01*
X15279708Y-10276966D01*
X15283337Y-10267290D01*
X15283337Y-10185042D01*
X15312366Y-10185042D02*
X15363166Y-10286642D01*
X15363166Y-10185042D02*
X15312366Y-10286642D01*
X7967411Y-12535177D02*
X7967411Y-12433577D01*
X7996440Y-12433577D01*
X8003697Y-12438415D01*
X8007326Y-12443253D01*
X8010954Y-12452929D01*
X8010954Y-12467443D01*
X8007326Y-12477120D01*
X8003697Y-12481958D01*
X7996440Y-12486796D01*
X7967411Y-12486796D01*
X8036354Y-12433577D02*
X8083526Y-12433577D01*
X8058126Y-12472282D01*
X8069011Y-12472282D01*
X8076268Y-12477120D01*
X8079897Y-12481958D01*
X8083526Y-12491634D01*
X8083526Y-12515824D01*
X8079897Y-12525501D01*
X8076268Y-12530339D01*
X8069011Y-12535177D01*
X8047240Y-12535177D01*
X8039983Y-12530339D01*
X8036354Y-12525501D01*
X8148840Y-12433577D02*
X8134326Y-12433577D01*
X8127068Y-12438415D01*
X8123440Y-12443253D01*
X8116183Y-12457767D01*
X8112554Y-12477120D01*
X8112554Y-12515824D01*
X8116183Y-12525501D01*
X8119811Y-12530339D01*
X8127068Y-12535177D01*
X8141583Y-12535177D01*
X8148840Y-12530339D01*
X8152468Y-12525501D01*
X8156097Y-12515824D01*
X8156097Y-12491634D01*
X8152468Y-12481958D01*
X8148840Y-12477120D01*
X8141583Y-12472282D01*
X8127068Y-12472282D01*
X8119811Y-12477120D01*
X8116183Y-12481958D01*
X8112554Y-12491634D01*
X7969226Y-12605027D02*
X7994626Y-12706627D01*
X8020026Y-12605027D01*
X8041797Y-12677598D02*
X8078083Y-12677598D01*
X8034540Y-12706627D02*
X8059940Y-12605027D01*
X8085340Y-12706627D01*
X8107111Y-12677598D02*
X8143397Y-12677598D01*
X8099854Y-12706627D02*
X8125254Y-12605027D01*
X8150654Y-12706627D01*
X17585817Y-13835143D02*
X17484217Y-13835143D01*
X17484217Y-13806114D01*
X17489055Y-13798857D01*
X17493893Y-13795228D01*
X17503569Y-13791600D01*
X17518084Y-13791600D01*
X17527760Y-13795228D01*
X17532598Y-13798857D01*
X17537436Y-13806114D01*
X17537436Y-13835143D01*
X17493893Y-13762571D02*
X17489055Y-13758943D01*
X17484217Y-13751686D01*
X17484217Y-13733543D01*
X17489055Y-13726286D01*
X17493893Y-13722657D01*
X17503569Y-13719028D01*
X17513245Y-13719028D01*
X17527760Y-13722657D01*
X17585817Y-13766200D01*
X17585817Y-13719028D01*
X17747591Y-13933114D02*
X17752429Y-13936743D01*
X17757267Y-13947628D01*
X17757267Y-13954886D01*
X17752429Y-13965771D01*
X17742753Y-13973028D01*
X17733076Y-13976657D01*
X17713724Y-13980286D01*
X17699210Y-13980286D01*
X17679857Y-13976657D01*
X17670181Y-13973028D01*
X17660505Y-13965771D01*
X17655667Y-13954886D01*
X17655667Y-13947628D01*
X17660505Y-13936743D01*
X17665343Y-13933114D01*
X17757267Y-13864171D02*
X17757267Y-13900457D01*
X17655667Y-13900457D01*
X17757267Y-13838771D02*
X17655667Y-13838771D01*
X17757267Y-13795228D02*
X17699210Y-13827886D01*
X17655667Y-13795228D02*
X17713724Y-13838771D01*
X17655667Y-13748057D02*
X17655667Y-13733543D01*
X17660505Y-13726286D01*
X17670181Y-13719028D01*
X17689534Y-13715400D01*
X17723400Y-13715400D01*
X17742753Y-13719028D01*
X17752429Y-13726286D01*
X17757267Y-13733543D01*
X17757267Y-13748057D01*
X17752429Y-13755314D01*
X17742753Y-13762571D01*
X17723400Y-13766200D01*
X17689534Y-13766200D01*
X17670181Y-13762571D01*
X17660505Y-13755314D01*
X17655667Y-13748057D01*
X17655667Y-13682743D02*
X17737915Y-13682743D01*
X17747591Y-13679114D01*
X17752429Y-13675486D01*
X17757267Y-13668228D01*
X17757267Y-13653714D01*
X17752429Y-13646457D01*
X17747591Y-13642828D01*
X17737915Y-13639200D01*
X17655667Y-13639200D01*
X17655667Y-13613800D02*
X17655667Y-13570257D01*
X17757267Y-13592028D02*
X17655667Y-13592028D01*
X12981371Y-13083182D02*
X12981371Y-12981582D01*
X13010400Y-12981582D01*
X13017657Y-12986420D01*
X13021286Y-12991258D01*
X13024914Y-13000934D01*
X13024914Y-13015448D01*
X13021286Y-13025125D01*
X13017657Y-13029963D01*
X13010400Y-13034801D01*
X12981371Y-13034801D01*
X13053943Y-12991258D02*
X13057571Y-12986420D01*
X13064828Y-12981582D01*
X13082971Y-12981582D01*
X13090228Y-12986420D01*
X13093857Y-12991258D01*
X13097486Y-13000934D01*
X13097486Y-13010610D01*
X13093857Y-13025125D01*
X13050314Y-13083182D01*
X13097486Y-13083182D01*
X13133771Y-13083182D02*
X13148286Y-13083182D01*
X13155543Y-13078344D01*
X13159171Y-13073506D01*
X13166428Y-13058991D01*
X13170057Y-13039639D01*
X13170057Y-13000934D01*
X13166428Y-12991258D01*
X13162800Y-12986420D01*
X13155543Y-12981582D01*
X13141028Y-12981582D01*
X13133771Y-12986420D01*
X13130143Y-12991258D01*
X13126514Y-13000934D01*
X13126514Y-13025125D01*
X13130143Y-13034801D01*
X13133771Y-13039639D01*
X13141028Y-13044477D01*
X13155543Y-13044477D01*
X13162800Y-13039639D01*
X13166428Y-13034801D01*
X13170057Y-13025125D01*
X17593437Y-15720548D02*
X17491837Y-15720548D01*
X17491837Y-15691520D01*
X17496675Y-15684263D01*
X17501513Y-15680634D01*
X17511189Y-15677006D01*
X17525704Y-15677006D01*
X17535380Y-15680634D01*
X17540218Y-15684263D01*
X17545056Y-15691520D01*
X17545056Y-15720548D01*
X17593437Y-15604434D02*
X17593437Y-15647977D01*
X17593437Y-15626206D02*
X17491837Y-15626206D01*
X17506351Y-15633463D01*
X17516027Y-15640720D01*
X17520865Y-15647977D01*
X17491837Y-15539120D02*
X17491837Y-15553634D01*
X17496675Y-15560891D01*
X17501513Y-15564520D01*
X17516027Y-15571777D01*
X17535380Y-15575406D01*
X17574085Y-15575406D01*
X17583761Y-15571777D01*
X17588599Y-15568148D01*
X17593437Y-15560891D01*
X17593437Y-15546377D01*
X17588599Y-15539120D01*
X17583761Y-15535491D01*
X17574085Y-15531863D01*
X17549894Y-15531863D01*
X17540218Y-15535491D01*
X17535380Y-15539120D01*
X17530542Y-15546377D01*
X17530542Y-15560891D01*
X17535380Y-15568148D01*
X17540218Y-15571777D01*
X17549894Y-15575406D01*
X17755211Y-15731434D02*
X17760049Y-15735063D01*
X17764887Y-15745948D01*
X17764887Y-15753206D01*
X17760049Y-15764091D01*
X17750373Y-15771348D01*
X17740696Y-15774977D01*
X17721344Y-15778606D01*
X17706830Y-15778606D01*
X17687477Y-15774977D01*
X17677801Y-15771348D01*
X17668125Y-15764091D01*
X17663287Y-15753206D01*
X17663287Y-15745948D01*
X17668125Y-15735063D01*
X17672963Y-15731434D01*
X17764887Y-15662491D02*
X17764887Y-15698777D01*
X17663287Y-15698777D01*
X17764887Y-15637091D02*
X17663287Y-15637091D01*
X17764887Y-15593548D02*
X17706830Y-15626206D01*
X17663287Y-15593548D02*
X17721344Y-15637091D01*
X17764887Y-15560891D02*
X17663287Y-15560891D01*
X17764887Y-15524606D02*
X17663287Y-15524606D01*
X17764887Y-15481063D01*
X17663287Y-15481063D01*
X6196457Y-15394703D02*
X6094857Y-15394703D01*
X6094857Y-15365674D01*
X6099695Y-15358417D01*
X6104533Y-15354788D01*
X6114209Y-15351160D01*
X6128723Y-15351160D01*
X6138400Y-15354788D01*
X6143238Y-15358417D01*
X6148076Y-15365674D01*
X6148076Y-15394703D01*
X6128723Y-15285846D02*
X6196457Y-15285846D01*
X6090019Y-15303988D02*
X6162590Y-15322131D01*
X6162590Y-15274960D01*
X6338878Y-15572503D02*
X6338878Y-15536217D01*
X6367907Y-15579760D02*
X6266307Y-15554360D01*
X6367907Y-15528960D01*
X6367907Y-15503560D02*
X6266307Y-15503560D01*
X6367907Y-15460017D01*
X6266307Y-15460017D01*
X6266307Y-15434617D02*
X6266307Y-15391074D01*
X6367907Y-15412846D02*
X6266307Y-15412846D01*
X6314688Y-15365674D02*
X6314688Y-15340274D01*
X6367907Y-15329388D02*
X6367907Y-15365674D01*
X6266307Y-15365674D01*
X6266307Y-15329388D01*
X6367907Y-15296731D02*
X6266307Y-15296731D01*
X6367907Y-15253188D01*
X6266307Y-15253188D01*
X6367907Y-15216903D02*
X6266307Y-15216903D01*
X6367907Y-15173360D01*
X6266307Y-15173360D01*
X6338878Y-15140703D02*
X6338878Y-15104417D01*
X6367907Y-15147960D02*
X6266307Y-15122560D01*
X6367907Y-15097160D01*
D11*
X13459375Y-17201973D02*
X13459375Y-17024173D01*
X13513804Y-17201973D02*
X13513804Y-17108840D01*
X13507756Y-17091907D01*
X13495661Y-17083440D01*
X13477518Y-17083440D01*
X13465423Y-17091907D01*
X13459375Y-17100373D01*
X13556137Y-17083440D02*
X13604518Y-17083440D01*
X13574280Y-17024173D02*
X13574280Y-17176573D01*
X13580328Y-17193507D01*
X13592423Y-17201973D01*
X13604518Y-17201973D01*
X13628708Y-17083440D02*
X13677089Y-17083440D01*
X13646851Y-17024173D02*
X13646851Y-17176573D01*
X13652899Y-17193507D01*
X13664994Y-17201973D01*
X13677089Y-17201973D01*
X13719423Y-17083440D02*
X13719423Y-17261240D01*
X13719423Y-17091907D02*
X13731518Y-17083440D01*
X13755708Y-17083440D01*
X13767804Y-17091907D01*
X13773851Y-17100373D01*
X13779899Y-17117307D01*
X13779899Y-17168107D01*
X13773851Y-17185040D01*
X13767804Y-17193507D01*
X13755708Y-17201973D01*
X13731518Y-17201973D01*
X13719423Y-17193507D01*
X13834328Y-17185040D02*
X13840375Y-17193507D01*
X13834328Y-17201973D01*
X13828280Y-17193507D01*
X13834328Y-17185040D01*
X13834328Y-17201973D01*
X13834328Y-17091907D02*
X13840375Y-17100373D01*
X13834328Y-17108840D01*
X13828280Y-17100373D01*
X13834328Y-17091907D01*
X13834328Y-17108840D01*
X13985518Y-17015707D02*
X13876661Y-17244307D01*
X14118566Y-17015707D02*
X14009708Y-17244307D01*
X14215328Y-17083440D02*
X14215328Y-17227373D01*
X14209280Y-17244307D01*
X14203232Y-17252773D01*
X14191137Y-17261240D01*
X14172994Y-17261240D01*
X14160899Y-17252773D01*
X14215328Y-17193507D02*
X14203232Y-17201973D01*
X14179042Y-17201973D01*
X14166947Y-17193507D01*
X14160899Y-17185040D01*
X14154851Y-17168107D01*
X14154851Y-17117307D01*
X14160899Y-17100373D01*
X14166947Y-17091907D01*
X14179042Y-17083440D01*
X14203232Y-17083440D01*
X14215328Y-17091907D01*
X14275804Y-17201973D02*
X14275804Y-17083440D01*
X14275804Y-17117307D02*
X14281851Y-17100373D01*
X14287899Y-17091907D01*
X14299994Y-17083440D01*
X14312089Y-17083440D01*
X14402804Y-17193507D02*
X14390708Y-17201973D01*
X14366518Y-17201973D01*
X14354423Y-17193507D01*
X14348375Y-17176573D01*
X14348375Y-17108840D01*
X14354423Y-17091907D01*
X14366518Y-17083440D01*
X14390708Y-17083440D01*
X14402804Y-17091907D01*
X14408851Y-17108840D01*
X14408851Y-17125773D01*
X14348375Y-17142707D01*
X14517708Y-17201973D02*
X14517708Y-17108840D01*
X14511661Y-17091907D01*
X14499566Y-17083440D01*
X14475375Y-17083440D01*
X14463280Y-17091907D01*
X14517708Y-17193507D02*
X14505613Y-17201973D01*
X14475375Y-17201973D01*
X14463280Y-17193507D01*
X14457232Y-17176573D01*
X14457232Y-17159640D01*
X14463280Y-17142707D01*
X14475375Y-17134240D01*
X14505613Y-17134240D01*
X14517708Y-17125773D01*
X14560042Y-17083440D02*
X14608423Y-17083440D01*
X14578185Y-17024173D02*
X14578185Y-17176573D01*
X14584232Y-17193507D01*
X14596328Y-17201973D01*
X14608423Y-17201973D01*
X14644708Y-17193507D02*
X14656804Y-17201973D01*
X14680994Y-17201973D01*
X14693089Y-17193507D01*
X14699137Y-17176573D01*
X14699137Y-17168107D01*
X14693089Y-17151173D01*
X14680994Y-17142707D01*
X14662851Y-17142707D01*
X14650756Y-17134240D01*
X14644708Y-17117307D01*
X14644708Y-17108840D01*
X14650756Y-17091907D01*
X14662851Y-17083440D01*
X14680994Y-17083440D01*
X14693089Y-17091907D01*
X14807994Y-17193507D02*
X14795899Y-17201973D01*
X14771708Y-17201973D01*
X14759613Y-17193507D01*
X14753566Y-17185040D01*
X14747518Y-17168107D01*
X14747518Y-17117307D01*
X14753566Y-17100373D01*
X14759613Y-17091907D01*
X14771708Y-17083440D01*
X14795899Y-17083440D01*
X14807994Y-17091907D01*
X14880566Y-17201973D02*
X14868470Y-17193507D01*
X14862423Y-17185040D01*
X14856375Y-17168107D01*
X14856375Y-17117307D01*
X14862423Y-17100373D01*
X14868470Y-17091907D01*
X14880566Y-17083440D01*
X14898708Y-17083440D01*
X14910804Y-17091907D01*
X14916851Y-17100373D01*
X14922899Y-17117307D01*
X14922899Y-17168107D01*
X14916851Y-17185040D01*
X14910804Y-17193507D01*
X14898708Y-17201973D01*
X14880566Y-17201973D01*
X14959185Y-17083440D02*
X15007566Y-17083440D01*
X14977328Y-17024173D02*
X14977328Y-17176573D01*
X14983375Y-17193507D01*
X14995470Y-17201973D01*
X15007566Y-17201973D01*
X15031756Y-17083440D02*
X15080137Y-17083440D01*
X15049899Y-17024173D02*
X15049899Y-17176573D01*
X15055947Y-17193507D01*
X15068042Y-17201973D01*
X15080137Y-17201973D01*
X15176899Y-17083440D02*
X15176899Y-17227373D01*
X15170851Y-17244307D01*
X15164804Y-17252773D01*
X15152708Y-17261240D01*
X15134566Y-17261240D01*
X15122470Y-17252773D01*
X15176899Y-17193507D02*
X15164804Y-17201973D01*
X15140613Y-17201973D01*
X15128518Y-17193507D01*
X15122470Y-17185040D01*
X15116423Y-17168107D01*
X15116423Y-17117307D01*
X15122470Y-17100373D01*
X15128518Y-17091907D01*
X15140613Y-17083440D01*
X15164804Y-17083440D01*
X15176899Y-17091907D01*
X15291804Y-17201973D02*
X15291804Y-17108840D01*
X15285756Y-17091907D01*
X15273661Y-17083440D01*
X15249470Y-17083440D01*
X15237375Y-17091907D01*
X15291804Y-17193507D02*
X15279708Y-17201973D01*
X15249470Y-17201973D01*
X15237375Y-17193507D01*
X15231328Y-17176573D01*
X15231328Y-17159640D01*
X15237375Y-17142707D01*
X15249470Y-17134240D01*
X15279708Y-17134240D01*
X15291804Y-17125773D01*
X15406708Y-17201973D02*
X15406708Y-17024173D01*
X15406708Y-17193507D02*
X15394613Y-17201973D01*
X15370423Y-17201973D01*
X15358328Y-17193507D01*
X15352280Y-17185040D01*
X15346232Y-17168107D01*
X15346232Y-17117307D01*
X15352280Y-17100373D01*
X15358328Y-17091907D01*
X15370423Y-17083440D01*
X15394613Y-17083440D01*
X15406708Y-17091907D01*
X15521613Y-17083440D02*
X15521613Y-17227373D01*
X15515566Y-17244307D01*
X15509518Y-17252773D01*
X15497423Y-17261240D01*
X15479280Y-17261240D01*
X15467185Y-17252773D01*
X15521613Y-17193507D02*
X15509518Y-17201973D01*
X15485328Y-17201973D01*
X15473232Y-17193507D01*
X15467185Y-17185040D01*
X15461137Y-17168107D01*
X15461137Y-17117307D01*
X15467185Y-17100373D01*
X15473232Y-17091907D01*
X15485328Y-17083440D01*
X15509518Y-17083440D01*
X15521613Y-17091907D01*
X15630470Y-17193507D02*
X15618375Y-17201973D01*
X15594185Y-17201973D01*
X15582089Y-17193507D01*
X15576042Y-17176573D01*
X15576042Y-17108840D01*
X15582089Y-17091907D01*
X15594185Y-17083440D01*
X15618375Y-17083440D01*
X15630470Y-17091907D01*
X15636518Y-17108840D01*
X15636518Y-17125773D01*
X15576042Y-17142707D01*
X15672804Y-17083440D02*
X15721185Y-17083440D01*
X15690947Y-17024173D02*
X15690947Y-17176573D01*
X15696994Y-17193507D01*
X15709089Y-17201973D01*
X15721185Y-17201973D01*
X15757470Y-17193507D02*
X15769566Y-17201973D01*
X15793756Y-17201973D01*
X15805851Y-17193507D01*
X15811899Y-17176573D01*
X15811899Y-17168107D01*
X15805851Y-17151173D01*
X15793756Y-17142707D01*
X15775613Y-17142707D01*
X15763518Y-17134240D01*
X15757470Y-17117307D01*
X15757470Y-17108840D01*
X15763518Y-17091907D01*
X15775613Y-17083440D01*
X15793756Y-17083440D01*
X15805851Y-17091907D01*
X15866328Y-17185040D02*
X15872375Y-17193507D01*
X15866328Y-17201973D01*
X15860280Y-17193507D01*
X15866328Y-17185040D01*
X15866328Y-17201973D01*
X15981232Y-17193507D02*
X15969137Y-17201973D01*
X15944947Y-17201973D01*
X15932851Y-17193507D01*
X15926804Y-17185040D01*
X15920756Y-17168107D01*
X15920756Y-17117307D01*
X15926804Y-17100373D01*
X15932851Y-17091907D01*
X15944947Y-17083440D01*
X15969137Y-17083440D01*
X15981232Y-17091907D01*
X16053804Y-17201973D02*
X16041708Y-17193507D01*
X16035661Y-17185040D01*
X16029613Y-17168107D01*
X16029613Y-17117307D01*
X16035661Y-17100373D01*
X16041708Y-17091907D01*
X16053804Y-17083440D01*
X16071947Y-17083440D01*
X16084042Y-17091907D01*
X16090089Y-17100373D01*
X16096137Y-17117307D01*
X16096137Y-17168107D01*
X16090089Y-17185040D01*
X16084042Y-17193507D01*
X16071947Y-17201973D01*
X16053804Y-17201973D01*
X16150566Y-17201973D02*
X16150566Y-17083440D01*
X16150566Y-17100373D02*
X16156613Y-17091907D01*
X16168708Y-17083440D01*
X16186851Y-17083440D01*
X16198947Y-17091907D01*
X16204994Y-17108840D01*
X16204994Y-17201973D01*
X16204994Y-17108840D02*
X16211042Y-17091907D01*
X16223137Y-17083440D01*
X16241280Y-17083440D01*
X16253375Y-17091907D01*
X16259423Y-17108840D01*
X16259423Y-17201973D01*
X16410613Y-17015707D02*
X16301756Y-17244307D01*
X16452947Y-17201973D02*
X16452947Y-17024173D01*
X16507375Y-17201973D02*
X16507375Y-17108840D01*
X16501328Y-17091907D01*
X16489232Y-17083440D01*
X16471089Y-17083440D01*
X16458994Y-17091907D01*
X16452947Y-17100373D01*
X16622280Y-17201973D02*
X16622280Y-17108840D01*
X16616232Y-17091907D01*
X16604137Y-17083440D01*
X16579947Y-17083440D01*
X16567851Y-17091907D01*
X16622280Y-17193507D02*
X16610185Y-17201973D01*
X16579947Y-17201973D01*
X16567851Y-17193507D01*
X16561804Y-17176573D01*
X16561804Y-17159640D01*
X16567851Y-17142707D01*
X16579947Y-17134240D01*
X16610185Y-17134240D01*
X16622280Y-17125773D01*
X16737185Y-17193507D02*
X16725089Y-17201973D01*
X16700899Y-17201973D01*
X16688804Y-17193507D01*
X16682756Y-17185040D01*
X16676708Y-17168107D01*
X16676708Y-17117307D01*
X16682756Y-17100373D01*
X16688804Y-17091907D01*
X16700899Y-17083440D01*
X16725089Y-17083440D01*
X16737185Y-17091907D01*
X16791613Y-17201973D02*
X16791613Y-17024173D01*
X16803709Y-17134240D02*
X16839994Y-17201973D01*
X16839994Y-17083440D02*
X16791613Y-17151173D01*
X16894423Y-17201973D02*
X16894423Y-17083440D01*
X16894423Y-17117307D02*
X16900470Y-17100373D01*
X16906518Y-17091907D01*
X16918613Y-17083440D01*
X16930709Y-17083440D01*
X16954899Y-17083440D02*
X17003280Y-17083440D01*
X16973042Y-17201973D02*
X16973042Y-17049573D01*
X16979090Y-17032640D01*
X16991185Y-17024173D01*
X17003280Y-17024173D01*
X17136328Y-17015707D02*
X17027470Y-17244307D01*
D15*
G04 #@! TO.C,D3*
X17137312Y-16016506D02*
X17137312Y-16109506D01*
X17137312Y-16332506D02*
X17137312Y-16239506D01*
X17137312Y-16332506D02*
X17353312Y-16332506D01*
X17137312Y-16016506D02*
X17283312Y-16016506D01*
G04 #@! TO.C,D1*
X17064922Y-16559304D02*
X17064922Y-16652304D01*
X17064922Y-16875304D02*
X17064922Y-16782304D01*
X17064922Y-16875304D02*
X17280922Y-16875304D01*
X17064922Y-16559304D02*
X17210922Y-16559304D01*
D16*
G04 #@! TO.C,U5*
X7688605Y-14101104D02*
G75*
G03*
X7688605Y-14101104I-14009J0D01*
G01*
X7784578Y-13991122D02*
X7784578Y-14091198D01*
X7784578Y-14091198D02*
X7684502Y-14091198D01*
X7684502Y-14091198D02*
X7684502Y-13991122D01*
X7684502Y-13991122D02*
X7784578Y-13991122D01*
G04 #@! TO.C,U6*
X8527313Y-13983756D02*
G75*
G03*
X8527313Y-13983756I-14009J0D01*
G01*
X8403322Y-14093738D02*
X8403322Y-13993662D01*
X8403322Y-13993662D02*
X8503398Y-13993662D01*
X8503398Y-13993662D02*
X8503398Y-14093738D01*
X8503398Y-14093738D02*
X8403322Y-14093738D01*
G04 #@! TO.C,U1*
X10620273Y-16645676D02*
G75*
G03*
X10620273Y-16645676I-14009J0D01*
G01*
X10496282Y-16755658D02*
X10496282Y-16655582D01*
X10496282Y-16655582D02*
X10596358Y-16655582D01*
X10596358Y-16655582D02*
X10596358Y-16755658D01*
X10596358Y-16755658D02*
X10496282Y-16755658D01*
G04 #@! TO.C,U2*
X8948445Y-14420636D02*
G75*
G03*
X8948445Y-14420636I-14009J0D01*
G01*
X9044418Y-14530618D02*
X8944342Y-14530618D01*
X8944342Y-14530618D02*
X8944342Y-14430542D01*
X8944342Y-14430542D02*
X9044418Y-14430542D01*
X9044418Y-14430542D02*
X9044418Y-14530618D01*
G04 #@! TO.C,U7*
X9852685Y-16564396D02*
G75*
G03*
X9852685Y-16564396I-14009J0D01*
G01*
X9948658Y-16674378D02*
X9848582Y-16674378D01*
X9848582Y-16674378D02*
X9848582Y-16574302D01*
X9848582Y-16574302D02*
X9948658Y-16574302D01*
X9948658Y-16574302D02*
X9948658Y-16674378D01*
G04 #@! TO.C,U10*
X10548645Y-15876564D02*
G75*
G03*
X10548645Y-15876564I-14009J0D01*
G01*
X10644618Y-15766582D02*
X10644618Y-15866658D01*
X10644618Y-15866658D02*
X10544542Y-15866658D01*
X10544542Y-15866658D02*
X10544542Y-15766582D01*
X10544542Y-15766582D02*
X10644618Y-15766582D01*
G04 #@! TO.C,U11*
X10916945Y-15566176D02*
G75*
G03*
X10916945Y-15566176I-14009J0D01*
G01*
X11012918Y-15676158D02*
X10912842Y-15676158D01*
X10912842Y-15676158D02*
X10912842Y-15576082D01*
X10912842Y-15576082D02*
X11012918Y-15576082D01*
X11012918Y-15576082D02*
X11012918Y-15676158D01*
D10*
G04 #@! TO.C,MARK1MM*
X11773280Y-12527320D02*
G75*
G03*
X11773280Y-12527320I-150000J0D01*
G01*
X8730360Y-16723400D02*
G75*
G03*
X8730360Y-16723400I-150000J0D01*
G01*
G04 #@! TO.C,C63*
X7902180Y-16248420D02*
X7902180Y-16426220D01*
X7825980Y-16248420D02*
X7902180Y-16248420D01*
X7825980Y-16426220D02*
X7825980Y-16248420D01*
X7902180Y-16426220D02*
X7825980Y-16426220D01*
D17*
G04 #@! TO.C,U14*
X7601260Y-15986760D02*
X7601260Y-15836760D01*
X7481260Y-15836760D02*
X7491260Y-15836760D01*
X7521260Y-15836760D02*
X7531260Y-15836760D01*
X7561260Y-15836760D02*
X7571260Y-15836760D01*
X7571260Y-15986760D02*
X7561260Y-15986760D01*
X7531260Y-15986760D02*
X7521260Y-15986760D01*
X7491260Y-15986760D02*
X7481260Y-15986760D01*
X7445402Y-15986760D02*
G75*
G03*
X7445402Y-15986760I-14142J0D01*
G01*
X7451260Y-15836760D02*
X7451260Y-15961760D01*
D10*
G04 #@! TO.C,C61*
X7612620Y-15732800D02*
X7612620Y-15555000D01*
X7688820Y-15732800D02*
X7612620Y-15732800D01*
X7688820Y-15555000D02*
X7688820Y-15732800D01*
X7612620Y-15555000D02*
X7688820Y-15555000D01*
G04 #@! TO.C,U19*
X12946818Y-16492498D02*
X12946818Y-16452620D01*
X12906940Y-16492498D02*
X12946818Y-16492498D01*
X12946818Y-16092702D02*
X12906940Y-16092702D01*
X12946818Y-16132580D02*
X12946818Y-16092702D01*
X12547022Y-16092702D02*
X12547022Y-16132580D01*
X12586900Y-16092702D02*
X12547022Y-16092702D01*
X12547022Y-16452620D02*
X12586900Y-16492498D01*
G04 #@! TO.C,TESTPOINT-30MIL-MASKONLY*
X8981402Y-14249908D02*
G75*
G03*
X8981402Y-14249908I-50000J0D01*
G01*
X8460460Y-15165740D02*
G75*
G03*
X8460460Y-15165740I-50000J0D01*
G01*
X7607516Y-14421358D02*
G75*
G03*
X7607516Y-14421358I-50000J0D01*
G01*
X7455370Y-14615160D02*
G75*
G03*
X7455370Y-14615160I-50000J0D01*
G01*
X9428200Y-13893200D02*
G75*
G03*
X9428200Y-13893200I-50000J0D01*
G01*
X8590000Y-16136020D02*
G75*
G03*
X8590000Y-16136020I-50000J0D01*
G01*
X11441900Y-16174974D02*
G75*
G03*
X11441900Y-16174974I-50000J0D01*
G01*
X10461206Y-16879824D02*
G75*
G03*
X10461206Y-16879824I-50000J0D01*
G01*
X10502594Y-16495308D02*
G75*
G03*
X10502594Y-16495308I-50000J0D01*
G01*
X10151580Y-16626332D02*
G75*
G03*
X10151580Y-16626332I-50000J0D01*
G01*
X7931860Y-14772680D02*
G75*
G03*
X7931860Y-14772680I-50000J0D01*
G01*
X11040820Y-15946160D02*
G75*
G03*
X11040820Y-15946160I-50000J0D01*
G01*
X9986226Y-14768830D02*
G75*
G03*
X9986226Y-14768830I-50000J0D01*
G01*
X10373068Y-15427960D02*
G75*
G03*
X10373068Y-15427960I-50000J0D01*
G01*
X11321504Y-15371064D02*
G75*
G03*
X11321504Y-15371064I-50000J0D01*
G01*
G04 #@! TO.C,MARK1MM*
X17250000Y-10200000D02*
G75*
G03*
X17250000Y-10200000I-150000J0D01*
G01*
G04 #@! TO.C,D7*
X6000000Y-11720000D02*
X6030000Y-11690000D01*
X6000000Y-11860000D02*
X6030000Y-11890000D01*
X6000000Y-11720000D02*
X6000000Y-11860000D01*
X6140000Y-11770000D02*
X6060000Y-11770000D01*
X6060000Y-11770000D02*
X6100000Y-11810000D01*
X6100000Y-11810000D02*
X6140000Y-11770000D01*
X6170000Y-11570000D02*
X6030000Y-11570000D01*
X6030000Y-11570000D02*
X6030000Y-12010000D01*
X6030000Y-12010000D02*
X6170000Y-12010000D01*
X6170000Y-12010000D02*
X6170000Y-11570000D01*
G04 #@! TO.C,D8*
X6027000Y-12985000D02*
X6057000Y-12955000D01*
X6027000Y-13125000D02*
X6057000Y-13155000D01*
X6027000Y-12985000D02*
X6027000Y-13125000D01*
X6167000Y-13035000D02*
X6087000Y-13035000D01*
X6087000Y-13035000D02*
X6127000Y-13075000D01*
X6127000Y-13075000D02*
X6167000Y-13035000D01*
X6197000Y-12835000D02*
X6057000Y-12835000D01*
X6057000Y-12835000D02*
X6057000Y-13275000D01*
X6057000Y-13275000D02*
X6197000Y-13275000D01*
X6197000Y-13275000D02*
X6197000Y-12835000D01*
G04 #@! TO.C,D2*
X6027000Y-13442200D02*
X6057000Y-13412200D01*
X6027000Y-13582200D02*
X6057000Y-13612200D01*
X6027000Y-13442200D02*
X6027000Y-13582200D01*
X6167000Y-13492200D02*
X6087000Y-13492200D01*
X6087000Y-13492200D02*
X6127000Y-13532200D01*
X6127000Y-13532200D02*
X6167000Y-13492200D01*
X6197000Y-13292200D02*
X6057000Y-13292200D01*
X6057000Y-13292200D02*
X6057000Y-13732200D01*
X6057000Y-13732200D02*
X6197000Y-13732200D01*
X6197000Y-13732200D02*
X6197000Y-13292200D01*
G04 #@! TO.C,D4*
X6027000Y-13899400D02*
X6057000Y-13869400D01*
X6027000Y-14039400D02*
X6057000Y-14069400D01*
X6027000Y-13899400D02*
X6027000Y-14039400D01*
X6167000Y-13949400D02*
X6087000Y-13949400D01*
X6087000Y-13949400D02*
X6127000Y-13989400D01*
X6127000Y-13989400D02*
X6167000Y-13949400D01*
X6197000Y-13749400D02*
X6057000Y-13749400D01*
X6057000Y-13749400D02*
X6057000Y-14189400D01*
X6057000Y-14189400D02*
X6197000Y-14189400D01*
X6197000Y-14189400D02*
X6197000Y-13749400D01*
G04 #@! TO.C,D5*
X6027000Y-14356600D02*
X6057000Y-14326600D01*
X6027000Y-14496600D02*
X6057000Y-14526600D01*
X6027000Y-14356600D02*
X6027000Y-14496600D01*
X6167000Y-14406600D02*
X6087000Y-14406600D01*
X6087000Y-14406600D02*
X6127000Y-14446600D01*
X6127000Y-14446600D02*
X6167000Y-14406600D01*
X6197000Y-14206600D02*
X6057000Y-14206600D01*
X6057000Y-14206600D02*
X6057000Y-14646600D01*
X6057000Y-14646600D02*
X6197000Y-14646600D01*
X6197000Y-14646600D02*
X6197000Y-14206600D01*
G04 #@! TO.C,D6*
X6027000Y-14813800D02*
X6057000Y-14783800D01*
X6027000Y-14953800D02*
X6057000Y-14983800D01*
X6027000Y-14813800D02*
X6027000Y-14953800D01*
X6167000Y-14863800D02*
X6087000Y-14863800D01*
X6087000Y-14863800D02*
X6127000Y-14903800D01*
X6127000Y-14903800D02*
X6167000Y-14863800D01*
X6197000Y-14663800D02*
X6057000Y-14663800D01*
X6057000Y-14663800D02*
X6057000Y-15103800D01*
X6057000Y-15103800D02*
X6197000Y-15103800D01*
X6197000Y-15103800D02*
X6197000Y-14663800D01*
G04 #@! TO.C,C1*
X9147740Y-16215780D02*
X9147740Y-16393580D01*
X9071540Y-16215780D02*
X9147740Y-16215780D01*
X9071540Y-16393580D02*
X9071540Y-16215780D01*
X9147740Y-16393580D02*
X9071540Y-16393580D01*
G04 #@! TO.C,C2*
X9046140Y-16215780D02*
X9046140Y-16393580D01*
X8969940Y-16215780D02*
X9046140Y-16215780D01*
X8969940Y-16393580D02*
X8969940Y-16215780D01*
X9046140Y-16393580D02*
X8969940Y-16393580D01*
G04 #@! TO.C,C3*
X9350940Y-16215780D02*
X9350940Y-16393580D01*
X9274740Y-16215780D02*
X9350940Y-16215780D01*
X9274740Y-16393580D02*
X9274740Y-16215780D01*
X9350940Y-16393580D02*
X9274740Y-16393580D01*
G04 #@! TO.C,C4*
X9249340Y-16215780D02*
X9249340Y-16393580D01*
X9173140Y-16215780D02*
X9249340Y-16215780D01*
X9173140Y-16393580D02*
X9173140Y-16215780D01*
X9249340Y-16393580D02*
X9173140Y-16393580D01*
G04 #@! TO.C,C5*
X9196000Y-15321700D02*
X9196000Y-15143900D01*
X9272200Y-15321700D02*
X9196000Y-15321700D01*
X9272200Y-15143900D02*
X9272200Y-15321700D01*
X9196000Y-15143900D02*
X9272200Y-15143900D01*
G04 #@! TO.C,C6*
X9297600Y-15321700D02*
X9297600Y-15143900D01*
X9373800Y-15321700D02*
X9297600Y-15321700D01*
X9373800Y-15143900D02*
X9373800Y-15321700D01*
X9297600Y-15143900D02*
X9373800Y-15143900D01*
G04 #@! TO.C,C7*
X10797300Y-16895720D02*
X10619500Y-16895720D01*
X10797300Y-16819520D02*
X10797300Y-16895720D01*
X10619500Y-16819520D02*
X10797300Y-16819520D01*
X10619500Y-16895720D02*
X10619500Y-16819520D01*
G04 #@! TO.C,C8*
X11430000Y-15455900D02*
X11430000Y-15633700D01*
X11353800Y-15455900D02*
X11430000Y-15455900D01*
X11353800Y-15633700D02*
X11353800Y-15455900D01*
X11430000Y-15633700D02*
X11353800Y-15633700D01*
G04 #@! TO.C,C9*
X8501900Y-15005720D02*
X8501900Y-14827920D01*
X8578100Y-15005720D02*
X8501900Y-15005720D01*
X8578100Y-14827920D02*
X8578100Y-15005720D01*
X8501900Y-14827920D02*
X8578100Y-14827920D01*
G04 #@! TO.C,C10*
X8674340Y-14310060D02*
X8852140Y-14310060D01*
X8674340Y-14386260D02*
X8674340Y-14310060D01*
X8852140Y-14386260D02*
X8674340Y-14386260D01*
X8852140Y-14310060D02*
X8852140Y-14386260D01*
G04 #@! TO.C,C12*
X8817540Y-15293760D02*
X8817540Y-15471560D01*
X8741340Y-15293760D02*
X8817540Y-15293760D01*
X8741340Y-15471560D02*
X8741340Y-15293760D01*
X8817540Y-15471560D02*
X8741340Y-15471560D01*
G04 #@! TO.C,C13*
X8944540Y-15128660D02*
X8766740Y-15128660D01*
X8944540Y-15052460D02*
X8944540Y-15128660D01*
X8766740Y-15052460D02*
X8944540Y-15052460D01*
X8766740Y-15128660D02*
X8766740Y-15052460D01*
G04 #@! TO.C,C14*
X8995340Y-15357260D02*
X8995340Y-15179460D01*
X9071540Y-15357260D02*
X8995340Y-15357260D01*
X9071540Y-15179460D02*
X9071540Y-15357260D01*
X8995340Y-15179460D02*
X9071540Y-15179460D01*
G04 #@! TO.C,C15*
X8995340Y-15052460D02*
X9173140Y-15052460D01*
X8995340Y-15128660D02*
X8995340Y-15052460D01*
X9173140Y-15128660D02*
X8995340Y-15128660D01*
X9173140Y-15052460D02*
X9173140Y-15128660D01*
G04 #@! TO.C,C16*
X10647920Y-16527820D02*
X10647920Y-16350020D01*
X10724120Y-16527820D02*
X10647920Y-16527820D01*
X10724120Y-16350020D02*
X10724120Y-16527820D01*
X10647920Y-16350020D02*
X10724120Y-16350020D01*
G04 #@! TO.C,C17*
X8204680Y-14155720D02*
X8382480Y-14155720D01*
X8204680Y-14231920D02*
X8204680Y-14155720D01*
X8382480Y-14231920D02*
X8204680Y-14231920D01*
X8382480Y-14155720D02*
X8382480Y-14231920D01*
G04 #@! TO.C,C18*
X7798280Y-14155720D02*
X7976080Y-14155720D01*
X7798280Y-14231920D02*
X7798280Y-14155720D01*
X7976080Y-14231920D02*
X7798280Y-14231920D01*
X7976080Y-14155720D02*
X7976080Y-14231920D01*
G04 #@! TO.C,C20*
X8671800Y-14114780D02*
X8849600Y-14114780D01*
X8671800Y-14190980D02*
X8671800Y-14114780D01*
X8849600Y-14190980D02*
X8671800Y-14190980D01*
X8849600Y-14114780D02*
X8849600Y-14190980D01*
G04 #@! TO.C,C21*
X10332720Y-16576040D02*
X10154920Y-16576040D01*
X10332720Y-16499840D02*
X10332720Y-16576040D01*
X10154920Y-16499840D02*
X10332720Y-16499840D01*
X10154920Y-16576040D02*
X10154920Y-16499840D01*
G04 #@! TO.C,C22*
X9484600Y-16563380D02*
X9662400Y-16563380D01*
X9484600Y-16639580D02*
X9484600Y-16563380D01*
X9662400Y-16639580D02*
X9484600Y-16639580D01*
X9662400Y-16563380D02*
X9662400Y-16639580D01*
G04 #@! TO.C,C23*
X10088880Y-15206980D02*
X10088880Y-15029180D01*
X10165080Y-15206980D02*
X10088880Y-15206980D01*
X10165080Y-15029180D02*
X10165080Y-15206980D01*
X10088880Y-15029180D02*
X10165080Y-15029180D01*
G04 #@! TO.C,C24*
X9306800Y-14267220D02*
X9306800Y-14445020D01*
X9230600Y-14267220D02*
X9306800Y-14267220D01*
X9230600Y-14445020D02*
X9230600Y-14267220D01*
X9306800Y-14445020D02*
X9230600Y-14445020D01*
G04 #@! TO.C,C25*
X9630340Y-16335160D02*
X9808140Y-16335160D01*
X9630340Y-16411360D02*
X9630340Y-16335160D01*
X9808140Y-16411360D02*
X9630340Y-16411360D01*
X9808140Y-16335160D02*
X9808140Y-16411360D01*
G04 #@! TO.C,C26*
X7976080Y-13927120D02*
X7798280Y-13927120D01*
X7976080Y-13850920D02*
X7976080Y-13927120D01*
X7798280Y-13850920D02*
X7976080Y-13850920D01*
X7798280Y-13927120D02*
X7798280Y-13850920D01*
G04 #@! TO.C,C27*
X8204680Y-13850920D02*
X8382480Y-13850920D01*
X8204680Y-13927120D02*
X8204680Y-13850920D01*
X8382480Y-13927120D02*
X8204680Y-13927120D01*
X8382480Y-13850920D02*
X8382480Y-13927120D01*
G04 #@! TO.C,C28*
X9630340Y-16449460D02*
X9808140Y-16449460D01*
X9630340Y-16525660D02*
X9630340Y-16449460D01*
X9808140Y-16525660D02*
X9630340Y-16525660D01*
X9808140Y-16449460D02*
X9808140Y-16525660D01*
G04 #@! TO.C,C30*
X8435580Y-14442480D02*
X8435580Y-14264680D01*
X8511780Y-14442480D02*
X8435580Y-14442480D01*
X8511780Y-14264680D02*
X8511780Y-14442480D01*
X8435580Y-14264680D02*
X8511780Y-14264680D01*
G04 #@! TO.C,C31*
X7521420Y-14333520D02*
X7521420Y-14155720D01*
X7597620Y-14333520D02*
X7521420Y-14333520D01*
X7597620Y-14155720D02*
X7597620Y-14333520D01*
X7521420Y-14155720D02*
X7597620Y-14155720D01*
G04 #@! TO.C,C32*
X10332720Y-16918940D02*
X10154920Y-16918940D01*
X10332720Y-16842740D02*
X10332720Y-16918940D01*
X10154920Y-16842740D02*
X10332720Y-16842740D01*
X10154920Y-16918940D02*
X10154920Y-16842740D01*
G04 #@! TO.C,C33*
X9973240Y-16502800D02*
X9973240Y-16325000D01*
X10049440Y-16502800D02*
X9973240Y-16502800D01*
X10049440Y-16325000D02*
X10049440Y-16502800D01*
X9973240Y-16325000D02*
X10049440Y-16325000D01*
G04 #@! TO.C,C34*
X9792900Y-15281060D02*
X9792900Y-15103260D01*
X9869100Y-15281060D02*
X9792900Y-15281060D01*
X9869100Y-15103260D02*
X9869100Y-15281060D01*
X9792900Y-15103260D02*
X9869100Y-15103260D01*
G04 #@! TO.C,C35*
X9678600Y-15204860D02*
X9678600Y-15027060D01*
X9754800Y-15204860D02*
X9678600Y-15204860D01*
X9754800Y-15027060D02*
X9754800Y-15204860D01*
X9678600Y-15027060D02*
X9754800Y-15027060D01*
G04 #@! TO.C,C36*
X9564300Y-15166760D02*
X9564300Y-14988960D01*
X9640500Y-15166760D02*
X9564300Y-15166760D01*
X9640500Y-14988960D02*
X9640500Y-15166760D01*
X9564300Y-14988960D02*
X9640500Y-14988960D01*
G04 #@! TO.C,C37*
X9462700Y-15029600D02*
X9284900Y-15029600D01*
X9462700Y-14953400D02*
X9462700Y-15029600D01*
X9284900Y-14953400D02*
X9462700Y-14953400D01*
X9284900Y-15029600D02*
X9284900Y-14953400D01*
G04 #@! TO.C,C38*
X7155660Y-14244620D02*
X7333460Y-14244620D01*
X7155660Y-14320820D02*
X7155660Y-14244620D01*
X7333460Y-14320820D02*
X7155660Y-14320820D01*
X7333460Y-14244620D02*
X7333460Y-14320820D01*
G04 #@! TO.C,C39*
X8092440Y-14823440D02*
X8092440Y-14645640D01*
X8168640Y-14823440D02*
X8092440Y-14823440D01*
X8168640Y-14645640D02*
X8168640Y-14823440D01*
X8092440Y-14645640D02*
X8168640Y-14645640D01*
G04 #@! TO.C,C40*
X7155660Y-14369080D02*
X7333460Y-14369080D01*
X7155660Y-14445280D02*
X7155660Y-14369080D01*
X7333460Y-14445280D02*
X7155660Y-14445280D01*
X7333460Y-14369080D02*
X7333460Y-14445280D01*
G04 #@! TO.C,C41*
X9843700Y-16144660D02*
X10021500Y-16144660D01*
X9843700Y-16220860D02*
X9843700Y-16144660D01*
X10021500Y-16220860D02*
X9843700Y-16220860D01*
X10021500Y-16144660D02*
X10021500Y-16220860D01*
G04 #@! TO.C,C42*
X9894500Y-15509660D02*
X9716700Y-15509660D01*
X9894500Y-15433460D02*
X9894500Y-15509660D01*
X9716700Y-15433460D02*
X9894500Y-15433460D01*
X9716700Y-15509660D02*
X9716700Y-15433460D01*
G04 #@! TO.C,C43*
X7289800Y-14579600D02*
X7112000Y-14579600D01*
X7289800Y-14503400D02*
X7289800Y-14579600D01*
X7112000Y-14503400D02*
X7289800Y-14503400D01*
X7112000Y-14579600D02*
X7112000Y-14503400D01*
G04 #@! TO.C,C44*
X7825980Y-15031720D02*
X7825980Y-14853920D01*
X7902180Y-15031720D02*
X7825980Y-15031720D01*
X7902180Y-14853920D02*
X7902180Y-15031720D01*
X7825980Y-14853920D02*
X7902180Y-14853920D01*
G04 #@! TO.C,C45*
X10233900Y-15633740D02*
X10411700Y-15633740D01*
X10233900Y-15709940D02*
X10233900Y-15633740D01*
X10411700Y-15709940D02*
X10233900Y-15709940D01*
X10411700Y-15633740D02*
X10411700Y-15709940D01*
G04 #@! TO.C,C46*
X10401540Y-15854720D02*
X10223740Y-15854720D01*
X10401540Y-15778520D02*
X10401540Y-15854720D01*
X10223740Y-15778520D02*
X10401540Y-15778520D01*
X10223740Y-15854720D02*
X10223740Y-15778520D01*
G04 #@! TO.C,C47*
X11178540Y-15745460D02*
X11178540Y-15567660D01*
X11254740Y-15745460D02*
X11178540Y-15745460D01*
X11254740Y-15567660D02*
X11254740Y-15745460D01*
X11178540Y-15567660D02*
X11254740Y-15567660D01*
G04 #@! TO.C,C48*
X10929860Y-15488920D02*
X10929860Y-15311120D01*
X11006060Y-15488920D02*
X10929860Y-15488920D01*
X11006060Y-15311120D02*
X11006060Y-15488920D01*
X10929860Y-15311120D02*
X11006060Y-15311120D01*
G04 #@! TO.C,C49*
X10123100Y-15535060D02*
X10123100Y-15712860D01*
X10046900Y-15535060D02*
X10123100Y-15535060D01*
X10046900Y-15712860D02*
X10046900Y-15535060D01*
X10123100Y-15712860D02*
X10046900Y-15712860D01*
G04 #@! TO.C,C50*
X7559280Y-15430540D02*
X7559280Y-15252740D01*
X7635480Y-15430540D02*
X7559280Y-15430540D01*
X7635480Y-15252740D02*
X7635480Y-15430540D01*
X7559280Y-15252740D02*
X7635480Y-15252740D01*
G04 #@! TO.C,C51*
X10866360Y-15984260D02*
X10688560Y-15984260D01*
X10866360Y-15908060D02*
X10866360Y-15984260D01*
X10688560Y-15908060D02*
X10866360Y-15908060D01*
X10688560Y-15984260D02*
X10688560Y-15908060D01*
G04 #@! TO.C,C52*
X7170660Y-15290840D02*
X6992860Y-15290840D01*
X7170660Y-15214640D02*
X7170660Y-15290840D01*
X6992860Y-15214640D02*
X7170660Y-15214640D01*
X6992860Y-15290840D02*
X6992860Y-15214640D01*
G04 #@! TO.C,C53*
X7170660Y-15184160D02*
X6992860Y-15184160D01*
X7170660Y-15107960D02*
X7170660Y-15184160D01*
X6992860Y-15107960D02*
X7170660Y-15107960D01*
X6992860Y-15184160D02*
X6992860Y-15107960D01*
G04 #@! TO.C,C54*
X10477740Y-15951240D02*
X10477740Y-16129040D01*
X10401540Y-15951240D02*
X10477740Y-15951240D01*
X10401540Y-16129040D02*
X10401540Y-15951240D01*
X10477740Y-16129040D02*
X10401540Y-16129040D01*
G04 #@! TO.C,C55*
X7984360Y-15055780D02*
X8162160Y-15055780D01*
X7984360Y-15131980D02*
X7984360Y-15055780D01*
X8162160Y-15131980D02*
X7984360Y-15131980D01*
X8162160Y-15055780D02*
X8162160Y-15131980D01*
G04 #@! TO.C,C56*
X10701020Y-15575280D02*
X10701020Y-15397480D01*
X10777220Y-15575280D02*
X10701020Y-15575280D01*
X10777220Y-15397480D02*
X10777220Y-15575280D01*
X10701020Y-15397480D02*
X10777220Y-15397480D01*
G04 #@! TO.C,C57*
X7701520Y-15021600D02*
X7701520Y-14843800D01*
X7777720Y-15021600D02*
X7701520Y-15021600D01*
X7777720Y-14843800D02*
X7777720Y-15021600D01*
X7701520Y-14843800D02*
X7777720Y-14843800D01*
G04 #@! TO.C,C58*
X6886180Y-15565160D02*
X6886180Y-15387360D01*
X6962380Y-15565160D02*
X6886180Y-15565160D01*
X6962380Y-15387360D02*
X6962380Y-15565160D01*
X6886180Y-15387360D02*
X6962380Y-15387360D01*
G04 #@! TO.C,C59*
X7899640Y-15410220D02*
X8077440Y-15410220D01*
X7899640Y-15486420D02*
X7899640Y-15410220D01*
X8077440Y-15486420D02*
X7899640Y-15486420D01*
X8077440Y-15410220D02*
X8077440Y-15486420D01*
G04 #@! TO.C,C60*
X7653260Y-15021600D02*
X7653260Y-15199400D01*
X7577060Y-15021600D02*
X7653260Y-15021600D01*
X7577060Y-15199400D02*
X7577060Y-15021600D01*
X7653260Y-15199400D02*
X7577060Y-15199400D01*
G04 #@! TO.C,C62*
X7846300Y-16019820D02*
X7668500Y-16019820D01*
X7846300Y-15943620D02*
X7846300Y-16019820D01*
X7668500Y-15943620D02*
X7846300Y-15943620D01*
X7668500Y-16019820D02*
X7668500Y-15943620D01*
G04 #@! TO.C,C64*
X7549120Y-16116340D02*
X7549120Y-16294140D01*
X7472920Y-16116340D02*
X7549120Y-16116340D01*
X7472920Y-16294140D02*
X7472920Y-16116340D01*
X7549120Y-16294140D02*
X7472920Y-16294140D01*
G04 #@! TO.C,C65*
X7719300Y-16426220D02*
X7719300Y-16248420D01*
X7795500Y-16426220D02*
X7719300Y-16426220D01*
X7795500Y-16248420D02*
X7795500Y-16426220D01*
X7719300Y-16248420D02*
X7795500Y-16248420D01*
G04 #@! TO.C,C66*
X7612620Y-16426220D02*
X7612620Y-16248420D01*
X7688820Y-16426220D02*
X7612620Y-16426220D01*
X7688820Y-16248420D02*
X7688820Y-16426220D01*
X7612620Y-16248420D02*
X7688820Y-16248420D01*
G04 #@! TO.C,C67*
X12146120Y-16340740D02*
X12146120Y-16518540D01*
X12069920Y-16340740D02*
X12146120Y-16340740D01*
X12069920Y-16518540D02*
X12069920Y-16340740D01*
X12146120Y-16518540D02*
X12069920Y-16518540D01*
G04 #@! TO.C,C68*
X12708140Y-15661040D02*
X12708140Y-15483240D01*
X12784340Y-15661040D02*
X12708140Y-15661040D01*
X12784340Y-15483240D02*
X12784340Y-15661040D01*
X12708140Y-15483240D02*
X12784340Y-15483240D01*
G04 #@! TO.C,C69*
X12819900Y-15389260D02*
X12997700Y-15389260D01*
X12819900Y-15465460D02*
X12819900Y-15389260D01*
X12997700Y-15465460D02*
X12819900Y-15465460D01*
X12997700Y-15389260D02*
X12997700Y-15465460D01*
G04 #@! TO.C,C70*
X12146120Y-16543940D02*
X12146120Y-16721740D01*
X12069920Y-16543940D02*
X12146120Y-16543940D01*
X12069920Y-16721740D02*
X12069920Y-16543940D01*
X12146120Y-16721740D02*
X12069920Y-16721740D01*
G04 #@! TO.C,C71*
X10086340Y-11766880D02*
X10086340Y-11944680D01*
X10010140Y-11766880D02*
X10086340Y-11766880D01*
X10010140Y-11944680D02*
X10010140Y-11766880D01*
X10086340Y-11944680D02*
X10010140Y-11944680D01*
G04 #@! TO.C,C72*
X9984740Y-11766880D02*
X9984740Y-11944680D01*
X9908540Y-11766880D02*
X9984740Y-11766880D01*
X9908540Y-11944680D02*
X9908540Y-11766880D01*
X9984740Y-11944680D02*
X9908540Y-11944680D01*
G04 #@! TO.C,C73*
X10378440Y-11766880D02*
X10378440Y-11944680D01*
X10302240Y-11766880D02*
X10378440Y-11766880D01*
X10302240Y-11944680D02*
X10302240Y-11766880D01*
X10378440Y-11944680D02*
X10302240Y-11944680D01*
G04 #@! TO.C,C74*
X10276840Y-11766880D02*
X10276840Y-11944680D01*
X10200640Y-11766880D02*
X10276840Y-11766880D01*
X10200640Y-11944680D02*
X10200640Y-11766880D01*
X10276840Y-11944680D02*
X10200640Y-11944680D01*
G04 #@! TO.C,C75*
X10581640Y-11766880D02*
X10581640Y-11944680D01*
X10505440Y-11766880D02*
X10581640Y-11766880D01*
X10505440Y-11944680D02*
X10505440Y-11766880D01*
X10581640Y-11944680D02*
X10505440Y-11944680D01*
G04 #@! TO.C,C76*
X10683240Y-11766880D02*
X10683240Y-11944680D01*
X10607040Y-11766880D02*
X10683240Y-11766880D01*
X10607040Y-11944680D02*
X10607040Y-11766880D01*
X10683240Y-11944680D02*
X10607040Y-11944680D01*
G04 #@! TO.C,C77*
X10124440Y-10725480D02*
X10124440Y-10547680D01*
X10200640Y-10725480D02*
X10124440Y-10725480D01*
X10200640Y-10547680D02*
X10200640Y-10725480D01*
X10124440Y-10547680D02*
X10200640Y-10547680D01*
G04 #@! TO.C,C78*
X10022840Y-10725480D02*
X10022840Y-10547680D01*
X10099040Y-10725480D02*
X10022840Y-10725480D01*
X10099040Y-10547680D02*
X10099040Y-10725480D01*
X10022840Y-10547680D02*
X10099040Y-10547680D01*
G04 #@! TO.C,C79*
X9762490Y-11087430D02*
X9584690Y-11087430D01*
X9762490Y-11011230D02*
X9762490Y-11087430D01*
X9584690Y-11011230D02*
X9762490Y-11011230D01*
X9584690Y-11087430D02*
X9584690Y-11011230D01*
G04 #@! TO.C,C80*
X9686290Y-10973130D02*
X9686290Y-10795330D01*
X9762490Y-10973130D02*
X9686290Y-10973130D01*
X9762490Y-10795330D02*
X9762490Y-10973130D01*
X9686290Y-10795330D02*
X9762490Y-10795330D01*
G04 #@! TO.C,C81*
X9698990Y-11354130D02*
X9521190Y-11354130D01*
X9698990Y-11277930D02*
X9698990Y-11354130D01*
X9521190Y-11277930D02*
X9698990Y-11277930D01*
X9521190Y-11354130D02*
X9521190Y-11277930D01*
G04 #@! TO.C,C82*
X9698990Y-11252530D02*
X9521190Y-11252530D01*
X9698990Y-11176330D02*
X9698990Y-11252530D01*
X9521190Y-11176330D02*
X9698990Y-11176330D01*
X9521190Y-11252530D02*
X9521190Y-11176330D01*
G04 #@! TO.C,C83*
X9724390Y-11570030D02*
X9546590Y-11570030D01*
X9724390Y-11493830D02*
X9724390Y-11570030D01*
X9546590Y-11493830D02*
X9724390Y-11493830D01*
X9546590Y-11570030D02*
X9546590Y-11493830D01*
G04 #@! TO.C,C84*
X10636250Y-14659610D02*
X10636250Y-14837410D01*
X10560050Y-14659610D02*
X10636250Y-14659610D01*
X10560050Y-14837410D02*
X10560050Y-14659610D01*
X10636250Y-14837410D02*
X10560050Y-14837410D01*
G04 #@! TO.C,C85*
X10941050Y-14659610D02*
X10941050Y-14837410D01*
X10864850Y-14659610D02*
X10941050Y-14659610D01*
X10864850Y-14837410D02*
X10864850Y-14659610D01*
X10941050Y-14837410D02*
X10864850Y-14837410D01*
G04 #@! TO.C,C86*
X11410950Y-14431010D02*
X11410950Y-14608810D01*
X11334750Y-14431010D02*
X11410950Y-14431010D01*
X11334750Y-14608810D02*
X11334750Y-14431010D01*
X11410950Y-14608810D02*
X11334750Y-14608810D01*
G04 #@! TO.C,C87*
X11334750Y-14151610D02*
X11512550Y-14151610D01*
X11334750Y-14227810D02*
X11334750Y-14151610D01*
X11512550Y-14227810D02*
X11334750Y-14227810D01*
X11512550Y-14151610D02*
X11512550Y-14227810D01*
G04 #@! TO.C,C88*
X11410950Y-14050010D02*
X11588750Y-14050010D01*
X11410950Y-14126210D02*
X11410950Y-14050010D01*
X11588750Y-14126210D02*
X11410950Y-14126210D01*
X11588750Y-14050010D02*
X11588750Y-14126210D01*
G04 #@! TO.C,C89*
X11334750Y-13948410D02*
X11512550Y-13948410D01*
X11334750Y-14024610D02*
X11334750Y-13948410D01*
X11512550Y-14024610D02*
X11334750Y-14024610D01*
X11512550Y-13948410D02*
X11512550Y-14024610D01*
G04 #@! TO.C,C90*
X10953750Y-13719810D02*
X10953750Y-13542010D01*
X11029950Y-13719810D02*
X10953750Y-13719810D01*
X11029950Y-13542010D02*
X11029950Y-13719810D01*
X10953750Y-13542010D02*
X11029950Y-13542010D01*
G04 #@! TO.C,C91*
X11055350Y-13719810D02*
X11055350Y-13542010D01*
X11131550Y-13719810D02*
X11055350Y-13719810D01*
X11131550Y-13542010D02*
X11131550Y-13719810D01*
X11055350Y-13542010D02*
X11131550Y-13542010D01*
G04 #@! TO.C,C92*
X10394950Y-14050010D02*
X10217150Y-14050010D01*
X10394950Y-13973810D02*
X10394950Y-14050010D01*
X10217150Y-13973810D02*
X10394950Y-13973810D01*
X10217150Y-14050010D02*
X10217150Y-13973810D01*
G04 #@! TO.C,C93*
X10394950Y-14151610D02*
X10217150Y-14151610D01*
X10394950Y-14075410D02*
X10394950Y-14151610D01*
X10217150Y-14075410D02*
X10394950Y-14075410D01*
X10217150Y-14151610D02*
X10217150Y-14075410D01*
G04 #@! TO.C,C94*
X10394950Y-14392910D02*
X10217150Y-14392910D01*
X10394950Y-14316710D02*
X10394950Y-14392910D01*
X10217150Y-14316710D02*
X10394950Y-14316710D01*
X10217150Y-14392910D02*
X10217150Y-14316710D01*
G04 #@! TO.C,C95*
X9156700Y-12307900D02*
X9334500Y-12307900D01*
X9156700Y-12384100D02*
X9156700Y-12307900D01*
X9334500Y-12384100D02*
X9156700Y-12384100D01*
X9334500Y-12307900D02*
X9334500Y-12384100D01*
G04 #@! TO.C,C96*
X9469120Y-12307900D02*
X9646920Y-12307900D01*
X9469120Y-12384100D02*
X9469120Y-12307900D01*
X9646920Y-12384100D02*
X9469120Y-12384100D01*
X9646920Y-12307900D02*
X9646920Y-12384100D01*
G04 #@! TO.C,C97*
X9679940Y-11766880D02*
X9679940Y-11944680D01*
X9603740Y-11766880D02*
X9679940Y-11766880D01*
X9603740Y-11944680D02*
X9603740Y-11766880D01*
X9679940Y-11944680D02*
X9603740Y-11944680D01*
G04 #@! TO.C,C98*
X9781540Y-11766880D02*
X9781540Y-11944680D01*
X9705340Y-11766880D02*
X9781540Y-11766880D01*
X9705340Y-11944680D02*
X9705340Y-11766880D01*
X9781540Y-11944680D02*
X9705340Y-11944680D01*
G04 #@! TO.C,C99*
X10737850Y-14761210D02*
X10737850Y-14939010D01*
X10661650Y-14761210D02*
X10737850Y-14761210D01*
X10661650Y-14939010D02*
X10661650Y-14761210D01*
X10737850Y-14939010D02*
X10661650Y-14939010D01*
G04 #@! TO.C,C100*
X9883140Y-11766880D02*
X9883140Y-11944680D01*
X9806940Y-11766880D02*
X9883140Y-11766880D01*
X9806940Y-11944680D02*
X9806940Y-11766880D01*
X9883140Y-11944680D02*
X9806940Y-11944680D01*
G04 #@! TO.C,C101*
X9975850Y-12332030D02*
X10153650Y-12332030D01*
X9975850Y-12408230D02*
X9975850Y-12332030D01*
X10153650Y-12408230D02*
X9975850Y-12408230D01*
X10153650Y-12332030D02*
X10153650Y-12408230D01*
G04 #@! TO.C,C102*
X10839450Y-14761210D02*
X10839450Y-14939010D01*
X10763250Y-14761210D02*
X10839450Y-14761210D01*
X10763250Y-14939010D02*
X10763250Y-14761210D01*
X10839450Y-14939010D02*
X10763250Y-14939010D01*
G04 #@! TO.C,C103*
X10288270Y-12332030D02*
X10466070Y-12332030D01*
X10288270Y-12408230D02*
X10288270Y-12332030D01*
X10466070Y-12408230D02*
X10288270Y-12408230D01*
X10466070Y-12332030D02*
X10466070Y-12408230D01*
G04 #@! TO.C,C104*
X11042650Y-14761210D02*
X11042650Y-14939010D01*
X10966450Y-14761210D02*
X11042650Y-14761210D01*
X10966450Y-14939010D02*
X10966450Y-14761210D01*
X11042650Y-14939010D02*
X10966450Y-14939010D01*
G04 #@! TO.C,C105*
X8806700Y-12613040D02*
X8623820Y-12613040D01*
X8806700Y-12257440D02*
X8806700Y-12613040D01*
X8623820Y-12257440D02*
X8806700Y-12257440D01*
X8623820Y-12613040D02*
X8623820Y-12257440D01*
G04 #@! TO.C,C106*
X11156950Y-13719810D02*
X11156950Y-13542010D01*
X11233150Y-13719810D02*
X11156950Y-13719810D01*
X11233150Y-13542010D02*
X11233150Y-13719810D01*
X11156950Y-13542010D02*
X11233150Y-13542010D01*
G04 #@! TO.C,C107*
X10408920Y-12305360D02*
X10408920Y-12127560D01*
X10485120Y-12305360D02*
X10408920Y-12305360D01*
X10485120Y-12127560D02*
X10485120Y-12305360D01*
X10408920Y-12127560D02*
X10485120Y-12127560D01*
G04 #@! TO.C,C108*
X10281920Y-12305360D02*
X10281920Y-12127560D01*
X10358120Y-12305360D02*
X10281920Y-12305360D01*
X10358120Y-12127560D02*
X10358120Y-12305360D01*
X10281920Y-12127560D02*
X10358120Y-12127560D01*
G04 #@! TO.C,C109*
X10096500Y-12305360D02*
X10096500Y-12127560D01*
X10172700Y-12305360D02*
X10096500Y-12305360D01*
X10172700Y-12127560D02*
X10172700Y-12305360D01*
X10096500Y-12127560D02*
X10172700Y-12127560D01*
G04 #@! TO.C,C110*
X9969500Y-12305360D02*
X9969500Y-12127560D01*
X10045700Y-12305360D02*
X9969500Y-12305360D01*
X10045700Y-12127560D02*
X10045700Y-12305360D01*
X9969500Y-12127560D02*
X10045700Y-12127560D01*
G04 #@! TO.C,C111*
X11144250Y-14761210D02*
X11144250Y-14939010D01*
X11068050Y-14761210D02*
X11144250Y-14761210D01*
X11068050Y-14939010D02*
X11068050Y-14761210D01*
X11144250Y-14939010D02*
X11068050Y-14939010D01*
G04 #@! TO.C,C112*
X11410950Y-13745210D02*
X11410950Y-13923010D01*
X11334750Y-13745210D02*
X11410950Y-13745210D01*
X11334750Y-13923010D02*
X11334750Y-13745210D01*
X11410950Y-13923010D02*
X11334750Y-13923010D01*
G04 #@! TO.C,C113*
X12353220Y-16457700D02*
X12353220Y-16635500D01*
X12277020Y-16457700D02*
X12353220Y-16457700D01*
X12277020Y-16635500D02*
X12277020Y-16457700D01*
X12353220Y-16635500D02*
X12277020Y-16635500D01*
G04 #@! TO.C,C114*
X11715750Y-13745210D02*
X11715750Y-13923010D01*
X11639550Y-13745210D02*
X11715750Y-13745210D01*
X11639550Y-13923010D02*
X11639550Y-13745210D01*
X11715750Y-13923010D02*
X11639550Y-13923010D01*
G04 #@! TO.C,C115*
X12370320Y-16199520D02*
X12192520Y-16199520D01*
X12370320Y-16123320D02*
X12370320Y-16199520D01*
X12192520Y-16123320D02*
X12370320Y-16123320D01*
X12192520Y-16199520D02*
X12192520Y-16123320D01*
G04 #@! TO.C,C116*
X12174740Y-16092840D02*
X11996940Y-16092840D01*
X12174740Y-16016640D02*
X12174740Y-16092840D01*
X11996940Y-16016640D02*
X12174740Y-16016640D01*
X11996940Y-16092840D02*
X11996940Y-16016640D01*
G04 #@! TO.C,C118*
X16178900Y-15548100D02*
X16001100Y-15548100D01*
X16178900Y-15471900D02*
X16178900Y-15548100D01*
X16001100Y-15471900D02*
X16178900Y-15471900D01*
X16001100Y-15548100D02*
X16001100Y-15471900D01*
G04 #@! TO.C,C119*
X12886620Y-15937000D02*
X12886620Y-15759200D01*
X12962820Y-15937000D02*
X12886620Y-15937000D01*
X12962820Y-15759200D02*
X12962820Y-15937000D01*
X12886620Y-15759200D02*
X12962820Y-15759200D01*
G04 #@! TO.C,C120*
X13124700Y-16151260D02*
X13124700Y-15973460D01*
X13200900Y-16151260D02*
X13124700Y-16151260D01*
X13200900Y-15973460D02*
X13200900Y-16151260D01*
X13124700Y-15973460D02*
X13200900Y-15973460D01*
G04 #@! TO.C,C121*
X12291580Y-16308740D02*
X12113780Y-16308740D01*
X12291580Y-16232540D02*
X12291580Y-16308740D01*
X12113780Y-16232540D02*
X12291580Y-16232540D01*
X12113780Y-16308740D02*
X12113780Y-16232540D01*
G04 #@! TO.C,C122*
X12672580Y-15869320D02*
X12494780Y-15869320D01*
X12672580Y-15793120D02*
X12672580Y-15869320D01*
X12494780Y-15793120D02*
X12672580Y-15793120D01*
X12494780Y-15869320D02*
X12494780Y-15793120D01*
G04 #@! TO.C,C123*
X10810240Y-11267770D02*
X10988040Y-11267770D01*
X10810240Y-11343970D02*
X10810240Y-11267770D01*
X10988040Y-11343970D02*
X10810240Y-11343970D01*
X10988040Y-11267770D02*
X10988040Y-11343970D01*
G04 #@! TO.C,C124*
X10810240Y-11166170D02*
X10988040Y-11166170D01*
X10810240Y-11242370D02*
X10810240Y-11166170D01*
X10988040Y-11242370D02*
X10810240Y-11242370D01*
X10988040Y-11166170D02*
X10988040Y-11242370D01*
G04 #@! TO.C,C125*
X17435600Y-11817420D02*
X17257800Y-11817420D01*
X17435600Y-11741220D02*
X17435600Y-11817420D01*
X17257800Y-11741220D02*
X17435600Y-11741220D01*
X17257800Y-11817420D02*
X17257800Y-11741220D01*
G04 #@! TO.C,C126*
X16775200Y-11832660D02*
X16775200Y-11649780D01*
X17130800Y-11832660D02*
X16775200Y-11832660D01*
X17130800Y-11649780D02*
X17130800Y-11832660D01*
X16775200Y-11649780D02*
X17130800Y-11649780D01*
G04 #@! TO.C,C127*
X16775200Y-11616760D02*
X16775200Y-11433880D01*
X17130800Y-11616760D02*
X16775200Y-11616760D01*
X17130800Y-11433880D02*
X17130800Y-11616760D01*
X16775200Y-11433880D02*
X17130800Y-11433880D01*
G04 #@! TO.C,C128*
X15120549Y-12417737D02*
X14994825Y-12292014D01*
X15174431Y-12363856D02*
X15120549Y-12417737D01*
X15048707Y-12238132D02*
X15174431Y-12363856D01*
X14994825Y-12292014D02*
X15048707Y-12238132D01*
G04 #@! TO.C,C129*
X14429069Y-12624283D02*
X14303346Y-12498560D01*
X14482951Y-12570402D02*
X14429069Y-12624283D01*
X14357227Y-12444678D02*
X14482951Y-12570402D01*
X14303346Y-12498560D02*
X14357227Y-12444678D01*
G04 #@! TO.C,C130*
X13791471Y-13261882D02*
X13665747Y-13136158D01*
X13845353Y-13208000D02*
X13791471Y-13261882D01*
X13719629Y-13082276D02*
X13845353Y-13208000D01*
X13665747Y-13136158D02*
X13719629Y-13082276D01*
G04 #@! TO.C,C131*
X13378700Y-13738260D02*
X13200900Y-13738260D01*
X13378700Y-13662060D02*
X13378700Y-13738260D01*
X13200900Y-13662060D02*
X13378700Y-13662060D01*
X13200900Y-13738260D02*
X13200900Y-13662060D01*
G04 #@! TO.C,C132*
X13539623Y-14535459D02*
X13413899Y-14661183D01*
X13485741Y-14481577D02*
X13539623Y-14535459D01*
X13360017Y-14607301D02*
X13485741Y-14481577D01*
X13413899Y-14661183D02*
X13360017Y-14607301D01*
G04 #@! TO.C,C133*
X14132721Y-15111814D02*
X14006997Y-15237538D01*
X14078839Y-15057933D02*
X14132721Y-15111814D01*
X13953116Y-15183656D02*
X14078839Y-15057933D01*
X14006997Y-15237538D02*
X13953116Y-15183656D01*
G04 #@! TO.C,C134*
X14590714Y-15569807D02*
X14464990Y-15695531D01*
X14536832Y-15515926D02*
X14590714Y-15569807D01*
X14411109Y-15641649D02*
X14536832Y-15515926D01*
X14464990Y-15695531D02*
X14411109Y-15641649D01*
G04 #@! TO.C,C135*
X15345055Y-15480005D02*
X15470779Y-15605728D01*
X15291174Y-15533886D02*
X15345055Y-15480005D01*
X15416897Y-15659610D02*
X15291174Y-15533886D01*
X15470779Y-15605728D02*
X15416897Y-15659610D01*
G04 #@! TO.C,C136*
X15910811Y-14914249D02*
X16036535Y-15039972D01*
X15856930Y-14968130D02*
X15910811Y-14914249D01*
X15982653Y-15093854D02*
X15856930Y-14968130D01*
X16036535Y-15039972D02*
X15982653Y-15093854D01*
G04 #@! TO.C,C137*
X16054496Y-14770564D02*
X16180219Y-14896288D01*
X16000614Y-14824446D02*
X16054496Y-14770564D01*
X16126338Y-14950170D02*
X16000614Y-14824446D01*
X16180219Y-14896288D02*
X16126338Y-14950170D01*
G04 #@! TO.C,C138*
X16261041Y-14564019D02*
X16386765Y-14689742D01*
X16207160Y-14617900D02*
X16261041Y-14564019D01*
X16332883Y-14743624D02*
X16207160Y-14617900D01*
X16386765Y-14689742D02*
X16332883Y-14743624D01*
G04 #@! TO.C,C139*
X16404726Y-14420334D02*
X16530449Y-14546058D01*
X16350844Y-14474216D02*
X16404726Y-14420334D01*
X16476568Y-14599940D02*
X16350844Y-14474216D01*
X16530449Y-14546058D02*
X16476568Y-14599940D01*
G04 #@! TO.C,C140*
X16458607Y-13558230D02*
X16584331Y-13683953D01*
X16404726Y-13612111D02*
X16458607Y-13558230D01*
X16530449Y-13737835D02*
X16404726Y-13612111D01*
X16584331Y-13683953D02*
X16530449Y-13737835D01*
G04 #@! TO.C,C141*
X15641404Y-12794908D02*
X15767127Y-12669185D01*
X15695285Y-12848790D02*
X15641404Y-12794908D01*
X15821009Y-12723066D02*
X15695285Y-12848790D01*
X15767127Y-12669185D02*
X15821009Y-12723066D01*
G04 #@! TO.C,C142*
X15919792Y-13091257D02*
X16045515Y-12965533D01*
X15973673Y-13145138D02*
X15919792Y-13091257D01*
X16099397Y-13019415D02*
X15973673Y-13145138D01*
X16045515Y-12965533D02*
X16099397Y-13019415D01*
G04 #@! TO.C,C143*
X17356860Y-11030020D02*
X17539740Y-11030020D01*
X17356860Y-11385620D02*
X17356860Y-11030020D01*
X17539740Y-11385620D02*
X17356860Y-11385620D01*
X17539740Y-11030020D02*
X17539740Y-11385620D01*
G04 #@! TO.C,C144*
X15450820Y-16095980D02*
X15273020Y-16095980D01*
X15450820Y-16019780D02*
X15450820Y-16095980D01*
X15273020Y-16019780D02*
X15450820Y-16019780D01*
X15273020Y-16095980D02*
X15273020Y-16019780D01*
G04 #@! TO.C,C145*
X17130800Y-10773480D02*
X17130800Y-10956360D01*
X16775200Y-10773480D02*
X17130800Y-10773480D01*
X16775200Y-10956360D02*
X16775200Y-10773480D01*
X17130800Y-10956360D02*
X16775200Y-10956360D01*
G04 #@! TO.C,C146*
X17130800Y-10557580D02*
X17130800Y-10740460D01*
X16775200Y-10557580D02*
X17130800Y-10557580D01*
X16775200Y-10740460D02*
X16775200Y-10557580D01*
X17130800Y-10740460D02*
X16775200Y-10740460D01*
G04 #@! TO.C,C147*
X17321300Y-11118920D02*
X17321300Y-11296720D01*
X17245100Y-11118920D02*
X17321300Y-11118920D01*
X17245100Y-11296720D02*
X17245100Y-11118920D01*
X17321300Y-11296720D02*
X17245100Y-11296720D01*
G04 #@! TO.C,C148*
X13804900Y-11727180D02*
X13804900Y-11904980D01*
X13728700Y-11727180D02*
X13804900Y-11727180D01*
X13728700Y-11904980D02*
X13728700Y-11727180D01*
X13804900Y-11904980D02*
X13728700Y-11904980D01*
G04 #@! TO.C,C149*
X13769860Y-11132220D02*
X13947660Y-11132220D01*
X13769860Y-11208420D02*
X13769860Y-11132220D01*
X13947660Y-11208420D02*
X13769860Y-11208420D01*
X13947660Y-11132220D02*
X13947660Y-11208420D01*
G04 #@! TO.C,C150*
X13042900Y-10647680D02*
X13042900Y-10469880D01*
X13119100Y-10647680D02*
X13042900Y-10647680D01*
X13119100Y-10469880D02*
X13119100Y-10647680D01*
X13042900Y-10469880D02*
X13119100Y-10469880D01*
G04 #@! TO.C,C151*
X11671300Y-10927080D02*
X11671300Y-10749280D01*
X11747500Y-10927080D02*
X11671300Y-10927080D01*
X11747500Y-10749280D02*
X11747500Y-10927080D01*
X11671300Y-10749280D02*
X11747500Y-10749280D01*
G04 #@! TO.C,C152*
X12352540Y-12762900D02*
X12530340Y-12762900D01*
X12352540Y-12839100D02*
X12352540Y-12762900D01*
X12530340Y-12839100D02*
X12352540Y-12839100D01*
X12530340Y-12762900D02*
X12530340Y-12839100D01*
G04 #@! TO.C,C153*
X11544300Y-11739880D02*
X11366500Y-11739880D01*
X11544300Y-11663680D02*
X11544300Y-11739880D01*
X11366500Y-11663680D02*
X11544300Y-11663680D01*
X11366500Y-11739880D02*
X11366500Y-11663680D01*
G04 #@! TO.C,C154*
X11938520Y-12707020D02*
X11760720Y-12707020D01*
X11938520Y-12630820D02*
X11938520Y-12707020D01*
X11760720Y-12630820D02*
X11938520Y-12630820D01*
X11760720Y-12707020D02*
X11760720Y-12630820D01*
G04 #@! TO.C,C156*
X12365240Y-15937900D02*
X12187440Y-15937900D01*
X12365240Y-15861700D02*
X12365240Y-15937900D01*
X12187440Y-15861700D02*
X12365240Y-15861700D01*
X12187440Y-15937900D02*
X12187440Y-15861700D01*
G04 #@! TO.C,C157*
X16341864Y-13459447D02*
X16467587Y-13333723D01*
X16395745Y-13513329D02*
X16341864Y-13459447D01*
X16521469Y-13387605D02*
X16395745Y-13513329D01*
X16467587Y-13333723D02*
X16521469Y-13387605D01*
G04 #@! TO.C,C158*
X16449627Y-12956553D02*
X16575350Y-13082276D01*
X16395745Y-13010434D02*
X16449627Y-12956553D01*
X16521469Y-13136158D02*
X16395745Y-13010434D01*
X16575350Y-13082276D02*
X16521469Y-13136158D01*
G04 #@! TO.C,C159*
X13188200Y-15135260D02*
X13010400Y-15135260D01*
X13188200Y-15059060D02*
X13188200Y-15135260D01*
X13010400Y-15059060D02*
X13188200Y-15059060D01*
X13010400Y-15135260D02*
X13010400Y-15059060D01*
G04 #@! TO.C,C160*
X8346680Y-15466100D02*
X8346680Y-15643900D01*
X8270480Y-15466100D02*
X8346680Y-15466100D01*
X8270480Y-15643900D02*
X8270480Y-15466100D01*
X8346680Y-15643900D02*
X8270480Y-15643900D01*
G04 #@! TO.C,C161*
X8240000Y-15466100D02*
X8240000Y-15643900D01*
X8163800Y-15466100D02*
X8240000Y-15466100D01*
X8163800Y-15643900D02*
X8163800Y-15466100D01*
X8240000Y-15643900D02*
X8163800Y-15643900D01*
G04 #@! TO.C,C162*
X8137892Y-16112276D02*
X7960092Y-16112276D01*
X8137892Y-16036076D02*
X8137892Y-16112276D01*
X7960092Y-16036076D02*
X8137892Y-16036076D01*
X7960092Y-16112276D02*
X7960092Y-16036076D01*
G04 #@! TO.C,C163*
X6995146Y-14999756D02*
X7172946Y-14999756D01*
X6995146Y-15075956D02*
X6995146Y-14999756D01*
X7172946Y-15075956D02*
X6995146Y-15075956D01*
X7172946Y-14999756D02*
X7172946Y-15075956D01*
G04 #@! TO.C,C164*
X16111100Y-15151900D02*
X16288900Y-15151900D01*
X16111100Y-15228100D02*
X16111100Y-15151900D01*
X16288900Y-15228100D02*
X16111100Y-15228100D01*
X16288900Y-15151900D02*
X16288900Y-15228100D01*
G04 #@! TO.C,C165*
X13559040Y-16717680D02*
X13381240Y-16717680D01*
X13559040Y-16641480D02*
X13559040Y-16717680D01*
X13381240Y-16641480D02*
X13559040Y-16641480D01*
X13381240Y-16717680D02*
X13381240Y-16641480D01*
G04 #@! TO.C,C166*
X12009640Y-16524640D02*
X12009640Y-16702440D01*
X11933440Y-16524640D02*
X12009640Y-16524640D01*
X11933440Y-16702440D02*
X11933440Y-16524640D01*
X12009640Y-16702440D02*
X11933440Y-16702440D01*
G04 #@! TO.C,C167*
X8217420Y-11922160D02*
X8217420Y-12099960D01*
X8141220Y-11922160D02*
X8217420Y-11922160D01*
X8141220Y-12099960D02*
X8141220Y-11922160D01*
X8217420Y-12099960D02*
X8141220Y-12099960D01*
G04 #@! TO.C,C168*
X14064500Y-12788300D02*
X13886700Y-12788300D01*
X14064500Y-12712100D02*
X14064500Y-12788300D01*
X13886700Y-12712100D02*
X14064500Y-12712100D01*
X13886700Y-12788300D02*
X13886700Y-12712100D01*
G04 #@! TO.C,C169*
X12827000Y-17028160D02*
X12649200Y-17028160D01*
X12827000Y-16951960D02*
X12827000Y-17028160D01*
X12649200Y-16951960D02*
X12827000Y-16951960D01*
X12649200Y-17028160D02*
X12649200Y-16951960D01*
G04 #@! TO.C,C170*
X12211900Y-16908900D02*
X12211900Y-16731100D01*
X12288100Y-16908900D02*
X12211900Y-16908900D01*
X12288100Y-16731100D02*
X12288100Y-16908900D01*
X12211900Y-16731100D02*
X12288100Y-16731100D01*
G04 #@! TO.C,C171*
X7704060Y-16690380D02*
X7881860Y-16690380D01*
X7704060Y-16766580D02*
X7704060Y-16690380D01*
X7881860Y-16766580D02*
X7704060Y-16766580D01*
X7881860Y-16690380D02*
X7881860Y-16766580D01*
G04 #@! TO.C,FB1*
X17358600Y-11943120D02*
X17358600Y-12126000D01*
X17003000Y-11943120D02*
X17358600Y-11943120D01*
X17003000Y-12126000D02*
X17003000Y-11943120D01*
X17358600Y-12126000D02*
X17003000Y-12126000D01*
G04 #@! TO.C,FB2*
X8569960Y-12161520D02*
X8569960Y-12344400D01*
X8214360Y-12161520D02*
X8569960Y-12161520D01*
X8214360Y-12344400D02*
X8214360Y-12161520D01*
X8569960Y-12344400D02*
X8214360Y-12344400D01*
G04 #@! TO.C,FB3*
X17389080Y-12692420D02*
X17389080Y-12875300D01*
X17033480Y-12692420D02*
X17389080Y-12692420D01*
X17033480Y-12875300D02*
X17033480Y-12692420D01*
X17389080Y-12875300D02*
X17033480Y-12875300D01*
G04 #@! TO.C,J10*
X11520000Y-13150000D02*
X11520000Y-12750000D01*
X11280000Y-13150000D02*
X11520000Y-13150000D01*
X11280000Y-12750000D02*
X11280000Y-13150000D01*
X11520000Y-12750000D02*
X11280000Y-12750000D01*
G04 #@! TO.C,L1*
X9427140Y-16195460D02*
X9604940Y-16195460D01*
X9427140Y-16271660D02*
X9427140Y-16195460D01*
X9604940Y-16271660D02*
X9427140Y-16271660D01*
X9604940Y-16195460D02*
X9604940Y-16271660D01*
G04 #@! TO.C,L2*
X9808140Y-16116720D02*
X9930060Y-16116720D01*
X9808140Y-15842400D02*
X9808140Y-16116720D01*
X9930060Y-15842400D02*
X9808140Y-15842400D01*
X9930060Y-16116720D02*
X9930060Y-15842400D01*
G04 #@! TO.C,L3*
X9930060Y-15537600D02*
X9808140Y-15537600D01*
X9930060Y-15811920D02*
X9930060Y-15537600D01*
X9808140Y-15811920D02*
X9930060Y-15811920D01*
X9808140Y-15537600D02*
X9808140Y-15811920D01*
G04 #@! TO.C,L4*
X9780200Y-15738260D02*
X9780200Y-15916060D01*
X9704000Y-15738260D02*
X9780200Y-15738260D01*
X9704000Y-15916060D02*
X9704000Y-15738260D01*
X9780200Y-15916060D02*
X9704000Y-15916060D01*
G04 #@! TO.C,L5*
X7358620Y-15461020D02*
X7480540Y-15461020D01*
X7358620Y-15186700D02*
X7358620Y-15461020D01*
X7480540Y-15186700D02*
X7358620Y-15186700D01*
X7480540Y-15461020D02*
X7480540Y-15186700D01*
G04 #@! TO.C,L6*
X10661650Y-14964410D02*
X10839450Y-14964410D01*
X10661650Y-15040610D02*
X10661650Y-14964410D01*
X10839450Y-15040610D02*
X10661650Y-15040610D01*
X10839450Y-14964410D02*
X10839450Y-15040610D01*
G04 #@! TO.C,L7*
X10661650Y-14659610D02*
X10839450Y-14659610D01*
X10661650Y-14735810D02*
X10661650Y-14659610D01*
X10839450Y-14735810D02*
X10661650Y-14735810D01*
X10839450Y-14659610D02*
X10839450Y-14735810D01*
G04 #@! TO.C,L8*
X10966450Y-14964410D02*
X11144250Y-14964410D01*
X10966450Y-15040610D02*
X10966450Y-14964410D01*
X11144250Y-15040610D02*
X10966450Y-15040610D01*
X11144250Y-14964410D02*
X11144250Y-15040610D01*
G04 #@! TO.C,L9*
X10966450Y-14659610D02*
X11144250Y-14659610D01*
X10966450Y-14735810D02*
X10966450Y-14659610D01*
X11144250Y-14735810D02*
X10966450Y-14735810D01*
X11144250Y-14659610D02*
X11144250Y-14735810D01*
G04 #@! TO.C,L10*
X16301236Y-11356156D02*
X16741164Y-11356156D01*
X16301236Y-11796084D02*
X16301236Y-11356156D01*
X16741164Y-11796084D02*
X16301236Y-11796084D01*
X16741164Y-11356156D02*
X16741164Y-11796084D01*
G04 #@! TO.C,L11*
X16301236Y-10594156D02*
X16741164Y-10594156D01*
X16301236Y-11034084D02*
X16301236Y-10594156D01*
X16741164Y-11034084D02*
X16301236Y-11034084D01*
X16741164Y-10594156D02*
X16741164Y-11034084D01*
G04 #@! TO.C,L12*
X7993620Y-15867420D02*
X7993620Y-15989340D01*
X8267940Y-15867420D02*
X7993620Y-15867420D01*
X8267940Y-15989340D02*
X8267940Y-15867420D01*
X7993620Y-15989340D02*
X8267940Y-15989340D01*
G04 #@! TO.C,L13*
X6997940Y-16040140D02*
X6876020Y-16040140D01*
X6997940Y-16314460D02*
X6997940Y-16040140D01*
X6876020Y-16314460D02*
X6997940Y-16314460D01*
X6876020Y-16040140D02*
X6876020Y-16314460D01*
D18*
G04 #@! TO.C,P1*
X14318500Y-11467500D02*
X14636000Y-11467500D01*
X14382000Y-11150000D02*
X14382000Y-11404000D01*
X14318500Y-11086500D02*
X14318500Y-11467500D01*
X14636000Y-11086500D02*
X14318500Y-11086500D01*
X14636000Y-11467500D02*
X14636000Y-11086500D01*
X14890000Y-11404000D02*
X14382000Y-11404000D01*
X14890000Y-11150000D02*
X14890000Y-11404000D01*
X14382000Y-11150000D02*
X14890000Y-11150000D01*
G04 #@! TO.C,P3*
X14636000Y-11658000D02*
X14382000Y-11658000D01*
X14382000Y-12166000D02*
X14382000Y-11658000D01*
X14636000Y-12166000D02*
X14382000Y-12166000D01*
X14636000Y-11658000D02*
X14636000Y-12166000D01*
G04 #@! TO.C,P5*
X9302000Y-10388000D02*
X9302000Y-10896000D01*
X8540000Y-10388000D02*
X9302000Y-10388000D01*
X8540000Y-10896000D02*
X8540000Y-10388000D01*
X9302000Y-10896000D02*
X8540000Y-10896000D01*
X9048000Y-10324500D02*
X9048000Y-10642000D01*
X9365500Y-10324500D02*
X9048000Y-10324500D01*
X9365500Y-10642000D02*
X9365500Y-10324500D01*
X9048000Y-10642000D02*
X9365500Y-10642000D01*
D10*
G04 #@! TO.C,P6*
X9786620Y-16007080D02*
G75*
G03*
X9786620Y-16007080I-71120J0D01*
G01*
G04 #@! TO.C,P7*
X8943340Y-16116300D02*
G75*
G03*
X8943340Y-16116300I-71120J0D01*
G01*
D18*
G04 #@! TO.C,P8*
X15588500Y-11467500D02*
X15906000Y-11467500D01*
X15652000Y-11150000D02*
X15652000Y-11404000D01*
X15588500Y-11086500D02*
X15588500Y-11467500D01*
X15906000Y-11086500D02*
X15588500Y-11086500D01*
X15906000Y-11467500D02*
X15906000Y-11086500D01*
X16160000Y-11404000D02*
X15652000Y-11404000D01*
X16160000Y-11150000D02*
X16160000Y-11404000D01*
X15652000Y-11150000D02*
X16160000Y-11150000D01*
G04 #@! TO.C,P9*
X10826000Y-12674000D02*
X10826000Y-13182000D01*
X10572000Y-12610500D02*
X10572000Y-12928000D01*
X10889500Y-12610500D02*
X10572000Y-12610500D01*
X10889500Y-12928000D02*
X10889500Y-12610500D01*
X10572000Y-12928000D02*
X10889500Y-12928000D01*
X8794000Y-12674000D02*
X10826000Y-12674000D01*
X8794000Y-13182000D02*
X8794000Y-12674000D01*
X10826000Y-13182000D02*
X8794000Y-13182000D01*
D10*
G04 #@! TO.C,P13*
X8847340Y-15917580D02*
G75*
G03*
X8847340Y-15917580I-71120J0D01*
G01*
G04 #@! TO.C,P14*
X11570220Y-14370720D02*
G75*
G03*
X11570220Y-14370720I-71120J0D01*
G01*
G04 #@! TO.C,P15*
X13088620Y-16924020D02*
G75*
G03*
X13088620Y-16924020I-71120J0D01*
G01*
G04 #@! TO.C,P17*
X8799080Y-15569600D02*
G75*
G03*
X8799080Y-15569600I-71120J0D01*
G01*
G04 #@! TO.C,P18*
X13406120Y-16510000D02*
G75*
G03*
X13406120Y-16510000I-71120J0D01*
G01*
G04 #@! TO.C,P19*
X9756660Y-16166500D02*
G75*
G03*
X9756660Y-16166500I-71120J0D01*
G01*
D18*
G04 #@! TO.C,P20*
X17430000Y-15722000D02*
X16922000Y-15722000D01*
X17493500Y-15468000D02*
X17176000Y-15468000D01*
X17493500Y-15785500D02*
X17493500Y-15468000D01*
X17176000Y-15785500D02*
X17493500Y-15785500D01*
X17176000Y-15468000D02*
X17176000Y-15785500D01*
X17430000Y-12928000D02*
X17430000Y-15722000D01*
X16922000Y-12928000D02*
X17430000Y-12928000D01*
X16922000Y-15722000D02*
X16922000Y-12928000D01*
D10*
G04 #@! TO.C,P21*
X8804160Y-15744860D02*
G75*
G03*
X8804160Y-15744860I-71120J0D01*
G01*
D18*
G04 #@! TO.C,P22*
X16922000Y-16230000D02*
X16922000Y-16738000D01*
X16668000Y-16166500D02*
X16668000Y-16484000D01*
X16985500Y-16166500D02*
X16668000Y-16166500D01*
X16985500Y-16484000D02*
X16985500Y-16166500D01*
X16668000Y-16484000D02*
X16985500Y-16484000D01*
X13620000Y-16738000D02*
X13620000Y-16230000D01*
X16922000Y-16738000D02*
X13620000Y-16738000D01*
X13620000Y-16230000D02*
X16922000Y-16230000D01*
D10*
G04 #@! TO.C,P23*
X15644380Y-12326020D02*
G75*
G03*
X15644380Y-12326020I-71120J0D01*
G01*
G04 #@! TO.C,P24*
X15643860Y-12519660D02*
G75*
G03*
X15643860Y-12519660I-71120J0D01*
G01*
D18*
G04 #@! TO.C,P25*
X13556500Y-16039500D02*
X13874000Y-16039500D01*
X13620000Y-15722000D02*
X13620000Y-15976000D01*
X13556500Y-15658500D02*
X13556500Y-16039500D01*
X13874000Y-15658500D02*
X13556500Y-15658500D01*
X13874000Y-16039500D02*
X13874000Y-15658500D01*
X15144000Y-15976000D02*
X13620000Y-15976000D01*
X15144000Y-15722000D02*
X15144000Y-15976000D01*
X13620000Y-15722000D02*
X15144000Y-15722000D01*
D10*
G04 #@! TO.C,P26*
X15059580Y-11383160D02*
X15059580Y-12018160D01*
X15399940Y-11383160D02*
X15059580Y-11383160D01*
X15399940Y-12018160D02*
X15059580Y-12018160D01*
X15399940Y-12018160D02*
X15399940Y-11383160D01*
G04 #@! TO.C,P27*
X9500120Y-14830460D02*
G75*
G03*
X9500120Y-14830460I-71120J0D01*
G01*
D18*
G04 #@! TO.C,P28*
X12604000Y-15722000D02*
X12096000Y-15722000D01*
X12667500Y-15468000D02*
X12350000Y-15468000D01*
X12667500Y-15785500D02*
X12667500Y-15468000D01*
X12350000Y-15785500D02*
X12667500Y-15785500D01*
X12350000Y-15468000D02*
X12350000Y-15785500D01*
X12604000Y-12928000D02*
X12604000Y-15722000D01*
X12096000Y-12928000D02*
X12604000Y-12928000D01*
X12096000Y-15722000D02*
X12096000Y-12928000D01*
G04 #@! TO.C,P29*
X12794500Y-13499500D02*
X13112000Y-13499500D01*
X12858000Y-13182000D02*
X12858000Y-13436000D01*
X12794500Y-13118500D02*
X12794500Y-13499500D01*
X13112000Y-13118500D02*
X12794500Y-13118500D01*
X13112000Y-13499500D02*
X13112000Y-13118500D01*
X13366000Y-13436000D02*
X12858000Y-13436000D01*
X13366000Y-13182000D02*
X13366000Y-13436000D01*
X12858000Y-13182000D02*
X13366000Y-13182000D01*
G04 #@! TO.C,P30*
X16160000Y-10388000D02*
X16160000Y-10896000D01*
X15906000Y-10324500D02*
X15906000Y-10642000D01*
X16223500Y-10324500D02*
X15906000Y-10324500D01*
X16223500Y-10642000D02*
X16223500Y-10324500D01*
X15906000Y-10642000D02*
X16223500Y-10642000D01*
X13620000Y-10388000D02*
X16160000Y-10388000D01*
X13620000Y-10896000D02*
X13620000Y-10388000D01*
X16160000Y-10896000D02*
X13620000Y-10896000D01*
D10*
G04 #@! TO.C,P31*
X9718560Y-15348620D02*
G75*
G03*
X9718560Y-15348620I-71120J0D01*
G01*
G04 #@! TO.C,P32*
X10043160Y-15113000D02*
G75*
G03*
X10043160Y-15113000I-71120J0D01*
G01*
G04 #@! TO.C,P33*
X10056380Y-15351160D02*
G75*
G03*
X10056380Y-15351160I-71120J0D01*
G01*
G04 #@! TO.C,P34*
X11044160Y-16408440D02*
G75*
G03*
X11044160Y-16408440I-71120J0D01*
G01*
G04 #@! TO.C,P35*
X11483580Y-16675140D02*
G75*
G03*
X11483580Y-16675140I-71120J0D01*
G01*
D18*
G04 #@! TO.C,P36*
X8603500Y-12991500D02*
X8603500Y-12674000D01*
X8286000Y-12928000D02*
X8540000Y-12928000D01*
X8222500Y-12991500D02*
X8603500Y-12991500D01*
X8222500Y-12674000D02*
X8222500Y-12991500D01*
X8603500Y-12674000D02*
X8222500Y-12674000D01*
X8540000Y-12420000D02*
X8540000Y-12928000D01*
X8286000Y-12420000D02*
X8540000Y-12420000D01*
X8286000Y-12928000D02*
X8286000Y-12420000D01*
D10*
G04 #@! TO.C,P37*
X13442200Y-15574680D02*
G75*
G03*
X13442200Y-15574680I-71120J0D01*
G01*
G04 #@! TO.C,P38*
X13472680Y-15033660D02*
G75*
G03*
X13472680Y-15033660I-71120J0D01*
G01*
G04 #@! TO.C,P39*
X9903980Y-10631840D02*
G75*
G03*
X9903980Y-10631840I-71120J0D01*
G01*
G04 #@! TO.C,P40*
X13716520Y-12826400D02*
G75*
G03*
X13716520Y-12826400I-71120J0D01*
G01*
G04 #@! TO.C,P41*
X14224520Y-12851800D02*
G75*
G03*
X14224520Y-12851800I-71120J0D01*
G01*
G04 #@! TO.C,P43*
X10363720Y-16199520D02*
G75*
G03*
X10363720Y-16199520I-71120J0D01*
G01*
G04 #@! TO.C,P44*
X8402560Y-14396760D02*
G75*
G03*
X8402560Y-14396760I-71120J0D01*
G01*
G04 #@! TO.C,P46*
X8110740Y-14929520D02*
G75*
G03*
X8110740Y-14929520I-71120J0D01*
G01*
G04 #@! TO.C,P47*
X7404620Y-14116720D02*
G75*
G03*
X7404620Y-14116720I-71120J0D01*
G01*
G04 #@! TO.C,P48*
X8219680Y-15252740D02*
G75*
G03*
X8219680Y-15252740I-71120J0D01*
G01*
G04 #@! TO.C,P49*
X7597380Y-15555000D02*
G75*
G03*
X7597380Y-15555000I-71120J0D01*
G01*
G04 #@! TO.C,P50*
X14473440Y-15434980D02*
G75*
G03*
X14473440Y-15434980I-71120J0D01*
G01*
G04 #@! TO.C,P51*
X8134336Y-16229370D02*
G75*
G03*
X8134336Y-16229370I-71120J0D01*
G01*
G04 #@! TO.C,P52*
X7451076Y-14915936D02*
G75*
G03*
X7451076Y-14915936I-71120J0D01*
G01*
G04 #@! TO.C,P53*
X13272020Y-13552840D02*
G75*
G03*
X13272020Y-13552840I-71120J0D01*
G01*
G04 #@! TO.C,P54*
X9634740Y-10883300D02*
G75*
G03*
X9634740Y-10883300I-71120J0D01*
G01*
G04 #@! TO.C,P55*
X10401820Y-14568840D02*
G75*
G03*
X10401820Y-14568840I-71120J0D01*
G01*
G04 #@! TO.C,P56*
X10526280Y-14698380D02*
G75*
G03*
X10526280Y-14698380I-71120J0D01*
G01*
G04 #@! TO.C,P57*
X12075680Y-14393580D02*
G75*
G03*
X12075680Y-14393580I-71120J0D01*
G01*
G04 #@! TO.C,P58*
X11204460Y-12346340D02*
G75*
G03*
X11204460Y-12346340I-71120J0D01*
G01*
G04 #@! TO.C,P59*
X12926580Y-15267340D02*
G75*
G03*
X12926580Y-15267340I-71120J0D01*
G01*
G04 #@! TO.C,P60*
X13226300Y-15673740D02*
G75*
G03*
X13226300Y-15673740I-71120J0D01*
G01*
G04 #@! TO.C,P61*
X11267960Y-11957720D02*
G75*
G03*
X11267960Y-11957720I-71120J0D01*
G01*
G04 #@! TO.C,P62*
X11460480Y-11145520D02*
G75*
G03*
X11460480Y-11145520I-71120J0D01*
G01*
G04 #@! TO.C,P63*
X11427460Y-10947400D02*
G75*
G03*
X11427460Y-10947400I-71120J0D01*
G01*
G04 #@! TO.C,P64*
X10464800Y-10528300D02*
G75*
G03*
X10464800Y-10528300I-71120J0D01*
G01*
G04 #@! TO.C,P65*
X11219700Y-11429400D02*
G75*
G03*
X11219700Y-11429400I-71120J0D01*
G01*
G04 #@! TO.C,P66*
X12014720Y-10746140D02*
G75*
G03*
X12014720Y-10746140I-71120J0D01*
G01*
G04 #@! TO.C,P67*
X16685780Y-13819540D02*
G75*
G03*
X16685780Y-13819540I-71120J0D01*
G01*
G04 #@! TO.C,P68*
X15888220Y-15178440D02*
G75*
G03*
X15888220Y-15178440I-71120J0D01*
G01*
G04 #@! TO.C,P69*
X15906000Y-12044080D02*
G75*
G03*
X15906000Y-12044080I-71120J0D01*
G01*
G04 #@! TO.C,P70*
X6774700Y-12983880D02*
G75*
G03*
X6774700Y-12983880I-71120J0D01*
G01*
G04 #@! TO.C,P71*
X16787380Y-12907680D02*
G75*
G03*
X16787380Y-12907680I-71120J0D01*
G01*
G04 #@! TO.C,P72*
X16335260Y-12940700D02*
G75*
G03*
X16335260Y-12940700I-71120J0D01*
G01*
G04 #@! TO.C,P73*
X14049260Y-12221880D02*
G75*
G03*
X14049260Y-12221880I-71120J0D01*
G01*
G04 #@! TO.C,P74*
X14284960Y-12308840D02*
G75*
G03*
X14284960Y-12308840I-71120J0D01*
G01*
G04 #@! TO.C,P75*
X14796020Y-11548780D02*
G75*
G03*
X14796020Y-11548780I-71120J0D01*
G01*
G04 #@! TO.C,P76*
X14310880Y-12082180D02*
G75*
G03*
X14310880Y-12082180I-71120J0D01*
G01*
G04 #@! TO.C,P77*
X14290560Y-11467500D02*
G75*
G03*
X14290560Y-11467500I-71120J0D01*
G01*
G04 #@! TO.C,P78*
X13442200Y-12656220D02*
G75*
G03*
X13442200Y-12656220I-71120J0D01*
G01*
G04 #@! TO.C,P79*
X13579360Y-13342020D02*
G75*
G03*
X13579360Y-13342020I-71120J0D01*
G01*
D18*
G04 #@! TO.C,P80*
X17938000Y-12928000D02*
X17684000Y-12928000D01*
X17684000Y-13436000D02*
X17684000Y-12928000D01*
X17938000Y-13436000D02*
X17684000Y-13436000D01*
X17938000Y-12928000D02*
X17938000Y-13436000D01*
D10*
G04 #@! TO.C,P81*
X16774680Y-15803280D02*
G75*
G03*
X16774680Y-15803280I-71120J0D01*
G01*
G04 #@! TO.C,P82*
X15497060Y-15828680D02*
G75*
G03*
X15497060Y-15828680I-71120J0D01*
G01*
G04 #@! TO.C,P83*
X11331180Y-15996960D02*
G75*
G03*
X11331180Y-15996960I-71120J0D01*
G01*
G04 #@! TO.C,P84*
X10348480Y-16699900D02*
G75*
G03*
X10348480Y-16699900I-71120J0D01*
G01*
G04 #@! TO.C,P85*
X9789680Y-14840620D02*
G75*
G03*
X9789680Y-14840620I-71120J0D01*
G01*
G04 #@! TO.C,P86*
X9337280Y-14145300D02*
G75*
G03*
X9337280Y-14145300I-71120J0D01*
G01*
G04 #@! TO.C,P87*
X7798040Y-16550680D02*
G75*
G03*
X7798040Y-16550680I-71120J0D01*
G01*
G04 #@! TO.C,P88*
X8308580Y-14950480D02*
G75*
G03*
X8308580Y-14950480I-71120J0D01*
G01*
G04 #@! TO.C,P89*
X8783840Y-16199520D02*
G75*
G03*
X8783840Y-16199520I-71120J0D01*
G01*
G04 #@! TO.C,P91*
X10597400Y-15262260D02*
G75*
G03*
X10597400Y-15262260I-71120J0D01*
G01*
G04 #@! TO.C,P92*
X11415280Y-15158120D02*
G75*
G03*
X11415280Y-15158120I-71120J0D01*
G01*
D19*
G04 #@! TO.C,Q3*
X8352040Y-11929780D02*
X8656840Y-11929780D01*
X8656840Y-11929780D02*
X8656840Y-12005980D01*
X8656840Y-12005980D02*
X8352040Y-12005980D01*
X8352040Y-12005980D02*
X8352040Y-11929780D01*
G04 #@! TO.C,Q4*
X7546580Y-16682760D02*
X7546580Y-16987560D01*
X7546580Y-16987560D02*
X7470380Y-16987560D01*
X7470380Y-16987560D02*
X7470380Y-16682760D01*
X7470380Y-16682760D02*
X7546580Y-16682760D01*
G04 #@! TO.C,Q5*
X16441660Y-11841520D02*
X16441660Y-12146320D01*
X16441660Y-12146320D02*
X16365460Y-12146320D01*
X16365460Y-12146320D02*
X16365460Y-11841520D01*
X16365460Y-11841520D02*
X16441660Y-11841520D01*
D10*
G04 #@! TO.C,R1*
X8944540Y-15179460D02*
X8944540Y-15357260D01*
X8868340Y-15179460D02*
X8944540Y-15179460D01*
X8868340Y-15357260D02*
X8868340Y-15179460D01*
X8944540Y-15357260D02*
X8868340Y-15357260D01*
G04 #@! TO.C,R2*
X9058840Y-15001660D02*
X8881040Y-15001660D01*
X9058840Y-14925460D02*
X9058840Y-15001660D01*
X8881040Y-14925460D02*
X9058840Y-14925460D01*
X8881040Y-15001660D02*
X8881040Y-14925460D01*
G04 #@! TO.C,R3*
X9096940Y-15357260D02*
X9096940Y-15179460D01*
X9173140Y-15357260D02*
X9096940Y-15357260D01*
X9173140Y-15179460D02*
X9173140Y-15357260D01*
X9096940Y-15179460D02*
X9173140Y-15179460D01*
G04 #@! TO.C,R4*
X9475400Y-15143900D02*
X9475400Y-15321700D01*
X9399200Y-15143900D02*
X9475400Y-15143900D01*
X9399200Y-15321700D02*
X9399200Y-15143900D01*
X9475400Y-15321700D02*
X9399200Y-15321700D01*
G04 #@! TO.C,R5*
X13799979Y-13003297D02*
X13925703Y-13129021D01*
X13746097Y-13057179D02*
X13799979Y-13003297D01*
X13871821Y-13182903D02*
X13746097Y-13057179D01*
X13925703Y-13129021D02*
X13871821Y-13182903D01*
G04 #@! TO.C,R6*
X13876179Y-12927097D02*
X14001903Y-13052821D01*
X13822297Y-12980979D02*
X13876179Y-12927097D01*
X13948021Y-13106703D02*
X13822297Y-12980979D01*
X14001903Y-13052821D02*
X13948021Y-13106703D01*
G04 #@! TO.C,R7*
X6749300Y-12483500D02*
X6749300Y-12305700D01*
X6825500Y-12483500D02*
X6749300Y-12483500D01*
X6825500Y-12305700D02*
X6825500Y-12483500D01*
X6749300Y-12305700D02*
X6825500Y-12305700D01*
G04 #@! TO.C,R8*
X9220200Y-12104700D02*
X9220200Y-12282500D01*
X9144000Y-12104700D02*
X9220200Y-12104700D01*
X9144000Y-12282500D02*
X9144000Y-12104700D01*
X9220200Y-12282500D02*
X9144000Y-12282500D01*
G04 #@! TO.C,R9*
X9347200Y-12104700D02*
X9347200Y-12282500D01*
X9271000Y-12104700D02*
X9347200Y-12104700D01*
X9271000Y-12282500D02*
X9271000Y-12104700D01*
X9347200Y-12282500D02*
X9271000Y-12282500D01*
G04 #@! TO.C,R10*
X9532620Y-12104700D02*
X9532620Y-12282500D01*
X9456420Y-12104700D02*
X9532620Y-12104700D01*
X9456420Y-12282500D02*
X9456420Y-12104700D01*
X9532620Y-12282500D02*
X9456420Y-12282500D01*
G04 #@! TO.C,R11*
X14691880Y-12376820D02*
X14514080Y-12376820D01*
X14691880Y-12300620D02*
X14691880Y-12376820D01*
X14514080Y-12300620D02*
X14691880Y-12300620D01*
X14514080Y-12376820D02*
X14514080Y-12300620D01*
G04 #@! TO.C,R12*
X16678160Y-13187080D02*
X16678160Y-13009280D01*
X16754360Y-13187080D02*
X16678160Y-13187080D01*
X16754360Y-13009280D02*
X16754360Y-13187080D01*
X16678160Y-13009280D02*
X16754360Y-13009280D01*
G04 #@! TO.C,R13*
X9659620Y-12104700D02*
X9659620Y-12282500D01*
X9583420Y-12104700D02*
X9659620Y-12104700D01*
X9583420Y-12282500D02*
X9583420Y-12104700D01*
X9659620Y-12282500D02*
X9583420Y-12282500D01*
G04 #@! TO.C,R14*
X9659620Y-12409500D02*
X9659620Y-12587300D01*
X9583420Y-12409500D02*
X9659620Y-12409500D01*
X9583420Y-12587300D02*
X9583420Y-12409500D01*
X9659620Y-12587300D02*
X9583420Y-12587300D01*
G04 #@! TO.C,R15*
X9532620Y-12409500D02*
X9532620Y-12587300D01*
X9456420Y-12409500D02*
X9532620Y-12409500D01*
X9456420Y-12587300D02*
X9456420Y-12409500D01*
X9532620Y-12587300D02*
X9456420Y-12587300D01*
G04 #@! TO.C,R16*
X9347200Y-12409500D02*
X9347200Y-12587300D01*
X9271000Y-12409500D02*
X9347200Y-12409500D01*
X9271000Y-12587300D02*
X9271000Y-12409500D01*
X9347200Y-12587300D02*
X9271000Y-12587300D01*
G04 #@! TO.C,R17*
X9220200Y-12409500D02*
X9220200Y-12587300D01*
X9144000Y-12409500D02*
X9220200Y-12409500D01*
X9144000Y-12587300D02*
X9144000Y-12409500D01*
X9220200Y-12587300D02*
X9144000Y-12587300D01*
G04 #@! TO.C,R18*
X6241300Y-13296300D02*
X6419100Y-13296300D01*
X6241300Y-13372500D02*
X6241300Y-13296300D01*
X6419100Y-13372500D02*
X6241300Y-13372500D01*
X6419100Y-13296300D02*
X6419100Y-13372500D01*
G04 #@! TO.C,R19*
X6858520Y-11294780D02*
X6858520Y-11116980D01*
X6934720Y-11294780D02*
X6858520Y-11294780D01*
X6934720Y-11116980D02*
X6934720Y-11294780D01*
X6858520Y-11116980D02*
X6934720Y-11116980D01*
G04 #@! TO.C,R20*
X10039350Y-12433630D02*
X10039350Y-12611430D01*
X9963150Y-12433630D02*
X10039350Y-12433630D01*
X9963150Y-12611430D02*
X9963150Y-12433630D01*
X10039350Y-12611430D02*
X9963150Y-12611430D01*
G04 #@! TO.C,R21*
X10166350Y-12433630D02*
X10166350Y-12611430D01*
X10090150Y-12433630D02*
X10166350Y-12433630D01*
X10090150Y-12611430D02*
X10090150Y-12433630D01*
X10166350Y-12611430D02*
X10090150Y-12611430D01*
G04 #@! TO.C,R22*
X10351770Y-12433630D02*
X10351770Y-12611430D01*
X10275570Y-12433630D02*
X10351770Y-12433630D01*
X10275570Y-12611430D02*
X10275570Y-12433630D01*
X10351770Y-12611430D02*
X10275570Y-12611430D01*
G04 #@! TO.C,R23*
X10478770Y-12433630D02*
X10478770Y-12611430D01*
X10402570Y-12433630D02*
X10478770Y-12433630D01*
X10402570Y-12611430D02*
X10402570Y-12433630D01*
X10478770Y-12611430D02*
X10402570Y-12611430D01*
G04 #@! TO.C,R25*
X11436350Y-13846810D02*
X11614150Y-13846810D01*
X11436350Y-13923010D02*
X11436350Y-13846810D01*
X11614150Y-13923010D02*
X11436350Y-13923010D01*
X11614150Y-13846810D02*
X11614150Y-13923010D01*
G04 #@! TO.C,R26*
X11436350Y-13745210D02*
X11614150Y-13745210D01*
X11436350Y-13821410D02*
X11436350Y-13745210D01*
X11614150Y-13821410D02*
X11436350Y-13821410D01*
X11614150Y-13745210D02*
X11614150Y-13821410D01*
G04 #@! TO.C,R27*
X13327900Y-16092840D02*
X13505700Y-16092840D01*
X13327900Y-16169040D02*
X13327900Y-16092840D01*
X13505700Y-16169040D02*
X13327900Y-16169040D01*
X13505700Y-16092840D02*
X13505700Y-16169040D01*
G04 #@! TO.C,R28*
X13254240Y-15780420D02*
X13432040Y-15780420D01*
X13254240Y-15856620D02*
X13254240Y-15780420D01*
X13432040Y-15856620D02*
X13254240Y-15856620D01*
X13432040Y-15780420D02*
X13432040Y-15856620D01*
G04 #@! TO.C,R30*
X6858520Y-12590180D02*
X6858520Y-12412380D01*
X6934720Y-12590180D02*
X6858520Y-12590180D01*
X6934720Y-12412380D02*
X6934720Y-12590180D01*
X6858520Y-12412380D02*
X6934720Y-12412380D01*
G04 #@! TO.C,R31*
X12781800Y-15694060D02*
X12781800Y-15871860D01*
X12705600Y-15694060D02*
X12781800Y-15694060D01*
X12705600Y-15871860D02*
X12705600Y-15694060D01*
X12781800Y-15871860D02*
X12705600Y-15871860D01*
G04 #@! TO.C,R32*
X12893560Y-15551820D02*
X12893560Y-15729620D01*
X12817360Y-15551820D02*
X12893560Y-15551820D01*
X12817360Y-15729620D02*
X12817360Y-15551820D01*
X12893560Y-15729620D02*
X12817360Y-15729620D01*
G04 #@! TO.C,R33*
X13454900Y-16608460D02*
X13454900Y-16430660D01*
X13531100Y-16608460D02*
X13454900Y-16608460D01*
X13531100Y-16430660D02*
X13531100Y-16608460D01*
X13454900Y-16430660D02*
X13531100Y-16430660D01*
G04 #@! TO.C,R34*
X12298680Y-15974060D02*
X12476480Y-15974060D01*
X12298680Y-16050260D02*
X12298680Y-15974060D01*
X12476480Y-16050260D02*
X12298680Y-16050260D01*
X12476480Y-15974060D02*
X12476480Y-16050260D01*
G04 #@! TO.C,R36*
X7701520Y-16977400D02*
X7701520Y-16799600D01*
X7777720Y-16977400D02*
X7701520Y-16977400D01*
X7777720Y-16799600D02*
X7777720Y-16977400D01*
X7701520Y-16799600D02*
X7777720Y-16799600D01*
G04 #@! TO.C,R37*
X15994900Y-12455560D02*
X16172700Y-12455560D01*
X15994900Y-12531760D02*
X15994900Y-12455560D01*
X16172700Y-12531760D02*
X15994900Y-12531760D01*
X16172700Y-12455560D02*
X16172700Y-12531760D01*
G04 #@! TO.C,R41*
X13886700Y-12585100D02*
X14064500Y-12585100D01*
X13886700Y-12661300D02*
X13886700Y-12585100D01*
X14064500Y-12661300D02*
X13886700Y-12661300D01*
X14064500Y-12585100D02*
X14064500Y-12661300D01*
G04 #@! TO.C,R46*
X17435600Y-11614220D02*
X17257800Y-11614220D01*
X17435600Y-11538020D02*
X17435600Y-11614220D01*
X17257800Y-11538020D02*
X17435600Y-11538020D01*
X17257800Y-11614220D02*
X17257800Y-11538020D01*
G04 #@! TO.C,R47*
X17435600Y-11715820D02*
X17257800Y-11715820D01*
X17435600Y-11639620D02*
X17435600Y-11715820D01*
X17257800Y-11639620D02*
X17435600Y-11639620D01*
X17257800Y-11715820D02*
X17257800Y-11639620D01*
G04 #@! TO.C,R48*
X16617200Y-15061600D02*
X16439400Y-15061600D01*
X16617200Y-14985400D02*
X16617200Y-15061600D01*
X16439400Y-14985400D02*
X16617200Y-14985400D01*
X16439400Y-15061600D02*
X16439400Y-14985400D01*
G04 #@! TO.C,R49*
X6825500Y-11010300D02*
X6825500Y-11188100D01*
X6749300Y-11010300D02*
X6825500Y-11010300D01*
X6749300Y-11188100D02*
X6749300Y-11010300D01*
X6825500Y-11188100D02*
X6749300Y-11188100D01*
G04 #@! TO.C,R51*
X16081260Y-11972960D02*
X15903460Y-11972960D01*
X16081260Y-11896760D02*
X16081260Y-11972960D01*
X15903460Y-11896760D02*
X16081260Y-11896760D01*
X15903460Y-11972960D02*
X15903460Y-11896760D01*
G04 #@! TO.C,R52*
X17676900Y-10966520D02*
X17676900Y-10788720D01*
X17753100Y-10966520D02*
X17676900Y-10966520D01*
X17753100Y-10788720D02*
X17753100Y-10966520D01*
X17676900Y-10788720D02*
X17753100Y-10788720D01*
G04 #@! TO.C,R54*
X16254500Y-11157020D02*
X16432300Y-11157020D01*
X16254500Y-11233220D02*
X16254500Y-11157020D01*
X16432300Y-11233220D02*
X16254500Y-11233220D01*
X16432300Y-11157020D02*
X16432300Y-11233220D01*
G04 #@! TO.C,R55*
X17435600Y-10979220D02*
X17257800Y-10979220D01*
X17435600Y-10903020D02*
X17435600Y-10979220D01*
X17257800Y-10903020D02*
X17435600Y-10903020D01*
X17257800Y-10979220D02*
X17257800Y-10903020D01*
G04 #@! TO.C,R56*
X17435600Y-10877620D02*
X17257800Y-10877620D01*
X17435600Y-10801420D02*
X17435600Y-10877620D01*
X17257800Y-10801420D02*
X17435600Y-10801420D01*
X17257800Y-10877620D02*
X17257800Y-10801420D01*
G04 #@! TO.C,R57*
X16309580Y-12646700D02*
X16309580Y-12468900D01*
X16385780Y-12646700D02*
X16309580Y-12646700D01*
X16385780Y-12468900D02*
X16385780Y-12646700D01*
X16309580Y-12468900D02*
X16385780Y-12468900D01*
G04 #@! TO.C,R58*
X16309580Y-12435880D02*
X16309580Y-12258080D01*
X16385780Y-12435880D02*
X16309580Y-12435880D01*
X16385780Y-12258080D02*
X16385780Y-12435880D01*
X16309580Y-12258080D02*
X16385780Y-12258080D01*
G04 #@! TO.C,R59*
X14191500Y-15676280D02*
X14013700Y-15676280D01*
X14191500Y-15600080D02*
X14191500Y-15676280D01*
X14013700Y-15600080D02*
X14191500Y-15600080D01*
X14013700Y-15676280D02*
X14013700Y-15600080D01*
G04 #@! TO.C,R62*
X15908540Y-12127900D02*
X16086340Y-12127900D01*
X15908540Y-12204100D02*
X15908540Y-12127900D01*
X16086340Y-12204100D02*
X15908540Y-12204100D01*
X16086340Y-12127900D02*
X16086340Y-12204100D01*
G04 #@! TO.C,R63*
X15657080Y-11914540D02*
X15657080Y-12092340D01*
X15580880Y-11914540D02*
X15657080Y-11914540D01*
X15580880Y-12092340D02*
X15580880Y-11914540D01*
X15657080Y-12092340D02*
X15580880Y-12092340D01*
G04 #@! TO.C,R64*
X15466580Y-12201560D02*
X15466580Y-12023760D01*
X15542780Y-12201560D02*
X15466580Y-12201560D01*
X15542780Y-12023760D02*
X15542780Y-12201560D01*
X15466580Y-12023760D02*
X15542780Y-12023760D01*
G04 #@! TO.C,R65*
X16088880Y-12320940D02*
X15911080Y-12320940D01*
X16088880Y-12244740D02*
X16088880Y-12320940D01*
X15911080Y-12244740D02*
X16088880Y-12244740D01*
X15911080Y-12320940D02*
X15911080Y-12244740D01*
G04 #@! TO.C,R66*
X15773920Y-11718960D02*
X15596120Y-11718960D01*
X15773920Y-11642760D02*
X15773920Y-11718960D01*
X15596120Y-11642760D02*
X15773920Y-11642760D01*
X15596120Y-11718960D02*
X15596120Y-11642760D01*
G04 #@! TO.C,R67*
X14064500Y-12407300D02*
X13886700Y-12407300D01*
X14064500Y-12331100D02*
X14064500Y-12407300D01*
X13886700Y-12331100D02*
X14064500Y-12331100D01*
X13886700Y-12407300D02*
X13886700Y-12331100D01*
G04 #@! TO.C,R68*
X14064500Y-12534300D02*
X13886700Y-12534300D01*
X14064500Y-12458100D02*
X14064500Y-12534300D01*
X13886700Y-12458100D02*
X14064500Y-12458100D01*
X13886700Y-12534300D02*
X13886700Y-12458100D01*
G04 #@! TO.C,R69*
X15722226Y-12875730D02*
X15847950Y-12750007D01*
X15776108Y-12929612D02*
X15722226Y-12875730D01*
X15901831Y-12803888D02*
X15776108Y-12929612D01*
X15847950Y-12750007D02*
X15901831Y-12803888D01*
G04 #@! TO.C,R72*
X6241300Y-13753500D02*
X6419100Y-13753500D01*
X6241300Y-13829700D02*
X6241300Y-13753500D01*
X6419100Y-13829700D02*
X6241300Y-13829700D01*
X6419100Y-13753500D02*
X6419100Y-13829700D01*
G04 #@! TO.C,R73*
X6241300Y-14210700D02*
X6419100Y-14210700D01*
X6241300Y-14286900D02*
X6241300Y-14210700D01*
X6419100Y-14286900D02*
X6241300Y-14286900D01*
X6419100Y-14210700D02*
X6419100Y-14286900D01*
G04 #@! TO.C,R74*
X6241300Y-14667900D02*
X6419100Y-14667900D01*
X6241300Y-14744100D02*
X6241300Y-14667900D01*
X6419100Y-14744100D02*
X6241300Y-14744100D01*
X6419100Y-14667900D02*
X6419100Y-14744100D01*
G04 #@! TO.C,R75*
X6215900Y-11632600D02*
X6393700Y-11632600D01*
X6215900Y-11708800D02*
X6215900Y-11632600D01*
X6393700Y-11708800D02*
X6215900Y-11708800D01*
X6393700Y-11632600D02*
X6393700Y-11708800D01*
G04 #@! TO.C,R76*
X6241300Y-12902600D02*
X6419100Y-12902600D01*
X6241300Y-12978800D02*
X6241300Y-12902600D01*
X6419100Y-12978800D02*
X6241300Y-12978800D01*
X6419100Y-12902600D02*
X6419100Y-12978800D01*
G04 #@! TO.C,R77*
X14122400Y-11511280D02*
X13944600Y-11511280D01*
X14122400Y-11435080D02*
X14122400Y-11511280D01*
X13944600Y-11435080D02*
X14122400Y-11435080D01*
X13944600Y-11511280D02*
X13944600Y-11435080D01*
G04 #@! TO.C,R78*
X14122400Y-11612880D02*
X13944600Y-11612880D01*
X14122400Y-11536680D02*
X14122400Y-11612880D01*
X13944600Y-11536680D02*
X14122400Y-11536680D01*
X13944600Y-11612880D02*
X13944600Y-11536680D01*
G04 #@! TO.C,R79*
X14122400Y-11714480D02*
X13944600Y-11714480D01*
X14122400Y-11638280D02*
X14122400Y-11714480D01*
X13944600Y-11638280D02*
X14122400Y-11638280D01*
X13944600Y-11714480D02*
X13944600Y-11638280D01*
G04 #@! TO.C,R80*
X14122400Y-11816080D02*
X13944600Y-11816080D01*
X14122400Y-11739880D02*
X14122400Y-11816080D01*
X13944600Y-11739880D02*
X14122400Y-11739880D01*
X13944600Y-11816080D02*
X13944600Y-11739880D01*
G04 #@! TO.C,R81*
X14122400Y-11917680D02*
X13944600Y-11917680D01*
X14122400Y-11841480D02*
X14122400Y-11917680D01*
X13944600Y-11841480D02*
X14122400Y-11841480D01*
X13944600Y-11917680D02*
X13944600Y-11841480D01*
G04 #@! TO.C,R85*
X13195820Y-16839600D02*
X13195820Y-17017400D01*
X13119620Y-16839600D02*
X13195820Y-16839600D01*
X13119620Y-17017400D02*
X13119620Y-16839600D01*
X13195820Y-17017400D02*
X13119620Y-17017400D01*
G04 #@! TO.C,R86*
X14122400Y-12019280D02*
X13944600Y-12019280D01*
X14122400Y-11943080D02*
X14122400Y-12019280D01*
X13944600Y-11943080D02*
X14122400Y-11943080D01*
X13944600Y-12019280D02*
X13944600Y-11943080D01*
G04 #@! TO.C,R87*
X14122400Y-12120880D02*
X13944600Y-12120880D01*
X14122400Y-12044680D02*
X14122400Y-12120880D01*
X13944600Y-12044680D02*
X14122400Y-12044680D01*
X13944600Y-12120880D02*
X13944600Y-12044680D01*
G04 #@! TO.C,R88*
X13396480Y-12935620D02*
X13396480Y-12757820D01*
X13472680Y-12935620D02*
X13396480Y-12935620D01*
X13472680Y-12757820D02*
X13472680Y-12935620D01*
X13396480Y-12757820D02*
X13472680Y-12757820D01*
G04 #@! TO.C,R89*
X13243560Y-12938760D02*
X13243560Y-12760960D01*
X13319760Y-12938760D02*
X13243560Y-12938760D01*
X13319760Y-12760960D02*
X13319760Y-12938760D01*
X13243560Y-12760960D02*
X13319760Y-12760960D01*
G04 #@! TO.C,R90*
X13141960Y-12938760D02*
X13141960Y-12760960D01*
X13218160Y-12938760D02*
X13141960Y-12938760D01*
X13218160Y-12760960D02*
X13218160Y-12938760D01*
X13141960Y-12760960D02*
X13218160Y-12760960D01*
G04 #@! TO.C,R91*
X13040360Y-12938760D02*
X13040360Y-12760960D01*
X13116560Y-12938760D02*
X13040360Y-12938760D01*
X13116560Y-12760960D02*
X13116560Y-12938760D01*
X13040360Y-12760960D02*
X13116560Y-12760960D01*
G04 #@! TO.C,R93*
X14191500Y-15556900D02*
X14013700Y-15556900D01*
X14191500Y-15480700D02*
X14191500Y-15556900D01*
X14013700Y-15480700D02*
X14191500Y-15480700D01*
X14013700Y-15556900D02*
X14013700Y-15480700D01*
G04 #@! TO.C,R94*
X13310120Y-16280800D02*
X13132320Y-16280800D01*
X13310120Y-16204600D02*
X13310120Y-16280800D01*
X13132320Y-16204600D02*
X13310120Y-16204600D01*
X13132320Y-16280800D02*
X13132320Y-16204600D01*
G04 #@! TO.C,R96*
X12938760Y-12938760D02*
X12938760Y-12760960D01*
X13014960Y-12938760D02*
X12938760Y-12938760D01*
X13014960Y-12760960D02*
X13014960Y-12938760D01*
X12938760Y-12760960D02*
X13014960Y-12760960D01*
G04 #@! TO.C,R98*
X12832600Y-12940700D02*
X12832600Y-12762900D01*
X12908800Y-12940700D02*
X12832600Y-12940700D01*
X12908800Y-12762900D02*
X12908800Y-12940700D01*
X12832600Y-12762900D02*
X12908800Y-12762900D01*
G04 #@! TO.C,R99*
X12731000Y-12940700D02*
X12731000Y-12762900D01*
X12807200Y-12940700D02*
X12731000Y-12940700D01*
X12807200Y-12762900D02*
X12807200Y-12940700D01*
X12731000Y-12762900D02*
X12807200Y-12762900D01*
G04 #@! TO.C,R100*
X12629400Y-12940700D02*
X12629400Y-12762900D01*
X12705600Y-12940700D02*
X12629400Y-12940700D01*
X12705600Y-12762900D02*
X12705600Y-12940700D01*
X12629400Y-12762900D02*
X12705600Y-12762900D01*
G04 #@! TO.C,R104*
X12899320Y-16838700D02*
X12721520Y-16838700D01*
X12899320Y-16762500D02*
X12899320Y-16838700D01*
X12721520Y-16762500D02*
X12899320Y-16762500D01*
X12721520Y-16838700D02*
X12721520Y-16762500D01*
G04 #@! TO.C,R105*
X13140620Y-16610100D02*
X13140620Y-16432300D01*
X13216820Y-16610100D02*
X13140620Y-16610100D01*
X13216820Y-16432300D02*
X13216820Y-16610100D01*
X13140620Y-16432300D02*
X13216820Y-16432300D01*
G04 #@! TO.C,SW1*
X6670000Y-12790000D02*
X6670000Y-12750000D01*
X6670000Y-12090000D02*
X6670000Y-12130000D01*
X6010000Y-12090000D02*
X6010000Y-12790000D01*
X6380000Y-12090000D02*
X6380000Y-12790000D01*
X6670000Y-12130000D02*
X6380000Y-12130000D01*
X6670000Y-12750000D02*
X6380000Y-12750000D01*
X6670000Y-12790000D02*
X6010000Y-12790000D01*
X6010000Y-12090000D02*
X6670000Y-12090000D01*
X5980000Y-12615000D02*
X6010000Y-12615000D01*
X5980000Y-12265000D02*
X5980000Y-12615000D01*
X6010000Y-12265000D02*
X5980000Y-12265000D01*
G04 #@! TO.C,SW2*
X6670000Y-11490000D02*
X6670000Y-11450000D01*
X6670000Y-10790000D02*
X6670000Y-10830000D01*
X6010000Y-10790000D02*
X6010000Y-11490000D01*
X6380000Y-10790000D02*
X6380000Y-11490000D01*
X6670000Y-10830000D02*
X6380000Y-10830000D01*
X6670000Y-11450000D02*
X6380000Y-11450000D01*
X6670000Y-11490000D02*
X6010000Y-11490000D01*
X6010000Y-10790000D02*
X6670000Y-10790000D01*
X5980000Y-11315000D02*
X6010000Y-11315000D01*
X5980000Y-10965000D02*
X5980000Y-11315000D01*
X6010000Y-10965000D02*
X5980000Y-10965000D01*
G04 #@! TO.C,T1*
X9581064Y-16516262D02*
X9451016Y-16516262D01*
X9581064Y-16306458D02*
X9451016Y-16306458D01*
X9523224Y-16476384D02*
G75*
G03*
X9523224Y-16476384I-7184J0D01*
G01*
X9581064Y-16516262D02*
X9581064Y-16306458D01*
X9451016Y-16306458D02*
X9451016Y-16516262D01*
G04 #@! TO.C,T2*
X10177202Y-15762136D02*
X10177202Y-15892184D01*
X9967398Y-15762136D02*
X9967398Y-15892184D01*
X10144508Y-15827160D02*
G75*
G03*
X10144508Y-15827160I-7184J0D01*
G01*
X10177202Y-15762136D02*
X9967398Y-15762136D01*
X9967398Y-15892184D02*
X10177202Y-15892184D01*
G04 #@! TO.C,T3*
X10710672Y-15074900D02*
X10790428Y-15074900D01*
X10790428Y-15234920D02*
X10780522Y-15234920D01*
X10710672Y-15234920D02*
X10750550Y-15234920D01*
X10710672Y-15234920D02*
X10710672Y-15074900D01*
X10790428Y-15074900D02*
X10790428Y-15204948D01*
G04 #@! TO.C,T4*
X11015472Y-15074900D02*
X11095228Y-15074900D01*
X11095228Y-15234920D02*
X11085322Y-15234920D01*
X11015472Y-15234920D02*
X11055350Y-15234920D01*
X11015472Y-15234920D02*
X11015472Y-15074900D01*
X11095228Y-15074900D02*
X11095228Y-15204948D01*
G04 #@! TO.C,U3*
X8078188Y-14250462D02*
X8127972Y-14250462D01*
X8127972Y-14335298D02*
X8078188Y-14335298D01*
D17*
X8017990Y-14290340D02*
X8017990Y-14300500D01*
X8188170Y-14290340D02*
X8188170Y-14300500D01*
D10*
X7996400Y-14219220D02*
X7996400Y-14280180D01*
X8082760Y-14219220D02*
X7996400Y-14219220D01*
G04 #@! TO.C,U8*
X8197060Y-13731540D02*
X8115780Y-13731540D01*
X8197060Y-13843300D02*
X8197060Y-13731540D01*
X8115780Y-13843300D02*
X8197060Y-13843300D01*
D17*
G04 #@! TO.C,U9*
X7860100Y-14555400D02*
X7710100Y-14555400D01*
X7710100Y-14675400D02*
X7710100Y-14665400D01*
X7710100Y-14635400D02*
X7710100Y-14625400D01*
X7710100Y-14595400D02*
X7710100Y-14585400D01*
X7860100Y-14585400D02*
X7860100Y-14595400D01*
X7860100Y-14625400D02*
X7860100Y-14635400D01*
X7860100Y-14665400D02*
X7860100Y-14675400D01*
X7874242Y-14725400D02*
G75*
G03*
X7874242Y-14725400I-14142J0D01*
G01*
X7710100Y-14705400D02*
X7835100Y-14705400D01*
G04 #@! TO.C,U12*
X7696000Y-15305900D02*
X7696000Y-15455900D01*
X7816000Y-15455900D02*
X7806000Y-15455900D01*
X7776000Y-15455900D02*
X7766000Y-15455900D01*
X7736000Y-15455900D02*
X7726000Y-15455900D01*
X7726000Y-15305900D02*
X7736000Y-15305900D01*
X7766000Y-15305900D02*
X7776000Y-15305900D01*
X7806000Y-15305900D02*
X7816000Y-15305900D01*
X7880142Y-15305900D02*
G75*
G03*
X7880142Y-15305900I-14142J0D01*
G01*
X7846000Y-15455900D02*
X7846000Y-15330900D01*
D10*
G04 #@! TO.C,U20*
X15808960Y-16131540D02*
X16342360Y-16131540D01*
X15808960Y-15598140D02*
X15808960Y-16131540D01*
X16342360Y-15598140D02*
X15808960Y-15598140D01*
X16342360Y-16131540D02*
X16342360Y-15598140D01*
X16291560Y-16029940D02*
G75*
G03*
X16291560Y-16029940I-50800J0D01*
G01*
G04 #@! TO.C,U21*
X17103114Y-11045006D02*
X17027930Y-11045006D01*
X17103114Y-11070152D02*
X17103114Y-11045006D01*
X16802886Y-11045006D02*
X16802886Y-11070152D01*
X16878070Y-11045006D02*
X16802886Y-11045006D01*
X16802886Y-11345234D02*
X16878070Y-11345234D01*
X16802886Y-11320088D02*
X16802886Y-11345234D01*
X17152898Y-11370126D02*
G75*
G03*
X17152898Y-11370126I-24892J0D01*
G01*
X17027930Y-11345234D02*
X17103114Y-11345234D01*
X17103114Y-11320088D02*
X17103114Y-11345234D01*
D18*
G04 #@! TO.C,U23*
X16480519Y-14014427D02*
X16356771Y-14138175D01*
X16356771Y-13890679D02*
X16480519Y-14014427D01*
X14924779Y-12458687D02*
X14801031Y-12582435D01*
X15048527Y-12582435D02*
X14924779Y-12458687D01*
X13369040Y-14014427D02*
X13492788Y-14138175D01*
X13492788Y-13890679D02*
X13369040Y-14014427D01*
X14924779Y-15570167D02*
X15048527Y-15446419D01*
X14801031Y-15446419D02*
X14924779Y-15570167D01*
X16237189Y-14014427D02*
G75*
G03*
X16237189Y-14014427I-74930J0D01*
G01*
G04 #@! TO.C,U24*
X13474700Y-10901680D02*
X13324586Y-10901680D01*
X13474700Y-11051794D02*
X13474700Y-10901680D01*
X11874500Y-10901680D02*
X11874500Y-11051794D01*
X12024614Y-10901680D02*
X11874500Y-10901680D01*
X11874500Y-12501880D02*
X12024614Y-12501880D01*
X11874500Y-12351766D02*
X11874500Y-12501880D01*
X13474700Y-12501880D02*
X13474700Y-12351766D01*
X13324586Y-12501880D02*
X13474700Y-12501880D01*
X13324586Y-11126724D02*
G75*
G03*
X13324586Y-11126724I-74930J0D01*
G01*
D10*
G04 #@! TO.C,X1*
X12342552Y-16901692D02*
X12342552Y-16851908D01*
X12592488Y-16901692D02*
X12592488Y-16851908D01*
X12477426Y-16716780D02*
X12457614Y-16716780D01*
X12477426Y-17036820D02*
X12457614Y-17036820D01*
G04 #@! TO.C,X2*
X16208956Y-13164176D02*
X16244159Y-13128974D01*
X16385687Y-13340908D02*
X16420890Y-13305705D01*
X16435079Y-13128794D02*
X16421070Y-13114785D01*
X16208776Y-13355097D02*
X16194767Y-13341087D01*
G04 #@! TO.C,X3*
X16080000Y-15440000D02*
X16080000Y-15260000D01*
X16840000Y-15440000D02*
X16080000Y-15440000D01*
X16840000Y-15260000D02*
X16840000Y-15440000D01*
X16080000Y-15260000D02*
X16840000Y-15260000D01*
G04 #@! TO.C,U4*
X9012040Y-15526360D02*
X9012040Y-15571360D01*
X9057040Y-15526360D02*
X9012040Y-15526360D01*
X9012040Y-16026360D02*
X9057040Y-16026360D01*
X9012040Y-15981360D02*
X9012040Y-16026360D01*
X9512040Y-16026360D02*
X9512040Y-15981360D01*
X9467040Y-16026360D02*
X9512040Y-16026360D01*
X9477040Y-15526360D02*
X9467040Y-15526360D01*
X9512040Y-15561360D02*
X9477040Y-15526360D01*
X9512040Y-15571860D02*
X9512040Y-15561360D01*
G04 #@! TO.C,U17*
X10564876Y-13889736D02*
X10604754Y-13889736D01*
X10564876Y-13929614D02*
X10564876Y-13889736D01*
X11164824Y-13889736D02*
X11164824Y-13929614D01*
X11124946Y-13889736D02*
X11164824Y-13889736D01*
X11164824Y-14489684D02*
X11124946Y-14489684D01*
X11164824Y-14449806D02*
X11164824Y-14489684D01*
X10604754Y-14489684D02*
X10564876Y-14449806D01*
G04 #@! TO.C,U18*
X10639552Y-11596192D02*
X10639552Y-11556060D01*
X10599420Y-11596192D02*
X10639552Y-11596192D01*
X10639552Y-10896168D02*
X10599420Y-10896168D01*
X10639552Y-10936300D02*
X10639552Y-10896168D01*
X9939528Y-10896168D02*
X9939528Y-10936300D01*
X9979660Y-10896168D02*
X9939528Y-10896168D01*
X9939528Y-11556060D02*
X9979660Y-11596192D01*
G04 #@! TO.C,C117*
X7417040Y-15773440D02*
X7239240Y-15773440D01*
X7417040Y-15697240D02*
X7417040Y-15773440D01*
X7239240Y-15697240D02*
X7417040Y-15697240D01*
X7239240Y-15773440D02*
X7239240Y-15697240D01*
G04 #@! TO.C,C172*
X7102080Y-15976640D02*
X7102080Y-16154440D01*
X7025880Y-15976640D02*
X7102080Y-15976640D01*
X7025880Y-16154440D02*
X7025880Y-15976640D01*
X7102080Y-16154440D02*
X7025880Y-16154440D01*
G04 #@! TO.C,R38*
X7272260Y-15875040D02*
X7094460Y-15875040D01*
X7272260Y-15798840D02*
X7272260Y-15875040D01*
X7094460Y-15798840D02*
X7272260Y-15798840D01*
X7094460Y-15875040D02*
X7094460Y-15798840D01*
G04 #@! TO.C,R39*
X7386560Y-16571000D02*
X7208760Y-16571000D01*
X7386560Y-16494800D02*
X7386560Y-16571000D01*
X7208760Y-16494800D02*
X7386560Y-16494800D01*
X7208760Y-16571000D02*
X7208760Y-16494800D01*
G04 #@! TO.C,R40*
X7203680Y-16141740D02*
X7381480Y-16141740D01*
X7203680Y-16217940D02*
X7203680Y-16141740D01*
X7381480Y-16217940D02*
X7203680Y-16217940D01*
X7381480Y-16141740D02*
X7381480Y-16217940D01*
G04 #@! TO.C,C173*
X7297660Y-16791980D02*
X7221460Y-16791980D01*
X7221460Y-16791980D02*
X7221460Y-16614180D01*
X7221460Y-16614180D02*
X7297660Y-16614180D01*
X7297660Y-16614180D02*
X7297660Y-16791980D01*
G04 #@! TO.C,L14*
X6873480Y-16350020D02*
X6873480Y-16624340D01*
X6873480Y-16624340D02*
X6995400Y-16624340D01*
X6995400Y-16624340D02*
X6995400Y-16350020D01*
X6995400Y-16350020D02*
X6873480Y-16350020D01*
G04 #@! TO.C,R42*
X7023340Y-16398280D02*
X7099540Y-16398280D01*
X7099540Y-16398280D02*
X7099540Y-16576080D01*
X7099540Y-16576080D02*
X7023340Y-16576080D01*
X7023340Y-16576080D02*
X7023340Y-16398280D01*
G04 #@! TO.C,R43*
X7025880Y-16362720D02*
X7025880Y-16184920D01*
X7102080Y-16362720D02*
X7025880Y-16362720D01*
X7102080Y-16184920D02*
X7102080Y-16362720D01*
X7025880Y-16184920D02*
X7102080Y-16184920D01*
G04 #@! TO.C,R44*
X7183360Y-16614180D02*
X7183360Y-16791980D01*
X7107160Y-16614180D02*
X7183360Y-16614180D01*
X7107160Y-16791980D02*
X7107160Y-16614180D01*
X7183360Y-16791980D02*
X7107160Y-16791980D01*
D15*
G04 #@! TO.C,U13*
X7020660Y-15336320D02*
X7220660Y-15336320D01*
X7220660Y-15560320D02*
X7120660Y-15560320D01*
G04 #@! TO.C,U25*
X8136100Y-15529460D02*
X8136100Y-15729460D01*
X7912100Y-15729460D02*
X7912100Y-15629460D01*
D10*
G04 #@! TO.C,P90*
X7269720Y-12222520D02*
G75*
G03*
X7269720Y-12222520I-71120J0D01*
G01*
G04 #@! TO.C,P45*
X7536420Y-13883680D02*
G75*
G03*
X7536420Y-13883680I-71120J0D01*
G01*
G04 #@! TO.C,C29*
X7577060Y-13919240D02*
X7577060Y-13741440D01*
X7653260Y-13919240D02*
X7577060Y-13919240D01*
X7653260Y-13741440D02*
X7653260Y-13919240D01*
X7577060Y-13741440D02*
X7653260Y-13741440D01*
D16*
G04 #@! TO.C,D10*
X7054760Y-15815020D02*
X6854760Y-15815020D01*
X7054760Y-15615020D02*
X7054760Y-15815020D01*
X6854760Y-15615020D02*
X7054760Y-15615020D01*
X6854760Y-15815020D02*
X6854760Y-15615020D01*
G04 #@! TO.C,D11*
X7451000Y-16455100D02*
X7251000Y-16455100D01*
X7451000Y-16255100D02*
X7451000Y-16455100D01*
X7251000Y-16255100D02*
X7451000Y-16255100D01*
X7251000Y-16455100D02*
X7251000Y-16255100D01*
G04 #@! TO.C,D12*
X7336700Y-15912200D02*
X7336700Y-16112200D01*
X7336700Y-16112200D02*
X7136700Y-16112200D01*
X7136700Y-16112200D02*
X7136700Y-15912200D01*
X7136700Y-15912200D02*
X7336700Y-15912200D01*
D15*
G04 #@! TO.C,U15*
X16835360Y-12164640D02*
X16490360Y-12164640D01*
X16835360Y-12164640D02*
X17030360Y-12164640D01*
X16835360Y-12676640D02*
X16640360Y-12676640D01*
X16835360Y-12676640D02*
X17030360Y-12676640D01*
G04 #@! TD*
D20*
G36*
X12196800Y-10612660D02*
G01*
X10522200Y-10612660D01*
X10522200Y-10138060D01*
X12196800Y-10138060D01*
X12196800Y-10612660D01*
G37*
X12196800Y-10612660D02*
X10522200Y-10612660D01*
X10522200Y-10138060D01*
X12196800Y-10138060D01*
X12196800Y-10612660D01*
M02*
