G04 #@! TF.GenerationSoftware,KiCad,Pcbnew,(5.1.6-0-10_14)*
G04 #@! TF.CreationDate,2020-08-12T12:58:02+10:00*
G04 #@! TF.ProjectId,hackrf-one,6861636b-7266-42d6-9f6e-652e6b696361,rev?*
G04 #@! TF.SameCoordinates,Original*
G04 #@! TF.FileFunction,Paste,Top*
G04 #@! TF.FilePolarity,Positive*
%FSLAX45Y45*%
G04 Gerber Fmt 4.5, Leading zero omitted, Abs format (unit mm)*
G04 Created by KiCad (PCBNEW (5.1.6-0-10_14)) date 2020-08-12 12:58:02*
%MOMM*%
%LPD*%
G01*
G04 APERTURE LIST*
%ADD10R,0.684000X0.608000*%
%ADD11R,1.890000X1.575000*%
%ADD12R,1.314000X1.926000*%
%ADD13R,1.596000X1.045000*%
%ADD14R,1.330000X0.304000*%
%ADD15R,0.144000X0.288000*%
%ADD16R,0.489600X0.192000*%
%ADD17R,0.288000X0.144000*%
%ADD18R,0.192000X0.489600*%
%ADD19R,0.694944X0.694944*%
%ADD20R,0.424688X0.386080*%
%ADD21R,1.078000X0.588000*%
%ADD22R,0.182400X0.608000*%
%ADD23R,1.003200X1.003200*%
%ADD24O,0.912000X0.243200*%
%ADD25O,0.243200X0.912000*%
%ADD26R,0.760000X1.140000*%
%ADD27R,0.386080X0.424688*%
%ADD28R,1.094536X0.874472*%
%ADD29R,0.874472X1.094536*%
%ADD30C,0.150000*%
%ADD31R,1.558000X2.774000*%
%ADD32R,0.656336X0.656336*%
%ADD33R,2.812592X0.911148*%
%ADD34R,0.250952X0.310794*%
%ADD35R,0.310794X0.250952*%
%ADD36R,0.418896X0.189180*%
%ADD37R,0.380288X0.303072*%
%ADD38R,0.455574X0.380288*%
%ADD39R,0.380288X0.532790*%
%ADD40R,0.588000X1.078000*%
%ADD41R,0.608000X0.182400*%
%ADD42R,1.447800X0.482600*%
%ADD43R,0.212800X0.532000*%
%ADD44R,0.627000X0.912000*%
%ADD45R,0.646000X0.212800*%
%ADD46R,1.140866X0.223926*%
%ADD47R,0.223926X1.140866*%
%ADD48R,0.911148X1.063650*%
%ADD49R,1.824000X1.140000*%
%ADD50R,0.836000X0.456000*%
%ADD51O,1.026000X0.212800*%
%ADD52O,0.212800X1.026000*%
%ADD53R,0.836000X0.836000*%
%ADD54R,1.140000X1.140000*%
%ADD55O,0.661200X0.186200*%
%ADD56O,0.186200X0.661200*%
%ADD57R,1.254000X1.254000*%
%ADD58O,0.684000X0.212800*%
%ADD59O,0.212800X0.684000*%
%ADD60R,0.750000X0.650000*%
%ADD61R,0.380000X0.190000*%
%ADD62R,0.650000X0.750000*%
%ADD63R,0.190000X0.380000*%
%ADD64R,0.259200X0.528000*%
G04 APERTURE END LIST*
D10*
G04 #@! TO.C,D3*
X17113312Y-16174506D03*
X17313312Y-16079506D03*
X17313312Y-16269506D03*
G04 #@! TD*
G04 #@! TO.C,D1*
X17040922Y-16717304D03*
X17240922Y-16622304D03*
X17240922Y-16812304D03*
G04 #@! TD*
D11*
G04 #@! TO.C,J1*
X17885000Y-12000000D03*
X17885000Y-12800000D03*
D12*
X17577000Y-12117000D03*
X17577000Y-12683000D03*
D13*
X17885000Y-12306250D03*
X17885000Y-12493750D03*
D14*
X17597500Y-12270000D03*
X17597500Y-12335000D03*
X17597500Y-12400000D03*
X17597500Y-12465000D03*
X17597500Y-12530000D03*
G04 #@! TD*
D15*
G04 #@! TO.C,U5*
X7759540Y-14091160D03*
D16*
X7689940Y-14041160D03*
D15*
X7709540Y-13991160D03*
X7759540Y-13991160D03*
D16*
X7779140Y-14041160D03*
D15*
X7709540Y-14091160D03*
G04 #@! TD*
G04 #@! TO.C,U6*
X8428360Y-13993700D03*
D16*
X8497960Y-14043700D03*
D15*
X8478360Y-14093700D03*
X8428360Y-14093700D03*
D16*
X8408760Y-14043700D03*
D15*
X8478360Y-13993700D03*
G04 #@! TD*
G04 #@! TO.C,U1*
X10521320Y-16655620D03*
D16*
X10590920Y-16705620D03*
D15*
X10571320Y-16755620D03*
X10521320Y-16755620D03*
D16*
X10501720Y-16705620D03*
D15*
X10571320Y-16655620D03*
G04 #@! TD*
D17*
G04 #@! TO.C,U2*
X8944380Y-14505580D03*
D18*
X8994380Y-14435980D03*
D17*
X9044380Y-14455580D03*
X9044380Y-14505580D03*
D18*
X8994380Y-14525180D03*
D17*
X8944380Y-14455580D03*
G04 #@! TD*
G04 #@! TO.C,U7*
X9848620Y-16649340D03*
D18*
X9898620Y-16579740D03*
D17*
X9948620Y-16599340D03*
X9948620Y-16649340D03*
D18*
X9898620Y-16668940D03*
D17*
X9848620Y-16599340D03*
G04 #@! TD*
D15*
G04 #@! TO.C,U10*
X10619580Y-15866620D03*
D16*
X10549980Y-15816620D03*
D15*
X10569580Y-15766620D03*
X10619580Y-15766620D03*
D16*
X10639180Y-15816620D03*
D15*
X10569580Y-15866620D03*
G04 #@! TD*
D17*
G04 #@! TO.C,U11*
X10912880Y-15651120D03*
D18*
X10962880Y-15581520D03*
D17*
X11012880Y-15601120D03*
X11012880Y-15651120D03*
D18*
X10962880Y-15670720D03*
D17*
X10912880Y-15601120D03*
G04 #@! TD*
D19*
G04 #@! TO.C,Q1*
X7237600Y-15034300D03*
X7326500Y-14831100D03*
X7148700Y-14831100D03*
G04 #@! TD*
D20*
G04 #@! TO.C,C63*
X7864080Y-16283980D03*
X7864080Y-16390660D03*
G04 #@! TD*
D21*
G04 #@! TO.C,U14*
X7526260Y-15911760D03*
D22*
X7466260Y-15816760D03*
X7506260Y-15816760D03*
X7546260Y-15816760D03*
X7586260Y-15816760D03*
X7586260Y-16006760D03*
X7546260Y-16006760D03*
X7506260Y-16006760D03*
X7466260Y-16006760D03*
G04 #@! TD*
D20*
G04 #@! TO.C,C61*
X7650720Y-15697240D03*
X7650720Y-15590560D03*
G04 #@! TD*
D23*
G04 #@! TO.C,U19*
X12812920Y-16226600D03*
X12812920Y-16358600D03*
X12680920Y-16226600D03*
X12680920Y-16358600D03*
D24*
X12526920Y-16392600D03*
X12526920Y-16342600D03*
X12526920Y-16292600D03*
X12526920Y-16242600D03*
X12526920Y-16192600D03*
D25*
X12646920Y-16072600D03*
X12696920Y-16072600D03*
X12746920Y-16072600D03*
X12796920Y-16072600D03*
X12846920Y-16072600D03*
D24*
X12966920Y-16192600D03*
X12966920Y-16242600D03*
X12966920Y-16292600D03*
X12966920Y-16342600D03*
X12966920Y-16392600D03*
D25*
X12846920Y-16512600D03*
X12796920Y-16512600D03*
X12746920Y-16512600D03*
X12696920Y-16512600D03*
X12646920Y-16512600D03*
G04 #@! TD*
D26*
G04 #@! TO.C,D7*
X6100000Y-11665000D03*
X6100000Y-11915000D03*
G04 #@! TD*
G04 #@! TO.C,D8*
X6127000Y-12930000D03*
X6127000Y-13180000D03*
G04 #@! TD*
G04 #@! TO.C,D2*
X6127000Y-13387200D03*
X6127000Y-13637200D03*
G04 #@! TD*
G04 #@! TO.C,D4*
X6127000Y-13844400D03*
X6127000Y-14094400D03*
G04 #@! TD*
G04 #@! TO.C,D5*
X6127000Y-14301600D03*
X6127000Y-14551600D03*
G04 #@! TD*
G04 #@! TO.C,D6*
X6127000Y-14758800D03*
X6127000Y-15008800D03*
G04 #@! TD*
D20*
G04 #@! TO.C,C1*
X9109640Y-16251340D03*
X9109640Y-16358020D03*
G04 #@! TD*
G04 #@! TO.C,C2*
X9008040Y-16251340D03*
X9008040Y-16358020D03*
G04 #@! TD*
G04 #@! TO.C,C3*
X9312840Y-16251340D03*
X9312840Y-16358020D03*
G04 #@! TD*
G04 #@! TO.C,C4*
X9211240Y-16251340D03*
X9211240Y-16358020D03*
G04 #@! TD*
G04 #@! TO.C,C5*
X9234100Y-15286140D03*
X9234100Y-15179460D03*
G04 #@! TD*
G04 #@! TO.C,C6*
X9335700Y-15286140D03*
X9335700Y-15179460D03*
G04 #@! TD*
D27*
G04 #@! TO.C,C7*
X10761740Y-16857620D03*
X10655060Y-16857620D03*
G04 #@! TD*
D20*
G04 #@! TO.C,C8*
X11391900Y-15491460D03*
X11391900Y-15598140D03*
G04 #@! TD*
G04 #@! TO.C,C9*
X8540000Y-14970160D03*
X8540000Y-14863480D03*
G04 #@! TD*
D27*
G04 #@! TO.C,C10*
X8709900Y-14348160D03*
X8816580Y-14348160D03*
G04 #@! TD*
D20*
G04 #@! TO.C,C12*
X8779440Y-15329320D03*
X8779440Y-15436000D03*
G04 #@! TD*
D27*
G04 #@! TO.C,C13*
X8908980Y-15090560D03*
X8802300Y-15090560D03*
G04 #@! TD*
D20*
G04 #@! TO.C,C14*
X9033440Y-15321700D03*
X9033440Y-15215020D03*
G04 #@! TD*
D27*
G04 #@! TO.C,C15*
X9030900Y-15090560D03*
X9137580Y-15090560D03*
G04 #@! TD*
D20*
G04 #@! TO.C,C16*
X10686020Y-16492260D03*
X10686020Y-16385580D03*
G04 #@! TD*
D27*
G04 #@! TO.C,C17*
X8240240Y-14193820D03*
X8346920Y-14193820D03*
G04 #@! TD*
G04 #@! TO.C,C18*
X7833840Y-14193820D03*
X7940520Y-14193820D03*
G04 #@! TD*
G04 #@! TO.C,C20*
X8707360Y-14152880D03*
X8814040Y-14152880D03*
G04 #@! TD*
G04 #@! TO.C,C21*
X10297160Y-16537940D03*
X10190480Y-16537940D03*
G04 #@! TD*
G04 #@! TO.C,C22*
X9520160Y-16601480D03*
X9626840Y-16601480D03*
G04 #@! TD*
D20*
G04 #@! TO.C,C23*
X10126980Y-15171420D03*
X10126980Y-15064740D03*
G04 #@! TD*
G04 #@! TO.C,C24*
X9268700Y-14302780D03*
X9268700Y-14409460D03*
G04 #@! TD*
D27*
G04 #@! TO.C,C25*
X9665900Y-16373260D03*
X9772580Y-16373260D03*
G04 #@! TD*
G04 #@! TO.C,C26*
X7940520Y-13889020D03*
X7833840Y-13889020D03*
G04 #@! TD*
G04 #@! TO.C,C27*
X8240240Y-13889020D03*
X8346920Y-13889020D03*
G04 #@! TD*
G04 #@! TO.C,C28*
X9665900Y-16487560D03*
X9772580Y-16487560D03*
G04 #@! TD*
D20*
G04 #@! TO.C,C30*
X8473680Y-14406920D03*
X8473680Y-14300240D03*
G04 #@! TD*
G04 #@! TO.C,C31*
X7559520Y-14297960D03*
X7559520Y-14191280D03*
G04 #@! TD*
D27*
G04 #@! TO.C,C32*
X10297160Y-16880840D03*
X10190480Y-16880840D03*
G04 #@! TD*
D20*
G04 #@! TO.C,C33*
X10011340Y-16467240D03*
X10011340Y-16360560D03*
G04 #@! TD*
G04 #@! TO.C,C34*
X9831000Y-15245500D03*
X9831000Y-15138820D03*
G04 #@! TD*
G04 #@! TO.C,C35*
X9716700Y-15169300D03*
X9716700Y-15062620D03*
G04 #@! TD*
G04 #@! TO.C,C36*
X9602400Y-15131200D03*
X9602400Y-15024520D03*
G04 #@! TD*
D27*
G04 #@! TO.C,C37*
X9427140Y-14991500D03*
X9320460Y-14991500D03*
G04 #@! TD*
G04 #@! TO.C,C38*
X7191220Y-14282720D03*
X7297900Y-14282720D03*
G04 #@! TD*
D20*
G04 #@! TO.C,C39*
X8130540Y-14787880D03*
X8130540Y-14681200D03*
G04 #@! TD*
D27*
G04 #@! TO.C,C40*
X7191220Y-14407180D03*
X7297900Y-14407180D03*
G04 #@! TD*
G04 #@! TO.C,C41*
X9879260Y-16182760D03*
X9985940Y-16182760D03*
G04 #@! TD*
G04 #@! TO.C,C42*
X9858940Y-15471560D03*
X9752260Y-15471560D03*
G04 #@! TD*
G04 #@! TO.C,C43*
X7254240Y-14541500D03*
X7147560Y-14541500D03*
G04 #@! TD*
D20*
G04 #@! TO.C,C44*
X7864080Y-14996160D03*
X7864080Y-14889480D03*
G04 #@! TD*
D27*
G04 #@! TO.C,C45*
X10269460Y-15671840D03*
X10376140Y-15671840D03*
G04 #@! TD*
G04 #@! TO.C,C46*
X10365980Y-15816620D03*
X10259300Y-15816620D03*
G04 #@! TD*
D20*
G04 #@! TO.C,C47*
X11216640Y-15709900D03*
X11216640Y-15603220D03*
G04 #@! TD*
G04 #@! TO.C,C48*
X10967960Y-15453360D03*
X10967960Y-15346680D03*
G04 #@! TD*
G04 #@! TO.C,C49*
X10085000Y-15570620D03*
X10085000Y-15677300D03*
G04 #@! TD*
G04 #@! TO.C,C50*
X7597380Y-15394980D03*
X7597380Y-15288300D03*
G04 #@! TD*
D27*
G04 #@! TO.C,C51*
X10830800Y-15946160D03*
X10724120Y-15946160D03*
G04 #@! TD*
G04 #@! TO.C,C52*
X7135100Y-15252740D03*
X7028420Y-15252740D03*
G04 #@! TD*
G04 #@! TO.C,C53*
X7135100Y-15146060D03*
X7028420Y-15146060D03*
G04 #@! TD*
D20*
G04 #@! TO.C,C54*
X10439640Y-15986800D03*
X10439640Y-16093480D03*
G04 #@! TD*
D27*
G04 #@! TO.C,C55*
X8019920Y-15093880D03*
X8126600Y-15093880D03*
G04 #@! TD*
D20*
G04 #@! TO.C,C56*
X10739120Y-15539720D03*
X10739120Y-15433040D03*
G04 #@! TD*
G04 #@! TO.C,C57*
X7739620Y-14986040D03*
X7739620Y-14879360D03*
G04 #@! TD*
G04 #@! TO.C,C58*
X6924280Y-15529600D03*
X6924280Y-15422920D03*
G04 #@! TD*
D27*
G04 #@! TO.C,C59*
X7935200Y-15448320D03*
X8041880Y-15448320D03*
G04 #@! TD*
D20*
G04 #@! TO.C,C60*
X7615160Y-15057160D03*
X7615160Y-15163840D03*
G04 #@! TD*
D27*
G04 #@! TO.C,C62*
X7810740Y-15981720D03*
X7704060Y-15981720D03*
G04 #@! TD*
D20*
G04 #@! TO.C,C64*
X7511020Y-16151900D03*
X7511020Y-16258580D03*
G04 #@! TD*
G04 #@! TO.C,C65*
X7757400Y-16390660D03*
X7757400Y-16283980D03*
G04 #@! TD*
G04 #@! TO.C,C66*
X7650720Y-16390660D03*
X7650720Y-16283980D03*
G04 #@! TD*
G04 #@! TO.C,C67*
X12108020Y-16376300D03*
X12108020Y-16482980D03*
G04 #@! TD*
G04 #@! TO.C,C68*
X12746240Y-15625480D03*
X12746240Y-15518800D03*
G04 #@! TD*
D27*
G04 #@! TO.C,C69*
X12855460Y-15427360D03*
X12962140Y-15427360D03*
G04 #@! TD*
D20*
G04 #@! TO.C,C70*
X12108020Y-16579500D03*
X12108020Y-16686180D03*
G04 #@! TD*
G04 #@! TO.C,C71*
X10048240Y-11802440D03*
X10048240Y-11909120D03*
G04 #@! TD*
G04 #@! TO.C,C72*
X9946640Y-11802440D03*
X9946640Y-11909120D03*
G04 #@! TD*
G04 #@! TO.C,C73*
X10340340Y-11802440D03*
X10340340Y-11909120D03*
G04 #@! TD*
G04 #@! TO.C,C74*
X10238740Y-11802440D03*
X10238740Y-11909120D03*
G04 #@! TD*
G04 #@! TO.C,C75*
X10543540Y-11802440D03*
X10543540Y-11909120D03*
G04 #@! TD*
G04 #@! TO.C,C76*
X10645140Y-11802440D03*
X10645140Y-11909120D03*
G04 #@! TD*
G04 #@! TO.C,C77*
X10162540Y-10689920D03*
X10162540Y-10583240D03*
G04 #@! TD*
G04 #@! TO.C,C78*
X10060940Y-10689920D03*
X10060940Y-10583240D03*
G04 #@! TD*
D27*
G04 #@! TO.C,C79*
X9726930Y-11049330D03*
X9620250Y-11049330D03*
G04 #@! TD*
D20*
G04 #@! TO.C,C80*
X9724390Y-10937570D03*
X9724390Y-10830890D03*
G04 #@! TD*
D27*
G04 #@! TO.C,C81*
X9663430Y-11316030D03*
X9556750Y-11316030D03*
G04 #@! TD*
G04 #@! TO.C,C82*
X9663430Y-11214430D03*
X9556750Y-11214430D03*
G04 #@! TD*
G04 #@! TO.C,C83*
X9688830Y-11531930D03*
X9582150Y-11531930D03*
G04 #@! TD*
D20*
G04 #@! TO.C,C84*
X10598150Y-14695170D03*
X10598150Y-14801850D03*
G04 #@! TD*
G04 #@! TO.C,C85*
X10902950Y-14695170D03*
X10902950Y-14801850D03*
G04 #@! TD*
G04 #@! TO.C,C86*
X11372850Y-14466570D03*
X11372850Y-14573250D03*
G04 #@! TD*
D27*
G04 #@! TO.C,C87*
X11370310Y-14189710D03*
X11476990Y-14189710D03*
G04 #@! TD*
G04 #@! TO.C,C88*
X11446510Y-14088110D03*
X11553190Y-14088110D03*
G04 #@! TD*
G04 #@! TO.C,C89*
X11370310Y-13986510D03*
X11476990Y-13986510D03*
G04 #@! TD*
D20*
G04 #@! TO.C,C90*
X10991850Y-13684250D03*
X10991850Y-13577570D03*
G04 #@! TD*
G04 #@! TO.C,C91*
X11093450Y-13684250D03*
X11093450Y-13577570D03*
G04 #@! TD*
D27*
G04 #@! TO.C,C92*
X10359390Y-14011910D03*
X10252710Y-14011910D03*
G04 #@! TD*
G04 #@! TO.C,C93*
X10359390Y-14113510D03*
X10252710Y-14113510D03*
G04 #@! TD*
G04 #@! TO.C,C94*
X10359390Y-14354810D03*
X10252710Y-14354810D03*
G04 #@! TD*
G04 #@! TO.C,C95*
X9192260Y-12346000D03*
X9298940Y-12346000D03*
G04 #@! TD*
G04 #@! TO.C,C96*
X9504680Y-12346000D03*
X9611360Y-12346000D03*
G04 #@! TD*
D20*
G04 #@! TO.C,C97*
X9641840Y-11802440D03*
X9641840Y-11909120D03*
G04 #@! TD*
G04 #@! TO.C,C98*
X9743440Y-11802440D03*
X9743440Y-11909120D03*
G04 #@! TD*
G04 #@! TO.C,C99*
X10699750Y-14796770D03*
X10699750Y-14903450D03*
G04 #@! TD*
G04 #@! TO.C,C100*
X9845040Y-11802440D03*
X9845040Y-11909120D03*
G04 #@! TD*
D27*
G04 #@! TO.C,C101*
X10011410Y-12370130D03*
X10118090Y-12370130D03*
G04 #@! TD*
D20*
G04 #@! TO.C,C102*
X10801350Y-14796770D03*
X10801350Y-14903450D03*
G04 #@! TD*
D27*
G04 #@! TO.C,C103*
X10323830Y-12370130D03*
X10430510Y-12370130D03*
G04 #@! TD*
D20*
G04 #@! TO.C,C104*
X11004550Y-14796770D03*
X11004550Y-14903450D03*
G04 #@! TD*
D28*
G04 #@! TO.C,C105*
X8715260Y-12536840D03*
X8715260Y-12333640D03*
G04 #@! TD*
D20*
G04 #@! TO.C,C106*
X11195050Y-13684250D03*
X11195050Y-13577570D03*
G04 #@! TD*
G04 #@! TO.C,C107*
X10447020Y-12269800D03*
X10447020Y-12163120D03*
G04 #@! TD*
G04 #@! TO.C,C108*
X10320020Y-12269800D03*
X10320020Y-12163120D03*
G04 #@! TD*
G04 #@! TO.C,C109*
X10134600Y-12269800D03*
X10134600Y-12163120D03*
G04 #@! TD*
G04 #@! TO.C,C110*
X10007600Y-12269800D03*
X10007600Y-12163120D03*
G04 #@! TD*
G04 #@! TO.C,C111*
X11106150Y-14796770D03*
X11106150Y-14903450D03*
G04 #@! TD*
G04 #@! TO.C,C112*
X11372850Y-13780770D03*
X11372850Y-13887450D03*
G04 #@! TD*
G04 #@! TO.C,C113*
X12315120Y-16493260D03*
X12315120Y-16599940D03*
G04 #@! TD*
G04 #@! TO.C,C114*
X11677650Y-13780770D03*
X11677650Y-13887450D03*
G04 #@! TD*
D27*
G04 #@! TO.C,C115*
X12334760Y-16161420D03*
X12228080Y-16161420D03*
G04 #@! TD*
G04 #@! TO.C,C116*
X12139180Y-16054740D03*
X12032500Y-16054740D03*
G04 #@! TD*
G04 #@! TO.C,C118*
X16143340Y-15510000D03*
X16036660Y-15510000D03*
G04 #@! TD*
D20*
G04 #@! TO.C,C119*
X12924720Y-15901440D03*
X12924720Y-15794760D03*
G04 #@! TD*
G04 #@! TO.C,C120*
X13162800Y-16115700D03*
X13162800Y-16009020D03*
G04 #@! TD*
D27*
G04 #@! TO.C,C121*
X12256020Y-16270640D03*
X12149340Y-16270640D03*
G04 #@! TD*
G04 #@! TO.C,C122*
X12637020Y-15831220D03*
X12530340Y-15831220D03*
G04 #@! TD*
G04 #@! TO.C,C123*
X10845800Y-11305870D03*
X10952480Y-11305870D03*
G04 #@! TD*
G04 #@! TO.C,C124*
X10845800Y-11204270D03*
X10952480Y-11204270D03*
G04 #@! TD*
G04 #@! TO.C,C125*
X17400040Y-11779320D03*
X17293360Y-11779320D03*
G04 #@! TD*
D29*
G04 #@! TO.C,C126*
X16851400Y-11741220D03*
X17054600Y-11741220D03*
G04 #@! TD*
G04 #@! TO.C,C127*
X16851400Y-11525320D03*
X17054600Y-11525320D03*
G04 #@! TD*
D30*
G04 #@! TO.C,C128*
G36*
X15151010Y-12364287D02*
G01*
X15120980Y-12394317D01*
X15093680Y-12367017D01*
X15123710Y-12336987D01*
X15151010Y-12364287D01*
G37*
G36*
X15075576Y-12288853D02*
G01*
X15045546Y-12318883D01*
X15018246Y-12291583D01*
X15048276Y-12261553D01*
X15075576Y-12288853D01*
G37*
G04 #@! TD*
G04 #@! TO.C,C129*
G36*
X14459530Y-12570833D02*
G01*
X14429500Y-12600863D01*
X14402200Y-12573563D01*
X14432230Y-12543533D01*
X14459530Y-12570833D01*
G37*
G36*
X14384096Y-12495399D02*
G01*
X14354066Y-12525429D01*
X14326766Y-12498129D01*
X14356796Y-12468099D01*
X14384096Y-12495399D01*
G37*
G04 #@! TD*
G04 #@! TO.C,C130*
G36*
X13821932Y-13208431D02*
G01*
X13791902Y-13238461D01*
X13764602Y-13211161D01*
X13794632Y-13181131D01*
X13821932Y-13208431D01*
G37*
G36*
X13746498Y-13132997D02*
G01*
X13716468Y-13163027D01*
X13689168Y-13135727D01*
X13719198Y-13105697D01*
X13746498Y-13132997D01*
G37*
G04 #@! TD*
D27*
G04 #@! TO.C,C131*
X13343140Y-13700160D03*
X13236460Y-13700160D03*
G04 #@! TD*
D30*
G04 #@! TO.C,C132*
G36*
X13486172Y-14504998D02*
G01*
X13516202Y-14535028D01*
X13488902Y-14562328D01*
X13458872Y-14532298D01*
X13486172Y-14504998D01*
G37*
G36*
X13410738Y-14580432D02*
G01*
X13440768Y-14610462D01*
X13413468Y-14637762D01*
X13383438Y-14607732D01*
X13410738Y-14580432D01*
G37*
G04 #@! TD*
G04 #@! TO.C,C133*
G36*
X14079270Y-15081353D02*
G01*
X14109300Y-15111383D01*
X14082000Y-15138683D01*
X14051970Y-15108653D01*
X14079270Y-15081353D01*
G37*
G36*
X14003836Y-15156787D02*
G01*
X14033866Y-15186817D01*
X14006566Y-15214117D01*
X13976536Y-15184087D01*
X14003836Y-15156787D01*
G37*
G04 #@! TD*
G04 #@! TO.C,C134*
G36*
X14537263Y-15539346D02*
G01*
X14567293Y-15569376D01*
X14539993Y-15596676D01*
X14509963Y-15566646D01*
X14537263Y-15539346D01*
G37*
G36*
X14461829Y-15614780D02*
G01*
X14491859Y-15644810D01*
X14464559Y-15672110D01*
X14434529Y-15642080D01*
X14461829Y-15614780D01*
G37*
G04 #@! TD*
G04 #@! TO.C,C135*
G36*
X15314594Y-15533455D02*
G01*
X15344624Y-15503425D01*
X15371924Y-15530725D01*
X15341894Y-15560755D01*
X15314594Y-15533455D01*
G37*
G36*
X15390028Y-15608889D02*
G01*
X15420058Y-15578859D01*
X15447358Y-15606159D01*
X15417328Y-15636189D01*
X15390028Y-15608889D01*
G37*
G04 #@! TD*
G04 #@! TO.C,C136*
G36*
X15880350Y-14967699D02*
G01*
X15910380Y-14937669D01*
X15937680Y-14964969D01*
X15907650Y-14994999D01*
X15880350Y-14967699D01*
G37*
G36*
X15955785Y-15043133D02*
G01*
X15985815Y-15013103D01*
X16013115Y-15040403D01*
X15983085Y-15070433D01*
X15955785Y-15043133D01*
G37*
G04 #@! TD*
G04 #@! TO.C,C137*
G36*
X16024034Y-14824015D02*
G01*
X16054064Y-14793985D01*
X16081364Y-14821285D01*
X16051334Y-14851315D01*
X16024034Y-14824015D01*
G37*
G36*
X16099469Y-14899449D02*
G01*
X16129499Y-14869419D01*
X16156799Y-14896719D01*
X16126769Y-14926749D01*
X16099469Y-14899449D01*
G37*
G04 #@! TD*
G04 #@! TO.C,C138*
G36*
X16230580Y-14617469D02*
G01*
X16260610Y-14587439D01*
X16287910Y-14614739D01*
X16257880Y-14644769D01*
X16230580Y-14617469D01*
G37*
G36*
X16306015Y-14692903D02*
G01*
X16336045Y-14662873D01*
X16363345Y-14690173D01*
X16333315Y-14720203D01*
X16306015Y-14692903D01*
G37*
G04 #@! TD*
G04 #@! TO.C,C139*
G36*
X16374264Y-14473785D02*
G01*
X16404294Y-14443755D01*
X16431594Y-14471055D01*
X16401564Y-14501085D01*
X16374264Y-14473785D01*
G37*
G36*
X16449699Y-14549219D02*
G01*
X16479729Y-14519189D01*
X16507029Y-14546489D01*
X16476999Y-14576519D01*
X16449699Y-14549219D01*
G37*
G04 #@! TD*
G04 #@! TO.C,C140*
G36*
X16428146Y-13611680D02*
G01*
X16458176Y-13581650D01*
X16485476Y-13608950D01*
X16455446Y-13638980D01*
X16428146Y-13611680D01*
G37*
G36*
X16503580Y-13687115D02*
G01*
X16533610Y-13657085D01*
X16560910Y-13684385D01*
X16530880Y-13714415D01*
X16503580Y-13687115D01*
G37*
G04 #@! TD*
G04 #@! TO.C,C141*
G36*
X15694854Y-12825369D02*
G01*
X15664824Y-12795339D01*
X15692124Y-12768039D01*
X15722154Y-12798069D01*
X15694854Y-12825369D01*
G37*
G36*
X15770288Y-12749935D02*
G01*
X15740258Y-12719905D01*
X15767558Y-12692605D01*
X15797588Y-12722635D01*
X15770288Y-12749935D01*
G37*
G04 #@! TD*
G04 #@! TO.C,C142*
G36*
X15973242Y-13121718D02*
G01*
X15943212Y-13091688D01*
X15970512Y-13064388D01*
X16000542Y-13094418D01*
X15973242Y-13121718D01*
G37*
G36*
X16048676Y-13046283D02*
G01*
X16018646Y-13016253D01*
X16045946Y-12988953D01*
X16075976Y-13018983D01*
X16048676Y-13046283D01*
G37*
G04 #@! TD*
D28*
G04 #@! TO.C,C143*
X17448300Y-11106220D03*
X17448300Y-11309420D03*
G04 #@! TD*
D27*
G04 #@! TO.C,C144*
X15415260Y-16057880D03*
X15308580Y-16057880D03*
G04 #@! TD*
D29*
G04 #@! TO.C,C145*
X17054600Y-10864920D03*
X16851400Y-10864920D03*
G04 #@! TD*
G04 #@! TO.C,C146*
X17054600Y-10649020D03*
X16851400Y-10649020D03*
G04 #@! TD*
D20*
G04 #@! TO.C,C147*
X17283200Y-11154480D03*
X17283200Y-11261160D03*
G04 #@! TD*
G04 #@! TO.C,C148*
X13766800Y-11762740D03*
X13766800Y-11869420D03*
G04 #@! TD*
D27*
G04 #@! TO.C,C149*
X13805420Y-11170320D03*
X13912100Y-11170320D03*
G04 #@! TD*
D20*
G04 #@! TO.C,C150*
X13081000Y-10612120D03*
X13081000Y-10505440D03*
G04 #@! TD*
G04 #@! TO.C,C151*
X11709400Y-10891520D03*
X11709400Y-10784840D03*
G04 #@! TD*
D27*
G04 #@! TO.C,C152*
X12388100Y-12801000D03*
X12494780Y-12801000D03*
G04 #@! TD*
G04 #@! TO.C,C153*
X11508740Y-11701780D03*
X11402060Y-11701780D03*
G04 #@! TD*
G04 #@! TO.C,C154*
X11902960Y-12668920D03*
X11796280Y-12668920D03*
G04 #@! TD*
G04 #@! TO.C,C156*
X12329680Y-15899800D03*
X12223000Y-15899800D03*
G04 #@! TD*
D30*
G04 #@! TO.C,C157*
G36*
X16395314Y-13489908D02*
G01*
X16365284Y-13459878D01*
X16392584Y-13432578D01*
X16422614Y-13462608D01*
X16395314Y-13489908D01*
G37*
G36*
X16470748Y-13414474D02*
G01*
X16440718Y-13384444D01*
X16468018Y-13357144D01*
X16498048Y-13387174D01*
X16470748Y-13414474D01*
G37*
G04 #@! TD*
G04 #@! TO.C,C158*
G36*
X16419166Y-13010003D02*
G01*
X16449196Y-12979973D01*
X16476496Y-13007273D01*
X16446466Y-13037303D01*
X16419166Y-13010003D01*
G37*
G36*
X16494600Y-13085437D02*
G01*
X16524630Y-13055407D01*
X16551930Y-13082707D01*
X16521900Y-13112737D01*
X16494600Y-13085437D01*
G37*
G04 #@! TD*
D27*
G04 #@! TO.C,C159*
X13152640Y-15097160D03*
X13045960Y-15097160D03*
G04 #@! TD*
D20*
G04 #@! TO.C,C160*
X8308580Y-15501660D03*
X8308580Y-15608340D03*
G04 #@! TD*
G04 #@! TO.C,C161*
X8201900Y-15501660D03*
X8201900Y-15608340D03*
G04 #@! TD*
D27*
G04 #@! TO.C,C162*
X8166340Y-16123960D03*
X8059660Y-16123960D03*
G04 #@! TD*
G04 #@! TO.C,C163*
X6921740Y-15039380D03*
X7028420Y-15039380D03*
G04 #@! TD*
G04 #@! TO.C,C164*
X16146660Y-15190000D03*
X16253340Y-15190000D03*
G04 #@! TD*
G04 #@! TO.C,C165*
X13523480Y-16679580D03*
X13416800Y-16679580D03*
G04 #@! TD*
D20*
G04 #@! TO.C,C166*
X11971540Y-16560200D03*
X11971540Y-16666880D03*
G04 #@! TD*
G04 #@! TO.C,C167*
X8179320Y-11957720D03*
X8179320Y-12064400D03*
G04 #@! TD*
D27*
G04 #@! TO.C,C168*
X14028940Y-12750200D03*
X13922260Y-12750200D03*
G04 #@! TD*
G04 #@! TO.C,C169*
X12791440Y-16990060D03*
X12684760Y-16990060D03*
G04 #@! TD*
D20*
G04 #@! TO.C,C170*
X12250000Y-16873340D03*
X12250000Y-16766660D03*
G04 #@! TD*
D27*
G04 #@! TO.C,C171*
X7739620Y-16728480D03*
X7846300Y-16728480D03*
G04 #@! TD*
D29*
G04 #@! TO.C,FB1*
X17282400Y-12034560D03*
X17079200Y-12034560D03*
G04 #@! TD*
G04 #@! TO.C,FB2*
X8493760Y-12252960D03*
X8290560Y-12252960D03*
G04 #@! TD*
G04 #@! TO.C,FB3*
X17312880Y-12783860D03*
X17109680Y-12783860D03*
G04 #@! TD*
D31*
G04 #@! TO.C,J10*
X11400000Y-12950000D03*
G04 #@! TD*
D27*
G04 #@! TO.C,L1*
X9462700Y-16233560D03*
X9569380Y-16233560D03*
G04 #@! TD*
D32*
G04 #@! TO.C,L2*
X9869100Y-15903360D03*
X9869100Y-16055760D03*
G04 #@! TD*
G04 #@! TO.C,L3*
X9869100Y-15750960D03*
X9869100Y-15598560D03*
G04 #@! TD*
D20*
G04 #@! TO.C,L4*
X9742100Y-15773820D03*
X9742100Y-15880500D03*
G04 #@! TD*
D32*
G04 #@! TO.C,L5*
X7419580Y-15247660D03*
X7419580Y-15400060D03*
G04 #@! TD*
D27*
G04 #@! TO.C,L6*
X10697210Y-15002510D03*
X10803890Y-15002510D03*
G04 #@! TD*
G04 #@! TO.C,L7*
X10697210Y-14697710D03*
X10803890Y-14697710D03*
G04 #@! TD*
G04 #@! TO.C,L8*
X11002010Y-15002510D03*
X11108690Y-15002510D03*
G04 #@! TD*
G04 #@! TO.C,L9*
X11002010Y-14697710D03*
X11108690Y-14697710D03*
G04 #@! TD*
D33*
G04 #@! TO.C,L10*
X16521200Y-11716074D03*
X16521200Y-11436166D03*
G04 #@! TD*
G04 #@! TO.C,L11*
X16521200Y-10954074D03*
X16521200Y-10674166D03*
G04 #@! TD*
D32*
G04 #@! TO.C,L12*
X8206980Y-15928380D03*
X8054580Y-15928380D03*
G04 #@! TD*
G04 #@! TO.C,L13*
X6936980Y-16253500D03*
X6936980Y-16101100D03*
G04 #@! TD*
D19*
G04 #@! TO.C,Q2*
X8153640Y-16532900D03*
X8356840Y-16621800D03*
X8356840Y-16444000D03*
G04 #@! TD*
G04 #@! TO.C,Q3*
X8504440Y-12069480D03*
X8593340Y-11866280D03*
X8415540Y-11866280D03*
G04 #@! TD*
G04 #@! TO.C,Q4*
X7406880Y-16835160D03*
X7610080Y-16924060D03*
X7610080Y-16746260D03*
G04 #@! TD*
G04 #@! TO.C,Q5*
X16301960Y-11993920D03*
X16505160Y-12082820D03*
X16505160Y-11905020D03*
G04 #@! TD*
D20*
G04 #@! TO.C,R1*
X8906440Y-15215020D03*
X8906440Y-15321700D03*
G04 #@! TD*
D27*
G04 #@! TO.C,R2*
X9023280Y-14963560D03*
X8916600Y-14963560D03*
G04 #@! TD*
D20*
G04 #@! TO.C,R3*
X9135040Y-15321700D03*
X9135040Y-15215020D03*
G04 #@! TD*
G04 #@! TO.C,R4*
X9437300Y-15179460D03*
X9437300Y-15286140D03*
G04 #@! TD*
D30*
G04 #@! TO.C,R5*
G36*
X13769518Y-13056748D02*
G01*
X13799548Y-13026718D01*
X13826848Y-13054018D01*
X13796818Y-13084048D01*
X13769518Y-13056748D01*
G37*
G36*
X13844952Y-13132182D02*
G01*
X13874982Y-13102152D01*
X13902282Y-13129452D01*
X13872252Y-13159482D01*
X13844952Y-13132182D01*
G37*
G04 #@! TD*
G04 #@! TO.C,R6*
G36*
X13845718Y-12980548D02*
G01*
X13875748Y-12950518D01*
X13903048Y-12977818D01*
X13873018Y-13007848D01*
X13845718Y-12980548D01*
G37*
G36*
X13921152Y-13055982D02*
G01*
X13951182Y-13025952D01*
X13978482Y-13053252D01*
X13948452Y-13083282D01*
X13921152Y-13055982D01*
G37*
G04 #@! TD*
D20*
G04 #@! TO.C,R7*
X6787400Y-12447940D03*
X6787400Y-12341260D03*
G04 #@! TD*
G04 #@! TO.C,R8*
X9182100Y-12140260D03*
X9182100Y-12246940D03*
G04 #@! TD*
G04 #@! TO.C,R9*
X9309100Y-12140260D03*
X9309100Y-12246940D03*
G04 #@! TD*
G04 #@! TO.C,R10*
X9494520Y-12140260D03*
X9494520Y-12246940D03*
G04 #@! TD*
D27*
G04 #@! TO.C,R11*
X14656320Y-12338720D03*
X14549640Y-12338720D03*
G04 #@! TD*
D20*
G04 #@! TO.C,R12*
X16716260Y-13151520D03*
X16716260Y-13044840D03*
G04 #@! TD*
G04 #@! TO.C,R13*
X9621520Y-12140260D03*
X9621520Y-12246940D03*
G04 #@! TD*
G04 #@! TO.C,R14*
X9621520Y-12445060D03*
X9621520Y-12551740D03*
G04 #@! TD*
G04 #@! TO.C,R15*
X9494520Y-12445060D03*
X9494520Y-12551740D03*
G04 #@! TD*
G04 #@! TO.C,R16*
X9309100Y-12445060D03*
X9309100Y-12551740D03*
G04 #@! TD*
G04 #@! TO.C,R17*
X9182100Y-12445060D03*
X9182100Y-12551740D03*
G04 #@! TD*
D27*
G04 #@! TO.C,R18*
X6276860Y-13334400D03*
X6383540Y-13334400D03*
G04 #@! TD*
D20*
G04 #@! TO.C,R19*
X6896620Y-11259220D03*
X6896620Y-11152540D03*
G04 #@! TD*
G04 #@! TO.C,R20*
X10001250Y-12469190D03*
X10001250Y-12575870D03*
G04 #@! TD*
G04 #@! TO.C,R21*
X10128250Y-12469190D03*
X10128250Y-12575870D03*
G04 #@! TD*
G04 #@! TO.C,R22*
X10313670Y-12469190D03*
X10313670Y-12575870D03*
G04 #@! TD*
G04 #@! TO.C,R23*
X10440670Y-12469190D03*
X10440670Y-12575870D03*
G04 #@! TD*
D27*
G04 #@! TO.C,R24*
X8255240Y-16835160D03*
X8148560Y-16835160D03*
G04 #@! TD*
G04 #@! TO.C,R25*
X11471910Y-13884910D03*
X11578590Y-13884910D03*
G04 #@! TD*
G04 #@! TO.C,R26*
X11471910Y-13783310D03*
X11578590Y-13783310D03*
G04 #@! TD*
G04 #@! TO.C,R27*
X13363460Y-16130940D03*
X13470140Y-16130940D03*
G04 #@! TD*
G04 #@! TO.C,R28*
X13289800Y-15818520D03*
X13396480Y-15818520D03*
G04 #@! TD*
G04 #@! TO.C,R29*
X7579600Y-14808240D03*
X7472920Y-14808240D03*
G04 #@! TD*
D20*
G04 #@! TO.C,R30*
X6896620Y-12554620D03*
X6896620Y-12447940D03*
G04 #@! TD*
G04 #@! TO.C,R31*
X12743700Y-15729620D03*
X12743700Y-15836300D03*
G04 #@! TD*
G04 #@! TO.C,R32*
X12855460Y-15587380D03*
X12855460Y-15694060D03*
G04 #@! TD*
G04 #@! TO.C,R33*
X13493000Y-16572900D03*
X13493000Y-16466220D03*
G04 #@! TD*
D27*
G04 #@! TO.C,R34*
X12334240Y-16012160D03*
X12440920Y-16012160D03*
G04 #@! TD*
D20*
G04 #@! TO.C,R36*
X7739620Y-16941840D03*
X7739620Y-16835160D03*
G04 #@! TD*
D27*
G04 #@! TO.C,R37*
X16030460Y-12493660D03*
X16137140Y-12493660D03*
G04 #@! TD*
G04 #@! TO.C,R41*
X13922260Y-12623200D03*
X14028940Y-12623200D03*
G04 #@! TD*
G04 #@! TO.C,R46*
X17400040Y-11576120D03*
X17293360Y-11576120D03*
G04 #@! TD*
G04 #@! TO.C,R47*
X17400040Y-11677720D03*
X17293360Y-11677720D03*
G04 #@! TD*
G04 #@! TO.C,R48*
X16581640Y-15023500D03*
X16474960Y-15023500D03*
G04 #@! TD*
D20*
G04 #@! TO.C,R49*
X6787400Y-11045860D03*
X6787400Y-11152540D03*
G04 #@! TD*
D27*
G04 #@! TO.C,R51*
X16045700Y-11934860D03*
X15939020Y-11934860D03*
G04 #@! TD*
D20*
G04 #@! TO.C,R52*
X17715000Y-10930960D03*
X17715000Y-10824280D03*
G04 #@! TD*
D27*
G04 #@! TO.C,R54*
X16290060Y-11195120D03*
X16396740Y-11195120D03*
G04 #@! TD*
G04 #@! TO.C,R55*
X17400040Y-10941120D03*
X17293360Y-10941120D03*
G04 #@! TD*
G04 #@! TO.C,R56*
X17400040Y-10839520D03*
X17293360Y-10839520D03*
G04 #@! TD*
D20*
G04 #@! TO.C,R57*
X16347680Y-12611140D03*
X16347680Y-12504460D03*
G04 #@! TD*
G04 #@! TO.C,R58*
X16347680Y-12400320D03*
X16347680Y-12293640D03*
G04 #@! TD*
D27*
G04 #@! TO.C,R59*
X14155940Y-15638180D03*
X14049260Y-15638180D03*
G04 #@! TD*
G04 #@! TO.C,R62*
X15944100Y-12166000D03*
X16050780Y-12166000D03*
G04 #@! TD*
D20*
G04 #@! TO.C,R63*
X15618980Y-11950100D03*
X15618980Y-12056780D03*
G04 #@! TD*
G04 #@! TO.C,R64*
X15504680Y-12166000D03*
X15504680Y-12059320D03*
G04 #@! TD*
D27*
G04 #@! TO.C,R65*
X16053320Y-12282840D03*
X15946640Y-12282840D03*
G04 #@! TD*
G04 #@! TO.C,R66*
X15738360Y-11680860D03*
X15631680Y-11680860D03*
G04 #@! TD*
G04 #@! TO.C,R67*
X14028940Y-12369200D03*
X13922260Y-12369200D03*
G04 #@! TD*
G04 #@! TO.C,R68*
X14028940Y-12496200D03*
X13922260Y-12496200D03*
G04 #@! TD*
D30*
G04 #@! TO.C,R69*
G36*
X15775677Y-12906192D02*
G01*
X15745647Y-12876162D01*
X15772947Y-12848862D01*
X15802977Y-12878892D01*
X15775677Y-12906192D01*
G37*
G36*
X15851111Y-12830757D02*
G01*
X15821081Y-12800727D01*
X15848381Y-12773427D01*
X15878411Y-12803457D01*
X15851111Y-12830757D01*
G37*
G04 #@! TD*
D27*
G04 #@! TO.C,R72*
X6276860Y-13791600D03*
X6383540Y-13791600D03*
G04 #@! TD*
G04 #@! TO.C,R73*
X6276860Y-14248800D03*
X6383540Y-14248800D03*
G04 #@! TD*
G04 #@! TO.C,R74*
X6276860Y-14706000D03*
X6383540Y-14706000D03*
G04 #@! TD*
G04 #@! TO.C,R75*
X6251460Y-11670700D03*
X6358140Y-11670700D03*
G04 #@! TD*
G04 #@! TO.C,R76*
X6276860Y-12940700D03*
X6383540Y-12940700D03*
G04 #@! TD*
G04 #@! TO.C,R77*
X14086840Y-11473180D03*
X13980160Y-11473180D03*
G04 #@! TD*
G04 #@! TO.C,R78*
X14086840Y-11574780D03*
X13980160Y-11574780D03*
G04 #@! TD*
G04 #@! TO.C,R79*
X14086840Y-11676380D03*
X13980160Y-11676380D03*
G04 #@! TD*
G04 #@! TO.C,R80*
X14086840Y-11777980D03*
X13980160Y-11777980D03*
G04 #@! TD*
G04 #@! TO.C,R81*
X14086840Y-11879580D03*
X13980160Y-11879580D03*
G04 #@! TD*
D20*
G04 #@! TO.C,R85*
X13157720Y-16875160D03*
X13157720Y-16981840D03*
G04 #@! TD*
D27*
G04 #@! TO.C,R86*
X14086840Y-11981180D03*
X13980160Y-11981180D03*
G04 #@! TD*
G04 #@! TO.C,R87*
X14086840Y-12082780D03*
X13980160Y-12082780D03*
G04 #@! TD*
D20*
G04 #@! TO.C,R88*
X13434580Y-12900060D03*
X13434580Y-12793380D03*
G04 #@! TD*
G04 #@! TO.C,R89*
X13281660Y-12903200D03*
X13281660Y-12796520D03*
G04 #@! TD*
G04 #@! TO.C,R90*
X13180060Y-12903200D03*
X13180060Y-12796520D03*
G04 #@! TD*
G04 #@! TO.C,R91*
X13078460Y-12903200D03*
X13078460Y-12796520D03*
G04 #@! TD*
D27*
G04 #@! TO.C,R93*
X14155940Y-15518800D03*
X14049260Y-15518800D03*
G04 #@! TD*
G04 #@! TO.C,R94*
X13274560Y-16242700D03*
X13167880Y-16242700D03*
G04 #@! TD*
D20*
G04 #@! TO.C,R96*
X12976860Y-12903200D03*
X12976860Y-12796520D03*
G04 #@! TD*
G04 #@! TO.C,R98*
X12870700Y-12905140D03*
X12870700Y-12798460D03*
G04 #@! TD*
G04 #@! TO.C,R99*
X12769100Y-12905140D03*
X12769100Y-12798460D03*
G04 #@! TD*
G04 #@! TO.C,R100*
X12667500Y-12905140D03*
X12667500Y-12798460D03*
G04 #@! TD*
D27*
G04 #@! TO.C,R104*
X12863760Y-16800600D03*
X12757080Y-16800600D03*
G04 #@! TD*
D20*
G04 #@! TO.C,R105*
X13178720Y-16574540D03*
X13178720Y-16467860D03*
G04 #@! TD*
D34*
G04 #@! TO.C,T1*
X9466510Y-16477400D03*
X9466510Y-16411360D03*
X9466510Y-16345320D03*
X9565570Y-16345320D03*
X9565570Y-16411360D03*
X9565570Y-16477400D03*
G04 #@! TD*
D35*
G04 #@! TO.C,T2*
X10138340Y-15876690D03*
X10072300Y-15876690D03*
X10006260Y-15876690D03*
X10006260Y-15777630D03*
X10072300Y-15777630D03*
X10138340Y-15777630D03*
G04 #@! TD*
D36*
G04 #@! TO.C,T3*
X10708132Y-15204948D03*
X10708132Y-15154910D03*
X10708132Y-15104872D03*
X10792968Y-15104872D03*
X10792968Y-15154910D03*
X10792968Y-15204948D03*
G04 #@! TD*
G04 #@! TO.C,T4*
X11012932Y-15204948D03*
X11012932Y-15154910D03*
X11012932Y-15104872D03*
X11097768Y-15104872D03*
X11097768Y-15154910D03*
X11097768Y-15204948D03*
G04 #@! TD*
D37*
G04 #@! TO.C,U3*
X8040596Y-14260368D03*
X8165564Y-14260368D03*
X8165564Y-14330472D03*
X8040596Y-14330472D03*
G04 #@! TD*
D38*
G04 #@! TO.C,U8*
X8064980Y-13742462D03*
X8064980Y-13832378D03*
D39*
X7979890Y-13787420D03*
X8150070Y-13787420D03*
G04 #@! TD*
D40*
G04 #@! TO.C,U9*
X7785100Y-14630400D03*
D41*
X7690100Y-14690400D03*
X7690100Y-14650400D03*
X7690100Y-14610400D03*
X7690100Y-14570400D03*
X7880100Y-14570400D03*
X7880100Y-14610400D03*
X7880100Y-14650400D03*
X7880100Y-14690400D03*
G04 #@! TD*
D21*
G04 #@! TO.C,U12*
X7771000Y-15380900D03*
D22*
X7831000Y-15475900D03*
X7791000Y-15475900D03*
X7751000Y-15475900D03*
X7711000Y-15475900D03*
X7711000Y-15285900D03*
X7751000Y-15285900D03*
X7791000Y-15285900D03*
X7831000Y-15285900D03*
G04 #@! TD*
D42*
G04 #@! TO.C,U20*
X15694660Y-16055340D03*
X15694660Y-15928340D03*
X15694660Y-15801340D03*
X15694660Y-15674340D03*
X16456660Y-15674340D03*
X16456660Y-15801340D03*
X16456660Y-15928340D03*
X16456660Y-16055340D03*
G04 #@! TD*
D43*
G04 #@! TO.C,U21*
X16978000Y-11040120D03*
X16928000Y-11040120D03*
X16928000Y-11350120D03*
X16978000Y-11350120D03*
D44*
X16994000Y-11135120D03*
X16994000Y-11255120D03*
X16912000Y-11255120D03*
X16912000Y-11135120D03*
D45*
X16803000Y-11295120D03*
X16803000Y-11245120D03*
X16803000Y-11195120D03*
X16803000Y-11145120D03*
X16803000Y-11095120D03*
X17103000Y-11095120D03*
X17103000Y-11145120D03*
X17103000Y-11195120D03*
X17103000Y-11245120D03*
X17103000Y-11295120D03*
G04 #@! TD*
D30*
G04 #@! TO.C,U23*
G36*
X16273136Y-14141138D02*
G01*
X16288970Y-14125304D01*
X16369641Y-14205976D01*
X16353807Y-14221810D01*
X16273136Y-14141138D01*
G37*
G36*
X16237754Y-14176521D02*
G01*
X16253588Y-14160687D01*
X16334259Y-14241358D01*
X16318425Y-14257192D01*
X16237754Y-14176521D01*
G37*
G36*
X16202372Y-14211903D02*
G01*
X16218206Y-14196069D01*
X16298877Y-14276740D01*
X16283043Y-14292574D01*
X16202372Y-14211903D01*
G37*
G36*
X16166989Y-14247285D02*
G01*
X16182823Y-14231451D01*
X16263495Y-14312122D01*
X16247661Y-14327956D01*
X16166989Y-14247285D01*
G37*
G36*
X16131607Y-14282667D02*
G01*
X16147441Y-14266833D01*
X16228113Y-14347505D01*
X16212279Y-14363339D01*
X16131607Y-14282667D01*
G37*
G36*
X16096405Y-14317870D02*
G01*
X16112239Y-14302036D01*
X16192910Y-14382707D01*
X16177076Y-14398541D01*
X16096405Y-14317870D01*
G37*
G36*
X16061022Y-14353252D02*
G01*
X16076856Y-14337418D01*
X16157528Y-14418089D01*
X16141694Y-14433923D01*
X16061022Y-14353252D01*
G37*
G36*
X16025640Y-14388634D02*
G01*
X16041474Y-14372800D01*
X16122146Y-14453472D01*
X16106312Y-14469306D01*
X16025640Y-14388634D01*
G37*
G36*
X15990258Y-14424016D02*
G01*
X16006092Y-14408182D01*
X16086763Y-14488854D01*
X16070929Y-14504688D01*
X15990258Y-14424016D01*
G37*
G36*
X15954876Y-14459399D02*
G01*
X15970710Y-14443565D01*
X16051381Y-14524236D01*
X16035547Y-14540070D01*
X15954876Y-14459399D01*
G37*
G36*
X15919494Y-14494781D02*
G01*
X15935328Y-14478947D01*
X16015999Y-14559618D01*
X16000165Y-14575452D01*
X15919494Y-14494781D01*
G37*
G36*
X15884291Y-14529983D02*
G01*
X15900125Y-14514149D01*
X15980796Y-14594821D01*
X15964962Y-14610655D01*
X15884291Y-14529983D01*
G37*
G36*
X15848909Y-14565366D02*
G01*
X15864743Y-14549532D01*
X15945414Y-14630203D01*
X15929580Y-14646037D01*
X15848909Y-14565366D01*
G37*
G36*
X15813527Y-14600748D02*
G01*
X15829361Y-14584914D01*
X15910032Y-14665585D01*
X15894198Y-14681419D01*
X15813527Y-14600748D01*
G37*
G36*
X15778144Y-14636130D02*
G01*
X15793978Y-14620296D01*
X15874650Y-14700968D01*
X15858816Y-14716802D01*
X15778144Y-14636130D01*
G37*
G36*
X15742762Y-14671512D02*
G01*
X15758596Y-14655678D01*
X15839268Y-14736350D01*
X15823434Y-14752184D01*
X15742762Y-14671512D01*
G37*
G36*
X15707380Y-14706895D02*
G01*
X15723214Y-14691061D01*
X15803885Y-14771732D01*
X15788051Y-14787566D01*
X15707380Y-14706895D01*
G37*
G36*
X15671998Y-14742277D02*
G01*
X15687832Y-14726443D01*
X15768503Y-14807114D01*
X15752669Y-14822948D01*
X15671998Y-14742277D01*
G37*
G36*
X15636795Y-14777479D02*
G01*
X15652629Y-14761645D01*
X15733301Y-14842317D01*
X15717467Y-14858151D01*
X15636795Y-14777479D01*
G37*
G36*
X15601413Y-14812862D02*
G01*
X15617247Y-14797028D01*
X15697918Y-14877699D01*
X15682084Y-14893533D01*
X15601413Y-14812862D01*
G37*
G36*
X15566031Y-14848244D02*
G01*
X15581865Y-14832410D01*
X15662536Y-14913081D01*
X15646702Y-14928915D01*
X15566031Y-14848244D01*
G37*
G36*
X15530649Y-14883626D02*
G01*
X15546483Y-14867792D01*
X15627154Y-14948463D01*
X15611320Y-14964297D01*
X15530649Y-14883626D01*
G37*
G36*
X15495266Y-14919008D02*
G01*
X15511100Y-14903174D01*
X15591772Y-14983846D01*
X15575938Y-14999680D01*
X15495266Y-14919008D01*
G37*
G36*
X15459884Y-14954390D02*
G01*
X15475718Y-14938556D01*
X15556389Y-15019228D01*
X15540555Y-15035062D01*
X15459884Y-14954390D01*
G37*
G36*
X15424502Y-14989773D02*
G01*
X15440336Y-14973939D01*
X15521007Y-15054610D01*
X15505173Y-15070444D01*
X15424502Y-14989773D01*
G37*
G36*
X15389299Y-15024975D02*
G01*
X15405133Y-15009141D01*
X15485805Y-15089813D01*
X15469971Y-15105647D01*
X15389299Y-15024975D01*
G37*
G36*
X15353917Y-15060357D02*
G01*
X15369751Y-15044523D01*
X15450422Y-15125195D01*
X15434588Y-15141029D01*
X15353917Y-15060357D01*
G37*
G36*
X15318535Y-15095740D02*
G01*
X15334369Y-15079906D01*
X15415040Y-15160577D01*
X15399206Y-15176411D01*
X15318535Y-15095740D01*
G37*
G36*
X15283153Y-15131122D02*
G01*
X15298987Y-15115288D01*
X15379658Y-15195959D01*
X15363824Y-15211793D01*
X15283153Y-15131122D01*
G37*
G36*
X15247770Y-15166504D02*
G01*
X15263604Y-15150670D01*
X15344276Y-15231341D01*
X15328442Y-15247175D01*
X15247770Y-15166504D01*
G37*
G36*
X15212388Y-15201886D02*
G01*
X15228222Y-15186052D01*
X15308894Y-15266724D01*
X15293060Y-15282558D01*
X15212388Y-15201886D01*
G37*
G36*
X15177186Y-15237089D02*
G01*
X15193020Y-15221255D01*
X15273691Y-15301926D01*
X15257857Y-15317760D01*
X15177186Y-15237089D01*
G37*
G36*
X15141803Y-15272471D02*
G01*
X15157637Y-15256637D01*
X15238309Y-15337308D01*
X15222475Y-15353142D01*
X15141803Y-15272471D01*
G37*
G36*
X15106421Y-15307853D02*
G01*
X15122255Y-15292019D01*
X15202927Y-15372691D01*
X15187093Y-15388525D01*
X15106421Y-15307853D01*
G37*
G36*
X15071039Y-15343235D02*
G01*
X15086873Y-15327401D01*
X15167544Y-15408073D01*
X15151710Y-15423907D01*
X15071039Y-15343235D01*
G37*
G36*
X15035657Y-15378618D02*
G01*
X15051491Y-15362784D01*
X15132162Y-15443455D01*
X15116328Y-15459289D01*
X15035657Y-15378618D01*
G37*
G36*
X14798068Y-15362784D02*
G01*
X14813902Y-15378618D01*
X14733231Y-15459289D01*
X14717397Y-15443455D01*
X14798068Y-15362784D01*
G37*
G36*
X14762686Y-15327401D02*
G01*
X14778520Y-15343235D01*
X14697848Y-15423907D01*
X14682014Y-15408073D01*
X14762686Y-15327401D01*
G37*
G36*
X14727303Y-15292019D02*
G01*
X14743137Y-15307853D01*
X14662466Y-15388525D01*
X14646632Y-15372691D01*
X14727303Y-15292019D01*
G37*
G36*
X14691921Y-15256637D02*
G01*
X14707755Y-15272471D01*
X14627084Y-15353142D01*
X14611250Y-15337308D01*
X14691921Y-15256637D01*
G37*
G36*
X14656539Y-15221255D02*
G01*
X14672373Y-15237089D01*
X14591702Y-15317760D01*
X14575868Y-15301926D01*
X14656539Y-15221255D01*
G37*
G36*
X14621336Y-15186052D02*
G01*
X14637170Y-15201886D01*
X14556499Y-15282558D01*
X14540665Y-15266724D01*
X14621336Y-15186052D01*
G37*
G36*
X14585954Y-15150670D02*
G01*
X14601788Y-15166504D01*
X14521117Y-15247175D01*
X14505283Y-15231341D01*
X14585954Y-15150670D01*
G37*
G36*
X14550572Y-15115288D02*
G01*
X14566406Y-15131122D01*
X14485735Y-15211793D01*
X14469901Y-15195959D01*
X14550572Y-15115288D01*
G37*
G36*
X14515190Y-15079906D02*
G01*
X14531024Y-15095740D01*
X14450352Y-15176411D01*
X14434518Y-15160577D01*
X14515190Y-15079906D01*
G37*
G36*
X14479808Y-15044523D02*
G01*
X14495642Y-15060357D01*
X14414970Y-15141029D01*
X14399136Y-15125195D01*
X14479808Y-15044523D01*
G37*
G36*
X14444425Y-15009141D02*
G01*
X14460259Y-15024975D01*
X14379588Y-15105647D01*
X14363754Y-15089813D01*
X14444425Y-15009141D01*
G37*
G36*
X14409223Y-14973939D02*
G01*
X14425057Y-14989773D01*
X14344385Y-15070444D01*
X14328551Y-15054610D01*
X14409223Y-14973939D01*
G37*
G36*
X14373841Y-14938556D02*
G01*
X14389675Y-14954390D01*
X14309003Y-15035062D01*
X14293169Y-15019228D01*
X14373841Y-14938556D01*
G37*
G36*
X14338458Y-14903174D02*
G01*
X14354292Y-14919008D01*
X14273621Y-14999680D01*
X14257787Y-14983846D01*
X14338458Y-14903174D01*
G37*
G36*
X14303076Y-14867792D02*
G01*
X14318910Y-14883626D01*
X14238239Y-14964297D01*
X14222405Y-14948463D01*
X14303076Y-14867792D01*
G37*
G36*
X14267694Y-14832410D02*
G01*
X14283528Y-14848244D01*
X14202857Y-14928915D01*
X14187023Y-14913081D01*
X14267694Y-14832410D01*
G37*
G36*
X14232312Y-14797028D02*
G01*
X14248146Y-14812862D01*
X14167474Y-14893533D01*
X14151640Y-14877699D01*
X14232312Y-14797028D01*
G37*
G36*
X14196930Y-14761645D02*
G01*
X14212764Y-14777479D01*
X14132092Y-14858151D01*
X14116258Y-14842317D01*
X14196930Y-14761645D01*
G37*
G36*
X14161727Y-14726443D02*
G01*
X14177561Y-14742277D01*
X14096890Y-14822948D01*
X14081056Y-14807114D01*
X14161727Y-14726443D01*
G37*
G36*
X14126345Y-14691061D02*
G01*
X14142179Y-14706895D01*
X14061507Y-14787566D01*
X14045673Y-14771732D01*
X14126345Y-14691061D01*
G37*
G36*
X14090963Y-14655678D02*
G01*
X14106797Y-14671512D01*
X14026125Y-14752184D01*
X14010291Y-14736350D01*
X14090963Y-14655678D01*
G37*
G36*
X14055580Y-14620296D02*
G01*
X14071414Y-14636130D01*
X13990743Y-14716802D01*
X13974909Y-14700968D01*
X14055580Y-14620296D01*
G37*
G36*
X14020198Y-14584914D02*
G01*
X14036032Y-14600748D01*
X13955361Y-14681419D01*
X13939527Y-14665585D01*
X14020198Y-14584914D01*
G37*
G36*
X13984816Y-14549532D02*
G01*
X14000650Y-14565366D01*
X13919979Y-14646037D01*
X13904145Y-14630203D01*
X13984816Y-14549532D01*
G37*
G36*
X13949434Y-14514149D02*
G01*
X13965268Y-14529983D01*
X13884596Y-14610655D01*
X13868762Y-14594821D01*
X13949434Y-14514149D01*
G37*
G36*
X13914231Y-14478947D02*
G01*
X13930065Y-14494781D01*
X13849394Y-14575452D01*
X13833560Y-14559618D01*
X13914231Y-14478947D01*
G37*
G36*
X13878849Y-14443565D02*
G01*
X13894683Y-14459399D01*
X13814011Y-14540070D01*
X13798177Y-14524236D01*
X13878849Y-14443565D01*
G37*
G36*
X13843467Y-14408182D02*
G01*
X13859301Y-14424016D01*
X13778629Y-14504688D01*
X13762795Y-14488854D01*
X13843467Y-14408182D01*
G37*
G36*
X13808084Y-14372800D02*
G01*
X13823918Y-14388634D01*
X13743247Y-14469306D01*
X13727413Y-14453472D01*
X13808084Y-14372800D01*
G37*
G36*
X13772702Y-14337418D02*
G01*
X13788536Y-14353252D01*
X13707865Y-14433923D01*
X13692031Y-14418089D01*
X13772702Y-14337418D01*
G37*
G36*
X13737320Y-14302036D02*
G01*
X13753154Y-14317870D01*
X13672483Y-14398541D01*
X13656649Y-14382707D01*
X13737320Y-14302036D01*
G37*
G36*
X13702117Y-14266833D02*
G01*
X13717951Y-14282667D01*
X13637280Y-14363339D01*
X13621446Y-14347505D01*
X13702117Y-14266833D01*
G37*
G36*
X13666735Y-14231451D02*
G01*
X13682569Y-14247285D01*
X13601898Y-14327956D01*
X13586064Y-14312122D01*
X13666735Y-14231451D01*
G37*
G36*
X13631353Y-14196069D02*
G01*
X13647187Y-14211903D01*
X13566516Y-14292574D01*
X13550682Y-14276740D01*
X13631353Y-14196069D01*
G37*
G36*
X13595971Y-14160687D02*
G01*
X13611805Y-14176521D01*
X13531133Y-14257192D01*
X13515299Y-14241358D01*
X13595971Y-14160687D01*
G37*
G36*
X13560589Y-14125304D02*
G01*
X13576423Y-14141138D01*
X13495751Y-14221810D01*
X13479917Y-14205976D01*
X13560589Y-14125304D01*
G37*
G36*
X13479917Y-13822878D02*
G01*
X13495751Y-13807044D01*
X13576423Y-13887716D01*
X13560589Y-13903550D01*
X13479917Y-13822878D01*
G37*
G36*
X13515299Y-13787496D02*
G01*
X13531133Y-13771662D01*
X13611805Y-13852333D01*
X13595971Y-13868167D01*
X13515299Y-13787496D01*
G37*
G36*
X13550682Y-13752114D02*
G01*
X13566516Y-13736280D01*
X13647187Y-13816951D01*
X13631353Y-13832785D01*
X13550682Y-13752114D01*
G37*
G36*
X13586064Y-13716731D02*
G01*
X13601898Y-13700897D01*
X13682569Y-13781569D01*
X13666735Y-13797403D01*
X13586064Y-13716731D01*
G37*
G36*
X13621446Y-13681349D02*
G01*
X13637280Y-13665515D01*
X13717951Y-13746187D01*
X13702117Y-13762021D01*
X13621446Y-13681349D01*
G37*
G36*
X13656649Y-13646147D02*
G01*
X13672483Y-13630313D01*
X13753154Y-13710984D01*
X13737320Y-13726818D01*
X13656649Y-13646147D01*
G37*
G36*
X13692031Y-13610764D02*
G01*
X13707865Y-13594930D01*
X13788536Y-13675602D01*
X13772702Y-13691436D01*
X13692031Y-13610764D01*
G37*
G36*
X13727413Y-13575382D02*
G01*
X13743247Y-13559548D01*
X13823918Y-13640220D01*
X13808084Y-13656054D01*
X13727413Y-13575382D01*
G37*
G36*
X13762795Y-13540000D02*
G01*
X13778629Y-13524166D01*
X13859301Y-13604837D01*
X13843467Y-13620671D01*
X13762795Y-13540000D01*
G37*
G36*
X13798177Y-13504618D02*
G01*
X13814011Y-13488784D01*
X13894683Y-13569455D01*
X13878849Y-13585289D01*
X13798177Y-13504618D01*
G37*
G36*
X13833560Y-13469236D02*
G01*
X13849394Y-13453402D01*
X13930065Y-13534073D01*
X13914231Y-13549907D01*
X13833560Y-13469236D01*
G37*
G36*
X13868762Y-13434033D02*
G01*
X13884596Y-13418199D01*
X13965268Y-13498870D01*
X13949434Y-13514704D01*
X13868762Y-13434033D01*
G37*
G36*
X13904145Y-13398651D02*
G01*
X13919979Y-13382817D01*
X14000650Y-13463488D01*
X13984816Y-13479322D01*
X13904145Y-13398651D01*
G37*
G36*
X13939527Y-13363269D02*
G01*
X13955361Y-13347435D01*
X14036032Y-13428106D01*
X14020198Y-13443940D01*
X13939527Y-13363269D01*
G37*
G36*
X13974909Y-13327886D02*
G01*
X13990743Y-13312052D01*
X14071414Y-13392724D01*
X14055580Y-13408558D01*
X13974909Y-13327886D01*
G37*
G36*
X14010291Y-13292504D02*
G01*
X14026125Y-13276670D01*
X14106797Y-13357342D01*
X14090963Y-13373176D01*
X14010291Y-13292504D01*
G37*
G36*
X14045673Y-13257122D02*
G01*
X14061507Y-13241288D01*
X14142179Y-13321959D01*
X14126345Y-13337793D01*
X14045673Y-13257122D01*
G37*
G36*
X14081056Y-13221740D02*
G01*
X14096890Y-13205906D01*
X14177561Y-13286577D01*
X14161727Y-13302411D01*
X14081056Y-13221740D01*
G37*
G36*
X14116258Y-13186537D02*
G01*
X14132092Y-13170703D01*
X14212764Y-13251375D01*
X14196930Y-13267209D01*
X14116258Y-13186537D01*
G37*
G36*
X14151640Y-13151155D02*
G01*
X14167474Y-13135321D01*
X14248146Y-13215992D01*
X14232312Y-13231826D01*
X14151640Y-13151155D01*
G37*
G36*
X14187023Y-13115773D02*
G01*
X14202857Y-13099939D01*
X14283528Y-13180610D01*
X14267694Y-13196444D01*
X14187023Y-13115773D01*
G37*
G36*
X14222405Y-13080391D02*
G01*
X14238239Y-13064557D01*
X14318910Y-13145228D01*
X14303076Y-13161062D01*
X14222405Y-13080391D01*
G37*
G36*
X14257787Y-13045008D02*
G01*
X14273621Y-13029174D01*
X14354292Y-13109846D01*
X14338458Y-13125680D01*
X14257787Y-13045008D01*
G37*
G36*
X14293169Y-13009626D02*
G01*
X14309003Y-12993792D01*
X14389675Y-13074464D01*
X14373841Y-13090298D01*
X14293169Y-13009626D01*
G37*
G36*
X14328551Y-12974244D02*
G01*
X14344385Y-12958410D01*
X14425057Y-13039081D01*
X14409223Y-13054915D01*
X14328551Y-12974244D01*
G37*
G36*
X14363754Y-12939041D02*
G01*
X14379588Y-12923207D01*
X14460259Y-13003879D01*
X14444425Y-13019713D01*
X14363754Y-12939041D01*
G37*
G36*
X14399136Y-12903659D02*
G01*
X14414970Y-12887825D01*
X14495642Y-12968496D01*
X14479808Y-12984330D01*
X14399136Y-12903659D01*
G37*
G36*
X14434518Y-12868277D02*
G01*
X14450352Y-12852443D01*
X14531024Y-12933114D01*
X14515190Y-12948948D01*
X14434518Y-12868277D01*
G37*
G36*
X14469901Y-12832895D02*
G01*
X14485735Y-12817061D01*
X14566406Y-12897732D01*
X14550572Y-12913566D01*
X14469901Y-12832895D01*
G37*
G36*
X14505283Y-12797512D02*
G01*
X14521117Y-12781678D01*
X14601788Y-12862350D01*
X14585954Y-12878184D01*
X14505283Y-12797512D01*
G37*
G36*
X14540665Y-12762130D02*
G01*
X14556499Y-12746296D01*
X14637170Y-12826968D01*
X14621336Y-12842802D01*
X14540665Y-12762130D01*
G37*
G36*
X14575868Y-12726928D02*
G01*
X14591702Y-12711094D01*
X14672373Y-12791765D01*
X14656539Y-12807599D01*
X14575868Y-12726928D01*
G37*
G36*
X14611250Y-12691545D02*
G01*
X14627084Y-12675711D01*
X14707755Y-12756383D01*
X14691921Y-12772217D01*
X14611250Y-12691545D01*
G37*
G36*
X14646632Y-12656163D02*
G01*
X14662466Y-12640329D01*
X14743137Y-12721001D01*
X14727303Y-12736835D01*
X14646632Y-12656163D01*
G37*
G36*
X14682014Y-12620781D02*
G01*
X14697848Y-12604947D01*
X14778520Y-12685618D01*
X14762686Y-12701452D01*
X14682014Y-12620781D01*
G37*
G36*
X14717397Y-12585399D02*
G01*
X14733231Y-12569565D01*
X14813902Y-12650236D01*
X14798068Y-12666070D01*
X14717397Y-12585399D01*
G37*
G36*
X15116328Y-12569565D02*
G01*
X15132162Y-12585399D01*
X15051491Y-12666070D01*
X15035657Y-12650236D01*
X15116328Y-12569565D01*
G37*
G36*
X15151710Y-12604947D02*
G01*
X15167544Y-12620781D01*
X15086873Y-12701452D01*
X15071039Y-12685618D01*
X15151710Y-12604947D01*
G37*
G36*
X15187093Y-12640329D02*
G01*
X15202927Y-12656163D01*
X15122255Y-12736835D01*
X15106421Y-12721001D01*
X15187093Y-12640329D01*
G37*
G36*
X15222475Y-12675711D02*
G01*
X15238309Y-12691545D01*
X15157637Y-12772217D01*
X15141803Y-12756383D01*
X15222475Y-12675711D01*
G37*
G36*
X15257857Y-12711094D02*
G01*
X15273691Y-12726928D01*
X15193020Y-12807599D01*
X15177186Y-12791765D01*
X15257857Y-12711094D01*
G37*
G36*
X15293060Y-12746296D02*
G01*
X15308894Y-12762130D01*
X15228222Y-12842802D01*
X15212388Y-12826968D01*
X15293060Y-12746296D01*
G37*
G36*
X15328442Y-12781678D02*
G01*
X15344276Y-12797512D01*
X15263604Y-12878184D01*
X15247770Y-12862350D01*
X15328442Y-12781678D01*
G37*
G36*
X15363824Y-12817061D02*
G01*
X15379658Y-12832895D01*
X15298987Y-12913566D01*
X15283153Y-12897732D01*
X15363824Y-12817061D01*
G37*
G36*
X15399206Y-12852443D02*
G01*
X15415040Y-12868277D01*
X15334369Y-12948948D01*
X15318535Y-12933114D01*
X15399206Y-12852443D01*
G37*
G36*
X15434588Y-12887825D02*
G01*
X15450422Y-12903659D01*
X15369751Y-12984330D01*
X15353917Y-12968496D01*
X15434588Y-12887825D01*
G37*
G36*
X15469971Y-12923207D02*
G01*
X15485805Y-12939041D01*
X15405133Y-13019713D01*
X15389299Y-13003879D01*
X15469971Y-12923207D01*
G37*
G36*
X15505173Y-12958410D02*
G01*
X15521007Y-12974244D01*
X15440336Y-13054915D01*
X15424502Y-13039081D01*
X15505173Y-12958410D01*
G37*
G36*
X15540555Y-12993792D02*
G01*
X15556389Y-13009626D01*
X15475718Y-13090298D01*
X15459884Y-13074464D01*
X15540555Y-12993792D01*
G37*
G36*
X15575938Y-13029174D02*
G01*
X15591772Y-13045008D01*
X15511100Y-13125680D01*
X15495266Y-13109846D01*
X15575938Y-13029174D01*
G37*
G36*
X15611320Y-13064557D02*
G01*
X15627154Y-13080391D01*
X15546483Y-13161062D01*
X15530649Y-13145228D01*
X15611320Y-13064557D01*
G37*
G36*
X15646702Y-13099939D02*
G01*
X15662536Y-13115773D01*
X15581865Y-13196444D01*
X15566031Y-13180610D01*
X15646702Y-13099939D01*
G37*
G36*
X15682084Y-13135321D02*
G01*
X15697918Y-13151155D01*
X15617247Y-13231826D01*
X15601413Y-13215992D01*
X15682084Y-13135321D01*
G37*
G36*
X15717467Y-13170703D02*
G01*
X15733301Y-13186537D01*
X15652629Y-13267209D01*
X15636795Y-13251375D01*
X15717467Y-13170703D01*
G37*
G36*
X15752669Y-13205906D02*
G01*
X15768503Y-13221740D01*
X15687832Y-13302411D01*
X15671998Y-13286577D01*
X15752669Y-13205906D01*
G37*
G36*
X15788051Y-13241288D02*
G01*
X15803885Y-13257122D01*
X15723214Y-13337793D01*
X15707380Y-13321959D01*
X15788051Y-13241288D01*
G37*
G36*
X15823434Y-13276670D02*
G01*
X15839268Y-13292504D01*
X15758596Y-13373176D01*
X15742762Y-13357342D01*
X15823434Y-13276670D01*
G37*
G36*
X15858816Y-13312052D02*
G01*
X15874650Y-13327886D01*
X15793978Y-13408558D01*
X15778144Y-13392724D01*
X15858816Y-13312052D01*
G37*
G36*
X15894198Y-13347435D02*
G01*
X15910032Y-13363269D01*
X15829361Y-13443940D01*
X15813527Y-13428106D01*
X15894198Y-13347435D01*
G37*
G36*
X15929580Y-13382817D02*
G01*
X15945414Y-13398651D01*
X15864743Y-13479322D01*
X15848909Y-13463488D01*
X15929580Y-13382817D01*
G37*
G36*
X15964962Y-13418199D02*
G01*
X15980796Y-13434033D01*
X15900125Y-13514704D01*
X15884291Y-13498870D01*
X15964962Y-13418199D01*
G37*
G36*
X16000165Y-13453402D02*
G01*
X16015999Y-13469236D01*
X15935328Y-13549907D01*
X15919494Y-13534073D01*
X16000165Y-13453402D01*
G37*
G36*
X16035547Y-13488784D02*
G01*
X16051381Y-13504618D01*
X15970710Y-13585289D01*
X15954876Y-13569455D01*
X16035547Y-13488784D01*
G37*
G36*
X16070929Y-13524166D02*
G01*
X16086763Y-13540000D01*
X16006092Y-13620671D01*
X15990258Y-13604837D01*
X16070929Y-13524166D01*
G37*
G36*
X16106312Y-13559548D02*
G01*
X16122146Y-13575382D01*
X16041474Y-13656054D01*
X16025640Y-13640220D01*
X16106312Y-13559548D01*
G37*
G36*
X16141694Y-13594930D02*
G01*
X16157528Y-13610764D01*
X16076856Y-13691436D01*
X16061022Y-13675602D01*
X16141694Y-13594930D01*
G37*
G36*
X16177076Y-13630313D02*
G01*
X16192910Y-13646147D01*
X16112239Y-13726818D01*
X16096405Y-13710984D01*
X16177076Y-13630313D01*
G37*
G36*
X16212279Y-13665515D02*
G01*
X16228113Y-13681349D01*
X16147441Y-13762021D01*
X16131607Y-13746187D01*
X16212279Y-13665515D01*
G37*
G36*
X16247661Y-13700897D02*
G01*
X16263495Y-13716731D01*
X16182823Y-13797403D01*
X16166989Y-13781569D01*
X16247661Y-13700897D01*
G37*
G36*
X16283043Y-13736280D02*
G01*
X16298877Y-13752114D01*
X16218206Y-13832785D01*
X16202372Y-13816951D01*
X16283043Y-13736280D01*
G37*
G36*
X16318425Y-13771662D02*
G01*
X16334259Y-13787496D01*
X16253588Y-13868167D01*
X16237754Y-13852333D01*
X16318425Y-13771662D01*
G37*
G36*
X16353807Y-13807044D02*
G01*
X16369641Y-13822878D01*
X16288970Y-13903550D01*
X16273136Y-13887716D01*
X16353807Y-13807044D01*
G37*
G04 #@! TD*
D46*
G04 #@! TO.C,U24*
X13474700Y-11101832D03*
X13474700Y-11151870D03*
X13474700Y-11201654D03*
X13474700Y-11251692D03*
X13474700Y-11301730D03*
X13474700Y-11351768D03*
X13474700Y-11401806D03*
X13474700Y-11451844D03*
X13474700Y-11501882D03*
X13474700Y-11551666D03*
X13474700Y-11601704D03*
X13474700Y-11651742D03*
X13474700Y-11701780D03*
X13474700Y-11751818D03*
X13474700Y-11801856D03*
X13474700Y-11851894D03*
X13474700Y-11901678D03*
X13474700Y-11951716D03*
X13474700Y-12001754D03*
X13474700Y-12051792D03*
X13474700Y-12101830D03*
X13474700Y-12151868D03*
X13474700Y-12201906D03*
X13474700Y-12251690D03*
X13474700Y-12301728D03*
D47*
X13274548Y-12501880D03*
X13224510Y-12501880D03*
X13174726Y-12501880D03*
X13124688Y-12501880D03*
X13074650Y-12501880D03*
X13024612Y-12501880D03*
X12974574Y-12501880D03*
X12924536Y-12501880D03*
X12874498Y-12501880D03*
X12824714Y-12501880D03*
X12774676Y-12501880D03*
X12724638Y-12501880D03*
X12674600Y-12501880D03*
X12624562Y-12501880D03*
X12574524Y-12501880D03*
X12524486Y-12501880D03*
X12474702Y-12501880D03*
X12424664Y-12501880D03*
X12374626Y-12501880D03*
X12324588Y-12501880D03*
X12274550Y-12501880D03*
X12224512Y-12501880D03*
X12174474Y-12501880D03*
X12124690Y-12501880D03*
X12074652Y-12501880D03*
D46*
X11874500Y-12301728D03*
X11874500Y-12251690D03*
X11874500Y-12201906D03*
X11874500Y-12151868D03*
X11874500Y-12101830D03*
X11874500Y-12051792D03*
X11874500Y-12001754D03*
X11874500Y-11951716D03*
X11874500Y-11901678D03*
X11874500Y-11851894D03*
X11874500Y-11801856D03*
X11874500Y-11751818D03*
X11874500Y-11701780D03*
X11874500Y-11651742D03*
X11874500Y-11601704D03*
X11874500Y-11551666D03*
X11874500Y-11501882D03*
X11874500Y-11451844D03*
X11874500Y-11401806D03*
X11874500Y-11351768D03*
X11874500Y-11301730D03*
X11874500Y-11251692D03*
X11874500Y-11201654D03*
X11874500Y-11151870D03*
X11874500Y-11101832D03*
D47*
X12074652Y-10901680D03*
X12124690Y-10901680D03*
X12174474Y-10901680D03*
X12224512Y-10901680D03*
X12274550Y-10901680D03*
X12324588Y-10901680D03*
X12374626Y-10901680D03*
X12424664Y-10901680D03*
X12474702Y-10901680D03*
X12524486Y-10901680D03*
X12574524Y-10901680D03*
X12624562Y-10901680D03*
X12674600Y-10901680D03*
X12724638Y-10901680D03*
X12774676Y-10901680D03*
X12824714Y-10901680D03*
X12874498Y-10901680D03*
X12924536Y-10901680D03*
X12974574Y-10901680D03*
X13024612Y-10901680D03*
X13074650Y-10901680D03*
X13124688Y-10901680D03*
X13174726Y-10901680D03*
X13224510Y-10901680D03*
X13274548Y-10901680D03*
G04 #@! TD*
D48*
G04 #@! TO.C,X1*
X12387510Y-16986782D03*
X12547530Y-16766818D03*
X12387510Y-16766818D03*
X12547530Y-16986782D03*
G04 #@! TD*
D30*
G04 #@! TO.C,X2*
G36*
X16175187Y-13325954D02*
G01*
X16110759Y-13261526D01*
X16185970Y-13186314D01*
X16250398Y-13250742D01*
X16175187Y-13325954D01*
G37*
G36*
X16443876Y-13283567D02*
G01*
X16379448Y-13219139D01*
X16454659Y-13143928D01*
X16519087Y-13208356D01*
X16443876Y-13283567D01*
G37*
G36*
X16330725Y-13170416D02*
G01*
X16266297Y-13105988D01*
X16341508Y-13030776D01*
X16405936Y-13095204D01*
X16330725Y-13170416D01*
G37*
G36*
X16288338Y-13439105D02*
G01*
X16223910Y-13374677D01*
X16299121Y-13299466D01*
X16363549Y-13363894D01*
X16288338Y-13439105D01*
G37*
G04 #@! TD*
D49*
G04 #@! TO.C,X3*
X16705000Y-15350000D03*
D50*
X16150000Y-15305000D03*
X16150000Y-15395000D03*
G04 #@! TD*
D51*
G04 #@! TO.C,U4*
X9529540Y-15601360D03*
X9529540Y-15651360D03*
X9529540Y-15701360D03*
X9529540Y-15751360D03*
X9529540Y-15801360D03*
X9529540Y-15851360D03*
X9529540Y-15901360D03*
X9529540Y-15951360D03*
D52*
X9437040Y-16043860D03*
X9387040Y-16043860D03*
X9337040Y-16043860D03*
X9287040Y-16043860D03*
X9237040Y-16043860D03*
X9187040Y-16043860D03*
X9137040Y-16043860D03*
X9087040Y-16043860D03*
D51*
X8994540Y-15951360D03*
X8994540Y-15901360D03*
X8994540Y-15851360D03*
X8994540Y-15801360D03*
X8994540Y-15751360D03*
X8994540Y-15701360D03*
X8994540Y-15651360D03*
X8994540Y-15601360D03*
D53*
X9152040Y-15886360D03*
X9152040Y-15776360D03*
X9152040Y-15666360D03*
X9262040Y-15886360D03*
X9262040Y-15776360D03*
X9262040Y-15666360D03*
X9372040Y-15886360D03*
X9372040Y-15776360D03*
X9372040Y-15666360D03*
D52*
X9087040Y-15508860D03*
X9137040Y-15508860D03*
X9187040Y-15508860D03*
X9237040Y-15508860D03*
X9287040Y-15508860D03*
X9337040Y-15508860D03*
X9387040Y-15508860D03*
X9437040Y-15508860D03*
G04 #@! TD*
D54*
G04 #@! TO.C,U17*
X11014850Y-14039710D03*
X11014850Y-14189710D03*
X11014850Y-14339710D03*
X10864850Y-14039710D03*
X10864850Y-14189710D03*
X10864850Y-14339710D03*
X10714850Y-14039710D03*
X10714850Y-14189710D03*
X10714850Y-14339710D03*
D55*
X10564850Y-14409710D03*
X10564850Y-14369710D03*
X10564850Y-14329710D03*
X10564850Y-14289710D03*
X10564850Y-14249710D03*
X10564850Y-14209710D03*
X10564850Y-14169710D03*
X10564850Y-14129710D03*
X10564850Y-14089710D03*
X10564850Y-14049710D03*
X10564850Y-14009710D03*
X10564850Y-13969710D03*
D56*
X10644850Y-13889710D03*
X10684850Y-13889710D03*
X10724850Y-13889710D03*
X10764850Y-13889710D03*
X10804850Y-13889710D03*
X10844850Y-13889710D03*
X10884850Y-13889710D03*
X10924850Y-13889710D03*
X10964850Y-13889710D03*
X11004850Y-13889710D03*
X11044850Y-13889710D03*
X11084850Y-13889710D03*
D55*
X11164850Y-13969710D03*
X11164850Y-14009710D03*
X11164850Y-14049710D03*
X11164850Y-14089710D03*
X11164850Y-14129710D03*
X11164850Y-14169710D03*
X11164850Y-14209710D03*
X11164850Y-14249710D03*
X11164850Y-14289710D03*
X11164850Y-14329710D03*
X11164850Y-14369710D03*
X11164850Y-14409710D03*
D56*
X11084850Y-14489710D03*
X11044850Y-14489710D03*
X11004850Y-14489710D03*
X10964850Y-14489710D03*
X10924850Y-14489710D03*
X10884850Y-14489710D03*
X10844850Y-14489710D03*
X10804850Y-14489710D03*
X10764850Y-14489710D03*
X10724850Y-14489710D03*
X10684850Y-14489710D03*
X10644850Y-14489710D03*
G04 #@! TD*
D57*
G04 #@! TO.C,U18*
X10454540Y-11081180D03*
X10454540Y-11246180D03*
X10454540Y-11411180D03*
X10289540Y-11081180D03*
X10289540Y-11246180D03*
X10289540Y-11411180D03*
X10124540Y-11081180D03*
X10124540Y-11246180D03*
X10124540Y-11411180D03*
D58*
X9944540Y-11521180D03*
X9944540Y-11471180D03*
X9944540Y-11421180D03*
X9944540Y-11371180D03*
X9944540Y-11321180D03*
X9944540Y-11271180D03*
X9944540Y-11221180D03*
X9944540Y-11171180D03*
X9944540Y-11121180D03*
X9944540Y-11071180D03*
X9944540Y-11021180D03*
X9944540Y-10971180D03*
D59*
X10014540Y-10901180D03*
X10064540Y-10901180D03*
X10114540Y-10901180D03*
X10164540Y-10901180D03*
X10214540Y-10901180D03*
X10264540Y-10901180D03*
X10314540Y-10901180D03*
X10364540Y-10901180D03*
X10414540Y-10901180D03*
X10464540Y-10901180D03*
X10514540Y-10901180D03*
X10564540Y-10901180D03*
D58*
X10634540Y-10971180D03*
X10634540Y-11021180D03*
X10634540Y-11071180D03*
X10634540Y-11121180D03*
X10634540Y-11171180D03*
X10634540Y-11221180D03*
X10634540Y-11271180D03*
X10634540Y-11321180D03*
X10634540Y-11371180D03*
X10634540Y-11421180D03*
X10634540Y-11471180D03*
X10634540Y-11521180D03*
D59*
X10564540Y-11591180D03*
X10514540Y-11591180D03*
X10464540Y-11591180D03*
X10414540Y-11591180D03*
X10364540Y-11591180D03*
X10314540Y-11591180D03*
X10264540Y-11591180D03*
X10214540Y-11591180D03*
X10164540Y-11591180D03*
X10114540Y-11591180D03*
X10064540Y-11591180D03*
X10014540Y-11591180D03*
G04 #@! TD*
D27*
G04 #@! TO.C,C117*
X7381480Y-15735340D03*
X7274800Y-15735340D03*
G04 #@! TD*
D20*
G04 #@! TO.C,C172*
X7063980Y-16012200D03*
X7063980Y-16118880D03*
G04 #@! TD*
D27*
G04 #@! TO.C,R38*
X7236700Y-15836940D03*
X7130020Y-15836940D03*
G04 #@! TD*
G04 #@! TO.C,R39*
X7351000Y-16532900D03*
X7244320Y-16532900D03*
G04 #@! TD*
G04 #@! TO.C,R40*
X7239240Y-16179840D03*
X7345920Y-16179840D03*
G04 #@! TD*
D20*
G04 #@! TO.C,C173*
X7259560Y-16756420D03*
X7259560Y-16649740D03*
G04 #@! TD*
D32*
G04 #@! TO.C,L14*
X6934440Y-16410980D03*
X6934440Y-16563380D03*
G04 #@! TD*
D20*
G04 #@! TO.C,R42*
X7061440Y-16433840D03*
X7061440Y-16540520D03*
G04 #@! TD*
G04 #@! TO.C,R43*
X7063980Y-16327160D03*
X7063980Y-16220480D03*
G04 #@! TD*
G04 #@! TO.C,R44*
X7145260Y-16649740D03*
X7145260Y-16756420D03*
G04 #@! TD*
D60*
G04 #@! TO.C,U13*
X7170660Y-15408320D03*
X7170660Y-15488320D03*
D61*
X7265660Y-15473320D03*
X7265660Y-15523320D03*
X7075660Y-15523320D03*
X7075660Y-15423320D03*
X7075660Y-15373320D03*
X7265660Y-15373320D03*
X7265660Y-15423320D03*
X7075660Y-15473320D03*
G04 #@! TD*
D62*
G04 #@! TO.C,U25*
X8064100Y-15679460D03*
X7984100Y-15679460D03*
D63*
X7999100Y-15774460D03*
X7949100Y-15774460D03*
X7949100Y-15584460D03*
X8049100Y-15584460D03*
X8099100Y-15584460D03*
X8099100Y-15774460D03*
X8049100Y-15774460D03*
X7999100Y-15584460D03*
G04 #@! TD*
D20*
G04 #@! TO.C,C29*
X7615160Y-13777000D03*
X7615160Y-13883680D03*
G04 #@! TD*
D64*
G04 #@! TO.C,D10*
X6954760Y-15802520D03*
X6954760Y-15627520D03*
D30*
G36*
X6889778Y-15739020D02*
G01*
X6889608Y-15739011D01*
X6889464Y-15738989D01*
X6889321Y-15738953D01*
X6889184Y-15738904D01*
X6889052Y-15738841D01*
X6888926Y-15738765D01*
X6888809Y-15738678D01*
X6888700Y-15738579D01*
X6888602Y-15738471D01*
X6888514Y-15738354D01*
X6888439Y-15738228D01*
X6888376Y-15738095D01*
X6888327Y-15737958D01*
X6888291Y-15737816D01*
X6888269Y-15737670D01*
X6888260Y-15737501D01*
X6888260Y-15737468D01*
X6888258Y-15737416D01*
X6888173Y-15735897D01*
X6888163Y-15735800D01*
X6887939Y-15734352D01*
X6887919Y-15734256D01*
X6887555Y-15732836D01*
X6887526Y-15732743D01*
X6887025Y-15731366D01*
X6886987Y-15731276D01*
X6886354Y-15729955D01*
X6886308Y-15729869D01*
X6885549Y-15728616D01*
X6885494Y-15728535D01*
X6884616Y-15727361D01*
X6884554Y-15727286D01*
X6883566Y-15726205D01*
X6883497Y-15726136D01*
X6882408Y-15725155D01*
X6882332Y-15725093D01*
X6881153Y-15724224D01*
X6881071Y-15724170D01*
X6879813Y-15723420D01*
X6879727Y-15723374D01*
X6878401Y-15722750D01*
X6878311Y-15722713D01*
X6876931Y-15722221D01*
X6876837Y-15722193D01*
X6875415Y-15721838D01*
X6875319Y-15721819D01*
X6873869Y-15721605D01*
X6873772Y-15721596D01*
X6872192Y-15721518D01*
X6872187Y-15721518D01*
X6872021Y-15721500D01*
X6871877Y-15721469D01*
X6871738Y-15721425D01*
X6871602Y-15721367D01*
X6871475Y-15721297D01*
X6871353Y-15721213D01*
X6871242Y-15721120D01*
X6871139Y-15721015D01*
X6871048Y-15720901D01*
X6870967Y-15720778D01*
X6870900Y-15720649D01*
X6870844Y-15720513D01*
X6870803Y-15720373D01*
X6870776Y-15720228D01*
X6870762Y-15720083D01*
X6870763Y-15720054D01*
X6870760Y-15719995D01*
X6870760Y-15691319D01*
X6870769Y-15691222D01*
X6870784Y-15691176D01*
X6870806Y-15691134D01*
X6870837Y-15691097D01*
X6870874Y-15691066D01*
X6870916Y-15691044D01*
X6870962Y-15691029D01*
X6871059Y-15691020D01*
X6889086Y-15691020D01*
X6889183Y-15691029D01*
X6889229Y-15691043D01*
X6889288Y-15691075D01*
X6889469Y-15691150D01*
X6889662Y-15691189D01*
X6889858Y-15691189D01*
X6890050Y-15691151D01*
X6890231Y-15691076D01*
X6890314Y-15691020D01*
X7038760Y-15691020D01*
X7038760Y-15739020D01*
X6889778Y-15739020D01*
G37*
G04 #@! TD*
D64*
G04 #@! TO.C,D11*
X7351000Y-16442600D03*
X7351000Y-16267600D03*
D30*
G36*
X7286018Y-16379100D02*
G01*
X7285848Y-16379091D01*
X7285704Y-16379069D01*
X7285561Y-16379033D01*
X7285424Y-16378984D01*
X7285292Y-16378921D01*
X7285166Y-16378845D01*
X7285049Y-16378758D01*
X7284940Y-16378659D01*
X7284842Y-16378551D01*
X7284754Y-16378434D01*
X7284679Y-16378308D01*
X7284616Y-16378175D01*
X7284567Y-16378038D01*
X7284531Y-16377896D01*
X7284509Y-16377750D01*
X7284500Y-16377581D01*
X7284500Y-16377548D01*
X7284498Y-16377496D01*
X7284413Y-16375977D01*
X7284403Y-16375880D01*
X7284179Y-16374432D01*
X7284159Y-16374336D01*
X7283795Y-16372916D01*
X7283766Y-16372823D01*
X7283265Y-16371446D01*
X7283227Y-16371356D01*
X7282594Y-16370035D01*
X7282548Y-16369949D01*
X7281789Y-16368696D01*
X7281734Y-16368615D01*
X7280856Y-16367441D01*
X7280794Y-16367366D01*
X7279806Y-16366285D01*
X7279737Y-16366216D01*
X7278648Y-16365235D01*
X7278572Y-16365173D01*
X7277393Y-16364304D01*
X7277311Y-16364250D01*
X7276053Y-16363500D01*
X7275967Y-16363454D01*
X7274641Y-16362830D01*
X7274551Y-16362793D01*
X7273171Y-16362301D01*
X7273077Y-16362273D01*
X7271655Y-16361918D01*
X7271559Y-16361899D01*
X7270109Y-16361685D01*
X7270012Y-16361676D01*
X7268432Y-16361598D01*
X7268427Y-16361598D01*
X7268261Y-16361580D01*
X7268117Y-16361549D01*
X7267978Y-16361505D01*
X7267842Y-16361447D01*
X7267715Y-16361377D01*
X7267593Y-16361293D01*
X7267482Y-16361200D01*
X7267379Y-16361095D01*
X7267288Y-16360981D01*
X7267207Y-16360858D01*
X7267140Y-16360729D01*
X7267084Y-16360593D01*
X7267043Y-16360453D01*
X7267016Y-16360308D01*
X7267002Y-16360163D01*
X7267003Y-16360134D01*
X7267000Y-16360075D01*
X7267000Y-16331399D01*
X7267009Y-16331302D01*
X7267024Y-16331256D01*
X7267046Y-16331214D01*
X7267077Y-16331177D01*
X7267114Y-16331146D01*
X7267156Y-16331124D01*
X7267202Y-16331109D01*
X7267299Y-16331100D01*
X7285326Y-16331100D01*
X7285423Y-16331109D01*
X7285469Y-16331123D01*
X7285528Y-16331155D01*
X7285709Y-16331230D01*
X7285902Y-16331269D01*
X7286098Y-16331269D01*
X7286290Y-16331231D01*
X7286471Y-16331156D01*
X7286554Y-16331100D01*
X7435000Y-16331100D01*
X7435000Y-16379100D01*
X7286018Y-16379100D01*
G37*
G04 #@! TD*
G04 #@! TO.C,D12*
G36*
X7301682Y-15988200D02*
G01*
X7301852Y-15988209D01*
X7301996Y-15988231D01*
X7302139Y-15988267D01*
X7302276Y-15988316D01*
X7302408Y-15988379D01*
X7302534Y-15988455D01*
X7302651Y-15988542D01*
X7302760Y-15988641D01*
X7302858Y-15988749D01*
X7302945Y-15988866D01*
X7303021Y-15988992D01*
X7303084Y-15989125D01*
X7303133Y-15989262D01*
X7303169Y-15989404D01*
X7303191Y-15989550D01*
X7303200Y-15989718D01*
X7303200Y-15989752D01*
X7303202Y-15989804D01*
X7303287Y-15991323D01*
X7303297Y-15991420D01*
X7303521Y-15992868D01*
X7303541Y-15992964D01*
X7303905Y-15994384D01*
X7303934Y-15994477D01*
X7304435Y-15995854D01*
X7304473Y-15995944D01*
X7305106Y-15997265D01*
X7305152Y-15997351D01*
X7305911Y-15998604D01*
X7305966Y-15998685D01*
X7306844Y-15999858D01*
X7306906Y-15999934D01*
X7307893Y-16001015D01*
X7307963Y-16001084D01*
X7309052Y-16002065D01*
X7309128Y-16002127D01*
X7310307Y-16002996D01*
X7310389Y-16003050D01*
X7311647Y-16003800D01*
X7311733Y-16003846D01*
X7313059Y-16004470D01*
X7313149Y-16004507D01*
X7314529Y-16004999D01*
X7314623Y-16005027D01*
X7316045Y-16005382D01*
X7316141Y-16005401D01*
X7317591Y-16005615D01*
X7317688Y-16005624D01*
X7319268Y-16005701D01*
X7319273Y-16005702D01*
X7319439Y-16005720D01*
X7319583Y-16005751D01*
X7319722Y-16005795D01*
X7319858Y-16005853D01*
X7319985Y-16005923D01*
X7320107Y-16006007D01*
X7320218Y-16006100D01*
X7320321Y-16006205D01*
X7320412Y-16006319D01*
X7320493Y-16006442D01*
X7320560Y-16006571D01*
X7320615Y-16006707D01*
X7320657Y-16006847D01*
X7320684Y-16006992D01*
X7320697Y-16007137D01*
X7320697Y-16007166D01*
X7320700Y-16007225D01*
X7320700Y-16035901D01*
X7320690Y-16035998D01*
X7320676Y-16036044D01*
X7320654Y-16036086D01*
X7320623Y-16036123D01*
X7320586Y-16036154D01*
X7320544Y-16036176D01*
X7320498Y-16036190D01*
X7320401Y-16036200D01*
X7302374Y-16036200D01*
X7302277Y-16036190D01*
X7302231Y-16036176D01*
X7302172Y-16036145D01*
X7301990Y-16036069D01*
X7301798Y-16036031D01*
X7301602Y-16036031D01*
X7301410Y-16036069D01*
X7301229Y-16036144D01*
X7301146Y-16036200D01*
X7152700Y-16036200D01*
X7152700Y-15988200D01*
X7301682Y-15988200D01*
G37*
D64*
X7236700Y-16099700D03*
X7236700Y-15924700D03*
G04 #@! TD*
G04 #@! TO.C,U15*
G36*
G01*
X17008760Y-12241540D02*
X17008760Y-12218740D01*
G75*
G02*
X17020160Y-12207340I11400J0D01*
G01*
X17145560Y-12207340D01*
G75*
G02*
X17156960Y-12218740I0J-11400D01*
G01*
X17156960Y-12241540D01*
G75*
G02*
X17145560Y-12252940I-11400J0D01*
G01*
X17020160Y-12252940D01*
G75*
G02*
X17008760Y-12241540I0J11400D01*
G01*
G37*
G36*
G01*
X17008760Y-12368540D02*
X17008760Y-12345740D01*
G75*
G02*
X17020160Y-12334340I11400J0D01*
G01*
X17145560Y-12334340D01*
G75*
G02*
X17156960Y-12345740I0J-11400D01*
G01*
X17156960Y-12368540D01*
G75*
G02*
X17145560Y-12379940I-11400J0D01*
G01*
X17020160Y-12379940D01*
G75*
G02*
X17008760Y-12368540I0J11400D01*
G01*
G37*
G36*
G01*
X17008760Y-12495540D02*
X17008760Y-12472740D01*
G75*
G02*
X17020160Y-12461340I11400J0D01*
G01*
X17145560Y-12461340D01*
G75*
G02*
X17156960Y-12472740I0J-11400D01*
G01*
X17156960Y-12495540D01*
G75*
G02*
X17145560Y-12506940I-11400J0D01*
G01*
X17020160Y-12506940D01*
G75*
G02*
X17008760Y-12495540I0J11400D01*
G01*
G37*
G36*
G01*
X17008760Y-12622540D02*
X17008760Y-12599740D01*
G75*
G02*
X17020160Y-12588340I11400J0D01*
G01*
X17145560Y-12588340D01*
G75*
G02*
X17156960Y-12599740I0J-11400D01*
G01*
X17156960Y-12622540D01*
G75*
G02*
X17145560Y-12633940I-11400J0D01*
G01*
X17020160Y-12633940D01*
G75*
G02*
X17008760Y-12622540I0J11400D01*
G01*
G37*
G36*
G01*
X16513760Y-12622540D02*
X16513760Y-12599740D01*
G75*
G02*
X16525160Y-12588340I11400J0D01*
G01*
X16650560Y-12588340D01*
G75*
G02*
X16661960Y-12599740I0J-11400D01*
G01*
X16661960Y-12622540D01*
G75*
G02*
X16650560Y-12633940I-11400J0D01*
G01*
X16525160Y-12633940D01*
G75*
G02*
X16513760Y-12622540I0J11400D01*
G01*
G37*
G36*
G01*
X16513760Y-12495540D02*
X16513760Y-12472740D01*
G75*
G02*
X16525160Y-12461340I11400J0D01*
G01*
X16650560Y-12461340D01*
G75*
G02*
X16661960Y-12472740I0J-11400D01*
G01*
X16661960Y-12495540D01*
G75*
G02*
X16650560Y-12506940I-11400J0D01*
G01*
X16525160Y-12506940D01*
G75*
G02*
X16513760Y-12495540I0J11400D01*
G01*
G37*
G36*
G01*
X16513760Y-12368540D02*
X16513760Y-12345740D01*
G75*
G02*
X16525160Y-12334340I11400J0D01*
G01*
X16650560Y-12334340D01*
G75*
G02*
X16661960Y-12345740I0J-11400D01*
G01*
X16661960Y-12368540D01*
G75*
G02*
X16650560Y-12379940I-11400J0D01*
G01*
X16525160Y-12379940D01*
G75*
G02*
X16513760Y-12368540I0J11400D01*
G01*
G37*
G36*
G01*
X16513760Y-12241540D02*
X16513760Y-12218740D01*
G75*
G02*
X16525160Y-12207340I11400J0D01*
G01*
X16650560Y-12207340D01*
G75*
G02*
X16661960Y-12218740I0J-11400D01*
G01*
X16661960Y-12241540D01*
G75*
G02*
X16650560Y-12252940I-11400J0D01*
G01*
X16525160Y-12252940D01*
G75*
G02*
X16513760Y-12241540I0J11400D01*
G01*
G37*
G04 #@! TD*
M02*
