G04 #@! TF.GenerationSoftware,KiCad,Pcbnew,(5.1.6-0-10_14)*
G04 #@! TF.CreationDate,2020-08-12T12:58:02+10:00*
G04 #@! TF.ProjectId,hackrf-one,6861636b-7266-42d6-9f6e-652e6b696361,rev?*
G04 #@! TF.SameCoordinates,Original*
G04 #@! TF.FileFunction,Copper,L4,Bot*
G04 #@! TF.FilePolarity,Positive*
%FSLAX45Y45*%
G04 Gerber Fmt 4.5, Leading zero omitted, Abs format (unit mm)*
G04 Created by KiCad (PCBNEW (5.1.6-0-10_14)) date 2020-08-12 12:58:02*
%MOMM*%
%LPD*%
G01*
G04 APERTURE LIST*
G04 #@! TA.AperFunction,NonConductor*
%ADD10C,0.177800*%
G04 #@! TD*
G04 #@! TA.AperFunction,ComponentPad*
%ADD11C,1.400000*%
G04 #@! TD*
G04 #@! TA.AperFunction,ComponentPad*
%ADD12C,1.500000*%
G04 #@! TD*
G04 #@! TA.AperFunction,SMDPad,CuDef*
%ADD13C,1.000000*%
G04 #@! TD*
G04 #@! TA.AperFunction,ComponentPad*
%ADD14C,0.600000*%
G04 #@! TD*
G04 #@! TA.AperFunction,ComponentPad*
%ADD15C,5.600000*%
G04 #@! TD*
G04 #@! TA.AperFunction,ComponentPad*
%ADD16C,1.524000*%
G04 #@! TD*
G04 #@! TA.AperFunction,ComponentPad*
%ADD17R,1.524000X1.524000*%
G04 #@! TD*
G04 #@! TA.AperFunction,ViaPad*
%ADD18C,0.600000*%
G04 #@! TD*
G04 #@! TA.AperFunction,SMDPad,CuDef*
%ADD19R,4.190000X2.665000*%
G04 #@! TD*
G04 #@! TA.AperFunction,ComponentPad*
%ADD20C,1.066800*%
G04 #@! TD*
G04 #@! TA.AperFunction,ComponentPad*
%ADD21R,1.066800X1.066800*%
G04 #@! TD*
G04 #@! TA.AperFunction,ComponentPad*
%ADD22C,2.000000*%
G04 #@! TD*
G04 #@! TA.AperFunction,ComponentPad*
%ADD23C,0.585000*%
G04 #@! TD*
G04 #@! TA.AperFunction,ComponentPad*
%ADD24C,0.635000*%
G04 #@! TD*
G04 #@! TA.AperFunction,ViaPad*
%ADD25C,0.685800*%
G04 #@! TD*
G04 #@! TA.AperFunction,Conductor*
%ADD26C,0.203200*%
G04 #@! TD*
G04 #@! TA.AperFunction,Conductor*
%ADD27C,1.270000*%
G04 #@! TD*
G04 #@! TA.AperFunction,Conductor*
%ADD28C,0.254000*%
G04 #@! TD*
G04 #@! TA.AperFunction,Conductor*
%ADD29C,1.016000*%
G04 #@! TD*
G04 #@! TA.AperFunction,Conductor*
%ADD30C,0.508000*%
G04 #@! TD*
G04 #@! TA.AperFunction,Conductor*
%ADD31C,0.304800*%
G04 #@! TD*
G04 APERTURE END LIST*
D10*
X16789352Y-10108229D02*
X16789352Y-10175962D01*
X16765162Y-10069524D02*
X16740971Y-10142095D01*
X16803867Y-10142095D01*
D11*
G04 #@! TO.P,J1,0*
G04 #@! TO.N,GND*
X17577000Y-12151000D03*
X17577000Y-12649000D03*
D12*
X17880000Y-11987500D03*
X17880000Y-12812500D03*
G04 #@! TD*
D13*
G04 #@! TO.P,MARK1MM,*
G04 #@! TO.N,*
X11623280Y-12527320D03*
G04 #@! TD*
G04 #@! TO.P,MARK1MM,*
G04 #@! TO.N,*
X8580360Y-16723400D03*
G04 #@! TD*
D14*
G04 #@! TO.P,U19,0*
G04 #@! TO.N,GND*
X12812920Y-16358600D03*
X12812920Y-16226600D03*
X12680920Y-16226600D03*
X12680920Y-16358600D03*
X12746920Y-16292600D03*
G04 #@! TD*
D13*
G04 #@! TO.P,MARK1MM,*
G04 #@! TO.N,*
X17100000Y-10200000D03*
G04 #@! TD*
D14*
G04 #@! TO.P,J4,1*
G04 #@! TO.N,GND*
X6555000Y-10555000D03*
X6245000Y-10555000D03*
X6245000Y-10245000D03*
X6555000Y-10245000D03*
X6620000Y-10400000D03*
X6400000Y-10620000D03*
X6180000Y-10400000D03*
X6400000Y-10180000D03*
D15*
X6400000Y-10400000D03*
G04 #@! TD*
D14*
G04 #@! TO.P,J5,1*
G04 #@! TO.N,GND*
X6555000Y-17255000D03*
X6245000Y-17255000D03*
X6245000Y-16945000D03*
X6555000Y-16945000D03*
X6620000Y-17100000D03*
X6400000Y-17320000D03*
X6180000Y-17100000D03*
X6400000Y-16880000D03*
D15*
X6400000Y-17100000D03*
G04 #@! TD*
D14*
G04 #@! TO.P,J6,1*
G04 #@! TO.N,GND*
X17755000Y-17255000D03*
X17445000Y-17255000D03*
X17445000Y-16945000D03*
X17755000Y-16945000D03*
X17820000Y-17100000D03*
X17600000Y-17320000D03*
X17380000Y-17100000D03*
X17600000Y-16880000D03*
D15*
X17600000Y-17100000D03*
G04 #@! TD*
D14*
G04 #@! TO.P,J7,1*
G04 #@! TO.N,GND*
X17755000Y-10555000D03*
X17445000Y-10555000D03*
X17445000Y-10245000D03*
X17755000Y-10245000D03*
X17820000Y-10400000D03*
X17600000Y-10620000D03*
X17380000Y-10400000D03*
X17600000Y-10180000D03*
D15*
X17600000Y-10400000D03*
G04 #@! TD*
D14*
G04 #@! TO.P,J8,1*
G04 #@! TO.N,GND*
X12755000Y-10555000D03*
X12445000Y-10555000D03*
X12445000Y-10245000D03*
X12755000Y-10245000D03*
X12820000Y-10400000D03*
X12600000Y-10620000D03*
X12380000Y-10400000D03*
X12600000Y-10180000D03*
D15*
X12600000Y-10400000D03*
G04 #@! TD*
D14*
G04 #@! TO.P,J9,1*
G04 #@! TO.N,GND*
X13255000Y-14555000D03*
X12945000Y-14555000D03*
X12945000Y-14245000D03*
X13255000Y-14245000D03*
X13320000Y-14400000D03*
X13100000Y-14620000D03*
X12880000Y-14400000D03*
X13100000Y-14180000D03*
D15*
X13100000Y-14400000D03*
G04 #@! TD*
D16*
G04 #@! TO.P,P1,2*
G04 #@! TO.N,+1.8V*
X14763000Y-11277000D03*
D17*
G04 #@! TO.P,P1,1*
X14509000Y-11277000D03*
G04 #@! TD*
D18*
G04 #@! TO.N,GND*
G04 #@! TO.C,P2*
X17748000Y-14950000D03*
X17748000Y-14850000D03*
X17748000Y-14750000D03*
X17648000Y-14950000D03*
X17648000Y-14850000D03*
X17648000Y-14750000D03*
X17548000Y-14950000D03*
X17548000Y-14850000D03*
X17548000Y-14750000D03*
X17748000Y-14050000D03*
X17748000Y-14150000D03*
X17748000Y-14250000D03*
X17648000Y-14050000D03*
X17648000Y-14150000D03*
X17648000Y-14250000D03*
X17548000Y-14050000D03*
X17548000Y-14150000D03*
X17548000Y-14250000D03*
D19*
G04 #@! TD*
G04 #@! TO.P,P2,2*
G04 #@! TO.N,GND*
X17688500Y-14150750D03*
G04 #@! TO.P,P2,2*
G04 #@! TO.N,GND*
X17688500Y-14849250D03*
G04 #@! TD*
D16*
G04 #@! TO.P,P3,2*
G04 #@! TO.N,GND*
X14509000Y-12039000D03*
D17*
G04 #@! TO.P,P3,1*
X14509000Y-11785000D03*
G04 #@! TD*
D18*
G04 #@! TO.N,GND*
G04 #@! TO.C,P4*
X6252000Y-15650000D03*
X6252000Y-15750000D03*
X6252000Y-15850000D03*
X6352000Y-15650000D03*
X6352000Y-15750000D03*
X6352000Y-15850000D03*
X6452000Y-15650000D03*
X6452000Y-15750000D03*
X6452000Y-15850000D03*
X6252000Y-16550000D03*
X6252000Y-16450000D03*
X6252000Y-16350000D03*
X6352000Y-16550000D03*
X6352000Y-16450000D03*
X6352000Y-16350000D03*
X6452000Y-16550000D03*
X6452000Y-16450000D03*
X6452000Y-16350000D03*
D19*
G04 #@! TD*
G04 #@! TO.P,P4,2*
G04 #@! TO.N,GND*
X6311500Y-16449250D03*
G04 #@! TO.P,P4,2*
G04 #@! TO.N,GND*
X6311500Y-15750750D03*
G04 #@! TD*
D16*
G04 #@! TO.P,P5,6*
G04 #@! TO.N,/mcu/usb/power/LED3*
X8667000Y-10769000D03*
G04 #@! TO.P,P5,5*
G04 #@! TO.N,!VAA_ENABLE*
X8667000Y-10515000D03*
G04 #@! TO.P,P5,4*
G04 #@! TO.N,/mcu/usb/power/LED2*
X8921000Y-10769000D03*
G04 #@! TO.P,P5,3*
G04 #@! TO.N,/mcu/usb/power/LED1*
X8921000Y-10515000D03*
G04 #@! TO.P,P5,2*
G04 #@! TO.N,VCC*
X9175000Y-10769000D03*
D17*
G04 #@! TO.P,P5,1*
G04 #@! TO.N,GND*
X9175000Y-10515000D03*
G04 #@! TD*
D16*
G04 #@! TO.P,P8,2*
G04 #@! TO.N,VCC*
X16033000Y-11277000D03*
D17*
G04 #@! TO.P,P8,1*
X15779000Y-11277000D03*
G04 #@! TD*
D16*
G04 #@! TO.P,P9,16*
G04 #@! TO.N,GND*
X8921000Y-13055000D03*
G04 #@! TO.P,P9,15*
X8921000Y-12801000D03*
G04 #@! TO.P,P9,14*
X9175000Y-13055000D03*
G04 #@! TO.P,P9,13*
G04 #@! TO.N,/baseband/TXBBQ-*
X9175000Y-12801000D03*
G04 #@! TO.P,P9,12*
G04 #@! TO.N,/baseband/TXBBI+*
X9429000Y-13055000D03*
G04 #@! TO.P,P9,11*
G04 #@! TO.N,/baseband/TXBBQ+*
X9429000Y-12801000D03*
G04 #@! TO.P,P9,10*
G04 #@! TO.N,/baseband/TXBBI-*
X9683000Y-13055000D03*
G04 #@! TO.P,P9,9*
G04 #@! TO.N,GND*
X9683000Y-12801000D03*
G04 #@! TO.P,P9,8*
X9937000Y-13055000D03*
G04 #@! TO.P,P9,7*
G04 #@! TO.N,/baseband/RXBBI+*
X9937000Y-12801000D03*
G04 #@! TO.P,P9,6*
G04 #@! TO.N,/baseband/RXBBQ+*
X10191000Y-13055000D03*
G04 #@! TO.P,P9,5*
G04 #@! TO.N,/baseband/RXBBI-*
X10191000Y-12801000D03*
G04 #@! TO.P,P9,4*
G04 #@! TO.N,/baseband/RXBBQ-*
X10445000Y-13055000D03*
G04 #@! TO.P,P9,3*
G04 #@! TO.N,GND*
X10445000Y-12801000D03*
G04 #@! TO.P,P9,2*
X10699000Y-13055000D03*
D17*
G04 #@! TO.P,P9,1*
X10699000Y-12801000D03*
G04 #@! TD*
D18*
G04 #@! TO.N,GND*
G04 #@! TO.C,P16*
X17748000Y-16750000D03*
X17748000Y-16650000D03*
X17748000Y-16550000D03*
X17648000Y-16750000D03*
X17648000Y-16650000D03*
X17648000Y-16550000D03*
X17548000Y-16750000D03*
X17548000Y-16650000D03*
X17548000Y-16550000D03*
X17748000Y-15850000D03*
X17748000Y-15950000D03*
X17748000Y-16050000D03*
X17648000Y-15850000D03*
X17648000Y-15950000D03*
X17648000Y-16050000D03*
X17548000Y-15850000D03*
X17548000Y-15950000D03*
X17548000Y-16050000D03*
D19*
G04 #@! TD*
G04 #@! TO.P,P16,2*
G04 #@! TO.N,GND*
X17688500Y-15950750D03*
G04 #@! TO.P,P16,2*
G04 #@! TO.N,GND*
X17688500Y-16649250D03*
G04 #@! TD*
D16*
G04 #@! TO.P,P20,22*
G04 #@! TO.N,/mcu/usb/power/VIN*
X17049000Y-13055000D03*
G04 #@! TO.P,P20,21*
G04 #@! TO.N,/mcu/usb/power/VBUS*
X17303000Y-13055000D03*
G04 #@! TO.P,P20,20*
G04 #@! TO.N,/mcu/usb/power/ADC0_0*
X17049000Y-13309000D03*
G04 #@! TO.P,P20,19*
G04 #@! TO.N,GND*
X17303000Y-13309000D03*
G04 #@! TO.P,P20,18*
G04 #@! TO.N,/mcu/usb/power/ADC0_5*
X17049000Y-13563000D03*
G04 #@! TO.P,P20,17*
G04 #@! TO.N,/mcu/usb/power/VBUSCTRL*
X17303000Y-13563000D03*
G04 #@! TO.P,P20,16*
G04 #@! TO.N,/mcu/usb/power/ADC0_2*
X17049000Y-13817000D03*
G04 #@! TO.P,P20,15*
G04 #@! TO.N,GND*
X17303000Y-13817000D03*
G04 #@! TO.P,P20,14*
G04 #@! TO.N,/mcu/usb/power/ADC0_6*
X17049000Y-14071000D03*
G04 #@! TO.P,P20,13*
G04 #@! TO.N,GND*
X17303000Y-14071000D03*
G04 #@! TO.P,P20,12*
G04 #@! TO.N,/mcu/usb/power/GPIO3_15*
X17049000Y-14325000D03*
G04 #@! TO.P,P20,11*
G04 #@! TO.N,/mcu/usb/power/GPIO3_14*
X17303000Y-14325000D03*
G04 #@! TO.P,P20,10*
G04 #@! TO.N,/mcu/usb/power/GPIO3_13*
X17049000Y-14579000D03*
G04 #@! TO.P,P20,9*
G04 #@! TO.N,/mcu/usb/power/GPIO3_12*
X17303000Y-14579000D03*
G04 #@! TO.P,P20,8*
G04 #@! TO.N,/mcu/usb/power/GPIO3_11*
X17049000Y-14833000D03*
G04 #@! TO.P,P20,7*
G04 #@! TO.N,/mcu/usb/power/GPIO3_10*
X17303000Y-14833000D03*
G04 #@! TO.P,P20,6*
G04 #@! TO.N,/mcu/usb/power/GPIO3_9*
X17049000Y-15087000D03*
G04 #@! TO.P,P20,5*
G04 #@! TO.N,/mcu/usb/power/GPIO3_8*
X17303000Y-15087000D03*
G04 #@! TO.P,P20,4*
G04 #@! TO.N,/mcu/usb/power/WAKEUP*
X17049000Y-15341000D03*
G04 #@! TO.P,P20,3*
G04 #@! TO.N,VCC*
X17303000Y-15341000D03*
G04 #@! TO.P,P20,2*
G04 #@! TO.N,/mcu/usb/power/RTC_ALARM*
X17049000Y-15595000D03*
D17*
G04 #@! TO.P,P20,1*
G04 #@! TO.N,/mcu/usb/power/VBAT*
X17303000Y-15595000D03*
G04 #@! TD*
D16*
G04 #@! TO.P,P22,26*
G04 #@! TO.N,SCL*
X13747000Y-16611000D03*
G04 #@! TO.P,P22,25*
G04 #@! TO.N,CLK6*
X13747000Y-16357000D03*
G04 #@! TO.P,P22,24*
G04 #@! TO.N,SDA*
X14001000Y-16611000D03*
G04 #@! TO.P,P22,23*
G04 #@! TO.N,/mcu/usb/power/P2_8*
X14001000Y-16357000D03*
G04 #@! TO.P,P22,22*
G04 #@! TO.N,/mcu/usb/power/P2_13*
X14255000Y-16611000D03*
G04 #@! TO.P,P22,21*
G04 #@! TO.N,/mcu/usb/power/P2_9*
X14255000Y-16357000D03*
G04 #@! TO.P,P22,20*
G04 #@! TO.N,/mcu/usb/power/U0_TXD*
X14509000Y-16611000D03*
G04 #@! TO.P,P22,19*
G04 #@! TO.N,/mcu/usb/power/U0_RXD*
X14509000Y-16357000D03*
G04 #@! TO.P,P22,18*
G04 #@! TO.N,GND*
X14763000Y-16611000D03*
G04 #@! TO.P,P22,17*
G04 #@! TO.N,/mcu/usb/power/I2S0_TX_MCLK*
X14763000Y-16357000D03*
G04 #@! TO.P,P22,16*
G04 #@! TO.N,/mcu/usb/power/I2S0_TX_SCK*
X15017000Y-16611000D03*
G04 #@! TO.P,P22,15*
G04 #@! TO.N,/mcu/usb/power/I2S0_RX_WS*
X15017000Y-16357000D03*
G04 #@! TO.P,P22,14*
G04 #@! TO.N,/mcu/usb/power/I2S0_RX_MCLK*
X15271000Y-16611000D03*
G04 #@! TO.P,P22,13*
G04 #@! TO.N,/mcu/usb/power/I2S0_RX_SDA*
X15271000Y-16357000D03*
G04 #@! TO.P,P22,12*
G04 #@! TO.N,/mcu/usb/power/I2S0_RX_SCK*
X15525000Y-16611000D03*
G04 #@! TO.P,P22,11*
G04 #@! TO.N,VCC*
X15525000Y-16357000D03*
G04 #@! TO.P,P22,10*
G04 #@! TO.N,GND*
X15779000Y-16611000D03*
G04 #@! TO.P,P22,9*
G04 #@! TO.N,/mcu/usb/power/SPIFI_MOSI*
X15779000Y-16357000D03*
G04 #@! TO.P,P22,8*
G04 #@! TO.N,/mcu/usb/power/SPIFI_SCK*
X16033000Y-16611000D03*
G04 #@! TO.P,P22,7*
G04 #@! TO.N,/mcu/usb/power/SPIFI_MISO*
X16033000Y-16357000D03*
G04 #@! TO.P,P22,6*
G04 #@! TO.N,/mcu/usb/power/I2C1_SDA*
X16287000Y-16611000D03*
G04 #@! TO.P,P22,5*
G04 #@! TO.N,/mcu/usb/power/I2C1_SCL*
X16287000Y-16357000D03*
G04 #@! TO.P,P22,4*
G04 #@! TO.N,GND*
X16541000Y-16611000D03*
G04 #@! TO.P,P22,3*
G04 #@! TO.N,/mcu/usb/power/RESET*
X16541000Y-16357000D03*
G04 #@! TO.P,P22,2*
G04 #@! TO.N,CLKIN*
X16795000Y-16611000D03*
D17*
G04 #@! TO.P,P22,1*
G04 #@! TO.N,CLKOUT*
X16795000Y-16357000D03*
G04 #@! TD*
D16*
G04 #@! TO.P,P25,6*
G04 #@! TO.N,/mcu/usb/power/RESET*
X15017000Y-15849000D03*
G04 #@! TO.P,P25,5*
G04 #@! TO.N,/mcu/usb/power/U0_TXD*
X14763000Y-15849000D03*
G04 #@! TO.P,P25,4*
G04 #@! TO.N,/mcu/usb/power/U0_RXD*
X14509000Y-15849000D03*
G04 #@! TO.P,P25,3*
G04 #@! TO.N,Net-(P25-Pad3)*
X14255000Y-15849000D03*
G04 #@! TO.P,P25,2*
G04 #@! TO.N,/mcu/usb/power/ISP*
X14001000Y-15849000D03*
D17*
G04 #@! TO.P,P25,1*
G04 #@! TO.N,GND*
X13747000Y-15849000D03*
G04 #@! TD*
D20*
G04 #@! TO.P,P26,10*
G04 #@! TO.N,/mcu/usb/power/RESET*
X15293260Y-11954660D03*
G04 #@! TO.P,P26,9*
G04 #@! TO.N,GND*
X15166260Y-11954660D03*
G04 #@! TO.P,P26,8*
G04 #@! TO.N,/mcu/usb/power/TDI*
X15293260Y-11827660D03*
G04 #@! TO.P,P26,7*
G04 #@! TO.N,Net-(P26-Pad7)*
X15166260Y-11827660D03*
G04 #@! TO.P,P26,6*
G04 #@! TO.N,/mcu/usb/power/TDO*
X15293260Y-11700660D03*
G04 #@! TO.P,P26,5*
G04 #@! TO.N,GND*
X15166260Y-11700660D03*
G04 #@! TO.P,P26,4*
G04 #@! TO.N,/mcu/usb/power/TCK*
X15293260Y-11573660D03*
G04 #@! TO.P,P26,3*
G04 #@! TO.N,GND*
X15166260Y-11573660D03*
G04 #@! TO.P,P26,2*
G04 #@! TO.N,/mcu/usb/power/TMS*
X15293260Y-11446660D03*
D21*
G04 #@! TO.P,P26,1*
G04 #@! TO.N,VCC*
X15166260Y-11446660D03*
G04 #@! TD*
D16*
G04 #@! TO.P,P28,22*
G04 #@! TO.N,/mcu/usb/power/BANK2F3M4*
X12223000Y-13055000D03*
G04 #@! TO.P,P28,21*
G04 #@! TO.N,/mcu/usb/power/BANK2F3M12*
X12477000Y-13055000D03*
G04 #@! TO.P,P28,20*
G04 #@! TO.N,/mcu/usb/power/BANK2F3M6*
X12223000Y-13309000D03*
G04 #@! TO.P,P28,19*
G04 #@! TO.N,/mcu/usb/power/CPLD_TDI*
X12477000Y-13309000D03*
G04 #@! TO.P,P28,18*
G04 #@! TO.N,/mcu/usb/power/BANK2F3M2*
X12223000Y-13563000D03*
G04 #@! TO.P,P28,17*
G04 #@! TO.N,/mcu/usb/power/CPLD_TCK*
X12477000Y-13563000D03*
G04 #@! TO.P,P28,16*
G04 #@! TO.N,/mcu/usb/power/B1AUX13*
X12223000Y-13817000D03*
G04 #@! TO.P,P28,15*
G04 #@! TO.N,/mcu/usb/power/B1AUX14*
X12477000Y-13817000D03*
G04 #@! TO.P,P28,14*
G04 #@! TO.N,GCK1*
X12223000Y-14071000D03*
G04 #@! TO.P,P28,13*
G04 #@! TO.N,GCK2*
X12477000Y-14071000D03*
G04 #@! TO.P,P28,12*
G04 #@! TO.N,GND*
X12223000Y-14325000D03*
G04 #@! TO.P,P28,11*
G04 #@! TO.N,/mcu/usb/power/SD_CLK*
X12477000Y-14325000D03*
G04 #@! TO.P,P28,10*
G04 #@! TO.N,/mcu/usb/power/SD_POW*
X12223000Y-14579000D03*
G04 #@! TO.P,P28,9*
G04 #@! TO.N,/mcu/usb/power/SD_CMD*
X12477000Y-14579000D03*
G04 #@! TO.P,P28,8*
G04 #@! TO.N,/mcu/usb/power/SD_VOLT0*
X12223000Y-14833000D03*
G04 #@! TO.P,P28,7*
G04 #@! TO.N,/mcu/usb/power/SD_DAT0*
X12477000Y-14833000D03*
G04 #@! TO.P,P28,6*
G04 #@! TO.N,/mcu/usb/power/SD_DAT1*
X12223000Y-15087000D03*
G04 #@! TO.P,P28,5*
G04 #@! TO.N,/mcu/usb/power/SD_DAT2*
X12477000Y-15087000D03*
G04 #@! TO.P,P28,4*
G04 #@! TO.N,/mcu/usb/power/SD_DAT3*
X12223000Y-15341000D03*
G04 #@! TO.P,P28,3*
G04 #@! TO.N,/mcu/usb/power/SD_CD*
X12477000Y-15341000D03*
G04 #@! TO.P,P28,2*
G04 #@! TO.N,GND*
X12223000Y-15595000D03*
D17*
G04 #@! TO.P,P28,1*
G04 #@! TO.N,VCC*
X12477000Y-15595000D03*
G04 #@! TD*
D16*
G04 #@! TO.P,P29,2*
G04 #@! TO.N,/mcu/usb/power/CPLD_TDO*
X13239000Y-13309000D03*
D17*
G04 #@! TO.P,P29,1*
G04 #@! TO.N,/mcu/usb/power/CPLD_TMS*
X12985000Y-13309000D03*
G04 #@! TD*
D16*
G04 #@! TO.P,P30,20*
G04 #@! TO.N,GND*
X13747000Y-10769000D03*
G04 #@! TO.P,P30,19*
G04 #@! TO.N,/mcu/usb/power/GCK0*
X13747000Y-10515000D03*
G04 #@! TO.P,P30,18*
G04 #@! TO.N,/mcu/usb/power/B2AUX1*
X14001000Y-10769000D03*
G04 #@! TO.P,P30,17*
G04 #@! TO.N,/mcu/usb/power/B2AUX2*
X14001000Y-10515000D03*
G04 #@! TO.P,P30,16*
G04 #@! TO.N,/mcu/usb/power/B2AUX3*
X14255000Y-10769000D03*
G04 #@! TO.P,P30,15*
G04 #@! TO.N,/mcu/usb/power/B2AUX4*
X14255000Y-10515000D03*
G04 #@! TO.P,P30,14*
G04 #@! TO.N,/mcu/usb/power/B2AUX5*
X14509000Y-10769000D03*
G04 #@! TO.P,P30,13*
G04 #@! TO.N,/mcu/usb/power/B2AUX6*
X14509000Y-10515000D03*
G04 #@! TO.P,P30,12*
G04 #@! TO.N,/mcu/usb/power/B2AUX7*
X14763000Y-10769000D03*
G04 #@! TO.P,P30,11*
G04 #@! TO.N,/mcu/usb/power/B2AUX8*
X14763000Y-10515000D03*
G04 #@! TO.P,P30,10*
G04 #@! TO.N,/mcu/usb/power/B2AUX9*
X15017000Y-10769000D03*
G04 #@! TO.P,P30,9*
G04 #@! TO.N,/mcu/usb/power/B2AUX10*
X15017000Y-10515000D03*
G04 #@! TO.P,P30,8*
G04 #@! TO.N,/mcu/usb/power/B2AUX11*
X15271000Y-10769000D03*
G04 #@! TO.P,P30,7*
G04 #@! TO.N,/mcu/usb/power/B2AUX12*
X15271000Y-10515000D03*
G04 #@! TO.P,P30,6*
G04 #@! TO.N,/mcu/usb/power/B2AUX13*
X15525000Y-10769000D03*
G04 #@! TO.P,P30,5*
G04 #@! TO.N,/mcu/usb/power/B2AUX14*
X15525000Y-10515000D03*
G04 #@! TO.P,P30,4*
G04 #@! TO.N,/mcu/usb/power/B2AUX15*
X15779000Y-10769000D03*
G04 #@! TO.P,P30,3*
G04 #@! TO.N,/mcu/usb/power/B2AUX16*
X15779000Y-10515000D03*
G04 #@! TO.P,P30,2*
G04 #@! TO.N,GND*
X16033000Y-10769000D03*
D17*
G04 #@! TO.P,P30,1*
G04 #@! TO.N,VCC*
X16033000Y-10515000D03*
G04 #@! TD*
D16*
G04 #@! TO.P,P36,2*
G04 #@! TO.N,VAA*
X8413000Y-12547000D03*
D17*
G04 #@! TO.P,P36,1*
X8413000Y-12801000D03*
G04 #@! TD*
D16*
G04 #@! TO.P,P80,2*
G04 #@! TO.N,GND*
X17811000Y-13309000D03*
D17*
G04 #@! TO.P,P80,1*
X17811000Y-13055000D03*
G04 #@! TD*
D22*
G04 #@! TO.P,SW1,0*
G04 #@! TO.N,GND*
X6519000Y-12089500D03*
X6519000Y-12790500D03*
D12*
G04 #@! TO.P,SW1,2*
G04 #@! TO.N,Net-(R30-Pad2)*
X6270000Y-12665000D03*
G04 #@! TO.P,SW1,1*
G04 #@! TO.N,VCC*
X6270000Y-12215000D03*
G04 #@! TD*
D22*
G04 #@! TO.P,SW2,0*
G04 #@! TO.N,GND*
X6519000Y-10789500D03*
X6519000Y-11490500D03*
D12*
G04 #@! TO.P,SW2,2*
G04 #@! TO.N,Net-(R19-Pad2)*
X6270000Y-11365000D03*
G04 #@! TO.P,SW2,1*
G04 #@! TO.N,GND*
X6270000Y-10915000D03*
G04 #@! TD*
D23*
G04 #@! TO.P,U21,0*
G04 #@! TO.N,GND*
X16903000Y-11120120D03*
X17003000Y-11120120D03*
X17003000Y-11270120D03*
X16903000Y-11270120D03*
X16953000Y-11195120D03*
G04 #@! TD*
D14*
G04 #@! TO.P,U4,0*
G04 #@! TO.N,GND*
X9152040Y-15666360D03*
X9152040Y-15776360D03*
X9152040Y-15886360D03*
X9262040Y-15886360D03*
X9372040Y-15886360D03*
X9372040Y-15776360D03*
X9372040Y-15666360D03*
X9262040Y-15666360D03*
X9262040Y-15776360D03*
G04 #@! TD*
D24*
G04 #@! TO.P,U17,0*
G04 #@! TO.N,GND*
X11014850Y-14339710D03*
X11014850Y-14189710D03*
X11014850Y-14039710D03*
X10864850Y-14039710D03*
X10714850Y-14039710D03*
X10714850Y-14189710D03*
X10714850Y-14339710D03*
X10864850Y-14339710D03*
X10864850Y-14189710D03*
G04 #@! TD*
G04 #@! TO.P,U18,0*
G04 #@! TO.N,GND*
X10454540Y-11411180D03*
X10454540Y-11246180D03*
X10454540Y-11081180D03*
X10289540Y-11081180D03*
X10124540Y-11081180D03*
X10124540Y-11246180D03*
X10124540Y-11411180D03*
X10289540Y-11411180D03*
X10289540Y-11246180D03*
G04 #@! TD*
D25*
G04 #@! TO.N,!MIX_BYPASS*
X12029440Y-17302480D03*
X11958840Y-16791340D03*
X15441180Y-14157360D03*
X7394420Y-14282720D03*
X11412460Y-16797060D03*
G04 #@! TO.N,!RX_AMP_PWR*
X7334120Y-14692560D03*
X14796020Y-15239400D03*
G04 #@! TO.N,!TX_AMP_PWR*
X13941310Y-15663580D03*
X8361920Y-16835160D03*
G04 #@! TO.N,!VAA_ENABLE*
X14549640Y-12234580D03*
G04 #@! TO.N,+1.8V*
X11709400Y-11036300D03*
X12870700Y-11404000D03*
X12369800Y-11534140D03*
X12370320Y-12341260D03*
G04 #@! TO.N,/frontend/!ANT_BIAS*
X8735300Y-16035060D03*
X8735300Y-16870720D03*
G04 #@! TO.N,/frontend/REF_IN*
X11951220Y-16341760D03*
X8826500Y-15636240D03*
G04 #@! TO.N,/mcu/usb/power/B2AUX3*
X12725920Y-11099200D03*
G04 #@! TO.N,/mcu/usb/power/B2AUX4*
X12852920Y-11259220D03*
G04 #@! TO.N,/mcu/usb/power/B2AUX5*
X12875780Y-11111900D03*
G04 #@! TO.N,/mcu/usb/power/B2AUX6*
X12926580Y-11193180D03*
G04 #@! TO.N,/mcu/usb/power/B2AUX7*
X12974840Y-11277000D03*
G04 #@! TO.N,/mcu/usb/power/BANK2F3M12*
X12202680Y-12199020D03*
G04 #@! TO.N,/mcu/usb/power/BANK2F3M2*
X12202680Y-11906920D03*
G04 #@! TO.N,/mcu/usb/power/BANK2F3M4*
X12207760Y-12005980D03*
G04 #@! TO.N,/mcu/usb/power/BANK2F3M6*
X12205220Y-12102500D03*
G04 #@! TO.N,/mcu/usb/power/CPLD_TCK*
X11742940Y-12204100D03*
X12946900Y-13578240D03*
G04 #@! TO.N,/mcu/usb/power/CPLD_TDI*
X11732780Y-12051700D03*
X12911340Y-13489340D03*
G04 #@! TO.N,/mcu/usb/power/CPLD_TDO*
X13630160Y-11990740D03*
G04 #@! TO.N,/mcu/usb/power/CPLD_TMS*
X14203680Y-14051280D03*
X13967460Y-14328140D03*
X12055360Y-12158380D03*
G04 #@! TO.N,/mcu/usb/power/EN1V8*
X16508500Y-11258620D03*
X8440940Y-10357520D03*
X14590280Y-15028580D03*
G04 #@! TO.N,/mcu/usb/power/GCK0*
X12720840Y-11198260D03*
G04 #@! TO.N,/mcu/usb/power/GPIO3_10*
X16013186Y-14043164D03*
X16929100Y-14747240D03*
G04 #@! TO.N,/mcu/usb/power/GPIO3_11*
X16040127Y-14131170D03*
G04 #@! TO.N,/mcu/usb/power/GPIO3_8*
X16761460Y-14963140D03*
X15796780Y-14170060D03*
G04 #@! TO.N,/mcu/usb/power/GPIO3_9*
X15901831Y-14111414D03*
G04 #@! TO.N,/mcu/usb/power/GP_CLKIN*
X12329680Y-15795660D03*
X15758680Y-13519820D03*
G04 #@! TO.N,/mcu/usb/power/I2C1_SCL*
X14501380Y-14225940D03*
X14219440Y-14507880D03*
X15286240Y-14624720D03*
G04 #@! TO.N,/mcu/usb/power/I2C1_SDA*
X15370060Y-14535820D03*
X14509000Y-14124340D03*
X14133080Y-14500260D03*
G04 #@! TO.N,/mcu/usb/power/I2S0_RX_SCK*
X15692640Y-15495940D03*
G04 #@! TO.N,/mcu/usb/power/I2S0_RX_SDA*
X15436654Y-15273459D03*
G04 #@! TO.N,/mcu/usb/power/I2S0_RX_WS*
X15377680Y-15351160D03*
X15182100Y-15953140D03*
G04 #@! TO.N,/mcu/usb/power/I2S0_TX_SCK*
X15420860Y-15424820D03*
G04 #@! TO.N,/mcu/usb/power/LED1*
X15161780Y-13486800D03*
G04 #@! TO.N,/mcu/usb/power/LED2*
X15131300Y-13344560D03*
X8585720Y-10992520D03*
G04 #@! TO.N,/mcu/usb/power/LED3*
X14277860Y-15330840D03*
G04 #@! TO.N,/mcu/usb/power/P2_8*
X13881620Y-15593730D03*
X8354580Y-10642000D03*
X14483600Y-14914280D03*
G04 #@! TO.N,/mcu/usb/power/RESET*
X14779299Y-12482395D03*
X15433560Y-14413900D03*
X15718040Y-14543440D03*
X8613660Y-10268620D03*
G04 #@! TO.N,/mcu/usb/power/SD_CD*
X12751320Y-14985400D03*
X14313420Y-13735720D03*
G04 #@! TO.N,/mcu/usb/power/SD_CLK*
X14666480Y-13011820D03*
G04 #@! TO.N,/mcu/usb/power/SD_CMD*
X14542020Y-13187080D03*
G04 #@! TO.N,/mcu/usb/power/SD_DAT0*
X14511540Y-13369960D03*
G04 #@! TO.N,/mcu/usb/power/SD_DAT1*
X12715760Y-14896500D03*
X14559800Y-13491880D03*
G04 #@! TO.N,/mcu/usb/power/SD_DAT2*
X14418293Y-13547454D03*
X12647180Y-14962540D03*
G04 #@! TO.N,/mcu/usb/power/SD_DAT3*
X12685280Y-15097160D03*
X14509000Y-13641740D03*
G04 #@! TO.N,/mcu/usb/power/SD_POW*
X14620760Y-13253120D03*
G04 #@! TO.N,/mcu/usb/power/SD_VOLT0*
X14646160Y-13481720D03*
X12609080Y-14797440D03*
G04 #@! TO.N,/mcu/usb/power/SGPIO13*
X14864600Y-12219340D03*
X14509000Y-11576720D03*
G04 #@! TO.N,/mcu/usb/power/SGPIO9*
X14796020Y-12300620D03*
X14407400Y-11467500D03*
G04 #@! TO.N,/mcu/usb/power/SPIFI_MISO*
X15443200Y-14848840D03*
X16230600Y-15725140D03*
G04 #@! TO.N,/mcu/usb/power/SPIFI_SIO2*
X15791700Y-15506100D03*
X16299180Y-15801340D03*
G04 #@! TO.N,/mcu/usb/power/SPIFI_SIO3*
X15654540Y-15584840D03*
X15537180Y-15925800D03*
G04 #@! TO.N,/mcu/usb/power/TCK*
X15514240Y-11677800D03*
G04 #@! TO.N,/mcu/usb/power/TDI*
X15768840Y-11901840D03*
G04 #@! TO.N,/mcu/usb/power/TDO*
X15514840Y-11782460D03*
G04 #@! TO.N,/mcu/usb/power/VBAT*
X16835120Y-15742920D03*
X15838969Y-14896288D03*
G04 #@! TO.N,/mcu/usb/power/VBUS*
X16715980Y-12123460D03*
G04 #@! TO.N,/mcu/usb/power/VBUSCTRL*
X16180000Y-12340000D03*
G04 #@! TO.N,/mcu/usb/power/VIN*
X17608308Y-11112154D03*
X16268940Y-12095520D03*
G04 #@! TO.N,/mcu/usb/power/VREGMODE*
X14362615Y-15233946D03*
X15834880Y-12361580D03*
G04 #@! TO.N,AMP_BYPASS*
X7739620Y-15110500D03*
X14549640Y-15391800D03*
X7757400Y-15590560D03*
X7544040Y-15679460D03*
X7757400Y-16177300D03*
G04 #@! TO.N,CLK6*
X12421120Y-16108080D03*
G04 #@! TO.N,CS_AD*
X13221220Y-13021980D03*
X9846310Y-10899470D03*
G04 #@! TO.N,CS_XCVR*
X13005320Y-13712860D03*
X11546840Y-13624560D03*
G04 #@! TO.N,GCK1*
X10665980Y-12011060D03*
X10245090Y-11709730D03*
G04 #@! TO.N,GCK2*
X11709400Y-11158220D03*
X12504940Y-12661300D03*
G04 #@! TO.N,GND*
X17448300Y-11449120D03*
X17499100Y-10941120D03*
X12626340Y-12339320D03*
X13665200Y-11879580D03*
X8306280Y-14041420D03*
X9665900Y-15484260D03*
X17168900Y-11576120D03*
X7170660Y-15608340D03*
X10991850Y-13475970D03*
X8166580Y-14422420D03*
X11811000Y-10787380D03*
X10320020Y-12076760D03*
X12108020Y-16787780D03*
X9641840Y-11982780D03*
X10920730Y-15210790D03*
X11404600Y-11600180D03*
X11578590Y-14184630D03*
X9602400Y-14938160D03*
X10007600Y-12076760D03*
X10598150Y-14900910D03*
X8064980Y-13901720D03*
X9946640Y-11982780D03*
X16198180Y-14968130D03*
X9845040Y-11982780D03*
X11050270Y-11194110D03*
X10885170Y-15099030D03*
X10085000Y-16182760D03*
X17283200Y-11347520D03*
X9211240Y-16457080D03*
X9743440Y-11982780D03*
X10353040Y-11972620D03*
X10252710Y-13910310D03*
X9182100Y-12638100D03*
X17499100Y-11576120D03*
X13647787Y-13064316D03*
X9335700Y-15100720D03*
X15425878Y-13190039D03*
X15209520Y-16057880D03*
X17168900Y-10814120D03*
X11118850Y-13475970D03*
X16092213Y-13842006D03*
X16404726Y-14761584D03*
X8792140Y-15192160D03*
X9772580Y-16271660D03*
X10048240Y-11982780D03*
X9309100Y-12638100D03*
X15898239Y-14388006D03*
X11576050Y-13986510D03*
X13169900Y-10505440D03*
X9521190Y-11036630D03*
X8881040Y-15446160D03*
X16660900Y-11195120D03*
X16548410Y-14617900D03*
X16548410Y-13450467D03*
X10902950Y-14900910D03*
X11652250Y-14088110D03*
X9483090Y-11379530D03*
X16611271Y-13225960D03*
X11372850Y-14672310D03*
X9813290Y-10769930D03*
X12029440Y-11391900D03*
X8039580Y-14422420D03*
X9963150Y-10581970D03*
X11050270Y-11316030D03*
X10447020Y-12076760D03*
X11296650Y-13577570D03*
X10863340Y-16857620D03*
X8064980Y-13673120D03*
X10252710Y-14456410D03*
X14976865Y-12363856D03*
X15569562Y-13333724D03*
X16054496Y-15111814D03*
X9437300Y-15100720D03*
X9831000Y-15052460D03*
X14773911Y-12839809D03*
X10261600Y-11982780D03*
X16090417Y-13333724D03*
X12275820Y-11064240D03*
X7874480Y-14041420D03*
X14285385Y-12426718D03*
X16602291Y-13612111D03*
X16119153Y-12945776D03*
X12213520Y-16599940D03*
X15174430Y-15546459D03*
X17054600Y-10522020D03*
X15928772Y-12741027D03*
X9234100Y-15100720D03*
X9426180Y-16601480D03*
X10741660Y-11909120D03*
X9071540Y-16457080D03*
X7917420Y-15341640D03*
X9897040Y-16754260D03*
X10134600Y-12076760D03*
X9234100Y-14966100D03*
X9338240Y-16457080D03*
X15488739Y-15677570D03*
X10163810Y-14065250D03*
X16191000Y-11195120D03*
X8064980Y-13787420D03*
X10684510Y-11610670D03*
X7612620Y-13675400D03*
X7094700Y-14407180D03*
X7191220Y-14186200D03*
X9494520Y-12638100D03*
X8227060Y-14787880D03*
X8869680Y-15753080D03*
X10272000Y-15577860D03*
X10043160Y-15483840D03*
X10549140Y-11995820D03*
X9622040Y-12638440D03*
X12569120Y-16622800D03*
X16593311Y-13010434D03*
X15838969Y-12651224D03*
X13934960Y-15254640D03*
X11796280Y-12770520D03*
X13820660Y-12498740D03*
X13162800Y-15907420D03*
X16456660Y-15554960D03*
X13028180Y-15793120D03*
X14013700Y-11142380D03*
X13157720Y-17078360D03*
X13139940Y-13700160D03*
X13343140Y-14678060D03*
X12052820Y-16270640D03*
X12126480Y-15899800D03*
X12433820Y-15831220D03*
X13820660Y-12625740D03*
X14394700Y-15574680D03*
X13952740Y-15518800D03*
X8715260Y-12166000D03*
X9000000Y-13300000D03*
X8400000Y-13300000D03*
X7800000Y-13300000D03*
X7200000Y-13300000D03*
X6775000Y-13700000D03*
X9900000Y-13450000D03*
X10800000Y-13300000D03*
X11955780Y-16131540D03*
X11825000Y-15500000D03*
X11825000Y-14900000D03*
X11825000Y-16100000D03*
X10425000Y-13425000D03*
X11400000Y-13300000D03*
X9400000Y-13425000D03*
X11825000Y-13700000D03*
X11700000Y-14500000D03*
X9000000Y-17100000D03*
X9600000Y-17100000D03*
X7800000Y-17100000D03*
X7200000Y-17100000D03*
X10200000Y-17100000D03*
X10800000Y-17100000D03*
X11400000Y-17100000D03*
X11950000Y-14100000D03*
X9918700Y-16306800D03*
X6775000Y-15500000D03*
X6775000Y-14900000D03*
X6775000Y-14300000D03*
X6787400Y-12239660D03*
X12949440Y-15097160D03*
X12746240Y-15417200D03*
X13063740Y-15427360D03*
X13305040Y-16664340D03*
X10264660Y-10583580D03*
X9462020Y-11235090D03*
X9608070Y-11630060D03*
X13452017Y-14409558D03*
X13475220Y-11014110D03*
X8077720Y-12064400D03*
X11825000Y-16700000D03*
X11192510Y-15154910D03*
X10613390Y-15154910D03*
X10416300Y-16705220D03*
X8906440Y-16304680D03*
X8237460Y-15092720D03*
X9716700Y-14976260D03*
X12962140Y-12346340D03*
X16375900Y-15191140D03*
X15959340Y-15414660D03*
X11200000Y-12950000D03*
X13823200Y-12750200D03*
X12494780Y-12897520D03*
X12252960Y-16990060D03*
X12895580Y-16990060D03*
X8273020Y-16123960D03*
X16053320Y-12386980D03*
X6279400Y-14551060D03*
X6279400Y-13182000D03*
X6279400Y-14093860D03*
X6254000Y-11871360D03*
X6279400Y-15008260D03*
X6279400Y-13639200D03*
X6766559Y-16700000D03*
X8184120Y-15697240D03*
X6900000Y-15900000D03*
X8402561Y-17100000D03*
X7846300Y-16621800D03*
X7013180Y-15715020D03*
X6896340Y-15715020D03*
X7785100Y-14764820D03*
X6921740Y-15146060D03*
X7508480Y-15057160D03*
X8577820Y-14409460D03*
X9360140Y-14302780D03*
X10551400Y-16106180D03*
X10948670Y-15740087D03*
X11282836Y-15844577D03*
X10597120Y-16388120D03*
X10762220Y-15819160D03*
X10706100Y-15331477D03*
X8988577Y-14618988D03*
X7422120Y-15910600D03*
X7236700Y-15924700D03*
X7236700Y-16099700D03*
X7650720Y-16456700D03*
X7805660Y-16454160D03*
X7338300Y-16657360D03*
X17175720Y-11739920D03*
X16929340Y-12778780D03*
X17269700Y-16393200D03*
X17356060Y-16771660D03*
G04 #@! TO.N,HP*
X8476220Y-14208800D03*
X16484600Y-13931900D03*
G04 #@! TO.N,LP*
X7711680Y-13888760D03*
X15446260Y-13979560D03*
G04 #@! TO.N,MIXER_ENX*
X9716700Y-15255660D03*
X9712960Y-15585440D03*
X14859520Y-14139580D03*
G04 #@! TO.N,MIXER_RESETX*
X9829800Y-15351760D03*
X9737020Y-15674760D03*
X14920480Y-14213240D03*
G04 #@! TO.N,MIXER_SCLK*
X9602400Y-15230260D03*
X14308340Y-14749180D03*
G04 #@! TO.N,MIXER_SDATA*
X14455660Y-14551060D03*
X9512820Y-15010800D03*
G04 #@! TO.N,MIX_BYPASS*
X13630160Y-16125860D03*
X11127980Y-16408440D03*
G04 #@! TO.N,RSSI*
X10751820Y-13784580D03*
X14864600Y-13949080D03*
G04 #@! TO.N,RX*
X13790180Y-16130940D03*
X10173220Y-16420500D03*
X10482820Y-15717560D03*
X9164560Y-14412000D03*
G04 #@! TO.N,RXENABLE*
X10474960Y-14561820D03*
X15001760Y-13235340D03*
G04 #@! TO.N,RX_AMP*
X14732520Y-15180980D03*
X7650720Y-16177300D03*
X7526260Y-15163840D03*
X7437360Y-15580400D03*
G04 #@! TO.N,RX_MIX_BP*
X15443720Y-14251340D03*
X7389340Y-14409720D03*
G04 #@! TO.N,SCL*
X13409180Y-15907420D03*
X13536180Y-16364620D03*
X13863840Y-14835540D03*
X13320280Y-15122560D03*
X12939280Y-16697360D03*
G04 #@! TO.N,SDA*
X13480300Y-15125100D03*
X13818120Y-14906660D03*
X13482840Y-16268100D03*
X12937420Y-16610100D03*
G04 #@! TO.N,SGPIO_CLK*
X14328140Y-14063980D03*
X13155180Y-15008260D03*
G04 #@! TO.N,SSP1_MISO*
X14360819Y-12803888D03*
X10876280Y-13472160D03*
G04 #@! TO.N,SSP1_MOSI*
X9959860Y-10705500D03*
X10751820Y-13685520D03*
X13518654Y-12971434D03*
G04 #@! TO.N,SSP1_SCK*
X9974084Y-10814720D03*
X12931660Y-12999120D03*
X11328920Y-14373260D03*
G04 #@! TO.N,TXENABLE*
X10403840Y-14472920D03*
X15042400Y-13326780D03*
G04 #@! TO.N,TX_AMP*
X15273540Y-14441840D03*
X7846300Y-15643899D03*
X7864080Y-16177300D03*
X8008336Y-15197384D03*
G04 #@! TO.N,TX_MIX_BP*
X15453880Y-14073540D03*
X8041640Y-14676120D03*
G04 #@! TO.N,VAA*
X11271250Y-14047470D03*
X10048240Y-11703380D03*
X11271250Y-14469110D03*
X9782810Y-11473510D03*
X11286490Y-14184630D03*
X10598150Y-14598650D03*
X10902950Y-14601190D03*
X10365740Y-11703380D03*
X10458450Y-14110970D03*
X9970700Y-15598560D03*
X10440670Y-14342110D03*
X9310300Y-16182760D03*
X9246800Y-15357260D03*
X9972040Y-16055340D03*
X9760470Y-11241440D03*
X9825240Y-11015380D03*
X10146030Y-10782630D03*
X10556240Y-11705920D03*
X11019790Y-13742670D03*
X10427970Y-14019530D03*
X6381000Y-13436000D03*
X11974080Y-16466220D03*
X8326360Y-16314460D03*
X8051312Y-16825728D03*
X7597380Y-14914920D03*
X7846300Y-16888500D03*
X7290040Y-16355100D03*
X7411960Y-16355100D03*
X8255240Y-15412760D03*
X8290800Y-15803920D03*
X7028420Y-14826020D03*
X7277340Y-15252740D03*
X8478760Y-13863360D03*
X7704060Y-14231660D03*
X10548860Y-15979180D03*
X10683480Y-16609100D03*
X10863820Y-15524520D03*
X9728440Y-16601480D03*
X8819120Y-14455180D03*
G04 #@! TO.N,VCC*
X17255260Y-11050340D03*
X17589512Y-10753252D03*
X13178720Y-16660900D03*
X15623443Y-12866750D03*
X15906142Y-13168846D03*
X16189199Y-14546058D03*
X15273213Y-15462044D03*
X14150681Y-15039972D03*
X13652500Y-11752580D03*
X13863313Y-13279842D03*
X15147490Y-12480599D03*
X14520668Y-12633264D03*
X13081000Y-10711180D03*
X16332884Y-14402374D03*
X14608674Y-15497965D03*
X15834880Y-11680860D03*
X12440920Y-16471900D03*
X12931140Y-16002000D03*
X13820660Y-12369200D03*
X13289800Y-15716920D03*
X13363460Y-16029340D03*
X13063740Y-16120780D03*
X15521940Y-16055340D03*
X13703300Y-11168380D03*
X9109640Y-16177680D03*
X12950120Y-16800600D03*
X10759960Y-11292240D03*
X11607800Y-11701780D03*
X13441241Y-13701914D03*
X11360150Y-14090650D03*
X12357620Y-16293500D03*
X12632620Y-15937000D03*
X14252460Y-15638180D03*
X13792720Y-12897520D03*
X6787400Y-10944260D03*
X12375400Y-14452000D03*
X15987280Y-14759340D03*
X16349230Y-13611260D03*
X13561580Y-14469780D03*
X8280920Y-11866280D03*
X12014200Y-12666980D03*
X6358140Y-11777380D03*
X16683240Y-15023500D03*
X15618980Y-12160920D03*
X16800080Y-13235340D03*
X14658860Y-12232040D03*
X17310340Y-15956320D03*
X17356060Y-16616720D03*
G04 #@! TO.N,XCVR_EN*
X14270240Y-12785760D03*
X15003806Y-13076888D03*
X11182350Y-13818870D03*
G04 #@! TO.N,Net-(C163-Pad2)*
X7366240Y-15074940D03*
X7277340Y-15608340D03*
G04 #@! TO.N,Net-(J1-Pad4)*
X15470136Y-13289696D03*
X16530840Y-12907680D03*
G04 #@! TO.N,Net-(R51-Pad1)*
X17328920Y-11449120D03*
X16045700Y-11831079D03*
G04 #@! TO.N,Net-(R52-Pad2)*
X16622800Y-11080820D03*
X17501640Y-10814120D03*
G04 #@! TO.N,Net-(R62-Pad1)*
X15944100Y-12539380D03*
X15715500Y-13019440D03*
G04 #@! TO.N,Net-(C162-Pad2)*
X7881860Y-15857260D03*
X7881860Y-16070620D03*
G04 #@! TD*
D26*
G04 #@! TO.N,!MIX_BYPASS*
X12117739Y-17332359D02*
X12087860Y-17302480D01*
X12029440Y-17302480D02*
X12087860Y-17302480D01*
X15441180Y-14157360D02*
X15655050Y-14157360D01*
X15873490Y-13938920D02*
X16255500Y-13938920D01*
X15655050Y-14157360D02*
X15873490Y-13938920D01*
X16347450Y-17332359D02*
X12117739Y-17332359D01*
X17155160Y-16524650D02*
X16347450Y-17332359D01*
X17155160Y-14531340D02*
X17155160Y-16524650D01*
X17096740Y-14472920D02*
X17155160Y-14531340D01*
X16789500Y-14472920D02*
X17096740Y-14472920D01*
X16255500Y-13938920D02*
X16789500Y-14472920D01*
X6886180Y-16639580D02*
X6886180Y-16906480D01*
X6746240Y-15634609D02*
X6746240Y-16499640D01*
X7312059Y-17332359D02*
X11935460Y-17332359D01*
X7136240Y-14540900D02*
X6905262Y-14540900D01*
X6657860Y-14788302D02*
X6657860Y-15546230D01*
X11965339Y-17302480D02*
X12029440Y-17302480D01*
X6905262Y-14540900D02*
X6657860Y-14788302D01*
X6886180Y-16906480D02*
X7312059Y-17332359D01*
X11935460Y-17332359D02*
X11965339Y-17302480D01*
X6746240Y-16499640D02*
X6886180Y-16639580D01*
X7394420Y-14282720D02*
X7136240Y-14540900D01*
X6657860Y-15546230D02*
X6746240Y-15634609D01*
X11418180Y-16791340D02*
X11412460Y-16797060D01*
X11958840Y-16791340D02*
X11418180Y-16791340D01*
G04 #@! TO.N,!RX_AMP_PWR*
X7326500Y-14831100D02*
X7334120Y-14692560D01*
X6868400Y-15359420D02*
X7326500Y-14831100D01*
X6868400Y-15646080D02*
X6868400Y-15359420D01*
X6817360Y-15697120D02*
X6868400Y-15646080D01*
X6817360Y-16464080D02*
X6817360Y-15697120D01*
X6957300Y-16604020D02*
X6817360Y-16464080D01*
X6957300Y-16870720D02*
X6957300Y-16604020D01*
X7051280Y-16964700D02*
X6957300Y-16870720D01*
X12147199Y-17261239D02*
X12086839Y-17200880D01*
X12086839Y-17200880D02*
X11966360Y-17200880D01*
X7282420Y-16964700D02*
X7051280Y-16964700D01*
X7578959Y-17261239D02*
X7282420Y-16964700D01*
X11906001Y-17261239D02*
X7578959Y-17261239D01*
X11966360Y-17200880D02*
X11906001Y-17261239D01*
X14796020Y-15239400D02*
X14912860Y-15356240D01*
X14912860Y-15356240D02*
X14912860Y-16752730D01*
X14404351Y-17261239D02*
X12147199Y-17261239D01*
X14912860Y-16752730D02*
X14404351Y-17261239D01*
G04 #@! TO.N,!TX_AMP_PWR*
X8361920Y-16888500D02*
X8361920Y-16835160D01*
X12939792Y-17118998D02*
X12206117Y-17118998D01*
X8458440Y-16985020D02*
X8361920Y-16888500D01*
X13703309Y-16854841D02*
X13203950Y-16854841D01*
X9527780Y-16985020D02*
X8458440Y-16985020D01*
X9527820Y-16984980D02*
X9527780Y-16985020D01*
X13889240Y-16668910D02*
X13703309Y-16854841D01*
X12072099Y-16984980D02*
X9527820Y-16984980D01*
X13889240Y-15715650D02*
X13889240Y-16668910D01*
X13941310Y-15663580D02*
X13889240Y-15715650D01*
X13203950Y-16854841D02*
X12939792Y-17118998D01*
X12206117Y-17118998D02*
X12072099Y-16984980D01*
G04 #@! TO.N,!VAA_ENABLE*
X14549640Y-12234580D02*
X14498840Y-12183780D01*
X14498840Y-12183780D02*
X14433299Y-12183780D01*
X14433299Y-12183780D02*
X13762738Y-11513219D01*
X8748281Y-10304179D02*
X11984628Y-10304179D01*
X8748281Y-10304179D02*
X8667000Y-10385460D01*
X8667000Y-10385460D02*
X8667000Y-10515000D01*
X12613653Y-11299860D02*
X12827013Y-11513219D01*
X12827013Y-11513219D02*
X13762738Y-11513219D01*
X12613653Y-10933205D02*
X12613653Y-11299860D01*
X11984628Y-10304179D02*
X12613653Y-10933205D01*
D27*
G04 #@! TO.N,+1.8V*
X12369800Y-12341260D02*
X12369800Y-11534140D01*
X12369800Y-11534140D02*
X11871960Y-11036300D01*
X11871960Y-11036300D02*
X11709400Y-11036300D01*
X14001000Y-11277000D02*
X13874000Y-11404000D01*
X13874000Y-11404000D02*
X12870700Y-11404000D01*
X14509000Y-11277000D02*
X14001000Y-11277000D01*
D28*
X12370320Y-12341260D02*
X12369800Y-12341260D01*
D26*
G04 #@! TO.N,/frontend/!ANT_BIAS*
X8735300Y-16083553D02*
X8735300Y-16870720D01*
X8735300Y-16035060D02*
X8735300Y-16083553D01*
D28*
G04 #@! TO.N,/frontend/REF_IN*
X9025140Y-16024260D02*
X8781300Y-15780420D01*
X10026539Y-16266199D02*
X9784600Y-16024260D01*
X8781300Y-15780420D02*
X8781300Y-15681440D01*
X8781300Y-15681440D02*
X8826500Y-15636240D01*
X11875659Y-16266199D02*
X10026539Y-16266199D01*
X9784600Y-16024260D02*
X9025140Y-16024260D01*
X11951220Y-16341760D02*
X11875659Y-16266199D01*
D26*
G04 #@! TO.N,/mcu/usb/power/B2AUX3*
X13626089Y-10827419D02*
X13141471Y-10827419D01*
X13141471Y-10827419D02*
X12963671Y-11005220D01*
X12963671Y-11005220D02*
X12819900Y-11005220D01*
X12819900Y-11005220D02*
X12725920Y-11099200D01*
X14255000Y-10880760D02*
X14216901Y-10918859D01*
X14216901Y-10918859D02*
X13717529Y-10918859D01*
X14255000Y-10769000D02*
X14255000Y-10880760D01*
X13717529Y-10918859D02*
X13626089Y-10827419D01*
G04 #@! TO.N,/mcu/usb/power/B2AUX4*
X13611359Y-10862980D02*
X13156201Y-10862980D01*
X13156201Y-10862980D02*
X12978400Y-11040780D01*
X12978400Y-11040780D02*
X12852920Y-11040780D01*
X12852920Y-11040780D02*
X12804660Y-11089040D01*
X12804660Y-11089040D02*
X12804660Y-11210960D01*
X12804660Y-11210960D02*
X12852920Y-11259220D01*
X14384540Y-10644540D02*
X14384540Y-10893459D01*
X14384540Y-10893459D02*
X14323580Y-10954419D01*
X14323580Y-10954419D02*
X13702799Y-10954419D01*
X14255000Y-10515000D02*
X14384540Y-10644540D01*
X13702799Y-10954419D02*
X13611359Y-10862980D01*
G04 #@! TO.N,/mcu/usb/power/B2AUX5*
X13596630Y-10898540D02*
X13170930Y-10898540D01*
X13170930Y-10898540D02*
X12957570Y-11111900D01*
X12957570Y-11111900D02*
X12875780Y-11111900D01*
X14509000Y-10890920D02*
X14509000Y-10769000D01*
X14409940Y-10989980D02*
X13688069Y-10989980D01*
X14509000Y-10890920D02*
X14409940Y-10989980D01*
X13688069Y-10989980D02*
X13596630Y-10898540D01*
G04 #@! TO.N,/mcu/usb/power/B2AUX6*
X13581900Y-10934100D02*
X13185660Y-10934100D01*
X13185660Y-10934100D02*
X12926580Y-11193180D01*
X14636000Y-10642000D02*
X14509000Y-10515000D01*
X14503920Y-11025540D02*
X13673340Y-11025540D01*
X14636000Y-10893460D02*
X14503920Y-11025540D01*
X14636000Y-10642000D02*
X14636000Y-10893460D01*
X13673340Y-11025540D02*
X13581900Y-10934100D01*
G04 #@! TO.N,/mcu/usb/power/B2AUX7*
X14763000Y-10908700D02*
X14763000Y-10769000D01*
X13452360Y-11277000D02*
X12974840Y-11277000D01*
X13668260Y-11061100D02*
X13452360Y-11277000D01*
X14610600Y-11061100D02*
X13668260Y-11061100D01*
X14763000Y-10908700D02*
X14610600Y-11061100D01*
G04 #@! TO.N,/mcu/usb/power/BANK2F3M12*
X11989320Y-12130440D02*
X12027420Y-12092340D01*
X11989320Y-12295030D02*
X11989320Y-12130440D01*
X12405880Y-12711590D02*
X11989320Y-12295030D01*
X12405880Y-12983880D02*
X12405880Y-12711590D01*
X12027420Y-12092340D02*
X12096000Y-12092340D01*
X12477000Y-13055000D02*
X12405880Y-12983880D01*
X12096000Y-12092340D02*
X12202680Y-12199020D01*
G04 #@! TO.N,/mcu/usb/power/BANK2F3M2*
X11666740Y-12023760D02*
X11783580Y-11906920D01*
X11783580Y-11906920D02*
X12202680Y-11906920D01*
X12047740Y-13387740D02*
X12047740Y-12813700D01*
X12047740Y-12813700D02*
X11666740Y-12432700D01*
X11666740Y-12432700D02*
X11666740Y-12023760D01*
X12223000Y-13563000D02*
X12047740Y-13387740D01*
G04 #@! TO.N,/mcu/usb/power/BANK2F3M4*
X12334760Y-12943240D02*
X12223000Y-13055000D01*
X11918200Y-12100981D02*
X12013200Y-12005980D01*
X12334760Y-12741049D02*
X11918200Y-12324489D01*
X11918200Y-12324489D02*
X11918200Y-12100981D01*
X12013200Y-12005980D02*
X12207760Y-12005980D01*
X12334760Y-12741049D02*
X12334760Y-12943240D01*
G04 #@! TO.N,/mcu/usb/power/BANK2F3M6*
X12370320Y-13161680D02*
X12370320Y-12726319D01*
X11953760Y-12115710D02*
X12012690Y-12056780D01*
X11953760Y-12309759D02*
X11953760Y-12115710D01*
X12370320Y-12726319D02*
X11953760Y-12309759D01*
X12159500Y-12056780D02*
X12205220Y-12102500D01*
X12012690Y-12056780D02*
X12159500Y-12056780D01*
X12223000Y-13309000D02*
X12370320Y-13161680D01*
G04 #@! TO.N,/mcu/usb/power/CPLD_TCK*
X12111240Y-12618109D02*
X11847079Y-12353948D01*
X11847079Y-12353948D02*
X11847079Y-12308239D01*
X11847079Y-12308239D02*
X11742940Y-12204100D01*
X12111240Y-12778140D02*
X12111240Y-12618109D01*
X12083300Y-13366910D02*
X12083300Y-12806080D01*
X12083300Y-13366910D02*
X12165090Y-13448700D01*
X12165090Y-13448700D02*
X12362700Y-13448700D01*
X12362700Y-13448700D02*
X12477000Y-13563000D01*
X12083300Y-12806080D02*
X12111240Y-12778140D01*
X12946900Y-13578240D02*
X12492240Y-13578240D01*
X12492240Y-13578240D02*
X12477000Y-13563000D01*
G04 #@! TO.N,/mcu/usb/power/CPLD_TDI*
X12118860Y-12820810D02*
X12146800Y-12792870D01*
X12146800Y-12792870D02*
X12146800Y-12603379D01*
X12146800Y-12603379D02*
X11882639Y-12339219D01*
X11882639Y-12339219D02*
X11882639Y-12201559D01*
X11882639Y-12201559D02*
X11732780Y-12051700D01*
X12372860Y-13413140D02*
X12477000Y-13309000D01*
X12179820Y-13413140D02*
X12118860Y-13352180D01*
X12179820Y-13413140D02*
X12372860Y-13413140D01*
X12118860Y-13352180D02*
X12118860Y-12820810D01*
X12911340Y-13489340D02*
X12657340Y-13489340D01*
X12657340Y-13489340D02*
X12477000Y-13309000D01*
G04 #@! TO.N,/mcu/usb/power/CPLD_TDO*
X13630160Y-12953400D02*
X13457440Y-13126120D01*
X13457440Y-13126120D02*
X13305040Y-13126120D01*
X13305040Y-13126120D02*
X13239000Y-13192160D01*
X13239000Y-13192160D02*
X13239000Y-13309000D01*
X13630160Y-11990740D02*
X13630160Y-12953400D01*
G04 #@! TO.N,/mcu/usb/power/CPLD_TMS*
X14114780Y-14180820D02*
X14114780Y-14140180D01*
X14114780Y-14140180D02*
X14203680Y-14051280D01*
X13967460Y-14328140D02*
X14114780Y-14180820D01*
X12985000Y-13184540D02*
X12985000Y-13309000D01*
X12240260Y-12343280D02*
X12055360Y-12158380D01*
X12535420Y-12734960D02*
X12479540Y-12734960D01*
X12479540Y-12734960D02*
X12240260Y-12495680D01*
X12240260Y-12495680D02*
X12240260Y-12343280D01*
X12535420Y-12734960D02*
X12985000Y-13184540D01*
G04 #@! TO.N,/mcu/usb/power/EN1V8*
X8440940Y-10268620D02*
X8524760Y-10184800D01*
X8524760Y-10184800D02*
X8654301Y-10184800D01*
X8654301Y-10184800D02*
X8702560Y-10233059D01*
X8702560Y-10233059D02*
X12327221Y-10233059D01*
X15047224Y-10296304D02*
X12940444Y-10296304D01*
X15141460Y-10873140D02*
X15141460Y-10390540D01*
X15283700Y-11015380D02*
X15141460Y-10873140D01*
X16508500Y-11258620D02*
X16508500Y-11114960D01*
X16408920Y-11015380D02*
X16508500Y-11114960D01*
X15283700Y-11015380D02*
X16408920Y-11015380D01*
X15047224Y-10296304D02*
X15141460Y-10390540D01*
X12471400Y-10088880D02*
X12327221Y-10233059D01*
X12733020Y-10088880D02*
X12471400Y-10088880D01*
X12940444Y-10296304D02*
X12733020Y-10088880D01*
X8440940Y-10357520D02*
X8440940Y-10268620D01*
X15534906Y-12789064D02*
X15969500Y-12354470D01*
X15969500Y-12354470D02*
X15969500Y-11797620D01*
X14636000Y-14982860D02*
X14636000Y-14931550D01*
X14636000Y-14931550D02*
X15340596Y-14226954D01*
X15340596Y-14226954D02*
X15340596Y-13153552D01*
X15534906Y-12959242D02*
X15340596Y-13153552D01*
X14590280Y-15028580D02*
X14636000Y-14982860D01*
X16508500Y-11258620D02*
X15969500Y-11797620D01*
X15534906Y-12959242D02*
X15534906Y-12789064D01*
G04 #@! TO.N,/mcu/usb/power/GCK0*
X12720840Y-11198260D02*
X12649214Y-11126634D01*
X12649214Y-11126634D02*
X12649214Y-10894046D01*
X12649214Y-10894046D02*
X13175835Y-10367425D01*
X13175835Y-10367425D02*
X13599425Y-10367425D01*
X13599425Y-10367425D02*
X13747000Y-10515000D01*
G04 #@! TO.N,/mcu/usb/power/GPIO3_10*
X16929100Y-14681200D02*
X16898620Y-14650720D01*
X16898620Y-14650720D02*
X16866720Y-14650720D01*
X16866720Y-14650720D02*
X16305861Y-14089861D01*
X16117357Y-14089861D02*
X16305861Y-14089861D01*
X16070660Y-14043164D02*
X16117357Y-14089861D01*
X16013186Y-14043164D02*
X16070660Y-14043164D01*
X16929100Y-14747240D02*
X16929100Y-14681200D01*
G04 #@! TO.N,/mcu/usb/power/GPIO3_11*
X17049000Y-14833000D02*
X16922000Y-14833000D01*
X16922000Y-14833000D02*
X16863580Y-14774580D01*
X16863580Y-14774580D02*
X16863580Y-14697870D01*
X16863580Y-14697870D02*
X16296880Y-14131170D01*
X16296880Y-14131170D02*
X16040127Y-14131170D01*
G04 #@! TO.N,/mcu/usb/power/GPIO3_8*
X16761460Y-14696329D02*
X16761460Y-14963140D01*
X16311248Y-14246118D02*
X15872838Y-14246118D01*
X15872838Y-14246118D02*
X15796780Y-14170060D01*
X16311248Y-14246118D02*
X16761460Y-14696329D01*
G04 #@! TO.N,/mcu/usb/power/GPIO3_9*
X17049000Y-15087000D02*
X16922000Y-15087000D01*
X16828020Y-14993020D02*
X16922000Y-15087000D01*
X16828020Y-14712599D02*
X16828020Y-14993020D01*
X16006002Y-14204808D02*
X16320229Y-14204808D01*
X16320229Y-14204808D02*
X16828020Y-14712599D01*
X15912608Y-14111414D02*
X16006002Y-14204808D01*
X15901831Y-14111414D02*
X15912608Y-14111414D01*
D28*
G04 #@! TO.N,/mcu/usb/power/GP_CLKIN*
X13620000Y-15633100D02*
X13846060Y-15407040D01*
X13846060Y-15407040D02*
X14303260Y-15407040D01*
X14303260Y-15407040D02*
X14674100Y-15036200D01*
X15758680Y-13519820D02*
X15378696Y-13899804D01*
X12377940Y-15747400D02*
X12939280Y-15747400D01*
X12939280Y-15747400D02*
X13053580Y-15633100D01*
X12329680Y-15795660D02*
X12377940Y-15747400D01*
X14674100Y-14947331D02*
X14674100Y-15036200D01*
X15378696Y-14242735D02*
X14674100Y-14947331D01*
X15378696Y-13899804D02*
X15378696Y-14242735D01*
X13053580Y-15633100D02*
X13620000Y-15633100D01*
D26*
G04 #@! TO.N,/mcu/usb/power/I2C1_SCL*
X15522460Y-14802520D02*
X15344660Y-14624720D01*
X16373360Y-16270640D02*
X16373360Y-15706760D01*
X16373360Y-15706760D02*
X15522460Y-14855860D01*
X15522460Y-14855860D02*
X15522460Y-14802520D01*
X16287000Y-16357000D02*
X16373360Y-16270640D01*
X15344660Y-14624720D02*
X15286240Y-14624720D01*
X14501380Y-14225940D02*
X14219440Y-14507880D01*
G04 #@! TO.N,/mcu/usb/power/I2C1_SDA*
X15370060Y-14599830D02*
X15370060Y-14535820D01*
X16287000Y-16611000D02*
X16408920Y-16489080D01*
X15558020Y-14841130D02*
X15558020Y-14787790D01*
X16408920Y-15692030D02*
X15558020Y-14841130D01*
X16408920Y-16489080D02*
X16408920Y-15692030D01*
X15558020Y-14787790D02*
X15370060Y-14599830D01*
X14133080Y-14500260D02*
X14509000Y-14124340D01*
G04 #@! TO.N,/mcu/usb/power/I2S0_RX_SCK*
X15692640Y-15495940D02*
X15601280Y-15495940D01*
X15601280Y-15495940D02*
X15570200Y-15527020D01*
X15570200Y-15712440D02*
X15398000Y-15884640D01*
X15570200Y-15527020D02*
X15570200Y-15712440D01*
X15525000Y-16611000D02*
X15398000Y-16484000D01*
X15398000Y-15884640D02*
X15398000Y-16484000D01*
G04 #@! TO.N,/mcu/usb/power/I2S0_RX_SDA*
X15522864Y-15478160D02*
X15522864Y-15359669D01*
X15522864Y-15359669D02*
X15436654Y-15273459D01*
X15291320Y-15709704D02*
X15291320Y-16336680D01*
X15291320Y-16336680D02*
X15271000Y-16357000D01*
X15522864Y-15478160D02*
X15291320Y-15709704D01*
G04 #@! TO.N,/mcu/usb/power/I2S0_RX_WS*
X15377680Y-15351160D02*
X15446260Y-15351160D01*
X15446260Y-15351160D02*
X15481555Y-15386455D01*
X15481555Y-15386455D02*
X15481555Y-15465214D01*
X15481555Y-15465214D02*
X15182100Y-15764670D01*
X15182100Y-15764670D02*
X15182100Y-15953140D01*
G04 #@! TO.N,/mcu/usb/power/I2S0_TX_SCK*
X15420860Y-15424820D02*
X15366250Y-15479430D01*
X15366250Y-15479430D02*
X15366250Y-15530230D01*
X15366250Y-15530230D02*
X15121140Y-15775340D01*
X15121140Y-15775340D02*
X15121140Y-16506860D01*
X15121140Y-16506860D02*
X15017000Y-16611000D01*
G04 #@! TO.N,/mcu/usb/power/LED1*
X12506973Y-10977394D02*
X11940439Y-10410860D01*
X11940439Y-10410860D02*
X9025140Y-10410860D01*
X8921000Y-10515000D02*
X9025140Y-10410860D01*
X15193275Y-13094625D02*
X15193275Y-13387740D01*
X15161780Y-13419235D02*
X15193275Y-13387740D01*
X15161780Y-13486800D02*
X15161780Y-13419235D01*
X12506973Y-11344430D02*
X12506973Y-10977394D01*
X13718550Y-11619900D02*
X15193275Y-13094625D01*
X12782443Y-11619900D02*
X13718550Y-11619900D01*
X12506973Y-11344430D02*
X12782443Y-11619900D01*
G04 #@! TO.N,/mcu/usb/power/LED2*
X12471413Y-10992123D02*
X11925710Y-10446420D01*
X11925710Y-10446420D02*
X9495040Y-10446420D01*
X9299460Y-10642000D02*
X9048000Y-10642000D01*
X9048000Y-10642000D02*
X8921000Y-10769000D01*
X15157715Y-13109355D02*
X13703820Y-11655460D01*
X13703820Y-11655460D02*
X12767713Y-11655460D01*
X12767713Y-11655460D02*
X12471413Y-11359159D01*
X15131300Y-13261755D02*
X15157715Y-13235340D01*
X15131300Y-13344560D02*
X15131300Y-13261755D01*
X15157715Y-13235340D02*
X15157715Y-13109355D01*
X9495040Y-10446420D02*
X9299460Y-10642000D01*
X12471413Y-11359159D02*
X12471413Y-10992123D01*
X8585720Y-10992520D02*
X8697480Y-10992520D01*
X8697480Y-10992520D02*
X8921000Y-10769000D01*
G04 #@! TO.N,/mcu/usb/power/LED3*
X12542533Y-10962664D02*
X11955169Y-10375300D01*
X11955169Y-10375300D02*
X8890520Y-10375300D01*
X14588505Y-14828175D02*
X15228835Y-14187845D01*
X14475725Y-14828175D02*
X14588505Y-14828175D01*
X14415020Y-14888880D02*
X14475725Y-14828175D01*
X14415020Y-15051950D02*
X14415020Y-14888880D01*
X14277860Y-15189110D02*
X14415020Y-15051950D01*
X14277860Y-15330840D02*
X14277860Y-15189110D01*
X15228835Y-14187845D02*
X15228835Y-13079896D01*
X8890520Y-10375300D02*
X8814320Y-10451500D01*
X8814320Y-10621680D02*
X8667000Y-10769000D01*
X8814320Y-10451500D02*
X8814320Y-10621680D01*
X12542533Y-11329700D02*
X12542533Y-10962664D01*
X12797172Y-11584340D02*
X12542533Y-11329700D01*
X13733279Y-11584340D02*
X12797172Y-11584340D01*
X15228835Y-13079896D02*
X13733279Y-11584340D01*
G04 #@! TO.N,/mcu/usb/power/P2_8*
X13881620Y-15593730D02*
X13886700Y-15598810D01*
X13886700Y-15598810D02*
X14031480Y-15598810D01*
X14031480Y-15598810D02*
X14110220Y-15677550D01*
X14110220Y-15677550D02*
X14110220Y-16247780D01*
X14001000Y-16357000D02*
X14110220Y-16247780D01*
X12578093Y-11314971D02*
X12811902Y-11548779D01*
X12578093Y-10947934D02*
X11969898Y-10339740D01*
X11969898Y-10339740D02*
X8875791Y-10339740D01*
X14483600Y-14914280D02*
X14534145Y-14863735D01*
X14534145Y-14863735D02*
X14603235Y-14863735D01*
X14603235Y-14863735D02*
X15264396Y-14202575D01*
X15264396Y-14202575D02*
X15264396Y-13065166D01*
X8778760Y-10606950D02*
X8743710Y-10642000D01*
X8778760Y-10436770D02*
X8778760Y-10606950D01*
X8875791Y-10339740D02*
X8778760Y-10436770D01*
X12578093Y-11314971D02*
X12578093Y-10947934D01*
X13748009Y-11548779D02*
X15264396Y-13065166D01*
X12811902Y-11548779D02*
X13748009Y-11548779D01*
X8743710Y-10642000D02*
X8354580Y-10642000D01*
G04 #@! TO.N,/mcu/usb/power/RESET*
X16668000Y-16230000D02*
X16541000Y-16357000D01*
X15718040Y-14543440D02*
X15771380Y-14596780D01*
X16234170Y-15193680D02*
X16668000Y-15627510D01*
X16022840Y-15193680D02*
X16234170Y-15193680D01*
X15771380Y-14942220D02*
X16022840Y-15193680D01*
X15771380Y-14596780D02*
X15771380Y-14942220D01*
X16668000Y-15627510D02*
X16668000Y-16230000D01*
X15079380Y-12168540D02*
X15011920Y-12168540D01*
X15011920Y-12168540D02*
X14879840Y-12300620D01*
X14879840Y-12300620D02*
X14879840Y-12381855D01*
X14879840Y-12381855D02*
X14779299Y-12482395D01*
X15293260Y-11954660D02*
X15079380Y-12168540D01*
X15588500Y-14413900D02*
X15718040Y-14543440D01*
X15433560Y-14413900D02*
X15588500Y-14413900D01*
X15379620Y-14467840D02*
X15346600Y-14467840D01*
X15346600Y-14467840D02*
X15017000Y-14797440D01*
X15017000Y-14797440D02*
X15017000Y-15849000D01*
X15433560Y-14413900D02*
X15379620Y-14467840D01*
X8613661Y-10268619D02*
X8613660Y-10268620D01*
X14892540Y-10418480D02*
X14805924Y-10331864D01*
X15011920Y-11061100D02*
X14892540Y-10941720D01*
X14892540Y-10941720D02*
X14892540Y-10418480D01*
X15011920Y-12168540D02*
X15011920Y-11061100D01*
X12484599Y-10753861D02*
X11999358Y-10268619D01*
X12739109Y-10753861D02*
X12484599Y-10753861D01*
X13161106Y-10331864D02*
X12739109Y-10753861D01*
X14805924Y-10331864D02*
X13161106Y-10331864D01*
X11999358Y-10268619D02*
X8613661Y-10268619D01*
G04 #@! TO.N,/mcu/usb/power/SD_CD*
X13296900Y-14846300D02*
X12890420Y-14846300D01*
X12890420Y-14846300D02*
X12751320Y-14985400D01*
X13660120Y-14310008D02*
X13660120Y-14483080D01*
X13660120Y-14483080D02*
X13296900Y-14846300D01*
X14240894Y-13729234D02*
X14306934Y-13729234D01*
X14306934Y-13729234D02*
X14313420Y-13735720D01*
X14240894Y-13729234D02*
X13660120Y-14310008D01*
G04 #@! TO.N,/mcu/usb/power/SD_CLK*
X12349480Y-14197480D02*
X12477000Y-14325000D01*
X12349480Y-14048740D02*
X12349480Y-14197480D01*
X12438380Y-13959840D02*
X12349480Y-14048740D01*
X12438380Y-13959840D02*
X12683761Y-13959840D01*
X12683761Y-13959840D02*
X12826601Y-13817000D01*
X12826601Y-13817000D02*
X13801100Y-13817000D01*
X14606280Y-13011820D02*
X14666480Y-13011820D01*
X13801100Y-13817000D02*
X14606280Y-13011820D01*
G04 #@! TO.N,/mcu/usb/power/SD_CMD*
X12477000Y-14472320D02*
X12477000Y-14579000D01*
X12477000Y-14472320D02*
X12580580Y-14368740D01*
X12580580Y-14113311D02*
X12841331Y-13852560D01*
X12841331Y-13852560D02*
X13815829Y-13852560D01*
X12580580Y-14368740D02*
X12580580Y-14113311D01*
X14481310Y-13187080D02*
X14542020Y-13187080D01*
X13815829Y-13852560D02*
X14481310Y-13187080D01*
G04 #@! TO.N,/mcu/usb/power/SD_DAT0*
X12477000Y-14833000D02*
X12651740Y-14658260D01*
X12651740Y-14658260D02*
X12651740Y-14142731D01*
X12651740Y-14142731D02*
X12870790Y-13923681D01*
X12870790Y-13923681D02*
X13845288Y-13923681D01*
X14399009Y-13369960D02*
X13845288Y-13923681D01*
X14511540Y-13369960D02*
X14399009Y-13369960D01*
G04 #@! TO.N,/mcu/usb/power/SD_DAT1*
X12758421Y-14853839D02*
X12715760Y-14896500D01*
X12914979Y-14030361D02*
X12758421Y-14186919D01*
X12758421Y-14186919D02*
X12758421Y-14853839D01*
X13889477Y-14030361D02*
X12914979Y-14030361D01*
X14435976Y-13615704D02*
X14304135Y-13615704D01*
X14559800Y-13491880D02*
X14435976Y-13615704D01*
X13889477Y-14030361D02*
X14304135Y-13615704D01*
G04 #@! TO.N,/mcu/usb/power/SD_DAT2*
X12722861Y-14172190D02*
X12900249Y-13994801D01*
X12900249Y-13994801D02*
X13874748Y-13994801D01*
X14418293Y-13547454D02*
X14322095Y-13547454D01*
X14322095Y-13547454D02*
X13874748Y-13994801D01*
X12722861Y-14782719D02*
X12647180Y-14858400D01*
X12722861Y-14782719D02*
X12722861Y-14172190D01*
X12647180Y-14858400D02*
X12647180Y-14962540D01*
G04 #@! TO.N,/mcu/usb/power/SD_DAT3*
X12751400Y-15097160D02*
X12966700Y-14881860D01*
X12966700Y-14881860D02*
X13311630Y-14881860D01*
X12685280Y-15097160D02*
X12751400Y-15097160D01*
X13311630Y-14881860D02*
X13695680Y-14497810D01*
X13695680Y-14497810D02*
X13695680Y-14324738D01*
X13695680Y-14324738D02*
X14223313Y-13797105D01*
X14353635Y-13797105D02*
X14223313Y-13797105D01*
X14509000Y-13641740D02*
X14353635Y-13797105D01*
G04 #@! TO.N,/mcu/usb/power/SD_POW*
X12223000Y-14579000D02*
X12334760Y-14690760D01*
X12334760Y-14690760D02*
X12517640Y-14690760D01*
X12616180Y-14592220D02*
X12517640Y-14690760D01*
X12856061Y-13888121D02*
X12616180Y-14128001D01*
X12616180Y-14128001D02*
X12616180Y-14592220D01*
X13830559Y-13888121D02*
X12856061Y-13888121D01*
X14465559Y-13253120D02*
X14620760Y-13253120D01*
X13830559Y-13888121D02*
X14465559Y-13253120D01*
G04 #@! TO.N,/mcu/usb/power/SD_VOLT0*
X14595360Y-13430920D02*
X14646160Y-13481720D01*
X12885520Y-13959241D02*
X12687301Y-14157460D01*
X12687301Y-14157460D02*
X12687301Y-14719219D01*
X14388339Y-13430920D02*
X14595360Y-13430920D01*
X13860018Y-13959241D02*
X14388339Y-13430920D01*
X12687301Y-14719219D02*
X12609080Y-14797440D01*
X13860018Y-13959241D02*
X12885520Y-13959241D01*
G04 #@! TO.N,/mcu/usb/power/SGPIO13*
X14864600Y-11932320D02*
X14864600Y-12219340D01*
X14509000Y-11576720D02*
X14864600Y-11932320D01*
G04 #@! TO.N,/mcu/usb/power/SGPIO9*
X14796020Y-12300620D02*
X14796020Y-12127900D01*
X14796020Y-12127900D02*
X14577580Y-11909460D01*
X14577580Y-11909460D02*
X14417560Y-11909460D01*
X14417560Y-11909460D02*
X14369300Y-11861200D01*
X14369300Y-11861200D02*
X14369300Y-11612280D01*
X14369300Y-11612280D02*
X14407400Y-11574180D01*
X14407400Y-11467500D02*
X14407400Y-11574180D01*
G04 #@! TO.N,/mcu/usb/power/SPIFI_MISO*
X15443200Y-14848840D02*
X15443200Y-15046960D01*
X15443200Y-15046960D02*
X16121380Y-15725140D01*
X16121380Y-15725140D02*
X16230600Y-15725140D01*
G04 #@! TO.N,/mcu/usb/power/SPIFI_SIO2*
X15791700Y-15506100D02*
X16086940Y-15801340D01*
X16086940Y-15801340D02*
X16299180Y-15801340D01*
G04 #@! TO.N,/mcu/usb/power/SPIFI_SIO3*
X15654540Y-15584840D02*
X15605760Y-15633620D01*
X15605760Y-15633620D02*
X15605760Y-15857220D01*
X15605760Y-15857220D02*
X15537180Y-15925800D01*
G04 #@! TO.N,/mcu/usb/power/TCK*
X15514240Y-11677800D02*
X15410100Y-11573660D01*
X15410100Y-11573660D02*
X15293260Y-11573660D01*
G04 #@! TO.N,/mcu/usb/power/TDI*
X15367440Y-11901840D02*
X15293260Y-11827660D01*
X15367440Y-11901840D02*
X15768840Y-11901840D01*
G04 #@! TO.N,/mcu/usb/power/TDO*
X15433040Y-11700660D02*
X15514840Y-11782460D01*
X15433040Y-11700660D02*
X15293260Y-11700660D01*
G04 #@! TO.N,/mcu/usb/power/U0_RXD*
X14509000Y-15849000D02*
X14509000Y-16357000D01*
G04 #@! TO.N,/mcu/usb/power/VBAT*
X16833700Y-15742920D02*
X16835120Y-15742920D01*
X15838969Y-14896288D02*
X15987068Y-14896288D01*
X15987068Y-14896288D02*
X16833700Y-15742920D01*
D29*
G04 #@! TO.N,/mcu/usb/power/VBUS*
X16715980Y-12240300D02*
X16853140Y-12377460D01*
X17303000Y-13055000D02*
X17303000Y-12827320D01*
X16715980Y-12123460D02*
X16715980Y-12240300D01*
X17303000Y-12827320D02*
X16853140Y-12377460D01*
D26*
G04 #@! TO.N,/mcu/usb/power/VBUSCTRL*
X16880000Y-13150000D02*
X16880000Y-13350000D01*
X16180000Y-12450000D02*
X16880000Y-13150000D01*
X16880000Y-13350000D02*
X16970000Y-13440000D01*
X16970000Y-13440000D02*
X17180000Y-13440000D01*
X16180000Y-12340000D02*
X16180000Y-12450000D01*
X17180000Y-13440000D02*
X17303000Y-13563000D01*
D29*
G04 #@! TO.N,/mcu/usb/power/VIN*
X17049000Y-13055000D02*
X16268940Y-12274940D01*
X17224890Y-12007890D02*
X16356570Y-12007890D01*
X16356570Y-12007890D02*
X16268940Y-12095520D01*
X16268940Y-12274940D02*
X16268940Y-12095520D01*
X17608308Y-11112154D02*
X17608308Y-11624472D01*
X17608308Y-11624472D02*
X17224890Y-12007890D01*
D26*
G04 #@! TO.N,/mcu/usb/power/VREGMODE*
X15494266Y-12779415D02*
X15834880Y-12438800D01*
X15834880Y-12438800D02*
X15834880Y-12361580D01*
X15299956Y-14217304D02*
X14362615Y-15154645D01*
X14362615Y-15233946D02*
X14362615Y-15154645D01*
X15494266Y-12942408D02*
X15299956Y-13136718D01*
X15299956Y-13136718D02*
X15299956Y-14217304D01*
X15494266Y-12942408D02*
X15494266Y-12779415D01*
G04 #@! TO.N,AMP_BYPASS*
X7668500Y-15679460D02*
X7544040Y-15679460D01*
X7757400Y-15590560D02*
X7668500Y-15679460D01*
X8361279Y-17190119D02*
X8290800Y-17119640D01*
X8059660Y-16721299D02*
X8059660Y-16479560D01*
X11876542Y-17190119D02*
X8361279Y-17190119D01*
X14549640Y-15391800D02*
X14648700Y-15391800D01*
X8290800Y-17119640D02*
X8290800Y-16952439D01*
X14648700Y-15391800D02*
X14696960Y-15440060D01*
X14696960Y-15440060D02*
X14696960Y-15655960D01*
X14653780Y-16712600D02*
X14176261Y-17190119D01*
X14696960Y-15655960D02*
X14653780Y-15699140D01*
X14653780Y-15699140D02*
X14653780Y-16712600D01*
X11936901Y-17129759D02*
X11876542Y-17190119D01*
X14176261Y-17190119D02*
X12176658Y-17190119D01*
X8290800Y-16952439D02*
X8059660Y-16721299D01*
X12176658Y-17190119D02*
X12116299Y-17129759D01*
X12116299Y-17129759D02*
X11936901Y-17129759D01*
X8059660Y-16479560D02*
X7757400Y-16177300D01*
X7544040Y-15679460D02*
X7757400Y-15892820D01*
X7757400Y-15892820D02*
X7757400Y-16177300D01*
X7757400Y-15174200D02*
X7757400Y-15590560D01*
X7739620Y-15110500D02*
X7757400Y-15174200D01*
D28*
G04 #@! TO.N,CLK6*
X12421120Y-16108080D02*
X12421120Y-16014100D01*
X12421120Y-16014100D02*
X12588760Y-15846460D01*
X12588760Y-15846460D02*
X12926580Y-15846460D01*
X12926580Y-15846460D02*
X12979920Y-15899800D01*
X12979920Y-15899800D02*
X13048500Y-15899800D01*
X13048500Y-15899800D02*
X13132320Y-15815980D01*
X13132320Y-15815980D02*
X13462520Y-15815980D01*
X13462520Y-15815980D02*
X13726680Y-16080140D01*
X13726680Y-16080140D02*
X13726680Y-16161420D01*
X13726680Y-16161420D02*
X13747000Y-16181740D01*
X13747000Y-16181740D02*
X13747000Y-16357000D01*
D26*
G04 #@! TO.N,CS_AD*
X9944620Y-10481980D02*
X11910980Y-10481980D01*
X13221220Y-13021980D02*
X13141714Y-13021980D01*
X13141714Y-13021980D02*
X12529821Y-12410087D01*
X12529821Y-11467857D02*
X12529821Y-12410087D01*
X12435852Y-11373889D02*
X12529821Y-11467857D01*
X9729228Y-10843676D02*
X9729228Y-10697372D01*
X9785022Y-10899470D02*
X9729228Y-10843676D01*
X9846310Y-10899470D02*
X9785022Y-10899470D01*
X9944620Y-10481980D02*
X9729228Y-10697372D01*
X12435852Y-11006853D02*
X12435852Y-11373889D01*
X11910980Y-10481980D02*
X12435852Y-11006853D01*
G04 #@! TO.N,CS_XCVR*
X11915650Y-13594080D02*
X12034430Y-13712860D01*
X11663680Y-13594080D02*
X11915650Y-13594080D01*
X11633200Y-13624560D02*
X11663680Y-13594080D01*
X11546840Y-13624560D02*
X11633200Y-13624560D01*
X12034430Y-13712860D02*
X13005320Y-13712860D01*
D28*
G04 #@! TO.N,GCK1*
X10665980Y-12011060D02*
X10445000Y-11790080D01*
X10445000Y-11790080D02*
X10325440Y-11790080D01*
X10245090Y-11709730D02*
X10325440Y-11790080D01*
G04 #@! TO.N,GCK2*
X11709400Y-11235840D02*
X11709400Y-11158220D01*
X12278360Y-12434720D02*
X12278360Y-11804800D01*
X12278360Y-11804800D02*
X11709400Y-11235840D01*
X12504940Y-12661300D02*
X12278360Y-12434720D01*
D27*
G04 #@! TO.N,GND*
X10289540Y-11411280D02*
X10289540Y-11081080D01*
X10124440Y-11411280D02*
X10124440Y-11081080D01*
X10454640Y-11081080D02*
X10124440Y-11411280D01*
X9152058Y-15666378D02*
X9372022Y-15886342D01*
X12813214Y-16226306D02*
X12813214Y-16358894D01*
X17003038Y-11120190D02*
X17003038Y-11270050D01*
X9372022Y-15666378D02*
X9152058Y-15886342D01*
X10124440Y-11081080D02*
X10454640Y-11081080D01*
X11015726Y-14038834D02*
X10713974Y-14340586D01*
X12680626Y-16358894D02*
X12813214Y-16226306D01*
X12680626Y-16226306D02*
X12813214Y-16226306D01*
X10713974Y-14038834D02*
X11015726Y-14038834D01*
X10713974Y-14340586D02*
X10713974Y-14038834D01*
X16902962Y-11270050D02*
X16902962Y-11120190D01*
X9372022Y-15666378D02*
X9372022Y-15886342D01*
X10454640Y-11411280D02*
X10124440Y-11081080D01*
X12813214Y-16358894D02*
X12680626Y-16358894D01*
X10454640Y-11081080D02*
X10454640Y-11411280D01*
X11015726Y-14340586D02*
X10713974Y-14340586D01*
X10454640Y-11246180D02*
X10124440Y-11246180D01*
X17003038Y-11270050D02*
X16902962Y-11270050D01*
X11015726Y-14038834D02*
X11015726Y-14340586D01*
X9372022Y-15886342D02*
X9152058Y-15886342D01*
X11015726Y-14340586D02*
X10713974Y-14038834D01*
X9152058Y-15666378D02*
X9372022Y-15666378D01*
X16902962Y-11120190D02*
X17003038Y-11120190D01*
X12680626Y-16226306D02*
X12680626Y-16358894D01*
X10454640Y-11411280D02*
X10124440Y-11411280D01*
X9152058Y-15886342D02*
X9152058Y-15666378D01*
D30*
X6390350Y-16449250D02*
X6311500Y-16449250D01*
D26*
G04 #@! TO.N,HP*
X16484600Y-14017151D02*
X16484600Y-13931900D01*
X17355310Y-14178280D02*
X16645729Y-14178280D01*
X17442180Y-16388499D02*
X17442180Y-14265150D01*
X16391639Y-17439040D02*
X17442180Y-16388499D01*
X6639559Y-15678798D02*
X6639559Y-16810728D01*
X8476220Y-14208800D02*
X8567660Y-14119900D01*
X6858520Y-14436772D02*
X6551179Y-14744113D01*
X6639559Y-16810728D02*
X7267871Y-17439040D01*
X16645729Y-14178280D02*
X16484600Y-14017151D01*
X6551179Y-14744113D02*
X6551179Y-15590418D01*
X6858520Y-13982100D02*
X6858520Y-14436772D01*
X17442180Y-14265150D02*
X17355310Y-14178280D01*
X7267871Y-17439040D02*
X16391639Y-17439040D01*
X6551179Y-15590418D02*
X6639559Y-15678798D01*
X6966840Y-13873780D02*
X6858520Y-13982100D01*
X8567660Y-14119900D02*
X8567660Y-13550940D01*
X7290040Y-13550940D02*
X6966840Y-13873780D01*
X8567660Y-13550940D02*
X7290040Y-13550940D01*
G04 #@! TO.N,LP*
X15988811Y-13723020D02*
X15732271Y-13979560D01*
X16140179Y-13723020D02*
X15988811Y-13723020D01*
X17340580Y-14213840D02*
X16630999Y-14213840D01*
X17406620Y-14279880D02*
X17340580Y-14213840D01*
X17406620Y-16373769D02*
X17406620Y-14279880D01*
X16376910Y-17403480D02*
X17406620Y-16373769D01*
X6675119Y-15664069D02*
X6675119Y-16795999D01*
X7282600Y-17403480D02*
X16376910Y-17403480D01*
X6586739Y-15575689D02*
X6675119Y-15664069D01*
X6675119Y-16795999D02*
X7282600Y-17403480D01*
X7711680Y-13888760D02*
X7508480Y-13888760D01*
X6894080Y-14451502D02*
X6586739Y-14758842D01*
X16630999Y-14213840D02*
X16140179Y-13723020D01*
X7091600Y-14066520D02*
X6894080Y-14264040D01*
X15732271Y-13979560D02*
X15446260Y-13979560D01*
X7359500Y-14066520D02*
X7091600Y-14066520D01*
X6586739Y-14758842D02*
X6586739Y-15575689D01*
X7508480Y-13888760D02*
X7359500Y-14066520D01*
X6894080Y-14264040D02*
X6894080Y-14451502D01*
G04 #@! TO.N,MIXER_ENX*
X9749720Y-15288680D02*
X9716700Y-15255660D01*
X9749720Y-15548680D02*
X9749720Y-15288680D01*
X9712960Y-15585440D02*
X9749720Y-15548680D01*
X10340950Y-15316200D02*
X9883660Y-15316200D01*
X9823120Y-15255660D02*
X9716700Y-15255660D01*
X9883660Y-15316200D02*
X9823120Y-15255660D01*
X10465449Y-15440699D02*
X10340950Y-15316200D01*
X10780001Y-15440699D02*
X10465449Y-15440699D01*
X11947560Y-15488320D02*
X11866880Y-15407640D01*
X10813060Y-15407640D02*
X10780001Y-15440699D01*
X14859520Y-14139580D02*
X14859520Y-14291980D01*
X14336280Y-14815220D02*
X14249909Y-14815220D01*
X13513309Y-15551820D02*
X12631940Y-15551820D01*
X14859520Y-14291980D02*
X14336280Y-14815220D01*
X12631940Y-15551820D02*
X12568440Y-15488320D01*
X12568440Y-15488320D02*
X11947560Y-15488320D01*
X11866880Y-15407640D02*
X10813060Y-15407640D01*
X14249909Y-14815220D02*
X13513309Y-15551820D01*
G04 #@! TO.N,MIXER_RESETX*
X9790360Y-15391200D02*
X9829800Y-15351760D01*
X9737020Y-15674760D02*
X9790360Y-15621420D01*
X9790360Y-15621420D02*
X9790360Y-15391200D01*
X10326220Y-15351760D02*
X9829800Y-15351760D01*
X10458340Y-15483880D02*
X10326220Y-15351760D01*
X10791684Y-15483880D02*
X10458340Y-15483880D01*
X14234680Y-14967110D02*
X14234680Y-15074300D01*
X11581097Y-15699140D02*
X11330277Y-15448320D01*
X10827244Y-15448320D02*
X10791684Y-15483880D01*
X12916420Y-15699140D02*
X11581097Y-15699140D01*
X13028180Y-15587380D02*
X12916420Y-15699140D01*
X14234680Y-15074300D02*
X13973060Y-15335920D01*
X13528039Y-15587380D02*
X13028180Y-15587380D01*
X13779499Y-15335920D02*
X13528039Y-15587380D01*
X14920480Y-14213240D02*
X14920480Y-14281310D01*
X13973060Y-15335920D02*
X13779499Y-15335920D01*
X11330277Y-15448320D02*
X10827244Y-15448320D01*
X14920480Y-14281310D02*
X14234680Y-14967110D01*
G04 #@! TO.N,MIXER_SCLK*
X11962290Y-15452760D02*
X11881610Y-15372080D01*
X10795280Y-15372080D02*
X10759682Y-15407678D01*
X9898390Y-15280640D02*
X9813720Y-15195970D01*
X14265659Y-14749180D02*
X13498580Y-15516260D01*
X10482717Y-15407678D02*
X10355679Y-15280640D01*
X10759682Y-15407678D02*
X10482717Y-15407678D01*
X12583170Y-15452760D02*
X11962290Y-15452760D01*
X9636690Y-15195970D02*
X9602400Y-15230260D01*
X14308340Y-14749180D02*
X14265659Y-14749180D01*
X13498580Y-15516260D02*
X12646669Y-15516260D01*
X12646669Y-15516260D02*
X12583170Y-15452760D01*
X9813720Y-15195970D02*
X9636690Y-15195970D01*
X11881610Y-15372080D02*
X10795280Y-15372080D01*
X10355679Y-15280640D02*
X9898390Y-15280640D01*
G04 #@! TO.N,MIXER_SDATA*
X14339829Y-14624720D02*
X14382000Y-14624720D01*
X14382000Y-14624720D02*
X14455660Y-14551060D01*
X11363960Y-15236860D02*
X12580131Y-15236860D01*
X10813900Y-15326360D02*
X11274460Y-15326360D01*
X11274460Y-15326360D02*
X11363960Y-15236860D01*
X9652520Y-15150500D02*
X9512820Y-15010800D01*
X9652520Y-15150500D02*
X9818540Y-15150500D01*
X9818540Y-15150500D02*
X9913119Y-15245079D01*
X9913119Y-15245079D02*
X10732619Y-15245079D01*
X10732619Y-15245079D02*
X10813900Y-15326360D01*
X12643631Y-15300361D02*
X13664189Y-15300361D01*
X12580131Y-15236860D02*
X12643631Y-15300361D01*
X13664189Y-15300361D02*
X14339829Y-14624720D01*
G04 #@! TO.N,MIX_BYPASS*
X11122900Y-16809760D02*
X11122900Y-16408440D01*
X11221920Y-16908780D02*
X11122900Y-16809760D01*
X13630160Y-16125860D02*
X13630160Y-16557150D01*
X13167370Y-16783720D02*
X13042310Y-16908780D01*
X13042310Y-16908780D02*
X11221920Y-16908780D01*
X13403590Y-16783720D02*
X13167370Y-16783720D01*
X13630160Y-16557150D02*
X13403590Y-16783720D01*
G04 #@! TO.N,RSSI*
X12617460Y-15027310D02*
X12617460Y-15123320D01*
X12534910Y-14944760D02*
X11943680Y-14944760D01*
X11120640Y-14004960D02*
X11120640Y-14859420D01*
X10885840Y-13918600D02*
X11034280Y-13918600D01*
X11034280Y-13918600D02*
X11120640Y-14004960D01*
X10751820Y-13784580D02*
X10885840Y-13918600D01*
X12534910Y-14944760D02*
X12617460Y-15027310D01*
X11272620Y-15011400D02*
X11120640Y-14859420D01*
X11877040Y-15011400D02*
X11272620Y-15011400D01*
X11943680Y-14944760D02*
X11877040Y-15011400D01*
X13620000Y-15193680D02*
X14864600Y-13949080D01*
X12687820Y-15193680D02*
X13620000Y-15193680D01*
X12617460Y-15123320D02*
X12687820Y-15193680D01*
G04 #@! TO.N,RX*
X10147540Y-16446180D02*
X10173220Y-16420500D01*
X12086828Y-16949420D02*
X10152580Y-16949420D01*
X10147540Y-16944380D02*
X10147540Y-16446180D01*
X12220847Y-17083438D02*
X12086828Y-16949420D01*
X12925062Y-17083438D02*
X12220847Y-17083438D01*
X13189220Y-16819280D02*
X12925062Y-17083438D01*
X10152580Y-16949420D02*
X10147540Y-16944380D01*
X13688580Y-16819280D02*
X13189220Y-16819280D01*
X13853680Y-16654180D02*
X13688580Y-16819280D01*
X13853680Y-16194440D02*
X13853680Y-16654180D01*
X13790180Y-16130940D02*
X13853680Y-16194440D01*
X8701010Y-15825352D02*
X8701010Y-15055890D01*
X10173220Y-16420500D02*
X9674872Y-16420500D01*
X9164560Y-14592340D02*
X9164560Y-14412000D01*
X8701010Y-15055890D02*
X9164560Y-14592340D01*
X8973578Y-16097920D02*
X8701010Y-15825352D01*
X9674872Y-16420500D02*
X9352292Y-16097920D01*
X9352292Y-16097920D02*
X8973578Y-16097920D01*
G04 #@! TO.N,RXENABLE*
X12581900Y-15138050D02*
X12673090Y-15229240D01*
X12673090Y-15229240D02*
X13634730Y-15229240D01*
X13634730Y-15229240D02*
X14848850Y-14015120D01*
X11958410Y-14980320D02*
X11891770Y-15046960D01*
X11891770Y-15046960D02*
X11257890Y-15046960D01*
X11257890Y-15046960D02*
X11201410Y-14990480D01*
X14848850Y-14015120D02*
X14895080Y-14015120D01*
X14895080Y-14015120D02*
X14933180Y-13977020D01*
X10474960Y-14561820D02*
X10474960Y-14942210D01*
X10523230Y-14990480D02*
X11201410Y-14990480D01*
X10474960Y-14942210D02*
X10523230Y-14990480D01*
X12520180Y-14980320D02*
X12581900Y-15042040D01*
X14933180Y-13303920D02*
X14933180Y-13977020D01*
X15001760Y-13235340D02*
X14933180Y-13303920D01*
X12520180Y-14980320D02*
X11958410Y-14980320D01*
X12581900Y-15042040D02*
X12581900Y-15138050D01*
G04 #@! TO.N,RX_AMP*
X11891271Y-17225679D02*
X8307939Y-17225679D01*
X7952980Y-16479560D02*
X7650720Y-16177300D01*
X14732520Y-15180980D02*
X14732520Y-15591950D01*
X14732520Y-15591950D02*
X14877300Y-15736730D01*
X14877300Y-15736730D02*
X14877300Y-16738000D01*
X14389621Y-17225679D02*
X12161928Y-17225679D01*
X11951630Y-17165320D02*
X11891271Y-17225679D01*
X12161928Y-17225679D02*
X12101569Y-17165320D01*
X12101569Y-17165320D02*
X11951630Y-17165320D01*
X7952980Y-16870720D02*
X7952980Y-16479560D01*
X8307939Y-17225679D02*
X7952980Y-16870720D01*
X14877300Y-16738000D02*
X14389621Y-17225679D01*
X7437360Y-15580400D02*
X7526260Y-15537220D01*
X7526260Y-15537220D02*
X7526260Y-15163840D01*
X7650720Y-15946160D02*
X7650720Y-16177300D01*
X7437360Y-15679460D02*
X7650720Y-15946160D01*
X7437360Y-15580400D02*
X7437360Y-15679460D01*
G04 #@! TO.N,RX_MIX_BP*
X6919991Y-14576460D02*
X7222600Y-14576460D01*
X16921480Y-15567660D02*
X16921480Y-16708040D01*
X15605160Y-14251340D02*
X16921480Y-15567660D01*
X11920730Y-17296799D02*
X7561179Y-17296799D01*
X7262101Y-16997721D02*
X7030961Y-16997721D01*
X7222600Y-14576460D02*
X7389340Y-14409720D01*
X6781800Y-16481860D02*
X6781800Y-15619880D01*
X6921740Y-16888500D02*
X6921740Y-16621800D01*
X6693420Y-15531500D02*
X6693420Y-14803031D01*
X11981090Y-17236440D02*
X11920730Y-17296799D01*
X7030961Y-16997721D02*
X6921740Y-16888500D01*
X6781800Y-15619880D02*
X6693420Y-15531500D01*
X12072110Y-17236440D02*
X11981090Y-17236440D01*
X7561179Y-17296799D02*
X7262101Y-16997721D01*
X12132469Y-17296799D02*
X12072110Y-17236440D01*
X6921740Y-16621800D02*
X6781800Y-16481860D01*
X16332721Y-17296799D02*
X12132469Y-17296799D01*
X16921480Y-16708040D02*
X16332721Y-17296799D01*
X15443720Y-14251340D02*
X15605160Y-14251340D01*
X6693420Y-14803031D02*
X6919991Y-14576460D01*
G04 #@! TO.N,SCL*
X13553960Y-16346840D02*
X13536180Y-16364620D01*
X13409180Y-15907420D02*
X13553960Y-16052200D01*
X13553960Y-16052200D02*
X13553960Y-16346840D01*
X13800340Y-14835540D02*
X13579360Y-15056520D01*
X13863840Y-14835540D02*
X13800340Y-14835540D01*
X13386320Y-15056520D02*
X13320280Y-15122560D01*
X13579360Y-15056520D02*
X13386320Y-15056520D01*
X13272020Y-16364620D02*
X12939280Y-16697360D01*
X13536180Y-16364620D02*
X13272020Y-16364620D01*
G04 #@! TO.N,SDA*
X13728710Y-14957460D02*
X13561070Y-15125100D01*
X13561070Y-15125100D02*
X13480300Y-15125100D01*
X13767320Y-14957460D02*
X13818120Y-14906660D01*
X13767320Y-14957460D02*
X13728710Y-14957460D01*
X13279420Y-16268100D02*
X12937420Y-16610100D01*
X13482840Y-16268100D02*
X13279420Y-16268100D01*
D28*
G04 #@! TO.N,SGPIO_CLK*
X14328060Y-14063980D02*
X14328140Y-14063980D01*
X13155180Y-15008260D02*
X13383780Y-15008260D01*
X13383780Y-15008260D02*
X14328060Y-14063980D01*
D26*
G04 #@! TO.N,SSP1_MISO*
X12811872Y-13781440D02*
X12669032Y-13924280D01*
X12669032Y-13924280D02*
X11988800Y-13924280D01*
X11092192Y-13700668D02*
X11092192Y-13820152D01*
X14360819Y-13206991D02*
X14360819Y-12803888D01*
X13786370Y-13781440D02*
X14360819Y-13206991D01*
X10876280Y-13484756D02*
X11092192Y-13700668D01*
X10876280Y-13484756D02*
X10876280Y-13472160D01*
X11950700Y-13886180D02*
X11988800Y-13924280D01*
X11158220Y-13886180D02*
X11950700Y-13886180D01*
X11092192Y-13820152D02*
X11158220Y-13886180D01*
X13786370Y-13781440D02*
X12811872Y-13781440D01*
G04 #@! TO.N,SSP1_MOSI*
X10251440Y-12089280D02*
X10251440Y-12158980D01*
X10251440Y-12158980D02*
X10556240Y-12463780D01*
X10556240Y-12463780D02*
X10556240Y-13489940D01*
X10556240Y-13489940D02*
X10751820Y-13685520D01*
X9959860Y-10705500D02*
X9909060Y-10756300D01*
X9909060Y-11746900D02*
X9909060Y-10756300D01*
X9909060Y-11746900D02*
X10251440Y-12089280D01*
X12400292Y-11021582D02*
X11896250Y-10517541D01*
X10076700Y-10667400D02*
X10341370Y-10667400D01*
X10038600Y-10705500D02*
X10076700Y-10667400D01*
X9959860Y-10705500D02*
X10038600Y-10705500D01*
X12494260Y-12424817D02*
X13160004Y-13090560D01*
X13160004Y-13090560D02*
X13399528Y-13090560D01*
X13399528Y-13090560D02*
X13518654Y-12971434D01*
X12494260Y-11482587D02*
X12494260Y-12424817D01*
X12400292Y-11388619D02*
X12494260Y-11482587D01*
X12400292Y-11388619D02*
X12400292Y-11021582D01*
X10491230Y-10517541D02*
X10341370Y-10667400D01*
X11896250Y-10517541D02*
X10491230Y-10517541D01*
G04 #@! TO.N,SSP1_SCK*
X12364732Y-11403348D02*
X12458700Y-11497316D01*
X10505959Y-10553101D02*
X11881521Y-10553101D01*
X11881521Y-10553101D02*
X12364732Y-11036312D01*
X12364732Y-11403348D02*
X12364732Y-11036312D01*
X10194556Y-10864504D02*
X10111752Y-10864504D01*
X10061968Y-10814720D02*
X9974084Y-10814720D01*
X10061968Y-10814720D02*
X10111752Y-10864504D01*
X12931660Y-12912506D02*
X12458700Y-12439546D01*
X12931660Y-12999120D02*
X12931660Y-12912506D01*
X10194556Y-10864504D02*
X10505959Y-10553101D01*
X12458700Y-11497316D02*
X12458700Y-12439546D01*
X10591800Y-13425830D02*
X10591800Y-12135000D01*
X10591800Y-12135000D02*
X10455160Y-11998360D01*
X9974084Y-10884316D02*
X9974084Y-10814720D01*
X10399280Y-11876440D02*
X10455160Y-11932320D01*
X10455160Y-11932320D02*
X10455160Y-11998360D01*
X10088890Y-11876440D02*
X9944620Y-11732170D01*
X11156200Y-14200540D02*
X11156200Y-13990230D01*
X11328920Y-14373260D02*
X11156200Y-14200540D01*
X10088890Y-11876440D02*
X10399280Y-11876440D01*
X9944620Y-10913780D02*
X9944620Y-11732170D01*
X9974084Y-10884316D02*
X9944620Y-10913780D01*
X11156200Y-13990230D02*
X10591800Y-13425830D01*
G04 #@! TO.N,TXENABLE*
X12594860Y-15201300D02*
X12658361Y-15264800D01*
X12658361Y-15264800D02*
X13649459Y-15264800D01*
X13649459Y-15264800D02*
X14863579Y-14050680D01*
X11361940Y-15201300D02*
X11186680Y-15026040D01*
X10403840Y-14921380D02*
X10508500Y-15026040D01*
X10508500Y-15026040D02*
X11186680Y-15026040D01*
X10403840Y-14472920D02*
X10403840Y-14921380D01*
X14968740Y-13991750D02*
X14968740Y-13400440D01*
X14909810Y-14050680D02*
X14968740Y-13991750D01*
X14863579Y-14050680D02*
X14909810Y-14050680D01*
X14968740Y-13400440D02*
X15042400Y-13326780D01*
X11361940Y-15201300D02*
X12594860Y-15201300D01*
G04 #@! TO.N,TX_AMP*
X7794230Y-15695969D02*
X7794230Y-16107450D01*
X7846300Y-15643899D02*
X7794230Y-15695969D01*
X7794230Y-16107450D02*
X7864080Y-16177300D01*
X8095220Y-16408440D02*
X7864080Y-16177300D01*
X8445466Y-17020540D02*
X8095220Y-16670294D01*
X12057369Y-17020540D02*
X8445466Y-17020540D01*
X12954522Y-17154558D02*
X12191387Y-17154558D01*
X13218679Y-16890401D02*
X12954522Y-17154558D01*
X12191387Y-17154558D02*
X12057369Y-17020540D01*
X14145780Y-15618093D02*
X14145780Y-16707520D01*
X8095220Y-16670294D02*
X8095220Y-16408440D01*
X15273540Y-14490333D02*
X14145780Y-15618093D01*
X13962899Y-16890401D02*
X13218679Y-16890401D01*
X14145780Y-16707520D02*
X13962899Y-16890401D01*
X15273540Y-14441840D02*
X15273540Y-14490333D01*
X8006320Y-15483880D02*
X7846300Y-15643899D01*
X8008336Y-15197384D02*
X8006320Y-15483880D01*
G04 #@! TO.N,TX_MIX_BP*
X7918810Y-14676120D02*
X7344770Y-14102080D01*
X6622300Y-14773572D02*
X6622300Y-15560959D01*
X16362180Y-17367920D02*
X17190720Y-16539379D01*
X8041640Y-14676120D02*
X7918810Y-14676120D01*
X7297330Y-17367920D02*
X16362180Y-17367920D01*
X7344770Y-14102080D02*
X7106330Y-14102080D01*
X16003540Y-13758580D02*
X15688580Y-14073540D01*
X6710679Y-16517419D02*
X6850620Y-16657360D01*
X7106330Y-14102080D02*
X6929640Y-14278769D01*
X17190720Y-14516610D02*
X17111470Y-14437360D01*
X6622300Y-15560959D02*
X6710679Y-15649339D01*
X6850620Y-16921210D02*
X7297330Y-17367920D01*
X15688580Y-14073540D02*
X15453880Y-14073540D01*
X6850620Y-16657360D02*
X6850620Y-16921210D01*
X17190720Y-16539379D02*
X17190720Y-14516610D01*
X17111470Y-14437360D02*
X16804229Y-14437360D01*
X6710679Y-15649339D02*
X6710679Y-16517419D01*
X16804229Y-14437360D02*
X16125449Y-13758580D01*
X6929640Y-14278769D02*
X6929640Y-14466231D01*
X6929640Y-14466231D02*
X6622300Y-14773572D01*
X16125449Y-13758580D02*
X16003540Y-13758580D01*
G04 #@! TO.N,VAA*
X7016000Y-12801000D02*
X8413000Y-12801000D01*
X6381000Y-13436000D02*
X7016000Y-12801000D01*
D28*
G04 #@! TO.N,VCC*
X17519246Y-11050340D02*
X17255260Y-11050340D01*
X17589512Y-10980074D02*
X17519246Y-11050340D01*
X17589512Y-10753252D02*
X17589512Y-10980074D01*
D26*
G04 #@! TO.N,XCVR_EN*
X14338820Y-12717180D02*
X14470900Y-12717180D01*
X14830608Y-13076888D02*
X15003806Y-13076888D01*
X14470900Y-12717180D02*
X14830608Y-13076888D01*
X14270240Y-12785760D02*
X14338820Y-12717180D01*
X12944360Y-13677300D02*
X13002780Y-13618880D01*
X13002780Y-13618880D02*
X13368030Y-13618880D01*
X13368030Y-13618880D02*
X14201150Y-12785760D01*
X11442700Y-13558520D02*
X11182350Y-13818870D01*
X11930380Y-13558520D02*
X11442700Y-13558520D01*
X12049160Y-13677300D02*
X11930380Y-13558520D01*
X14270240Y-12785760D02*
X14201150Y-12785760D01*
X12049160Y-13677300D02*
X12944360Y-13677300D01*
G04 #@! TO.N,Net-(C163-Pad2)*
X7366240Y-15496580D02*
X7366240Y-15074940D01*
X7277340Y-15608340D02*
X7366240Y-15496580D01*
G04 #@! TO.N,Net-(J1-Pad4)*
X15506712Y-13253120D02*
X15470136Y-13289696D01*
X16185400Y-13253120D02*
X15506712Y-13253120D01*
X16530840Y-12907680D02*
X16185400Y-13253120D01*
G04 #@! TO.N,Net-(R51-Pad1)*
X17328920Y-11449120D02*
X16427660Y-11449120D01*
X16427660Y-11449120D02*
X16045700Y-11831079D01*
G04 #@! TO.N,Net-(R52-Pad2)*
X17356860Y-10958900D02*
X16744720Y-10958900D01*
X16744720Y-10958900D02*
X16622800Y-11080820D01*
X17501640Y-10814120D02*
X17356860Y-10958900D01*
G04 #@! TO.N,Net-(R62-Pad1)*
X15715500Y-12658760D02*
X15834880Y-12539380D01*
X15834880Y-12539380D02*
X15944100Y-12539380D01*
X15715500Y-13019440D02*
X15715500Y-12658760D01*
G04 #@! TO.N,Net-(C162-Pad2)*
X7881860Y-15857260D02*
X7881860Y-16070620D01*
G04 #@! TD*
D31*
G04 #@! TO.N,GND*
G36*
X17940310Y-12057810D02*
G01*
X17882068Y-12057810D01*
X17879131Y-12058099D01*
X17878547Y-12058099D01*
X17877718Y-12058186D01*
X17873914Y-12058613D01*
X17873299Y-12058674D01*
X17873255Y-12058687D01*
X17868990Y-12059165D01*
X17863695Y-12060291D01*
X17858392Y-12061341D01*
X17857596Y-12061587D01*
X17849225Y-12064243D01*
X17844251Y-12066374D01*
X17839250Y-12068436D01*
X17838517Y-12068832D01*
X17830820Y-12073063D01*
X17826353Y-12076122D01*
X17821851Y-12079113D01*
X17821209Y-12079644D01*
X17814481Y-12085290D01*
X17810696Y-12089155D01*
X17806856Y-12092968D01*
X17806330Y-12093613D01*
X17800827Y-12100458D01*
X17797864Y-12104985D01*
X17794840Y-12109469D01*
X17794448Y-12110205D01*
X17790379Y-12117988D01*
X17788352Y-12123006D01*
X17786256Y-12127992D01*
X17786015Y-12128790D01*
X17783536Y-12137215D01*
X17782522Y-12142528D01*
X17781434Y-12147828D01*
X17781353Y-12148658D01*
X17780557Y-12157404D01*
X17780595Y-12162810D01*
X17780557Y-12168224D01*
X17780638Y-12169053D01*
X17781556Y-12177788D01*
X17782644Y-12183085D01*
X17783658Y-12188402D01*
X17783899Y-12189200D01*
X17786496Y-12197589D01*
X17788594Y-12202580D01*
X17790619Y-12207592D01*
X17791010Y-12208328D01*
X17795187Y-12216053D01*
X17798213Y-12220540D01*
X17801175Y-12225066D01*
X17801702Y-12225712D01*
X17807300Y-12232479D01*
X17811139Y-12236291D01*
X17814923Y-12240156D01*
X17815566Y-12240687D01*
X17822371Y-12246238D01*
X17826880Y-12249233D01*
X17831342Y-12252288D01*
X17832075Y-12252685D01*
X17839829Y-12256808D01*
X17844832Y-12258870D01*
X17849804Y-12261001D01*
X17850600Y-12261247D01*
X17859007Y-12263785D01*
X17864315Y-12264836D01*
X17869606Y-12265961D01*
X17870435Y-12266048D01*
X17879137Y-12266901D01*
X17882068Y-12267190D01*
X17940310Y-12267190D01*
X17940310Y-12532810D01*
X17882068Y-12532810D01*
X17879131Y-12533099D01*
X17878547Y-12533099D01*
X17877718Y-12533186D01*
X17873914Y-12533613D01*
X17873299Y-12533674D01*
X17873255Y-12533687D01*
X17868990Y-12534165D01*
X17863695Y-12535291D01*
X17858392Y-12536341D01*
X17857596Y-12536587D01*
X17849225Y-12539243D01*
X17844251Y-12541374D01*
X17839250Y-12543436D01*
X17838517Y-12543832D01*
X17830820Y-12548063D01*
X17826353Y-12551122D01*
X17821851Y-12554113D01*
X17821209Y-12554644D01*
X17814481Y-12560290D01*
X17810696Y-12564155D01*
X17806856Y-12567968D01*
X17806330Y-12568613D01*
X17800827Y-12575458D01*
X17797864Y-12579985D01*
X17794840Y-12584469D01*
X17794448Y-12585205D01*
X17790379Y-12592988D01*
X17788352Y-12598006D01*
X17786256Y-12602992D01*
X17786015Y-12603790D01*
X17783536Y-12612215D01*
X17782522Y-12617528D01*
X17781434Y-12622828D01*
X17781353Y-12623658D01*
X17780557Y-12632404D01*
X17780595Y-12637810D01*
X17780557Y-12643224D01*
X17780638Y-12644053D01*
X17781556Y-12652788D01*
X17782644Y-12658085D01*
X17783658Y-12663402D01*
X17783899Y-12664200D01*
X17786496Y-12672589D01*
X17788594Y-12677580D01*
X17790619Y-12682592D01*
X17791010Y-12683328D01*
X17795187Y-12691053D01*
X17798213Y-12695540D01*
X17801175Y-12700066D01*
X17801702Y-12700712D01*
X17807300Y-12707479D01*
X17811139Y-12711291D01*
X17814923Y-12715156D01*
X17815566Y-12715687D01*
X17822371Y-12721238D01*
X17826880Y-12724233D01*
X17831342Y-12727288D01*
X17832075Y-12727685D01*
X17839829Y-12731808D01*
X17844832Y-12733870D01*
X17849804Y-12736001D01*
X17850600Y-12736247D01*
X17859007Y-12738785D01*
X17864315Y-12739836D01*
X17869606Y-12740961D01*
X17870435Y-12741048D01*
X17879137Y-12741901D01*
X17882068Y-12742190D01*
X17940310Y-12742190D01*
X17940310Y-13494760D01*
X17475240Y-13494760D01*
X17475240Y-12025240D01*
X17530000Y-12025240D01*
X17532973Y-12024947D01*
X17535832Y-12024080D01*
X17538467Y-12022672D01*
X17540776Y-12020776D01*
X17736313Y-11825240D01*
X17940310Y-11825240D01*
X17940310Y-12057810D01*
G37*
X17940310Y-12057810D02*
X17882068Y-12057810D01*
X17879131Y-12058099D01*
X17878547Y-12058099D01*
X17877718Y-12058186D01*
X17873914Y-12058613D01*
X17873299Y-12058674D01*
X17873255Y-12058687D01*
X17868990Y-12059165D01*
X17863695Y-12060291D01*
X17858392Y-12061341D01*
X17857596Y-12061587D01*
X17849225Y-12064243D01*
X17844251Y-12066374D01*
X17839250Y-12068436D01*
X17838517Y-12068832D01*
X17830820Y-12073063D01*
X17826353Y-12076122D01*
X17821851Y-12079113D01*
X17821209Y-12079644D01*
X17814481Y-12085290D01*
X17810696Y-12089155D01*
X17806856Y-12092968D01*
X17806330Y-12093613D01*
X17800827Y-12100458D01*
X17797864Y-12104985D01*
X17794840Y-12109469D01*
X17794448Y-12110205D01*
X17790379Y-12117988D01*
X17788352Y-12123006D01*
X17786256Y-12127992D01*
X17786015Y-12128790D01*
X17783536Y-12137215D01*
X17782522Y-12142528D01*
X17781434Y-12147828D01*
X17781353Y-12148658D01*
X17780557Y-12157404D01*
X17780595Y-12162810D01*
X17780557Y-12168224D01*
X17780638Y-12169053D01*
X17781556Y-12177788D01*
X17782644Y-12183085D01*
X17783658Y-12188402D01*
X17783899Y-12189200D01*
X17786496Y-12197589D01*
X17788594Y-12202580D01*
X17790619Y-12207592D01*
X17791010Y-12208328D01*
X17795187Y-12216053D01*
X17798213Y-12220540D01*
X17801175Y-12225066D01*
X17801702Y-12225712D01*
X17807300Y-12232479D01*
X17811139Y-12236291D01*
X17814923Y-12240156D01*
X17815566Y-12240687D01*
X17822371Y-12246238D01*
X17826880Y-12249233D01*
X17831342Y-12252288D01*
X17832075Y-12252685D01*
X17839829Y-12256808D01*
X17844832Y-12258870D01*
X17849804Y-12261001D01*
X17850600Y-12261247D01*
X17859007Y-12263785D01*
X17864315Y-12264836D01*
X17869606Y-12265961D01*
X17870435Y-12266048D01*
X17879137Y-12266901D01*
X17882068Y-12267190D01*
X17940310Y-12267190D01*
X17940310Y-12532810D01*
X17882068Y-12532810D01*
X17879131Y-12533099D01*
X17878547Y-12533099D01*
X17877718Y-12533186D01*
X17873914Y-12533613D01*
X17873299Y-12533674D01*
X17873255Y-12533687D01*
X17868990Y-12534165D01*
X17863695Y-12535291D01*
X17858392Y-12536341D01*
X17857596Y-12536587D01*
X17849225Y-12539243D01*
X17844251Y-12541374D01*
X17839250Y-12543436D01*
X17838517Y-12543832D01*
X17830820Y-12548063D01*
X17826353Y-12551122D01*
X17821851Y-12554113D01*
X17821209Y-12554644D01*
X17814481Y-12560290D01*
X17810696Y-12564155D01*
X17806856Y-12567968D01*
X17806330Y-12568613D01*
X17800827Y-12575458D01*
X17797864Y-12579985D01*
X17794840Y-12584469D01*
X17794448Y-12585205D01*
X17790379Y-12592988D01*
X17788352Y-12598006D01*
X17786256Y-12602992D01*
X17786015Y-12603790D01*
X17783536Y-12612215D01*
X17782522Y-12617528D01*
X17781434Y-12622828D01*
X17781353Y-12623658D01*
X17780557Y-12632404D01*
X17780595Y-12637810D01*
X17780557Y-12643224D01*
X17780638Y-12644053D01*
X17781556Y-12652788D01*
X17782644Y-12658085D01*
X17783658Y-12663402D01*
X17783899Y-12664200D01*
X17786496Y-12672589D01*
X17788594Y-12677580D01*
X17790619Y-12682592D01*
X17791010Y-12683328D01*
X17795187Y-12691053D01*
X17798213Y-12695540D01*
X17801175Y-12700066D01*
X17801702Y-12700712D01*
X17807300Y-12707479D01*
X17811139Y-12711291D01*
X17814923Y-12715156D01*
X17815566Y-12715687D01*
X17822371Y-12721238D01*
X17826880Y-12724233D01*
X17831342Y-12727288D01*
X17832075Y-12727685D01*
X17839829Y-12731808D01*
X17844832Y-12733870D01*
X17849804Y-12736001D01*
X17850600Y-12736247D01*
X17859007Y-12738785D01*
X17864315Y-12739836D01*
X17869606Y-12740961D01*
X17870435Y-12741048D01*
X17879137Y-12741901D01*
X17882068Y-12742190D01*
X17940310Y-12742190D01*
X17940310Y-13494760D01*
X17475240Y-13494760D01*
X17475240Y-12025240D01*
X17530000Y-12025240D01*
X17532973Y-12024947D01*
X17535832Y-12024080D01*
X17538467Y-12022672D01*
X17540776Y-12020776D01*
X17736313Y-11825240D01*
X17940310Y-11825240D01*
X17940310Y-12057810D01*
G04 #@! TD*
M02*
