M48
INCH,LZ
T1C0.0130
T2C0.0150
T3C0.0280
T4C0.0400
T5C0.0512
T6C0.1260
%
G90
G05
T1
X024622Y-046738
X024722Y-051898
X024722Y-053698
X024722Y-055488
X024722Y-057288
X024722Y-059088
X025032Y-046368
X025122Y-052898
X02664Y-065748
X026673Y-053937
X026673Y-056299
X026673Y-058661
X026673Y-061024
X026722Y-043088
X026722Y-048188
X027151Y-06187
X027165Y-062598
X027251Y-05963
X027611Y-06187
X027932Y-056721
X028231Y-06145
X028312Y-055851
X028346Y-052362
X028346Y-067323
X028491Y-062696
X028491Y-063385
X028651Y-06005
X028651Y-06145
X028701Y-06439
X028891Y-06558
X029001Y-05935
X029092Y-056731
X029112Y-056231
X029181Y-06439
X029221Y-06264
X029281Y-06134
X029561Y-05928
X029631Y-0597
X029701Y-06173
X029971Y-05384
X030121Y-06369
X030121Y-06479
X030331Y-05603
X030361Y-05468
X030471Y-05949
X030541Y-06138
X030541Y-06369
X03065Y-058129
X030709Y-052362
X030709Y-067323
X030731Y-06478
X030891Y-06159
X030891Y-06544
X030891Y-06649
X030961Y-06369
X031002Y-055281
X031031Y-06243
X031031Y-06327
X031171Y-0604
X031529Y-059832
X031652Y-056781
X03166Y-05778
X031752Y-053831
X031752Y-054281
X031752Y-054731
X031802Y-047498
X032152Y-056781
X032221Y-0618
X032319Y-063284
X03239Y-05822
X032431Y-05942
X032501Y-06068
X032602Y-046718
X032641Y-06222
X032702Y-055281
X032892Y-041898
X033071Y-052362
X033081Y-067323
X033232Y-040778
X033371Y-05594
X033381Y-05458
X033771Y-05673
X033802Y-043278
X033912Y-040428
X034312Y-047898
X034391Y-06642
X034391Y-06313
X034615Y-059812
X034721Y-05691
X03475Y-06156
X03492Y-06202
X034965Y-060812
X035065Y-064192
X035388Y-057555
X035433Y-052362
X035433Y-067323
X035715Y-064792
X035865Y-063692
X036081Y-05674
X03615Y-049756
X036265Y-064792
X036355Y-058922
X036355Y-059452
X036405Y-060462
X03665Y-049756
X036655Y-063712
X036755Y-059452
X036765Y-064792
X036851Y-05631
X037008Y-052854
X037111Y-06536
X037155Y-059452
X037252Y-044233
X037335Y-044801
X03738Y-049756
X037452Y-059098
X037485Y-043451
X037795Y-067323
X037805Y-058812
X037805Y-059962
X037827Y-045788
X037882Y-049758
X03796Y-047176
X038055Y-060962
X03824Y-06136
X038255Y-058962
X038255Y-060062
X038301Y-06536
X038335Y-061712
X03836Y-047176
X038427Y-044258
X038475Y-064062
X038515Y-045171
X038635Y-042401
X038682Y-043368
X0387Y-06044
X038705Y-059262
X03876Y-047176
X038765Y-042911
X038965Y-065962
X038976Y-052953
X03905Y-0642
X03916Y-047176
X039212Y-042148
X039225Y-041661
X039255Y-061412
X03926Y-06321
X039268Y-042578
X0394Y-047546
X03954Y-06096
X03956Y-046076
X03956Y-047176
X039705Y-063712
X0399Y-047546
X039945Y-042451
X040015Y-055375
X040052Y-064648
X040157Y-067323
X040335Y-046101
X040365Y-054765
X040365Y-056915
X0404Y-047176
X040412Y-041668
X040441Y-06133
X04063Y-047546
X04076Y-047136
X04081Y-046076
X04096Y-05698
X041009Y-065769
X041043Y-052854
X041055Y-055195
X041105Y-056465
X04113Y-047546
X041175Y-055555
X04124Y-05733
X041271Y-06188
X041531Y-06291
X041532Y-047228
X041541Y-06341
X04156Y-046086
X041721Y-06452
X041725Y-057475
X041725Y-058665
X041785Y-059665
X041992Y-047288
X042061Y-06539
X042065Y-045711
X04215Y-06036
X04229Y-046886
X04233Y-05388
X04233Y-05427
X042362Y-044458
X042371Y-06228
X04252Y-052362
X04252Y-067323
X042769Y-066369
X042771Y-06112
X04282Y-05304
X042855Y-059445
X042925Y-057485
X042925Y-058665
X042995Y-059885
X043105Y-061969
X043275Y-053055
X043385Y-054105
X043505Y-044071
X043505Y-044551
X043775Y-053055
X043811Y-0646
X044025Y-054405
X044065Y-059665
X044094Y-050984
X04416Y-062189
X044375Y-055305
X044375Y-056965
X044435Y-055845
X044475Y-053455
X044602Y-056588
X044725Y-055475
X044775Y-057765
X044882Y-052362
X044882Y-067323
X0449Y-04567
X044931Y-06613
X04546Y-05364
X045575Y-055065
X045585Y-055845
X0457Y-04607
X045875Y-055465
X046063Y-057087
X0461Y-04345
X0461Y-04393
X046192Y-047448
X046232Y-048048
X046442Y-050278
X0465Y-04247
X046555Y-053937
X046555Y-058661
X046555Y-061024
X046555Y-063386
X046555Y-065748
X047047Y-055512
X047052Y-064338
X04707Y-06351
X047082Y-066108
X047142Y-064828
X0473Y-04987
X04736Y-04485
X04736Y-06812
X047452Y-064058
X047462Y-047868
X047669Y-066094
X047742Y-062598
X048042Y-046878
X048042Y-048028
X048052Y-047648
X048062Y-047268
X048085Y-065354
X04824Y-06689
X04833Y-04356
X048542Y-062188
X048652Y-064148
X0487Y-04541
X048702Y-048588
X048722Y-056898
X048902Y-063418
X048952Y-062328
X04898Y-06485
X049192Y-050778
X049232Y-049848
X049485Y-065444
X049642Y-058258
X04971Y-04858
X049735Y-062744
X049792Y-058908
X049942Y-059438
X050062Y-058648
X050082Y-044088
X050102Y-043698
X050182Y-060698
X050202Y-058998
X050602Y-044328
X050672Y-044898
X050692Y-043748
X05077Y-06689
X050832Y-053108
X050892Y-044068
X05091Y-063
X050912Y-051178
X050935Y-065394
X050942Y-065738
X050972Y-053458
X050982Y-059438
X050985Y-066144
X051032Y-048608
X051082Y-044398
X051202Y-053988
X051292Y-062178
X051432Y-060738
X051432Y-063468
X0515Y-04217
X051732Y-053938
X051792Y-059088
X051802Y-067238
X051822Y-062628
X05185Y-04136
X051885Y-065594
X052052Y-051268
X052322Y-061878
X052382Y-065608
X052442Y-059538
X052532Y-057788
X052612Y-063108
X052792Y-062628
X052918Y-053945
X052961Y-056731
X053052Y-043363
X053072Y-059548
X053082Y-064048
X053223Y-051069
X053292Y-064428
X053392Y-056968
X053662Y-047208
X053662Y-063488
X053731Y-051434
X05375Y-04627
X0538Y-04677
X05395Y-04397
X054292Y-063508
X054302Y-050778
X054402Y-058688
X054412Y-048698
X054412Y-049208
X054412Y-049708
X054422Y-050198
X05458Y-052283
X054582Y-058408
X054652Y-061393
X054862Y-060058
X054887Y-061668
X054932Y-061098
X05499Y-05641
X055172Y-043868
X055642Y-057088
X055711Y-059212
X05592Y-05532
X055982Y-057118
X056112Y-061568
X056182Y-050338
X056212Y-060358
X056242Y-048924
X056332Y-058068
X056352Y-054078
X05641Y-05537
X056539Y-050409
X056546Y-059976
X056672Y-061318
X056722Y-045148
X056765Y-053336
X056912Y-057288
X057022Y-058718
X057092Y-056008
X057122Y-045578
X057122Y-053708
X057122Y-055608
X057132Y-052638
X057168Y-049737
X057252Y-051918
X057282Y-048168
X057282Y-060598
X057322Y-053118
X057442Y-059168
X057514Y-061016
X057562Y-052178
X057662Y-053078
X057712Y-048158
X057742Y-051228
X058002Y-059768
X058165Y-05055
X058186Y-049143
X058252Y-048428
X058252Y-059998
X058502Y-055668
X058522Y-048108
X058522Y-054918
X058742Y-055958
X058964Y-048677
X059062Y-052108
X05907Y-051484
X059222Y-052468
X059572Y-052538
X059636Y-049136
X059692Y-053098
X059742Y-061207
X059772Y-062808
X05988Y-06322
X060131Y-060874
X060132Y-056858
X060182Y-057578
X060512Y-057228
X060542Y-060438
X060712Y-060728
X060732Y-051929
X060762Y-056748
X060774Y-060132
X060792Y-055738
X0608Y-05846
X060802Y-056108
X060812Y-055038
X060842Y-055408
X060906Y-052322
X060979Y-061723
X06108Y-045976
X061082Y-046388
X06111Y-06321
X06117Y-0627
X061297Y-052495
X061492Y-047878
X06151Y-050656
X061632Y-061358
X061782Y-061008
X061872Y-051258
X061882Y-057258
X062042Y-053228
X062082Y-046858
X062172Y-061048
X062192Y-055788
X062342Y-045988
X062342Y-048668
X062358Y-049808
X062358Y-058647
X062591Y-056646
X062606Y-055557
X062623Y-051846
X062712Y-050162
X062772Y-049368
X062832Y-060688
X062942Y-058108
X063044Y-055288
X06315Y-055635
X063172Y-046579
X063202Y-048768
X063207Y-059495
X063348Y-052495
X063355Y-054496
X063461Y-050968
X063701Y-048583
X063737Y-057268
X063744Y-044075
X063772Y-05893
X0639Y-06191
X064051Y-04762
X06417Y-06221
X064303Y-056702
X064367Y-053588
X064472Y-059808
X064586Y-058116
X06479Y-06124
X0649Y-05485
X064994Y-044325
X065082Y-050818
X065151Y-052955
X065151Y-057551
X065328Y-051222
X065363Y-053591
X065399Y-052071
X065444Y-043625
X065594Y-044075
X065682Y-059148
X065811Y-04773
X06599Y-05891
X066142Y-052108
X06628Y-06198
X06665Y-05806
X066651Y-05031
X067144Y-041425
X067594Y-042575
X067594Y-045575
X067621Y-04622
X067934Y-043505
X067991Y-06454
X068044Y-044675
X068151Y-06282
X068224Y-045075
X068331Y-06542
X068331Y-06603
X068694Y-045075
X068894Y-043075
X068894Y-045575
X068904Y-042575
X06925Y-042336
X069324Y-043749
X049925Y-063884
X049925Y-064404
X050185Y-064144
X050445Y-063884
X050445Y-064404
X066547Y-04378
X066547Y-044371
X066744Y-044075
X066941Y-04378
X066941Y-044371
X036032Y-061679
X036032Y-062112
X036032Y-062545
X036465Y-061679
X036465Y-062112
X036465Y-062545
X036898Y-061679
X036898Y-062112
X036898Y-062545
X042184Y-055274
X042184Y-055865
X042184Y-056456
X042775Y-055274
X042775Y-055865
X042775Y-056456
X043366Y-055274
X043366Y-055865
X043366Y-056456
T2
X024614Y-061614
X024614Y-062008
X024614Y-062402
X024614Y-06437
X024614Y-064764
X024614Y-065157
X025008Y-061614
X025008Y-062008
X025008Y-062402
X025008Y-06437
X025008Y-064764
X025008Y-065157
X025402Y-061614
X025402Y-062008
X025402Y-062402
X025402Y-06437
X025402Y-064764
X025402Y-065157
X024331Y-067323
X024587Y-066713
X024587Y-067933
X025197Y-066457
X025197Y-068189
X025807Y-066713
X025807Y-067933
X026063Y-067323
X04874Y-040945
X048996Y-040335
X048996Y-041555
X049606Y-040079
X049606Y-041811
X050217Y-040335
X050217Y-041555
X050472Y-040945
X03986Y-043627
X03986Y-044276
X03986Y-044926
X04051Y-043627
X04051Y-044276
X04051Y-044926
X04116Y-043627
X04116Y-044276
X04116Y-044926
X068425Y-067323
X068681Y-066713
X068681Y-067933
X069291Y-066457
X069291Y-068189
X069902Y-066713
X069902Y-067933
X070157Y-067323
X069087Y-055315
X069087Y-055709
X069087Y-056102
X069087Y-058071
X069087Y-058465
X069087Y-058858
X06948Y-055315
X06948Y-055709
X06948Y-056102
X06948Y-058071
X06948Y-058465
X06948Y-058858
X069874Y-055315
X069874Y-055709
X069874Y-056102
X069874Y-058071
X069874Y-058465
X069874Y-058858
X069087Y-062402
X069087Y-062795
X069087Y-063189
X069087Y-065157
X069087Y-065551
X069087Y-065945
X06948Y-062402
X06948Y-062795
X06948Y-063189
X06948Y-065157
X06948Y-065551
X06948Y-065945
X069874Y-062402
X069874Y-062795
X069874Y-063189
X069874Y-065157
X069874Y-065551
X069874Y-065945
X024331Y-040945
X024587Y-040335
X024587Y-041555
X025197Y-040079
X025197Y-041811
X025807Y-040335
X025807Y-041555
X026063Y-040945
X050709Y-056693
X050965Y-056083
X050965Y-057303
X051575Y-055827
X051575Y-057559
X052185Y-056083
X052185Y-057303
X052441Y-056693
X068425Y-040945
X068681Y-040335
X068681Y-041555
X069291Y-040079
X069291Y-041811
X069902Y-040335
X069902Y-041555
X070157Y-040945
T3
X05971Y-045066
X05971Y-045566
X05971Y-046066
X05971Y-046566
X05971Y-047066
X06021Y-045066
X06021Y-045566
X06021Y-046066
X06021Y-046566
X06021Y-047066
X069201Y-047839
X069201Y-049799
T4
X057122Y-046398
X057122Y-047398
X067122Y-051398
X067122Y-052398
X067122Y-053398
X067122Y-054398
X067122Y-055398
X067122Y-056398
X067122Y-057398
X067122Y-058398
X067122Y-059398
X067122Y-060398
X067122Y-061398
X068122Y-051398
X068122Y-052398
X068122Y-053398
X068122Y-054398
X068122Y-055398
X068122Y-056398
X068122Y-057398
X068122Y-058398
X068122Y-059398
X068122Y-060398
X068122Y-061398
X033122Y-049398
X033122Y-050398
X035122Y-050398
X035122Y-051398
X036122Y-050398
X036122Y-051398
X037122Y-050398
X037122Y-051398
X038122Y-050398
X038122Y-051398
X039122Y-050398
X039122Y-051398
X040122Y-050398
X040122Y-051398
X041122Y-050398
X041122Y-051398
X042122Y-050398
X042122Y-051398
X024685Y-042972
X024685Y-044744
X054122Y-062398
X055122Y-062398
X056122Y-062398
X057122Y-062398
X058122Y-062398
X059122Y-062398
X054122Y-041398
X054122Y-042398
X055122Y-041398
X055122Y-042398
X056122Y-041398
X056122Y-042398
X057122Y-041398
X057122Y-042398
X058122Y-041398
X058122Y-042398
X059122Y-041398
X059122Y-042398
X060122Y-041398
X060122Y-042398
X061122Y-041398
X061122Y-042398
X062122Y-041398
X062122Y-042398
X063122Y-041398
X063122Y-042398
X062122Y-044398
X063122Y-044398
X070394Y-047195
X070394Y-050443
X024685Y-048091
X024685Y-049862
X051122Y-052398
X052122Y-052398
X034122Y-041398
X034122Y-042398
X035122Y-041398
X035122Y-042398
X036122Y-041398
X036122Y-042398
X054122Y-064398
X054122Y-065398
X055122Y-064398
X055122Y-065398
X056122Y-064398
X056122Y-065398
X057122Y-064398
X057122Y-065398
X058122Y-064398
X058122Y-065398
X059122Y-064398
X059122Y-065398
X060122Y-064398
X060122Y-065398
X061122Y-064398
X061122Y-065398
X062122Y-064398
X062122Y-065398
X063122Y-064398
X063122Y-065398
X064122Y-064398
X064122Y-065398
X065122Y-064398
X065122Y-065398
X066122Y-064398
X066122Y-065398
X057122Y-044398
X058122Y-044398
X048122Y-051398
X048122Y-052398
X048122Y-053398
X048122Y-054398
X048122Y-055398
X048122Y-056398
X048122Y-057398
X048122Y-058398
X048122Y-059398
X048122Y-060398
X048122Y-061398
X049122Y-051398
X049122Y-052398
X049122Y-053398
X049122Y-054398
X049122Y-055398
X049122Y-056398
X049122Y-057398
X049122Y-058398
X049122Y-059398
X049122Y-060398
X049122Y-061398
X070122Y-051398
X070122Y-052398
T5
X025665Y-042478
X025665Y-045238
X025665Y-047596
X025665Y-050356
T6
X069291Y-067323
X025197Y-040945
X051575Y-056693
X069291Y-040945
X025197Y-067323
X049606Y-040945
T0
M30
