G04 (created by PCBNEW (2012-nov-02)-stable) date Sat 15 Mar 2014 07:07:26 PM MDT*
%MOIN*%
G04 Gerber Fmt 3.4, Leading zero omitted, Abs format*
%FSLAX34Y34*%
G01*
G70*
G90*
G04 APERTURE LIST*
%ADD10C,0*%
%ADD11C,0.015*%
G04 APERTURE END LIST*
G54D10*
G54D11*
X70866Y-49931D02*
X70866Y-54622D01*
X70866Y-48061D02*
X70866Y-49576D01*
X70866Y-40944D02*
X70866Y-47706D01*
X70413Y-49576D02*
G75*
G03X70413Y-49931I0J-177D01*
G74*
G01*
X70866Y-49931D02*
X70413Y-49931D01*
X70866Y-49576D02*
X70413Y-49576D01*
X70413Y-47706D02*
G75*
G03X70413Y-48061I0J-177D01*
G74*
G01*
X70413Y-48061D02*
X70866Y-48061D01*
X70866Y-47706D02*
X70413Y-47706D01*
X23850Y-61393D02*
X23795Y-61338D01*
X23795Y-65433D02*
X23850Y-65377D01*
X23795Y-65432D02*
G75*
G03X23622Y-65850I417J-417D01*
G74*
G01*
X23850Y-65378D02*
G75*
G03X24023Y-64960I-417J417D01*
G74*
G01*
X23795Y-61338D02*
G75*
G02X23622Y-60921I417J417D01*
G74*
G01*
X23850Y-61393D02*
G75*
G02X24023Y-61811I-417J-417D01*
G74*
G01*
X70866Y-67322D02*
X70866Y-66637D01*
X70637Y-66165D02*
X70692Y-66220D01*
X70693Y-66220D02*
G75*
G02X70866Y-66637I-417J-417D01*
G74*
G01*
X70637Y-66165D02*
G75*
G02X70464Y-65748I417J417D01*
G74*
G01*
X70637Y-55094D02*
X70692Y-55039D01*
X70693Y-55039D02*
G75*
G03X70866Y-54622I-417J417D01*
G74*
G01*
X70637Y-55094D02*
G75*
G03X70464Y-55511I417J-417D01*
G74*
G01*
X23622Y-65850D02*
X23622Y-67322D01*
X23622Y-60921D02*
X23622Y-40944D01*
X24023Y-61811D02*
X24023Y-64960D01*
X70464Y-55511D02*
X70464Y-65748D01*
X69291Y-39370D02*
X25196Y-39370D01*
X25196Y-68897D02*
X69291Y-68897D01*
X69291Y-68897D02*
G75*
G03X70866Y-67322I0J1574D01*
G74*
G01*
X70866Y-40944D02*
G75*
G03X69291Y-39370I-1574J0D01*
G74*
G01*
X23622Y-67322D02*
G75*
G03X25196Y-68897I1574J0D01*
G74*
G01*
X25196Y-39370D02*
G75*
G03X23622Y-40944I0J-1574D01*
G74*
G01*
M02*
