M48
INCH,TZ
T1C0.013
T2C0.013
T3C0.014
T4C0.015
T5C0.016
T6C0.020
T7C0.025
T8C0.028
T9C0.028
T10C0.035
T11C0.039
T12C0.040
T13C0.051
T14C0.126
%
G90
G05
T1
X066547Y-044371
X066744Y-044075
T2
X027744Y-061755
X027744Y-062605
X028644Y-061705
X028834Y-063305
X028874Y-057845
X029035Y-061890
X029092Y-056731
X029112Y-056231
X029754Y-059245
X030050Y-066064
X030302Y-054621
X030352Y-055881
X030464Y-061305
X030784Y-061455
X031434Y-060765
X031660Y-057780
X031752Y-053831
X031752Y-054281
X031752Y-054731
X031972Y-066158
X033352Y-054681
X033352Y-055931
X034152Y-063008
X034750Y-061560
X034838Y-056789
X036128Y-056939
X036150Y-049756
X036650Y-049756
X037380Y-049756
X037805Y-059962
X037882Y-049758
X038240Y-061360
X038255Y-060062
X038335Y-061712
X038343Y-065364
X038700Y-060440
X038765Y-042911
X039400Y-047546
X039900Y-047546
X040335Y-046101
X040630Y-047546
X040960Y-056980
X041100Y-061650
X041105Y-056465
X041130Y-047546
X041175Y-055555
X041240Y-057330
X041607Y-066367
X042330Y-053880
X042330Y-054270
X042600Y-061280
X042820Y-053040
X044025Y-054405
X050935Y-065394
X050942Y-065738
X053662Y-047208
X054292Y-063508
X054402Y-058688
X054582Y-058408
X054652Y-061393
X054887Y-061668
X055642Y-057088
X055982Y-057118
X056352Y-054078
X056539Y-050409
X056546Y-059976
X056765Y-053336
X057092Y-056008
X057122Y-045578
X057122Y-053708
X057122Y-055608
X057132Y-052638
X057252Y-051918
X057282Y-060598
X057322Y-053118
X057442Y-059168
X057562Y-052178
X057662Y-053078
X057742Y-051228
X058002Y-059768
X058186Y-049143
X058252Y-048428
X058252Y-059998
X058502Y-055668
X058522Y-048108
X058742Y-055958
X059070Y-051484
X059572Y-052538
X059772Y-062808
X060132Y-056858
X060182Y-057578
X060512Y-057228
X060542Y-060438
X060712Y-060728
X060774Y-060132
X060792Y-055738
X060802Y-056108
X060812Y-055038
X060842Y-055408
X060906Y-052322
X061882Y-057258
X062192Y-055788
X062606Y-055557
X063044Y-055288
X063150Y-055635
X064994Y-044325
X065444Y-043625
X066547Y-043780
X066941Y-043780
X066941Y-044371
X068224Y-045075
X068904Y-042575
T3
X036032Y-061679
X036032Y-062112
X036032Y-062545
X036465Y-061679
X036465Y-062112
X036465Y-062545
X036898Y-061679
X036898Y-062112
X036898Y-062545
X049925Y-063884
X049925Y-064404
X050185Y-064144
X050445Y-063884
X050445Y-064404
T4
X024331Y-040945
X024331Y-067323
X024587Y-040335
X024587Y-041555
X024587Y-066713
X024587Y-067933
X024614Y-061614
X024614Y-062008
X024614Y-062402
X024614Y-064370
X024614Y-064764
X024614Y-065157
X025008Y-061614
X025008Y-062008
X025008Y-062402
X025008Y-064370
X025008Y-064764
X025008Y-065157
X025197Y-040079
X025197Y-041811
X025197Y-066457
X025197Y-068189
X025402Y-061614
X025402Y-062008
X025402Y-062402
X025402Y-064370
X025402Y-064764
X025402Y-065157
X025807Y-040335
X025807Y-041555
X025807Y-066713
X025807Y-067933
X026063Y-040945
X026063Y-067323
X039860Y-043627
X039860Y-044276
X039860Y-044926
X040510Y-043627
X040510Y-044276
X040510Y-044926
X041160Y-043627
X041160Y-044276
X041160Y-044926
X042184Y-055274
X042184Y-055865
X042184Y-056456
X042775Y-055274
X042775Y-055865
X042775Y-056456
X043366Y-055274
X043366Y-055865
X043366Y-056456
X048740Y-040945
X048996Y-040335
X048996Y-041555
X049606Y-040079
X049606Y-041811
X050217Y-040335
X050217Y-041555
X050472Y-040945
X050709Y-056693
X050965Y-056083
X050965Y-057303
X051575Y-055827
X051575Y-057559
X052185Y-056083
X052185Y-057303
X052441Y-056693
X068425Y-040945
X068425Y-067323
X068681Y-040335
X068681Y-041555
X068681Y-066713
X068681Y-067933
X069087Y-055315
X069087Y-055709
X069087Y-056102
X069087Y-058071
X069087Y-058465
X069087Y-058858
X069087Y-062402
X069087Y-062795
X069087Y-063189
X069087Y-065157
X069087Y-065551
X069087Y-065945
X069291Y-040079
X069291Y-041811
X069291Y-066457
X069291Y-068189
X069480Y-055315
X069480Y-055709
X069480Y-056102
X069480Y-058071
X069480Y-058465
X069480Y-058858
X069480Y-062402
X069480Y-062795
X069480Y-063189
X069480Y-065157
X069480Y-065551
X069480Y-065945
X069874Y-055315
X069874Y-055709
X069874Y-056102
X069874Y-058071
X069874Y-058465
X069874Y-058858
X069874Y-062402
X069874Y-062795
X069874Y-063189
X069874Y-065157
X069874Y-065551
X069874Y-065945
X069902Y-040335
X069902Y-041555
X069902Y-066713
X069902Y-067933
X070157Y-040945
X070157Y-067323
T5
X025032Y-046368
X036355Y-058922
X036355Y-059452
X036755Y-059452
X037155Y-059452
X037452Y-059098
X037805Y-058812
X037960Y-047176
X038255Y-058962
X038360Y-047176
X038705Y-059262
X038760Y-047176
X039020Y-064630
X039160Y-047176
X039212Y-042148
X039268Y-042578
X039560Y-046076
X039560Y-047176
X039892Y-063158
X040052Y-064648
X040400Y-047176
X040760Y-047136
X040952Y-064558
X041055Y-055195
X041532Y-047228
X041922Y-063588
X041992Y-047288
X042690Y-064830
X044375Y-055305
X044435Y-055845
X044602Y-056588
X044725Y-055475
X045460Y-053640
X046100Y-043930
X046192Y-047448
X046232Y-048048
X047360Y-068120
X047462Y-047868
X048042Y-046878
X048042Y-048028
X048052Y-047648
X048062Y-047268
X048542Y-062188
X048902Y-063418
X049232Y-049848
X049642Y-058258
X049792Y-058908
X049942Y-059438
X050062Y-058648
X050082Y-044088
X050102Y-043698
X050202Y-058998
X050602Y-044328
X050692Y-043748
X050832Y-053108
X050892Y-044068
X050912Y-051178
X050972Y-053458
X051082Y-044398
X051202Y-053988
X051792Y-059088
X052052Y-051268
X052442Y-059538
X052792Y-062628
X053072Y-059548
X053082Y-064048
X053223Y-051069
X053292Y-064428
X053622Y-063928
X053662Y-063488
X054302Y-050778
X054422Y-050198
X054990Y-056410
X055920Y-055320
X056182Y-050338
X056212Y-060358
X056332Y-058068
X056410Y-055370
X056722Y-045148
X056912Y-057288
X057022Y-058718
X057282Y-048168
X057712Y-048158
X058522Y-054918
X059062Y-052108
X059222Y-052468
X059692Y-053098
X060762Y-056748
X060800Y-058460
X061080Y-045976
X061082Y-046388
X061170Y-062700
X061492Y-047878
X061632Y-061358
X061782Y-061008
X061872Y-051258
X062042Y-053228
X062082Y-046858
X062172Y-061048
X062342Y-045988
X062342Y-048668
X062358Y-058647
X062772Y-049368
X062832Y-060688
X063202Y-048768
X063572Y-046988
X063701Y-048583
X063900Y-061910
X064170Y-062210
X064472Y-059808
X064900Y-054850
X065082Y-050818
X065682Y-059148
X065990Y-058910
X066142Y-052108
X066280Y-061980
X066650Y-058060
X067934Y-043505
X068044Y-044675
X068894Y-043075
X068894Y-045575
X069250Y-042336
T6
X028774Y-064385
X029234Y-063705
X035715Y-064792
X036765Y-064792
X037335Y-044801
X040015Y-055375
X040810Y-046076
X042855Y-059445
X042995Y-059885
X043275Y-053055
X043385Y-054105
X045575Y-055065
X045585Y-055845
X050985Y-066144
X051885Y-065594
X062591Y-056646
X063348Y-052495
T7
X024622Y-046738
X024722Y-051898
X024722Y-053698
X024722Y-055488
X024722Y-057288
X024722Y-059088
X025122Y-052898
X025822Y-064098
X026673Y-053937
X026673Y-056299
X026673Y-058661
X026673Y-061024
X026673Y-065748
X026722Y-043088
X026722Y-048188
X027165Y-062598
X027244Y-060205
X027284Y-060995
X027284Y-061825
X027342Y-058268
X027594Y-059405
X027704Y-058805
X027894Y-060875
X027932Y-056721
X028254Y-062705
X028312Y-055851
X028346Y-052362
X028346Y-067323
X028702Y-065008
X028982Y-066198
X029324Y-059245
X029344Y-058605
X029480Y-055000
X029494Y-061135
X029600Y-066064
X029650Y-064200
X029870Y-058620
X030034Y-060675
X030250Y-059450
X030604Y-062075
X030650Y-058230
X030702Y-056641
X030709Y-052362
X030709Y-067323
X031002Y-055281
X031130Y-066420
X031250Y-065514
X031652Y-056781
X031802Y-047498
X032152Y-056781
X032194Y-062335
X032244Y-060405
X032390Y-058220
X032602Y-046718
X032702Y-055281
X032892Y-041898
X032952Y-053931
X032952Y-056691
X033071Y-052362
X033071Y-067323
X033232Y-040778
X033802Y-043278
X033912Y-040428
X034048Y-056489
X034312Y-047898
X034615Y-059812
X034920Y-062020
X034965Y-060812
X035065Y-064192
X035388Y-057589
X035433Y-052362
X035433Y-067323
X035865Y-063692
X036265Y-064792
X036405Y-060462
X036488Y-055899
X036655Y-063712
X037008Y-052854
X037185Y-065412
X037252Y-044233
X037485Y-043451
X037795Y-067323
X037827Y-045788
X038055Y-060962
X038427Y-044258
X038475Y-064062
X038515Y-045171
X038635Y-042401
X038682Y-043368
X038965Y-065962
X038976Y-052953
X039050Y-064200
X039225Y-041661
X039255Y-061412
X039260Y-063210
X039540Y-060960
X039705Y-063712
X039945Y-042451
X040157Y-067323
X040160Y-060900
X040365Y-054765
X040365Y-056915
X040390Y-063240
X040412Y-041668
X041009Y-065769
X041043Y-052854
X041529Y-064429
X041560Y-046086
X041725Y-057475
X041725Y-058665
X041785Y-059665
X041874Y-062269
X042065Y-045711
X042150Y-060370
X042290Y-046886
X042362Y-044458
X042520Y-052362
X042520Y-067323
X042769Y-066369
X042925Y-057485
X042925Y-058665
X043161Y-062076
X043505Y-044071
X043505Y-044551
X043775Y-053055
X044065Y-059665
X044094Y-050984
X044160Y-062230
X044375Y-056965
X044475Y-053455
X044775Y-057765
X044882Y-052362
X044882Y-067323
X044900Y-045670
X045700Y-046070
X045875Y-055465
X046063Y-057087
X046100Y-043450
X046442Y-050278
X046500Y-042470
X046555Y-053937
X046555Y-058661
X046555Y-061024
X046555Y-063386
X046555Y-065748
X047047Y-055512
X047052Y-064338
X047070Y-063510
X047082Y-066108
X047142Y-064828
X047300Y-049870
X047360Y-044850
X047452Y-064058
X047669Y-066094
X047742Y-062598
X048085Y-065354
X048240Y-066890
X048330Y-043560
X048652Y-064148
X048700Y-045410
X048702Y-048588
X048722Y-056898
X048952Y-062328
X048980Y-064850
X049192Y-050778
X049485Y-065444
X049710Y-048580
X049735Y-062744
X050182Y-060698
X050672Y-044898
X050770Y-066890
X050910Y-063000
X050982Y-059438
X051032Y-048608
X051292Y-062178
X051432Y-060738
X051432Y-063468
X051500Y-042170
X051732Y-053938
X051802Y-067238
X051822Y-062628
X051850Y-041360
X052322Y-061878
X052382Y-065608
X052532Y-057788
X052612Y-063108
X052918Y-053945
X052961Y-056731
X053052Y-043363
X053392Y-056968
X053731Y-051434
X053750Y-046270
X053800Y-046770
X053950Y-043970
X054412Y-048698
X054412Y-049208
X054412Y-049708
X054580Y-052283
X054862Y-060058
X054932Y-061098
X055172Y-043868
X055711Y-059212
X056112Y-061568
X056242Y-048924
X056672Y-061318
X057168Y-049737
X057514Y-061016
X058165Y-050550
X058964Y-048677
X059636Y-049136
X059742Y-061207
X059880Y-063220
X060131Y-060874
X060732Y-051929
X060979Y-061723
X061110Y-063210
X061297Y-052495
X061510Y-050656
X062358Y-049808
X062623Y-051846
X062712Y-050162
X062942Y-058108
X063207Y-059495
X063355Y-054496
X063461Y-050968
X063737Y-057268
X063744Y-044075
X063772Y-058930
X064303Y-056702
X064367Y-053588
X064586Y-058116
X064790Y-061240
X065072Y-047368
X065151Y-052955
X065151Y-057551
X065328Y-051222
X065363Y-053591
X065399Y-052071
X065594Y-044075
X066112Y-049163
X066302Y-050318
X066372Y-048048
X067144Y-041425
X067144Y-046725
X067594Y-042575
X067594Y-045575
X067776Y-049163
X068122Y-065718
X068694Y-045075
X068898Y-046969
X069324Y-043749
X069372Y-059848
T8
X069201Y-047839
X069201Y-049799
T9
X059710Y-045066
X059710Y-045566
X059710Y-046066
X059710Y-046566
X059710Y-047066
X060210Y-045066
X060210Y-045566
X060210Y-046066
X060210Y-046566
X060210Y-047066
T10
X070394Y-047195
X070394Y-050443
T11
X024685Y-042972
X024685Y-044744
X024685Y-048091
X024685Y-049862
T12
X033122Y-049398
X033122Y-050398
X034122Y-041398
X034122Y-042398
X035122Y-041398
X035122Y-042398
X035122Y-050398
X035122Y-051398
X036122Y-041398
X036122Y-042398
X036122Y-050398
X036122Y-051398
X037122Y-050398
X037122Y-051398
X038122Y-050398
X038122Y-051398
X039122Y-050398
X039122Y-051398
X040122Y-050398
X040122Y-051398
X041122Y-050398
X041122Y-051398
X042122Y-050398
X042122Y-051398
X048122Y-051398
X048122Y-052398
X048122Y-053398
X048122Y-054398
X048122Y-055398
X048122Y-056398
X048122Y-057398
X048122Y-058398
X048122Y-059398
X048122Y-060398
X048122Y-061398
X049122Y-051398
X049122Y-052398
X049122Y-053398
X049122Y-054398
X049122Y-055398
X049122Y-056398
X049122Y-057398
X049122Y-058398
X049122Y-059398
X049122Y-060398
X049122Y-061398
X051122Y-052398
X052122Y-052398
X054122Y-041398
X054122Y-042398
X054122Y-062398
X054122Y-064398
X054122Y-065398
X055122Y-041398
X055122Y-042398
X055122Y-062398
X055122Y-064398
X055122Y-065398
X056122Y-041398
X056122Y-042398
X056122Y-062398
X056122Y-064398
X056122Y-065398
X057122Y-041398
X057122Y-042398
X057122Y-044398
X057122Y-046398
X057122Y-047398
X057122Y-062398
X057122Y-064398
X057122Y-065398
X058122Y-041398
X058122Y-042398
X058122Y-044398
X058122Y-062398
X058122Y-064398
X058122Y-065398
X059122Y-041398
X059122Y-042398
X059122Y-062398
X059122Y-064398
X059122Y-065398
X060122Y-041398
X060122Y-042398
X060122Y-064398
X060122Y-065398
X061122Y-041398
X061122Y-042398
X061122Y-064398
X061122Y-065398
X062122Y-041398
X062122Y-042398
X062122Y-044398
X062122Y-064398
X062122Y-065398
X063122Y-041398
X063122Y-042398
X063122Y-044398
X063122Y-064398
X063122Y-065398
X064122Y-064398
X064122Y-065398
X065122Y-064398
X065122Y-065398
X066122Y-064398
X066122Y-065398
X067122Y-051398
X067122Y-052398
X067122Y-053398
X067122Y-054398
X067122Y-055398
X067122Y-056398
X067122Y-057398
X067122Y-058398
X067122Y-059398
X067122Y-060398
X067122Y-061398
X068122Y-051398
X068122Y-052398
X068122Y-053398
X068122Y-054398
X068122Y-055398
X068122Y-056398
X068122Y-057398
X068122Y-058398
X068122Y-059398
X068122Y-060398
X068122Y-061398
X070122Y-051398
X070122Y-052398
T13
X025665Y-042478
X025665Y-045238
X025665Y-047596
X025665Y-050356
T14
X025197Y-040945
X025197Y-067323
X049606Y-040945
X051575Y-056693
X069291Y-040945
X069291Y-067323
T0
M30
