G04 (created by PCBNEW (2012-nov-02)-stable) date Sat 15 Mar 2014 07:07:26 PM MDT*
%MOIN*%
G04 Gerber Fmt 3.4, Leading zero omitted, Abs format*
%FSLAX34Y34*%
G01*
G70*
G90*
G04 APERTURE LIST*
%ADD10C,0*%
%ADD11C,0.008*%
%ADD12C,0.012*%
%ADD13C,0.0075*%
%ADD14C,0.006*%
%ADD15C,0.024*%
%ADD16C,0.015*%
%ADD17C,0.005*%
%ADD18C,0.004*%
%ADD19C,0.0047*%
%ADD20C,0.007*%
%ADD21C,0.01*%
G04 APERTURE END LIST*
G54D10*
G54D11*
X49370Y-65039D02*
G75*
G03X49370Y-65039I-78J0D01*
G74*
G01*
X37637Y-61023D02*
G75*
G03X37637Y-61023I-78J0D01*
G74*
G01*
X41574Y-57165D02*
G75*
G03X41574Y-57165I-78J0D01*
G74*
G01*
X39133Y-45748D02*
G75*
G03X39133Y-45748I-78J0D01*
G74*
G01*
G54D12*
X31305Y-47633D02*
X31305Y-47919D01*
X31305Y-47776D02*
X30605Y-47776D01*
X30705Y-47823D01*
X30772Y-47871D01*
X30805Y-47919D01*
X30605Y-47466D02*
X30605Y-47157D01*
X30872Y-47323D01*
X30872Y-47252D01*
X30905Y-47204D01*
X30938Y-47180D01*
X31005Y-47157D01*
X31172Y-47157D01*
X31238Y-47180D01*
X31272Y-47204D01*
X31305Y-47252D01*
X31305Y-47395D01*
X31272Y-47442D01*
X31238Y-47466D01*
X30938Y-46395D02*
X30938Y-46561D01*
X31305Y-46561D02*
X30605Y-46561D01*
X30605Y-46323D01*
X31272Y-45942D02*
X31305Y-45990D01*
X31305Y-46085D01*
X31272Y-46133D01*
X31205Y-46157D01*
X30938Y-46157D01*
X30872Y-46133D01*
X30838Y-46085D01*
X30838Y-45990D01*
X30872Y-45942D01*
X30938Y-45919D01*
X31005Y-45919D01*
X31072Y-46157D01*
X31305Y-45704D02*
X30605Y-45704D01*
X30872Y-45704D02*
X30838Y-45657D01*
X30838Y-45561D01*
X30872Y-45514D01*
X30905Y-45490D01*
X30972Y-45466D01*
X31172Y-45466D01*
X31238Y-45490D01*
X31272Y-45514D01*
X31305Y-45561D01*
X31305Y-45657D01*
X31272Y-45704D01*
X31305Y-45252D02*
X30838Y-45252D01*
X30972Y-45252D02*
X30905Y-45228D01*
X30872Y-45204D01*
X30838Y-45157D01*
X30838Y-45109D01*
X30838Y-44728D02*
X31305Y-44728D01*
X30838Y-44942D02*
X31205Y-44942D01*
X31272Y-44919D01*
X31305Y-44871D01*
X31305Y-44800D01*
X31272Y-44752D01*
X31238Y-44728D01*
X31305Y-44276D02*
X30938Y-44276D01*
X30872Y-44300D01*
X30838Y-44347D01*
X30838Y-44442D01*
X30872Y-44490D01*
X31272Y-44276D02*
X31305Y-44323D01*
X31305Y-44442D01*
X31272Y-44490D01*
X31205Y-44514D01*
X31138Y-44514D01*
X31072Y-44490D01*
X31038Y-44442D01*
X31038Y-44323D01*
X31005Y-44276D01*
X31305Y-44038D02*
X30838Y-44038D01*
X30972Y-44038D02*
X30905Y-44014D01*
X30872Y-43990D01*
X30838Y-43942D01*
X30838Y-43895D01*
X30838Y-43776D02*
X31305Y-43657D01*
X30838Y-43538D02*
X31305Y-43657D01*
X31472Y-43704D01*
X31505Y-43728D01*
X31538Y-43776D01*
X30672Y-42990D02*
X30638Y-42966D01*
X30605Y-42919D01*
X30605Y-42800D01*
X30638Y-42752D01*
X30672Y-42728D01*
X30738Y-42704D01*
X30805Y-42704D01*
X30905Y-42728D01*
X31305Y-43014D01*
X31305Y-42704D01*
X30605Y-42395D02*
X30605Y-42347D01*
X30638Y-42300D01*
X30672Y-42276D01*
X30738Y-42252D01*
X30872Y-42228D01*
X31038Y-42228D01*
X31172Y-42252D01*
X31238Y-42276D01*
X31272Y-42300D01*
X31305Y-42347D01*
X31305Y-42395D01*
X31272Y-42442D01*
X31238Y-42466D01*
X31172Y-42490D01*
X31038Y-42514D01*
X30872Y-42514D01*
X30738Y-42490D01*
X30672Y-42466D01*
X30638Y-42442D01*
X30605Y-42395D01*
X31305Y-41752D02*
X31305Y-42038D01*
X31305Y-41895D02*
X30605Y-41895D01*
X30705Y-41942D01*
X30772Y-41990D01*
X30805Y-42038D01*
X30838Y-41323D02*
X31305Y-41323D01*
X30572Y-41442D02*
X31072Y-41561D01*
X31072Y-41252D01*
G54D13*
X38400Y-49559D02*
X38400Y-49159D01*
X38514Y-49159D01*
X38543Y-49178D01*
X38557Y-49197D01*
X38572Y-49235D01*
X38572Y-49292D01*
X38557Y-49330D01*
X38543Y-49350D01*
X38514Y-49369D01*
X38400Y-49369D01*
X38714Y-49559D02*
X38772Y-49559D01*
X38800Y-49540D01*
X38814Y-49521D01*
X38843Y-49464D01*
X38857Y-49388D01*
X38857Y-49235D01*
X38843Y-49197D01*
X38829Y-49178D01*
X38800Y-49159D01*
X38743Y-49159D01*
X38714Y-49178D01*
X38700Y-49197D01*
X38686Y-49235D01*
X38686Y-49330D01*
X38700Y-49369D01*
X38714Y-49388D01*
X38743Y-49407D01*
X38800Y-49407D01*
X38829Y-49388D01*
X38843Y-49369D01*
X38857Y-49330D01*
X45789Y-50709D02*
X45789Y-50995D01*
X45774Y-51052D01*
X45746Y-51090D01*
X45703Y-51109D01*
X45674Y-51109D01*
X46089Y-51109D02*
X45917Y-51109D01*
X46003Y-51109D02*
X46003Y-50709D01*
X45974Y-50766D01*
X45946Y-50804D01*
X45917Y-50823D01*
X46274Y-50709D02*
X46303Y-50709D01*
X46332Y-50728D01*
X46346Y-50747D01*
X46360Y-50785D01*
X46374Y-50861D01*
X46374Y-50957D01*
X46360Y-51033D01*
X46346Y-51071D01*
X46332Y-51090D01*
X46303Y-51109D01*
X46274Y-51109D01*
X46246Y-51090D01*
X46232Y-51071D01*
X46217Y-51033D01*
X46203Y-50957D01*
X46203Y-50861D01*
X46217Y-50785D01*
X46232Y-50747D01*
X46246Y-50728D01*
X46274Y-50709D01*
X45803Y-51363D02*
X45774Y-51344D01*
X45732Y-51344D01*
X45689Y-51363D01*
X45660Y-51401D01*
X45646Y-51439D01*
X45632Y-51515D01*
X45632Y-51573D01*
X45646Y-51649D01*
X45660Y-51687D01*
X45689Y-51725D01*
X45732Y-51744D01*
X45760Y-51744D01*
X45803Y-51725D01*
X45817Y-51706D01*
X45817Y-51573D01*
X45760Y-51573D01*
X45946Y-51744D02*
X45946Y-51344D01*
X46117Y-51744D01*
X46117Y-51344D01*
X46260Y-51744D02*
X46260Y-51344D01*
X46332Y-51344D01*
X46374Y-51363D01*
X46403Y-51401D01*
X46417Y-51439D01*
X46432Y-51515D01*
X46432Y-51573D01*
X46417Y-51649D01*
X46403Y-51687D01*
X46374Y-51725D01*
X46332Y-51744D01*
X46260Y-51744D01*
X69393Y-53184D02*
X68993Y-53184D01*
X68993Y-53070D01*
X69012Y-53041D01*
X69032Y-53027D01*
X69070Y-53013D01*
X69127Y-53013D01*
X69165Y-53027D01*
X69184Y-53041D01*
X69203Y-53070D01*
X69203Y-53184D01*
X69165Y-52841D02*
X69146Y-52870D01*
X69127Y-52884D01*
X69089Y-52899D01*
X69070Y-52899D01*
X69032Y-52884D01*
X69012Y-52870D01*
X68993Y-52841D01*
X68993Y-52784D01*
X69012Y-52756D01*
X69032Y-52741D01*
X69070Y-52727D01*
X69089Y-52727D01*
X69127Y-52741D01*
X69146Y-52756D01*
X69165Y-52784D01*
X69165Y-52841D01*
X69184Y-52870D01*
X69203Y-52884D01*
X69241Y-52899D01*
X69317Y-52899D01*
X69355Y-52884D01*
X69374Y-52870D01*
X69393Y-52841D01*
X69393Y-52784D01*
X69374Y-52756D01*
X69355Y-52741D01*
X69317Y-52727D01*
X69241Y-52727D01*
X69203Y-52741D01*
X69184Y-52756D01*
X69165Y-52784D01*
X68993Y-52541D02*
X68993Y-52513D01*
X69012Y-52484D01*
X69032Y-52470D01*
X69070Y-52456D01*
X69146Y-52441D01*
X69241Y-52441D01*
X69317Y-52456D01*
X69355Y-52470D01*
X69374Y-52484D01*
X69393Y-52513D01*
X69393Y-52541D01*
X69374Y-52570D01*
X69355Y-52584D01*
X69317Y-52599D01*
X69241Y-52613D01*
X69146Y-52613D01*
X69070Y-52599D01*
X69032Y-52584D01*
X69012Y-52570D01*
X68993Y-52541D01*
X69374Y-52099D02*
X69393Y-52056D01*
X69393Y-51984D01*
X69374Y-51956D01*
X69355Y-51941D01*
X69317Y-51927D01*
X69279Y-51927D01*
X69241Y-51941D01*
X69222Y-51956D01*
X69203Y-51984D01*
X69184Y-52041D01*
X69165Y-52070D01*
X69146Y-52084D01*
X69108Y-52099D01*
X69070Y-52099D01*
X69032Y-52084D01*
X69012Y-52070D01*
X68993Y-52041D01*
X68993Y-51970D01*
X69012Y-51927D01*
X69393Y-51799D02*
X68993Y-51799D01*
X69184Y-51799D02*
X69184Y-51627D01*
X69393Y-51627D02*
X68993Y-51627D01*
X69393Y-51484D02*
X68993Y-51484D01*
X69184Y-51341D02*
X69184Y-51241D01*
X69393Y-51199D02*
X69393Y-51341D01*
X68993Y-51341D01*
X68993Y-51199D01*
X69393Y-50927D02*
X69393Y-51070D01*
X68993Y-51070D01*
X69393Y-50827D02*
X68993Y-50827D01*
X68993Y-50756D01*
X69012Y-50713D01*
X69051Y-50684D01*
X69089Y-50670D01*
X69165Y-50656D01*
X69222Y-50656D01*
X69298Y-50670D01*
X69336Y-50684D01*
X69374Y-50713D01*
X69393Y-50756D01*
X69393Y-50827D01*
X34900Y-43589D02*
X34900Y-43189D01*
X35014Y-43189D01*
X35043Y-43208D01*
X35057Y-43227D01*
X35072Y-43265D01*
X35072Y-43322D01*
X35057Y-43360D01*
X35043Y-43380D01*
X35014Y-43399D01*
X34900Y-43399D01*
X35343Y-43189D02*
X35200Y-43189D01*
X35186Y-43380D01*
X35200Y-43360D01*
X35229Y-43341D01*
X35300Y-43341D01*
X35329Y-43360D01*
X35343Y-43380D01*
X35357Y-43418D01*
X35357Y-43513D01*
X35343Y-43551D01*
X35329Y-43570D01*
X35300Y-43589D01*
X35229Y-43589D01*
X35200Y-43570D01*
X35186Y-43551D01*
X26421Y-44293D02*
X26231Y-44393D01*
X26421Y-44465D02*
X26021Y-44465D01*
X26021Y-44351D01*
X26040Y-44322D01*
X26059Y-44308D01*
X26097Y-44293D01*
X26155Y-44293D01*
X26193Y-44308D01*
X26212Y-44322D01*
X26231Y-44351D01*
X26231Y-44465D01*
X26212Y-44165D02*
X26212Y-44065D01*
X26421Y-44022D02*
X26421Y-44165D01*
X26021Y-44165D01*
X26021Y-44022D01*
X26402Y-43908D02*
X26421Y-43865D01*
X26421Y-43793D01*
X26402Y-43765D01*
X26383Y-43751D01*
X26345Y-43736D01*
X26307Y-43736D01*
X26269Y-43751D01*
X26250Y-43765D01*
X26231Y-43793D01*
X26212Y-43851D01*
X26193Y-43879D01*
X26174Y-43893D01*
X26136Y-43908D01*
X26097Y-43908D01*
X26059Y-43893D01*
X26040Y-43879D01*
X26021Y-43851D01*
X26021Y-43779D01*
X26040Y-43736D01*
X26212Y-43608D02*
X26212Y-43508D01*
X26421Y-43465D02*
X26421Y-43608D01*
X26021Y-43608D01*
X26021Y-43465D01*
X26021Y-43379D02*
X26021Y-43208D01*
X26421Y-43293D02*
X26021Y-43293D01*
X26421Y-49340D02*
X26021Y-49340D01*
X26021Y-49269D01*
X26040Y-49226D01*
X26078Y-49197D01*
X26116Y-49183D01*
X26193Y-49169D01*
X26250Y-49169D01*
X26326Y-49183D01*
X26364Y-49197D01*
X26402Y-49226D01*
X26421Y-49269D01*
X26421Y-49340D01*
X26212Y-48940D02*
X26212Y-49040D01*
X26421Y-49040D02*
X26021Y-49040D01*
X26021Y-48897D01*
X26021Y-48783D02*
X26345Y-48783D01*
X26383Y-48769D01*
X26402Y-48754D01*
X26421Y-48726D01*
X26421Y-48669D01*
X26402Y-48640D01*
X26383Y-48626D01*
X26345Y-48612D01*
X26021Y-48612D01*
G54D14*
X27623Y-45044D02*
X27623Y-44873D01*
X27923Y-44959D02*
X27623Y-44959D01*
X27923Y-44773D02*
X27623Y-44773D01*
X27837Y-44673D01*
X27623Y-44573D01*
X27923Y-44573D01*
G54D13*
X25783Y-53433D02*
X25593Y-53533D01*
X25783Y-53604D02*
X25383Y-53604D01*
X25383Y-53490D01*
X25402Y-53461D01*
X25422Y-53447D01*
X25460Y-53433D01*
X25517Y-53433D01*
X25555Y-53447D01*
X25574Y-53461D01*
X25593Y-53490D01*
X25593Y-53604D01*
X25574Y-53204D02*
X25574Y-53304D01*
X25783Y-53304D02*
X25383Y-53304D01*
X25383Y-53161D01*
G54D15*
X29769Y-51440D02*
X28169Y-51440D01*
X28931Y-51440D02*
X28931Y-50754D01*
X29769Y-50754D02*
X28169Y-50754D01*
X29769Y-49669D02*
X28931Y-49669D01*
X28779Y-49726D01*
X28702Y-49840D01*
X28702Y-50069D01*
X28779Y-50183D01*
X29693Y-49669D02*
X29769Y-49783D01*
X29769Y-50069D01*
X29693Y-50183D01*
X29541Y-50240D01*
X29388Y-50240D01*
X29236Y-50183D01*
X29160Y-50069D01*
X29160Y-49783D01*
X29083Y-49669D01*
X29693Y-48583D02*
X29769Y-48697D01*
X29769Y-48926D01*
X29693Y-49040D01*
X29617Y-49097D01*
X29464Y-49154D01*
X29007Y-49154D01*
X28855Y-49097D01*
X28779Y-49040D01*
X28702Y-48926D01*
X28702Y-48697D01*
X28779Y-48583D01*
X29769Y-48069D02*
X28169Y-48069D01*
X29160Y-47954D02*
X29769Y-47611D01*
X28702Y-47611D02*
X29312Y-48069D01*
X29769Y-46411D02*
X29007Y-46811D01*
X29769Y-47097D02*
X28169Y-47097D01*
X28169Y-46640D01*
X28245Y-46526D01*
X28322Y-46469D01*
X28474Y-46411D01*
X28702Y-46411D01*
X28855Y-46469D01*
X28931Y-46526D01*
X29007Y-46640D01*
X29007Y-47097D01*
X28931Y-45497D02*
X28931Y-45897D01*
X29769Y-45897D02*
X28169Y-45897D01*
X28169Y-45326D01*
X28169Y-43726D02*
X28169Y-43497D01*
X28245Y-43383D01*
X28398Y-43269D01*
X28702Y-43211D01*
X29236Y-43211D01*
X29541Y-43269D01*
X29693Y-43383D01*
X29769Y-43497D01*
X29769Y-43726D01*
X29693Y-43840D01*
X29541Y-43954D01*
X29236Y-44011D01*
X28702Y-44011D01*
X28398Y-43954D01*
X28245Y-43840D01*
X28169Y-43726D01*
X28702Y-42697D02*
X29769Y-42697D01*
X28855Y-42697D02*
X28779Y-42640D01*
X28702Y-42526D01*
X28702Y-42354D01*
X28779Y-42240D01*
X28931Y-42183D01*
X29769Y-42183D01*
X29693Y-41154D02*
X29769Y-41269D01*
X29769Y-41497D01*
X29693Y-41611D01*
X29541Y-41669D01*
X28931Y-41669D01*
X28779Y-41611D01*
X28702Y-41497D01*
X28702Y-41269D01*
X28779Y-41154D01*
X28931Y-41097D01*
X29083Y-41097D01*
X29236Y-41669D01*
G54D11*
X59030Y-45110D02*
X58430Y-45110D01*
X59030Y-45110D02*
X58830Y-45310D01*
X59030Y-45110D02*
X58830Y-44910D01*
G54D13*
X25783Y-51683D02*
X25783Y-51854D01*
X25783Y-51769D02*
X25383Y-51769D01*
X25441Y-51797D01*
X25479Y-51826D01*
X25498Y-51854D01*
X25383Y-51597D02*
X25783Y-51497D01*
X25383Y-51397D01*
X25555Y-51254D02*
X25536Y-51283D01*
X25517Y-51297D01*
X25479Y-51311D01*
X25460Y-51311D01*
X25422Y-51297D01*
X25402Y-51283D01*
X25383Y-51254D01*
X25383Y-51197D01*
X25402Y-51169D01*
X25422Y-51154D01*
X25460Y-51140D01*
X25479Y-51140D01*
X25517Y-51154D01*
X25536Y-51169D01*
X25555Y-51197D01*
X25555Y-51254D01*
X25574Y-51283D01*
X25593Y-51297D01*
X25631Y-51311D01*
X25707Y-51311D01*
X25745Y-51297D01*
X25764Y-51283D01*
X25783Y-51254D01*
X25783Y-51197D01*
X25764Y-51169D01*
X25745Y-51154D01*
X25707Y-51140D01*
X25631Y-51140D01*
X25593Y-51154D01*
X25574Y-51169D01*
X25555Y-51197D01*
X25383Y-46769D02*
X25383Y-46583D01*
X25536Y-46683D01*
X25536Y-46640D01*
X25555Y-46611D01*
X25574Y-46597D01*
X25612Y-46583D01*
X25707Y-46583D01*
X25745Y-46597D01*
X25764Y-46611D01*
X25783Y-46640D01*
X25783Y-46726D01*
X25764Y-46754D01*
X25745Y-46769D01*
X25383Y-46497D02*
X25783Y-46397D01*
X25383Y-46297D01*
X25383Y-46226D02*
X25383Y-46040D01*
X25536Y-46140D01*
X25536Y-46097D01*
X25555Y-46069D01*
X25574Y-46054D01*
X25612Y-46040D01*
X25707Y-46040D01*
X25745Y-46054D01*
X25764Y-46069D01*
X25783Y-46097D01*
X25783Y-46183D01*
X25764Y-46211D01*
X25745Y-46226D01*
X25383Y-55476D02*
X25707Y-55476D01*
X25745Y-55461D01*
X25764Y-55447D01*
X25783Y-55419D01*
X25783Y-55361D01*
X25764Y-55333D01*
X25745Y-55319D01*
X25707Y-55304D01*
X25383Y-55304D01*
X25764Y-55176D02*
X25783Y-55133D01*
X25783Y-55061D01*
X25764Y-55033D01*
X25745Y-55019D01*
X25707Y-55004D01*
X25669Y-55004D01*
X25631Y-55019D01*
X25612Y-55033D01*
X25593Y-55061D01*
X25574Y-55119D01*
X25555Y-55147D01*
X25536Y-55161D01*
X25498Y-55176D01*
X25460Y-55176D01*
X25422Y-55161D01*
X25402Y-55147D01*
X25383Y-55119D01*
X25383Y-55047D01*
X25402Y-55004D01*
X25574Y-54776D02*
X25593Y-54733D01*
X25612Y-54719D01*
X25650Y-54704D01*
X25707Y-54704D01*
X25745Y-54719D01*
X25764Y-54733D01*
X25783Y-54761D01*
X25783Y-54876D01*
X25383Y-54876D01*
X25383Y-54776D01*
X25402Y-54747D01*
X25422Y-54733D01*
X25460Y-54719D01*
X25498Y-54719D01*
X25536Y-54733D01*
X25555Y-54747D01*
X25574Y-54776D01*
X25574Y-54876D01*
X25783Y-56947D02*
X25593Y-57047D01*
X25783Y-57119D02*
X25383Y-57119D01*
X25383Y-57004D01*
X25402Y-56976D01*
X25422Y-56961D01*
X25460Y-56947D01*
X25517Y-56947D01*
X25555Y-56961D01*
X25574Y-56976D01*
X25593Y-57004D01*
X25593Y-57119D01*
X25383Y-56847D02*
X25783Y-56647D01*
X25383Y-56647D02*
X25783Y-56847D01*
X25383Y-58926D02*
X25383Y-58754D01*
X25783Y-58840D02*
X25383Y-58840D01*
X25383Y-58683D02*
X25783Y-58483D01*
X25383Y-58483D02*
X25783Y-58683D01*
X55565Y-44098D02*
X55565Y-43698D01*
X55680Y-43698D01*
X55708Y-43717D01*
X55723Y-43737D01*
X55737Y-43775D01*
X55737Y-43832D01*
X55723Y-43870D01*
X55708Y-43889D01*
X55680Y-43908D01*
X55565Y-43908D01*
X56023Y-44098D02*
X55851Y-44098D01*
X55937Y-44098D02*
X55937Y-43698D01*
X55908Y-43756D01*
X55880Y-43794D01*
X55851Y-43813D01*
X55601Y-44733D02*
X55430Y-44733D01*
X55515Y-44733D02*
X55515Y-44333D01*
X55487Y-44391D01*
X55458Y-44429D01*
X55430Y-44448D01*
X55687Y-44333D02*
X55787Y-44733D01*
X55887Y-44333D01*
X56030Y-44505D02*
X56001Y-44486D01*
X55987Y-44467D01*
X55973Y-44429D01*
X55973Y-44410D01*
X55987Y-44372D01*
X56001Y-44352D01*
X56030Y-44333D01*
X56087Y-44333D01*
X56115Y-44352D01*
X56130Y-44372D01*
X56144Y-44410D01*
X56144Y-44429D01*
X56130Y-44467D01*
X56115Y-44486D01*
X56087Y-44505D01*
X56030Y-44505D01*
X56001Y-44524D01*
X55987Y-44543D01*
X55973Y-44581D01*
X55973Y-44657D01*
X55987Y-44695D01*
X56001Y-44714D01*
X56030Y-44733D01*
X56087Y-44733D01*
X56115Y-44714D01*
X56130Y-44695D01*
X56144Y-44657D01*
X56144Y-44581D01*
X56130Y-44543D01*
X56115Y-44524D01*
X56087Y-44505D01*
X60510Y-43859D02*
X60510Y-43459D01*
X60624Y-43459D01*
X60653Y-43478D01*
X60667Y-43497D01*
X60682Y-43535D01*
X60682Y-43592D01*
X60667Y-43630D01*
X60653Y-43650D01*
X60624Y-43669D01*
X60510Y-43669D01*
X60853Y-43630D02*
X60824Y-43611D01*
X60810Y-43592D01*
X60796Y-43554D01*
X60796Y-43535D01*
X60810Y-43497D01*
X60824Y-43478D01*
X60853Y-43459D01*
X60910Y-43459D01*
X60939Y-43478D01*
X60953Y-43497D01*
X60967Y-43535D01*
X60967Y-43554D01*
X60953Y-43592D01*
X60939Y-43611D01*
X60910Y-43630D01*
X60853Y-43630D01*
X60824Y-43650D01*
X60810Y-43669D01*
X60796Y-43707D01*
X60796Y-43783D01*
X60810Y-43821D01*
X60824Y-43840D01*
X60853Y-43859D01*
X60910Y-43859D01*
X60939Y-43840D01*
X60953Y-43821D01*
X60967Y-43783D01*
X60967Y-43707D01*
X60953Y-43669D01*
X60939Y-43650D01*
X60910Y-43630D01*
X60332Y-44094D02*
X60432Y-44494D01*
X60532Y-44094D01*
X60803Y-44456D02*
X60789Y-44475D01*
X60746Y-44494D01*
X60717Y-44494D01*
X60674Y-44475D01*
X60646Y-44437D01*
X60632Y-44399D01*
X60617Y-44323D01*
X60617Y-44265D01*
X60632Y-44189D01*
X60646Y-44151D01*
X60674Y-44113D01*
X60717Y-44094D01*
X60746Y-44094D01*
X60789Y-44113D01*
X60803Y-44132D01*
X61103Y-44456D02*
X61089Y-44475D01*
X61046Y-44494D01*
X61017Y-44494D01*
X60974Y-44475D01*
X60946Y-44437D01*
X60932Y-44399D01*
X60917Y-44323D01*
X60917Y-44265D01*
X60932Y-44189D01*
X60946Y-44151D01*
X60974Y-44113D01*
X61017Y-44094D01*
X61046Y-44094D01*
X61089Y-44113D01*
X61103Y-44132D01*
X66223Y-57271D02*
X65823Y-57271D01*
X65823Y-57157D01*
X65842Y-57129D01*
X65862Y-57114D01*
X65900Y-57100D01*
X65957Y-57100D01*
X65995Y-57114D01*
X66014Y-57129D01*
X66033Y-57157D01*
X66033Y-57271D01*
X65862Y-56986D02*
X65842Y-56971D01*
X65823Y-56943D01*
X65823Y-56871D01*
X65842Y-56843D01*
X65862Y-56829D01*
X65900Y-56814D01*
X65938Y-56814D01*
X65995Y-56829D01*
X66223Y-57000D01*
X66223Y-56814D01*
X65823Y-56629D02*
X65823Y-56600D01*
X65842Y-56571D01*
X65862Y-56557D01*
X65900Y-56543D01*
X65976Y-56529D01*
X66071Y-56529D01*
X66147Y-56543D01*
X66185Y-56557D01*
X66204Y-56571D01*
X66223Y-56600D01*
X66223Y-56629D01*
X66204Y-56657D01*
X66185Y-56671D01*
X66147Y-56686D01*
X66071Y-56700D01*
X65976Y-56700D01*
X65900Y-56686D01*
X65862Y-56671D01*
X65842Y-56657D01*
X65823Y-56629D01*
X59777Y-66599D02*
X59777Y-66199D01*
X59892Y-66199D01*
X59920Y-66218D01*
X59934Y-66237D01*
X59949Y-66275D01*
X59949Y-66332D01*
X59934Y-66370D01*
X59920Y-66390D01*
X59892Y-66409D01*
X59777Y-66409D01*
X60063Y-66237D02*
X60077Y-66218D01*
X60106Y-66199D01*
X60177Y-66199D01*
X60206Y-66218D01*
X60220Y-66237D01*
X60234Y-66275D01*
X60234Y-66313D01*
X60220Y-66370D01*
X60049Y-66599D01*
X60234Y-66599D01*
X60349Y-66237D02*
X60363Y-66218D01*
X60392Y-66199D01*
X60463Y-66199D01*
X60492Y-66218D01*
X60506Y-66237D01*
X60520Y-66275D01*
X60520Y-66313D01*
X60506Y-66370D01*
X60334Y-66599D01*
X60520Y-66599D01*
X55269Y-63479D02*
X55269Y-63079D01*
X55383Y-63079D01*
X55412Y-63098D01*
X55426Y-63117D01*
X55440Y-63155D01*
X55440Y-63212D01*
X55426Y-63250D01*
X55412Y-63270D01*
X55383Y-63289D01*
X55269Y-63289D01*
X55554Y-63117D02*
X55569Y-63098D01*
X55597Y-63079D01*
X55669Y-63079D01*
X55697Y-63098D01*
X55712Y-63117D01*
X55726Y-63155D01*
X55726Y-63193D01*
X55712Y-63250D01*
X55540Y-63479D01*
X55726Y-63479D01*
X55997Y-63079D02*
X55854Y-63079D01*
X55840Y-63270D01*
X55854Y-63250D01*
X55883Y-63231D01*
X55954Y-63231D01*
X55983Y-63250D01*
X55997Y-63270D01*
X56012Y-63308D01*
X56012Y-63403D01*
X55997Y-63441D01*
X55983Y-63460D01*
X55954Y-63479D01*
X55883Y-63479D01*
X55854Y-63460D01*
X55840Y-63441D01*
X56740Y-63479D02*
X56597Y-63479D01*
X56597Y-63079D01*
X56840Y-63479D02*
X56840Y-63079D01*
X56954Y-63079D01*
X56983Y-63098D01*
X56997Y-63117D01*
X57012Y-63155D01*
X57012Y-63212D01*
X56997Y-63250D01*
X56983Y-63270D01*
X56954Y-63289D01*
X56840Y-63289D01*
X57312Y-63441D02*
X57297Y-63460D01*
X57254Y-63479D01*
X57226Y-63479D01*
X57183Y-63460D01*
X57154Y-63422D01*
X57140Y-63384D01*
X57126Y-63308D01*
X57126Y-63250D01*
X57140Y-63174D01*
X57154Y-63136D01*
X57183Y-63098D01*
X57226Y-63079D01*
X57254Y-63079D01*
X57297Y-63098D01*
X57312Y-63117D01*
X57369Y-63517D02*
X57597Y-63517D01*
X57669Y-63479D02*
X57669Y-63079D01*
X57797Y-63460D02*
X57840Y-63479D01*
X57912Y-63479D01*
X57940Y-63460D01*
X57954Y-63441D01*
X57969Y-63403D01*
X57969Y-63365D01*
X57954Y-63327D01*
X57940Y-63308D01*
X57912Y-63289D01*
X57854Y-63270D01*
X57826Y-63250D01*
X57812Y-63231D01*
X57797Y-63193D01*
X57797Y-63155D01*
X57812Y-63117D01*
X57826Y-63098D01*
X57854Y-63079D01*
X57926Y-63079D01*
X57969Y-63098D01*
X58097Y-63479D02*
X58097Y-63079D01*
X58212Y-63079D01*
X58240Y-63098D01*
X58254Y-63117D01*
X58269Y-63155D01*
X58269Y-63212D01*
X58254Y-63250D01*
X58240Y-63270D01*
X58212Y-63289D01*
X58097Y-63289D01*
X50243Y-57291D02*
X49843Y-57291D01*
X49843Y-57177D01*
X49862Y-57149D01*
X49882Y-57134D01*
X49920Y-57120D01*
X49977Y-57120D01*
X50015Y-57134D01*
X50034Y-57149D01*
X50053Y-57177D01*
X50053Y-57291D01*
X49882Y-57006D02*
X49862Y-56991D01*
X49843Y-56963D01*
X49843Y-56891D01*
X49862Y-56863D01*
X49882Y-56849D01*
X49920Y-56834D01*
X49958Y-56834D01*
X50015Y-56849D01*
X50243Y-57020D01*
X50243Y-56834D01*
X50015Y-56663D02*
X49996Y-56691D01*
X49977Y-56706D01*
X49939Y-56720D01*
X49920Y-56720D01*
X49882Y-56706D01*
X49862Y-56691D01*
X49843Y-56663D01*
X49843Y-56606D01*
X49862Y-56577D01*
X49882Y-56563D01*
X49920Y-56549D01*
X49939Y-56549D01*
X49977Y-56563D01*
X49996Y-56577D01*
X50015Y-56606D01*
X50015Y-56663D01*
X50034Y-56691D01*
X50053Y-56706D01*
X50091Y-56720D01*
X50167Y-56720D01*
X50205Y-56706D01*
X50224Y-56691D01*
X50243Y-56663D01*
X50243Y-56606D01*
X50224Y-56577D01*
X50205Y-56563D01*
X50167Y-56549D01*
X50091Y-56549D01*
X50053Y-56563D01*
X50034Y-56577D01*
X50015Y-56606D01*
X58313Y-46881D02*
X57913Y-46881D01*
X57913Y-46767D01*
X57932Y-46739D01*
X57952Y-46724D01*
X57990Y-46710D01*
X58047Y-46710D01*
X58085Y-46724D01*
X58104Y-46739D01*
X58123Y-46767D01*
X58123Y-46881D01*
X57952Y-46596D02*
X57932Y-46581D01*
X57913Y-46553D01*
X57913Y-46481D01*
X57932Y-46453D01*
X57952Y-46439D01*
X57990Y-46424D01*
X58028Y-46424D01*
X58085Y-46439D01*
X58313Y-46610D01*
X58313Y-46424D01*
X57913Y-46167D02*
X57913Y-46224D01*
X57932Y-46253D01*
X57952Y-46267D01*
X58009Y-46296D01*
X58085Y-46310D01*
X58237Y-46310D01*
X58275Y-46296D01*
X58294Y-46281D01*
X58313Y-46253D01*
X58313Y-46196D01*
X58294Y-46167D01*
X58275Y-46153D01*
X58237Y-46139D01*
X58142Y-46139D01*
X58104Y-46153D01*
X58085Y-46167D01*
X58066Y-46196D01*
X58066Y-46253D01*
X58085Y-46281D01*
X58104Y-46296D01*
X58142Y-46310D01*
X58948Y-47346D02*
X58948Y-47489D01*
X58548Y-47489D01*
X58948Y-47246D02*
X58548Y-47246D01*
X58548Y-47131D01*
X58567Y-47103D01*
X58587Y-47089D01*
X58625Y-47074D01*
X58682Y-47074D01*
X58720Y-47089D01*
X58739Y-47103D01*
X58758Y-47131D01*
X58758Y-47246D01*
X58910Y-46774D02*
X58929Y-46789D01*
X58948Y-46831D01*
X58948Y-46860D01*
X58929Y-46903D01*
X58891Y-46931D01*
X58853Y-46946D01*
X58777Y-46960D01*
X58720Y-46960D01*
X58644Y-46946D01*
X58606Y-46931D01*
X58567Y-46903D01*
X58548Y-46860D01*
X58548Y-46831D01*
X58567Y-46789D01*
X58587Y-46774D01*
X58987Y-46717D02*
X58987Y-46489D01*
X58548Y-46331D02*
X58834Y-46331D01*
X58891Y-46346D01*
X58929Y-46374D01*
X58948Y-46417D01*
X58948Y-46446D01*
X58548Y-46231D02*
X58548Y-46060D01*
X58948Y-46146D02*
X58548Y-46146D01*
X58834Y-45974D02*
X58834Y-45831D01*
X58948Y-46003D02*
X58548Y-45903D01*
X58948Y-45803D01*
X58567Y-45546D02*
X58548Y-45574D01*
X58548Y-45617D01*
X58567Y-45660D01*
X58606Y-45689D01*
X58644Y-45703D01*
X58720Y-45717D01*
X58777Y-45717D01*
X58853Y-45703D01*
X58891Y-45689D01*
X58929Y-45660D01*
X58948Y-45617D01*
X58948Y-45589D01*
X58929Y-45546D01*
X58910Y-45531D01*
X58777Y-45531D01*
X58777Y-45589D01*
X55870Y-46389D02*
X55870Y-45989D01*
X55984Y-45989D01*
X56013Y-46008D01*
X56027Y-46027D01*
X56042Y-46065D01*
X56042Y-46122D01*
X56027Y-46160D01*
X56013Y-46180D01*
X55984Y-46199D01*
X55870Y-46199D01*
X56142Y-45989D02*
X56327Y-45989D01*
X56227Y-46141D01*
X56270Y-46141D01*
X56299Y-46160D01*
X56313Y-46180D01*
X56327Y-46218D01*
X56327Y-46313D01*
X56313Y-46351D01*
X56299Y-46370D01*
X56270Y-46389D01*
X56184Y-46389D01*
X56156Y-46370D01*
X56142Y-46351D01*
X55863Y-46643D02*
X55834Y-46624D01*
X55792Y-46624D01*
X55749Y-46643D01*
X55720Y-46681D01*
X55706Y-46719D01*
X55692Y-46795D01*
X55692Y-46853D01*
X55706Y-46929D01*
X55720Y-46967D01*
X55749Y-47005D01*
X55792Y-47024D01*
X55820Y-47024D01*
X55863Y-47005D01*
X55877Y-46986D01*
X55877Y-46853D01*
X55820Y-46853D01*
X56006Y-47024D02*
X56006Y-46624D01*
X56177Y-47024D01*
X56177Y-46624D01*
X56320Y-47024D02*
X56320Y-46624D01*
X56392Y-46624D01*
X56434Y-46643D01*
X56463Y-46681D01*
X56477Y-46719D01*
X56492Y-46795D01*
X56492Y-46853D01*
X56477Y-46929D01*
X56463Y-46967D01*
X56434Y-47005D01*
X56392Y-47024D01*
X56320Y-47024D01*
X56727Y-40479D02*
X56727Y-40079D01*
X56842Y-40079D01*
X56870Y-40098D01*
X56884Y-40117D01*
X56899Y-40155D01*
X56899Y-40212D01*
X56884Y-40250D01*
X56870Y-40270D01*
X56842Y-40289D01*
X56727Y-40289D01*
X56999Y-40079D02*
X57184Y-40079D01*
X57084Y-40231D01*
X57127Y-40231D01*
X57156Y-40250D01*
X57170Y-40270D01*
X57184Y-40308D01*
X57184Y-40403D01*
X57170Y-40441D01*
X57156Y-40460D01*
X57127Y-40479D01*
X57042Y-40479D01*
X57013Y-40460D01*
X56999Y-40441D01*
X57370Y-40079D02*
X57399Y-40079D01*
X57427Y-40098D01*
X57442Y-40117D01*
X57456Y-40155D01*
X57470Y-40231D01*
X57470Y-40327D01*
X57456Y-40403D01*
X57442Y-40441D01*
X57427Y-40460D01*
X57399Y-40479D01*
X57370Y-40479D01*
X57342Y-40460D01*
X57327Y-40441D01*
X57313Y-40403D01*
X57299Y-40327D01*
X57299Y-40231D01*
X57313Y-40155D01*
X57327Y-40117D01*
X57342Y-40098D01*
X57370Y-40079D01*
X58156Y-40270D02*
X58199Y-40289D01*
X58213Y-40308D01*
X58227Y-40346D01*
X58227Y-40403D01*
X58213Y-40441D01*
X58199Y-40460D01*
X58170Y-40479D01*
X58056Y-40479D01*
X58056Y-40079D01*
X58156Y-40079D01*
X58184Y-40098D01*
X58199Y-40117D01*
X58213Y-40155D01*
X58213Y-40193D01*
X58199Y-40231D01*
X58184Y-40250D01*
X58156Y-40270D01*
X58056Y-40270D01*
X58342Y-40365D02*
X58484Y-40365D01*
X58313Y-40479D02*
X58413Y-40079D01*
X58513Y-40479D01*
X58613Y-40479D02*
X58613Y-40079D01*
X58784Y-40479D01*
X58784Y-40079D01*
X58927Y-40479D02*
X58927Y-40079D01*
X59099Y-40479D02*
X58970Y-40250D01*
X59099Y-40079D02*
X58927Y-40308D01*
X59213Y-40117D02*
X59227Y-40098D01*
X59256Y-40079D01*
X59327Y-40079D01*
X59356Y-40098D01*
X59370Y-40117D01*
X59384Y-40155D01*
X59384Y-40193D01*
X59370Y-40250D01*
X59199Y-40479D01*
X59384Y-40479D01*
X59442Y-40517D02*
X59670Y-40517D01*
X59727Y-40365D02*
X59870Y-40365D01*
X59699Y-40479D02*
X59799Y-40079D01*
X59899Y-40479D01*
X59999Y-40079D02*
X59999Y-40403D01*
X60013Y-40441D01*
X60027Y-40460D01*
X60056Y-40479D01*
X60113Y-40479D01*
X60142Y-40460D01*
X60156Y-40441D01*
X60170Y-40403D01*
X60170Y-40079D01*
X60284Y-40079D02*
X60484Y-40479D01*
X60484Y-40079D02*
X60284Y-40479D01*
X31367Y-49669D02*
X31367Y-49269D01*
X31482Y-49269D01*
X31510Y-49288D01*
X31524Y-49307D01*
X31539Y-49345D01*
X31539Y-49402D01*
X31524Y-49440D01*
X31510Y-49460D01*
X31482Y-49479D01*
X31367Y-49479D01*
X31639Y-49269D02*
X31824Y-49269D01*
X31724Y-49421D01*
X31767Y-49421D01*
X31796Y-49440D01*
X31810Y-49460D01*
X31824Y-49498D01*
X31824Y-49593D01*
X31810Y-49631D01*
X31796Y-49650D01*
X31767Y-49669D01*
X31682Y-49669D01*
X31653Y-49650D01*
X31639Y-49631D01*
X32082Y-49269D02*
X32024Y-49269D01*
X31996Y-49288D01*
X31982Y-49307D01*
X31953Y-49364D01*
X31939Y-49440D01*
X31939Y-49593D01*
X31953Y-49631D01*
X31967Y-49650D01*
X31996Y-49669D01*
X32053Y-49669D01*
X32082Y-49650D01*
X32096Y-49631D01*
X32110Y-49593D01*
X32110Y-49498D01*
X32096Y-49460D01*
X32082Y-49440D01*
X32053Y-49421D01*
X31996Y-49421D01*
X31967Y-49440D01*
X31953Y-49460D01*
X31939Y-49498D01*
X31374Y-49904D02*
X31474Y-50304D01*
X31574Y-49904D01*
X31660Y-50190D02*
X31803Y-50190D01*
X31632Y-50304D02*
X31732Y-49904D01*
X31832Y-50304D01*
X31917Y-50190D02*
X32060Y-50190D01*
X31889Y-50304D02*
X31989Y-49904D01*
X32089Y-50304D01*
X69553Y-54469D02*
X69153Y-54469D01*
X69153Y-54354D01*
X69172Y-54326D01*
X69192Y-54311D01*
X69230Y-54297D01*
X69287Y-54297D01*
X69325Y-54311D01*
X69344Y-54326D01*
X69363Y-54354D01*
X69363Y-54469D01*
X69192Y-54183D02*
X69172Y-54169D01*
X69153Y-54140D01*
X69153Y-54069D01*
X69172Y-54040D01*
X69192Y-54026D01*
X69230Y-54011D01*
X69268Y-54011D01*
X69325Y-54026D01*
X69553Y-54197D01*
X69553Y-54011D01*
X70150Y-54854D02*
X70169Y-54869D01*
X70188Y-54911D01*
X70188Y-54940D01*
X70169Y-54983D01*
X70131Y-55011D01*
X70093Y-55026D01*
X70017Y-55040D01*
X69960Y-55040D01*
X69884Y-55026D01*
X69846Y-55011D01*
X69807Y-54983D01*
X69788Y-54940D01*
X69788Y-54911D01*
X69807Y-54869D01*
X69827Y-54854D01*
X70188Y-54583D02*
X70188Y-54726D01*
X69788Y-54726D01*
X70188Y-54483D02*
X69788Y-54483D01*
X70188Y-54311D02*
X69960Y-54440D01*
X69788Y-54311D02*
X70017Y-54483D01*
X69788Y-54126D02*
X69788Y-54069D01*
X69807Y-54040D01*
X69846Y-54011D01*
X69922Y-53997D01*
X70055Y-53997D01*
X70131Y-54011D01*
X70169Y-54040D01*
X70188Y-54069D01*
X70188Y-54126D01*
X70169Y-54154D01*
X70131Y-54183D01*
X70055Y-54197D01*
X69922Y-54197D01*
X69846Y-54183D01*
X69807Y-54154D01*
X69788Y-54126D01*
X69788Y-53869D02*
X70112Y-53869D01*
X70150Y-53854D01*
X70169Y-53840D01*
X70188Y-53811D01*
X70188Y-53754D01*
X70169Y-53726D01*
X70150Y-53711D01*
X70112Y-53697D01*
X69788Y-53697D01*
X69788Y-53597D02*
X69788Y-53426D01*
X70188Y-53511D02*
X69788Y-53511D01*
X51107Y-51489D02*
X51107Y-51089D01*
X51222Y-51089D01*
X51250Y-51108D01*
X51264Y-51127D01*
X51279Y-51165D01*
X51279Y-51222D01*
X51264Y-51260D01*
X51250Y-51280D01*
X51222Y-51299D01*
X51107Y-51299D01*
X51393Y-51127D02*
X51407Y-51108D01*
X51436Y-51089D01*
X51507Y-51089D01*
X51536Y-51108D01*
X51550Y-51127D01*
X51564Y-51165D01*
X51564Y-51203D01*
X51550Y-51260D01*
X51379Y-51489D01*
X51564Y-51489D01*
X51707Y-51489D02*
X51764Y-51489D01*
X51793Y-51470D01*
X51807Y-51451D01*
X51836Y-51394D01*
X51850Y-51318D01*
X51850Y-51165D01*
X51836Y-51127D01*
X51822Y-51108D01*
X51793Y-51089D01*
X51736Y-51089D01*
X51707Y-51108D01*
X51693Y-51127D01*
X51679Y-51165D01*
X51679Y-51260D01*
X51693Y-51299D01*
X51707Y-51318D01*
X51736Y-51337D01*
X51793Y-51337D01*
X51822Y-51318D01*
X51836Y-51299D01*
X51850Y-51260D01*
X69583Y-61891D02*
X69183Y-61891D01*
X69183Y-61777D01*
X69202Y-61749D01*
X69222Y-61734D01*
X69260Y-61720D01*
X69317Y-61720D01*
X69355Y-61734D01*
X69374Y-61749D01*
X69393Y-61777D01*
X69393Y-61891D01*
X69583Y-61434D02*
X69583Y-61606D01*
X69583Y-61520D02*
X69183Y-61520D01*
X69241Y-61549D01*
X69279Y-61577D01*
X69298Y-61606D01*
X69183Y-61177D02*
X69183Y-61234D01*
X69202Y-61263D01*
X69222Y-61277D01*
X69279Y-61306D01*
X69355Y-61320D01*
X69507Y-61320D01*
X69545Y-61306D01*
X69564Y-61291D01*
X69583Y-61263D01*
X69583Y-61206D01*
X69564Y-61177D01*
X69545Y-61163D01*
X69507Y-61149D01*
X69412Y-61149D01*
X69374Y-61163D01*
X69355Y-61177D01*
X69336Y-61206D01*
X69336Y-61263D01*
X69355Y-61291D01*
X69374Y-61306D01*
X69412Y-61320D01*
X70180Y-61934D02*
X70199Y-61949D01*
X70218Y-61991D01*
X70218Y-62020D01*
X70199Y-62063D01*
X70161Y-62091D01*
X70123Y-62106D01*
X70047Y-62120D01*
X69990Y-62120D01*
X69914Y-62106D01*
X69876Y-62091D01*
X69837Y-62063D01*
X69818Y-62020D01*
X69818Y-61991D01*
X69837Y-61949D01*
X69857Y-61934D01*
X70218Y-61663D02*
X70218Y-61806D01*
X69818Y-61806D01*
X70218Y-61563D02*
X69818Y-61563D01*
X70218Y-61391D02*
X69990Y-61520D01*
X69818Y-61391D02*
X70047Y-61563D01*
X70218Y-61263D02*
X69818Y-61263D01*
X70218Y-61120D02*
X69818Y-61120D01*
X70218Y-60949D01*
X69818Y-60949D01*
X24713Y-60609D02*
X24313Y-60609D01*
X24313Y-60494D01*
X24332Y-60466D01*
X24352Y-60451D01*
X24390Y-60437D01*
X24447Y-60437D01*
X24485Y-60451D01*
X24504Y-60466D01*
X24523Y-60494D01*
X24523Y-60609D01*
X24447Y-60180D02*
X24713Y-60180D01*
X24294Y-60251D02*
X24580Y-60323D01*
X24580Y-60137D01*
X25234Y-61309D02*
X25234Y-61166D01*
X25348Y-61337D02*
X24948Y-61237D01*
X25348Y-61137D01*
X25348Y-61037D02*
X24948Y-61037D01*
X25348Y-60866D01*
X24948Y-60866D01*
X24948Y-60766D02*
X24948Y-60594D01*
X25348Y-60680D02*
X24948Y-60680D01*
X25139Y-60494D02*
X25139Y-60394D01*
X25348Y-60351D02*
X25348Y-60494D01*
X24948Y-60494D01*
X24948Y-60351D01*
X25348Y-60223D02*
X24948Y-60223D01*
X25348Y-60051D01*
X24948Y-60051D01*
X25348Y-59909D02*
X24948Y-59909D01*
X25348Y-59737D01*
X24948Y-59737D01*
X25234Y-59609D02*
X25234Y-59466D01*
X25348Y-59637D02*
X24948Y-59537D01*
X25348Y-59437D01*
G54D12*
X52989Y-67690D02*
X52989Y-66990D01*
X53203Y-67690D02*
X53203Y-67324D01*
X53180Y-67257D01*
X53132Y-67224D01*
X53061Y-67224D01*
X53013Y-67257D01*
X52989Y-67290D01*
X53370Y-67224D02*
X53561Y-67224D01*
X53442Y-66990D02*
X53442Y-67590D01*
X53465Y-67657D01*
X53513Y-67690D01*
X53561Y-67690D01*
X53656Y-67224D02*
X53846Y-67224D01*
X53727Y-66990D02*
X53727Y-67590D01*
X53751Y-67657D01*
X53799Y-67690D01*
X53846Y-67690D01*
X54013Y-67224D02*
X54013Y-67924D01*
X54013Y-67257D02*
X54061Y-67224D01*
X54156Y-67224D01*
X54203Y-67257D01*
X54227Y-67290D01*
X54251Y-67357D01*
X54251Y-67557D01*
X54227Y-67624D01*
X54203Y-67657D01*
X54156Y-67690D01*
X54061Y-67690D01*
X54013Y-67657D01*
X54465Y-67624D02*
X54489Y-67657D01*
X54465Y-67690D01*
X54442Y-67657D01*
X54465Y-67624D01*
X54465Y-67690D01*
X54465Y-67257D02*
X54489Y-67290D01*
X54465Y-67324D01*
X54442Y-67290D01*
X54465Y-67257D01*
X54465Y-67324D01*
X55061Y-66957D02*
X54632Y-67857D01*
X55584Y-66957D02*
X55156Y-67857D01*
X55965Y-67224D02*
X55965Y-67790D01*
X55942Y-67857D01*
X55918Y-67890D01*
X55870Y-67924D01*
X55799Y-67924D01*
X55751Y-67890D01*
X55965Y-67657D02*
X55918Y-67690D01*
X55823Y-67690D01*
X55775Y-67657D01*
X55751Y-67624D01*
X55727Y-67557D01*
X55727Y-67357D01*
X55751Y-67290D01*
X55775Y-67257D01*
X55823Y-67224D01*
X55918Y-67224D01*
X55965Y-67257D01*
X56203Y-67690D02*
X56203Y-67224D01*
X56203Y-67357D02*
X56227Y-67290D01*
X56251Y-67257D01*
X56299Y-67224D01*
X56346Y-67224D01*
X56703Y-67657D02*
X56656Y-67690D01*
X56561Y-67690D01*
X56513Y-67657D01*
X56489Y-67590D01*
X56489Y-67324D01*
X56513Y-67257D01*
X56561Y-67224D01*
X56656Y-67224D01*
X56703Y-67257D01*
X56727Y-67324D01*
X56727Y-67390D01*
X56489Y-67457D01*
X57156Y-67690D02*
X57156Y-67324D01*
X57132Y-67257D01*
X57084Y-67224D01*
X56989Y-67224D01*
X56942Y-67257D01*
X57156Y-67657D02*
X57108Y-67690D01*
X56989Y-67690D01*
X56942Y-67657D01*
X56918Y-67590D01*
X56918Y-67524D01*
X56942Y-67457D01*
X56989Y-67424D01*
X57108Y-67424D01*
X57156Y-67390D01*
X57323Y-67224D02*
X57513Y-67224D01*
X57394Y-66990D02*
X57394Y-67590D01*
X57418Y-67657D01*
X57465Y-67690D01*
X57513Y-67690D01*
X57656Y-67657D02*
X57703Y-67690D01*
X57799Y-67690D01*
X57846Y-67657D01*
X57870Y-67590D01*
X57870Y-67557D01*
X57846Y-67490D01*
X57799Y-67457D01*
X57727Y-67457D01*
X57680Y-67424D01*
X57656Y-67357D01*
X57656Y-67324D01*
X57680Y-67257D01*
X57727Y-67224D01*
X57799Y-67224D01*
X57846Y-67257D01*
X58299Y-67657D02*
X58251Y-67690D01*
X58156Y-67690D01*
X58108Y-67657D01*
X58084Y-67624D01*
X58061Y-67557D01*
X58061Y-67357D01*
X58084Y-67290D01*
X58108Y-67257D01*
X58156Y-67224D01*
X58251Y-67224D01*
X58299Y-67257D01*
X58584Y-67690D02*
X58537Y-67657D01*
X58513Y-67624D01*
X58489Y-67557D01*
X58489Y-67357D01*
X58513Y-67290D01*
X58537Y-67257D01*
X58584Y-67224D01*
X58656Y-67224D01*
X58703Y-67257D01*
X58727Y-67290D01*
X58751Y-67357D01*
X58751Y-67557D01*
X58727Y-67624D01*
X58703Y-67657D01*
X58656Y-67690D01*
X58584Y-67690D01*
X58894Y-67224D02*
X59084Y-67224D01*
X58965Y-66990D02*
X58965Y-67590D01*
X58989Y-67657D01*
X59037Y-67690D01*
X59084Y-67690D01*
X59180Y-67224D02*
X59370Y-67224D01*
X59251Y-66990D02*
X59251Y-67590D01*
X59275Y-67657D01*
X59323Y-67690D01*
X59370Y-67690D01*
X59751Y-67224D02*
X59751Y-67790D01*
X59727Y-67857D01*
X59703Y-67890D01*
X59656Y-67924D01*
X59584Y-67924D01*
X59537Y-67890D01*
X59751Y-67657D02*
X59703Y-67690D01*
X59608Y-67690D01*
X59561Y-67657D01*
X59537Y-67624D01*
X59513Y-67557D01*
X59513Y-67357D01*
X59537Y-67290D01*
X59561Y-67257D01*
X59608Y-67224D01*
X59703Y-67224D01*
X59751Y-67257D01*
X60203Y-67690D02*
X60203Y-67324D01*
X60180Y-67257D01*
X60132Y-67224D01*
X60037Y-67224D01*
X59989Y-67257D01*
X60203Y-67657D02*
X60156Y-67690D01*
X60037Y-67690D01*
X59989Y-67657D01*
X59965Y-67590D01*
X59965Y-67524D01*
X59989Y-67457D01*
X60037Y-67424D01*
X60156Y-67424D01*
X60203Y-67390D01*
X60656Y-67690D02*
X60656Y-66990D01*
X60656Y-67657D02*
X60608Y-67690D01*
X60513Y-67690D01*
X60465Y-67657D01*
X60442Y-67624D01*
X60418Y-67557D01*
X60418Y-67357D01*
X60442Y-67290D01*
X60465Y-67257D01*
X60513Y-67224D01*
X60608Y-67224D01*
X60656Y-67257D01*
X61108Y-67224D02*
X61108Y-67790D01*
X61084Y-67857D01*
X61061Y-67890D01*
X61013Y-67924D01*
X60942Y-67924D01*
X60894Y-67890D01*
X61108Y-67657D02*
X61061Y-67690D01*
X60965Y-67690D01*
X60918Y-67657D01*
X60894Y-67624D01*
X60870Y-67557D01*
X60870Y-67357D01*
X60894Y-67290D01*
X60918Y-67257D01*
X60965Y-67224D01*
X61061Y-67224D01*
X61108Y-67257D01*
X61537Y-67657D02*
X61489Y-67690D01*
X61394Y-67690D01*
X61346Y-67657D01*
X61323Y-67590D01*
X61323Y-67324D01*
X61346Y-67257D01*
X61394Y-67224D01*
X61489Y-67224D01*
X61537Y-67257D01*
X61561Y-67324D01*
X61561Y-67390D01*
X61323Y-67457D01*
X61703Y-67224D02*
X61894Y-67224D01*
X61775Y-66990D02*
X61775Y-67590D01*
X61799Y-67657D01*
X61846Y-67690D01*
X61894Y-67690D01*
X62037Y-67657D02*
X62084Y-67690D01*
X62180Y-67690D01*
X62227Y-67657D01*
X62251Y-67590D01*
X62251Y-67557D01*
X62227Y-67490D01*
X62180Y-67457D01*
X62108Y-67457D01*
X62061Y-67424D01*
X62037Y-67357D01*
X62037Y-67324D01*
X62061Y-67257D01*
X62108Y-67224D01*
X62180Y-67224D01*
X62227Y-67257D01*
X62465Y-67624D02*
X62489Y-67657D01*
X62465Y-67690D01*
X62442Y-67657D01*
X62465Y-67624D01*
X62465Y-67690D01*
X62918Y-67657D02*
X62870Y-67690D01*
X62775Y-67690D01*
X62727Y-67657D01*
X62703Y-67624D01*
X62680Y-67557D01*
X62680Y-67357D01*
X62703Y-67290D01*
X62727Y-67257D01*
X62775Y-67224D01*
X62870Y-67224D01*
X62918Y-67257D01*
X63203Y-67690D02*
X63156Y-67657D01*
X63132Y-67624D01*
X63108Y-67557D01*
X63108Y-67357D01*
X63132Y-67290D01*
X63156Y-67257D01*
X63203Y-67224D01*
X63275Y-67224D01*
X63322Y-67257D01*
X63346Y-67290D01*
X63370Y-67357D01*
X63370Y-67557D01*
X63346Y-67624D01*
X63322Y-67657D01*
X63275Y-67690D01*
X63203Y-67690D01*
X63584Y-67690D02*
X63584Y-67224D01*
X63584Y-67290D02*
X63608Y-67257D01*
X63656Y-67224D01*
X63727Y-67224D01*
X63775Y-67257D01*
X63799Y-67324D01*
X63799Y-67690D01*
X63799Y-67324D02*
X63823Y-67257D01*
X63870Y-67224D01*
X63942Y-67224D01*
X63989Y-67257D01*
X64013Y-67324D01*
X64013Y-67690D01*
X64608Y-66957D02*
X64180Y-67857D01*
X64775Y-67690D02*
X64775Y-66990D01*
X64989Y-67690D02*
X64989Y-67324D01*
X64965Y-67257D01*
X64918Y-67224D01*
X64846Y-67224D01*
X64799Y-67257D01*
X64775Y-67290D01*
X65442Y-67690D02*
X65442Y-67324D01*
X65418Y-67257D01*
X65370Y-67224D01*
X65275Y-67224D01*
X65227Y-67257D01*
X65442Y-67657D02*
X65394Y-67690D01*
X65275Y-67690D01*
X65227Y-67657D01*
X65203Y-67590D01*
X65203Y-67524D01*
X65227Y-67457D01*
X65275Y-67424D01*
X65394Y-67424D01*
X65442Y-67390D01*
X65894Y-67657D02*
X65846Y-67690D01*
X65751Y-67690D01*
X65703Y-67657D01*
X65680Y-67624D01*
X65656Y-67557D01*
X65656Y-67357D01*
X65680Y-67290D01*
X65703Y-67257D01*
X65751Y-67224D01*
X65846Y-67224D01*
X65894Y-67257D01*
X66108Y-67690D02*
X66108Y-66990D01*
X66156Y-67424D02*
X66299Y-67690D01*
X66299Y-67224D02*
X66108Y-67490D01*
X66513Y-67690D02*
X66513Y-67224D01*
X66513Y-67357D02*
X66537Y-67290D01*
X66561Y-67257D01*
X66608Y-67224D01*
X66656Y-67224D01*
X66751Y-67224D02*
X66942Y-67224D01*
X66822Y-67690D02*
X66822Y-67090D01*
X66846Y-67024D01*
X66894Y-66990D01*
X66942Y-66990D01*
X67465Y-66957D02*
X67037Y-67857D01*
G54D16*
X66622Y-61897D02*
X66622Y-50897D01*
X66622Y-50897D02*
X68622Y-50897D01*
X68622Y-50897D02*
X68622Y-61897D01*
X67622Y-60897D02*
X67622Y-62147D01*
X67622Y-62147D02*
X68872Y-62147D01*
X68872Y-62147D02*
X68872Y-60897D01*
X68872Y-60897D02*
X67622Y-60897D01*
X68622Y-61897D02*
X66622Y-61897D01*
G54D11*
X23661Y-48287D02*
X23543Y-48287D01*
X23543Y-48287D02*
X23543Y-49665D01*
X23543Y-49665D02*
X23661Y-49665D01*
X23661Y-47598D02*
X26259Y-47598D01*
X26259Y-50354D02*
X23661Y-50354D01*
X26259Y-50196D02*
X25118Y-50196D01*
X26259Y-47755D02*
X25118Y-47755D01*
X25118Y-47598D02*
X25118Y-50354D01*
X23661Y-47598D02*
X23661Y-50354D01*
X26259Y-47598D02*
X26259Y-47755D01*
X26259Y-50354D02*
X26259Y-50196D01*
X39132Y-45496D02*
X39290Y-45654D01*
X39290Y-42898D02*
X39132Y-42898D01*
X39132Y-42898D02*
X39132Y-43056D01*
X41888Y-43056D02*
X41888Y-42898D01*
X41888Y-42898D02*
X41730Y-42898D01*
X41730Y-45654D02*
X41888Y-45654D01*
X41888Y-45654D02*
X41888Y-45496D01*
X41751Y-57046D02*
X41594Y-56889D01*
X43956Y-56889D02*
X43956Y-57046D01*
X43956Y-57046D02*
X43799Y-57046D01*
X43799Y-54684D02*
X43956Y-54684D01*
X43956Y-54684D02*
X43956Y-54841D01*
X41594Y-54841D02*
X41594Y-54684D01*
X41594Y-54684D02*
X41751Y-54684D01*
X52780Y-65000D02*
G75*
G03X52780Y-65000I-280J0D01*
G74*
G01*
G54D17*
X31000Y-65264D02*
X29800Y-65264D01*
X29800Y-65264D02*
X29800Y-64964D01*
X29800Y-64964D02*
X31000Y-64964D01*
X31000Y-64964D02*
X31000Y-65264D01*
X27894Y-59054D02*
X29094Y-59054D01*
X29094Y-59054D02*
X29094Y-59354D01*
X29094Y-59354D02*
X27894Y-59354D01*
X27894Y-59354D02*
X27894Y-59054D01*
G54D11*
X63814Y-52579D02*
X63758Y-52523D01*
X64705Y-51688D02*
X64649Y-51633D01*
X64510Y-52523D02*
X64649Y-52384D01*
X63814Y-51827D02*
X63953Y-51688D01*
X49123Y-67074D02*
X49045Y-67074D01*
X49123Y-65814D02*
X49045Y-65814D01*
X49576Y-66542D02*
X49576Y-66346D01*
X48592Y-66542D02*
X48592Y-66346D01*
G54D16*
X52459Y-43806D02*
G75*
G03X52459Y-43806I-295J0D01*
G74*
G01*
X52459Y-49220D02*
X53050Y-49220D01*
X53050Y-49220D02*
X53050Y-48629D01*
X46750Y-48629D02*
X46750Y-49220D01*
X46750Y-49220D02*
X47341Y-49220D01*
X47341Y-42920D02*
X46750Y-42920D01*
X46750Y-42920D02*
X46750Y-43511D01*
X53050Y-43511D02*
X53050Y-42920D01*
X53050Y-42920D02*
X52459Y-42920D01*
G54D11*
X64140Y-63110D02*
G75*
G03X64140Y-63110I-200J0D01*
G74*
G01*
X64340Y-63510D02*
X64340Y-61410D01*
X64340Y-61410D02*
X62240Y-61410D01*
X62240Y-61410D02*
X62240Y-63510D01*
X62240Y-63510D02*
X64340Y-63510D01*
X65910Y-41709D02*
X65910Y-43441D01*
X65910Y-43441D02*
X64178Y-43441D01*
X64178Y-43441D02*
X64178Y-41709D01*
X64178Y-41709D02*
X65910Y-41709D01*
X65910Y-44709D02*
X65910Y-46441D01*
X65910Y-46441D02*
X64178Y-46441D01*
X64178Y-46441D02*
X64178Y-44709D01*
X64178Y-44709D02*
X65910Y-44709D01*
G54D16*
X63925Y-55174D02*
G75*
G03X63925Y-55174I-294J0D01*
G74*
G01*
X58271Y-60812D02*
X58758Y-61299D01*
X58758Y-61299D02*
X59246Y-60812D01*
X53121Y-54687D02*
X52634Y-55174D01*
X52634Y-55174D02*
X53121Y-55662D01*
X59246Y-49537D02*
X58758Y-49049D01*
X58758Y-49049D02*
X58271Y-49537D01*
X64396Y-54687D02*
X64883Y-55174D01*
X64883Y-55174D02*
X64396Y-55662D01*
G54D11*
X31821Y-55981D02*
X31481Y-55981D01*
X31481Y-55981D02*
X31481Y-56221D01*
G54D18*
X32236Y-56261D02*
X32236Y-56301D01*
X31566Y-56261D02*
X31566Y-56301D01*
G54D11*
X31999Y-56438D02*
X31803Y-56438D01*
X31803Y-56104D02*
X31999Y-56104D01*
X31951Y-54501D02*
X32271Y-54501D01*
X32271Y-54501D02*
X32271Y-54061D01*
X32271Y-54061D02*
X31951Y-54061D01*
G54D16*
X53622Y-61897D02*
X59622Y-61897D01*
X59622Y-61897D02*
X59622Y-62897D01*
X59622Y-62897D02*
X53622Y-62897D01*
X54622Y-63147D02*
X54622Y-61647D01*
X54622Y-61647D02*
X53372Y-61647D01*
X53372Y-61647D02*
X53372Y-63147D01*
X53622Y-61897D02*
X53622Y-62897D01*
X53372Y-63147D02*
X54622Y-63147D01*
G54D11*
X42482Y-59350D02*
X42482Y-59862D01*
X42168Y-59980D02*
X42168Y-59350D01*
X42168Y-59980D02*
X42325Y-59980D01*
X42482Y-59980D02*
X42443Y-59980D01*
X42168Y-59350D02*
X42482Y-59350D01*
X43682Y-59350D02*
X43682Y-59862D01*
X43368Y-59980D02*
X43368Y-59350D01*
X43368Y-59980D02*
X43525Y-59980D01*
X43682Y-59980D02*
X43643Y-59980D01*
X43368Y-59350D02*
X43682Y-59350D01*
X38614Y-61171D02*
X38614Y-62251D01*
X38614Y-62251D02*
X39094Y-62251D01*
X39094Y-62251D02*
X39094Y-61171D01*
X39094Y-61171D02*
X38614Y-61171D01*
X29334Y-59964D02*
X28254Y-59964D01*
X28254Y-59964D02*
X28254Y-60444D01*
X28254Y-60444D02*
X29334Y-60444D01*
X29334Y-60444D02*
X29334Y-59964D01*
X39094Y-63451D02*
X39094Y-62371D01*
X39094Y-62371D02*
X38614Y-62371D01*
X38614Y-62371D02*
X38614Y-63451D01*
X38614Y-63451D02*
X39094Y-63451D01*
X30204Y-62814D02*
X30204Y-63894D01*
X30204Y-63894D02*
X30684Y-63894D01*
X30684Y-63894D02*
X30684Y-62814D01*
X30684Y-62814D02*
X30204Y-62814D01*
X55372Y-49547D02*
X55372Y-49847D01*
X55372Y-49847D02*
X54672Y-49847D01*
X54672Y-49847D02*
X54672Y-49547D01*
X54672Y-49547D02*
X55372Y-49547D01*
X67944Y-45725D02*
X67944Y-45425D01*
X67944Y-45425D02*
X68644Y-45425D01*
X68644Y-45425D02*
X68644Y-45725D01*
X68644Y-45725D02*
X67944Y-45725D01*
X67944Y-46125D02*
X67944Y-45825D01*
X67944Y-45825D02*
X68644Y-45825D01*
X68644Y-45825D02*
X68644Y-46125D01*
X68644Y-46125D02*
X67944Y-46125D01*
X64722Y-59297D02*
X64722Y-58997D01*
X64722Y-58997D02*
X65422Y-58997D01*
X65422Y-58997D02*
X65422Y-59297D01*
X65422Y-59297D02*
X64722Y-59297D01*
X26872Y-44047D02*
X26572Y-44047D01*
X26572Y-44047D02*
X26572Y-43347D01*
X26572Y-43347D02*
X26872Y-43347D01*
X26872Y-43347D02*
X26872Y-44047D01*
X62612Y-47137D02*
X62612Y-46837D01*
X62612Y-46837D02*
X63312Y-46837D01*
X63312Y-46837D02*
X63312Y-47137D01*
X63312Y-47137D02*
X62612Y-47137D01*
X69594Y-42475D02*
X69894Y-42475D01*
X69894Y-42475D02*
X69894Y-43175D01*
X69894Y-43175D02*
X69594Y-43175D01*
X69594Y-43175D02*
X69594Y-42475D01*
X64694Y-43925D02*
X64694Y-44225D01*
X64694Y-44225D02*
X63994Y-44225D01*
X63994Y-44225D02*
X63994Y-43925D01*
X63994Y-43925D02*
X64694Y-43925D01*
X38104Y-59161D02*
X38404Y-59161D01*
X38404Y-59161D02*
X38404Y-59861D01*
X38404Y-59861D02*
X38104Y-59861D01*
X38104Y-59861D02*
X38104Y-59161D01*
X67944Y-43225D02*
X67944Y-42925D01*
X67944Y-42925D02*
X68644Y-42925D01*
X68644Y-42925D02*
X68644Y-43225D01*
X68644Y-43225D02*
X67944Y-43225D01*
X38030Y-48356D02*
X37730Y-48356D01*
X37730Y-48356D02*
X37730Y-47656D01*
X37730Y-47656D02*
X38030Y-47656D01*
X38030Y-47656D02*
X38030Y-48356D01*
X40220Y-61880D02*
X40220Y-61580D01*
X40220Y-61580D02*
X40920Y-61580D01*
X40920Y-61580D02*
X40920Y-61880D01*
X40920Y-61880D02*
X40220Y-61880D01*
X38554Y-59461D02*
X38854Y-59461D01*
X38854Y-59461D02*
X38854Y-60161D01*
X38854Y-60161D02*
X38554Y-60161D01*
X38554Y-60161D02*
X38554Y-59461D01*
X39264Y-64271D02*
X39564Y-64271D01*
X39564Y-64271D02*
X39564Y-64971D01*
X39564Y-64971D02*
X39264Y-64971D01*
X39264Y-64971D02*
X39264Y-64271D01*
X39980Y-66610D02*
X39980Y-66310D01*
X39980Y-66310D02*
X40680Y-66310D01*
X40680Y-66310D02*
X40680Y-66610D01*
X40680Y-66610D02*
X39980Y-66610D01*
X35214Y-60461D02*
X34914Y-60461D01*
X34914Y-60461D02*
X34914Y-59761D01*
X34914Y-59761D02*
X35214Y-59761D01*
X35214Y-59761D02*
X35214Y-60461D01*
X34964Y-59061D02*
X34964Y-58761D01*
X34964Y-58761D02*
X35664Y-58761D01*
X35664Y-58761D02*
X35664Y-59061D01*
X35664Y-59061D02*
X34964Y-59061D01*
X35814Y-59761D02*
X36114Y-59761D01*
X36114Y-59761D02*
X36114Y-60461D01*
X36114Y-60461D02*
X35814Y-60461D01*
X35814Y-60461D02*
X35814Y-59761D01*
X37304Y-60321D02*
X37004Y-60321D01*
X37004Y-60321D02*
X37004Y-59621D01*
X37004Y-59621D02*
X37304Y-59621D01*
X37304Y-59621D02*
X37304Y-60321D01*
X54825Y-51689D02*
X54613Y-51901D01*
X54613Y-51901D02*
X54118Y-51406D01*
X54118Y-51406D02*
X54330Y-51194D01*
X54330Y-51194D02*
X54825Y-51689D01*
X55125Y-51389D02*
X54913Y-51601D01*
X54913Y-51601D02*
X54418Y-51106D01*
X54418Y-51106D02*
X54630Y-50894D01*
X54630Y-50894D02*
X55125Y-51389D01*
X36300Y-48356D02*
X36000Y-48356D01*
X36000Y-48356D02*
X36000Y-47656D01*
X36000Y-47656D02*
X36300Y-47656D01*
X36300Y-47656D02*
X36300Y-48356D01*
X36800Y-48356D02*
X36500Y-48356D01*
X36500Y-48356D02*
X36500Y-47656D01*
X36500Y-47656D02*
X36800Y-47656D01*
X36800Y-47656D02*
X36800Y-48356D01*
X37530Y-48356D02*
X37230Y-48356D01*
X37230Y-48356D02*
X37230Y-47656D01*
X37230Y-47656D02*
X37530Y-47656D01*
X37530Y-47656D02*
X37530Y-48356D01*
X57142Y-48727D02*
X57142Y-48427D01*
X57142Y-48427D02*
X57842Y-48427D01*
X57842Y-48427D02*
X57842Y-48727D01*
X57842Y-48727D02*
X57142Y-48727D01*
X65662Y-51217D02*
X65962Y-51217D01*
X65962Y-51217D02*
X65962Y-51917D01*
X65962Y-51917D02*
X65662Y-51917D01*
X65662Y-51917D02*
X65662Y-51217D01*
X28744Y-58404D02*
X28744Y-58104D01*
X28744Y-58104D02*
X29444Y-58104D01*
X29444Y-58104D02*
X29444Y-58404D01*
X29444Y-58404D02*
X28744Y-58404D01*
X38030Y-49556D02*
X37730Y-49556D01*
X37730Y-49556D02*
X37730Y-48856D01*
X37730Y-48856D02*
X38030Y-48856D01*
X38030Y-48856D02*
X38030Y-49556D01*
X37530Y-49556D02*
X37230Y-49556D01*
X37230Y-49556D02*
X37230Y-48856D01*
X37230Y-48856D02*
X37530Y-48856D01*
X37530Y-48856D02*
X37530Y-49556D01*
X36800Y-49556D02*
X36500Y-49556D01*
X36500Y-49556D02*
X36500Y-48856D01*
X36500Y-48856D02*
X36800Y-48856D01*
X36800Y-48856D02*
X36800Y-49556D01*
X36300Y-49556D02*
X36000Y-49556D01*
X36000Y-49556D02*
X36000Y-48856D01*
X36000Y-48856D02*
X36300Y-48856D01*
X36300Y-48856D02*
X36300Y-49556D01*
X39525Y-49651D02*
X39225Y-49651D01*
X39225Y-49651D02*
X39225Y-48951D01*
X39225Y-48951D02*
X39525Y-48951D01*
X39525Y-48951D02*
X39525Y-49651D01*
X40025Y-49651D02*
X39725Y-49651D01*
X39725Y-49651D02*
X39725Y-48951D01*
X39725Y-48951D02*
X40025Y-48951D01*
X40025Y-48951D02*
X40025Y-49651D01*
X40755Y-49651D02*
X40455Y-49651D01*
X40455Y-49651D02*
X40455Y-48951D01*
X40455Y-48951D02*
X40755Y-48951D01*
X40755Y-48951D02*
X40755Y-49651D01*
X41255Y-49651D02*
X40955Y-49651D01*
X40955Y-49651D02*
X40955Y-48951D01*
X40955Y-48951D02*
X41255Y-48951D01*
X41255Y-48951D02*
X41255Y-49651D01*
X29450Y-66614D02*
X29450Y-66314D01*
X29450Y-66314D02*
X30150Y-66314D01*
X30150Y-66314D02*
X30150Y-66614D01*
X30150Y-66614D02*
X29450Y-66614D01*
X45725Y-54515D02*
X45725Y-54815D01*
X45725Y-54815D02*
X45025Y-54815D01*
X45025Y-54815D02*
X45025Y-54515D01*
X45025Y-54515D02*
X45725Y-54515D01*
X45725Y-54115D02*
X45725Y-54415D01*
X45725Y-54415D02*
X45025Y-54415D01*
X45025Y-54415D02*
X45025Y-54115D01*
X45025Y-54115D02*
X45725Y-54115D01*
X53172Y-63357D02*
X53172Y-63657D01*
X53172Y-63657D02*
X52472Y-63657D01*
X52472Y-63657D02*
X52472Y-63357D01*
X52472Y-63357D02*
X53172Y-63357D01*
X52882Y-62127D02*
X52882Y-62427D01*
X52882Y-62427D02*
X52182Y-62427D01*
X52182Y-62427D02*
X52182Y-62127D01*
X52182Y-62127D02*
X52882Y-62127D01*
X33001Y-54531D02*
X33001Y-54831D01*
X33001Y-54831D02*
X32301Y-54831D01*
X32301Y-54831D02*
X32301Y-54531D01*
X32301Y-54531D02*
X33001Y-54531D01*
X30201Y-56081D02*
X30501Y-56081D01*
X30501Y-56081D02*
X30501Y-56781D01*
X30501Y-56781D02*
X30201Y-56781D01*
X30201Y-56781D02*
X30201Y-56081D01*
X34920Y-55570D02*
X34920Y-55870D01*
X34920Y-55870D02*
X34220Y-55870D01*
X34220Y-55870D02*
X34220Y-55570D01*
X34220Y-55570D02*
X34920Y-55570D01*
X39980Y-65260D02*
X39980Y-64960D01*
X39980Y-64960D02*
X40680Y-64960D01*
X40680Y-64960D02*
X40680Y-65260D01*
X40680Y-65260D02*
X39980Y-65260D01*
X38134Y-65311D02*
X38134Y-65611D01*
X38134Y-65611D02*
X37434Y-65611D01*
X37434Y-65611D02*
X37434Y-65311D01*
X37434Y-65311D02*
X38134Y-65311D01*
X39720Y-59170D02*
X40020Y-59170D01*
X40020Y-59170D02*
X40020Y-59870D01*
X40020Y-59870D02*
X39720Y-59870D01*
X39720Y-59870D02*
X39720Y-59170D01*
X36638Y-56838D02*
X36338Y-56838D01*
X36338Y-56838D02*
X36338Y-56138D01*
X36338Y-56138D02*
X36638Y-56138D01*
X36638Y-56138D02*
X36638Y-56838D01*
X38614Y-64311D02*
X38614Y-64611D01*
X38614Y-64611D02*
X37914Y-64611D01*
X37914Y-64611D02*
X37914Y-64311D01*
X37914Y-64311D02*
X38614Y-64311D01*
X30701Y-54831D02*
X30701Y-54531D01*
X30701Y-54531D02*
X31401Y-54531D01*
X31401Y-54531D02*
X31401Y-54831D01*
X31401Y-54831D02*
X30701Y-54831D01*
X31401Y-55731D02*
X31401Y-56031D01*
X31401Y-56031D02*
X30701Y-56031D01*
X30701Y-56031D02*
X30701Y-55731D01*
X30701Y-55731D02*
X31401Y-55731D01*
X38614Y-64761D02*
X38614Y-65061D01*
X38614Y-65061D02*
X37914Y-65061D01*
X37914Y-65061D02*
X37914Y-64761D01*
X37914Y-64761D02*
X38614Y-64761D01*
X29341Y-54761D02*
X29341Y-54461D01*
X29341Y-54461D02*
X30041Y-54461D01*
X30041Y-54461D02*
X30041Y-54761D01*
X30041Y-54761D02*
X29341Y-54761D01*
X33201Y-53781D02*
X33501Y-53781D01*
X33501Y-53781D02*
X33501Y-54481D01*
X33501Y-54481D02*
X33201Y-54481D01*
X33201Y-54481D02*
X33201Y-53781D01*
X29611Y-55731D02*
X29911Y-55731D01*
X29911Y-55731D02*
X29911Y-56431D01*
X29911Y-56431D02*
X29611Y-56431D01*
X29611Y-56431D02*
X29611Y-55731D01*
X51734Y-64694D02*
X52034Y-64694D01*
X52034Y-64694D02*
X52034Y-65394D01*
X52034Y-65394D02*
X51734Y-65394D01*
X51734Y-65394D02*
X51734Y-64694D01*
X50084Y-66294D02*
X50084Y-65994D01*
X50084Y-65994D02*
X50784Y-65994D01*
X50784Y-65994D02*
X50784Y-66294D01*
X50784Y-66294D02*
X50084Y-66294D01*
X49722Y-50247D02*
X50022Y-50247D01*
X50022Y-50247D02*
X50022Y-50947D01*
X50022Y-50947D02*
X49722Y-50947D01*
X49722Y-50947D02*
X49722Y-50247D01*
X50122Y-50247D02*
X50422Y-50247D01*
X50422Y-50247D02*
X50422Y-50947D01*
X50422Y-50947D02*
X50122Y-50947D01*
X50122Y-50947D02*
X50122Y-50247D01*
X34988Y-56338D02*
X34988Y-56638D01*
X34988Y-56638D02*
X34288Y-56638D01*
X34288Y-56638D02*
X34288Y-56338D01*
X34288Y-56338D02*
X34988Y-56338D01*
X35614Y-64541D02*
X35314Y-64541D01*
X35314Y-64541D02*
X35314Y-63841D01*
X35314Y-63841D02*
X35614Y-63841D01*
X35614Y-63841D02*
X35614Y-64541D01*
X36814Y-64541D02*
X36514Y-64541D01*
X36514Y-64541D02*
X36514Y-63841D01*
X36514Y-63841D02*
X36814Y-63841D01*
X36814Y-63841D02*
X36814Y-64541D01*
X36414Y-64541D02*
X36114Y-64541D01*
X36114Y-64541D02*
X36114Y-63841D01*
X36114Y-63841D02*
X36414Y-63841D01*
X36414Y-63841D02*
X36414Y-64541D01*
X36204Y-59621D02*
X36504Y-59621D01*
X36504Y-59621D02*
X36504Y-60321D01*
X36504Y-60321D02*
X36204Y-60321D01*
X36204Y-60321D02*
X36204Y-59621D01*
X36604Y-59621D02*
X36904Y-59621D01*
X36904Y-59621D02*
X36904Y-60321D01*
X36904Y-60321D02*
X36604Y-60321D01*
X36604Y-60321D02*
X36604Y-59621D01*
X41809Y-66518D02*
X41809Y-66218D01*
X41809Y-66218D02*
X42509Y-66218D01*
X42509Y-66218D02*
X42509Y-66518D01*
X42509Y-66518D02*
X41809Y-66518D01*
X45000Y-61550D02*
X44700Y-61550D01*
X44700Y-61550D02*
X44700Y-60850D01*
X44700Y-60850D02*
X45000Y-60850D01*
X45000Y-60850D02*
X45000Y-61550D01*
X33472Y-58377D02*
X33772Y-58377D01*
X33772Y-58377D02*
X33772Y-59077D01*
X33772Y-59077D02*
X33472Y-59077D01*
X33472Y-59077D02*
X33472Y-58377D01*
X50522Y-50247D02*
X50822Y-50247D01*
X50822Y-50247D02*
X50822Y-50947D01*
X50822Y-50947D02*
X50522Y-50947D01*
X50522Y-50947D02*
X50522Y-50247D01*
X33201Y-56131D02*
X33501Y-56131D01*
X33501Y-56131D02*
X33501Y-56831D01*
X33501Y-56831D02*
X33201Y-56831D01*
X33201Y-56831D02*
X33201Y-56131D01*
X34714Y-60911D02*
X34414Y-60911D01*
X34414Y-60911D02*
X34414Y-60211D01*
X34414Y-60211D02*
X34714Y-60211D01*
X34714Y-60211D02*
X34714Y-60911D01*
X34514Y-59561D02*
X34514Y-59261D01*
X34514Y-59261D02*
X35214Y-59261D01*
X35214Y-59261D02*
X35214Y-59561D01*
X35214Y-59561D02*
X34514Y-59561D01*
X35414Y-59761D02*
X35714Y-59761D01*
X35714Y-59761D02*
X35714Y-60461D01*
X35714Y-60461D02*
X35414Y-60461D01*
X35414Y-60461D02*
X35414Y-59761D01*
X36114Y-59261D02*
X36114Y-59561D01*
X36114Y-59561D02*
X35414Y-59561D01*
X35414Y-59561D02*
X35414Y-59261D01*
X35414Y-59261D02*
X36114Y-59261D01*
X41779Y-64278D02*
X42079Y-64278D01*
X42079Y-64278D02*
X42079Y-64978D01*
X42079Y-64978D02*
X41779Y-64978D01*
X41779Y-64978D02*
X41779Y-64278D01*
X33001Y-55731D02*
X33001Y-56031D01*
X33001Y-56031D02*
X32301Y-56031D01*
X32301Y-56031D02*
X32301Y-55731D01*
X32301Y-55731D02*
X33001Y-55731D01*
X54672Y-48847D02*
X54672Y-48547D01*
X54672Y-48547D02*
X55372Y-48547D01*
X55372Y-48547D02*
X55372Y-48847D01*
X55372Y-48847D02*
X54672Y-48847D01*
X25172Y-45797D02*
X25172Y-46097D01*
X25172Y-46097D02*
X24472Y-46097D01*
X24472Y-46097D02*
X24472Y-45797D01*
X24472Y-45797D02*
X25172Y-45797D01*
X25272Y-57747D02*
X25272Y-58047D01*
X25272Y-58047D02*
X24572Y-58047D01*
X24572Y-58047D02*
X24572Y-57747D01*
X24572Y-57747D02*
X25272Y-57747D01*
X25272Y-55947D02*
X25272Y-56247D01*
X25272Y-56247D02*
X24572Y-56247D01*
X24572Y-56247D02*
X24572Y-55947D01*
X24572Y-55947D02*
X25272Y-55947D01*
X25272Y-54147D02*
X25272Y-54447D01*
X25272Y-54447D02*
X24572Y-54447D01*
X24572Y-54447D02*
X24572Y-54147D01*
X24572Y-54147D02*
X25272Y-54147D01*
X62393Y-50196D02*
X62605Y-50409D01*
X62605Y-50409D02*
X62110Y-50903D01*
X62110Y-50903D02*
X61898Y-50691D01*
X61898Y-50691D02*
X62393Y-50196D01*
X54672Y-49347D02*
X54672Y-49047D01*
X54672Y-49047D02*
X55372Y-49047D01*
X55372Y-49047D02*
X55372Y-49347D01*
X55372Y-49347D02*
X54672Y-49347D01*
X25272Y-50797D02*
X25272Y-51097D01*
X25272Y-51097D02*
X24572Y-51097D01*
X24572Y-51097D02*
X24572Y-50797D01*
X24572Y-50797D02*
X25272Y-50797D01*
X61402Y-46137D02*
X61402Y-45837D01*
X61402Y-45837D02*
X62102Y-45837D01*
X62102Y-45837D02*
X62102Y-46137D01*
X62102Y-46137D02*
X61402Y-46137D01*
X60892Y-47337D02*
X61192Y-47337D01*
X61192Y-47337D02*
X61192Y-48037D01*
X61192Y-48037D02*
X60892Y-48037D01*
X60892Y-48037D02*
X60892Y-47337D01*
X61642Y-47607D02*
X61342Y-47607D01*
X61342Y-47607D02*
X61342Y-46907D01*
X61342Y-46907D02*
X61642Y-46907D01*
X61642Y-46907D02*
X61642Y-47607D01*
X55172Y-61717D02*
X55172Y-61417D01*
X55172Y-61417D02*
X55872Y-61417D01*
X55872Y-61417D02*
X55872Y-61717D01*
X55872Y-61717D02*
X55172Y-61717D01*
X54900Y-47320D02*
X54900Y-47020D01*
X54900Y-47020D02*
X55600Y-47020D01*
X55600Y-47020D02*
X55600Y-47320D01*
X55600Y-47320D02*
X54900Y-47320D01*
X50940Y-50240D02*
X51240Y-50240D01*
X51240Y-50240D02*
X51240Y-50940D01*
X51240Y-50940D02*
X50940Y-50940D01*
X50940Y-50940D02*
X50940Y-50240D01*
X55172Y-61247D02*
X55172Y-60947D01*
X55172Y-60947D02*
X55872Y-60947D01*
X55872Y-60947D02*
X55872Y-61247D01*
X55872Y-61247D02*
X55172Y-61247D01*
X51340Y-50240D02*
X51640Y-50240D01*
X51640Y-50240D02*
X51640Y-50940D01*
X51640Y-50940D02*
X51340Y-50940D01*
X51340Y-50940D02*
X51340Y-50240D01*
X51740Y-50240D02*
X52040Y-50240D01*
X52040Y-50240D02*
X52040Y-50940D01*
X52040Y-50940D02*
X51740Y-50940D01*
X51740Y-50940D02*
X51740Y-50240D01*
X52140Y-50240D02*
X52440Y-50240D01*
X52440Y-50240D02*
X52440Y-50940D01*
X52440Y-50940D02*
X52140Y-50940D01*
X52140Y-50940D02*
X52140Y-50240D01*
X52742Y-50227D02*
X53042Y-50227D01*
X53042Y-50227D02*
X53042Y-50927D01*
X53042Y-50927D02*
X52742Y-50927D01*
X52742Y-50927D02*
X52742Y-50227D01*
X54900Y-47720D02*
X54900Y-47420D01*
X54900Y-47420D02*
X55600Y-47420D01*
X55600Y-47420D02*
X55600Y-47720D01*
X55600Y-47720D02*
X54900Y-47720D01*
X67944Y-42825D02*
X67944Y-42525D01*
X67944Y-42525D02*
X68644Y-42525D01*
X68644Y-42525D02*
X68644Y-42825D01*
X68644Y-42825D02*
X67944Y-42825D01*
X54900Y-46920D02*
X54900Y-46620D01*
X54900Y-46620D02*
X55600Y-46620D01*
X55600Y-46620D02*
X55600Y-46920D01*
X55600Y-46920D02*
X54900Y-46920D01*
X54900Y-46520D02*
X54900Y-46220D01*
X54900Y-46220D02*
X55600Y-46220D01*
X55600Y-46220D02*
X55600Y-46520D01*
X55600Y-46520D02*
X54900Y-46520D01*
X54900Y-46120D02*
X54900Y-45820D01*
X54900Y-45820D02*
X55600Y-45820D01*
X55600Y-45820D02*
X55600Y-46120D01*
X55600Y-46120D02*
X54900Y-46120D01*
X54900Y-45720D02*
X54900Y-45420D01*
X54900Y-45420D02*
X55600Y-45420D01*
X55600Y-45420D02*
X55600Y-45720D01*
X55600Y-45720D02*
X54900Y-45720D01*
X54900Y-45320D02*
X54900Y-45020D01*
X54900Y-45020D02*
X55600Y-45020D01*
X55600Y-45020D02*
X55600Y-45320D01*
X55600Y-45320D02*
X54900Y-45320D01*
X47692Y-64207D02*
X47692Y-63907D01*
X47692Y-63907D02*
X48392Y-63907D01*
X48392Y-63907D02*
X48392Y-64207D01*
X48392Y-64207D02*
X47692Y-64207D01*
X41205Y-48551D02*
X41205Y-48851D01*
X41205Y-48851D02*
X40505Y-48851D01*
X40505Y-48851D02*
X40505Y-48551D01*
X40505Y-48551D02*
X41205Y-48551D01*
X43475Y-58815D02*
X43175Y-58815D01*
X43175Y-58815D02*
X43175Y-58115D01*
X43175Y-58115D02*
X43475Y-58115D01*
X43475Y-58115D02*
X43475Y-58815D01*
X43925Y-53315D02*
X44225Y-53315D01*
X44225Y-53315D02*
X44225Y-54015D01*
X44225Y-54015D02*
X43925Y-54015D01*
X43925Y-54015D02*
X43925Y-53315D01*
X40980Y-47746D02*
X41280Y-47746D01*
X41280Y-47746D02*
X41280Y-48446D01*
X41280Y-48446D02*
X40980Y-48446D01*
X40980Y-48446D02*
X40980Y-47746D01*
X40480Y-47746D02*
X40780Y-47746D01*
X40780Y-47746D02*
X40780Y-48446D01*
X40780Y-48446D02*
X40480Y-48446D01*
X40480Y-48446D02*
X40480Y-47746D01*
X39750Y-47746D02*
X40050Y-47746D01*
X40050Y-47746D02*
X40050Y-48446D01*
X40050Y-48446D02*
X39750Y-48446D01*
X39750Y-48446D02*
X39750Y-47746D01*
X39250Y-47746D02*
X39550Y-47746D01*
X39550Y-47746D02*
X39550Y-48446D01*
X39550Y-48446D02*
X39250Y-48446D01*
X39250Y-48446D02*
X39250Y-47746D01*
X43875Y-58815D02*
X43575Y-58815D01*
X43575Y-58815D02*
X43575Y-58115D01*
X43575Y-58115D02*
X43875Y-58115D01*
X43875Y-58115D02*
X43875Y-58815D01*
X44925Y-54815D02*
X44625Y-54815D01*
X44625Y-54815D02*
X44625Y-54115D01*
X44625Y-54115D02*
X44925Y-54115D01*
X44925Y-54115D02*
X44925Y-54815D01*
X48634Y-65494D02*
X48334Y-65494D01*
X48334Y-65494D02*
X48334Y-64794D01*
X48334Y-64794D02*
X48634Y-64794D01*
X48634Y-64794D02*
X48634Y-65494D01*
X46125Y-54815D02*
X45825Y-54815D01*
X45825Y-54815D02*
X45825Y-54115D01*
X45825Y-54115D02*
X46125Y-54115D01*
X46125Y-54115D02*
X46125Y-54815D01*
X48002Y-63777D02*
X48002Y-63477D01*
X48002Y-63477D02*
X48702Y-63477D01*
X48702Y-63477D02*
X48702Y-63777D01*
X48702Y-63777D02*
X48002Y-63777D01*
X47232Y-63357D02*
X47232Y-63057D01*
X47232Y-63057D02*
X47932Y-63057D01*
X47932Y-63057D02*
X47932Y-63357D01*
X47932Y-63357D02*
X47232Y-63357D01*
X50734Y-62044D02*
X51034Y-62044D01*
X51034Y-62044D02*
X51034Y-62744D01*
X51034Y-62744D02*
X50734Y-62744D01*
X50734Y-62744D02*
X50734Y-62044D01*
X51672Y-62887D02*
X51972Y-62887D01*
X51972Y-62887D02*
X51972Y-63587D01*
X51972Y-63587D02*
X51672Y-63587D01*
X51672Y-63587D02*
X51672Y-62887D01*
X42675Y-58815D02*
X42375Y-58815D01*
X42375Y-58815D02*
X42375Y-58115D01*
X42375Y-58115D02*
X42675Y-58115D01*
X42675Y-58115D02*
X42675Y-58815D01*
X49192Y-62477D02*
X49192Y-62177D01*
X49192Y-62177D02*
X49892Y-62177D01*
X49892Y-62177D02*
X49892Y-62477D01*
X49892Y-62477D02*
X49192Y-62477D01*
X43260Y-44361D02*
X43260Y-44661D01*
X43260Y-44661D02*
X42560Y-44661D01*
X42560Y-44661D02*
X42560Y-44361D01*
X42560Y-44361D02*
X43260Y-44361D01*
X43260Y-43961D02*
X43260Y-44261D01*
X43260Y-44261D02*
X42560Y-44261D01*
X42560Y-44261D02*
X42560Y-43961D01*
X42560Y-43961D02*
X43260Y-43961D01*
X67944Y-46525D02*
X67944Y-46225D01*
X67944Y-46225D02*
X68644Y-46225D01*
X68644Y-46225D02*
X68644Y-46525D01*
X68644Y-46525D02*
X67944Y-46525D01*
X59034Y-48393D02*
X59246Y-48181D01*
X59246Y-48181D02*
X59741Y-48676D01*
X59741Y-48676D02*
X59529Y-48888D01*
X59529Y-48888D02*
X59034Y-48393D01*
X56312Y-49206D02*
X56524Y-48994D01*
X56524Y-48994D02*
X57019Y-49489D01*
X57019Y-49489D02*
X56807Y-49701D01*
X56807Y-49701D02*
X56312Y-49206D01*
X53802Y-51717D02*
X54014Y-51505D01*
X54014Y-51505D02*
X54509Y-52000D01*
X54509Y-52000D02*
X54297Y-52212D01*
X54297Y-52212D02*
X53802Y-51717D01*
X51972Y-54087D02*
X51972Y-53787D01*
X51972Y-53787D02*
X52672Y-53787D01*
X52672Y-53787D02*
X52672Y-54087D01*
X52672Y-54087D02*
X51972Y-54087D01*
X52810Y-57721D02*
X52598Y-57509D01*
X52598Y-57509D02*
X53093Y-57014D01*
X53093Y-57014D02*
X53305Y-57226D01*
X53305Y-57226D02*
X52810Y-57721D01*
X55145Y-59990D02*
X54933Y-59778D01*
X54933Y-59778D02*
X55428Y-59283D01*
X55428Y-59283D02*
X55640Y-59495D01*
X55640Y-59495D02*
X55145Y-59990D01*
X56948Y-61793D02*
X56736Y-61581D01*
X56736Y-61581D02*
X57231Y-61086D01*
X57231Y-61086D02*
X57443Y-61298D01*
X57443Y-61298D02*
X56948Y-61793D01*
X60908Y-61439D02*
X60696Y-61652D01*
X60696Y-61652D02*
X60201Y-61157D01*
X60201Y-61157D02*
X60413Y-60944D01*
X60413Y-60944D02*
X60908Y-61439D01*
X63135Y-59212D02*
X62923Y-59424D01*
X62923Y-59424D02*
X62428Y-58929D01*
X62428Y-58929D02*
X62640Y-58717D01*
X62640Y-58717D02*
X63135Y-59212D01*
X63701Y-58646D02*
X63489Y-58858D01*
X63489Y-58858D02*
X62994Y-58363D01*
X62994Y-58363D02*
X63206Y-58151D01*
X63206Y-58151D02*
X63701Y-58646D01*
X64514Y-57833D02*
X64302Y-58045D01*
X64302Y-58045D02*
X63807Y-57550D01*
X63807Y-57550D02*
X64019Y-57338D01*
X64019Y-57338D02*
X64514Y-57833D01*
X44925Y-57515D02*
X44625Y-57515D01*
X44625Y-57515D02*
X44625Y-56815D01*
X44625Y-56815D02*
X44925Y-56815D01*
X44925Y-56815D02*
X44925Y-57515D01*
X39710Y-47026D02*
X39410Y-47026D01*
X39410Y-47026D02*
X39410Y-46326D01*
X39410Y-46326D02*
X39710Y-46326D01*
X39710Y-46326D02*
X39710Y-47026D01*
X39310Y-47026D02*
X39010Y-47026D01*
X39010Y-47026D02*
X39010Y-46326D01*
X39010Y-46326D02*
X39310Y-46326D01*
X39310Y-46326D02*
X39310Y-47026D01*
X40860Y-47026D02*
X40560Y-47026D01*
X40560Y-47026D02*
X40560Y-46326D01*
X40560Y-46326D02*
X40860Y-46326D01*
X40860Y-46326D02*
X40860Y-47026D01*
X40460Y-47026D02*
X40160Y-47026D01*
X40160Y-47026D02*
X40160Y-46326D01*
X40160Y-46326D02*
X40460Y-46326D01*
X40460Y-46326D02*
X40460Y-47026D01*
X41660Y-47026D02*
X41360Y-47026D01*
X41360Y-47026D02*
X41360Y-46326D01*
X41360Y-46326D02*
X41660Y-46326D01*
X41660Y-46326D02*
X41660Y-47026D01*
X42060Y-47026D02*
X41760Y-47026D01*
X41760Y-47026D02*
X41760Y-46326D01*
X41760Y-46326D02*
X42060Y-46326D01*
X42060Y-46326D02*
X42060Y-47026D01*
X39860Y-41526D02*
X40160Y-41526D01*
X40160Y-41526D02*
X40160Y-42226D01*
X40160Y-42226D02*
X39860Y-42226D01*
X39860Y-42226D02*
X39860Y-41526D01*
X39460Y-41526D02*
X39760Y-41526D01*
X39760Y-41526D02*
X39760Y-42226D01*
X39760Y-42226D02*
X39460Y-42226D01*
X39460Y-42226D02*
X39460Y-41526D01*
X37735Y-43651D02*
X37735Y-43351D01*
X37735Y-43351D02*
X38435Y-43351D01*
X38435Y-43351D02*
X38435Y-43651D01*
X38435Y-43651D02*
X37735Y-43651D01*
X38135Y-42501D02*
X38435Y-42501D01*
X38435Y-42501D02*
X38435Y-43201D01*
X38435Y-43201D02*
X38135Y-43201D01*
X38135Y-43201D02*
X38135Y-42501D01*
X37485Y-44701D02*
X37485Y-44401D01*
X37485Y-44401D02*
X38185Y-44401D01*
X38185Y-44401D02*
X38185Y-44701D01*
X38185Y-44701D02*
X37485Y-44701D01*
X37485Y-44301D02*
X37485Y-44001D01*
X37485Y-44001D02*
X38185Y-44001D01*
X38185Y-44001D02*
X38185Y-44301D01*
X38185Y-44301D02*
X37485Y-44301D01*
X37585Y-45551D02*
X37585Y-45251D01*
X37585Y-45251D02*
X38285Y-45251D01*
X38285Y-45251D02*
X38285Y-45551D01*
X38285Y-45551D02*
X37585Y-45551D01*
X41875Y-58415D02*
X41575Y-58415D01*
X41575Y-58415D02*
X41575Y-57715D01*
X41575Y-57715D02*
X41875Y-57715D01*
X41875Y-57715D02*
X41875Y-58415D01*
X43075Y-58415D02*
X42775Y-58415D01*
X42775Y-58415D02*
X42775Y-57715D01*
X42775Y-57715D02*
X43075Y-57715D01*
X43075Y-57715D02*
X43075Y-58415D01*
X65080Y-57267D02*
X64868Y-57480D01*
X64868Y-57480D02*
X64373Y-56985D01*
X64373Y-56985D02*
X64585Y-56772D01*
X64585Y-56772D02*
X65080Y-57267D01*
X45325Y-55715D02*
X45325Y-56015D01*
X45325Y-56015D02*
X44625Y-56015D01*
X44625Y-56015D02*
X44625Y-55715D01*
X44625Y-55715D02*
X45325Y-55715D01*
X45625Y-55315D02*
X45625Y-55615D01*
X45625Y-55615D02*
X44925Y-55615D01*
X44925Y-55615D02*
X44925Y-55315D01*
X44925Y-55315D02*
X45625Y-55315D01*
X45325Y-54915D02*
X45325Y-55215D01*
X45325Y-55215D02*
X44625Y-55215D01*
X44625Y-55215D02*
X44625Y-54915D01*
X44625Y-54915D02*
X45325Y-54915D01*
X43125Y-53315D02*
X43425Y-53315D01*
X43425Y-53315D02*
X43425Y-54015D01*
X43425Y-54015D02*
X43125Y-54015D01*
X43125Y-54015D02*
X43125Y-53315D01*
X43525Y-53315D02*
X43825Y-53315D01*
X43825Y-53315D02*
X43825Y-54015D01*
X43825Y-54015D02*
X43525Y-54015D01*
X43525Y-54015D02*
X43525Y-53315D01*
X40225Y-55315D02*
X40225Y-55015D01*
X40225Y-55015D02*
X40925Y-55015D01*
X40925Y-55015D02*
X40925Y-55315D01*
X40925Y-55315D02*
X40225Y-55315D01*
X40225Y-55715D02*
X40225Y-55415D01*
X40225Y-55415D02*
X40925Y-55415D01*
X40925Y-55415D02*
X40925Y-55715D01*
X40925Y-55715D02*
X40225Y-55715D01*
X40225Y-56665D02*
X40225Y-56365D01*
X40225Y-56365D02*
X40925Y-56365D01*
X40925Y-56365D02*
X40925Y-56665D01*
X40925Y-56665D02*
X40225Y-56665D01*
X36750Y-48456D02*
X36750Y-48756D01*
X36750Y-48756D02*
X36050Y-48756D01*
X36050Y-48756D02*
X36050Y-48456D01*
X36050Y-48456D02*
X36750Y-48456D01*
X37980Y-48456D02*
X37980Y-48756D01*
X37980Y-48756D02*
X37280Y-48756D01*
X37280Y-48756D02*
X37280Y-48456D01*
X37280Y-48456D02*
X37980Y-48456D01*
X38110Y-47026D02*
X37810Y-47026D01*
X37810Y-47026D02*
X37810Y-46326D01*
X37810Y-46326D02*
X38110Y-46326D01*
X38110Y-46326D02*
X38110Y-47026D01*
X38510Y-47026D02*
X38210Y-47026D01*
X38210Y-47026D02*
X38210Y-46326D01*
X38210Y-46326D02*
X38510Y-46326D01*
X38510Y-46326D02*
X38510Y-47026D01*
X42275Y-58815D02*
X41975Y-58815D01*
X41975Y-58815D02*
X41975Y-58115D01*
X41975Y-58115D02*
X42275Y-58115D01*
X42275Y-58115D02*
X42275Y-58815D01*
X38910Y-47026D02*
X38610Y-47026D01*
X38610Y-47026D02*
X38610Y-46326D01*
X38610Y-46326D02*
X38910Y-46326D01*
X38910Y-46326D02*
X38910Y-47026D01*
X39975Y-48551D02*
X39975Y-48851D01*
X39975Y-48851D02*
X39275Y-48851D01*
X39275Y-48851D02*
X39275Y-48551D01*
X39275Y-48551D02*
X39975Y-48551D01*
X27444Y-60354D02*
X27444Y-60054D01*
X27444Y-60054D02*
X28144Y-60054D01*
X28144Y-60054D02*
X28144Y-60354D01*
X28144Y-60354D02*
X27444Y-60354D01*
X47819Y-65033D02*
X47519Y-65033D01*
X47519Y-65033D02*
X47519Y-64333D01*
X47519Y-64333D02*
X47819Y-64333D01*
X47819Y-64333D02*
X47819Y-65033D01*
X27844Y-61204D02*
X27844Y-61504D01*
X27844Y-61504D02*
X27144Y-61504D01*
X27144Y-61504D02*
X27144Y-61204D01*
X27144Y-61204D02*
X27844Y-61204D01*
X27844Y-62054D02*
X27844Y-62354D01*
X27844Y-62354D02*
X27144Y-62354D01*
X27144Y-62354D02*
X27144Y-62054D01*
X27144Y-62054D02*
X27844Y-62054D01*
X27642Y-63535D02*
X27642Y-63235D01*
X27642Y-63235D02*
X28342Y-63235D01*
X28342Y-63235D02*
X28342Y-63535D01*
X28342Y-63535D02*
X27642Y-63535D01*
X28924Y-64224D02*
X28624Y-64224D01*
X28624Y-64224D02*
X28624Y-63524D01*
X28624Y-63524D02*
X28924Y-63524D01*
X28924Y-63524D02*
X28924Y-64224D01*
X30094Y-62854D02*
X30094Y-63154D01*
X30094Y-63154D02*
X29394Y-63154D01*
X29394Y-63154D02*
X29394Y-62854D01*
X29394Y-62854D02*
X30094Y-62854D01*
X29914Y-61194D02*
X30214Y-61194D01*
X30214Y-61194D02*
X30214Y-61894D01*
X30214Y-61894D02*
X29914Y-61894D01*
X29914Y-61894D02*
X29914Y-61194D01*
X29894Y-59454D02*
X29894Y-59754D01*
X29894Y-59754D02*
X29194Y-59754D01*
X29194Y-59754D02*
X29194Y-59454D01*
X29194Y-59454D02*
X29894Y-59454D01*
X31744Y-61154D02*
X31744Y-61454D01*
X31744Y-61454D02*
X31044Y-61454D01*
X31044Y-61454D02*
X31044Y-61154D01*
X31044Y-61154D02*
X31744Y-61154D01*
X28044Y-61504D02*
X28344Y-61504D01*
X28344Y-61504D02*
X28344Y-62204D01*
X28344Y-62204D02*
X28044Y-62204D01*
X28044Y-62204D02*
X28044Y-61504D01*
X30100Y-58480D02*
X30400Y-58480D01*
X30400Y-58480D02*
X30400Y-59180D01*
X30400Y-59180D02*
X30100Y-59180D01*
X30100Y-59180D02*
X30100Y-58480D01*
X42130Y-60620D02*
X42430Y-60620D01*
X42430Y-60620D02*
X42430Y-61320D01*
X42430Y-61320D02*
X42130Y-61320D01*
X42130Y-61320D02*
X42130Y-60620D01*
X31994Y-60254D02*
X31994Y-60554D01*
X31994Y-60554D02*
X31294Y-60554D01*
X31294Y-60554D02*
X31294Y-60254D01*
X31294Y-60254D02*
X31994Y-60254D01*
X40250Y-63010D02*
X40250Y-62710D01*
X40250Y-62710D02*
X40950Y-62710D01*
X40950Y-62710D02*
X40950Y-63010D01*
X40950Y-63010D02*
X40250Y-63010D01*
X27582Y-58417D02*
X27582Y-58117D01*
X27582Y-58117D02*
X28282Y-58117D01*
X28282Y-58117D02*
X28282Y-58417D01*
X28282Y-58417D02*
X27582Y-58417D01*
X41674Y-62919D02*
X41674Y-62619D01*
X41674Y-62619D02*
X42374Y-62619D01*
X42374Y-62619D02*
X42374Y-62919D01*
X42374Y-62919D02*
X41674Y-62919D01*
X30144Y-60054D02*
X30144Y-60354D01*
X30144Y-60354D02*
X29444Y-60354D01*
X29444Y-60354D02*
X29444Y-60054D01*
X29444Y-60054D02*
X30144Y-60054D01*
X39854Y-61861D02*
X39554Y-61861D01*
X39554Y-61861D02*
X39554Y-61161D01*
X39554Y-61161D02*
X39854Y-61161D01*
X39854Y-61161D02*
X39854Y-61861D01*
X42660Y-60280D02*
X42960Y-60280D01*
X42960Y-60280D02*
X42960Y-60980D01*
X42960Y-60980D02*
X42660Y-60980D01*
X42660Y-60980D02*
X42660Y-60280D01*
X44010Y-61290D02*
X44310Y-61290D01*
X44310Y-61290D02*
X44310Y-61990D01*
X44310Y-61990D02*
X44010Y-61990D01*
X44010Y-61990D02*
X44010Y-61290D01*
X47819Y-65833D02*
X47519Y-65833D01*
X47519Y-65833D02*
X47519Y-65133D01*
X47519Y-65133D02*
X47819Y-65133D01*
X47819Y-65133D02*
X47819Y-65833D01*
X40740Y-61130D02*
X40740Y-61430D01*
X40740Y-61430D02*
X40040Y-61430D01*
X40040Y-61430D02*
X40040Y-61130D01*
X40040Y-61130D02*
X40740Y-61130D01*
X31220Y-58480D02*
X31520Y-58480D01*
X31520Y-58480D02*
X31520Y-59180D01*
X31520Y-59180D02*
X31220Y-59180D01*
X31220Y-59180D02*
X31220Y-58480D01*
X28000Y-57400D02*
X28000Y-57100D01*
X28000Y-57100D02*
X28700Y-57100D01*
X28700Y-57100D02*
X28700Y-57400D01*
X28700Y-57400D02*
X28000Y-57400D01*
X38254Y-61061D02*
X38254Y-60761D01*
X38254Y-60761D02*
X38954Y-60761D01*
X38954Y-60761D02*
X38954Y-61061D01*
X38954Y-61061D02*
X38254Y-61061D01*
X39454Y-63561D02*
X39454Y-63861D01*
X39454Y-63861D02*
X38754Y-63861D01*
X38754Y-63861D02*
X38754Y-63561D01*
X38754Y-63561D02*
X39454Y-63561D01*
X28871Y-56571D02*
X28871Y-56871D01*
X28871Y-56871D02*
X28171Y-56871D01*
X28171Y-56871D02*
X28171Y-56571D01*
X28171Y-56571D02*
X28871Y-56571D01*
X31860Y-57660D02*
X32160Y-57660D01*
X32160Y-57660D02*
X32160Y-58360D01*
X32160Y-58360D02*
X31860Y-58360D01*
X31860Y-58360D02*
X31860Y-57660D01*
X28871Y-56081D02*
X28871Y-56381D01*
X28871Y-56381D02*
X28171Y-56381D01*
X28171Y-56381D02*
X28171Y-56081D01*
X28171Y-56081D02*
X28871Y-56081D01*
X36554Y-59171D02*
X36554Y-58871D01*
X36554Y-58871D02*
X37254Y-58871D01*
X37254Y-58871D02*
X37254Y-59171D01*
X37254Y-59171D02*
X36554Y-59171D01*
X65257Y-51505D02*
X65045Y-51717D01*
X65045Y-51717D02*
X64550Y-51222D01*
X64550Y-51222D02*
X64762Y-51010D01*
X64762Y-51010D02*
X65257Y-51505D01*
X65292Y-53873D02*
X65080Y-54085D01*
X65080Y-54085D02*
X64585Y-53590D01*
X64585Y-53590D02*
X64797Y-53378D01*
X64797Y-53378D02*
X65292Y-53873D01*
X62075Y-49878D02*
X62287Y-50090D01*
X62287Y-50090D02*
X61792Y-50585D01*
X61792Y-50585D02*
X61580Y-50373D01*
X61580Y-50373D02*
X62075Y-49878D01*
X63171Y-51045D02*
X63383Y-51257D01*
X63383Y-51257D02*
X62888Y-51752D01*
X62888Y-51752D02*
X62676Y-51540D01*
X62676Y-51540D02*
X63171Y-51045D01*
X60130Y-63370D02*
X60130Y-63070D01*
X60130Y-63070D02*
X60830Y-63070D01*
X60830Y-63070D02*
X60830Y-63370D01*
X60830Y-63370D02*
X60130Y-63370D01*
X68194Y-44475D02*
X67894Y-44475D01*
X67894Y-44475D02*
X67894Y-43775D01*
X67894Y-43775D02*
X68194Y-43775D01*
X68194Y-43775D02*
X68194Y-44475D01*
X54350Y-46870D02*
X54050Y-46870D01*
X54050Y-46870D02*
X54050Y-46170D01*
X54050Y-46170D02*
X54350Y-46170D01*
X54350Y-46170D02*
X54350Y-46870D01*
X54912Y-43827D02*
X54912Y-44127D01*
X54912Y-44127D02*
X54212Y-44127D01*
X54212Y-44127D02*
X54212Y-43827D01*
X54212Y-43827D02*
X54912Y-43827D01*
X51350Y-41220D02*
X51650Y-41220D01*
X51650Y-41220D02*
X51650Y-41920D01*
X51650Y-41920D02*
X51350Y-41920D01*
X51350Y-41920D02*
X51350Y-41220D01*
X45950Y-42320D02*
X46250Y-42320D01*
X46250Y-42320D02*
X46250Y-43020D01*
X46250Y-43020D02*
X45950Y-43020D01*
X45950Y-43020D02*
X45950Y-42320D01*
X49332Y-50247D02*
X49332Y-50547D01*
X49332Y-50547D02*
X48632Y-50547D01*
X48632Y-50547D02*
X48632Y-50247D01*
X48632Y-50247D02*
X49332Y-50247D01*
X44750Y-46220D02*
X44750Y-45920D01*
X44750Y-45920D02*
X45450Y-45920D01*
X45450Y-45920D02*
X45450Y-46220D01*
X45450Y-46220D02*
X44750Y-46220D01*
X46302Y-50027D02*
X46302Y-49727D01*
X46302Y-49727D02*
X47002Y-49727D01*
X47002Y-49727D02*
X47002Y-50027D01*
X47002Y-50027D02*
X46302Y-50027D01*
X47982Y-62747D02*
X47982Y-62447D01*
X47982Y-62447D02*
X48682Y-62447D01*
X48682Y-62447D02*
X48682Y-62747D01*
X48682Y-62747D02*
X47982Y-62747D01*
X64833Y-52494D02*
X65045Y-52707D01*
X65045Y-52707D02*
X64550Y-53202D01*
X64550Y-53202D02*
X64338Y-52989D01*
X64338Y-52989D02*
X64833Y-52494D01*
X37654Y-59011D02*
X37954Y-59011D01*
X37954Y-59011D02*
X37954Y-59711D01*
X37954Y-59711D02*
X37654Y-59711D01*
X37654Y-59711D02*
X37654Y-59011D01*
X29394Y-63854D02*
X29394Y-63554D01*
X29394Y-63554D02*
X30094Y-63554D01*
X30094Y-63554D02*
X30094Y-63854D01*
X30094Y-63854D02*
X29394Y-63854D01*
X30900Y-66564D02*
X30600Y-66564D01*
X30600Y-66564D02*
X30600Y-65864D01*
X30600Y-65864D02*
X30900Y-65864D01*
X30900Y-65864D02*
X30900Y-66564D01*
X30544Y-64054D02*
X30544Y-64354D01*
X30544Y-64354D02*
X29844Y-64354D01*
X29844Y-64354D02*
X29844Y-64054D01*
X29844Y-64054D02*
X30544Y-64054D01*
X28144Y-59604D02*
X28144Y-59904D01*
X28144Y-59904D02*
X27444Y-59904D01*
X27444Y-59904D02*
X27444Y-59604D01*
X27444Y-59604D02*
X28144Y-59604D01*
X25912Y-63232D02*
X26212Y-63232D01*
X26212Y-63232D02*
X26212Y-63932D01*
X26212Y-63932D02*
X25912Y-63932D01*
X25912Y-63932D02*
X25912Y-63232D01*
X36014Y-64541D02*
X35714Y-64541D01*
X35714Y-64541D02*
X35714Y-63841D01*
X35714Y-63841D02*
X36014Y-63841D01*
X36014Y-63841D02*
X36014Y-64541D01*
X37814Y-63761D02*
X37814Y-64061D01*
X37814Y-64061D02*
X37114Y-64061D01*
X37114Y-64061D02*
X37114Y-63761D01*
X37114Y-63761D02*
X37814Y-63761D01*
X38504Y-62661D02*
X38204Y-62661D01*
X38204Y-62661D02*
X38204Y-61961D01*
X38204Y-61961D02*
X38504Y-61961D01*
X38504Y-61961D02*
X38504Y-62661D01*
X42675Y-58915D02*
X42675Y-59215D01*
X42675Y-59215D02*
X41975Y-59215D01*
X41975Y-59215D02*
X41975Y-58915D01*
X41975Y-58915D02*
X42675Y-58915D01*
X42675Y-57715D02*
X42675Y-58015D01*
X42675Y-58015D02*
X41975Y-58015D01*
X41975Y-58015D02*
X41975Y-57715D01*
X41975Y-57715D02*
X42675Y-57715D01*
X43875Y-58915D02*
X43875Y-59215D01*
X43875Y-59215D02*
X43175Y-59215D01*
X43175Y-59215D02*
X43175Y-58915D01*
X43175Y-58915D02*
X43875Y-58915D01*
X43875Y-57715D02*
X43875Y-58015D01*
X43875Y-58015D02*
X43175Y-58015D01*
X43175Y-58015D02*
X43175Y-57715D01*
X43175Y-57715D02*
X43875Y-57715D01*
X26572Y-48447D02*
X26872Y-48447D01*
X26872Y-48447D02*
X26872Y-49147D01*
X26872Y-49147D02*
X26572Y-49147D01*
X26572Y-49147D02*
X26572Y-48447D01*
X62996Y-61212D02*
X62996Y-60912D01*
X62996Y-60912D02*
X63696Y-60912D01*
X63696Y-60912D02*
X63696Y-61212D01*
X63696Y-61212D02*
X62996Y-61212D01*
X64129Y-59653D02*
X64129Y-59953D01*
X64129Y-59953D02*
X63429Y-59953D01*
X63429Y-59953D02*
X63429Y-59653D01*
X63429Y-59653D02*
X64129Y-59653D01*
X51952Y-66997D02*
X51652Y-66997D01*
X51652Y-66997D02*
X51652Y-66297D01*
X51652Y-66297D02*
X51952Y-66297D01*
X51952Y-66297D02*
X51952Y-66997D01*
X39241Y-62567D02*
X40067Y-62567D01*
X40067Y-62055D02*
X39241Y-62055D01*
X39939Y-62311D02*
G75*
G03X39939Y-62311I-28J0D01*
G74*
G01*
X39241Y-62055D02*
X39241Y-62567D01*
X40067Y-62055D02*
X40067Y-62567D01*
X37208Y-64198D02*
X37208Y-65024D01*
X37720Y-65024D02*
X37720Y-64198D01*
X37493Y-64867D02*
G75*
G03X37493Y-64867I-28J0D01*
G74*
G01*
X37720Y-64198D02*
X37208Y-64198D01*
X37720Y-65024D02*
X37208Y-65024D01*
X56002Y-50597D02*
G75*
G03X56002Y-50597I-280J0D01*
G74*
G01*
X45552Y-56577D02*
G75*
G03X45552Y-56577I-280J0D01*
G74*
G01*
X51530Y-66630D02*
G75*
G03X51530Y-66630I-280J0D01*
G74*
G01*
X52922Y-61317D02*
G75*
G03X52922Y-61317I-280J0D01*
G74*
G01*
X53042Y-59187D02*
G75*
G03X53042Y-59187I-280J0D01*
G74*
G01*
X38530Y-63020D02*
G75*
G03X38530Y-63020I-280J0D01*
G74*
G01*
X60629Y-47315D02*
X60629Y-44815D01*
X60629Y-47315D02*
X59289Y-47315D01*
X60629Y-44815D02*
X59289Y-44815D01*
X59289Y-44815D02*
X59289Y-47315D01*
X67444Y-43135D02*
X66044Y-43135D01*
X66044Y-43135D02*
X66044Y-42415D01*
X66044Y-42415D02*
X67444Y-42415D01*
X67444Y-42415D02*
X67444Y-43135D01*
X67444Y-42285D02*
X66044Y-42285D01*
X66044Y-42285D02*
X66044Y-41565D01*
X66044Y-41565D02*
X67444Y-41565D01*
X67444Y-41565D02*
X67444Y-42285D01*
X66044Y-45865D02*
X67444Y-45865D01*
X67444Y-45865D02*
X67444Y-46585D01*
X67444Y-46585D02*
X66044Y-46585D01*
X66044Y-46585D02*
X66044Y-45865D01*
X66044Y-45015D02*
X67444Y-45015D01*
X67444Y-45015D02*
X67444Y-45735D01*
X67444Y-45735D02*
X66044Y-45735D01*
X66044Y-45735D02*
X66044Y-45015D01*
X33740Y-48600D02*
X32340Y-48600D01*
X32340Y-48600D02*
X32340Y-47880D01*
X32340Y-47880D02*
X33740Y-47880D01*
X33740Y-47880D02*
X33740Y-48600D01*
X33952Y-49657D02*
X33952Y-48257D01*
X33952Y-48257D02*
X34672Y-48257D01*
X34672Y-48257D02*
X34672Y-49657D01*
X34672Y-49657D02*
X33952Y-49657D01*
X38992Y-41857D02*
G75*
G03X38992Y-41857I-280J0D01*
G74*
G01*
X54002Y-50497D02*
G75*
G03X54002Y-50497I-280J0D01*
G74*
G01*
X61592Y-48527D02*
G75*
G03X61592Y-48527I-279J0D01*
G74*
G01*
X61589Y-49290D02*
G75*
G03X61589Y-49290I-279J0D01*
G74*
G01*
X69054Y-43425D02*
X69054Y-44825D01*
X69054Y-44825D02*
X68334Y-44825D01*
X68334Y-44825D02*
X68334Y-43425D01*
X68334Y-43425D02*
X69054Y-43425D01*
X68022Y-48411D02*
X66622Y-48411D01*
X66622Y-48411D02*
X66622Y-47691D01*
X66622Y-47691D02*
X68022Y-47691D01*
X68022Y-47691D02*
X68022Y-48411D01*
X31148Y-62598D02*
X31148Y-61810D01*
X31148Y-61810D02*
X31640Y-61810D01*
X31640Y-61810D02*
X31640Y-62598D01*
X31640Y-62598D02*
X31148Y-62598D01*
X31552Y-62401D02*
G75*
G03X31552Y-62401I-40J0D01*
G74*
G01*
X28940Y-60610D02*
X28940Y-61398D01*
X28940Y-61398D02*
X28448Y-61398D01*
X28448Y-61398D02*
X28448Y-60610D01*
X28448Y-60610D02*
X28940Y-60610D01*
X28616Y-60807D02*
G75*
G03X28616Y-60807I-40J0D01*
G74*
G01*
X51702Y-64097D02*
X51702Y-63797D01*
X51702Y-63797D02*
X52402Y-63797D01*
X52402Y-63797D02*
X52402Y-64097D01*
X52402Y-64097D02*
X51702Y-64097D01*
G54D19*
X32882Y-46967D02*
X34082Y-46967D01*
X34082Y-46967D02*
X34082Y-47267D01*
X34082Y-47267D02*
X32882Y-47267D01*
X32882Y-47267D02*
X32882Y-46967D01*
G54D20*
X41800Y-65532D02*
G75*
G03X41800Y-65532I-55J0D01*
G74*
G01*
X41312Y-65965D02*
X41312Y-65571D01*
X41312Y-65571D02*
X41706Y-65571D01*
X41706Y-65571D02*
X41706Y-65965D01*
X41706Y-65965D02*
X41312Y-65965D01*
X38783Y-65225D02*
G75*
G03X38783Y-65225I-55J0D01*
G74*
G01*
X39161Y-65658D02*
X38767Y-65658D01*
X38767Y-65658D02*
X38767Y-65264D01*
X38767Y-65264D02*
X39161Y-65264D01*
X39161Y-65264D02*
X39161Y-65658D01*
X41143Y-62505D02*
G75*
G03X41143Y-62505I-55J0D01*
G74*
G01*
X41521Y-62072D02*
X41521Y-62466D01*
X41521Y-62466D02*
X41127Y-62466D01*
X41127Y-62466D02*
X41127Y-62072D01*
X41127Y-62072D02*
X41521Y-62072D01*
X42979Y-61289D02*
G75*
G03X42979Y-61289I-55J0D01*
G74*
G01*
X43357Y-61722D02*
X42963Y-61722D01*
X42963Y-61722D02*
X42963Y-61328D01*
X42963Y-61328D02*
X43357Y-61328D01*
X43357Y-61328D02*
X43357Y-61722D01*
X35207Y-56802D02*
G75*
G03X35207Y-56802I-55J0D01*
G74*
G01*
X35585Y-57235D02*
X35191Y-57235D01*
X35191Y-57235D02*
X35191Y-56841D01*
X35191Y-56841D02*
X35585Y-56841D01*
X35585Y-56841D02*
X35585Y-57235D01*
X33543Y-55045D02*
G75*
G03X33543Y-55045I-55J0D01*
G74*
G01*
X33054Y-55478D02*
X33054Y-55084D01*
X33054Y-55084D02*
X33448Y-55084D01*
X33448Y-55084D02*
X33448Y-55478D01*
X33448Y-55478D02*
X33054Y-55478D01*
X30271Y-55517D02*
G75*
G03X30271Y-55517I-55J0D01*
G74*
G01*
X30648Y-55084D02*
X30648Y-55478D01*
X30648Y-55478D02*
X30254Y-55478D01*
X30254Y-55478D02*
X30254Y-55084D01*
X30254Y-55084D02*
X30648Y-55084D01*
G54D16*
X63622Y-42897D02*
X53622Y-42897D01*
X53622Y-42897D02*
X53622Y-40897D01*
X53622Y-40897D02*
X63622Y-40897D01*
X62622Y-41897D02*
X63872Y-41897D01*
X63872Y-41897D02*
X63872Y-40647D01*
X63872Y-40647D02*
X62622Y-40647D01*
X62622Y-40647D02*
X62622Y-41897D01*
X63622Y-40897D02*
X63622Y-42897D01*
G54D11*
X23622Y-46141D02*
X23740Y-46023D01*
X23622Y-46692D02*
X23740Y-46811D01*
X23622Y-46141D02*
X23622Y-46692D01*
X24173Y-46338D02*
X23858Y-46338D01*
X23858Y-46338D02*
X24015Y-46496D01*
X24015Y-46496D02*
X24173Y-46338D01*
X24291Y-45551D02*
X23740Y-45551D01*
X23740Y-45551D02*
X23740Y-47283D01*
X23740Y-47283D02*
X24291Y-47283D01*
X24291Y-47283D02*
X24291Y-45551D01*
X23728Y-51122D02*
X23846Y-51003D01*
X23728Y-51673D02*
X23846Y-51791D01*
X23728Y-51122D02*
X23728Y-51673D01*
X24279Y-51318D02*
X23964Y-51318D01*
X23964Y-51318D02*
X24122Y-51476D01*
X24122Y-51476D02*
X24279Y-51318D01*
X24397Y-50531D02*
X23846Y-50531D01*
X23846Y-50531D02*
X23846Y-52263D01*
X23846Y-52263D02*
X24397Y-52263D01*
X24397Y-52263D02*
X24397Y-50531D01*
X23728Y-54722D02*
X23846Y-54603D01*
X23728Y-55273D02*
X23846Y-55391D01*
X23728Y-54722D02*
X23728Y-55273D01*
X24279Y-54918D02*
X23964Y-54918D01*
X23964Y-54918D02*
X24122Y-55076D01*
X24122Y-55076D02*
X24279Y-54918D01*
X24397Y-54131D02*
X23846Y-54131D01*
X23846Y-54131D02*
X23846Y-55863D01*
X23846Y-55863D02*
X24397Y-55863D01*
X24397Y-55863D02*
X24397Y-54131D01*
X23728Y-56522D02*
X23846Y-56403D01*
X23728Y-57073D02*
X23846Y-57191D01*
X23728Y-56522D02*
X23728Y-57073D01*
X24279Y-56718D02*
X23964Y-56718D01*
X23964Y-56718D02*
X24122Y-56876D01*
X24122Y-56876D02*
X24279Y-56718D01*
X24397Y-55931D02*
X23846Y-55931D01*
X23846Y-55931D02*
X23846Y-57663D01*
X23846Y-57663D02*
X24397Y-57663D01*
X24397Y-57663D02*
X24397Y-55931D01*
X23728Y-58322D02*
X23846Y-58203D01*
X23728Y-58873D02*
X23846Y-58991D01*
X23728Y-58322D02*
X23728Y-58873D01*
X24279Y-58518D02*
X23964Y-58518D01*
X23964Y-58518D02*
X24122Y-58676D01*
X24122Y-58676D02*
X24279Y-58518D01*
X24397Y-57731D02*
X23846Y-57731D01*
X23846Y-57731D02*
X23846Y-59463D01*
X23846Y-59463D02*
X24397Y-59463D01*
X24397Y-59463D02*
X24397Y-57731D01*
X23728Y-52922D02*
X23846Y-52803D01*
X23728Y-53473D02*
X23846Y-53591D01*
X23728Y-52922D02*
X23728Y-53473D01*
X24279Y-53118D02*
X23964Y-53118D01*
X23964Y-53118D02*
X24122Y-53276D01*
X24122Y-53276D02*
X24279Y-53118D01*
X24397Y-52331D02*
X23846Y-52331D01*
X23846Y-52331D02*
X23846Y-54063D01*
X23846Y-54063D02*
X24397Y-54063D01*
X24397Y-54063D02*
X24397Y-52331D01*
X25272Y-52347D02*
X25272Y-52647D01*
X25272Y-52647D02*
X24572Y-52647D01*
X24572Y-52647D02*
X24572Y-52347D01*
X24572Y-52347D02*
X25272Y-52347D01*
X37448Y-61306D02*
X37448Y-61265D01*
X37448Y-61265D02*
X37311Y-61127D01*
X37311Y-61127D02*
X37271Y-61127D01*
X37271Y-63095D02*
X37448Y-63095D01*
X37448Y-63095D02*
X37448Y-62918D01*
X35480Y-62918D02*
X35480Y-63095D01*
X35480Y-63095D02*
X35657Y-63095D01*
X35657Y-61127D02*
X35480Y-61127D01*
X35480Y-61127D02*
X35480Y-61304D01*
X49397Y-64774D02*
X49554Y-64931D01*
X49554Y-63357D02*
X49397Y-63357D01*
X49397Y-63357D02*
X49397Y-63514D01*
X50971Y-63514D02*
X50971Y-63357D01*
X50971Y-63357D02*
X50814Y-63357D01*
X50814Y-64931D02*
X50971Y-64931D01*
X50971Y-64931D02*
X50971Y-64774D01*
G54D16*
X32622Y-50897D02*
X32622Y-48897D01*
X32622Y-48897D02*
X33622Y-48897D01*
X33622Y-48897D02*
X33622Y-50897D01*
X33872Y-49897D02*
X32372Y-49897D01*
X32372Y-49897D02*
X32372Y-51147D01*
X32372Y-51147D02*
X33872Y-51147D01*
X32622Y-50897D02*
X33622Y-50897D01*
X33872Y-51147D02*
X33872Y-49897D01*
X56622Y-43897D02*
X58622Y-43897D01*
X58622Y-43897D02*
X58622Y-44897D01*
X58622Y-44897D02*
X56622Y-44897D01*
X57622Y-45147D02*
X57622Y-43647D01*
X57622Y-43647D02*
X56372Y-43647D01*
X56372Y-43647D02*
X56372Y-45147D01*
X56622Y-43897D02*
X56622Y-44897D01*
X56372Y-45147D02*
X57622Y-45147D01*
X61622Y-43897D02*
X63622Y-43897D01*
X63622Y-43897D02*
X63622Y-44897D01*
X63622Y-44897D02*
X61622Y-44897D01*
X62622Y-45147D02*
X62622Y-43647D01*
X62622Y-43647D02*
X61372Y-43647D01*
X61372Y-43647D02*
X61372Y-45147D01*
X61622Y-43897D02*
X61622Y-44897D01*
X61372Y-45147D02*
X62622Y-45147D01*
G54D18*
X28489Y-62349D02*
X28489Y-62841D01*
X28466Y-62940D02*
G75*
G03X28466Y-62940I-55J0D01*
G74*
G01*
X28646Y-62940D02*
X28607Y-62940D01*
X28804Y-62940D02*
X28764Y-62940D01*
X28961Y-62940D02*
X28922Y-62940D01*
X28922Y-62349D02*
X28961Y-62349D01*
X28764Y-62349D02*
X28804Y-62349D01*
X28607Y-62349D02*
X28646Y-62349D01*
X29079Y-62940D02*
X29079Y-62349D01*
X30889Y-60850D02*
X30889Y-60357D01*
X31024Y-60259D02*
G75*
G03X31024Y-60259I-55J0D01*
G74*
G01*
X30732Y-60259D02*
X30771Y-60259D01*
X30574Y-60259D02*
X30614Y-60259D01*
X30417Y-60259D02*
X30456Y-60259D01*
X30456Y-60850D02*
X30417Y-60850D01*
X30614Y-60850D02*
X30574Y-60850D01*
X30771Y-60850D02*
X30732Y-60850D01*
X30299Y-60259D02*
X30299Y-60850D01*
X30354Y-57895D02*
X30846Y-57895D01*
X31000Y-57974D02*
G75*
G03X31000Y-57974I-55J0D01*
G74*
G01*
X30945Y-57737D02*
X30945Y-57777D01*
X30945Y-57580D02*
X30945Y-57619D01*
X30945Y-57422D02*
X30945Y-57462D01*
X30354Y-57462D02*
X30354Y-57422D01*
X30354Y-57619D02*
X30354Y-57580D01*
X30354Y-57777D02*
X30354Y-57737D01*
X30945Y-57304D02*
X30354Y-57304D01*
G54D11*
X67335Y-44567D02*
X67335Y-44666D01*
X67039Y-44666D02*
X67335Y-44666D01*
X67531Y-44764D02*
G75*
G03X67531Y-44764I-98J0D01*
G74*
G01*
X66153Y-44567D02*
X66153Y-44666D01*
X66153Y-44666D02*
X66449Y-44666D01*
X66449Y-43484D02*
X66153Y-43484D01*
X66153Y-43484D02*
X66153Y-43583D01*
X67335Y-43583D02*
X67335Y-43484D01*
X67335Y-43484D02*
X67039Y-43484D01*
X23661Y-43169D02*
X23543Y-43169D01*
X23543Y-43169D02*
X23543Y-44547D01*
X23543Y-44547D02*
X23661Y-44547D01*
X23661Y-42480D02*
X26259Y-42480D01*
X26259Y-45236D02*
X23661Y-45236D01*
X26259Y-45078D02*
X25118Y-45078D01*
X26259Y-42637D02*
X25118Y-42637D01*
X25118Y-42480D02*
X25118Y-45236D01*
X23661Y-42480D02*
X23661Y-45236D01*
X26259Y-42480D02*
X26259Y-42637D01*
X26259Y-45236D02*
X26259Y-45078D01*
X27002Y-43767D02*
X27302Y-43767D01*
X27302Y-43767D02*
X27302Y-44467D01*
X27302Y-44467D02*
X27002Y-44467D01*
X27002Y-44467D02*
X27002Y-43767D01*
X27002Y-48867D02*
X27302Y-48867D01*
X27302Y-48867D02*
X27302Y-49567D01*
X27302Y-49567D02*
X27002Y-49567D01*
X27002Y-49567D02*
X27002Y-48867D01*
X50322Y-62487D02*
X50022Y-62487D01*
X50022Y-62487D02*
X50022Y-61787D01*
X50022Y-61787D02*
X50322Y-61787D01*
X50322Y-61787D02*
X50322Y-62487D01*
X50762Y-61927D02*
X50462Y-61927D01*
X50462Y-61927D02*
X50462Y-61227D01*
X50462Y-61227D02*
X50762Y-61227D01*
X50762Y-61227D02*
X50762Y-61927D01*
X51222Y-59587D02*
X51222Y-59287D01*
X51222Y-59287D02*
X51922Y-59287D01*
X51922Y-59287D02*
X51922Y-59587D01*
X51922Y-59587D02*
X51222Y-59587D01*
X52972Y-64687D02*
X53272Y-64687D01*
X53272Y-64687D02*
X53272Y-65387D01*
X53272Y-65387D02*
X52972Y-65387D01*
X52972Y-65387D02*
X52972Y-64687D01*
X52682Y-65817D02*
X52682Y-65517D01*
X52682Y-65517D02*
X53382Y-65517D01*
X53382Y-65517D02*
X53382Y-65817D01*
X53382Y-65817D02*
X52682Y-65817D01*
X50032Y-60957D02*
X50332Y-60957D01*
X50332Y-60957D02*
X50332Y-61657D01*
X50332Y-61657D02*
X50032Y-61657D01*
X50032Y-61657D02*
X50032Y-60957D01*
X51172Y-60587D02*
X51172Y-60887D01*
X51172Y-60887D02*
X50472Y-60887D01*
X50472Y-60887D02*
X50472Y-60587D01*
X50472Y-60587D02*
X51172Y-60587D01*
X63332Y-47747D02*
X63332Y-48047D01*
X63332Y-48047D02*
X62632Y-48047D01*
X62632Y-48047D02*
X62632Y-47747D01*
X62632Y-47747D02*
X63332Y-47747D01*
X62642Y-48507D02*
X62642Y-48207D01*
X62642Y-48207D02*
X63342Y-48207D01*
X63342Y-48207D02*
X63342Y-48507D01*
X63342Y-48507D02*
X62642Y-48507D01*
G54D16*
X53622Y-63897D02*
X66622Y-63897D01*
X66622Y-65897D02*
X53622Y-65897D01*
X53622Y-65897D02*
X53622Y-63897D01*
X65622Y-64897D02*
X66872Y-64897D01*
X66872Y-64897D02*
X66872Y-63647D01*
X66872Y-63647D02*
X65622Y-63647D01*
X65622Y-63647D02*
X65622Y-64897D01*
X66622Y-63897D02*
X66622Y-65897D01*
X35622Y-41897D02*
X36872Y-41897D01*
X36872Y-41897D02*
X36872Y-40647D01*
X36872Y-40647D02*
X35622Y-40647D01*
X35622Y-40647D02*
X35622Y-41897D01*
X36622Y-42897D02*
X33622Y-42897D01*
X33622Y-42897D02*
X33622Y-40897D01*
X33622Y-40897D02*
X36622Y-40897D01*
X36622Y-40897D02*
X36622Y-42897D01*
G54D11*
X38412Y-63647D02*
G75*
G03X38412Y-63647I-280J0D01*
G74*
G01*
X35210Y-63450D02*
G75*
G03X35210Y-63450I-280J0D01*
G74*
G01*
X34832Y-62667D02*
G75*
G03X34832Y-62667I-280J0D01*
G74*
G01*
X34642Y-61297D02*
G75*
G03X34642Y-61297I-280J0D01*
G74*
G01*
X40802Y-63777D02*
G75*
G03X40802Y-63777I-280J0D01*
G74*
G01*
X28620Y-57760D02*
G75*
G03X28620Y-57760I-280J0D01*
G74*
G01*
X29692Y-65507D02*
G75*
G03X29692Y-65507I-280J0D01*
G74*
G01*
X56982Y-60767D02*
G75*
G03X56982Y-60767I-280J0D01*
G74*
G01*
X31060Y-59070D02*
G75*
G03X31060Y-59070I-280J0D01*
G74*
G01*
X32612Y-60957D02*
G75*
G03X32612Y-60957I-280J0D01*
G74*
G01*
X29152Y-55577D02*
G75*
G03X29152Y-55577I-280J0D01*
G74*
G01*
X32352Y-58777D02*
G75*
G03X32352Y-58777I-280J0D01*
G74*
G01*
X34162Y-57007D02*
G75*
G03X34162Y-57007I-280J0D01*
G74*
G01*
X34232Y-54347D02*
G75*
G03X34232Y-54347I-280J0D01*
G74*
G01*
X37382Y-56297D02*
G75*
G03X37382Y-56297I-280J0D01*
G74*
G01*
X43492Y-64317D02*
G75*
G03X43492Y-64317I-280J0D01*
G74*
G01*
X41722Y-63597D02*
G75*
G03X41722Y-63597I-280J0D01*
G74*
G01*
X39592Y-60437D02*
G75*
G03X39592Y-60437I-280J0D01*
G74*
G01*
X39540Y-59500D02*
G75*
G03X39540Y-59500I-280J0D01*
G74*
G01*
X38262Y-60427D02*
G75*
G03X38262Y-60427I-280J0D01*
G74*
G01*
X37402Y-58387D02*
G75*
G03X37402Y-58387I-280J0D01*
G74*
G01*
X34662Y-61987D02*
G75*
G03X34662Y-61987I-280J0D01*
G74*
G01*
X40952Y-57357D02*
G75*
G03X40952Y-57357I-280J0D01*
G74*
G01*
X41442Y-57867D02*
G75*
G03X41442Y-57867I-280J0D01*
G74*
G01*
X52252Y-53357D02*
G75*
G03X52252Y-53357I-280J0D01*
G74*
G01*
X47542Y-56667D02*
G75*
G03X47542Y-56667I-280J0D01*
G74*
G01*
X37932Y-42847D02*
G75*
G03X37932Y-42847I-280J0D01*
G74*
G01*
X50892Y-60107D02*
G75*
G03X50892Y-60107I-280J0D01*
G74*
G01*
X52072Y-61707D02*
G75*
G03X52072Y-61707I-280J0D01*
G74*
G01*
X44112Y-48607D02*
G75*
G03X44112Y-48607I-280J0D01*
G74*
G01*
X44990Y-43100D02*
G75*
G03X44990Y-43100I-280J0D01*
G74*
G01*
X41200Y-41450D02*
G75*
G03X41200Y-41450I-280J0D01*
G74*
G01*
X44362Y-47077D02*
G75*
G03X44362Y-47077I-280J0D01*
G74*
G01*
X45120Y-43880D02*
G75*
G03X45120Y-43880I-280J0D01*
G74*
G01*
X47302Y-42307D02*
G75*
G03X47302Y-42307I-280J0D01*
G74*
G01*
X44172Y-44997D02*
G75*
G03X44172Y-44997I-280J0D01*
G74*
G01*
X65692Y-54407D02*
G75*
G03X65692Y-54407I-280J0D01*
G74*
G01*
X64312Y-50947D02*
G75*
G03X64312Y-50947I-280J0D01*
G74*
G01*
X66092Y-50817D02*
G75*
G03X66092Y-50817I-280J0D01*
G74*
G01*
X62552Y-59757D02*
G75*
G03X62552Y-59757I-280J0D01*
G74*
G01*
X62622Y-47417D02*
G75*
G03X62622Y-47417I-280J0D01*
G74*
G01*
X26672Y-51117D02*
G75*
G03X26672Y-51117I-280J0D01*
G74*
G01*
X55312Y-48117D02*
G75*
G03X55312Y-48117I-280J0D01*
G74*
G01*
X56240Y-48460D02*
G75*
G03X56240Y-48460I-280J0D01*
G74*
G01*
X58252Y-45467D02*
G75*
G03X58252Y-45467I-280J0D01*
G74*
G01*
X56342Y-47567D02*
G75*
G03X56342Y-47567I-280J0D01*
G74*
G01*
X56262Y-45147D02*
G75*
G03X56262Y-45147I-280J0D01*
G74*
G01*
X52922Y-49827D02*
G75*
G03X52922Y-49827I-280J0D01*
G74*
G01*
X53462Y-52527D02*
G75*
G03X53462Y-52527I-280J0D01*
G74*
G01*
X68814Y-59598D02*
X68814Y-59298D01*
X68814Y-59298D02*
X69514Y-59298D01*
X69514Y-59298D02*
X69514Y-59598D01*
X69514Y-59598D02*
X68814Y-59598D01*
X67972Y-64757D02*
X68272Y-64757D01*
X68272Y-64757D02*
X68272Y-65457D01*
X68272Y-65457D02*
X67972Y-65457D01*
X67972Y-65457D02*
X67972Y-64757D01*
X66042Y-62217D02*
G75*
G03X66042Y-62217I-280J0D01*
G74*
G01*
X61012Y-62317D02*
G75*
G03X61012Y-62317I-280J0D01*
G74*
G01*
X35359Y-56102D02*
G75*
G03X35359Y-56102I-196J0D01*
G74*
G01*
X33308Y-59707D02*
G75*
G03X33308Y-59707I-196J0D01*
G74*
G01*
X29950Y-56777D02*
G75*
G03X29950Y-56777I-196J0D01*
G74*
G01*
X29351Y-57540D02*
G75*
G03X29351Y-57540I-196J0D01*
G74*
G01*
X37118Y-54697D02*
G75*
G03X37118Y-54697I-196J0D01*
G74*
G01*
X33818Y-63527D02*
G75*
G03X33818Y-63527I-196J0D01*
G74*
G01*
X29857Y-62145D02*
G75*
G03X29857Y-62145I-196J0D01*
G74*
G01*
X31311Y-59591D02*
G75*
G03X31311Y-59591I-196J0D01*
G74*
G01*
X45046Y-63681D02*
G75*
G03X45046Y-63681I-196J0D01*
G74*
G01*
X41185Y-66456D02*
G75*
G03X41185Y-66456I-196J0D01*
G74*
G01*
X41240Y-65108D02*
G75*
G03X41240Y-65108I-196J0D01*
G74*
G01*
X39966Y-65458D02*
G75*
G03X39966Y-65458I-196J0D01*
G74*
G01*
X31561Y-58154D02*
G75*
G03X31561Y-58154I-196J0D01*
G74*
G01*
X43297Y-62766D02*
G75*
G03X43297Y-62766I-196J0D01*
G74*
G01*
X39315Y-58145D02*
G75*
G03X39315Y-58145I-196J0D01*
G74*
G01*
X40838Y-60740D02*
G75*
G03X40838Y-60740I-196J0D01*
G74*
G01*
X44572Y-60516D02*
G75*
G03X44572Y-60516I-196J0D01*
G74*
G01*
X47282Y-65757D02*
X46982Y-65757D01*
X46982Y-65757D02*
X46982Y-65057D01*
X46982Y-65057D02*
X47282Y-65057D01*
X47282Y-65057D02*
X47282Y-65757D01*
X32352Y-47637D02*
X32052Y-47637D01*
X32052Y-47637D02*
X32052Y-46937D01*
X32052Y-46937D02*
X32352Y-46937D01*
X32352Y-46937D02*
X32352Y-47637D01*
X44392Y-62857D02*
G75*
G03X44392Y-62857I-280J0D01*
G74*
G01*
X40742Y-65747D02*
G75*
G03X40742Y-65747I-280J0D01*
G74*
G01*
X38542Y-58427D02*
G75*
G03X38542Y-58427I-280J0D01*
G74*
G01*
X36332Y-55437D02*
G75*
G03X36332Y-55437I-280J0D01*
G74*
G01*
X29571Y-64724D02*
G75*
G03X29571Y-64724I-280J0D01*
G74*
G01*
X32522Y-59767D02*
G75*
G03X32522Y-59767I-280J0D01*
G74*
G01*
X34582Y-63777D02*
G75*
G03X34582Y-63777I-280J0D01*
G74*
G01*
X27622Y-57707D02*
G75*
G03X27622Y-57707I-280J0D01*
G74*
G01*
X41722Y-60087D02*
G75*
G03X41722Y-60087I-280J0D01*
G74*
G01*
X44942Y-59677D02*
G75*
G03X44942Y-59677I-280J0D01*
G74*
G01*
G54D16*
X57622Y-45897D02*
X57622Y-47897D01*
X57622Y-47897D02*
X56622Y-47897D01*
X56622Y-47897D02*
X56622Y-45897D01*
X57622Y-45897D02*
X56622Y-45897D01*
X70622Y-50897D02*
X70622Y-52897D01*
X70622Y-52897D02*
X69622Y-52897D01*
X69622Y-52897D02*
X69622Y-50897D01*
X70622Y-50897D02*
X69622Y-50897D01*
X47622Y-61897D02*
X47622Y-50897D01*
X47622Y-50897D02*
X49622Y-50897D01*
X49622Y-50897D02*
X49622Y-61897D01*
X48622Y-60897D02*
X48622Y-62147D01*
X48622Y-62147D02*
X49872Y-62147D01*
X49872Y-62147D02*
X49872Y-60897D01*
X49872Y-60897D02*
X48622Y-60897D01*
X49622Y-61897D02*
X47622Y-61897D01*
X50622Y-51897D02*
X52622Y-51897D01*
X52622Y-51897D02*
X52622Y-52897D01*
X52622Y-52897D02*
X50622Y-52897D01*
X51622Y-53147D02*
X51622Y-51647D01*
X51622Y-51647D02*
X50372Y-51647D01*
X50372Y-51647D02*
X50372Y-53147D01*
X50622Y-51897D02*
X50622Y-52897D01*
X50372Y-53147D02*
X51622Y-53147D01*
G54D11*
X49120Y-62890D02*
X49120Y-63190D01*
X49120Y-63190D02*
X48420Y-63190D01*
X48420Y-63190D02*
X48420Y-62890D01*
X48420Y-62890D02*
X49120Y-62890D01*
X63307Y-60078D02*
X66299Y-60078D01*
X66299Y-60078D02*
X66299Y-60787D01*
X66299Y-60787D02*
X63307Y-60787D01*
X63307Y-60787D02*
X63307Y-60078D01*
X45354Y-50196D02*
X44409Y-50196D01*
X44409Y-50196D02*
X44409Y-51771D01*
X44409Y-51771D02*
X45354Y-51771D01*
X45354Y-51771D02*
X45354Y-50196D01*
X70503Y-45871D02*
X69103Y-45871D01*
X69103Y-45871D02*
X69103Y-45151D01*
X69103Y-45151D02*
X70503Y-45151D01*
X70503Y-45151D02*
X70503Y-45871D01*
X70503Y-46737D02*
X69103Y-46737D01*
X69103Y-46737D02*
X69103Y-46017D01*
X69103Y-46017D02*
X70503Y-46017D01*
X70503Y-46017D02*
X70503Y-46737D01*
G54D16*
X42622Y-51897D02*
X34622Y-51897D01*
X34622Y-51897D02*
X34622Y-49897D01*
X34622Y-49897D02*
X42622Y-49897D01*
X41622Y-50897D02*
X42872Y-50897D01*
X42872Y-50897D02*
X42872Y-49647D01*
X42872Y-49647D02*
X41622Y-49647D01*
X41622Y-49647D02*
X41622Y-50897D01*
X42622Y-49897D02*
X42622Y-51897D01*
G54D11*
X54672Y-50347D02*
X54672Y-50047D01*
X54672Y-50047D02*
X55372Y-50047D01*
X55372Y-50047D02*
X55372Y-50347D01*
X55372Y-50347D02*
X54672Y-50347D01*
X49800Y-67040D02*
X49800Y-66740D01*
X49800Y-66740D02*
X50500Y-66740D01*
X50500Y-66740D02*
X50500Y-67040D01*
X50500Y-67040D02*
X49800Y-67040D01*
X48078Y-65870D02*
X48378Y-65870D01*
X48378Y-65870D02*
X48378Y-66570D01*
X48378Y-66570D02*
X48078Y-66570D01*
X48078Y-66570D02*
X48078Y-65870D01*
G54D19*
X28474Y-64795D02*
X27274Y-64795D01*
X27274Y-64795D02*
X27274Y-64495D01*
X27274Y-64495D02*
X28474Y-64495D01*
X28474Y-64495D02*
X28474Y-64795D01*
G54D11*
X27082Y-63160D02*
X27082Y-64240D01*
X27082Y-64240D02*
X27562Y-64240D01*
X27562Y-64240D02*
X27562Y-63160D01*
X27562Y-63160D02*
X27082Y-63160D01*
X28224Y-65440D02*
X28224Y-65740D01*
X28224Y-65740D02*
X27524Y-65740D01*
X27524Y-65740D02*
X27524Y-65440D01*
X27524Y-65440D02*
X28224Y-65440D01*
X28811Y-66019D02*
X28511Y-66019D01*
X28511Y-66019D02*
X28511Y-65319D01*
X28511Y-65319D02*
X28811Y-65319D01*
X28811Y-65319D02*
X28811Y-66019D01*
G54D19*
X65622Y-47257D02*
X65622Y-48457D01*
X65622Y-48457D02*
X65322Y-48457D01*
X65322Y-48457D02*
X65322Y-47257D01*
X65322Y-47257D02*
X65622Y-47257D01*
G54D11*
X68022Y-50674D02*
X66622Y-50674D01*
X66622Y-50674D02*
X66622Y-49954D01*
X66622Y-49954D02*
X68022Y-49954D01*
X68022Y-49954D02*
X68022Y-50674D01*
X63672Y-49037D02*
X63672Y-49337D01*
X63672Y-49337D02*
X62972Y-49337D01*
X62972Y-49337D02*
X62972Y-49037D01*
X62972Y-49037D02*
X63672Y-49037D01*
X65576Y-49170D02*
X65576Y-49470D01*
X65576Y-49470D02*
X64876Y-49470D01*
X64876Y-49470D02*
X64876Y-49170D01*
X64876Y-49170D02*
X65576Y-49170D01*
X65576Y-48855D02*
X65576Y-49155D01*
X65576Y-49155D02*
X64876Y-49155D01*
X64876Y-49155D02*
X64876Y-48855D01*
X64876Y-48855D02*
X65576Y-48855D01*
X67411Y-49596D02*
G75*
G03X67411Y-49596I-39J0D01*
G74*
G01*
X67253Y-49478D02*
X66624Y-49478D01*
X66624Y-49478D02*
X66624Y-48848D01*
X66624Y-48848D02*
X67253Y-48848D01*
X67253Y-48848D02*
X67253Y-49478D01*
X67913Y-40157D02*
G75*
G03X67913Y-40157I-590J0D01*
G74*
G01*
G54D10*
G36*
X48018Y-41782D02*
X41425Y-41782D01*
X41425Y-39913D01*
X48018Y-39913D01*
X48018Y-41782D01*
X48018Y-41782D01*
G37*
G54D21*
X48018Y-41782D02*
X41425Y-41782D01*
X41425Y-39913D01*
X48018Y-39913D01*
X48018Y-41782D01*
M02*
